G04 #@! TF.GenerationSoftware,KiCad,Pcbnew,(5.1.5)-3*
G04 #@! TF.CreationDate,2020-07-07T14:13:23+02:00*
G04 #@! TF.ProjectId,HadesNT,48616465-734e-4542-9e6b-696361645f70,rev?*
G04 #@! TF.SameCoordinates,Original*
G04 #@! TF.FileFunction,Copper,L2,Inr*
G04 #@! TF.FilePolarity,Positive*
%FSLAX46Y46*%
G04 Gerber Fmt 4.6, Leading zero omitted, Abs format (unit mm)*
G04 Created by KiCad (PCBNEW (5.1.5)-3) date 2020-07-07 14:13:23*
%MOMM*%
%LPD*%
G04 APERTURE LIST*
%ADD10O,1.400000X1.800000*%
%ADD11C,0.900000*%
%ADD12C,8.600000*%
%ADD13R,1.000000X1.000000*%
%ADD14O,1.000000X1.000000*%
%ADD15R,1.700000X1.700000*%
%ADD16O,1.700000X1.700000*%
%ADD17C,0.450000*%
%ADD18C,0.800000*%
%ADD19C,1.000000*%
%ADD20C,0.500000*%
%ADD21C,0.254000*%
G04 APERTURE END LIST*
D10*
X84300000Y-21675000D03*
X77700000Y-21675000D03*
D11*
X27280419Y-22719581D03*
X25000000Y-21775000D03*
X22719581Y-22719581D03*
X21775000Y-25000000D03*
X22719581Y-27280419D03*
X25000000Y-28225000D03*
X27280419Y-27280419D03*
X28225000Y-25000000D03*
D12*
X25000000Y-25000000D03*
X25000000Y-65000000D03*
D11*
X28225000Y-65000000D03*
X27280419Y-67280419D03*
X25000000Y-68225000D03*
X22719581Y-67280419D03*
X21775000Y-65000000D03*
X22719581Y-62719581D03*
X25000000Y-61775000D03*
X27280419Y-62719581D03*
X97280419Y-62719581D03*
X95000000Y-61775000D03*
X92719581Y-62719581D03*
X91775000Y-65000000D03*
X92719581Y-67280419D03*
X95000000Y-68225000D03*
X97280419Y-67280419D03*
X98225000Y-65000000D03*
D12*
X95000000Y-65000000D03*
X95000000Y-25000000D03*
D11*
X98225000Y-25000000D03*
X97280419Y-27280419D03*
X95000000Y-28225000D03*
X92719581Y-27280419D03*
X91775000Y-25000000D03*
X92719581Y-22719581D03*
X95000000Y-21775000D03*
X97280419Y-22719581D03*
D13*
X71540000Y-23800000D03*
D14*
X71540000Y-25070000D03*
X70270000Y-23800000D03*
X70270000Y-25070000D03*
X69000000Y-23800000D03*
X69000000Y-25070000D03*
X67730000Y-23800000D03*
X67730000Y-25070000D03*
X66460000Y-23800000D03*
X66460000Y-25070000D03*
D15*
X98000000Y-57800000D03*
D16*
X95460000Y-57800000D03*
X98000000Y-55260000D03*
X95460000Y-55260000D03*
X98000000Y-52720000D03*
X95460000Y-52720000D03*
X98000000Y-50180000D03*
X95460000Y-50180000D03*
X98000000Y-47640000D03*
X95460000Y-47640000D03*
X98000000Y-45100000D03*
X95460000Y-45100000D03*
X98000000Y-42560000D03*
X95460000Y-42560000D03*
X98000000Y-40020000D03*
X95460000Y-40020000D03*
D15*
X92925000Y-40050000D03*
D16*
X92925000Y-42590000D03*
X92925000Y-45130000D03*
X92925000Y-47670000D03*
X92925000Y-50210000D03*
X92925000Y-52750000D03*
X92925000Y-55290000D03*
X92925000Y-57830000D03*
D17*
X59500000Y-22850000D03*
X56500000Y-22850000D03*
D18*
X41250000Y-34400000D03*
X40300000Y-43200000D03*
X74000000Y-60450000D03*
X81350000Y-28300000D03*
X78750000Y-26000000D03*
X77750000Y-26000000D03*
X76750000Y-26000000D03*
X76750000Y-27000000D03*
X77750000Y-27000000D03*
X78750000Y-27000000D03*
X26000000Y-33500000D03*
X27000000Y-33500000D03*
X28000000Y-33500000D03*
X26000000Y-32500000D03*
X27000000Y-32500000D03*
X28000000Y-32500000D03*
X26000000Y-31500000D03*
X27000000Y-31500000D03*
X28000000Y-31500000D03*
X81300000Y-53650000D03*
X82500000Y-51900000D03*
X83440000Y-51030000D03*
X85390000Y-35210000D03*
X83670000Y-34000000D03*
X82770000Y-33070000D03*
X69490000Y-32810000D03*
X69470000Y-31800000D03*
X65280000Y-30850000D03*
X66420000Y-30860000D03*
X68558191Y-41107102D03*
X67990000Y-45040000D03*
X67990000Y-44120000D03*
X66450000Y-52800000D03*
X66450000Y-51800000D03*
X62600000Y-58975000D03*
X62000000Y-55600000D03*
X77950000Y-55050000D03*
X77025000Y-55050000D03*
X64450000Y-32070000D03*
X69500000Y-41107102D03*
X62250000Y-39350000D03*
X59475000Y-44850000D03*
X52300000Y-40600000D03*
X51300000Y-47600000D03*
D19*
X34720000Y-66470000D03*
X45080000Y-66470000D03*
X78880000Y-66470000D03*
D18*
X41700000Y-57700000D03*
X48650000Y-57700000D03*
X57750000Y-39750000D03*
X57750000Y-40750000D03*
X57750000Y-41750000D03*
X57750000Y-42750000D03*
X57750000Y-43750000D03*
X57750000Y-44750000D03*
X57750000Y-45750000D03*
X57750000Y-46750000D03*
X58750000Y-46750000D03*
X59750000Y-46750000D03*
X60750000Y-46750000D03*
X38525000Y-26260000D03*
X42720000Y-26260000D03*
X46920000Y-26260000D03*
X51130000Y-26260000D03*
D19*
X30450000Y-24680000D03*
D18*
X49660000Y-46150000D03*
X54870000Y-25070000D03*
X53500000Y-40600000D03*
X87200000Y-30400000D03*
X60800000Y-29500000D03*
X23800000Y-47600000D03*
X32180000Y-39460000D03*
X40150000Y-35950000D03*
X45125000Y-34275000D03*
D19*
X33000000Y-46250000D03*
X34250000Y-46250000D03*
X35500000Y-46250000D03*
X36750000Y-46250000D03*
X29750000Y-41000000D03*
X29750000Y-42250000D03*
X29750000Y-43500000D03*
X36750000Y-55450000D03*
X36750000Y-56700000D03*
X36750000Y-57950000D03*
X38800000Y-54100000D03*
X38800000Y-55250000D03*
D18*
X42650000Y-57100000D03*
X43700000Y-57100000D03*
D19*
X42250000Y-49350000D03*
X43100000Y-45650000D03*
X40700000Y-45650000D03*
X41900000Y-45650000D03*
X65930000Y-66480000D03*
X55450000Y-66480000D03*
X56700000Y-66470000D03*
X67180000Y-66470000D03*
X34500000Y-54750000D03*
D18*
X41225000Y-38325000D03*
X60750000Y-47750000D03*
X61750000Y-47750000D03*
X67610000Y-30880000D03*
X64450000Y-33100000D03*
X67990000Y-41930000D03*
X68120000Y-38550000D03*
X83440000Y-50000000D03*
X84350000Y-50000000D03*
X68320000Y-53720000D03*
X67350000Y-53720000D03*
X76200000Y-53700000D03*
X63475000Y-33100000D03*
X65400000Y-58975000D03*
X61050000Y-57475000D03*
X71200000Y-60450000D03*
X53200000Y-41900000D03*
X54100000Y-47600000D03*
D19*
X35980000Y-66470000D03*
X46330000Y-66480000D03*
X80130000Y-66480000D03*
D18*
X39180000Y-57700000D03*
X46250000Y-57700000D03*
D19*
X34500000Y-23125000D03*
X30450000Y-23125000D03*
X38725000Y-23125000D03*
X42925000Y-23125000D03*
X47125000Y-23125000D03*
D18*
X69060000Y-42130000D03*
X81800000Y-33070000D03*
X59370000Y-25070000D03*
X23800000Y-48825000D03*
X43275000Y-39350000D03*
X46525000Y-34175000D03*
X42650000Y-51800000D03*
X43700000Y-51800000D03*
D19*
X34500000Y-53500000D03*
X34500000Y-52250000D03*
X33000000Y-52000000D03*
X31500000Y-52000000D03*
X30500000Y-53500000D03*
X30500000Y-54750000D03*
X33700000Y-56850000D03*
D18*
X41250000Y-35450000D03*
X38550000Y-43450000D03*
X81350000Y-30500000D03*
X83500000Y-30400000D03*
X72775000Y-40900000D03*
D19*
X86750000Y-28325000D03*
X87925000Y-26500000D03*
X86750000Y-26500000D03*
X35730000Y-35350000D03*
X35730000Y-36700000D03*
X35730000Y-37950000D03*
D18*
X82600000Y-58550000D03*
X89000000Y-55750000D03*
X83800000Y-58560839D03*
X88350000Y-56950000D03*
X77225000Y-59675000D03*
X77775000Y-48600000D03*
X76150000Y-58625000D03*
X78350000Y-47575000D03*
X71700000Y-28800000D03*
X77700000Y-36400000D03*
X72800000Y-29900000D03*
X77200000Y-37400000D03*
X57250000Y-27750000D03*
X71600000Y-36175000D03*
X73750000Y-55750000D03*
X75250000Y-48000000D03*
X66500000Y-57000000D03*
X68550000Y-57350000D03*
X71300000Y-47700000D03*
X52200000Y-45200000D03*
X67800000Y-37500000D03*
X56250000Y-49350000D03*
X64877987Y-37422013D03*
X57500000Y-38146685D03*
X55575000Y-40625000D03*
X69225000Y-38950000D03*
X64200000Y-36600000D03*
X56350000Y-38850000D03*
X59825000Y-48925000D03*
X70575000Y-39825000D03*
X69100000Y-35899502D03*
X55450000Y-45975000D03*
X58900000Y-49800000D03*
X68400000Y-47000000D03*
X32000000Y-64800000D03*
X77050000Y-47500000D03*
X32000000Y-63450000D03*
X76200000Y-46600000D03*
X32000000Y-62300000D03*
X72450000Y-53100000D03*
X32000000Y-61050000D03*
X71400000Y-53100000D03*
X32000000Y-59800000D03*
X73850000Y-36800000D03*
X32000000Y-58650000D03*
X74300000Y-38000000D03*
X87500000Y-45150000D03*
X73300000Y-65750000D03*
X87500000Y-46350000D03*
X70900000Y-66550000D03*
D20*
X62250000Y-39350000D02*
X63650000Y-39350000D01*
D21*
G36*
X62623000Y-41750000D02*
G01*
X62625440Y-41774776D01*
X62632667Y-41798601D01*
X62644403Y-41820557D01*
X62660197Y-41839803D01*
X62679443Y-41855597D01*
X62701399Y-41867333D01*
X62725224Y-41874560D01*
X62750000Y-41877000D01*
X64750000Y-41877000D01*
X64774776Y-41874560D01*
X64798601Y-41867333D01*
X64820557Y-41855597D01*
X64839803Y-41839803D01*
X64855597Y-41820557D01*
X64867333Y-41798601D01*
X64874560Y-41774776D01*
X64877000Y-41750000D01*
X64877000Y-41627000D01*
X66995230Y-41627000D01*
X66994774Y-41628102D01*
X66955000Y-41828061D01*
X66955000Y-42031939D01*
X66994774Y-42231898D01*
X67053221Y-42373000D01*
X65325000Y-42373000D01*
X65300224Y-42375440D01*
X65276399Y-42382667D01*
X65254443Y-42394403D01*
X65235197Y-42410197D01*
X65219403Y-42429443D01*
X65207667Y-42451399D01*
X65200440Y-42475224D01*
X65198000Y-42500000D01*
X65198000Y-43873000D01*
X62750000Y-43873000D01*
X62725224Y-43875440D01*
X62701399Y-43882667D01*
X62679443Y-43894403D01*
X62660197Y-43910197D01*
X62644403Y-43929443D01*
X62632667Y-43951399D01*
X62625440Y-43975224D01*
X62623000Y-44000000D01*
X62623000Y-45373000D01*
X59127000Y-45373000D01*
X59127000Y-38877000D01*
X62623000Y-38877000D01*
X62623000Y-41750000D01*
G37*
X62623000Y-41750000D02*
X62625440Y-41774776D01*
X62632667Y-41798601D01*
X62644403Y-41820557D01*
X62660197Y-41839803D01*
X62679443Y-41855597D01*
X62701399Y-41867333D01*
X62725224Y-41874560D01*
X62750000Y-41877000D01*
X64750000Y-41877000D01*
X64774776Y-41874560D01*
X64798601Y-41867333D01*
X64820557Y-41855597D01*
X64839803Y-41839803D01*
X64855597Y-41820557D01*
X64867333Y-41798601D01*
X64874560Y-41774776D01*
X64877000Y-41750000D01*
X64877000Y-41627000D01*
X66995230Y-41627000D01*
X66994774Y-41628102D01*
X66955000Y-41828061D01*
X66955000Y-42031939D01*
X66994774Y-42231898D01*
X67053221Y-42373000D01*
X65325000Y-42373000D01*
X65300224Y-42375440D01*
X65276399Y-42382667D01*
X65254443Y-42394403D01*
X65235197Y-42410197D01*
X65219403Y-42429443D01*
X65207667Y-42451399D01*
X65200440Y-42475224D01*
X65198000Y-42500000D01*
X65198000Y-43873000D01*
X62750000Y-43873000D01*
X62725224Y-43875440D01*
X62701399Y-43882667D01*
X62679443Y-43894403D01*
X62660197Y-43910197D01*
X62644403Y-43929443D01*
X62632667Y-43951399D01*
X62625440Y-43975224D01*
X62623000Y-44000000D01*
X62623000Y-45373000D01*
X59127000Y-45373000D01*
X59127000Y-38877000D01*
X62623000Y-38877000D01*
X62623000Y-41750000D01*
G36*
X76584618Y-20729725D02*
G01*
X76460653Y-20961646D01*
X76384317Y-21213294D01*
X76365000Y-21409421D01*
X76365000Y-21940578D01*
X76384317Y-22136705D01*
X76460653Y-22388353D01*
X76584618Y-22620274D01*
X76751445Y-22823555D01*
X76954725Y-22990382D01*
X77186646Y-23114347D01*
X77438294Y-23190683D01*
X77700000Y-23216459D01*
X77961705Y-23190683D01*
X78213353Y-23114347D01*
X78445274Y-22990382D01*
X78648555Y-22823555D01*
X78815382Y-22620275D01*
X78939347Y-22388354D01*
X79015683Y-22136706D01*
X79035000Y-21940579D01*
X79035000Y-21409422D01*
X79015683Y-21213295D01*
X78939347Y-20961647D01*
X78815382Y-20729725D01*
X78758160Y-20660000D01*
X83241840Y-20660000D01*
X83184618Y-20729725D01*
X83060653Y-20961646D01*
X82984317Y-21213294D01*
X82965000Y-21409421D01*
X82965000Y-21940578D01*
X82984317Y-22136705D01*
X83060653Y-22388353D01*
X83184618Y-22620274D01*
X83351445Y-22823555D01*
X83554725Y-22990382D01*
X83786646Y-23114347D01*
X84038294Y-23190683D01*
X84300000Y-23216459D01*
X84561705Y-23190683D01*
X84813353Y-23114347D01*
X85045274Y-22990382D01*
X85248555Y-22823555D01*
X85415382Y-22620275D01*
X85539347Y-22388354D01*
X85615683Y-22136706D01*
X85635000Y-21940579D01*
X85635000Y-21409422D01*
X85615683Y-21213295D01*
X85539347Y-20961647D01*
X85415382Y-20729725D01*
X85358160Y-20660000D01*
X92612504Y-20660000D01*
X91854121Y-21166735D01*
X91166735Y-21854121D01*
X90626660Y-22662401D01*
X90254650Y-23560514D01*
X90065000Y-24513945D01*
X90065000Y-25486055D01*
X90254650Y-26439486D01*
X90626660Y-27337599D01*
X91166735Y-28145879D01*
X91854121Y-28833265D01*
X92662401Y-29373340D01*
X93560514Y-29745350D01*
X94513945Y-29935000D01*
X95486055Y-29935000D01*
X96439486Y-29745350D01*
X97337599Y-29373340D01*
X98145879Y-28833265D01*
X98833265Y-28145879D01*
X99340000Y-27387496D01*
X99340000Y-39396599D01*
X99271641Y-39253080D01*
X99097588Y-39019731D01*
X98881355Y-38824822D01*
X98631252Y-38675843D01*
X98356891Y-38578519D01*
X98127000Y-38699186D01*
X98127000Y-39893000D01*
X98147000Y-39893000D01*
X98147000Y-40147000D01*
X98127000Y-40147000D01*
X98127000Y-42433000D01*
X98147000Y-42433000D01*
X98147000Y-42687000D01*
X98127000Y-42687000D01*
X98127000Y-44973000D01*
X98147000Y-44973000D01*
X98147000Y-45227000D01*
X98127000Y-45227000D01*
X98127000Y-47513000D01*
X98147000Y-47513000D01*
X98147000Y-47767000D01*
X98127000Y-47767000D01*
X98127000Y-50053000D01*
X98147000Y-50053000D01*
X98147000Y-50307000D01*
X98127000Y-50307000D01*
X98127000Y-52593000D01*
X98147000Y-52593000D01*
X98147000Y-52847000D01*
X98127000Y-52847000D01*
X98127000Y-55133000D01*
X98147000Y-55133000D01*
X98147000Y-55387000D01*
X98127000Y-55387000D01*
X98127000Y-57673000D01*
X98147000Y-57673000D01*
X98147000Y-57927000D01*
X98127000Y-57927000D01*
X98127000Y-59126250D01*
X98285750Y-59285000D01*
X98850000Y-59288072D01*
X98974482Y-59275812D01*
X99094180Y-59239502D01*
X99204494Y-59180537D01*
X99301185Y-59101185D01*
X99340001Y-59053888D01*
X99340001Y-62612506D01*
X98833265Y-61854121D01*
X98145879Y-61166735D01*
X97337599Y-60626660D01*
X96439486Y-60254650D01*
X95486055Y-60065000D01*
X94513945Y-60065000D01*
X93560514Y-60254650D01*
X92662401Y-60626660D01*
X91854121Y-61166735D01*
X91166735Y-61854121D01*
X90626660Y-62662401D01*
X90254650Y-63560514D01*
X90065000Y-64513945D01*
X90065000Y-65486055D01*
X90220835Y-66269487D01*
X90123110Y-66250048D01*
X89876890Y-66250048D01*
X89635402Y-66298083D01*
X89407926Y-66392307D01*
X89203202Y-66529099D01*
X89029099Y-66703202D01*
X88892307Y-66907926D01*
X88798083Y-67135402D01*
X88750048Y-67376890D01*
X88750048Y-67623110D01*
X88798083Y-67864598D01*
X88892307Y-68092074D01*
X89029099Y-68296798D01*
X89203202Y-68470901D01*
X89407926Y-68607693D01*
X89635402Y-68701917D01*
X89876890Y-68749952D01*
X90123110Y-68749952D01*
X90364598Y-68701917D01*
X90592074Y-68607693D01*
X90796798Y-68470901D01*
X90970901Y-68296798D01*
X91107693Y-68092074D01*
X91116529Y-68070741D01*
X91166735Y-68145879D01*
X91854121Y-68833265D01*
X92612504Y-69340000D01*
X27387496Y-69340000D01*
X28145879Y-68833265D01*
X28833265Y-68145879D01*
X28883471Y-68070741D01*
X28892307Y-68092074D01*
X29029099Y-68296798D01*
X29203202Y-68470901D01*
X29407926Y-68607693D01*
X29635402Y-68701917D01*
X29876890Y-68749952D01*
X30123110Y-68749952D01*
X30364598Y-68701917D01*
X30592074Y-68607693D01*
X30796798Y-68470901D01*
X30970901Y-68296798D01*
X31107693Y-68092074D01*
X31201917Y-67864598D01*
X31249952Y-67623110D01*
X31249952Y-67376890D01*
X31201917Y-67135402D01*
X31107693Y-66907926D01*
X30970901Y-66703202D01*
X30796798Y-66529099D01*
X30592074Y-66392307D01*
X30509762Y-66358212D01*
X34845000Y-66358212D01*
X34845000Y-66581788D01*
X34888617Y-66801067D01*
X34974176Y-67007624D01*
X35098388Y-67193520D01*
X35256480Y-67351612D01*
X35442376Y-67475824D01*
X35648933Y-67561383D01*
X35868212Y-67605000D01*
X36091788Y-67605000D01*
X36311067Y-67561383D01*
X36517624Y-67475824D01*
X36703520Y-67351612D01*
X36861612Y-67193520D01*
X36985824Y-67007624D01*
X37071383Y-66801067D01*
X37115000Y-66581788D01*
X37115000Y-66368212D01*
X45195000Y-66368212D01*
X45195000Y-66591788D01*
X45238617Y-66811067D01*
X45324176Y-67017624D01*
X45448388Y-67203520D01*
X45606480Y-67361612D01*
X45792376Y-67485824D01*
X45998933Y-67571383D01*
X46218212Y-67615000D01*
X46441788Y-67615000D01*
X46661067Y-67571383D01*
X46867624Y-67485824D01*
X47053520Y-67361612D01*
X47211612Y-67203520D01*
X47335824Y-67017624D01*
X47421383Y-66811067D01*
X47465000Y-66591788D01*
X47465000Y-66368212D01*
X47463011Y-66358212D01*
X55565000Y-66358212D01*
X55565000Y-66581788D01*
X55608617Y-66801067D01*
X55694176Y-67007624D01*
X55818388Y-67193520D01*
X55976480Y-67351612D01*
X56162376Y-67475824D01*
X56368933Y-67561383D01*
X56588212Y-67605000D01*
X56811788Y-67605000D01*
X57031067Y-67561383D01*
X57237624Y-67475824D01*
X57423520Y-67351612D01*
X57581612Y-67193520D01*
X57705824Y-67007624D01*
X57791383Y-66801067D01*
X57835000Y-66581788D01*
X57835000Y-66358212D01*
X66045000Y-66358212D01*
X66045000Y-66581788D01*
X66088617Y-66801067D01*
X66174176Y-67007624D01*
X66298388Y-67193520D01*
X66456480Y-67351612D01*
X66642376Y-67475824D01*
X66848933Y-67561383D01*
X67068212Y-67605000D01*
X67291788Y-67605000D01*
X67511067Y-67561383D01*
X67717624Y-67475824D01*
X67903520Y-67351612D01*
X68061612Y-67193520D01*
X68185824Y-67007624D01*
X68271383Y-66801067D01*
X68315000Y-66581788D01*
X68315000Y-66448061D01*
X69865000Y-66448061D01*
X69865000Y-66651939D01*
X69904774Y-66851898D01*
X69982795Y-67040256D01*
X70096063Y-67209774D01*
X70240226Y-67353937D01*
X70409744Y-67467205D01*
X70598102Y-67545226D01*
X70798061Y-67585000D01*
X71001939Y-67585000D01*
X71201898Y-67545226D01*
X71390256Y-67467205D01*
X71559774Y-67353937D01*
X71703937Y-67209774D01*
X71817205Y-67040256D01*
X71895226Y-66851898D01*
X71935000Y-66651939D01*
X71935000Y-66448061D01*
X71895226Y-66248102D01*
X71817205Y-66059744D01*
X71703937Y-65890226D01*
X71559774Y-65746063D01*
X71413104Y-65648061D01*
X72265000Y-65648061D01*
X72265000Y-65851939D01*
X72304774Y-66051898D01*
X72382795Y-66240256D01*
X72496063Y-66409774D01*
X72640226Y-66553937D01*
X72809744Y-66667205D01*
X72998102Y-66745226D01*
X73198061Y-66785000D01*
X73401939Y-66785000D01*
X73601898Y-66745226D01*
X73790256Y-66667205D01*
X73959774Y-66553937D01*
X74103937Y-66409774D01*
X74131707Y-66368212D01*
X78995000Y-66368212D01*
X78995000Y-66591788D01*
X79038617Y-66811067D01*
X79124176Y-67017624D01*
X79248388Y-67203520D01*
X79406480Y-67361612D01*
X79592376Y-67485824D01*
X79798933Y-67571383D01*
X80018212Y-67615000D01*
X80241788Y-67615000D01*
X80461067Y-67571383D01*
X80667624Y-67485824D01*
X80853520Y-67361612D01*
X81011612Y-67203520D01*
X81135824Y-67017624D01*
X81221383Y-66811067D01*
X81265000Y-66591788D01*
X81265000Y-66368212D01*
X81221383Y-66148933D01*
X81135824Y-65942376D01*
X81011612Y-65756480D01*
X80853520Y-65598388D01*
X80667624Y-65474176D01*
X80461067Y-65388617D01*
X80241788Y-65345000D01*
X80018212Y-65345000D01*
X79798933Y-65388617D01*
X79592376Y-65474176D01*
X79406480Y-65598388D01*
X79248388Y-65756480D01*
X79124176Y-65942376D01*
X79038617Y-66148933D01*
X78995000Y-66368212D01*
X74131707Y-66368212D01*
X74217205Y-66240256D01*
X74295226Y-66051898D01*
X74335000Y-65851939D01*
X74335000Y-65648061D01*
X74295226Y-65448102D01*
X74217205Y-65259744D01*
X74103937Y-65090226D01*
X73959774Y-64946063D01*
X73790256Y-64832795D01*
X73601898Y-64754774D01*
X73401939Y-64715000D01*
X73198061Y-64715000D01*
X72998102Y-64754774D01*
X72809744Y-64832795D01*
X72640226Y-64946063D01*
X72496063Y-65090226D01*
X72382795Y-65259744D01*
X72304774Y-65448102D01*
X72265000Y-65648061D01*
X71413104Y-65648061D01*
X71390256Y-65632795D01*
X71201898Y-65554774D01*
X71001939Y-65515000D01*
X70798061Y-65515000D01*
X70598102Y-65554774D01*
X70409744Y-65632795D01*
X70240226Y-65746063D01*
X70096063Y-65890226D01*
X69982795Y-66059744D01*
X69904774Y-66248102D01*
X69865000Y-66448061D01*
X68315000Y-66448061D01*
X68315000Y-66358212D01*
X68271383Y-66138933D01*
X68185824Y-65932376D01*
X68061612Y-65746480D01*
X67903520Y-65588388D01*
X67717624Y-65464176D01*
X67511067Y-65378617D01*
X67291788Y-65335000D01*
X67068212Y-65335000D01*
X66848933Y-65378617D01*
X66642376Y-65464176D01*
X66456480Y-65588388D01*
X66298388Y-65746480D01*
X66174176Y-65932376D01*
X66088617Y-66138933D01*
X66045000Y-66358212D01*
X57835000Y-66358212D01*
X57791383Y-66138933D01*
X57705824Y-65932376D01*
X57581612Y-65746480D01*
X57423520Y-65588388D01*
X57237624Y-65464176D01*
X57031067Y-65378617D01*
X56811788Y-65335000D01*
X56588212Y-65335000D01*
X56368933Y-65378617D01*
X56162376Y-65464176D01*
X55976480Y-65588388D01*
X55818388Y-65746480D01*
X55694176Y-65932376D01*
X55608617Y-66138933D01*
X55565000Y-66358212D01*
X47463011Y-66358212D01*
X47421383Y-66148933D01*
X47335824Y-65942376D01*
X47211612Y-65756480D01*
X47053520Y-65598388D01*
X46867624Y-65474176D01*
X46661067Y-65388617D01*
X46441788Y-65345000D01*
X46218212Y-65345000D01*
X45998933Y-65388617D01*
X45792376Y-65474176D01*
X45606480Y-65598388D01*
X45448388Y-65756480D01*
X45324176Y-65942376D01*
X45238617Y-66148933D01*
X45195000Y-66368212D01*
X37115000Y-66368212D01*
X37115000Y-66358212D01*
X37071383Y-66138933D01*
X36985824Y-65932376D01*
X36861612Y-65746480D01*
X36703520Y-65588388D01*
X36517624Y-65464176D01*
X36311067Y-65378617D01*
X36091788Y-65335000D01*
X35868212Y-65335000D01*
X35648933Y-65378617D01*
X35442376Y-65464176D01*
X35256480Y-65588388D01*
X35098388Y-65746480D01*
X34974176Y-65932376D01*
X34888617Y-66138933D01*
X34845000Y-66358212D01*
X30509762Y-66358212D01*
X30364598Y-66298083D01*
X30123110Y-66250048D01*
X29876890Y-66250048D01*
X29779165Y-66269487D01*
X29935000Y-65486055D01*
X29935000Y-64513945D01*
X29745350Y-63560514D01*
X29373340Y-62662401D01*
X28833265Y-61854121D01*
X28145879Y-61166735D01*
X27337599Y-60626660D01*
X26439486Y-60254650D01*
X25486055Y-60065000D01*
X24513945Y-60065000D01*
X23560514Y-60254650D01*
X22662401Y-60626660D01*
X21854121Y-61166735D01*
X21166735Y-61854121D01*
X20660000Y-62612504D01*
X20660000Y-58548061D01*
X30965000Y-58548061D01*
X30965000Y-58751939D01*
X31004774Y-58951898D01*
X31082795Y-59140256D01*
X31139419Y-59225000D01*
X31082795Y-59309744D01*
X31004774Y-59498102D01*
X30965000Y-59698061D01*
X30965000Y-59901939D01*
X31004774Y-60101898D01*
X31082795Y-60290256D01*
X31172828Y-60425000D01*
X31082795Y-60559744D01*
X31004774Y-60748102D01*
X30965000Y-60948061D01*
X30965000Y-61151939D01*
X31004774Y-61351898D01*
X31082795Y-61540256D01*
X31172828Y-61675000D01*
X31082795Y-61809744D01*
X31004774Y-61998102D01*
X30965000Y-62198061D01*
X30965000Y-62401939D01*
X31004774Y-62601898D01*
X31082795Y-62790256D01*
X31139419Y-62875000D01*
X31082795Y-62959744D01*
X31004774Y-63148102D01*
X30965000Y-63348061D01*
X30965000Y-63551939D01*
X31004774Y-63751898D01*
X31082795Y-63940256D01*
X31196063Y-64109774D01*
X31211289Y-64125000D01*
X31196063Y-64140226D01*
X31082795Y-64309744D01*
X31004774Y-64498102D01*
X30965000Y-64698061D01*
X30965000Y-64901939D01*
X31004774Y-65101898D01*
X31082795Y-65290256D01*
X31196063Y-65459774D01*
X31340226Y-65603937D01*
X31509744Y-65717205D01*
X31698102Y-65795226D01*
X31898061Y-65835000D01*
X32101939Y-65835000D01*
X32301898Y-65795226D01*
X32490256Y-65717205D01*
X32659774Y-65603937D01*
X32803937Y-65459774D01*
X32917205Y-65290256D01*
X32995226Y-65101898D01*
X33035000Y-64901939D01*
X33035000Y-64698061D01*
X32995226Y-64498102D01*
X32917205Y-64309744D01*
X32803937Y-64140226D01*
X32788711Y-64125000D01*
X32803937Y-64109774D01*
X32917205Y-63940256D01*
X32995226Y-63751898D01*
X33035000Y-63551939D01*
X33035000Y-63348061D01*
X32995226Y-63148102D01*
X32917205Y-62959744D01*
X32860581Y-62875000D01*
X32917205Y-62790256D01*
X32995226Y-62601898D01*
X33035000Y-62401939D01*
X33035000Y-62198061D01*
X32995226Y-61998102D01*
X32917205Y-61809744D01*
X32827172Y-61675000D01*
X32917205Y-61540256D01*
X32995226Y-61351898D01*
X33035000Y-61151939D01*
X33035000Y-60948061D01*
X32995226Y-60748102D01*
X32917205Y-60559744D01*
X32827172Y-60425000D01*
X32878580Y-60348061D01*
X70165000Y-60348061D01*
X70165000Y-60551939D01*
X70204774Y-60751898D01*
X70282795Y-60940256D01*
X70396063Y-61109774D01*
X70540226Y-61253937D01*
X70709744Y-61367205D01*
X70898102Y-61445226D01*
X71098061Y-61485000D01*
X71301939Y-61485000D01*
X71501898Y-61445226D01*
X71690256Y-61367205D01*
X71859774Y-61253937D01*
X72003937Y-61109774D01*
X72117205Y-60940256D01*
X72195226Y-60751898D01*
X72235000Y-60551939D01*
X72235000Y-60348061D01*
X72195226Y-60148102D01*
X72117205Y-59959744D01*
X72003937Y-59790226D01*
X71859774Y-59646063D01*
X71690256Y-59532795D01*
X71501898Y-59454774D01*
X71301939Y-59415000D01*
X71098061Y-59415000D01*
X70898102Y-59454774D01*
X70709744Y-59532795D01*
X70540226Y-59646063D01*
X70396063Y-59790226D01*
X70282795Y-59959744D01*
X70204774Y-60148102D01*
X70165000Y-60348061D01*
X32878580Y-60348061D01*
X32917205Y-60290256D01*
X32995226Y-60101898D01*
X33035000Y-59901939D01*
X33035000Y-59698061D01*
X32995226Y-59498102D01*
X32917205Y-59309744D01*
X32860581Y-59225000D01*
X32917205Y-59140256D01*
X32995226Y-58951898D01*
X33010907Y-58873061D01*
X64365000Y-58873061D01*
X64365000Y-59076939D01*
X64404774Y-59276898D01*
X64482795Y-59465256D01*
X64596063Y-59634774D01*
X64740226Y-59778937D01*
X64909744Y-59892205D01*
X65098102Y-59970226D01*
X65298061Y-60010000D01*
X65501939Y-60010000D01*
X65701898Y-59970226D01*
X65890256Y-59892205D01*
X66059774Y-59778937D01*
X66203937Y-59634774D01*
X66317205Y-59465256D01*
X66395226Y-59276898D01*
X66435000Y-59076939D01*
X66435000Y-58873061D01*
X66395226Y-58673102D01*
X66333077Y-58523061D01*
X75115000Y-58523061D01*
X75115000Y-58726939D01*
X75154774Y-58926898D01*
X75232795Y-59115256D01*
X75346063Y-59284774D01*
X75490226Y-59428937D01*
X75659744Y-59542205D01*
X75848102Y-59620226D01*
X76048061Y-59660000D01*
X76190000Y-59660000D01*
X76190000Y-59776939D01*
X76229774Y-59976898D01*
X76307795Y-60165256D01*
X76421063Y-60334774D01*
X76565226Y-60478937D01*
X76734744Y-60592205D01*
X76923102Y-60670226D01*
X77123061Y-60710000D01*
X77326939Y-60710000D01*
X77526898Y-60670226D01*
X77715256Y-60592205D01*
X77884774Y-60478937D01*
X78028937Y-60334774D01*
X78142205Y-60165256D01*
X78220226Y-59976898D01*
X78260000Y-59776939D01*
X78260000Y-59573061D01*
X78220226Y-59373102D01*
X78142205Y-59184744D01*
X78028937Y-59015226D01*
X77884774Y-58871063D01*
X77715256Y-58757795D01*
X77526898Y-58679774D01*
X77326939Y-58640000D01*
X77185000Y-58640000D01*
X77185000Y-58523061D01*
X77170082Y-58448061D01*
X81565000Y-58448061D01*
X81565000Y-58651939D01*
X81604774Y-58851898D01*
X81682795Y-59040256D01*
X81796063Y-59209774D01*
X81940226Y-59353937D01*
X82109744Y-59467205D01*
X82298102Y-59545226D01*
X82498061Y-59585000D01*
X82701939Y-59585000D01*
X82901898Y-59545226D01*
X83090256Y-59467205D01*
X83191889Y-59399296D01*
X83309744Y-59478044D01*
X83498102Y-59556065D01*
X83698061Y-59595839D01*
X83901939Y-59595839D01*
X84101898Y-59556065D01*
X84290256Y-59478044D01*
X84459774Y-59364776D01*
X84603937Y-59220613D01*
X84717205Y-59051095D01*
X84795226Y-58862737D01*
X84835000Y-58662778D01*
X84835000Y-58458900D01*
X84795226Y-58258941D01*
X84717205Y-58070583D01*
X84603937Y-57901065D01*
X84459774Y-57756902D01*
X84290256Y-57643634D01*
X84101898Y-57565613D01*
X83901939Y-57525839D01*
X83698061Y-57525839D01*
X83498102Y-57565613D01*
X83309744Y-57643634D01*
X83208111Y-57711543D01*
X83090256Y-57632795D01*
X82901898Y-57554774D01*
X82701939Y-57515000D01*
X82498061Y-57515000D01*
X82298102Y-57554774D01*
X82109744Y-57632795D01*
X81940226Y-57746063D01*
X81796063Y-57890226D01*
X81682795Y-58059744D01*
X81604774Y-58248102D01*
X81565000Y-58448061D01*
X77170082Y-58448061D01*
X77145226Y-58323102D01*
X77067205Y-58134744D01*
X76953937Y-57965226D01*
X76809774Y-57821063D01*
X76640256Y-57707795D01*
X76451898Y-57629774D01*
X76251939Y-57590000D01*
X76048061Y-57590000D01*
X75848102Y-57629774D01*
X75659744Y-57707795D01*
X75490226Y-57821063D01*
X75346063Y-57965226D01*
X75232795Y-58134744D01*
X75154774Y-58323102D01*
X75115000Y-58523061D01*
X66333077Y-58523061D01*
X66317205Y-58484744D01*
X66203937Y-58315226D01*
X66059774Y-58171063D01*
X65890256Y-58057795D01*
X65701898Y-57979774D01*
X65501939Y-57940000D01*
X65298061Y-57940000D01*
X65098102Y-57979774D01*
X64909744Y-58057795D01*
X64740226Y-58171063D01*
X64596063Y-58315226D01*
X64482795Y-58484744D01*
X64404774Y-58673102D01*
X64365000Y-58873061D01*
X33010907Y-58873061D01*
X33035000Y-58751939D01*
X33035000Y-58548061D01*
X32995226Y-58348102D01*
X32917205Y-58159744D01*
X32803937Y-57990226D01*
X32659774Y-57846063D01*
X32490256Y-57732795D01*
X32301898Y-57654774D01*
X32101939Y-57615000D01*
X31898061Y-57615000D01*
X31698102Y-57654774D01*
X31509744Y-57732795D01*
X31340226Y-57846063D01*
X31196063Y-57990226D01*
X31082795Y-58159744D01*
X31004774Y-58348102D01*
X30965000Y-58548061D01*
X20660000Y-58548061D01*
X20660000Y-53388212D01*
X29365000Y-53388212D01*
X29365000Y-53611788D01*
X29408617Y-53831067D01*
X29494176Y-54037624D01*
X29552559Y-54125000D01*
X29494176Y-54212376D01*
X29408617Y-54418933D01*
X29365000Y-54638212D01*
X29365000Y-54861788D01*
X29408617Y-55081067D01*
X29494176Y-55287624D01*
X29618388Y-55473520D01*
X29776480Y-55631612D01*
X29962376Y-55755824D01*
X30168933Y-55841383D01*
X30388212Y-55885000D01*
X30611788Y-55885000D01*
X30831067Y-55841383D01*
X31037624Y-55755824D01*
X31223520Y-55631612D01*
X31381612Y-55473520D01*
X31505824Y-55287624D01*
X31591383Y-55081067D01*
X31635000Y-54861788D01*
X31635000Y-54638212D01*
X31591383Y-54418933D01*
X31505824Y-54212376D01*
X31447441Y-54125000D01*
X31505824Y-54037624D01*
X31591383Y-53831067D01*
X31635000Y-53611788D01*
X31635000Y-53388212D01*
X31591383Y-53168933D01*
X31577327Y-53135000D01*
X31611788Y-53135000D01*
X31831067Y-53091383D01*
X32037624Y-53005824D01*
X32223520Y-52881612D01*
X32250000Y-52855132D01*
X32276480Y-52881612D01*
X32462376Y-53005824D01*
X32668933Y-53091383D01*
X32888212Y-53135000D01*
X33111788Y-53135000D01*
X33331067Y-53091383D01*
X33463453Y-53036547D01*
X33408617Y-53168933D01*
X33365000Y-53388212D01*
X33365000Y-53611788D01*
X33408617Y-53831067D01*
X33494176Y-54037624D01*
X33552559Y-54125000D01*
X33494176Y-54212376D01*
X33408617Y-54418933D01*
X33365000Y-54638212D01*
X33365000Y-54861788D01*
X33408617Y-55081067D01*
X33494176Y-55287624D01*
X33618388Y-55473520D01*
X33776480Y-55631612D01*
X33939211Y-55740346D01*
X33811788Y-55715000D01*
X33588212Y-55715000D01*
X33368933Y-55758617D01*
X33162376Y-55844176D01*
X32976480Y-55968388D01*
X32818388Y-56126480D01*
X32694176Y-56312376D01*
X32608617Y-56518933D01*
X32565000Y-56738212D01*
X32565000Y-56961788D01*
X32608617Y-57181067D01*
X32694176Y-57387624D01*
X32818388Y-57573520D01*
X32976480Y-57731612D01*
X33162376Y-57855824D01*
X33368933Y-57941383D01*
X33588212Y-57985000D01*
X33811788Y-57985000D01*
X34031067Y-57941383D01*
X34237624Y-57855824D01*
X34423520Y-57731612D01*
X34557071Y-57598061D01*
X38145000Y-57598061D01*
X38145000Y-57801939D01*
X38184774Y-58001898D01*
X38262795Y-58190256D01*
X38376063Y-58359774D01*
X38520226Y-58503937D01*
X38689744Y-58617205D01*
X38878102Y-58695226D01*
X39078061Y-58735000D01*
X39281939Y-58735000D01*
X39481898Y-58695226D01*
X39670256Y-58617205D01*
X39839774Y-58503937D01*
X39983937Y-58359774D01*
X40097205Y-58190256D01*
X40175226Y-58001898D01*
X40215000Y-57801939D01*
X40215000Y-57598061D01*
X45215000Y-57598061D01*
X45215000Y-57801939D01*
X45254774Y-58001898D01*
X45332795Y-58190256D01*
X45446063Y-58359774D01*
X45590226Y-58503937D01*
X45759744Y-58617205D01*
X45948102Y-58695226D01*
X46148061Y-58735000D01*
X46351939Y-58735000D01*
X46551898Y-58695226D01*
X46740256Y-58617205D01*
X46909774Y-58503937D01*
X47053937Y-58359774D01*
X47167205Y-58190256D01*
X47245226Y-58001898D01*
X47285000Y-57801939D01*
X47285000Y-57598061D01*
X47245226Y-57398102D01*
X47234854Y-57373061D01*
X60015000Y-57373061D01*
X60015000Y-57576939D01*
X60054774Y-57776898D01*
X60132795Y-57965256D01*
X60246063Y-58134774D01*
X60390226Y-58278937D01*
X60559744Y-58392205D01*
X60748102Y-58470226D01*
X60948061Y-58510000D01*
X61151939Y-58510000D01*
X61351898Y-58470226D01*
X61540256Y-58392205D01*
X61709774Y-58278937D01*
X61853937Y-58134774D01*
X61967205Y-57965256D01*
X62045226Y-57776898D01*
X62085000Y-57576939D01*
X62085000Y-57373061D01*
X62045226Y-57173102D01*
X61967205Y-56984744D01*
X61909286Y-56898061D01*
X65465000Y-56898061D01*
X65465000Y-57101939D01*
X65504774Y-57301898D01*
X65582795Y-57490256D01*
X65696063Y-57659774D01*
X65840226Y-57803937D01*
X66009744Y-57917205D01*
X66198102Y-57995226D01*
X66398061Y-58035000D01*
X66601939Y-58035000D01*
X66801898Y-57995226D01*
X66990256Y-57917205D01*
X67159774Y-57803937D01*
X67303937Y-57659774D01*
X67417205Y-57490256D01*
X67495226Y-57301898D01*
X67505934Y-57248061D01*
X67515000Y-57248061D01*
X67515000Y-57451939D01*
X67554774Y-57651898D01*
X67632795Y-57840256D01*
X67746063Y-58009774D01*
X67890226Y-58153937D01*
X68059744Y-58267205D01*
X68248102Y-58345226D01*
X68448061Y-58385000D01*
X68651939Y-58385000D01*
X68851898Y-58345226D01*
X69040256Y-58267205D01*
X69209774Y-58153937D01*
X69353937Y-58009774D01*
X69467205Y-57840256D01*
X69545226Y-57651898D01*
X69585000Y-57451939D01*
X69585000Y-57248061D01*
X69545226Y-57048102D01*
X69467205Y-56859744D01*
X69459399Y-56848061D01*
X87315000Y-56848061D01*
X87315000Y-57051939D01*
X87354774Y-57251898D01*
X87432795Y-57440256D01*
X87546063Y-57609774D01*
X87690226Y-57753937D01*
X87859744Y-57867205D01*
X88048102Y-57945226D01*
X88248061Y-57985000D01*
X88451939Y-57985000D01*
X88651898Y-57945226D01*
X88840256Y-57867205D01*
X89009774Y-57753937D01*
X89153937Y-57609774D01*
X89267205Y-57440256D01*
X89345226Y-57251898D01*
X89385000Y-57051939D01*
X89385000Y-56848061D01*
X89359776Y-56721252D01*
X89490256Y-56667205D01*
X89659774Y-56553937D01*
X89803937Y-56409774D01*
X89917205Y-56240256D01*
X89995226Y-56051898D01*
X90035000Y-55851939D01*
X90035000Y-55648061D01*
X89995226Y-55448102D01*
X89917205Y-55259744D01*
X89803937Y-55090226D01*
X89659774Y-54946063D01*
X89490256Y-54832795D01*
X89301898Y-54754774D01*
X89101939Y-54715000D01*
X88898061Y-54715000D01*
X88698102Y-54754774D01*
X88509744Y-54832795D01*
X88340226Y-54946063D01*
X88196063Y-55090226D01*
X88082795Y-55259744D01*
X88004774Y-55448102D01*
X87965000Y-55648061D01*
X87965000Y-55851939D01*
X87990224Y-55978748D01*
X87859744Y-56032795D01*
X87690226Y-56146063D01*
X87546063Y-56290226D01*
X87432795Y-56459744D01*
X87354774Y-56648102D01*
X87315000Y-56848061D01*
X69459399Y-56848061D01*
X69353937Y-56690226D01*
X69209774Y-56546063D01*
X69040256Y-56432795D01*
X68851898Y-56354774D01*
X68651939Y-56315000D01*
X68448061Y-56315000D01*
X68248102Y-56354774D01*
X68059744Y-56432795D01*
X67890226Y-56546063D01*
X67746063Y-56690226D01*
X67632795Y-56859744D01*
X67554774Y-57048102D01*
X67515000Y-57248061D01*
X67505934Y-57248061D01*
X67535000Y-57101939D01*
X67535000Y-56898061D01*
X67495226Y-56698102D01*
X67417205Y-56509744D01*
X67303937Y-56340226D01*
X67159774Y-56196063D01*
X66990256Y-56082795D01*
X66801898Y-56004774D01*
X66601939Y-55965000D01*
X66398061Y-55965000D01*
X66198102Y-56004774D01*
X66009744Y-56082795D01*
X65840226Y-56196063D01*
X65696063Y-56340226D01*
X65582795Y-56509744D01*
X65504774Y-56698102D01*
X65465000Y-56898061D01*
X61909286Y-56898061D01*
X61853937Y-56815226D01*
X61709774Y-56671063D01*
X61540256Y-56557795D01*
X61351898Y-56479774D01*
X61151939Y-56440000D01*
X60948061Y-56440000D01*
X60748102Y-56479774D01*
X60559744Y-56557795D01*
X60390226Y-56671063D01*
X60246063Y-56815226D01*
X60132795Y-56984744D01*
X60054774Y-57173102D01*
X60015000Y-57373061D01*
X47234854Y-57373061D01*
X47167205Y-57209744D01*
X47053937Y-57040226D01*
X46909774Y-56896063D01*
X46740256Y-56782795D01*
X46551898Y-56704774D01*
X46351939Y-56665000D01*
X46148061Y-56665000D01*
X45948102Y-56704774D01*
X45759744Y-56782795D01*
X45590226Y-56896063D01*
X45446063Y-57040226D01*
X45332795Y-57209744D01*
X45254774Y-57398102D01*
X45215000Y-57598061D01*
X40215000Y-57598061D01*
X40175226Y-57398102D01*
X40097205Y-57209744D01*
X39983937Y-57040226D01*
X39839774Y-56896063D01*
X39670256Y-56782795D01*
X39481898Y-56704774D01*
X39281939Y-56665000D01*
X39078061Y-56665000D01*
X38878102Y-56704774D01*
X38689744Y-56782795D01*
X38520226Y-56896063D01*
X38376063Y-57040226D01*
X38262795Y-57209744D01*
X38184774Y-57398102D01*
X38145000Y-57598061D01*
X34557071Y-57598061D01*
X34581612Y-57573520D01*
X34705824Y-57387624D01*
X34791383Y-57181067D01*
X34835000Y-56961788D01*
X34835000Y-56738212D01*
X34791383Y-56518933D01*
X34705824Y-56312376D01*
X34581612Y-56126480D01*
X34423520Y-55968388D01*
X34260789Y-55859654D01*
X34388212Y-55885000D01*
X34611788Y-55885000D01*
X34831067Y-55841383D01*
X35037624Y-55755824D01*
X35198902Y-55648061D01*
X72715000Y-55648061D01*
X72715000Y-55851939D01*
X72754774Y-56051898D01*
X72832795Y-56240256D01*
X72946063Y-56409774D01*
X73090226Y-56553937D01*
X73259744Y-56667205D01*
X73448102Y-56745226D01*
X73648061Y-56785000D01*
X73851939Y-56785000D01*
X74051898Y-56745226D01*
X74240256Y-56667205D01*
X74409774Y-56553937D01*
X74553937Y-56409774D01*
X74667205Y-56240256D01*
X74745226Y-56051898D01*
X74785000Y-55851939D01*
X74785000Y-55648061D01*
X74745226Y-55448102D01*
X74667205Y-55259744D01*
X74553937Y-55090226D01*
X74409774Y-54946063D01*
X74240256Y-54832795D01*
X74051898Y-54754774D01*
X73851939Y-54715000D01*
X73648061Y-54715000D01*
X73448102Y-54754774D01*
X73259744Y-54832795D01*
X73090226Y-54946063D01*
X72946063Y-55090226D01*
X72832795Y-55259744D01*
X72754774Y-55448102D01*
X72715000Y-55648061D01*
X35198902Y-55648061D01*
X35223520Y-55631612D01*
X35381612Y-55473520D01*
X35505824Y-55287624D01*
X35591383Y-55081067D01*
X35635000Y-54861788D01*
X35635000Y-54638212D01*
X35591383Y-54418933D01*
X35505824Y-54212376D01*
X35447441Y-54125000D01*
X35505824Y-54037624D01*
X35591383Y-53831067D01*
X35633752Y-53618061D01*
X66315000Y-53618061D01*
X66315000Y-53821939D01*
X66354774Y-54021898D01*
X66432795Y-54210256D01*
X66546063Y-54379774D01*
X66690226Y-54523937D01*
X66859744Y-54637205D01*
X67048102Y-54715226D01*
X67248061Y-54755000D01*
X67451939Y-54755000D01*
X67651898Y-54715226D01*
X67835000Y-54639382D01*
X68018102Y-54715226D01*
X68218061Y-54755000D01*
X68421939Y-54755000D01*
X68621898Y-54715226D01*
X68810256Y-54637205D01*
X68979774Y-54523937D01*
X69123937Y-54379774D01*
X69237205Y-54210256D01*
X69315226Y-54021898D01*
X69355000Y-53821939D01*
X69355000Y-53618061D01*
X69315226Y-53418102D01*
X69237205Y-53229744D01*
X69123937Y-53060226D01*
X69061772Y-52998061D01*
X70365000Y-52998061D01*
X70365000Y-53201939D01*
X70404774Y-53401898D01*
X70482795Y-53590256D01*
X70596063Y-53759774D01*
X70740226Y-53903937D01*
X70909744Y-54017205D01*
X71098102Y-54095226D01*
X71298061Y-54135000D01*
X71501939Y-54135000D01*
X71701898Y-54095226D01*
X71890256Y-54017205D01*
X71925000Y-53993990D01*
X71959744Y-54017205D01*
X72148102Y-54095226D01*
X72348061Y-54135000D01*
X72551939Y-54135000D01*
X72751898Y-54095226D01*
X72940256Y-54017205D01*
X73109774Y-53903937D01*
X73253937Y-53759774D01*
X73361989Y-53598061D01*
X75165000Y-53598061D01*
X75165000Y-53801939D01*
X75204774Y-54001898D01*
X75282795Y-54190256D01*
X75396063Y-54359774D01*
X75540226Y-54503937D01*
X75709744Y-54617205D01*
X75898102Y-54695226D01*
X76098061Y-54735000D01*
X76301939Y-54735000D01*
X76501898Y-54695226D01*
X76690256Y-54617205D01*
X76859774Y-54503937D01*
X77003937Y-54359774D01*
X77117205Y-54190256D01*
X77195226Y-54001898D01*
X77235000Y-53801939D01*
X77235000Y-53598061D01*
X77195226Y-53398102D01*
X77117205Y-53209744D01*
X77003937Y-53040226D01*
X76859774Y-52896063D01*
X76690256Y-52782795D01*
X76501898Y-52704774D01*
X76301939Y-52665000D01*
X76098061Y-52665000D01*
X75898102Y-52704774D01*
X75709744Y-52782795D01*
X75540226Y-52896063D01*
X75396063Y-53040226D01*
X75282795Y-53209744D01*
X75204774Y-53398102D01*
X75165000Y-53598061D01*
X73361989Y-53598061D01*
X73367205Y-53590256D01*
X73445226Y-53401898D01*
X73485000Y-53201939D01*
X73485000Y-52998061D01*
X73445226Y-52798102D01*
X73367205Y-52609744D01*
X73253937Y-52440226D01*
X73109774Y-52296063D01*
X72940256Y-52182795D01*
X72751898Y-52104774D01*
X72551939Y-52065000D01*
X72348061Y-52065000D01*
X72148102Y-52104774D01*
X71959744Y-52182795D01*
X71925000Y-52206010D01*
X71890256Y-52182795D01*
X71701898Y-52104774D01*
X71501939Y-52065000D01*
X71298061Y-52065000D01*
X71098102Y-52104774D01*
X70909744Y-52182795D01*
X70740226Y-52296063D01*
X70596063Y-52440226D01*
X70482795Y-52609744D01*
X70404774Y-52798102D01*
X70365000Y-52998061D01*
X69061772Y-52998061D01*
X68979774Y-52916063D01*
X68810256Y-52802795D01*
X68621898Y-52724774D01*
X68421939Y-52685000D01*
X68218061Y-52685000D01*
X68018102Y-52724774D01*
X67835000Y-52800618D01*
X67651898Y-52724774D01*
X67451939Y-52685000D01*
X67248061Y-52685000D01*
X67048102Y-52724774D01*
X66859744Y-52802795D01*
X66690226Y-52916063D01*
X66546063Y-53060226D01*
X66432795Y-53229744D01*
X66354774Y-53418102D01*
X66315000Y-53618061D01*
X35633752Y-53618061D01*
X35635000Y-53611788D01*
X35635000Y-53388212D01*
X35591383Y-53168933D01*
X35505824Y-52962376D01*
X35447441Y-52875000D01*
X35505824Y-52787624D01*
X35591383Y-52581067D01*
X35635000Y-52361788D01*
X35635000Y-52138212D01*
X35591383Y-51918933D01*
X35505824Y-51712376D01*
X35496260Y-51698061D01*
X41615000Y-51698061D01*
X41615000Y-51901939D01*
X41654774Y-52101898D01*
X41732795Y-52290256D01*
X41846063Y-52459774D01*
X41990226Y-52603937D01*
X42159744Y-52717205D01*
X42348102Y-52795226D01*
X42548061Y-52835000D01*
X42751939Y-52835000D01*
X42951898Y-52795226D01*
X43140256Y-52717205D01*
X43175000Y-52693990D01*
X43209744Y-52717205D01*
X43398102Y-52795226D01*
X43598061Y-52835000D01*
X43801939Y-52835000D01*
X44001898Y-52795226D01*
X44190256Y-52717205D01*
X44359774Y-52603937D01*
X44503937Y-52459774D01*
X44617205Y-52290256D01*
X44695226Y-52101898D01*
X44735000Y-51901939D01*
X44735000Y-51698061D01*
X44695226Y-51498102D01*
X44617205Y-51309744D01*
X44503937Y-51140226D01*
X44359774Y-50996063D01*
X44190256Y-50882795D01*
X44001898Y-50804774D01*
X43801939Y-50765000D01*
X43598061Y-50765000D01*
X43398102Y-50804774D01*
X43209744Y-50882795D01*
X43175000Y-50906010D01*
X43140256Y-50882795D01*
X42951898Y-50804774D01*
X42751939Y-50765000D01*
X42548061Y-50765000D01*
X42348102Y-50804774D01*
X42159744Y-50882795D01*
X41990226Y-50996063D01*
X41846063Y-51140226D01*
X41732795Y-51309744D01*
X41654774Y-51498102D01*
X41615000Y-51698061D01*
X35496260Y-51698061D01*
X35381612Y-51526480D01*
X35223520Y-51368388D01*
X35037624Y-51244176D01*
X34831067Y-51158617D01*
X34611788Y-51115000D01*
X34388212Y-51115000D01*
X34168933Y-51158617D01*
X33962376Y-51244176D01*
X33891618Y-51291455D01*
X33881612Y-51276480D01*
X33723520Y-51118388D01*
X33537624Y-50994176D01*
X33331067Y-50908617D01*
X33111788Y-50865000D01*
X32888212Y-50865000D01*
X32668933Y-50908617D01*
X32462376Y-50994176D01*
X32276480Y-51118388D01*
X32250000Y-51144868D01*
X32223520Y-51118388D01*
X32037624Y-50994176D01*
X31831067Y-50908617D01*
X31611788Y-50865000D01*
X31388212Y-50865000D01*
X31168933Y-50908617D01*
X30962376Y-50994176D01*
X30776480Y-51118388D01*
X30618388Y-51276480D01*
X30494176Y-51462376D01*
X30408617Y-51668933D01*
X30365000Y-51888212D01*
X30365000Y-52111788D01*
X30408617Y-52331067D01*
X30422673Y-52365000D01*
X30388212Y-52365000D01*
X30168933Y-52408617D01*
X29962376Y-52494176D01*
X29776480Y-52618388D01*
X29618388Y-52776480D01*
X29494176Y-52962376D01*
X29408617Y-53168933D01*
X29365000Y-53388212D01*
X20660000Y-53388212D01*
X20660000Y-48723061D01*
X22765000Y-48723061D01*
X22765000Y-48926939D01*
X22804774Y-49126898D01*
X22882795Y-49315256D01*
X22996063Y-49484774D01*
X23140226Y-49628937D01*
X23309744Y-49742205D01*
X23498102Y-49820226D01*
X23698061Y-49860000D01*
X23901939Y-49860000D01*
X24101898Y-49820226D01*
X24290256Y-49742205D01*
X24459774Y-49628937D01*
X24603937Y-49484774D01*
X24717205Y-49315256D01*
X24745038Y-49248061D01*
X55215000Y-49248061D01*
X55215000Y-49451939D01*
X55254774Y-49651898D01*
X55332795Y-49840256D01*
X55446063Y-50009774D01*
X55590226Y-50153937D01*
X55759744Y-50267205D01*
X55948102Y-50345226D01*
X56148061Y-50385000D01*
X56351939Y-50385000D01*
X56551898Y-50345226D01*
X56740256Y-50267205D01*
X56909774Y-50153937D01*
X57053937Y-50009774D01*
X57167205Y-49840256D01*
X57226104Y-49698061D01*
X57865000Y-49698061D01*
X57865000Y-49901939D01*
X57904774Y-50101898D01*
X57982795Y-50290256D01*
X58096063Y-50459774D01*
X58240226Y-50603937D01*
X58409744Y-50717205D01*
X58598102Y-50795226D01*
X58798061Y-50835000D01*
X59001939Y-50835000D01*
X59201898Y-50795226D01*
X59390256Y-50717205D01*
X59559774Y-50603937D01*
X59703937Y-50459774D01*
X59817205Y-50290256D01*
X59895226Y-50101898D01*
X59923451Y-49960000D01*
X59926939Y-49960000D01*
X60126898Y-49920226D01*
X60180408Y-49898061D01*
X82405000Y-49898061D01*
X82405000Y-50101939D01*
X82444774Y-50301898D01*
X82522795Y-50490256D01*
X82636063Y-50659774D01*
X82780226Y-50803937D01*
X82949744Y-50917205D01*
X83138102Y-50995226D01*
X83338061Y-51035000D01*
X83541939Y-51035000D01*
X83741898Y-50995226D01*
X83895000Y-50931809D01*
X84048102Y-50995226D01*
X84248061Y-51035000D01*
X84451939Y-51035000D01*
X84651898Y-50995226D01*
X84840256Y-50917205D01*
X85009774Y-50803937D01*
X85153937Y-50659774D01*
X85267205Y-50490256D01*
X85345226Y-50301898D01*
X85385000Y-50101939D01*
X85385000Y-49898061D01*
X85345226Y-49698102D01*
X85267205Y-49509744D01*
X85153937Y-49340226D01*
X85009774Y-49196063D01*
X84840256Y-49082795D01*
X84651898Y-49004774D01*
X84451939Y-48965000D01*
X84248061Y-48965000D01*
X84048102Y-49004774D01*
X83895000Y-49068191D01*
X83741898Y-49004774D01*
X83541939Y-48965000D01*
X83338061Y-48965000D01*
X83138102Y-49004774D01*
X82949744Y-49082795D01*
X82780226Y-49196063D01*
X82636063Y-49340226D01*
X82522795Y-49509744D01*
X82444774Y-49698102D01*
X82405000Y-49898061D01*
X60180408Y-49898061D01*
X60315256Y-49842205D01*
X60484774Y-49728937D01*
X60628937Y-49584774D01*
X60742205Y-49415256D01*
X60820226Y-49226898D01*
X60860000Y-49026939D01*
X60860000Y-48823061D01*
X60852411Y-48784906D01*
X61051898Y-48745226D01*
X61240256Y-48667205D01*
X61250000Y-48660694D01*
X61259744Y-48667205D01*
X61448102Y-48745226D01*
X61648061Y-48785000D01*
X61851939Y-48785000D01*
X62051898Y-48745226D01*
X62240256Y-48667205D01*
X62409774Y-48553937D01*
X62553937Y-48409774D01*
X62667205Y-48240256D01*
X62745226Y-48051898D01*
X62785000Y-47851939D01*
X62785000Y-47648061D01*
X62745226Y-47448102D01*
X62667205Y-47259744D01*
X62553937Y-47090226D01*
X62409774Y-46946063D01*
X62337934Y-46898061D01*
X67365000Y-46898061D01*
X67365000Y-47101939D01*
X67404774Y-47301898D01*
X67482795Y-47490256D01*
X67596063Y-47659774D01*
X67740226Y-47803937D01*
X67909744Y-47917205D01*
X68098102Y-47995226D01*
X68298061Y-48035000D01*
X68501939Y-48035000D01*
X68701898Y-47995226D01*
X68890256Y-47917205D01*
X69059774Y-47803937D01*
X69203937Y-47659774D01*
X69245172Y-47598061D01*
X70265000Y-47598061D01*
X70265000Y-47801939D01*
X70304774Y-48001898D01*
X70382795Y-48190256D01*
X70496063Y-48359774D01*
X70640226Y-48503937D01*
X70809744Y-48617205D01*
X70998102Y-48695226D01*
X71198061Y-48735000D01*
X71401939Y-48735000D01*
X71601898Y-48695226D01*
X71790256Y-48617205D01*
X71959774Y-48503937D01*
X72103937Y-48359774D01*
X72217205Y-48190256D01*
X72295226Y-48001898D01*
X72315880Y-47898061D01*
X74215000Y-47898061D01*
X74215000Y-48101939D01*
X74254774Y-48301898D01*
X74332795Y-48490256D01*
X74446063Y-48659774D01*
X74590226Y-48803937D01*
X74759744Y-48917205D01*
X74948102Y-48995226D01*
X75148061Y-49035000D01*
X75351939Y-49035000D01*
X75551898Y-48995226D01*
X75740256Y-48917205D01*
X75909774Y-48803937D01*
X76053937Y-48659774D01*
X76167205Y-48490256D01*
X76245226Y-48301898D01*
X76268945Y-48182656D01*
X76390226Y-48303937D01*
X76559744Y-48417205D01*
X76741138Y-48492341D01*
X76740000Y-48498061D01*
X76740000Y-48701939D01*
X76779774Y-48901898D01*
X76857795Y-49090256D01*
X76971063Y-49259774D01*
X77115226Y-49403937D01*
X77284744Y-49517205D01*
X77473102Y-49595226D01*
X77673061Y-49635000D01*
X77876939Y-49635000D01*
X78076898Y-49595226D01*
X78265256Y-49517205D01*
X78434774Y-49403937D01*
X78578937Y-49259774D01*
X78692205Y-49090256D01*
X78770226Y-48901898D01*
X78810000Y-48701939D01*
X78810000Y-48504738D01*
X78840256Y-48492205D01*
X79009774Y-48378937D01*
X79153937Y-48234774D01*
X79267205Y-48065256D01*
X79345226Y-47876898D01*
X79385000Y-47676939D01*
X79385000Y-47473061D01*
X79345226Y-47273102D01*
X79267205Y-47084744D01*
X79153937Y-46915226D01*
X79009774Y-46771063D01*
X78840256Y-46657795D01*
X78651898Y-46579774D01*
X78451939Y-46540000D01*
X78248061Y-46540000D01*
X78048102Y-46579774D01*
X77859744Y-46657795D01*
X77746903Y-46733192D01*
X77709774Y-46696063D01*
X77540256Y-46582795D01*
X77351898Y-46504774D01*
X77231575Y-46480840D01*
X77195226Y-46298102D01*
X77117205Y-46109744D01*
X77003937Y-45940226D01*
X76859774Y-45796063D01*
X76690256Y-45682795D01*
X76501898Y-45604774D01*
X76301939Y-45565000D01*
X76098061Y-45565000D01*
X75898102Y-45604774D01*
X75709744Y-45682795D01*
X75540226Y-45796063D01*
X75396063Y-45940226D01*
X75282795Y-46109744D01*
X75204774Y-46298102D01*
X75165000Y-46498061D01*
X75165000Y-46701939D01*
X75204774Y-46901898D01*
X75230912Y-46965000D01*
X75148061Y-46965000D01*
X74948102Y-47004774D01*
X74759744Y-47082795D01*
X74590226Y-47196063D01*
X74446063Y-47340226D01*
X74332795Y-47509744D01*
X74254774Y-47698102D01*
X74215000Y-47898061D01*
X72315880Y-47898061D01*
X72335000Y-47801939D01*
X72335000Y-47598061D01*
X72295226Y-47398102D01*
X72217205Y-47209744D01*
X72103937Y-47040226D01*
X71959774Y-46896063D01*
X71790256Y-46782795D01*
X71601898Y-46704774D01*
X71401939Y-46665000D01*
X71198061Y-46665000D01*
X70998102Y-46704774D01*
X70809744Y-46782795D01*
X70640226Y-46896063D01*
X70496063Y-47040226D01*
X70382795Y-47209744D01*
X70304774Y-47398102D01*
X70265000Y-47598061D01*
X69245172Y-47598061D01*
X69317205Y-47490256D01*
X69395226Y-47301898D01*
X69435000Y-47101939D01*
X69435000Y-46898061D01*
X69395226Y-46698102D01*
X69317205Y-46509744D01*
X69203937Y-46340226D01*
X69059774Y-46196063D01*
X68890256Y-46082795D01*
X68701898Y-46004774D01*
X68501939Y-45965000D01*
X68298061Y-45965000D01*
X68098102Y-46004774D01*
X67909744Y-46082795D01*
X67740226Y-46196063D01*
X67596063Y-46340226D01*
X67482795Y-46509744D01*
X67404774Y-46698102D01*
X67365000Y-46898061D01*
X62337934Y-46898061D01*
X62240256Y-46832795D01*
X62051898Y-46754774D01*
X61851939Y-46715000D01*
X61648061Y-46715000D01*
X61448102Y-46754774D01*
X61259744Y-46832795D01*
X61250000Y-46839306D01*
X61240256Y-46832795D01*
X61051898Y-46754774D01*
X60851939Y-46715000D01*
X60648061Y-46715000D01*
X60448102Y-46754774D01*
X60259744Y-46832795D01*
X60090226Y-46946063D01*
X59946063Y-47090226D01*
X59832795Y-47259744D01*
X59754774Y-47448102D01*
X59715000Y-47648061D01*
X59715000Y-47851939D01*
X59722589Y-47890094D01*
X59523102Y-47929774D01*
X59334744Y-48007795D01*
X59165226Y-48121063D01*
X59021063Y-48265226D01*
X58907795Y-48434744D01*
X58829774Y-48623102D01*
X58801549Y-48765000D01*
X58798061Y-48765000D01*
X58598102Y-48804774D01*
X58409744Y-48882795D01*
X58240226Y-48996063D01*
X58096063Y-49140226D01*
X57982795Y-49309744D01*
X57904774Y-49498102D01*
X57865000Y-49698061D01*
X57226104Y-49698061D01*
X57245226Y-49651898D01*
X57285000Y-49451939D01*
X57285000Y-49248061D01*
X57245226Y-49048102D01*
X57167205Y-48859744D01*
X57053937Y-48690226D01*
X56909774Y-48546063D01*
X56740256Y-48432795D01*
X56551898Y-48354774D01*
X56351939Y-48315000D01*
X56148061Y-48315000D01*
X55948102Y-48354774D01*
X55759744Y-48432795D01*
X55590226Y-48546063D01*
X55446063Y-48690226D01*
X55332795Y-48859744D01*
X55254774Y-49048102D01*
X55215000Y-49248061D01*
X24745038Y-49248061D01*
X24795226Y-49126898D01*
X24835000Y-48926939D01*
X24835000Y-48723061D01*
X24795226Y-48523102D01*
X24717205Y-48334744D01*
X24603937Y-48165226D01*
X24459774Y-48021063D01*
X24290256Y-47907795D01*
X24101898Y-47829774D01*
X23901939Y-47790000D01*
X23698061Y-47790000D01*
X23498102Y-47829774D01*
X23309744Y-47907795D01*
X23140226Y-48021063D01*
X22996063Y-48165226D01*
X22882795Y-48334744D01*
X22804774Y-48523102D01*
X22765000Y-48723061D01*
X20660000Y-48723061D01*
X20660000Y-47498061D01*
X53065000Y-47498061D01*
X53065000Y-47701939D01*
X53104774Y-47901898D01*
X53182795Y-48090256D01*
X53296063Y-48259774D01*
X53440226Y-48403937D01*
X53609744Y-48517205D01*
X53798102Y-48595226D01*
X53998061Y-48635000D01*
X54201939Y-48635000D01*
X54401898Y-48595226D01*
X54590256Y-48517205D01*
X54759774Y-48403937D01*
X54903937Y-48259774D01*
X55017205Y-48090256D01*
X55095226Y-47901898D01*
X55135000Y-47701939D01*
X55135000Y-47498061D01*
X55095226Y-47298102D01*
X55017205Y-47109744D01*
X54903937Y-46940226D01*
X54759774Y-46796063D01*
X54590256Y-46682795D01*
X54401898Y-46604774D01*
X54201939Y-46565000D01*
X53998061Y-46565000D01*
X53798102Y-46604774D01*
X53609744Y-46682795D01*
X53440226Y-46796063D01*
X53296063Y-46940226D01*
X53182795Y-47109744D01*
X53104774Y-47298102D01*
X53065000Y-47498061D01*
X20660000Y-47498061D01*
X20660000Y-45098061D01*
X51165000Y-45098061D01*
X51165000Y-45301939D01*
X51204774Y-45501898D01*
X51282795Y-45690256D01*
X51396063Y-45859774D01*
X51540226Y-46003937D01*
X51709744Y-46117205D01*
X51898102Y-46195226D01*
X52098061Y-46235000D01*
X52301939Y-46235000D01*
X52501898Y-46195226D01*
X52690256Y-46117205D01*
X52859774Y-46003937D01*
X52990650Y-45873061D01*
X54415000Y-45873061D01*
X54415000Y-46076939D01*
X54454774Y-46276898D01*
X54532795Y-46465256D01*
X54646063Y-46634774D01*
X54790226Y-46778937D01*
X54959744Y-46892205D01*
X55148102Y-46970226D01*
X55348061Y-47010000D01*
X55551939Y-47010000D01*
X55751898Y-46970226D01*
X55940256Y-46892205D01*
X56109774Y-46778937D01*
X56253937Y-46634774D01*
X56367205Y-46465256D01*
X56445226Y-46276898D01*
X56485000Y-46076939D01*
X56485000Y-45873061D01*
X56445226Y-45673102D01*
X56367205Y-45484744D01*
X56253937Y-45315226D01*
X56109774Y-45171063D01*
X55940256Y-45057795D01*
X55751898Y-44979774D01*
X55551939Y-44940000D01*
X55348061Y-44940000D01*
X55148102Y-44979774D01*
X54959744Y-45057795D01*
X54790226Y-45171063D01*
X54646063Y-45315226D01*
X54532795Y-45484744D01*
X54454774Y-45673102D01*
X54415000Y-45873061D01*
X52990650Y-45873061D01*
X53003937Y-45859774D01*
X53117205Y-45690256D01*
X53195226Y-45501898D01*
X53235000Y-45301939D01*
X53235000Y-45098061D01*
X53195226Y-44898102D01*
X53117205Y-44709744D01*
X53003937Y-44540226D01*
X52859774Y-44396063D01*
X52690256Y-44282795D01*
X52501898Y-44204774D01*
X52301939Y-44165000D01*
X52098061Y-44165000D01*
X51898102Y-44204774D01*
X51709744Y-44282795D01*
X51540226Y-44396063D01*
X51396063Y-44540226D01*
X51282795Y-44709744D01*
X51204774Y-44898102D01*
X51165000Y-45098061D01*
X20660000Y-45098061D01*
X20660000Y-43348061D01*
X37515000Y-43348061D01*
X37515000Y-43551939D01*
X37554774Y-43751898D01*
X37632795Y-43940256D01*
X37746063Y-44109774D01*
X37890226Y-44253937D01*
X38059744Y-44367205D01*
X38248102Y-44445226D01*
X38448061Y-44485000D01*
X38651939Y-44485000D01*
X38851898Y-44445226D01*
X39040256Y-44367205D01*
X39209774Y-44253937D01*
X39353937Y-44109774D01*
X39467205Y-43940256D01*
X39499230Y-43862941D01*
X39640226Y-44003937D01*
X39809744Y-44117205D01*
X39998102Y-44195226D01*
X40198061Y-44235000D01*
X40401939Y-44235000D01*
X40601898Y-44195226D01*
X40790256Y-44117205D01*
X40959774Y-44003937D01*
X41103937Y-43859774D01*
X41217205Y-43690256D01*
X41295226Y-43501898D01*
X41335000Y-43301939D01*
X41335000Y-43098061D01*
X41295226Y-42898102D01*
X41217205Y-42709744D01*
X41103937Y-42540226D01*
X40959774Y-42396063D01*
X40790256Y-42282795D01*
X40601898Y-42204774D01*
X40401939Y-42165000D01*
X40198061Y-42165000D01*
X39998102Y-42204774D01*
X39809744Y-42282795D01*
X39640226Y-42396063D01*
X39496063Y-42540226D01*
X39382795Y-42709744D01*
X39350770Y-42787059D01*
X39209774Y-42646063D01*
X39040256Y-42532795D01*
X38851898Y-42454774D01*
X38651939Y-42415000D01*
X38448061Y-42415000D01*
X38248102Y-42454774D01*
X38059744Y-42532795D01*
X37890226Y-42646063D01*
X37746063Y-42790226D01*
X37632795Y-42959744D01*
X37554774Y-43148102D01*
X37515000Y-43348061D01*
X20660000Y-43348061D01*
X20660000Y-41798061D01*
X52165000Y-41798061D01*
X52165000Y-42001939D01*
X52204774Y-42201898D01*
X52282795Y-42390256D01*
X52396063Y-42559774D01*
X52540226Y-42703937D01*
X52709744Y-42817205D01*
X52898102Y-42895226D01*
X53098061Y-42935000D01*
X53301939Y-42935000D01*
X53501898Y-42895226D01*
X53690256Y-42817205D01*
X53859774Y-42703937D01*
X54003937Y-42559774D01*
X54117205Y-42390256D01*
X54195226Y-42201898D01*
X54235000Y-42001939D01*
X54235000Y-41798061D01*
X54195226Y-41598102D01*
X54117205Y-41409744D01*
X54003937Y-41240226D01*
X53859774Y-41096063D01*
X53690256Y-40982795D01*
X53501898Y-40904774D01*
X53301939Y-40865000D01*
X53098061Y-40865000D01*
X52898102Y-40904774D01*
X52709744Y-40982795D01*
X52540226Y-41096063D01*
X52396063Y-41240226D01*
X52282795Y-41409744D01*
X52204774Y-41598102D01*
X52165000Y-41798061D01*
X20660000Y-41798061D01*
X20660000Y-40523061D01*
X54540000Y-40523061D01*
X54540000Y-40726939D01*
X54579774Y-40926898D01*
X54657795Y-41115256D01*
X54771063Y-41284774D01*
X54915226Y-41428937D01*
X55084744Y-41542205D01*
X55273102Y-41620226D01*
X55473061Y-41660000D01*
X55676939Y-41660000D01*
X55876898Y-41620226D01*
X56065256Y-41542205D01*
X56234774Y-41428937D01*
X56378937Y-41284774D01*
X56492205Y-41115256D01*
X56570226Y-40926898D01*
X56610000Y-40726939D01*
X56610000Y-40523061D01*
X56570226Y-40323102D01*
X56492205Y-40134744D01*
X56378937Y-39965226D01*
X56298711Y-39885000D01*
X56451939Y-39885000D01*
X56651898Y-39845226D01*
X56840256Y-39767205D01*
X57009774Y-39653937D01*
X57153937Y-39509774D01*
X57267205Y-39340256D01*
X57337849Y-39169708D01*
X57398061Y-39181685D01*
X57601939Y-39181685D01*
X57801898Y-39141911D01*
X57990256Y-39063890D01*
X58159774Y-38950622D01*
X58273000Y-38837396D01*
X58273000Y-46000000D01*
X58275440Y-46024776D01*
X58282667Y-46048601D01*
X58294403Y-46070557D01*
X58310197Y-46089803D01*
X58329443Y-46105597D01*
X58351399Y-46117333D01*
X58375224Y-46124560D01*
X58400000Y-46127000D01*
X63250000Y-46127000D01*
X63274776Y-46124560D01*
X63298601Y-46117333D01*
X63320557Y-46105597D01*
X63339803Y-46089803D01*
X63355597Y-46070557D01*
X63367333Y-46048601D01*
X63374560Y-46024776D01*
X63377000Y-46000000D01*
X63377000Y-45048061D01*
X86465000Y-45048061D01*
X86465000Y-45251939D01*
X86504774Y-45451898D01*
X86582795Y-45640256D01*
X86656123Y-45750000D01*
X86582795Y-45859744D01*
X86504774Y-46048102D01*
X86465000Y-46248061D01*
X86465000Y-46451939D01*
X86504774Y-46651898D01*
X86582795Y-46840256D01*
X86696063Y-47009774D01*
X86840226Y-47153937D01*
X87009744Y-47267205D01*
X87198102Y-47345226D01*
X87398061Y-47385000D01*
X87601939Y-47385000D01*
X87801898Y-47345226D01*
X87990256Y-47267205D01*
X88159774Y-47153937D01*
X88303937Y-47009774D01*
X88417205Y-46840256D01*
X88495226Y-46651898D01*
X88535000Y-46451939D01*
X88535000Y-46248061D01*
X88495226Y-46048102D01*
X88417205Y-45859744D01*
X88343877Y-45750000D01*
X88417205Y-45640256D01*
X88495226Y-45451898D01*
X88535000Y-45251939D01*
X88535000Y-45048061D01*
X88495226Y-44848102D01*
X88417205Y-44659744D01*
X88303937Y-44490226D01*
X88159774Y-44346063D01*
X87990256Y-44232795D01*
X87801898Y-44154774D01*
X87601939Y-44115000D01*
X87398061Y-44115000D01*
X87198102Y-44154774D01*
X87009744Y-44232795D01*
X86840226Y-44346063D01*
X86696063Y-44490226D01*
X86582795Y-44659744D01*
X86504774Y-44848102D01*
X86465000Y-45048061D01*
X63377000Y-45048061D01*
X63377000Y-44627000D01*
X65750000Y-44627000D01*
X65774776Y-44624560D01*
X65798601Y-44617333D01*
X65820557Y-44605597D01*
X65839803Y-44589803D01*
X65855597Y-44570557D01*
X65867333Y-44548601D01*
X65874560Y-44524776D01*
X65877000Y-44500000D01*
X65877000Y-43027000D01*
X67600000Y-43027000D01*
X67624776Y-43024560D01*
X67648601Y-43017333D01*
X67670557Y-43005597D01*
X67689803Y-42989803D01*
X67705597Y-42970557D01*
X67717333Y-42948601D01*
X67722357Y-42932040D01*
X67888061Y-42965000D01*
X68091939Y-42965000D01*
X68291898Y-42925226D01*
X68362338Y-42896049D01*
X68400226Y-42933937D01*
X68569744Y-43047205D01*
X68758102Y-43125226D01*
X68958061Y-43165000D01*
X69161939Y-43165000D01*
X69361898Y-43125226D01*
X69550256Y-43047205D01*
X69719774Y-42933937D01*
X69863937Y-42789774D01*
X69977205Y-42620256D01*
X70055226Y-42431898D01*
X70095000Y-42231939D01*
X70095000Y-42028061D01*
X70055226Y-41828102D01*
X69977205Y-41639744D01*
X69863937Y-41470226D01*
X69719774Y-41326063D01*
X69550256Y-41212795D01*
X69361898Y-41134774D01*
X69161939Y-41095000D01*
X68958061Y-41095000D01*
X68758102Y-41134774D01*
X68687662Y-41163951D01*
X68649774Y-41126063D01*
X68480256Y-41012795D01*
X68291898Y-40934774D01*
X68091939Y-40895000D01*
X67888061Y-40895000D01*
X67688102Y-40934774D01*
X67499744Y-41012795D01*
X67409641Y-41073000D01*
X63427000Y-41073000D01*
X63427000Y-38200000D01*
X63424560Y-38175224D01*
X63417333Y-38151399D01*
X63405597Y-38129443D01*
X63389803Y-38110197D01*
X63370557Y-38094403D01*
X63348601Y-38082667D01*
X63324776Y-38075440D01*
X63300000Y-38073000D01*
X58535000Y-38073000D01*
X58535000Y-38044746D01*
X58495226Y-37844787D01*
X58417205Y-37656429D01*
X58303937Y-37486911D01*
X58159774Y-37342748D01*
X57990256Y-37229480D01*
X57801898Y-37151459D01*
X57601939Y-37111685D01*
X57398061Y-37111685D01*
X57198102Y-37151459D01*
X57009744Y-37229480D01*
X56840226Y-37342748D01*
X56696063Y-37486911D01*
X56582795Y-37656429D01*
X56512151Y-37826977D01*
X56451939Y-37815000D01*
X56248061Y-37815000D01*
X56048102Y-37854774D01*
X55859744Y-37932795D01*
X55690226Y-38046063D01*
X55546063Y-38190226D01*
X55432795Y-38359744D01*
X55354774Y-38548102D01*
X55315000Y-38748061D01*
X55315000Y-38951939D01*
X55354774Y-39151898D01*
X55432795Y-39340256D01*
X55546063Y-39509774D01*
X55626289Y-39590000D01*
X55473061Y-39590000D01*
X55273102Y-39629774D01*
X55084744Y-39707795D01*
X54915226Y-39821063D01*
X54771063Y-39965226D01*
X54657795Y-40134744D01*
X54579774Y-40323102D01*
X54540000Y-40523061D01*
X20660000Y-40523061D01*
X20660000Y-35238212D01*
X34595000Y-35238212D01*
X34595000Y-35461788D01*
X34638617Y-35681067D01*
X34724176Y-35887624D01*
X34815968Y-36025000D01*
X34724176Y-36162376D01*
X34638617Y-36368933D01*
X34595000Y-36588212D01*
X34595000Y-36811788D01*
X34638617Y-37031067D01*
X34724176Y-37237624D01*
X34782559Y-37325000D01*
X34724176Y-37412376D01*
X34638617Y-37618933D01*
X34595000Y-37838212D01*
X34595000Y-38061788D01*
X34638617Y-38281067D01*
X34724176Y-38487624D01*
X34848388Y-38673520D01*
X35006480Y-38831612D01*
X35192376Y-38955824D01*
X35398933Y-39041383D01*
X35618212Y-39085000D01*
X35841788Y-39085000D01*
X36061067Y-39041383D01*
X36267624Y-38955824D01*
X36453520Y-38831612D01*
X36611612Y-38673520D01*
X36735824Y-38487624D01*
X36821383Y-38281067D01*
X36832921Y-38223061D01*
X40190000Y-38223061D01*
X40190000Y-38426939D01*
X40229774Y-38626898D01*
X40307795Y-38815256D01*
X40421063Y-38984774D01*
X40565226Y-39128937D01*
X40734744Y-39242205D01*
X40923102Y-39320226D01*
X41123061Y-39360000D01*
X41326939Y-39360000D01*
X41526898Y-39320226D01*
X41701118Y-39248061D01*
X42240000Y-39248061D01*
X42240000Y-39451939D01*
X42279774Y-39651898D01*
X42357795Y-39840256D01*
X42471063Y-40009774D01*
X42615226Y-40153937D01*
X42784744Y-40267205D01*
X42973102Y-40345226D01*
X43173061Y-40385000D01*
X43376939Y-40385000D01*
X43576898Y-40345226D01*
X43765256Y-40267205D01*
X43934774Y-40153937D01*
X44078937Y-40009774D01*
X44192205Y-39840256D01*
X44270226Y-39651898D01*
X44310000Y-39451939D01*
X44310000Y-39248061D01*
X44270226Y-39048102D01*
X44192205Y-38859744D01*
X44078937Y-38690226D01*
X43934774Y-38546063D01*
X43765256Y-38432795D01*
X43576898Y-38354774D01*
X43376939Y-38315000D01*
X43173061Y-38315000D01*
X42973102Y-38354774D01*
X42784744Y-38432795D01*
X42615226Y-38546063D01*
X42471063Y-38690226D01*
X42357795Y-38859744D01*
X42279774Y-39048102D01*
X42240000Y-39248061D01*
X41701118Y-39248061D01*
X41715256Y-39242205D01*
X41884774Y-39128937D01*
X42028937Y-38984774D01*
X42142205Y-38815256D01*
X42220226Y-38626898D01*
X42260000Y-38426939D01*
X42260000Y-38223061D01*
X42220226Y-38023102D01*
X42142205Y-37834744D01*
X42028937Y-37665226D01*
X41884774Y-37521063D01*
X41715256Y-37407795D01*
X41526898Y-37329774D01*
X41326939Y-37290000D01*
X41123061Y-37290000D01*
X40923102Y-37329774D01*
X40734744Y-37407795D01*
X40565226Y-37521063D01*
X40421063Y-37665226D01*
X40307795Y-37834744D01*
X40229774Y-38023102D01*
X40190000Y-38223061D01*
X36832921Y-38223061D01*
X36865000Y-38061788D01*
X36865000Y-37838212D01*
X36821383Y-37618933D01*
X36735824Y-37412376D01*
X36677441Y-37325000D01*
X36735824Y-37237624D01*
X36821383Y-37031067D01*
X36865000Y-36811788D01*
X36865000Y-36588212D01*
X36847068Y-36498061D01*
X63165000Y-36498061D01*
X63165000Y-36701939D01*
X63204774Y-36901898D01*
X63282795Y-37090256D01*
X63396063Y-37259774D01*
X63540226Y-37403937D01*
X63709744Y-37517205D01*
X63853488Y-37576746D01*
X63882761Y-37723911D01*
X63960782Y-37912269D01*
X64074050Y-38081787D01*
X64218213Y-38225950D01*
X64387731Y-38339218D01*
X64576089Y-38417239D01*
X64776048Y-38457013D01*
X64979926Y-38457013D01*
X65179885Y-38417239D01*
X65368243Y-38339218D01*
X65537761Y-38225950D01*
X65681924Y-38081787D01*
X65795192Y-37912269D01*
X65873213Y-37723911D01*
X65912987Y-37523952D01*
X65912987Y-37398061D01*
X66765000Y-37398061D01*
X66765000Y-37601939D01*
X66804774Y-37801898D01*
X66882795Y-37990256D01*
X66996063Y-38159774D01*
X67118074Y-38281785D01*
X67085000Y-38448061D01*
X67085000Y-38651939D01*
X67124774Y-38851898D01*
X67202795Y-39040256D01*
X67316063Y-39209774D01*
X67460226Y-39353937D01*
X67629744Y-39467205D01*
X67818102Y-39545226D01*
X68018061Y-39585000D01*
X68221939Y-39585000D01*
X68383091Y-39552945D01*
X68421063Y-39609774D01*
X68565226Y-39753937D01*
X68734744Y-39867205D01*
X68923102Y-39945226D01*
X69123061Y-39985000D01*
X69326939Y-39985000D01*
X69526898Y-39945226D01*
X69542363Y-39938820D01*
X69579774Y-40126898D01*
X69657795Y-40315256D01*
X69771063Y-40484774D01*
X69915226Y-40628937D01*
X70084744Y-40742205D01*
X70273102Y-40820226D01*
X70473061Y-40860000D01*
X70676939Y-40860000D01*
X70876898Y-40820226D01*
X70930408Y-40798061D01*
X71740000Y-40798061D01*
X71740000Y-41001939D01*
X71779774Y-41201898D01*
X71857795Y-41390256D01*
X71971063Y-41559774D01*
X72115226Y-41703937D01*
X72284744Y-41817205D01*
X72473102Y-41895226D01*
X72673061Y-41935000D01*
X72876939Y-41935000D01*
X73076898Y-41895226D01*
X73265256Y-41817205D01*
X73434774Y-41703937D01*
X73578937Y-41559774D01*
X73692205Y-41390256D01*
X73770226Y-41201898D01*
X73810000Y-41001939D01*
X73810000Y-40798061D01*
X73770226Y-40598102D01*
X73692205Y-40409744D01*
X73578937Y-40240226D01*
X73434774Y-40096063D01*
X73265256Y-39982795D01*
X73076898Y-39904774D01*
X72876939Y-39865000D01*
X72673061Y-39865000D01*
X72473102Y-39904774D01*
X72284744Y-39982795D01*
X72115226Y-40096063D01*
X71971063Y-40240226D01*
X71857795Y-40409744D01*
X71779774Y-40598102D01*
X71740000Y-40798061D01*
X70930408Y-40798061D01*
X71065256Y-40742205D01*
X71234774Y-40628937D01*
X71378937Y-40484774D01*
X71492205Y-40315256D01*
X71570226Y-40126898D01*
X71610000Y-39926939D01*
X71610000Y-39723061D01*
X71570226Y-39523102D01*
X71492205Y-39334744D01*
X71402173Y-39200000D01*
X91436928Y-39200000D01*
X91436928Y-40900000D01*
X91449188Y-41024482D01*
X91485498Y-41144180D01*
X91544463Y-41254494D01*
X91623815Y-41351185D01*
X91720506Y-41430537D01*
X91830820Y-41489502D01*
X91903380Y-41511513D01*
X91771525Y-41643368D01*
X91609010Y-41886589D01*
X91497068Y-42156842D01*
X91440000Y-42443740D01*
X91440000Y-42736260D01*
X91497068Y-43023158D01*
X91609010Y-43293411D01*
X91771525Y-43536632D01*
X91978368Y-43743475D01*
X92152760Y-43860000D01*
X91978368Y-43976525D01*
X91771525Y-44183368D01*
X91609010Y-44426589D01*
X91497068Y-44696842D01*
X91440000Y-44983740D01*
X91440000Y-45276260D01*
X91497068Y-45563158D01*
X91609010Y-45833411D01*
X91771525Y-46076632D01*
X91978368Y-46283475D01*
X92152760Y-46400000D01*
X91978368Y-46516525D01*
X91771525Y-46723368D01*
X91609010Y-46966589D01*
X91497068Y-47236842D01*
X91440000Y-47523740D01*
X91440000Y-47816260D01*
X91497068Y-48103158D01*
X91609010Y-48373411D01*
X91771525Y-48616632D01*
X91978368Y-48823475D01*
X92152760Y-48940000D01*
X91978368Y-49056525D01*
X91771525Y-49263368D01*
X91609010Y-49506589D01*
X91497068Y-49776842D01*
X91440000Y-50063740D01*
X91440000Y-50356260D01*
X91497068Y-50643158D01*
X91609010Y-50913411D01*
X91771525Y-51156632D01*
X91978368Y-51363475D01*
X92152760Y-51480000D01*
X91978368Y-51596525D01*
X91771525Y-51803368D01*
X91609010Y-52046589D01*
X91497068Y-52316842D01*
X91440000Y-52603740D01*
X91440000Y-52896260D01*
X91497068Y-53183158D01*
X91609010Y-53453411D01*
X91771525Y-53696632D01*
X91978368Y-53903475D01*
X92152760Y-54020000D01*
X91978368Y-54136525D01*
X91771525Y-54343368D01*
X91609010Y-54586589D01*
X91497068Y-54856842D01*
X91440000Y-55143740D01*
X91440000Y-55436260D01*
X91497068Y-55723158D01*
X91609010Y-55993411D01*
X91771525Y-56236632D01*
X91978368Y-56443475D01*
X92152760Y-56560000D01*
X91978368Y-56676525D01*
X91771525Y-56883368D01*
X91609010Y-57126589D01*
X91497068Y-57396842D01*
X91440000Y-57683740D01*
X91440000Y-57976260D01*
X91497068Y-58263158D01*
X91609010Y-58533411D01*
X91771525Y-58776632D01*
X91978368Y-58983475D01*
X92221589Y-59145990D01*
X92491842Y-59257932D01*
X92778740Y-59315000D01*
X93071260Y-59315000D01*
X93358158Y-59257932D01*
X93628411Y-59145990D01*
X93871632Y-58983475D01*
X94078475Y-58776632D01*
X94202523Y-58590981D01*
X94306525Y-58746632D01*
X94513368Y-58953475D01*
X94756589Y-59115990D01*
X95026842Y-59227932D01*
X95313740Y-59285000D01*
X95606260Y-59285000D01*
X95893158Y-59227932D01*
X96163411Y-59115990D01*
X96406632Y-58953475D01*
X96538487Y-58821620D01*
X96560498Y-58894180D01*
X96619463Y-59004494D01*
X96698815Y-59101185D01*
X96795506Y-59180537D01*
X96905820Y-59239502D01*
X97025518Y-59275812D01*
X97150000Y-59288072D01*
X97714250Y-59285000D01*
X97873000Y-59126250D01*
X97873000Y-57927000D01*
X97853000Y-57927000D01*
X97853000Y-57673000D01*
X97873000Y-57673000D01*
X97873000Y-55387000D01*
X97853000Y-55387000D01*
X97853000Y-55133000D01*
X97873000Y-55133000D01*
X97873000Y-52847000D01*
X97853000Y-52847000D01*
X97853000Y-52593000D01*
X97873000Y-52593000D01*
X97873000Y-50307000D01*
X97853000Y-50307000D01*
X97853000Y-50053000D01*
X97873000Y-50053000D01*
X97873000Y-47767000D01*
X97853000Y-47767000D01*
X97853000Y-47513000D01*
X97873000Y-47513000D01*
X97873000Y-45227000D01*
X97853000Y-45227000D01*
X97853000Y-44973000D01*
X97873000Y-44973000D01*
X97873000Y-42687000D01*
X97853000Y-42687000D01*
X97853000Y-42433000D01*
X97873000Y-42433000D01*
X97873000Y-40147000D01*
X97853000Y-40147000D01*
X97853000Y-39893000D01*
X97873000Y-39893000D01*
X97873000Y-38699186D01*
X97643109Y-38578519D01*
X97368748Y-38675843D01*
X97118645Y-38824822D01*
X96902412Y-39019731D01*
X96731100Y-39249406D01*
X96613475Y-39073368D01*
X96406632Y-38866525D01*
X96163411Y-38704010D01*
X95893158Y-38592068D01*
X95606260Y-38535000D01*
X95313740Y-38535000D01*
X95026842Y-38592068D01*
X94756589Y-38704010D01*
X94513368Y-38866525D01*
X94378367Y-39001526D01*
X94364502Y-38955820D01*
X94305537Y-38845506D01*
X94226185Y-38748815D01*
X94129494Y-38669463D01*
X94019180Y-38610498D01*
X93899482Y-38574188D01*
X93775000Y-38561928D01*
X92075000Y-38561928D01*
X91950518Y-38574188D01*
X91830820Y-38610498D01*
X91720506Y-38669463D01*
X91623815Y-38748815D01*
X91544463Y-38845506D01*
X91485498Y-38955820D01*
X91449188Y-39075518D01*
X91436928Y-39200000D01*
X71402173Y-39200000D01*
X71378937Y-39165226D01*
X71234774Y-39021063D01*
X71065256Y-38907795D01*
X70876898Y-38829774D01*
X70676939Y-38790000D01*
X70473061Y-38790000D01*
X70273102Y-38829774D01*
X70257637Y-38836180D01*
X70220226Y-38648102D01*
X70142205Y-38459744D01*
X70028937Y-38290226D01*
X69884774Y-38146063D01*
X69715256Y-38032795D01*
X69526898Y-37954774D01*
X69326939Y-37915000D01*
X69123061Y-37915000D01*
X68961909Y-37947055D01*
X68923937Y-37890226D01*
X68801926Y-37768215D01*
X68835000Y-37601939D01*
X68835000Y-37398061D01*
X68795226Y-37198102D01*
X68717205Y-37009744D01*
X68603937Y-36840226D01*
X68521366Y-36757655D01*
X68609744Y-36816707D01*
X68798102Y-36894728D01*
X68998061Y-36934502D01*
X69201939Y-36934502D01*
X69401898Y-36894728D01*
X69590256Y-36816707D01*
X69759774Y-36703439D01*
X69903937Y-36559276D01*
X70017205Y-36389758D01*
X70095226Y-36201400D01*
X70120754Y-36073061D01*
X70565000Y-36073061D01*
X70565000Y-36276939D01*
X70604774Y-36476898D01*
X70682795Y-36665256D01*
X70796063Y-36834774D01*
X70940226Y-36978937D01*
X71109744Y-37092205D01*
X71298102Y-37170226D01*
X71498061Y-37210000D01*
X71701939Y-37210000D01*
X71901898Y-37170226D01*
X72090256Y-37092205D01*
X72259774Y-36978937D01*
X72403937Y-36834774D01*
X72495285Y-36698061D01*
X72815000Y-36698061D01*
X72815000Y-36901939D01*
X72854774Y-37101898D01*
X72932795Y-37290256D01*
X73046063Y-37459774D01*
X73190226Y-37603937D01*
X73310493Y-37684296D01*
X73304774Y-37698102D01*
X73265000Y-37898061D01*
X73265000Y-38101939D01*
X73304774Y-38301898D01*
X73382795Y-38490256D01*
X73496063Y-38659774D01*
X73640226Y-38803937D01*
X73809744Y-38917205D01*
X73998102Y-38995226D01*
X74198061Y-39035000D01*
X74401939Y-39035000D01*
X74601898Y-38995226D01*
X74790256Y-38917205D01*
X74959774Y-38803937D01*
X75103937Y-38659774D01*
X75217205Y-38490256D01*
X75295226Y-38301898D01*
X75335000Y-38101939D01*
X75335000Y-37898061D01*
X75295226Y-37698102D01*
X75217205Y-37509744D01*
X75103937Y-37340226D01*
X75061772Y-37298061D01*
X76165000Y-37298061D01*
X76165000Y-37501939D01*
X76204774Y-37701898D01*
X76282795Y-37890256D01*
X76396063Y-38059774D01*
X76540226Y-38203937D01*
X76709744Y-38317205D01*
X76898102Y-38395226D01*
X77098061Y-38435000D01*
X77301939Y-38435000D01*
X77501898Y-38395226D01*
X77690256Y-38317205D01*
X77859774Y-38203937D01*
X78003937Y-38059774D01*
X78117205Y-37890256D01*
X78195226Y-37701898D01*
X78235000Y-37501939D01*
X78235000Y-37298061D01*
X78233112Y-37288570D01*
X78359774Y-37203937D01*
X78503937Y-37059774D01*
X78617205Y-36890256D01*
X78695226Y-36701898D01*
X78735000Y-36501939D01*
X78735000Y-36298061D01*
X78695226Y-36098102D01*
X78617205Y-35909744D01*
X78503937Y-35740226D01*
X78359774Y-35596063D01*
X78190256Y-35482795D01*
X78001898Y-35404774D01*
X77801939Y-35365000D01*
X77598061Y-35365000D01*
X77398102Y-35404774D01*
X77209744Y-35482795D01*
X77040226Y-35596063D01*
X76896063Y-35740226D01*
X76782795Y-35909744D01*
X76704774Y-36098102D01*
X76665000Y-36298061D01*
X76665000Y-36501939D01*
X76666888Y-36511430D01*
X76540226Y-36596063D01*
X76396063Y-36740226D01*
X76282795Y-36909744D01*
X76204774Y-37098102D01*
X76165000Y-37298061D01*
X75061772Y-37298061D01*
X74959774Y-37196063D01*
X74839507Y-37115704D01*
X74845226Y-37101898D01*
X74885000Y-36901939D01*
X74885000Y-36698061D01*
X74845226Y-36498102D01*
X74767205Y-36309744D01*
X74653937Y-36140226D01*
X74509774Y-35996063D01*
X74340256Y-35882795D01*
X74151898Y-35804774D01*
X73951939Y-35765000D01*
X73748061Y-35765000D01*
X73548102Y-35804774D01*
X73359744Y-35882795D01*
X73190226Y-35996063D01*
X73046063Y-36140226D01*
X72932795Y-36309744D01*
X72854774Y-36498102D01*
X72815000Y-36698061D01*
X72495285Y-36698061D01*
X72517205Y-36665256D01*
X72595226Y-36476898D01*
X72635000Y-36276939D01*
X72635000Y-36073061D01*
X72595226Y-35873102D01*
X72517205Y-35684744D01*
X72403937Y-35515226D01*
X72259774Y-35371063D01*
X72090256Y-35257795D01*
X71901898Y-35179774D01*
X71701939Y-35140000D01*
X71498061Y-35140000D01*
X71298102Y-35179774D01*
X71109744Y-35257795D01*
X70940226Y-35371063D01*
X70796063Y-35515226D01*
X70682795Y-35684744D01*
X70604774Y-35873102D01*
X70565000Y-36073061D01*
X70120754Y-36073061D01*
X70135000Y-36001441D01*
X70135000Y-35797563D01*
X70095226Y-35597604D01*
X70017205Y-35409246D01*
X69903937Y-35239728D01*
X69759774Y-35095565D01*
X69590256Y-34982297D01*
X69401898Y-34904276D01*
X69201939Y-34864502D01*
X68998061Y-34864502D01*
X68798102Y-34904276D01*
X68609744Y-34982297D01*
X68440226Y-35095565D01*
X68296063Y-35239728D01*
X68182795Y-35409246D01*
X68104774Y-35597604D01*
X68065000Y-35797563D01*
X68065000Y-36001441D01*
X68104774Y-36201400D01*
X68182795Y-36389758D01*
X68296063Y-36559276D01*
X68378634Y-36641847D01*
X68290256Y-36582795D01*
X68101898Y-36504774D01*
X67901939Y-36465000D01*
X67698061Y-36465000D01*
X67498102Y-36504774D01*
X67309744Y-36582795D01*
X67140226Y-36696063D01*
X66996063Y-36840226D01*
X66882795Y-37009744D01*
X66804774Y-37198102D01*
X66765000Y-37398061D01*
X65912987Y-37398061D01*
X65912987Y-37320074D01*
X65873213Y-37120115D01*
X65795192Y-36931757D01*
X65681924Y-36762239D01*
X65537761Y-36618076D01*
X65368243Y-36504808D01*
X65224499Y-36445267D01*
X65195226Y-36298102D01*
X65117205Y-36109744D01*
X65003937Y-35940226D01*
X64859774Y-35796063D01*
X64690256Y-35682795D01*
X64501898Y-35604774D01*
X64301939Y-35565000D01*
X64098061Y-35565000D01*
X63898102Y-35604774D01*
X63709744Y-35682795D01*
X63540226Y-35796063D01*
X63396063Y-35940226D01*
X63282795Y-36109744D01*
X63204774Y-36298102D01*
X63165000Y-36498061D01*
X36847068Y-36498061D01*
X36821383Y-36368933D01*
X36735824Y-36162376D01*
X36644032Y-36025000D01*
X36735824Y-35887624D01*
X36821383Y-35681067D01*
X36865000Y-35461788D01*
X36865000Y-35238212D01*
X36821383Y-35018933D01*
X36735824Y-34812376D01*
X36611612Y-34626480D01*
X36453520Y-34468388D01*
X36267624Y-34344176D01*
X36156293Y-34298061D01*
X40215000Y-34298061D01*
X40215000Y-34501939D01*
X40254774Y-34701898D01*
X40332795Y-34890256D01*
X40356010Y-34925000D01*
X40332795Y-34959744D01*
X40254774Y-35148102D01*
X40215000Y-35348061D01*
X40215000Y-35551939D01*
X40254774Y-35751898D01*
X40332795Y-35940256D01*
X40446063Y-36109774D01*
X40590226Y-36253937D01*
X40759744Y-36367205D01*
X40948102Y-36445226D01*
X41148061Y-36485000D01*
X41351939Y-36485000D01*
X41551898Y-36445226D01*
X41740256Y-36367205D01*
X41909774Y-36253937D01*
X42053937Y-36109774D01*
X42167205Y-35940256D01*
X42245226Y-35751898D01*
X42285000Y-35551939D01*
X42285000Y-35348061D01*
X42245226Y-35148102D01*
X42167205Y-34959744D01*
X42143990Y-34925000D01*
X42167205Y-34890256D01*
X42245226Y-34701898D01*
X42285000Y-34501939D01*
X42285000Y-34298061D01*
X42245226Y-34098102D01*
X42234854Y-34073061D01*
X45490000Y-34073061D01*
X45490000Y-34276939D01*
X45529774Y-34476898D01*
X45607795Y-34665256D01*
X45721063Y-34834774D01*
X45865226Y-34978937D01*
X46034744Y-35092205D01*
X46223102Y-35170226D01*
X46423061Y-35210000D01*
X46626939Y-35210000D01*
X46826898Y-35170226D01*
X47015256Y-35092205D01*
X47184774Y-34978937D01*
X47328937Y-34834774D01*
X47442205Y-34665256D01*
X47520226Y-34476898D01*
X47560000Y-34276939D01*
X47560000Y-34073061D01*
X47520226Y-33873102D01*
X47442205Y-33684744D01*
X47328937Y-33515226D01*
X47184774Y-33371063D01*
X47015256Y-33257795D01*
X46826898Y-33179774D01*
X46626939Y-33140000D01*
X46423061Y-33140000D01*
X46223102Y-33179774D01*
X46034744Y-33257795D01*
X45865226Y-33371063D01*
X45721063Y-33515226D01*
X45607795Y-33684744D01*
X45529774Y-33873102D01*
X45490000Y-34073061D01*
X42234854Y-34073061D01*
X42167205Y-33909744D01*
X42053937Y-33740226D01*
X41909774Y-33596063D01*
X41740256Y-33482795D01*
X41551898Y-33404774D01*
X41351939Y-33365000D01*
X41148061Y-33365000D01*
X40948102Y-33404774D01*
X40759744Y-33482795D01*
X40590226Y-33596063D01*
X40446063Y-33740226D01*
X40332795Y-33909744D01*
X40254774Y-34098102D01*
X40215000Y-34298061D01*
X36156293Y-34298061D01*
X36061067Y-34258617D01*
X35841788Y-34215000D01*
X35618212Y-34215000D01*
X35398933Y-34258617D01*
X35192376Y-34344176D01*
X35006480Y-34468388D01*
X34848388Y-34626480D01*
X34724176Y-34812376D01*
X34638617Y-35018933D01*
X34595000Y-35238212D01*
X20660000Y-35238212D01*
X20660000Y-32998061D01*
X62440000Y-32998061D01*
X62440000Y-33201939D01*
X62479774Y-33401898D01*
X62557795Y-33590256D01*
X62671063Y-33759774D01*
X62815226Y-33903937D01*
X62984744Y-34017205D01*
X63173102Y-34095226D01*
X63373061Y-34135000D01*
X63576939Y-34135000D01*
X63776898Y-34095226D01*
X63962500Y-34018347D01*
X64148102Y-34095226D01*
X64348061Y-34135000D01*
X64551939Y-34135000D01*
X64751898Y-34095226D01*
X64940256Y-34017205D01*
X65109774Y-33903937D01*
X65253937Y-33759774D01*
X65367205Y-33590256D01*
X65445226Y-33401898D01*
X65485000Y-33201939D01*
X65485000Y-32998061D01*
X65479033Y-32968061D01*
X80765000Y-32968061D01*
X80765000Y-33171939D01*
X80804774Y-33371898D01*
X80882795Y-33560256D01*
X80996063Y-33729774D01*
X81140226Y-33873937D01*
X81309744Y-33987205D01*
X81498102Y-34065226D01*
X81698061Y-34105000D01*
X81901939Y-34105000D01*
X82101898Y-34065226D01*
X82290256Y-33987205D01*
X82459774Y-33873937D01*
X82603937Y-33729774D01*
X82717205Y-33560256D01*
X82795226Y-33371898D01*
X82835000Y-33171939D01*
X82835000Y-32968061D01*
X82795226Y-32768102D01*
X82717205Y-32579744D01*
X82603937Y-32410226D01*
X82459774Y-32266063D01*
X82290256Y-32152795D01*
X82101898Y-32074774D01*
X81901939Y-32035000D01*
X81698061Y-32035000D01*
X81498102Y-32074774D01*
X81309744Y-32152795D01*
X81140226Y-32266063D01*
X80996063Y-32410226D01*
X80882795Y-32579744D01*
X80804774Y-32768102D01*
X80765000Y-32968061D01*
X65479033Y-32968061D01*
X65445226Y-32798102D01*
X65367205Y-32609744D01*
X65253937Y-32440226D01*
X65109774Y-32296063D01*
X64940256Y-32182795D01*
X64751898Y-32104774D01*
X64551939Y-32065000D01*
X64348061Y-32065000D01*
X64148102Y-32104774D01*
X63962500Y-32181653D01*
X63776898Y-32104774D01*
X63576939Y-32065000D01*
X63373061Y-32065000D01*
X63173102Y-32104774D01*
X62984744Y-32182795D01*
X62815226Y-32296063D01*
X62671063Y-32440226D01*
X62557795Y-32609744D01*
X62479774Y-32798102D01*
X62440000Y-32998061D01*
X20660000Y-32998061D01*
X20660000Y-30778061D01*
X66575000Y-30778061D01*
X66575000Y-30981939D01*
X66614774Y-31181898D01*
X66692795Y-31370256D01*
X66806063Y-31539774D01*
X66950226Y-31683937D01*
X67119744Y-31797205D01*
X67308102Y-31875226D01*
X67508061Y-31915000D01*
X67711939Y-31915000D01*
X67911898Y-31875226D01*
X68100256Y-31797205D01*
X68269774Y-31683937D01*
X68413937Y-31539774D01*
X68527205Y-31370256D01*
X68605226Y-31181898D01*
X68645000Y-30981939D01*
X68645000Y-30778061D01*
X68605226Y-30578102D01*
X68527205Y-30389744D01*
X68413937Y-30220226D01*
X68269774Y-30076063D01*
X68100256Y-29962795D01*
X67911898Y-29884774D01*
X67711939Y-29845000D01*
X67508061Y-29845000D01*
X67308102Y-29884774D01*
X67119744Y-29962795D01*
X66950226Y-30076063D01*
X66806063Y-30220226D01*
X66692795Y-30389744D01*
X66614774Y-30578102D01*
X66575000Y-30778061D01*
X20660000Y-30778061D01*
X20660000Y-27387496D01*
X21166735Y-28145879D01*
X21854121Y-28833265D01*
X22662401Y-29373340D01*
X23560514Y-29745350D01*
X24513945Y-29935000D01*
X25486055Y-29935000D01*
X26439486Y-29745350D01*
X27337599Y-29373340D01*
X28145879Y-28833265D01*
X28833265Y-28145879D01*
X28883471Y-28070741D01*
X28892307Y-28092074D01*
X29029099Y-28296798D01*
X29203202Y-28470901D01*
X29407926Y-28607693D01*
X29635402Y-28701917D01*
X29876890Y-28749952D01*
X30123110Y-28749952D01*
X30364598Y-28701917D01*
X30592074Y-28607693D01*
X30796798Y-28470901D01*
X30970901Y-28296798D01*
X31107693Y-28092074D01*
X31201917Y-27864598D01*
X31244988Y-27648061D01*
X56215000Y-27648061D01*
X56215000Y-27851939D01*
X56254774Y-28051898D01*
X56332795Y-28240256D01*
X56446063Y-28409774D01*
X56590226Y-28553937D01*
X56759744Y-28667205D01*
X56948102Y-28745226D01*
X57148061Y-28785000D01*
X57351939Y-28785000D01*
X57551898Y-28745226D01*
X57665763Y-28698061D01*
X70665000Y-28698061D01*
X70665000Y-28901939D01*
X70704774Y-29101898D01*
X70782795Y-29290256D01*
X70896063Y-29459774D01*
X71040226Y-29603937D01*
X71209744Y-29717205D01*
X71398102Y-29795226D01*
X71598061Y-29835000D01*
X71765000Y-29835000D01*
X71765000Y-30001939D01*
X71804774Y-30201898D01*
X71882795Y-30390256D01*
X71996063Y-30559774D01*
X72140226Y-30703937D01*
X72309744Y-30817205D01*
X72498102Y-30895226D01*
X72698061Y-30935000D01*
X72901939Y-30935000D01*
X73101898Y-30895226D01*
X73290256Y-30817205D01*
X73459774Y-30703937D01*
X73603937Y-30559774D01*
X73711989Y-30398061D01*
X80315000Y-30398061D01*
X80315000Y-30601939D01*
X80354774Y-30801898D01*
X80432795Y-30990256D01*
X80546063Y-31159774D01*
X80690226Y-31303937D01*
X80859744Y-31417205D01*
X81048102Y-31495226D01*
X81248061Y-31535000D01*
X81451939Y-31535000D01*
X81651898Y-31495226D01*
X81840256Y-31417205D01*
X82009774Y-31303937D01*
X82153937Y-31159774D01*
X82267205Y-30990256D01*
X82345226Y-30801898D01*
X82385000Y-30601939D01*
X82385000Y-30398061D01*
X82365109Y-30298061D01*
X82465000Y-30298061D01*
X82465000Y-30501939D01*
X82504774Y-30701898D01*
X82582795Y-30890256D01*
X82696063Y-31059774D01*
X82840226Y-31203937D01*
X83009744Y-31317205D01*
X83198102Y-31395226D01*
X83398061Y-31435000D01*
X83601939Y-31435000D01*
X83801898Y-31395226D01*
X83990256Y-31317205D01*
X84159774Y-31203937D01*
X84303937Y-31059774D01*
X84417205Y-30890256D01*
X84495226Y-30701898D01*
X84535000Y-30501939D01*
X84535000Y-30298061D01*
X84495226Y-30098102D01*
X84417205Y-29909744D01*
X84303937Y-29740226D01*
X84159774Y-29596063D01*
X83990256Y-29482795D01*
X83801898Y-29404774D01*
X83601939Y-29365000D01*
X83398061Y-29365000D01*
X83198102Y-29404774D01*
X83009744Y-29482795D01*
X82840226Y-29596063D01*
X82696063Y-29740226D01*
X82582795Y-29909744D01*
X82504774Y-30098102D01*
X82465000Y-30298061D01*
X82365109Y-30298061D01*
X82345226Y-30198102D01*
X82267205Y-30009744D01*
X82153937Y-29840226D01*
X82009774Y-29696063D01*
X81840256Y-29582795D01*
X81651898Y-29504774D01*
X81451939Y-29465000D01*
X81248061Y-29465000D01*
X81048102Y-29504774D01*
X80859744Y-29582795D01*
X80690226Y-29696063D01*
X80546063Y-29840226D01*
X80432795Y-30009744D01*
X80354774Y-30198102D01*
X80315000Y-30398061D01*
X73711989Y-30398061D01*
X73717205Y-30390256D01*
X73795226Y-30201898D01*
X73835000Y-30001939D01*
X73835000Y-29798061D01*
X73795226Y-29598102D01*
X73717205Y-29409744D01*
X73603937Y-29240226D01*
X73459774Y-29096063D01*
X73290256Y-28982795D01*
X73101898Y-28904774D01*
X72901939Y-28865000D01*
X72735000Y-28865000D01*
X72735000Y-28698061D01*
X72695226Y-28498102D01*
X72617205Y-28309744D01*
X72503937Y-28140226D01*
X72359774Y-27996063D01*
X72190256Y-27882795D01*
X72001898Y-27804774D01*
X71801939Y-27765000D01*
X71598061Y-27765000D01*
X71398102Y-27804774D01*
X71209744Y-27882795D01*
X71040226Y-27996063D01*
X70896063Y-28140226D01*
X70782795Y-28309744D01*
X70704774Y-28498102D01*
X70665000Y-28698061D01*
X57665763Y-28698061D01*
X57740256Y-28667205D01*
X57909774Y-28553937D01*
X58053937Y-28409774D01*
X58167205Y-28240256D01*
X58245226Y-28051898D01*
X58285000Y-27851939D01*
X58285000Y-27648061D01*
X58245226Y-27448102D01*
X58167205Y-27259744D01*
X58053937Y-27090226D01*
X57909774Y-26946063D01*
X57740256Y-26832795D01*
X57551898Y-26754774D01*
X57351939Y-26715000D01*
X57148061Y-26715000D01*
X56948102Y-26754774D01*
X56759744Y-26832795D01*
X56590226Y-26946063D01*
X56446063Y-27090226D01*
X56332795Y-27259744D01*
X56254774Y-27448102D01*
X56215000Y-27648061D01*
X31244988Y-27648061D01*
X31249952Y-27623110D01*
X31249952Y-27376890D01*
X31201917Y-27135402D01*
X31107693Y-26907926D01*
X30970901Y-26703202D01*
X30796798Y-26529099D01*
X30592074Y-26392307D01*
X30582188Y-26388212D01*
X85615000Y-26388212D01*
X85615000Y-26611788D01*
X85658617Y-26831067D01*
X85744176Y-27037624D01*
X85868388Y-27223520D01*
X86026480Y-27381612D01*
X86072707Y-27412500D01*
X86026480Y-27443388D01*
X85868388Y-27601480D01*
X85744176Y-27787376D01*
X85658617Y-27993933D01*
X85615000Y-28213212D01*
X85615000Y-28436788D01*
X85658617Y-28656067D01*
X85744176Y-28862624D01*
X85868388Y-29048520D01*
X86026480Y-29206612D01*
X86212376Y-29330824D01*
X86418933Y-29416383D01*
X86638212Y-29460000D01*
X86861788Y-29460000D01*
X87081067Y-29416383D01*
X87287624Y-29330824D01*
X87473520Y-29206612D01*
X87631612Y-29048520D01*
X87755824Y-28862624D01*
X87841383Y-28656067D01*
X87885000Y-28436788D01*
X87885000Y-28213212D01*
X87841383Y-27993933D01*
X87755824Y-27787376D01*
X87631612Y-27601480D01*
X87628364Y-27598232D01*
X87813212Y-27635000D01*
X88036788Y-27635000D01*
X88256067Y-27591383D01*
X88462624Y-27505824D01*
X88648520Y-27381612D01*
X88806612Y-27223520D01*
X88930824Y-27037624D01*
X89016383Y-26831067D01*
X89060000Y-26611788D01*
X89060000Y-26388212D01*
X89016383Y-26168933D01*
X88930824Y-25962376D01*
X88806612Y-25776480D01*
X88648520Y-25618388D01*
X88462624Y-25494176D01*
X88256067Y-25408617D01*
X88036788Y-25365000D01*
X87813212Y-25365000D01*
X87593933Y-25408617D01*
X87387376Y-25494176D01*
X87337500Y-25527502D01*
X87287624Y-25494176D01*
X87081067Y-25408617D01*
X86861788Y-25365000D01*
X86638212Y-25365000D01*
X86418933Y-25408617D01*
X86212376Y-25494176D01*
X86026480Y-25618388D01*
X85868388Y-25776480D01*
X85744176Y-25962376D01*
X85658617Y-26168933D01*
X85615000Y-26388212D01*
X30582188Y-26388212D01*
X30364598Y-26298083D01*
X30123110Y-26250048D01*
X29876890Y-26250048D01*
X29779165Y-26269487D01*
X29935000Y-25486055D01*
X29935000Y-24968061D01*
X58335000Y-24968061D01*
X58335000Y-25171939D01*
X58374774Y-25371898D01*
X58452795Y-25560256D01*
X58566063Y-25729774D01*
X58710226Y-25873937D01*
X58879744Y-25987205D01*
X59068102Y-26065226D01*
X59268061Y-26105000D01*
X59471939Y-26105000D01*
X59671898Y-26065226D01*
X59860256Y-25987205D01*
X60029774Y-25873937D01*
X60173937Y-25729774D01*
X60287205Y-25560256D01*
X60365226Y-25371898D01*
X60405000Y-25171939D01*
X60405000Y-24968061D01*
X60403041Y-24958212D01*
X65325000Y-24958212D01*
X65325000Y-25181788D01*
X65368617Y-25401067D01*
X65454176Y-25607624D01*
X65578388Y-25793520D01*
X65736480Y-25951612D01*
X65922376Y-26075824D01*
X66128933Y-26161383D01*
X66348212Y-26205000D01*
X66571788Y-26205000D01*
X66791067Y-26161383D01*
X66997624Y-26075824D01*
X67095000Y-26010759D01*
X67192376Y-26075824D01*
X67398933Y-26161383D01*
X67618212Y-26205000D01*
X67841788Y-26205000D01*
X68061067Y-26161383D01*
X68267624Y-26075824D01*
X68365000Y-26010759D01*
X68462376Y-26075824D01*
X68668933Y-26161383D01*
X68888212Y-26205000D01*
X69111788Y-26205000D01*
X69331067Y-26161383D01*
X69537624Y-26075824D01*
X69635000Y-26010759D01*
X69732376Y-26075824D01*
X69938933Y-26161383D01*
X70158212Y-26205000D01*
X70381788Y-26205000D01*
X70601067Y-26161383D01*
X70807624Y-26075824D01*
X70905000Y-26010759D01*
X71002376Y-26075824D01*
X71208933Y-26161383D01*
X71428212Y-26205000D01*
X71651788Y-26205000D01*
X71871067Y-26161383D01*
X72077624Y-26075824D01*
X72263520Y-25951612D01*
X72421612Y-25793520D01*
X72545824Y-25607624D01*
X72631383Y-25401067D01*
X72675000Y-25181788D01*
X72675000Y-24958212D01*
X72631383Y-24738933D01*
X72585112Y-24627226D01*
X72629502Y-24544180D01*
X72665812Y-24424482D01*
X72678072Y-24300000D01*
X72678072Y-23300000D01*
X72665812Y-23175518D01*
X72629502Y-23055820D01*
X72570537Y-22945506D01*
X72491185Y-22848815D01*
X72394494Y-22769463D01*
X72284180Y-22710498D01*
X72164482Y-22674188D01*
X72040000Y-22661928D01*
X71040000Y-22661928D01*
X70915518Y-22674188D01*
X70795820Y-22710498D01*
X70706820Y-22758070D01*
X70626864Y-22722554D01*
X70571874Y-22705881D01*
X70397000Y-22832046D01*
X70397000Y-23673000D01*
X70401928Y-23673000D01*
X70401928Y-23927000D01*
X70397000Y-23927000D01*
X70397000Y-23938026D01*
X70381788Y-23935000D01*
X70158212Y-23935000D01*
X70143000Y-23938026D01*
X70143000Y-23927000D01*
X69127000Y-23927000D01*
X69127000Y-23938026D01*
X69111788Y-23935000D01*
X68888212Y-23935000D01*
X68873000Y-23938026D01*
X68873000Y-23927000D01*
X68861974Y-23927000D01*
X68865000Y-23911788D01*
X68865000Y-23688212D01*
X68861974Y-23673000D01*
X68873000Y-23673000D01*
X68873000Y-22832046D01*
X69127000Y-22832046D01*
X69127000Y-23673000D01*
X70143000Y-23673000D01*
X70143000Y-22832046D01*
X69968126Y-22705881D01*
X69913136Y-22722554D01*
X69709794Y-22812877D01*
X69635000Y-22865639D01*
X69560206Y-22812877D01*
X69356864Y-22722554D01*
X69301874Y-22705881D01*
X69127000Y-22832046D01*
X68873000Y-22832046D01*
X68698126Y-22705881D01*
X68643136Y-22722554D01*
X68439794Y-22812877D01*
X68369658Y-22862353D01*
X68267624Y-22794176D01*
X68061067Y-22708617D01*
X67841788Y-22665000D01*
X67618212Y-22665000D01*
X67398933Y-22708617D01*
X67192376Y-22794176D01*
X67090342Y-22862353D01*
X67020206Y-22812877D01*
X66816864Y-22722554D01*
X66761874Y-22705881D01*
X66587000Y-22832046D01*
X66587000Y-23673000D01*
X66598026Y-23673000D01*
X66595000Y-23688212D01*
X66595000Y-23911788D01*
X66598026Y-23927000D01*
X66587000Y-23927000D01*
X66587000Y-23938026D01*
X66571788Y-23935000D01*
X66348212Y-23935000D01*
X66333000Y-23938026D01*
X66333000Y-23927000D01*
X65490871Y-23927000D01*
X65365874Y-24101876D01*
X65445790Y-24309529D01*
X65522256Y-24430488D01*
X65454176Y-24532376D01*
X65368617Y-24738933D01*
X65325000Y-24958212D01*
X60403041Y-24958212D01*
X60365226Y-24768102D01*
X60287205Y-24579744D01*
X60173937Y-24410226D01*
X60029774Y-24266063D01*
X59860256Y-24152795D01*
X59671898Y-24074774D01*
X59471939Y-24035000D01*
X59268061Y-24035000D01*
X59068102Y-24074774D01*
X58879744Y-24152795D01*
X58710226Y-24266063D01*
X58566063Y-24410226D01*
X58452795Y-24579744D01*
X58374774Y-24768102D01*
X58335000Y-24968061D01*
X29935000Y-24968061D01*
X29935000Y-24513945D01*
X29850579Y-24089532D01*
X29912376Y-24130824D01*
X30118933Y-24216383D01*
X30338212Y-24260000D01*
X30561788Y-24260000D01*
X30781067Y-24216383D01*
X30987624Y-24130824D01*
X31173520Y-24006612D01*
X31331612Y-23848520D01*
X31455824Y-23662624D01*
X31541383Y-23456067D01*
X31585000Y-23236788D01*
X31585000Y-23013212D01*
X33365000Y-23013212D01*
X33365000Y-23236788D01*
X33408617Y-23456067D01*
X33494176Y-23662624D01*
X33618388Y-23848520D01*
X33776480Y-24006612D01*
X33962376Y-24130824D01*
X34168933Y-24216383D01*
X34388212Y-24260000D01*
X34611788Y-24260000D01*
X34831067Y-24216383D01*
X35037624Y-24130824D01*
X35223520Y-24006612D01*
X35381612Y-23848520D01*
X35505824Y-23662624D01*
X35591383Y-23456067D01*
X35635000Y-23236788D01*
X35635000Y-23013212D01*
X37590000Y-23013212D01*
X37590000Y-23236788D01*
X37633617Y-23456067D01*
X37719176Y-23662624D01*
X37843388Y-23848520D01*
X38001480Y-24006612D01*
X38187376Y-24130824D01*
X38393933Y-24216383D01*
X38613212Y-24260000D01*
X38836788Y-24260000D01*
X39056067Y-24216383D01*
X39262624Y-24130824D01*
X39448520Y-24006612D01*
X39606612Y-23848520D01*
X39730824Y-23662624D01*
X39816383Y-23456067D01*
X39860000Y-23236788D01*
X39860000Y-23013212D01*
X41790000Y-23013212D01*
X41790000Y-23236788D01*
X41833617Y-23456067D01*
X41919176Y-23662624D01*
X42043388Y-23848520D01*
X42201480Y-24006612D01*
X42387376Y-24130824D01*
X42593933Y-24216383D01*
X42813212Y-24260000D01*
X43036788Y-24260000D01*
X43256067Y-24216383D01*
X43462624Y-24130824D01*
X43648520Y-24006612D01*
X43806612Y-23848520D01*
X43930824Y-23662624D01*
X44016383Y-23456067D01*
X44060000Y-23236788D01*
X44060000Y-23013212D01*
X45990000Y-23013212D01*
X45990000Y-23236788D01*
X46033617Y-23456067D01*
X46119176Y-23662624D01*
X46243388Y-23848520D01*
X46401480Y-24006612D01*
X46587376Y-24130824D01*
X46793933Y-24216383D01*
X47013212Y-24260000D01*
X47236788Y-24260000D01*
X47456067Y-24216383D01*
X47662624Y-24130824D01*
X47848520Y-24006612D01*
X48006612Y-23848520D01*
X48130824Y-23662624D01*
X48216383Y-23456067D01*
X48260000Y-23236788D01*
X48260000Y-23013212D01*
X48216383Y-22793933D01*
X48204522Y-22765297D01*
X55640000Y-22765297D01*
X55640000Y-22934703D01*
X55673049Y-23100853D01*
X55737878Y-23257363D01*
X55831995Y-23398218D01*
X55951782Y-23518005D01*
X56092637Y-23612122D01*
X56249147Y-23676951D01*
X56415297Y-23710000D01*
X56584703Y-23710000D01*
X56750853Y-23676951D01*
X56907363Y-23612122D01*
X57048218Y-23518005D01*
X57168005Y-23398218D01*
X57262122Y-23257363D01*
X57326951Y-23100853D01*
X57360000Y-22934703D01*
X57360000Y-22765297D01*
X58640000Y-22765297D01*
X58640000Y-22934703D01*
X58673049Y-23100853D01*
X58737878Y-23257363D01*
X58831995Y-23398218D01*
X58951782Y-23518005D01*
X59092637Y-23612122D01*
X59249147Y-23676951D01*
X59415297Y-23710000D01*
X59584703Y-23710000D01*
X59750853Y-23676951D01*
X59907363Y-23612122D01*
X60048218Y-23518005D01*
X60068099Y-23498124D01*
X65365874Y-23498124D01*
X65490871Y-23673000D01*
X66333000Y-23673000D01*
X66333000Y-22832046D01*
X66158126Y-22705881D01*
X66103136Y-22722554D01*
X65899794Y-22812877D01*
X65717980Y-22941135D01*
X65564682Y-23102399D01*
X65445790Y-23290471D01*
X65365874Y-23498124D01*
X60068099Y-23498124D01*
X60168005Y-23398218D01*
X60262122Y-23257363D01*
X60326951Y-23100853D01*
X60360000Y-22934703D01*
X60360000Y-22765297D01*
X60326951Y-22599147D01*
X60262122Y-22442637D01*
X60168005Y-22301782D01*
X60048218Y-22181995D01*
X59907363Y-22087878D01*
X59750853Y-22023049D01*
X59584703Y-21990000D01*
X59415297Y-21990000D01*
X59249147Y-22023049D01*
X59092637Y-22087878D01*
X58951782Y-22181995D01*
X58831995Y-22301782D01*
X58737878Y-22442637D01*
X58673049Y-22599147D01*
X58640000Y-22765297D01*
X57360000Y-22765297D01*
X57326951Y-22599147D01*
X57262122Y-22442637D01*
X57168005Y-22301782D01*
X57048218Y-22181995D01*
X56907363Y-22087878D01*
X56750853Y-22023049D01*
X56584703Y-21990000D01*
X56415297Y-21990000D01*
X56249147Y-22023049D01*
X56092637Y-22087878D01*
X55951782Y-22181995D01*
X55831995Y-22301782D01*
X55737878Y-22442637D01*
X55673049Y-22599147D01*
X55640000Y-22765297D01*
X48204522Y-22765297D01*
X48130824Y-22587376D01*
X48006612Y-22401480D01*
X47848520Y-22243388D01*
X47662624Y-22119176D01*
X47456067Y-22033617D01*
X47236788Y-21990000D01*
X47013212Y-21990000D01*
X46793933Y-22033617D01*
X46587376Y-22119176D01*
X46401480Y-22243388D01*
X46243388Y-22401480D01*
X46119176Y-22587376D01*
X46033617Y-22793933D01*
X45990000Y-23013212D01*
X44060000Y-23013212D01*
X44016383Y-22793933D01*
X43930824Y-22587376D01*
X43806612Y-22401480D01*
X43648520Y-22243388D01*
X43462624Y-22119176D01*
X43256067Y-22033617D01*
X43036788Y-21990000D01*
X42813212Y-21990000D01*
X42593933Y-22033617D01*
X42387376Y-22119176D01*
X42201480Y-22243388D01*
X42043388Y-22401480D01*
X41919176Y-22587376D01*
X41833617Y-22793933D01*
X41790000Y-23013212D01*
X39860000Y-23013212D01*
X39816383Y-22793933D01*
X39730824Y-22587376D01*
X39606612Y-22401480D01*
X39448520Y-22243388D01*
X39262624Y-22119176D01*
X39056067Y-22033617D01*
X38836788Y-21990000D01*
X38613212Y-21990000D01*
X38393933Y-22033617D01*
X38187376Y-22119176D01*
X38001480Y-22243388D01*
X37843388Y-22401480D01*
X37719176Y-22587376D01*
X37633617Y-22793933D01*
X37590000Y-23013212D01*
X35635000Y-23013212D01*
X35591383Y-22793933D01*
X35505824Y-22587376D01*
X35381612Y-22401480D01*
X35223520Y-22243388D01*
X35037624Y-22119176D01*
X34831067Y-22033617D01*
X34611788Y-21990000D01*
X34388212Y-21990000D01*
X34168933Y-22033617D01*
X33962376Y-22119176D01*
X33776480Y-22243388D01*
X33618388Y-22401480D01*
X33494176Y-22587376D01*
X33408617Y-22793933D01*
X33365000Y-23013212D01*
X31585000Y-23013212D01*
X31541383Y-22793933D01*
X31455824Y-22587376D01*
X31331612Y-22401480D01*
X31173520Y-22243388D01*
X30987624Y-22119176D01*
X30781067Y-22033617D01*
X30561788Y-21990000D01*
X30338212Y-21990000D01*
X30118933Y-22033617D01*
X29912376Y-22119176D01*
X29726480Y-22243388D01*
X29568388Y-22401480D01*
X29444176Y-22587376D01*
X29393220Y-22710395D01*
X29373340Y-22662401D01*
X28833265Y-21854121D01*
X28145879Y-21166735D01*
X27387496Y-20660000D01*
X76641840Y-20660000D01*
X76584618Y-20729725D01*
G37*
X76584618Y-20729725D02*
X76460653Y-20961646D01*
X76384317Y-21213294D01*
X76365000Y-21409421D01*
X76365000Y-21940578D01*
X76384317Y-22136705D01*
X76460653Y-22388353D01*
X76584618Y-22620274D01*
X76751445Y-22823555D01*
X76954725Y-22990382D01*
X77186646Y-23114347D01*
X77438294Y-23190683D01*
X77700000Y-23216459D01*
X77961705Y-23190683D01*
X78213353Y-23114347D01*
X78445274Y-22990382D01*
X78648555Y-22823555D01*
X78815382Y-22620275D01*
X78939347Y-22388354D01*
X79015683Y-22136706D01*
X79035000Y-21940579D01*
X79035000Y-21409422D01*
X79015683Y-21213295D01*
X78939347Y-20961647D01*
X78815382Y-20729725D01*
X78758160Y-20660000D01*
X83241840Y-20660000D01*
X83184618Y-20729725D01*
X83060653Y-20961646D01*
X82984317Y-21213294D01*
X82965000Y-21409421D01*
X82965000Y-21940578D01*
X82984317Y-22136705D01*
X83060653Y-22388353D01*
X83184618Y-22620274D01*
X83351445Y-22823555D01*
X83554725Y-22990382D01*
X83786646Y-23114347D01*
X84038294Y-23190683D01*
X84300000Y-23216459D01*
X84561705Y-23190683D01*
X84813353Y-23114347D01*
X85045274Y-22990382D01*
X85248555Y-22823555D01*
X85415382Y-22620275D01*
X85539347Y-22388354D01*
X85615683Y-22136706D01*
X85635000Y-21940579D01*
X85635000Y-21409422D01*
X85615683Y-21213295D01*
X85539347Y-20961647D01*
X85415382Y-20729725D01*
X85358160Y-20660000D01*
X92612504Y-20660000D01*
X91854121Y-21166735D01*
X91166735Y-21854121D01*
X90626660Y-22662401D01*
X90254650Y-23560514D01*
X90065000Y-24513945D01*
X90065000Y-25486055D01*
X90254650Y-26439486D01*
X90626660Y-27337599D01*
X91166735Y-28145879D01*
X91854121Y-28833265D01*
X92662401Y-29373340D01*
X93560514Y-29745350D01*
X94513945Y-29935000D01*
X95486055Y-29935000D01*
X96439486Y-29745350D01*
X97337599Y-29373340D01*
X98145879Y-28833265D01*
X98833265Y-28145879D01*
X99340000Y-27387496D01*
X99340000Y-39396599D01*
X99271641Y-39253080D01*
X99097588Y-39019731D01*
X98881355Y-38824822D01*
X98631252Y-38675843D01*
X98356891Y-38578519D01*
X98127000Y-38699186D01*
X98127000Y-39893000D01*
X98147000Y-39893000D01*
X98147000Y-40147000D01*
X98127000Y-40147000D01*
X98127000Y-42433000D01*
X98147000Y-42433000D01*
X98147000Y-42687000D01*
X98127000Y-42687000D01*
X98127000Y-44973000D01*
X98147000Y-44973000D01*
X98147000Y-45227000D01*
X98127000Y-45227000D01*
X98127000Y-47513000D01*
X98147000Y-47513000D01*
X98147000Y-47767000D01*
X98127000Y-47767000D01*
X98127000Y-50053000D01*
X98147000Y-50053000D01*
X98147000Y-50307000D01*
X98127000Y-50307000D01*
X98127000Y-52593000D01*
X98147000Y-52593000D01*
X98147000Y-52847000D01*
X98127000Y-52847000D01*
X98127000Y-55133000D01*
X98147000Y-55133000D01*
X98147000Y-55387000D01*
X98127000Y-55387000D01*
X98127000Y-57673000D01*
X98147000Y-57673000D01*
X98147000Y-57927000D01*
X98127000Y-57927000D01*
X98127000Y-59126250D01*
X98285750Y-59285000D01*
X98850000Y-59288072D01*
X98974482Y-59275812D01*
X99094180Y-59239502D01*
X99204494Y-59180537D01*
X99301185Y-59101185D01*
X99340001Y-59053888D01*
X99340001Y-62612506D01*
X98833265Y-61854121D01*
X98145879Y-61166735D01*
X97337599Y-60626660D01*
X96439486Y-60254650D01*
X95486055Y-60065000D01*
X94513945Y-60065000D01*
X93560514Y-60254650D01*
X92662401Y-60626660D01*
X91854121Y-61166735D01*
X91166735Y-61854121D01*
X90626660Y-62662401D01*
X90254650Y-63560514D01*
X90065000Y-64513945D01*
X90065000Y-65486055D01*
X90220835Y-66269487D01*
X90123110Y-66250048D01*
X89876890Y-66250048D01*
X89635402Y-66298083D01*
X89407926Y-66392307D01*
X89203202Y-66529099D01*
X89029099Y-66703202D01*
X88892307Y-66907926D01*
X88798083Y-67135402D01*
X88750048Y-67376890D01*
X88750048Y-67623110D01*
X88798083Y-67864598D01*
X88892307Y-68092074D01*
X89029099Y-68296798D01*
X89203202Y-68470901D01*
X89407926Y-68607693D01*
X89635402Y-68701917D01*
X89876890Y-68749952D01*
X90123110Y-68749952D01*
X90364598Y-68701917D01*
X90592074Y-68607693D01*
X90796798Y-68470901D01*
X90970901Y-68296798D01*
X91107693Y-68092074D01*
X91116529Y-68070741D01*
X91166735Y-68145879D01*
X91854121Y-68833265D01*
X92612504Y-69340000D01*
X27387496Y-69340000D01*
X28145879Y-68833265D01*
X28833265Y-68145879D01*
X28883471Y-68070741D01*
X28892307Y-68092074D01*
X29029099Y-68296798D01*
X29203202Y-68470901D01*
X29407926Y-68607693D01*
X29635402Y-68701917D01*
X29876890Y-68749952D01*
X30123110Y-68749952D01*
X30364598Y-68701917D01*
X30592074Y-68607693D01*
X30796798Y-68470901D01*
X30970901Y-68296798D01*
X31107693Y-68092074D01*
X31201917Y-67864598D01*
X31249952Y-67623110D01*
X31249952Y-67376890D01*
X31201917Y-67135402D01*
X31107693Y-66907926D01*
X30970901Y-66703202D01*
X30796798Y-66529099D01*
X30592074Y-66392307D01*
X30509762Y-66358212D01*
X34845000Y-66358212D01*
X34845000Y-66581788D01*
X34888617Y-66801067D01*
X34974176Y-67007624D01*
X35098388Y-67193520D01*
X35256480Y-67351612D01*
X35442376Y-67475824D01*
X35648933Y-67561383D01*
X35868212Y-67605000D01*
X36091788Y-67605000D01*
X36311067Y-67561383D01*
X36517624Y-67475824D01*
X36703520Y-67351612D01*
X36861612Y-67193520D01*
X36985824Y-67007624D01*
X37071383Y-66801067D01*
X37115000Y-66581788D01*
X37115000Y-66368212D01*
X45195000Y-66368212D01*
X45195000Y-66591788D01*
X45238617Y-66811067D01*
X45324176Y-67017624D01*
X45448388Y-67203520D01*
X45606480Y-67361612D01*
X45792376Y-67485824D01*
X45998933Y-67571383D01*
X46218212Y-67615000D01*
X46441788Y-67615000D01*
X46661067Y-67571383D01*
X46867624Y-67485824D01*
X47053520Y-67361612D01*
X47211612Y-67203520D01*
X47335824Y-67017624D01*
X47421383Y-66811067D01*
X47465000Y-66591788D01*
X47465000Y-66368212D01*
X47463011Y-66358212D01*
X55565000Y-66358212D01*
X55565000Y-66581788D01*
X55608617Y-66801067D01*
X55694176Y-67007624D01*
X55818388Y-67193520D01*
X55976480Y-67351612D01*
X56162376Y-67475824D01*
X56368933Y-67561383D01*
X56588212Y-67605000D01*
X56811788Y-67605000D01*
X57031067Y-67561383D01*
X57237624Y-67475824D01*
X57423520Y-67351612D01*
X57581612Y-67193520D01*
X57705824Y-67007624D01*
X57791383Y-66801067D01*
X57835000Y-66581788D01*
X57835000Y-66358212D01*
X66045000Y-66358212D01*
X66045000Y-66581788D01*
X66088617Y-66801067D01*
X66174176Y-67007624D01*
X66298388Y-67193520D01*
X66456480Y-67351612D01*
X66642376Y-67475824D01*
X66848933Y-67561383D01*
X67068212Y-67605000D01*
X67291788Y-67605000D01*
X67511067Y-67561383D01*
X67717624Y-67475824D01*
X67903520Y-67351612D01*
X68061612Y-67193520D01*
X68185824Y-67007624D01*
X68271383Y-66801067D01*
X68315000Y-66581788D01*
X68315000Y-66448061D01*
X69865000Y-66448061D01*
X69865000Y-66651939D01*
X69904774Y-66851898D01*
X69982795Y-67040256D01*
X70096063Y-67209774D01*
X70240226Y-67353937D01*
X70409744Y-67467205D01*
X70598102Y-67545226D01*
X70798061Y-67585000D01*
X71001939Y-67585000D01*
X71201898Y-67545226D01*
X71390256Y-67467205D01*
X71559774Y-67353937D01*
X71703937Y-67209774D01*
X71817205Y-67040256D01*
X71895226Y-66851898D01*
X71935000Y-66651939D01*
X71935000Y-66448061D01*
X71895226Y-66248102D01*
X71817205Y-66059744D01*
X71703937Y-65890226D01*
X71559774Y-65746063D01*
X71413104Y-65648061D01*
X72265000Y-65648061D01*
X72265000Y-65851939D01*
X72304774Y-66051898D01*
X72382795Y-66240256D01*
X72496063Y-66409774D01*
X72640226Y-66553937D01*
X72809744Y-66667205D01*
X72998102Y-66745226D01*
X73198061Y-66785000D01*
X73401939Y-66785000D01*
X73601898Y-66745226D01*
X73790256Y-66667205D01*
X73959774Y-66553937D01*
X74103937Y-66409774D01*
X74131707Y-66368212D01*
X78995000Y-66368212D01*
X78995000Y-66591788D01*
X79038617Y-66811067D01*
X79124176Y-67017624D01*
X79248388Y-67203520D01*
X79406480Y-67361612D01*
X79592376Y-67485824D01*
X79798933Y-67571383D01*
X80018212Y-67615000D01*
X80241788Y-67615000D01*
X80461067Y-67571383D01*
X80667624Y-67485824D01*
X80853520Y-67361612D01*
X81011612Y-67203520D01*
X81135824Y-67017624D01*
X81221383Y-66811067D01*
X81265000Y-66591788D01*
X81265000Y-66368212D01*
X81221383Y-66148933D01*
X81135824Y-65942376D01*
X81011612Y-65756480D01*
X80853520Y-65598388D01*
X80667624Y-65474176D01*
X80461067Y-65388617D01*
X80241788Y-65345000D01*
X80018212Y-65345000D01*
X79798933Y-65388617D01*
X79592376Y-65474176D01*
X79406480Y-65598388D01*
X79248388Y-65756480D01*
X79124176Y-65942376D01*
X79038617Y-66148933D01*
X78995000Y-66368212D01*
X74131707Y-66368212D01*
X74217205Y-66240256D01*
X74295226Y-66051898D01*
X74335000Y-65851939D01*
X74335000Y-65648061D01*
X74295226Y-65448102D01*
X74217205Y-65259744D01*
X74103937Y-65090226D01*
X73959774Y-64946063D01*
X73790256Y-64832795D01*
X73601898Y-64754774D01*
X73401939Y-64715000D01*
X73198061Y-64715000D01*
X72998102Y-64754774D01*
X72809744Y-64832795D01*
X72640226Y-64946063D01*
X72496063Y-65090226D01*
X72382795Y-65259744D01*
X72304774Y-65448102D01*
X72265000Y-65648061D01*
X71413104Y-65648061D01*
X71390256Y-65632795D01*
X71201898Y-65554774D01*
X71001939Y-65515000D01*
X70798061Y-65515000D01*
X70598102Y-65554774D01*
X70409744Y-65632795D01*
X70240226Y-65746063D01*
X70096063Y-65890226D01*
X69982795Y-66059744D01*
X69904774Y-66248102D01*
X69865000Y-66448061D01*
X68315000Y-66448061D01*
X68315000Y-66358212D01*
X68271383Y-66138933D01*
X68185824Y-65932376D01*
X68061612Y-65746480D01*
X67903520Y-65588388D01*
X67717624Y-65464176D01*
X67511067Y-65378617D01*
X67291788Y-65335000D01*
X67068212Y-65335000D01*
X66848933Y-65378617D01*
X66642376Y-65464176D01*
X66456480Y-65588388D01*
X66298388Y-65746480D01*
X66174176Y-65932376D01*
X66088617Y-66138933D01*
X66045000Y-66358212D01*
X57835000Y-66358212D01*
X57791383Y-66138933D01*
X57705824Y-65932376D01*
X57581612Y-65746480D01*
X57423520Y-65588388D01*
X57237624Y-65464176D01*
X57031067Y-65378617D01*
X56811788Y-65335000D01*
X56588212Y-65335000D01*
X56368933Y-65378617D01*
X56162376Y-65464176D01*
X55976480Y-65588388D01*
X55818388Y-65746480D01*
X55694176Y-65932376D01*
X55608617Y-66138933D01*
X55565000Y-66358212D01*
X47463011Y-66358212D01*
X47421383Y-66148933D01*
X47335824Y-65942376D01*
X47211612Y-65756480D01*
X47053520Y-65598388D01*
X46867624Y-65474176D01*
X46661067Y-65388617D01*
X46441788Y-65345000D01*
X46218212Y-65345000D01*
X45998933Y-65388617D01*
X45792376Y-65474176D01*
X45606480Y-65598388D01*
X45448388Y-65756480D01*
X45324176Y-65942376D01*
X45238617Y-66148933D01*
X45195000Y-66368212D01*
X37115000Y-66368212D01*
X37115000Y-66358212D01*
X37071383Y-66138933D01*
X36985824Y-65932376D01*
X36861612Y-65746480D01*
X36703520Y-65588388D01*
X36517624Y-65464176D01*
X36311067Y-65378617D01*
X36091788Y-65335000D01*
X35868212Y-65335000D01*
X35648933Y-65378617D01*
X35442376Y-65464176D01*
X35256480Y-65588388D01*
X35098388Y-65746480D01*
X34974176Y-65932376D01*
X34888617Y-66138933D01*
X34845000Y-66358212D01*
X30509762Y-66358212D01*
X30364598Y-66298083D01*
X30123110Y-66250048D01*
X29876890Y-66250048D01*
X29779165Y-66269487D01*
X29935000Y-65486055D01*
X29935000Y-64513945D01*
X29745350Y-63560514D01*
X29373340Y-62662401D01*
X28833265Y-61854121D01*
X28145879Y-61166735D01*
X27337599Y-60626660D01*
X26439486Y-60254650D01*
X25486055Y-60065000D01*
X24513945Y-60065000D01*
X23560514Y-60254650D01*
X22662401Y-60626660D01*
X21854121Y-61166735D01*
X21166735Y-61854121D01*
X20660000Y-62612504D01*
X20660000Y-58548061D01*
X30965000Y-58548061D01*
X30965000Y-58751939D01*
X31004774Y-58951898D01*
X31082795Y-59140256D01*
X31139419Y-59225000D01*
X31082795Y-59309744D01*
X31004774Y-59498102D01*
X30965000Y-59698061D01*
X30965000Y-59901939D01*
X31004774Y-60101898D01*
X31082795Y-60290256D01*
X31172828Y-60425000D01*
X31082795Y-60559744D01*
X31004774Y-60748102D01*
X30965000Y-60948061D01*
X30965000Y-61151939D01*
X31004774Y-61351898D01*
X31082795Y-61540256D01*
X31172828Y-61675000D01*
X31082795Y-61809744D01*
X31004774Y-61998102D01*
X30965000Y-62198061D01*
X30965000Y-62401939D01*
X31004774Y-62601898D01*
X31082795Y-62790256D01*
X31139419Y-62875000D01*
X31082795Y-62959744D01*
X31004774Y-63148102D01*
X30965000Y-63348061D01*
X30965000Y-63551939D01*
X31004774Y-63751898D01*
X31082795Y-63940256D01*
X31196063Y-64109774D01*
X31211289Y-64125000D01*
X31196063Y-64140226D01*
X31082795Y-64309744D01*
X31004774Y-64498102D01*
X30965000Y-64698061D01*
X30965000Y-64901939D01*
X31004774Y-65101898D01*
X31082795Y-65290256D01*
X31196063Y-65459774D01*
X31340226Y-65603937D01*
X31509744Y-65717205D01*
X31698102Y-65795226D01*
X31898061Y-65835000D01*
X32101939Y-65835000D01*
X32301898Y-65795226D01*
X32490256Y-65717205D01*
X32659774Y-65603937D01*
X32803937Y-65459774D01*
X32917205Y-65290256D01*
X32995226Y-65101898D01*
X33035000Y-64901939D01*
X33035000Y-64698061D01*
X32995226Y-64498102D01*
X32917205Y-64309744D01*
X32803937Y-64140226D01*
X32788711Y-64125000D01*
X32803937Y-64109774D01*
X32917205Y-63940256D01*
X32995226Y-63751898D01*
X33035000Y-63551939D01*
X33035000Y-63348061D01*
X32995226Y-63148102D01*
X32917205Y-62959744D01*
X32860581Y-62875000D01*
X32917205Y-62790256D01*
X32995226Y-62601898D01*
X33035000Y-62401939D01*
X33035000Y-62198061D01*
X32995226Y-61998102D01*
X32917205Y-61809744D01*
X32827172Y-61675000D01*
X32917205Y-61540256D01*
X32995226Y-61351898D01*
X33035000Y-61151939D01*
X33035000Y-60948061D01*
X32995226Y-60748102D01*
X32917205Y-60559744D01*
X32827172Y-60425000D01*
X32878580Y-60348061D01*
X70165000Y-60348061D01*
X70165000Y-60551939D01*
X70204774Y-60751898D01*
X70282795Y-60940256D01*
X70396063Y-61109774D01*
X70540226Y-61253937D01*
X70709744Y-61367205D01*
X70898102Y-61445226D01*
X71098061Y-61485000D01*
X71301939Y-61485000D01*
X71501898Y-61445226D01*
X71690256Y-61367205D01*
X71859774Y-61253937D01*
X72003937Y-61109774D01*
X72117205Y-60940256D01*
X72195226Y-60751898D01*
X72235000Y-60551939D01*
X72235000Y-60348061D01*
X72195226Y-60148102D01*
X72117205Y-59959744D01*
X72003937Y-59790226D01*
X71859774Y-59646063D01*
X71690256Y-59532795D01*
X71501898Y-59454774D01*
X71301939Y-59415000D01*
X71098061Y-59415000D01*
X70898102Y-59454774D01*
X70709744Y-59532795D01*
X70540226Y-59646063D01*
X70396063Y-59790226D01*
X70282795Y-59959744D01*
X70204774Y-60148102D01*
X70165000Y-60348061D01*
X32878580Y-60348061D01*
X32917205Y-60290256D01*
X32995226Y-60101898D01*
X33035000Y-59901939D01*
X33035000Y-59698061D01*
X32995226Y-59498102D01*
X32917205Y-59309744D01*
X32860581Y-59225000D01*
X32917205Y-59140256D01*
X32995226Y-58951898D01*
X33010907Y-58873061D01*
X64365000Y-58873061D01*
X64365000Y-59076939D01*
X64404774Y-59276898D01*
X64482795Y-59465256D01*
X64596063Y-59634774D01*
X64740226Y-59778937D01*
X64909744Y-59892205D01*
X65098102Y-59970226D01*
X65298061Y-60010000D01*
X65501939Y-60010000D01*
X65701898Y-59970226D01*
X65890256Y-59892205D01*
X66059774Y-59778937D01*
X66203937Y-59634774D01*
X66317205Y-59465256D01*
X66395226Y-59276898D01*
X66435000Y-59076939D01*
X66435000Y-58873061D01*
X66395226Y-58673102D01*
X66333077Y-58523061D01*
X75115000Y-58523061D01*
X75115000Y-58726939D01*
X75154774Y-58926898D01*
X75232795Y-59115256D01*
X75346063Y-59284774D01*
X75490226Y-59428937D01*
X75659744Y-59542205D01*
X75848102Y-59620226D01*
X76048061Y-59660000D01*
X76190000Y-59660000D01*
X76190000Y-59776939D01*
X76229774Y-59976898D01*
X76307795Y-60165256D01*
X76421063Y-60334774D01*
X76565226Y-60478937D01*
X76734744Y-60592205D01*
X76923102Y-60670226D01*
X77123061Y-60710000D01*
X77326939Y-60710000D01*
X77526898Y-60670226D01*
X77715256Y-60592205D01*
X77884774Y-60478937D01*
X78028937Y-60334774D01*
X78142205Y-60165256D01*
X78220226Y-59976898D01*
X78260000Y-59776939D01*
X78260000Y-59573061D01*
X78220226Y-59373102D01*
X78142205Y-59184744D01*
X78028937Y-59015226D01*
X77884774Y-58871063D01*
X77715256Y-58757795D01*
X77526898Y-58679774D01*
X77326939Y-58640000D01*
X77185000Y-58640000D01*
X77185000Y-58523061D01*
X77170082Y-58448061D01*
X81565000Y-58448061D01*
X81565000Y-58651939D01*
X81604774Y-58851898D01*
X81682795Y-59040256D01*
X81796063Y-59209774D01*
X81940226Y-59353937D01*
X82109744Y-59467205D01*
X82298102Y-59545226D01*
X82498061Y-59585000D01*
X82701939Y-59585000D01*
X82901898Y-59545226D01*
X83090256Y-59467205D01*
X83191889Y-59399296D01*
X83309744Y-59478044D01*
X83498102Y-59556065D01*
X83698061Y-59595839D01*
X83901939Y-59595839D01*
X84101898Y-59556065D01*
X84290256Y-59478044D01*
X84459774Y-59364776D01*
X84603937Y-59220613D01*
X84717205Y-59051095D01*
X84795226Y-58862737D01*
X84835000Y-58662778D01*
X84835000Y-58458900D01*
X84795226Y-58258941D01*
X84717205Y-58070583D01*
X84603937Y-57901065D01*
X84459774Y-57756902D01*
X84290256Y-57643634D01*
X84101898Y-57565613D01*
X83901939Y-57525839D01*
X83698061Y-57525839D01*
X83498102Y-57565613D01*
X83309744Y-57643634D01*
X83208111Y-57711543D01*
X83090256Y-57632795D01*
X82901898Y-57554774D01*
X82701939Y-57515000D01*
X82498061Y-57515000D01*
X82298102Y-57554774D01*
X82109744Y-57632795D01*
X81940226Y-57746063D01*
X81796063Y-57890226D01*
X81682795Y-58059744D01*
X81604774Y-58248102D01*
X81565000Y-58448061D01*
X77170082Y-58448061D01*
X77145226Y-58323102D01*
X77067205Y-58134744D01*
X76953937Y-57965226D01*
X76809774Y-57821063D01*
X76640256Y-57707795D01*
X76451898Y-57629774D01*
X76251939Y-57590000D01*
X76048061Y-57590000D01*
X75848102Y-57629774D01*
X75659744Y-57707795D01*
X75490226Y-57821063D01*
X75346063Y-57965226D01*
X75232795Y-58134744D01*
X75154774Y-58323102D01*
X75115000Y-58523061D01*
X66333077Y-58523061D01*
X66317205Y-58484744D01*
X66203937Y-58315226D01*
X66059774Y-58171063D01*
X65890256Y-58057795D01*
X65701898Y-57979774D01*
X65501939Y-57940000D01*
X65298061Y-57940000D01*
X65098102Y-57979774D01*
X64909744Y-58057795D01*
X64740226Y-58171063D01*
X64596063Y-58315226D01*
X64482795Y-58484744D01*
X64404774Y-58673102D01*
X64365000Y-58873061D01*
X33010907Y-58873061D01*
X33035000Y-58751939D01*
X33035000Y-58548061D01*
X32995226Y-58348102D01*
X32917205Y-58159744D01*
X32803937Y-57990226D01*
X32659774Y-57846063D01*
X32490256Y-57732795D01*
X32301898Y-57654774D01*
X32101939Y-57615000D01*
X31898061Y-57615000D01*
X31698102Y-57654774D01*
X31509744Y-57732795D01*
X31340226Y-57846063D01*
X31196063Y-57990226D01*
X31082795Y-58159744D01*
X31004774Y-58348102D01*
X30965000Y-58548061D01*
X20660000Y-58548061D01*
X20660000Y-53388212D01*
X29365000Y-53388212D01*
X29365000Y-53611788D01*
X29408617Y-53831067D01*
X29494176Y-54037624D01*
X29552559Y-54125000D01*
X29494176Y-54212376D01*
X29408617Y-54418933D01*
X29365000Y-54638212D01*
X29365000Y-54861788D01*
X29408617Y-55081067D01*
X29494176Y-55287624D01*
X29618388Y-55473520D01*
X29776480Y-55631612D01*
X29962376Y-55755824D01*
X30168933Y-55841383D01*
X30388212Y-55885000D01*
X30611788Y-55885000D01*
X30831067Y-55841383D01*
X31037624Y-55755824D01*
X31223520Y-55631612D01*
X31381612Y-55473520D01*
X31505824Y-55287624D01*
X31591383Y-55081067D01*
X31635000Y-54861788D01*
X31635000Y-54638212D01*
X31591383Y-54418933D01*
X31505824Y-54212376D01*
X31447441Y-54125000D01*
X31505824Y-54037624D01*
X31591383Y-53831067D01*
X31635000Y-53611788D01*
X31635000Y-53388212D01*
X31591383Y-53168933D01*
X31577327Y-53135000D01*
X31611788Y-53135000D01*
X31831067Y-53091383D01*
X32037624Y-53005824D01*
X32223520Y-52881612D01*
X32250000Y-52855132D01*
X32276480Y-52881612D01*
X32462376Y-53005824D01*
X32668933Y-53091383D01*
X32888212Y-53135000D01*
X33111788Y-53135000D01*
X33331067Y-53091383D01*
X33463453Y-53036547D01*
X33408617Y-53168933D01*
X33365000Y-53388212D01*
X33365000Y-53611788D01*
X33408617Y-53831067D01*
X33494176Y-54037624D01*
X33552559Y-54125000D01*
X33494176Y-54212376D01*
X33408617Y-54418933D01*
X33365000Y-54638212D01*
X33365000Y-54861788D01*
X33408617Y-55081067D01*
X33494176Y-55287624D01*
X33618388Y-55473520D01*
X33776480Y-55631612D01*
X33939211Y-55740346D01*
X33811788Y-55715000D01*
X33588212Y-55715000D01*
X33368933Y-55758617D01*
X33162376Y-55844176D01*
X32976480Y-55968388D01*
X32818388Y-56126480D01*
X32694176Y-56312376D01*
X32608617Y-56518933D01*
X32565000Y-56738212D01*
X32565000Y-56961788D01*
X32608617Y-57181067D01*
X32694176Y-57387624D01*
X32818388Y-57573520D01*
X32976480Y-57731612D01*
X33162376Y-57855824D01*
X33368933Y-57941383D01*
X33588212Y-57985000D01*
X33811788Y-57985000D01*
X34031067Y-57941383D01*
X34237624Y-57855824D01*
X34423520Y-57731612D01*
X34557071Y-57598061D01*
X38145000Y-57598061D01*
X38145000Y-57801939D01*
X38184774Y-58001898D01*
X38262795Y-58190256D01*
X38376063Y-58359774D01*
X38520226Y-58503937D01*
X38689744Y-58617205D01*
X38878102Y-58695226D01*
X39078061Y-58735000D01*
X39281939Y-58735000D01*
X39481898Y-58695226D01*
X39670256Y-58617205D01*
X39839774Y-58503937D01*
X39983937Y-58359774D01*
X40097205Y-58190256D01*
X40175226Y-58001898D01*
X40215000Y-57801939D01*
X40215000Y-57598061D01*
X45215000Y-57598061D01*
X45215000Y-57801939D01*
X45254774Y-58001898D01*
X45332795Y-58190256D01*
X45446063Y-58359774D01*
X45590226Y-58503937D01*
X45759744Y-58617205D01*
X45948102Y-58695226D01*
X46148061Y-58735000D01*
X46351939Y-58735000D01*
X46551898Y-58695226D01*
X46740256Y-58617205D01*
X46909774Y-58503937D01*
X47053937Y-58359774D01*
X47167205Y-58190256D01*
X47245226Y-58001898D01*
X47285000Y-57801939D01*
X47285000Y-57598061D01*
X47245226Y-57398102D01*
X47234854Y-57373061D01*
X60015000Y-57373061D01*
X60015000Y-57576939D01*
X60054774Y-57776898D01*
X60132795Y-57965256D01*
X60246063Y-58134774D01*
X60390226Y-58278937D01*
X60559744Y-58392205D01*
X60748102Y-58470226D01*
X60948061Y-58510000D01*
X61151939Y-58510000D01*
X61351898Y-58470226D01*
X61540256Y-58392205D01*
X61709774Y-58278937D01*
X61853937Y-58134774D01*
X61967205Y-57965256D01*
X62045226Y-57776898D01*
X62085000Y-57576939D01*
X62085000Y-57373061D01*
X62045226Y-57173102D01*
X61967205Y-56984744D01*
X61909286Y-56898061D01*
X65465000Y-56898061D01*
X65465000Y-57101939D01*
X65504774Y-57301898D01*
X65582795Y-57490256D01*
X65696063Y-57659774D01*
X65840226Y-57803937D01*
X66009744Y-57917205D01*
X66198102Y-57995226D01*
X66398061Y-58035000D01*
X66601939Y-58035000D01*
X66801898Y-57995226D01*
X66990256Y-57917205D01*
X67159774Y-57803937D01*
X67303937Y-57659774D01*
X67417205Y-57490256D01*
X67495226Y-57301898D01*
X67505934Y-57248061D01*
X67515000Y-57248061D01*
X67515000Y-57451939D01*
X67554774Y-57651898D01*
X67632795Y-57840256D01*
X67746063Y-58009774D01*
X67890226Y-58153937D01*
X68059744Y-58267205D01*
X68248102Y-58345226D01*
X68448061Y-58385000D01*
X68651939Y-58385000D01*
X68851898Y-58345226D01*
X69040256Y-58267205D01*
X69209774Y-58153937D01*
X69353937Y-58009774D01*
X69467205Y-57840256D01*
X69545226Y-57651898D01*
X69585000Y-57451939D01*
X69585000Y-57248061D01*
X69545226Y-57048102D01*
X69467205Y-56859744D01*
X69459399Y-56848061D01*
X87315000Y-56848061D01*
X87315000Y-57051939D01*
X87354774Y-57251898D01*
X87432795Y-57440256D01*
X87546063Y-57609774D01*
X87690226Y-57753937D01*
X87859744Y-57867205D01*
X88048102Y-57945226D01*
X88248061Y-57985000D01*
X88451939Y-57985000D01*
X88651898Y-57945226D01*
X88840256Y-57867205D01*
X89009774Y-57753937D01*
X89153937Y-57609774D01*
X89267205Y-57440256D01*
X89345226Y-57251898D01*
X89385000Y-57051939D01*
X89385000Y-56848061D01*
X89359776Y-56721252D01*
X89490256Y-56667205D01*
X89659774Y-56553937D01*
X89803937Y-56409774D01*
X89917205Y-56240256D01*
X89995226Y-56051898D01*
X90035000Y-55851939D01*
X90035000Y-55648061D01*
X89995226Y-55448102D01*
X89917205Y-55259744D01*
X89803937Y-55090226D01*
X89659774Y-54946063D01*
X89490256Y-54832795D01*
X89301898Y-54754774D01*
X89101939Y-54715000D01*
X88898061Y-54715000D01*
X88698102Y-54754774D01*
X88509744Y-54832795D01*
X88340226Y-54946063D01*
X88196063Y-55090226D01*
X88082795Y-55259744D01*
X88004774Y-55448102D01*
X87965000Y-55648061D01*
X87965000Y-55851939D01*
X87990224Y-55978748D01*
X87859744Y-56032795D01*
X87690226Y-56146063D01*
X87546063Y-56290226D01*
X87432795Y-56459744D01*
X87354774Y-56648102D01*
X87315000Y-56848061D01*
X69459399Y-56848061D01*
X69353937Y-56690226D01*
X69209774Y-56546063D01*
X69040256Y-56432795D01*
X68851898Y-56354774D01*
X68651939Y-56315000D01*
X68448061Y-56315000D01*
X68248102Y-56354774D01*
X68059744Y-56432795D01*
X67890226Y-56546063D01*
X67746063Y-56690226D01*
X67632795Y-56859744D01*
X67554774Y-57048102D01*
X67515000Y-57248061D01*
X67505934Y-57248061D01*
X67535000Y-57101939D01*
X67535000Y-56898061D01*
X67495226Y-56698102D01*
X67417205Y-56509744D01*
X67303937Y-56340226D01*
X67159774Y-56196063D01*
X66990256Y-56082795D01*
X66801898Y-56004774D01*
X66601939Y-55965000D01*
X66398061Y-55965000D01*
X66198102Y-56004774D01*
X66009744Y-56082795D01*
X65840226Y-56196063D01*
X65696063Y-56340226D01*
X65582795Y-56509744D01*
X65504774Y-56698102D01*
X65465000Y-56898061D01*
X61909286Y-56898061D01*
X61853937Y-56815226D01*
X61709774Y-56671063D01*
X61540256Y-56557795D01*
X61351898Y-56479774D01*
X61151939Y-56440000D01*
X60948061Y-56440000D01*
X60748102Y-56479774D01*
X60559744Y-56557795D01*
X60390226Y-56671063D01*
X60246063Y-56815226D01*
X60132795Y-56984744D01*
X60054774Y-57173102D01*
X60015000Y-57373061D01*
X47234854Y-57373061D01*
X47167205Y-57209744D01*
X47053937Y-57040226D01*
X46909774Y-56896063D01*
X46740256Y-56782795D01*
X46551898Y-56704774D01*
X46351939Y-56665000D01*
X46148061Y-56665000D01*
X45948102Y-56704774D01*
X45759744Y-56782795D01*
X45590226Y-56896063D01*
X45446063Y-57040226D01*
X45332795Y-57209744D01*
X45254774Y-57398102D01*
X45215000Y-57598061D01*
X40215000Y-57598061D01*
X40175226Y-57398102D01*
X40097205Y-57209744D01*
X39983937Y-57040226D01*
X39839774Y-56896063D01*
X39670256Y-56782795D01*
X39481898Y-56704774D01*
X39281939Y-56665000D01*
X39078061Y-56665000D01*
X38878102Y-56704774D01*
X38689744Y-56782795D01*
X38520226Y-56896063D01*
X38376063Y-57040226D01*
X38262795Y-57209744D01*
X38184774Y-57398102D01*
X38145000Y-57598061D01*
X34557071Y-57598061D01*
X34581612Y-57573520D01*
X34705824Y-57387624D01*
X34791383Y-57181067D01*
X34835000Y-56961788D01*
X34835000Y-56738212D01*
X34791383Y-56518933D01*
X34705824Y-56312376D01*
X34581612Y-56126480D01*
X34423520Y-55968388D01*
X34260789Y-55859654D01*
X34388212Y-55885000D01*
X34611788Y-55885000D01*
X34831067Y-55841383D01*
X35037624Y-55755824D01*
X35198902Y-55648061D01*
X72715000Y-55648061D01*
X72715000Y-55851939D01*
X72754774Y-56051898D01*
X72832795Y-56240256D01*
X72946063Y-56409774D01*
X73090226Y-56553937D01*
X73259744Y-56667205D01*
X73448102Y-56745226D01*
X73648061Y-56785000D01*
X73851939Y-56785000D01*
X74051898Y-56745226D01*
X74240256Y-56667205D01*
X74409774Y-56553937D01*
X74553937Y-56409774D01*
X74667205Y-56240256D01*
X74745226Y-56051898D01*
X74785000Y-55851939D01*
X74785000Y-55648061D01*
X74745226Y-55448102D01*
X74667205Y-55259744D01*
X74553937Y-55090226D01*
X74409774Y-54946063D01*
X74240256Y-54832795D01*
X74051898Y-54754774D01*
X73851939Y-54715000D01*
X73648061Y-54715000D01*
X73448102Y-54754774D01*
X73259744Y-54832795D01*
X73090226Y-54946063D01*
X72946063Y-55090226D01*
X72832795Y-55259744D01*
X72754774Y-55448102D01*
X72715000Y-55648061D01*
X35198902Y-55648061D01*
X35223520Y-55631612D01*
X35381612Y-55473520D01*
X35505824Y-55287624D01*
X35591383Y-55081067D01*
X35635000Y-54861788D01*
X35635000Y-54638212D01*
X35591383Y-54418933D01*
X35505824Y-54212376D01*
X35447441Y-54125000D01*
X35505824Y-54037624D01*
X35591383Y-53831067D01*
X35633752Y-53618061D01*
X66315000Y-53618061D01*
X66315000Y-53821939D01*
X66354774Y-54021898D01*
X66432795Y-54210256D01*
X66546063Y-54379774D01*
X66690226Y-54523937D01*
X66859744Y-54637205D01*
X67048102Y-54715226D01*
X67248061Y-54755000D01*
X67451939Y-54755000D01*
X67651898Y-54715226D01*
X67835000Y-54639382D01*
X68018102Y-54715226D01*
X68218061Y-54755000D01*
X68421939Y-54755000D01*
X68621898Y-54715226D01*
X68810256Y-54637205D01*
X68979774Y-54523937D01*
X69123937Y-54379774D01*
X69237205Y-54210256D01*
X69315226Y-54021898D01*
X69355000Y-53821939D01*
X69355000Y-53618061D01*
X69315226Y-53418102D01*
X69237205Y-53229744D01*
X69123937Y-53060226D01*
X69061772Y-52998061D01*
X70365000Y-52998061D01*
X70365000Y-53201939D01*
X70404774Y-53401898D01*
X70482795Y-53590256D01*
X70596063Y-53759774D01*
X70740226Y-53903937D01*
X70909744Y-54017205D01*
X71098102Y-54095226D01*
X71298061Y-54135000D01*
X71501939Y-54135000D01*
X71701898Y-54095226D01*
X71890256Y-54017205D01*
X71925000Y-53993990D01*
X71959744Y-54017205D01*
X72148102Y-54095226D01*
X72348061Y-54135000D01*
X72551939Y-54135000D01*
X72751898Y-54095226D01*
X72940256Y-54017205D01*
X73109774Y-53903937D01*
X73253937Y-53759774D01*
X73361989Y-53598061D01*
X75165000Y-53598061D01*
X75165000Y-53801939D01*
X75204774Y-54001898D01*
X75282795Y-54190256D01*
X75396063Y-54359774D01*
X75540226Y-54503937D01*
X75709744Y-54617205D01*
X75898102Y-54695226D01*
X76098061Y-54735000D01*
X76301939Y-54735000D01*
X76501898Y-54695226D01*
X76690256Y-54617205D01*
X76859774Y-54503937D01*
X77003937Y-54359774D01*
X77117205Y-54190256D01*
X77195226Y-54001898D01*
X77235000Y-53801939D01*
X77235000Y-53598061D01*
X77195226Y-53398102D01*
X77117205Y-53209744D01*
X77003937Y-53040226D01*
X76859774Y-52896063D01*
X76690256Y-52782795D01*
X76501898Y-52704774D01*
X76301939Y-52665000D01*
X76098061Y-52665000D01*
X75898102Y-52704774D01*
X75709744Y-52782795D01*
X75540226Y-52896063D01*
X75396063Y-53040226D01*
X75282795Y-53209744D01*
X75204774Y-53398102D01*
X75165000Y-53598061D01*
X73361989Y-53598061D01*
X73367205Y-53590256D01*
X73445226Y-53401898D01*
X73485000Y-53201939D01*
X73485000Y-52998061D01*
X73445226Y-52798102D01*
X73367205Y-52609744D01*
X73253937Y-52440226D01*
X73109774Y-52296063D01*
X72940256Y-52182795D01*
X72751898Y-52104774D01*
X72551939Y-52065000D01*
X72348061Y-52065000D01*
X72148102Y-52104774D01*
X71959744Y-52182795D01*
X71925000Y-52206010D01*
X71890256Y-52182795D01*
X71701898Y-52104774D01*
X71501939Y-52065000D01*
X71298061Y-52065000D01*
X71098102Y-52104774D01*
X70909744Y-52182795D01*
X70740226Y-52296063D01*
X70596063Y-52440226D01*
X70482795Y-52609744D01*
X70404774Y-52798102D01*
X70365000Y-52998061D01*
X69061772Y-52998061D01*
X68979774Y-52916063D01*
X68810256Y-52802795D01*
X68621898Y-52724774D01*
X68421939Y-52685000D01*
X68218061Y-52685000D01*
X68018102Y-52724774D01*
X67835000Y-52800618D01*
X67651898Y-52724774D01*
X67451939Y-52685000D01*
X67248061Y-52685000D01*
X67048102Y-52724774D01*
X66859744Y-52802795D01*
X66690226Y-52916063D01*
X66546063Y-53060226D01*
X66432795Y-53229744D01*
X66354774Y-53418102D01*
X66315000Y-53618061D01*
X35633752Y-53618061D01*
X35635000Y-53611788D01*
X35635000Y-53388212D01*
X35591383Y-53168933D01*
X35505824Y-52962376D01*
X35447441Y-52875000D01*
X35505824Y-52787624D01*
X35591383Y-52581067D01*
X35635000Y-52361788D01*
X35635000Y-52138212D01*
X35591383Y-51918933D01*
X35505824Y-51712376D01*
X35496260Y-51698061D01*
X41615000Y-51698061D01*
X41615000Y-51901939D01*
X41654774Y-52101898D01*
X41732795Y-52290256D01*
X41846063Y-52459774D01*
X41990226Y-52603937D01*
X42159744Y-52717205D01*
X42348102Y-52795226D01*
X42548061Y-52835000D01*
X42751939Y-52835000D01*
X42951898Y-52795226D01*
X43140256Y-52717205D01*
X43175000Y-52693990D01*
X43209744Y-52717205D01*
X43398102Y-52795226D01*
X43598061Y-52835000D01*
X43801939Y-52835000D01*
X44001898Y-52795226D01*
X44190256Y-52717205D01*
X44359774Y-52603937D01*
X44503937Y-52459774D01*
X44617205Y-52290256D01*
X44695226Y-52101898D01*
X44735000Y-51901939D01*
X44735000Y-51698061D01*
X44695226Y-51498102D01*
X44617205Y-51309744D01*
X44503937Y-51140226D01*
X44359774Y-50996063D01*
X44190256Y-50882795D01*
X44001898Y-50804774D01*
X43801939Y-50765000D01*
X43598061Y-50765000D01*
X43398102Y-50804774D01*
X43209744Y-50882795D01*
X43175000Y-50906010D01*
X43140256Y-50882795D01*
X42951898Y-50804774D01*
X42751939Y-50765000D01*
X42548061Y-50765000D01*
X42348102Y-50804774D01*
X42159744Y-50882795D01*
X41990226Y-50996063D01*
X41846063Y-51140226D01*
X41732795Y-51309744D01*
X41654774Y-51498102D01*
X41615000Y-51698061D01*
X35496260Y-51698061D01*
X35381612Y-51526480D01*
X35223520Y-51368388D01*
X35037624Y-51244176D01*
X34831067Y-51158617D01*
X34611788Y-51115000D01*
X34388212Y-51115000D01*
X34168933Y-51158617D01*
X33962376Y-51244176D01*
X33891618Y-51291455D01*
X33881612Y-51276480D01*
X33723520Y-51118388D01*
X33537624Y-50994176D01*
X33331067Y-50908617D01*
X33111788Y-50865000D01*
X32888212Y-50865000D01*
X32668933Y-50908617D01*
X32462376Y-50994176D01*
X32276480Y-51118388D01*
X32250000Y-51144868D01*
X32223520Y-51118388D01*
X32037624Y-50994176D01*
X31831067Y-50908617D01*
X31611788Y-50865000D01*
X31388212Y-50865000D01*
X31168933Y-50908617D01*
X30962376Y-50994176D01*
X30776480Y-51118388D01*
X30618388Y-51276480D01*
X30494176Y-51462376D01*
X30408617Y-51668933D01*
X30365000Y-51888212D01*
X30365000Y-52111788D01*
X30408617Y-52331067D01*
X30422673Y-52365000D01*
X30388212Y-52365000D01*
X30168933Y-52408617D01*
X29962376Y-52494176D01*
X29776480Y-52618388D01*
X29618388Y-52776480D01*
X29494176Y-52962376D01*
X29408617Y-53168933D01*
X29365000Y-53388212D01*
X20660000Y-53388212D01*
X20660000Y-48723061D01*
X22765000Y-48723061D01*
X22765000Y-48926939D01*
X22804774Y-49126898D01*
X22882795Y-49315256D01*
X22996063Y-49484774D01*
X23140226Y-49628937D01*
X23309744Y-49742205D01*
X23498102Y-49820226D01*
X23698061Y-49860000D01*
X23901939Y-49860000D01*
X24101898Y-49820226D01*
X24290256Y-49742205D01*
X24459774Y-49628937D01*
X24603937Y-49484774D01*
X24717205Y-49315256D01*
X24745038Y-49248061D01*
X55215000Y-49248061D01*
X55215000Y-49451939D01*
X55254774Y-49651898D01*
X55332795Y-49840256D01*
X55446063Y-50009774D01*
X55590226Y-50153937D01*
X55759744Y-50267205D01*
X55948102Y-50345226D01*
X56148061Y-50385000D01*
X56351939Y-50385000D01*
X56551898Y-50345226D01*
X56740256Y-50267205D01*
X56909774Y-50153937D01*
X57053937Y-50009774D01*
X57167205Y-49840256D01*
X57226104Y-49698061D01*
X57865000Y-49698061D01*
X57865000Y-49901939D01*
X57904774Y-50101898D01*
X57982795Y-50290256D01*
X58096063Y-50459774D01*
X58240226Y-50603937D01*
X58409744Y-50717205D01*
X58598102Y-50795226D01*
X58798061Y-50835000D01*
X59001939Y-50835000D01*
X59201898Y-50795226D01*
X59390256Y-50717205D01*
X59559774Y-50603937D01*
X59703937Y-50459774D01*
X59817205Y-50290256D01*
X59895226Y-50101898D01*
X59923451Y-49960000D01*
X59926939Y-49960000D01*
X60126898Y-49920226D01*
X60180408Y-49898061D01*
X82405000Y-49898061D01*
X82405000Y-50101939D01*
X82444774Y-50301898D01*
X82522795Y-50490256D01*
X82636063Y-50659774D01*
X82780226Y-50803937D01*
X82949744Y-50917205D01*
X83138102Y-50995226D01*
X83338061Y-51035000D01*
X83541939Y-51035000D01*
X83741898Y-50995226D01*
X83895000Y-50931809D01*
X84048102Y-50995226D01*
X84248061Y-51035000D01*
X84451939Y-51035000D01*
X84651898Y-50995226D01*
X84840256Y-50917205D01*
X85009774Y-50803937D01*
X85153937Y-50659774D01*
X85267205Y-50490256D01*
X85345226Y-50301898D01*
X85385000Y-50101939D01*
X85385000Y-49898061D01*
X85345226Y-49698102D01*
X85267205Y-49509744D01*
X85153937Y-49340226D01*
X85009774Y-49196063D01*
X84840256Y-49082795D01*
X84651898Y-49004774D01*
X84451939Y-48965000D01*
X84248061Y-48965000D01*
X84048102Y-49004774D01*
X83895000Y-49068191D01*
X83741898Y-49004774D01*
X83541939Y-48965000D01*
X83338061Y-48965000D01*
X83138102Y-49004774D01*
X82949744Y-49082795D01*
X82780226Y-49196063D01*
X82636063Y-49340226D01*
X82522795Y-49509744D01*
X82444774Y-49698102D01*
X82405000Y-49898061D01*
X60180408Y-49898061D01*
X60315256Y-49842205D01*
X60484774Y-49728937D01*
X60628937Y-49584774D01*
X60742205Y-49415256D01*
X60820226Y-49226898D01*
X60860000Y-49026939D01*
X60860000Y-48823061D01*
X60852411Y-48784906D01*
X61051898Y-48745226D01*
X61240256Y-48667205D01*
X61250000Y-48660694D01*
X61259744Y-48667205D01*
X61448102Y-48745226D01*
X61648061Y-48785000D01*
X61851939Y-48785000D01*
X62051898Y-48745226D01*
X62240256Y-48667205D01*
X62409774Y-48553937D01*
X62553937Y-48409774D01*
X62667205Y-48240256D01*
X62745226Y-48051898D01*
X62785000Y-47851939D01*
X62785000Y-47648061D01*
X62745226Y-47448102D01*
X62667205Y-47259744D01*
X62553937Y-47090226D01*
X62409774Y-46946063D01*
X62337934Y-46898061D01*
X67365000Y-46898061D01*
X67365000Y-47101939D01*
X67404774Y-47301898D01*
X67482795Y-47490256D01*
X67596063Y-47659774D01*
X67740226Y-47803937D01*
X67909744Y-47917205D01*
X68098102Y-47995226D01*
X68298061Y-48035000D01*
X68501939Y-48035000D01*
X68701898Y-47995226D01*
X68890256Y-47917205D01*
X69059774Y-47803937D01*
X69203937Y-47659774D01*
X69245172Y-47598061D01*
X70265000Y-47598061D01*
X70265000Y-47801939D01*
X70304774Y-48001898D01*
X70382795Y-48190256D01*
X70496063Y-48359774D01*
X70640226Y-48503937D01*
X70809744Y-48617205D01*
X70998102Y-48695226D01*
X71198061Y-48735000D01*
X71401939Y-48735000D01*
X71601898Y-48695226D01*
X71790256Y-48617205D01*
X71959774Y-48503937D01*
X72103937Y-48359774D01*
X72217205Y-48190256D01*
X72295226Y-48001898D01*
X72315880Y-47898061D01*
X74215000Y-47898061D01*
X74215000Y-48101939D01*
X74254774Y-48301898D01*
X74332795Y-48490256D01*
X74446063Y-48659774D01*
X74590226Y-48803937D01*
X74759744Y-48917205D01*
X74948102Y-48995226D01*
X75148061Y-49035000D01*
X75351939Y-49035000D01*
X75551898Y-48995226D01*
X75740256Y-48917205D01*
X75909774Y-48803937D01*
X76053937Y-48659774D01*
X76167205Y-48490256D01*
X76245226Y-48301898D01*
X76268945Y-48182656D01*
X76390226Y-48303937D01*
X76559744Y-48417205D01*
X76741138Y-48492341D01*
X76740000Y-48498061D01*
X76740000Y-48701939D01*
X76779774Y-48901898D01*
X76857795Y-49090256D01*
X76971063Y-49259774D01*
X77115226Y-49403937D01*
X77284744Y-49517205D01*
X77473102Y-49595226D01*
X77673061Y-49635000D01*
X77876939Y-49635000D01*
X78076898Y-49595226D01*
X78265256Y-49517205D01*
X78434774Y-49403937D01*
X78578937Y-49259774D01*
X78692205Y-49090256D01*
X78770226Y-48901898D01*
X78810000Y-48701939D01*
X78810000Y-48504738D01*
X78840256Y-48492205D01*
X79009774Y-48378937D01*
X79153937Y-48234774D01*
X79267205Y-48065256D01*
X79345226Y-47876898D01*
X79385000Y-47676939D01*
X79385000Y-47473061D01*
X79345226Y-47273102D01*
X79267205Y-47084744D01*
X79153937Y-46915226D01*
X79009774Y-46771063D01*
X78840256Y-46657795D01*
X78651898Y-46579774D01*
X78451939Y-46540000D01*
X78248061Y-46540000D01*
X78048102Y-46579774D01*
X77859744Y-46657795D01*
X77746903Y-46733192D01*
X77709774Y-46696063D01*
X77540256Y-46582795D01*
X77351898Y-46504774D01*
X77231575Y-46480840D01*
X77195226Y-46298102D01*
X77117205Y-46109744D01*
X77003937Y-45940226D01*
X76859774Y-45796063D01*
X76690256Y-45682795D01*
X76501898Y-45604774D01*
X76301939Y-45565000D01*
X76098061Y-45565000D01*
X75898102Y-45604774D01*
X75709744Y-45682795D01*
X75540226Y-45796063D01*
X75396063Y-45940226D01*
X75282795Y-46109744D01*
X75204774Y-46298102D01*
X75165000Y-46498061D01*
X75165000Y-46701939D01*
X75204774Y-46901898D01*
X75230912Y-46965000D01*
X75148061Y-46965000D01*
X74948102Y-47004774D01*
X74759744Y-47082795D01*
X74590226Y-47196063D01*
X74446063Y-47340226D01*
X74332795Y-47509744D01*
X74254774Y-47698102D01*
X74215000Y-47898061D01*
X72315880Y-47898061D01*
X72335000Y-47801939D01*
X72335000Y-47598061D01*
X72295226Y-47398102D01*
X72217205Y-47209744D01*
X72103937Y-47040226D01*
X71959774Y-46896063D01*
X71790256Y-46782795D01*
X71601898Y-46704774D01*
X71401939Y-46665000D01*
X71198061Y-46665000D01*
X70998102Y-46704774D01*
X70809744Y-46782795D01*
X70640226Y-46896063D01*
X70496063Y-47040226D01*
X70382795Y-47209744D01*
X70304774Y-47398102D01*
X70265000Y-47598061D01*
X69245172Y-47598061D01*
X69317205Y-47490256D01*
X69395226Y-47301898D01*
X69435000Y-47101939D01*
X69435000Y-46898061D01*
X69395226Y-46698102D01*
X69317205Y-46509744D01*
X69203937Y-46340226D01*
X69059774Y-46196063D01*
X68890256Y-46082795D01*
X68701898Y-46004774D01*
X68501939Y-45965000D01*
X68298061Y-45965000D01*
X68098102Y-46004774D01*
X67909744Y-46082795D01*
X67740226Y-46196063D01*
X67596063Y-46340226D01*
X67482795Y-46509744D01*
X67404774Y-46698102D01*
X67365000Y-46898061D01*
X62337934Y-46898061D01*
X62240256Y-46832795D01*
X62051898Y-46754774D01*
X61851939Y-46715000D01*
X61648061Y-46715000D01*
X61448102Y-46754774D01*
X61259744Y-46832795D01*
X61250000Y-46839306D01*
X61240256Y-46832795D01*
X61051898Y-46754774D01*
X60851939Y-46715000D01*
X60648061Y-46715000D01*
X60448102Y-46754774D01*
X60259744Y-46832795D01*
X60090226Y-46946063D01*
X59946063Y-47090226D01*
X59832795Y-47259744D01*
X59754774Y-47448102D01*
X59715000Y-47648061D01*
X59715000Y-47851939D01*
X59722589Y-47890094D01*
X59523102Y-47929774D01*
X59334744Y-48007795D01*
X59165226Y-48121063D01*
X59021063Y-48265226D01*
X58907795Y-48434744D01*
X58829774Y-48623102D01*
X58801549Y-48765000D01*
X58798061Y-48765000D01*
X58598102Y-48804774D01*
X58409744Y-48882795D01*
X58240226Y-48996063D01*
X58096063Y-49140226D01*
X57982795Y-49309744D01*
X57904774Y-49498102D01*
X57865000Y-49698061D01*
X57226104Y-49698061D01*
X57245226Y-49651898D01*
X57285000Y-49451939D01*
X57285000Y-49248061D01*
X57245226Y-49048102D01*
X57167205Y-48859744D01*
X57053937Y-48690226D01*
X56909774Y-48546063D01*
X56740256Y-48432795D01*
X56551898Y-48354774D01*
X56351939Y-48315000D01*
X56148061Y-48315000D01*
X55948102Y-48354774D01*
X55759744Y-48432795D01*
X55590226Y-48546063D01*
X55446063Y-48690226D01*
X55332795Y-48859744D01*
X55254774Y-49048102D01*
X55215000Y-49248061D01*
X24745038Y-49248061D01*
X24795226Y-49126898D01*
X24835000Y-48926939D01*
X24835000Y-48723061D01*
X24795226Y-48523102D01*
X24717205Y-48334744D01*
X24603937Y-48165226D01*
X24459774Y-48021063D01*
X24290256Y-47907795D01*
X24101898Y-47829774D01*
X23901939Y-47790000D01*
X23698061Y-47790000D01*
X23498102Y-47829774D01*
X23309744Y-47907795D01*
X23140226Y-48021063D01*
X22996063Y-48165226D01*
X22882795Y-48334744D01*
X22804774Y-48523102D01*
X22765000Y-48723061D01*
X20660000Y-48723061D01*
X20660000Y-47498061D01*
X53065000Y-47498061D01*
X53065000Y-47701939D01*
X53104774Y-47901898D01*
X53182795Y-48090256D01*
X53296063Y-48259774D01*
X53440226Y-48403937D01*
X53609744Y-48517205D01*
X53798102Y-48595226D01*
X53998061Y-48635000D01*
X54201939Y-48635000D01*
X54401898Y-48595226D01*
X54590256Y-48517205D01*
X54759774Y-48403937D01*
X54903937Y-48259774D01*
X55017205Y-48090256D01*
X55095226Y-47901898D01*
X55135000Y-47701939D01*
X55135000Y-47498061D01*
X55095226Y-47298102D01*
X55017205Y-47109744D01*
X54903937Y-46940226D01*
X54759774Y-46796063D01*
X54590256Y-46682795D01*
X54401898Y-46604774D01*
X54201939Y-46565000D01*
X53998061Y-46565000D01*
X53798102Y-46604774D01*
X53609744Y-46682795D01*
X53440226Y-46796063D01*
X53296063Y-46940226D01*
X53182795Y-47109744D01*
X53104774Y-47298102D01*
X53065000Y-47498061D01*
X20660000Y-47498061D01*
X20660000Y-45098061D01*
X51165000Y-45098061D01*
X51165000Y-45301939D01*
X51204774Y-45501898D01*
X51282795Y-45690256D01*
X51396063Y-45859774D01*
X51540226Y-46003937D01*
X51709744Y-46117205D01*
X51898102Y-46195226D01*
X52098061Y-46235000D01*
X52301939Y-46235000D01*
X52501898Y-46195226D01*
X52690256Y-46117205D01*
X52859774Y-46003937D01*
X52990650Y-45873061D01*
X54415000Y-45873061D01*
X54415000Y-46076939D01*
X54454774Y-46276898D01*
X54532795Y-46465256D01*
X54646063Y-46634774D01*
X54790226Y-46778937D01*
X54959744Y-46892205D01*
X55148102Y-46970226D01*
X55348061Y-47010000D01*
X55551939Y-47010000D01*
X55751898Y-46970226D01*
X55940256Y-46892205D01*
X56109774Y-46778937D01*
X56253937Y-46634774D01*
X56367205Y-46465256D01*
X56445226Y-46276898D01*
X56485000Y-46076939D01*
X56485000Y-45873061D01*
X56445226Y-45673102D01*
X56367205Y-45484744D01*
X56253937Y-45315226D01*
X56109774Y-45171063D01*
X55940256Y-45057795D01*
X55751898Y-44979774D01*
X55551939Y-44940000D01*
X55348061Y-44940000D01*
X55148102Y-44979774D01*
X54959744Y-45057795D01*
X54790226Y-45171063D01*
X54646063Y-45315226D01*
X54532795Y-45484744D01*
X54454774Y-45673102D01*
X54415000Y-45873061D01*
X52990650Y-45873061D01*
X53003937Y-45859774D01*
X53117205Y-45690256D01*
X53195226Y-45501898D01*
X53235000Y-45301939D01*
X53235000Y-45098061D01*
X53195226Y-44898102D01*
X53117205Y-44709744D01*
X53003937Y-44540226D01*
X52859774Y-44396063D01*
X52690256Y-44282795D01*
X52501898Y-44204774D01*
X52301939Y-44165000D01*
X52098061Y-44165000D01*
X51898102Y-44204774D01*
X51709744Y-44282795D01*
X51540226Y-44396063D01*
X51396063Y-44540226D01*
X51282795Y-44709744D01*
X51204774Y-44898102D01*
X51165000Y-45098061D01*
X20660000Y-45098061D01*
X20660000Y-43348061D01*
X37515000Y-43348061D01*
X37515000Y-43551939D01*
X37554774Y-43751898D01*
X37632795Y-43940256D01*
X37746063Y-44109774D01*
X37890226Y-44253937D01*
X38059744Y-44367205D01*
X38248102Y-44445226D01*
X38448061Y-44485000D01*
X38651939Y-44485000D01*
X38851898Y-44445226D01*
X39040256Y-44367205D01*
X39209774Y-44253937D01*
X39353937Y-44109774D01*
X39467205Y-43940256D01*
X39499230Y-43862941D01*
X39640226Y-44003937D01*
X39809744Y-44117205D01*
X39998102Y-44195226D01*
X40198061Y-44235000D01*
X40401939Y-44235000D01*
X40601898Y-44195226D01*
X40790256Y-44117205D01*
X40959774Y-44003937D01*
X41103937Y-43859774D01*
X41217205Y-43690256D01*
X41295226Y-43501898D01*
X41335000Y-43301939D01*
X41335000Y-43098061D01*
X41295226Y-42898102D01*
X41217205Y-42709744D01*
X41103937Y-42540226D01*
X40959774Y-42396063D01*
X40790256Y-42282795D01*
X40601898Y-42204774D01*
X40401939Y-42165000D01*
X40198061Y-42165000D01*
X39998102Y-42204774D01*
X39809744Y-42282795D01*
X39640226Y-42396063D01*
X39496063Y-42540226D01*
X39382795Y-42709744D01*
X39350770Y-42787059D01*
X39209774Y-42646063D01*
X39040256Y-42532795D01*
X38851898Y-42454774D01*
X38651939Y-42415000D01*
X38448061Y-42415000D01*
X38248102Y-42454774D01*
X38059744Y-42532795D01*
X37890226Y-42646063D01*
X37746063Y-42790226D01*
X37632795Y-42959744D01*
X37554774Y-43148102D01*
X37515000Y-43348061D01*
X20660000Y-43348061D01*
X20660000Y-41798061D01*
X52165000Y-41798061D01*
X52165000Y-42001939D01*
X52204774Y-42201898D01*
X52282795Y-42390256D01*
X52396063Y-42559774D01*
X52540226Y-42703937D01*
X52709744Y-42817205D01*
X52898102Y-42895226D01*
X53098061Y-42935000D01*
X53301939Y-42935000D01*
X53501898Y-42895226D01*
X53690256Y-42817205D01*
X53859774Y-42703937D01*
X54003937Y-42559774D01*
X54117205Y-42390256D01*
X54195226Y-42201898D01*
X54235000Y-42001939D01*
X54235000Y-41798061D01*
X54195226Y-41598102D01*
X54117205Y-41409744D01*
X54003937Y-41240226D01*
X53859774Y-41096063D01*
X53690256Y-40982795D01*
X53501898Y-40904774D01*
X53301939Y-40865000D01*
X53098061Y-40865000D01*
X52898102Y-40904774D01*
X52709744Y-40982795D01*
X52540226Y-41096063D01*
X52396063Y-41240226D01*
X52282795Y-41409744D01*
X52204774Y-41598102D01*
X52165000Y-41798061D01*
X20660000Y-41798061D01*
X20660000Y-40523061D01*
X54540000Y-40523061D01*
X54540000Y-40726939D01*
X54579774Y-40926898D01*
X54657795Y-41115256D01*
X54771063Y-41284774D01*
X54915226Y-41428937D01*
X55084744Y-41542205D01*
X55273102Y-41620226D01*
X55473061Y-41660000D01*
X55676939Y-41660000D01*
X55876898Y-41620226D01*
X56065256Y-41542205D01*
X56234774Y-41428937D01*
X56378937Y-41284774D01*
X56492205Y-41115256D01*
X56570226Y-40926898D01*
X56610000Y-40726939D01*
X56610000Y-40523061D01*
X56570226Y-40323102D01*
X56492205Y-40134744D01*
X56378937Y-39965226D01*
X56298711Y-39885000D01*
X56451939Y-39885000D01*
X56651898Y-39845226D01*
X56840256Y-39767205D01*
X57009774Y-39653937D01*
X57153937Y-39509774D01*
X57267205Y-39340256D01*
X57337849Y-39169708D01*
X57398061Y-39181685D01*
X57601939Y-39181685D01*
X57801898Y-39141911D01*
X57990256Y-39063890D01*
X58159774Y-38950622D01*
X58273000Y-38837396D01*
X58273000Y-46000000D01*
X58275440Y-46024776D01*
X58282667Y-46048601D01*
X58294403Y-46070557D01*
X58310197Y-46089803D01*
X58329443Y-46105597D01*
X58351399Y-46117333D01*
X58375224Y-46124560D01*
X58400000Y-46127000D01*
X63250000Y-46127000D01*
X63274776Y-46124560D01*
X63298601Y-46117333D01*
X63320557Y-46105597D01*
X63339803Y-46089803D01*
X63355597Y-46070557D01*
X63367333Y-46048601D01*
X63374560Y-46024776D01*
X63377000Y-46000000D01*
X63377000Y-45048061D01*
X86465000Y-45048061D01*
X86465000Y-45251939D01*
X86504774Y-45451898D01*
X86582795Y-45640256D01*
X86656123Y-45750000D01*
X86582795Y-45859744D01*
X86504774Y-46048102D01*
X86465000Y-46248061D01*
X86465000Y-46451939D01*
X86504774Y-46651898D01*
X86582795Y-46840256D01*
X86696063Y-47009774D01*
X86840226Y-47153937D01*
X87009744Y-47267205D01*
X87198102Y-47345226D01*
X87398061Y-47385000D01*
X87601939Y-47385000D01*
X87801898Y-47345226D01*
X87990256Y-47267205D01*
X88159774Y-47153937D01*
X88303937Y-47009774D01*
X88417205Y-46840256D01*
X88495226Y-46651898D01*
X88535000Y-46451939D01*
X88535000Y-46248061D01*
X88495226Y-46048102D01*
X88417205Y-45859744D01*
X88343877Y-45750000D01*
X88417205Y-45640256D01*
X88495226Y-45451898D01*
X88535000Y-45251939D01*
X88535000Y-45048061D01*
X88495226Y-44848102D01*
X88417205Y-44659744D01*
X88303937Y-44490226D01*
X88159774Y-44346063D01*
X87990256Y-44232795D01*
X87801898Y-44154774D01*
X87601939Y-44115000D01*
X87398061Y-44115000D01*
X87198102Y-44154774D01*
X87009744Y-44232795D01*
X86840226Y-44346063D01*
X86696063Y-44490226D01*
X86582795Y-44659744D01*
X86504774Y-44848102D01*
X86465000Y-45048061D01*
X63377000Y-45048061D01*
X63377000Y-44627000D01*
X65750000Y-44627000D01*
X65774776Y-44624560D01*
X65798601Y-44617333D01*
X65820557Y-44605597D01*
X65839803Y-44589803D01*
X65855597Y-44570557D01*
X65867333Y-44548601D01*
X65874560Y-44524776D01*
X65877000Y-44500000D01*
X65877000Y-43027000D01*
X67600000Y-43027000D01*
X67624776Y-43024560D01*
X67648601Y-43017333D01*
X67670557Y-43005597D01*
X67689803Y-42989803D01*
X67705597Y-42970557D01*
X67717333Y-42948601D01*
X67722357Y-42932040D01*
X67888061Y-42965000D01*
X68091939Y-42965000D01*
X68291898Y-42925226D01*
X68362338Y-42896049D01*
X68400226Y-42933937D01*
X68569744Y-43047205D01*
X68758102Y-43125226D01*
X68958061Y-43165000D01*
X69161939Y-43165000D01*
X69361898Y-43125226D01*
X69550256Y-43047205D01*
X69719774Y-42933937D01*
X69863937Y-42789774D01*
X69977205Y-42620256D01*
X70055226Y-42431898D01*
X70095000Y-42231939D01*
X70095000Y-42028061D01*
X70055226Y-41828102D01*
X69977205Y-41639744D01*
X69863937Y-41470226D01*
X69719774Y-41326063D01*
X69550256Y-41212795D01*
X69361898Y-41134774D01*
X69161939Y-41095000D01*
X68958061Y-41095000D01*
X68758102Y-41134774D01*
X68687662Y-41163951D01*
X68649774Y-41126063D01*
X68480256Y-41012795D01*
X68291898Y-40934774D01*
X68091939Y-40895000D01*
X67888061Y-40895000D01*
X67688102Y-40934774D01*
X67499744Y-41012795D01*
X67409641Y-41073000D01*
X63427000Y-41073000D01*
X63427000Y-38200000D01*
X63424560Y-38175224D01*
X63417333Y-38151399D01*
X63405597Y-38129443D01*
X63389803Y-38110197D01*
X63370557Y-38094403D01*
X63348601Y-38082667D01*
X63324776Y-38075440D01*
X63300000Y-38073000D01*
X58535000Y-38073000D01*
X58535000Y-38044746D01*
X58495226Y-37844787D01*
X58417205Y-37656429D01*
X58303937Y-37486911D01*
X58159774Y-37342748D01*
X57990256Y-37229480D01*
X57801898Y-37151459D01*
X57601939Y-37111685D01*
X57398061Y-37111685D01*
X57198102Y-37151459D01*
X57009744Y-37229480D01*
X56840226Y-37342748D01*
X56696063Y-37486911D01*
X56582795Y-37656429D01*
X56512151Y-37826977D01*
X56451939Y-37815000D01*
X56248061Y-37815000D01*
X56048102Y-37854774D01*
X55859744Y-37932795D01*
X55690226Y-38046063D01*
X55546063Y-38190226D01*
X55432795Y-38359744D01*
X55354774Y-38548102D01*
X55315000Y-38748061D01*
X55315000Y-38951939D01*
X55354774Y-39151898D01*
X55432795Y-39340256D01*
X55546063Y-39509774D01*
X55626289Y-39590000D01*
X55473061Y-39590000D01*
X55273102Y-39629774D01*
X55084744Y-39707795D01*
X54915226Y-39821063D01*
X54771063Y-39965226D01*
X54657795Y-40134744D01*
X54579774Y-40323102D01*
X54540000Y-40523061D01*
X20660000Y-40523061D01*
X20660000Y-35238212D01*
X34595000Y-35238212D01*
X34595000Y-35461788D01*
X34638617Y-35681067D01*
X34724176Y-35887624D01*
X34815968Y-36025000D01*
X34724176Y-36162376D01*
X34638617Y-36368933D01*
X34595000Y-36588212D01*
X34595000Y-36811788D01*
X34638617Y-37031067D01*
X34724176Y-37237624D01*
X34782559Y-37325000D01*
X34724176Y-37412376D01*
X34638617Y-37618933D01*
X34595000Y-37838212D01*
X34595000Y-38061788D01*
X34638617Y-38281067D01*
X34724176Y-38487624D01*
X34848388Y-38673520D01*
X35006480Y-38831612D01*
X35192376Y-38955824D01*
X35398933Y-39041383D01*
X35618212Y-39085000D01*
X35841788Y-39085000D01*
X36061067Y-39041383D01*
X36267624Y-38955824D01*
X36453520Y-38831612D01*
X36611612Y-38673520D01*
X36735824Y-38487624D01*
X36821383Y-38281067D01*
X36832921Y-38223061D01*
X40190000Y-38223061D01*
X40190000Y-38426939D01*
X40229774Y-38626898D01*
X40307795Y-38815256D01*
X40421063Y-38984774D01*
X40565226Y-39128937D01*
X40734744Y-39242205D01*
X40923102Y-39320226D01*
X41123061Y-39360000D01*
X41326939Y-39360000D01*
X41526898Y-39320226D01*
X41701118Y-39248061D01*
X42240000Y-39248061D01*
X42240000Y-39451939D01*
X42279774Y-39651898D01*
X42357795Y-39840256D01*
X42471063Y-40009774D01*
X42615226Y-40153937D01*
X42784744Y-40267205D01*
X42973102Y-40345226D01*
X43173061Y-40385000D01*
X43376939Y-40385000D01*
X43576898Y-40345226D01*
X43765256Y-40267205D01*
X43934774Y-40153937D01*
X44078937Y-40009774D01*
X44192205Y-39840256D01*
X44270226Y-39651898D01*
X44310000Y-39451939D01*
X44310000Y-39248061D01*
X44270226Y-39048102D01*
X44192205Y-38859744D01*
X44078937Y-38690226D01*
X43934774Y-38546063D01*
X43765256Y-38432795D01*
X43576898Y-38354774D01*
X43376939Y-38315000D01*
X43173061Y-38315000D01*
X42973102Y-38354774D01*
X42784744Y-38432795D01*
X42615226Y-38546063D01*
X42471063Y-38690226D01*
X42357795Y-38859744D01*
X42279774Y-39048102D01*
X42240000Y-39248061D01*
X41701118Y-39248061D01*
X41715256Y-39242205D01*
X41884774Y-39128937D01*
X42028937Y-38984774D01*
X42142205Y-38815256D01*
X42220226Y-38626898D01*
X42260000Y-38426939D01*
X42260000Y-38223061D01*
X42220226Y-38023102D01*
X42142205Y-37834744D01*
X42028937Y-37665226D01*
X41884774Y-37521063D01*
X41715256Y-37407795D01*
X41526898Y-37329774D01*
X41326939Y-37290000D01*
X41123061Y-37290000D01*
X40923102Y-37329774D01*
X40734744Y-37407795D01*
X40565226Y-37521063D01*
X40421063Y-37665226D01*
X40307795Y-37834744D01*
X40229774Y-38023102D01*
X40190000Y-38223061D01*
X36832921Y-38223061D01*
X36865000Y-38061788D01*
X36865000Y-37838212D01*
X36821383Y-37618933D01*
X36735824Y-37412376D01*
X36677441Y-37325000D01*
X36735824Y-37237624D01*
X36821383Y-37031067D01*
X36865000Y-36811788D01*
X36865000Y-36588212D01*
X36847068Y-36498061D01*
X63165000Y-36498061D01*
X63165000Y-36701939D01*
X63204774Y-36901898D01*
X63282795Y-37090256D01*
X63396063Y-37259774D01*
X63540226Y-37403937D01*
X63709744Y-37517205D01*
X63853488Y-37576746D01*
X63882761Y-37723911D01*
X63960782Y-37912269D01*
X64074050Y-38081787D01*
X64218213Y-38225950D01*
X64387731Y-38339218D01*
X64576089Y-38417239D01*
X64776048Y-38457013D01*
X64979926Y-38457013D01*
X65179885Y-38417239D01*
X65368243Y-38339218D01*
X65537761Y-38225950D01*
X65681924Y-38081787D01*
X65795192Y-37912269D01*
X65873213Y-37723911D01*
X65912987Y-37523952D01*
X65912987Y-37398061D01*
X66765000Y-37398061D01*
X66765000Y-37601939D01*
X66804774Y-37801898D01*
X66882795Y-37990256D01*
X66996063Y-38159774D01*
X67118074Y-38281785D01*
X67085000Y-38448061D01*
X67085000Y-38651939D01*
X67124774Y-38851898D01*
X67202795Y-39040256D01*
X67316063Y-39209774D01*
X67460226Y-39353937D01*
X67629744Y-39467205D01*
X67818102Y-39545226D01*
X68018061Y-39585000D01*
X68221939Y-39585000D01*
X68383091Y-39552945D01*
X68421063Y-39609774D01*
X68565226Y-39753937D01*
X68734744Y-39867205D01*
X68923102Y-39945226D01*
X69123061Y-39985000D01*
X69326939Y-39985000D01*
X69526898Y-39945226D01*
X69542363Y-39938820D01*
X69579774Y-40126898D01*
X69657795Y-40315256D01*
X69771063Y-40484774D01*
X69915226Y-40628937D01*
X70084744Y-40742205D01*
X70273102Y-40820226D01*
X70473061Y-40860000D01*
X70676939Y-40860000D01*
X70876898Y-40820226D01*
X70930408Y-40798061D01*
X71740000Y-40798061D01*
X71740000Y-41001939D01*
X71779774Y-41201898D01*
X71857795Y-41390256D01*
X71971063Y-41559774D01*
X72115226Y-41703937D01*
X72284744Y-41817205D01*
X72473102Y-41895226D01*
X72673061Y-41935000D01*
X72876939Y-41935000D01*
X73076898Y-41895226D01*
X73265256Y-41817205D01*
X73434774Y-41703937D01*
X73578937Y-41559774D01*
X73692205Y-41390256D01*
X73770226Y-41201898D01*
X73810000Y-41001939D01*
X73810000Y-40798061D01*
X73770226Y-40598102D01*
X73692205Y-40409744D01*
X73578937Y-40240226D01*
X73434774Y-40096063D01*
X73265256Y-39982795D01*
X73076898Y-39904774D01*
X72876939Y-39865000D01*
X72673061Y-39865000D01*
X72473102Y-39904774D01*
X72284744Y-39982795D01*
X72115226Y-40096063D01*
X71971063Y-40240226D01*
X71857795Y-40409744D01*
X71779774Y-40598102D01*
X71740000Y-40798061D01*
X70930408Y-40798061D01*
X71065256Y-40742205D01*
X71234774Y-40628937D01*
X71378937Y-40484774D01*
X71492205Y-40315256D01*
X71570226Y-40126898D01*
X71610000Y-39926939D01*
X71610000Y-39723061D01*
X71570226Y-39523102D01*
X71492205Y-39334744D01*
X71402173Y-39200000D01*
X91436928Y-39200000D01*
X91436928Y-40900000D01*
X91449188Y-41024482D01*
X91485498Y-41144180D01*
X91544463Y-41254494D01*
X91623815Y-41351185D01*
X91720506Y-41430537D01*
X91830820Y-41489502D01*
X91903380Y-41511513D01*
X91771525Y-41643368D01*
X91609010Y-41886589D01*
X91497068Y-42156842D01*
X91440000Y-42443740D01*
X91440000Y-42736260D01*
X91497068Y-43023158D01*
X91609010Y-43293411D01*
X91771525Y-43536632D01*
X91978368Y-43743475D01*
X92152760Y-43860000D01*
X91978368Y-43976525D01*
X91771525Y-44183368D01*
X91609010Y-44426589D01*
X91497068Y-44696842D01*
X91440000Y-44983740D01*
X91440000Y-45276260D01*
X91497068Y-45563158D01*
X91609010Y-45833411D01*
X91771525Y-46076632D01*
X91978368Y-46283475D01*
X92152760Y-46400000D01*
X91978368Y-46516525D01*
X91771525Y-46723368D01*
X91609010Y-46966589D01*
X91497068Y-47236842D01*
X91440000Y-47523740D01*
X91440000Y-47816260D01*
X91497068Y-48103158D01*
X91609010Y-48373411D01*
X91771525Y-48616632D01*
X91978368Y-48823475D01*
X92152760Y-48940000D01*
X91978368Y-49056525D01*
X91771525Y-49263368D01*
X91609010Y-49506589D01*
X91497068Y-49776842D01*
X91440000Y-50063740D01*
X91440000Y-50356260D01*
X91497068Y-50643158D01*
X91609010Y-50913411D01*
X91771525Y-51156632D01*
X91978368Y-51363475D01*
X92152760Y-51480000D01*
X91978368Y-51596525D01*
X91771525Y-51803368D01*
X91609010Y-52046589D01*
X91497068Y-52316842D01*
X91440000Y-52603740D01*
X91440000Y-52896260D01*
X91497068Y-53183158D01*
X91609010Y-53453411D01*
X91771525Y-53696632D01*
X91978368Y-53903475D01*
X92152760Y-54020000D01*
X91978368Y-54136525D01*
X91771525Y-54343368D01*
X91609010Y-54586589D01*
X91497068Y-54856842D01*
X91440000Y-55143740D01*
X91440000Y-55436260D01*
X91497068Y-55723158D01*
X91609010Y-55993411D01*
X91771525Y-56236632D01*
X91978368Y-56443475D01*
X92152760Y-56560000D01*
X91978368Y-56676525D01*
X91771525Y-56883368D01*
X91609010Y-57126589D01*
X91497068Y-57396842D01*
X91440000Y-57683740D01*
X91440000Y-57976260D01*
X91497068Y-58263158D01*
X91609010Y-58533411D01*
X91771525Y-58776632D01*
X91978368Y-58983475D01*
X92221589Y-59145990D01*
X92491842Y-59257932D01*
X92778740Y-59315000D01*
X93071260Y-59315000D01*
X93358158Y-59257932D01*
X93628411Y-59145990D01*
X93871632Y-58983475D01*
X94078475Y-58776632D01*
X94202523Y-58590981D01*
X94306525Y-58746632D01*
X94513368Y-58953475D01*
X94756589Y-59115990D01*
X95026842Y-59227932D01*
X95313740Y-59285000D01*
X95606260Y-59285000D01*
X95893158Y-59227932D01*
X96163411Y-59115990D01*
X96406632Y-58953475D01*
X96538487Y-58821620D01*
X96560498Y-58894180D01*
X96619463Y-59004494D01*
X96698815Y-59101185D01*
X96795506Y-59180537D01*
X96905820Y-59239502D01*
X97025518Y-59275812D01*
X97150000Y-59288072D01*
X97714250Y-59285000D01*
X97873000Y-59126250D01*
X97873000Y-57927000D01*
X97853000Y-57927000D01*
X97853000Y-57673000D01*
X97873000Y-57673000D01*
X97873000Y-55387000D01*
X97853000Y-55387000D01*
X97853000Y-55133000D01*
X97873000Y-55133000D01*
X97873000Y-52847000D01*
X97853000Y-52847000D01*
X97853000Y-52593000D01*
X97873000Y-52593000D01*
X97873000Y-50307000D01*
X97853000Y-50307000D01*
X97853000Y-50053000D01*
X97873000Y-50053000D01*
X97873000Y-47767000D01*
X97853000Y-47767000D01*
X97853000Y-47513000D01*
X97873000Y-47513000D01*
X97873000Y-45227000D01*
X97853000Y-45227000D01*
X97853000Y-44973000D01*
X97873000Y-44973000D01*
X97873000Y-42687000D01*
X97853000Y-42687000D01*
X97853000Y-42433000D01*
X97873000Y-42433000D01*
X97873000Y-40147000D01*
X97853000Y-40147000D01*
X97853000Y-39893000D01*
X97873000Y-39893000D01*
X97873000Y-38699186D01*
X97643109Y-38578519D01*
X97368748Y-38675843D01*
X97118645Y-38824822D01*
X96902412Y-39019731D01*
X96731100Y-39249406D01*
X96613475Y-39073368D01*
X96406632Y-38866525D01*
X96163411Y-38704010D01*
X95893158Y-38592068D01*
X95606260Y-38535000D01*
X95313740Y-38535000D01*
X95026842Y-38592068D01*
X94756589Y-38704010D01*
X94513368Y-38866525D01*
X94378367Y-39001526D01*
X94364502Y-38955820D01*
X94305537Y-38845506D01*
X94226185Y-38748815D01*
X94129494Y-38669463D01*
X94019180Y-38610498D01*
X93899482Y-38574188D01*
X93775000Y-38561928D01*
X92075000Y-38561928D01*
X91950518Y-38574188D01*
X91830820Y-38610498D01*
X91720506Y-38669463D01*
X91623815Y-38748815D01*
X91544463Y-38845506D01*
X91485498Y-38955820D01*
X91449188Y-39075518D01*
X91436928Y-39200000D01*
X71402173Y-39200000D01*
X71378937Y-39165226D01*
X71234774Y-39021063D01*
X71065256Y-38907795D01*
X70876898Y-38829774D01*
X70676939Y-38790000D01*
X70473061Y-38790000D01*
X70273102Y-38829774D01*
X70257637Y-38836180D01*
X70220226Y-38648102D01*
X70142205Y-38459744D01*
X70028937Y-38290226D01*
X69884774Y-38146063D01*
X69715256Y-38032795D01*
X69526898Y-37954774D01*
X69326939Y-37915000D01*
X69123061Y-37915000D01*
X68961909Y-37947055D01*
X68923937Y-37890226D01*
X68801926Y-37768215D01*
X68835000Y-37601939D01*
X68835000Y-37398061D01*
X68795226Y-37198102D01*
X68717205Y-37009744D01*
X68603937Y-36840226D01*
X68521366Y-36757655D01*
X68609744Y-36816707D01*
X68798102Y-36894728D01*
X68998061Y-36934502D01*
X69201939Y-36934502D01*
X69401898Y-36894728D01*
X69590256Y-36816707D01*
X69759774Y-36703439D01*
X69903937Y-36559276D01*
X70017205Y-36389758D01*
X70095226Y-36201400D01*
X70120754Y-36073061D01*
X70565000Y-36073061D01*
X70565000Y-36276939D01*
X70604774Y-36476898D01*
X70682795Y-36665256D01*
X70796063Y-36834774D01*
X70940226Y-36978937D01*
X71109744Y-37092205D01*
X71298102Y-37170226D01*
X71498061Y-37210000D01*
X71701939Y-37210000D01*
X71901898Y-37170226D01*
X72090256Y-37092205D01*
X72259774Y-36978937D01*
X72403937Y-36834774D01*
X72495285Y-36698061D01*
X72815000Y-36698061D01*
X72815000Y-36901939D01*
X72854774Y-37101898D01*
X72932795Y-37290256D01*
X73046063Y-37459774D01*
X73190226Y-37603937D01*
X73310493Y-37684296D01*
X73304774Y-37698102D01*
X73265000Y-37898061D01*
X73265000Y-38101939D01*
X73304774Y-38301898D01*
X73382795Y-38490256D01*
X73496063Y-38659774D01*
X73640226Y-38803937D01*
X73809744Y-38917205D01*
X73998102Y-38995226D01*
X74198061Y-39035000D01*
X74401939Y-39035000D01*
X74601898Y-38995226D01*
X74790256Y-38917205D01*
X74959774Y-38803937D01*
X75103937Y-38659774D01*
X75217205Y-38490256D01*
X75295226Y-38301898D01*
X75335000Y-38101939D01*
X75335000Y-37898061D01*
X75295226Y-37698102D01*
X75217205Y-37509744D01*
X75103937Y-37340226D01*
X75061772Y-37298061D01*
X76165000Y-37298061D01*
X76165000Y-37501939D01*
X76204774Y-37701898D01*
X76282795Y-37890256D01*
X76396063Y-38059774D01*
X76540226Y-38203937D01*
X76709744Y-38317205D01*
X76898102Y-38395226D01*
X77098061Y-38435000D01*
X77301939Y-38435000D01*
X77501898Y-38395226D01*
X77690256Y-38317205D01*
X77859774Y-38203937D01*
X78003937Y-38059774D01*
X78117205Y-37890256D01*
X78195226Y-37701898D01*
X78235000Y-37501939D01*
X78235000Y-37298061D01*
X78233112Y-37288570D01*
X78359774Y-37203937D01*
X78503937Y-37059774D01*
X78617205Y-36890256D01*
X78695226Y-36701898D01*
X78735000Y-36501939D01*
X78735000Y-36298061D01*
X78695226Y-36098102D01*
X78617205Y-35909744D01*
X78503937Y-35740226D01*
X78359774Y-35596063D01*
X78190256Y-35482795D01*
X78001898Y-35404774D01*
X77801939Y-35365000D01*
X77598061Y-35365000D01*
X77398102Y-35404774D01*
X77209744Y-35482795D01*
X77040226Y-35596063D01*
X76896063Y-35740226D01*
X76782795Y-35909744D01*
X76704774Y-36098102D01*
X76665000Y-36298061D01*
X76665000Y-36501939D01*
X76666888Y-36511430D01*
X76540226Y-36596063D01*
X76396063Y-36740226D01*
X76282795Y-36909744D01*
X76204774Y-37098102D01*
X76165000Y-37298061D01*
X75061772Y-37298061D01*
X74959774Y-37196063D01*
X74839507Y-37115704D01*
X74845226Y-37101898D01*
X74885000Y-36901939D01*
X74885000Y-36698061D01*
X74845226Y-36498102D01*
X74767205Y-36309744D01*
X74653937Y-36140226D01*
X74509774Y-35996063D01*
X74340256Y-35882795D01*
X74151898Y-35804774D01*
X73951939Y-35765000D01*
X73748061Y-35765000D01*
X73548102Y-35804774D01*
X73359744Y-35882795D01*
X73190226Y-35996063D01*
X73046063Y-36140226D01*
X72932795Y-36309744D01*
X72854774Y-36498102D01*
X72815000Y-36698061D01*
X72495285Y-36698061D01*
X72517205Y-36665256D01*
X72595226Y-36476898D01*
X72635000Y-36276939D01*
X72635000Y-36073061D01*
X72595226Y-35873102D01*
X72517205Y-35684744D01*
X72403937Y-35515226D01*
X72259774Y-35371063D01*
X72090256Y-35257795D01*
X71901898Y-35179774D01*
X71701939Y-35140000D01*
X71498061Y-35140000D01*
X71298102Y-35179774D01*
X71109744Y-35257795D01*
X70940226Y-35371063D01*
X70796063Y-35515226D01*
X70682795Y-35684744D01*
X70604774Y-35873102D01*
X70565000Y-36073061D01*
X70120754Y-36073061D01*
X70135000Y-36001441D01*
X70135000Y-35797563D01*
X70095226Y-35597604D01*
X70017205Y-35409246D01*
X69903937Y-35239728D01*
X69759774Y-35095565D01*
X69590256Y-34982297D01*
X69401898Y-34904276D01*
X69201939Y-34864502D01*
X68998061Y-34864502D01*
X68798102Y-34904276D01*
X68609744Y-34982297D01*
X68440226Y-35095565D01*
X68296063Y-35239728D01*
X68182795Y-35409246D01*
X68104774Y-35597604D01*
X68065000Y-35797563D01*
X68065000Y-36001441D01*
X68104774Y-36201400D01*
X68182795Y-36389758D01*
X68296063Y-36559276D01*
X68378634Y-36641847D01*
X68290256Y-36582795D01*
X68101898Y-36504774D01*
X67901939Y-36465000D01*
X67698061Y-36465000D01*
X67498102Y-36504774D01*
X67309744Y-36582795D01*
X67140226Y-36696063D01*
X66996063Y-36840226D01*
X66882795Y-37009744D01*
X66804774Y-37198102D01*
X66765000Y-37398061D01*
X65912987Y-37398061D01*
X65912987Y-37320074D01*
X65873213Y-37120115D01*
X65795192Y-36931757D01*
X65681924Y-36762239D01*
X65537761Y-36618076D01*
X65368243Y-36504808D01*
X65224499Y-36445267D01*
X65195226Y-36298102D01*
X65117205Y-36109744D01*
X65003937Y-35940226D01*
X64859774Y-35796063D01*
X64690256Y-35682795D01*
X64501898Y-35604774D01*
X64301939Y-35565000D01*
X64098061Y-35565000D01*
X63898102Y-35604774D01*
X63709744Y-35682795D01*
X63540226Y-35796063D01*
X63396063Y-35940226D01*
X63282795Y-36109744D01*
X63204774Y-36298102D01*
X63165000Y-36498061D01*
X36847068Y-36498061D01*
X36821383Y-36368933D01*
X36735824Y-36162376D01*
X36644032Y-36025000D01*
X36735824Y-35887624D01*
X36821383Y-35681067D01*
X36865000Y-35461788D01*
X36865000Y-35238212D01*
X36821383Y-35018933D01*
X36735824Y-34812376D01*
X36611612Y-34626480D01*
X36453520Y-34468388D01*
X36267624Y-34344176D01*
X36156293Y-34298061D01*
X40215000Y-34298061D01*
X40215000Y-34501939D01*
X40254774Y-34701898D01*
X40332795Y-34890256D01*
X40356010Y-34925000D01*
X40332795Y-34959744D01*
X40254774Y-35148102D01*
X40215000Y-35348061D01*
X40215000Y-35551939D01*
X40254774Y-35751898D01*
X40332795Y-35940256D01*
X40446063Y-36109774D01*
X40590226Y-36253937D01*
X40759744Y-36367205D01*
X40948102Y-36445226D01*
X41148061Y-36485000D01*
X41351939Y-36485000D01*
X41551898Y-36445226D01*
X41740256Y-36367205D01*
X41909774Y-36253937D01*
X42053937Y-36109774D01*
X42167205Y-35940256D01*
X42245226Y-35751898D01*
X42285000Y-35551939D01*
X42285000Y-35348061D01*
X42245226Y-35148102D01*
X42167205Y-34959744D01*
X42143990Y-34925000D01*
X42167205Y-34890256D01*
X42245226Y-34701898D01*
X42285000Y-34501939D01*
X42285000Y-34298061D01*
X42245226Y-34098102D01*
X42234854Y-34073061D01*
X45490000Y-34073061D01*
X45490000Y-34276939D01*
X45529774Y-34476898D01*
X45607795Y-34665256D01*
X45721063Y-34834774D01*
X45865226Y-34978937D01*
X46034744Y-35092205D01*
X46223102Y-35170226D01*
X46423061Y-35210000D01*
X46626939Y-35210000D01*
X46826898Y-35170226D01*
X47015256Y-35092205D01*
X47184774Y-34978937D01*
X47328937Y-34834774D01*
X47442205Y-34665256D01*
X47520226Y-34476898D01*
X47560000Y-34276939D01*
X47560000Y-34073061D01*
X47520226Y-33873102D01*
X47442205Y-33684744D01*
X47328937Y-33515226D01*
X47184774Y-33371063D01*
X47015256Y-33257795D01*
X46826898Y-33179774D01*
X46626939Y-33140000D01*
X46423061Y-33140000D01*
X46223102Y-33179774D01*
X46034744Y-33257795D01*
X45865226Y-33371063D01*
X45721063Y-33515226D01*
X45607795Y-33684744D01*
X45529774Y-33873102D01*
X45490000Y-34073061D01*
X42234854Y-34073061D01*
X42167205Y-33909744D01*
X42053937Y-33740226D01*
X41909774Y-33596063D01*
X41740256Y-33482795D01*
X41551898Y-33404774D01*
X41351939Y-33365000D01*
X41148061Y-33365000D01*
X40948102Y-33404774D01*
X40759744Y-33482795D01*
X40590226Y-33596063D01*
X40446063Y-33740226D01*
X40332795Y-33909744D01*
X40254774Y-34098102D01*
X40215000Y-34298061D01*
X36156293Y-34298061D01*
X36061067Y-34258617D01*
X35841788Y-34215000D01*
X35618212Y-34215000D01*
X35398933Y-34258617D01*
X35192376Y-34344176D01*
X35006480Y-34468388D01*
X34848388Y-34626480D01*
X34724176Y-34812376D01*
X34638617Y-35018933D01*
X34595000Y-35238212D01*
X20660000Y-35238212D01*
X20660000Y-32998061D01*
X62440000Y-32998061D01*
X62440000Y-33201939D01*
X62479774Y-33401898D01*
X62557795Y-33590256D01*
X62671063Y-33759774D01*
X62815226Y-33903937D01*
X62984744Y-34017205D01*
X63173102Y-34095226D01*
X63373061Y-34135000D01*
X63576939Y-34135000D01*
X63776898Y-34095226D01*
X63962500Y-34018347D01*
X64148102Y-34095226D01*
X64348061Y-34135000D01*
X64551939Y-34135000D01*
X64751898Y-34095226D01*
X64940256Y-34017205D01*
X65109774Y-33903937D01*
X65253937Y-33759774D01*
X65367205Y-33590256D01*
X65445226Y-33401898D01*
X65485000Y-33201939D01*
X65485000Y-32998061D01*
X65479033Y-32968061D01*
X80765000Y-32968061D01*
X80765000Y-33171939D01*
X80804774Y-33371898D01*
X80882795Y-33560256D01*
X80996063Y-33729774D01*
X81140226Y-33873937D01*
X81309744Y-33987205D01*
X81498102Y-34065226D01*
X81698061Y-34105000D01*
X81901939Y-34105000D01*
X82101898Y-34065226D01*
X82290256Y-33987205D01*
X82459774Y-33873937D01*
X82603937Y-33729774D01*
X82717205Y-33560256D01*
X82795226Y-33371898D01*
X82835000Y-33171939D01*
X82835000Y-32968061D01*
X82795226Y-32768102D01*
X82717205Y-32579744D01*
X82603937Y-32410226D01*
X82459774Y-32266063D01*
X82290256Y-32152795D01*
X82101898Y-32074774D01*
X81901939Y-32035000D01*
X81698061Y-32035000D01*
X81498102Y-32074774D01*
X81309744Y-32152795D01*
X81140226Y-32266063D01*
X80996063Y-32410226D01*
X80882795Y-32579744D01*
X80804774Y-32768102D01*
X80765000Y-32968061D01*
X65479033Y-32968061D01*
X65445226Y-32798102D01*
X65367205Y-32609744D01*
X65253937Y-32440226D01*
X65109774Y-32296063D01*
X64940256Y-32182795D01*
X64751898Y-32104774D01*
X64551939Y-32065000D01*
X64348061Y-32065000D01*
X64148102Y-32104774D01*
X63962500Y-32181653D01*
X63776898Y-32104774D01*
X63576939Y-32065000D01*
X63373061Y-32065000D01*
X63173102Y-32104774D01*
X62984744Y-32182795D01*
X62815226Y-32296063D01*
X62671063Y-32440226D01*
X62557795Y-32609744D01*
X62479774Y-32798102D01*
X62440000Y-32998061D01*
X20660000Y-32998061D01*
X20660000Y-30778061D01*
X66575000Y-30778061D01*
X66575000Y-30981939D01*
X66614774Y-31181898D01*
X66692795Y-31370256D01*
X66806063Y-31539774D01*
X66950226Y-31683937D01*
X67119744Y-31797205D01*
X67308102Y-31875226D01*
X67508061Y-31915000D01*
X67711939Y-31915000D01*
X67911898Y-31875226D01*
X68100256Y-31797205D01*
X68269774Y-31683937D01*
X68413937Y-31539774D01*
X68527205Y-31370256D01*
X68605226Y-31181898D01*
X68645000Y-30981939D01*
X68645000Y-30778061D01*
X68605226Y-30578102D01*
X68527205Y-30389744D01*
X68413937Y-30220226D01*
X68269774Y-30076063D01*
X68100256Y-29962795D01*
X67911898Y-29884774D01*
X67711939Y-29845000D01*
X67508061Y-29845000D01*
X67308102Y-29884774D01*
X67119744Y-29962795D01*
X66950226Y-30076063D01*
X66806063Y-30220226D01*
X66692795Y-30389744D01*
X66614774Y-30578102D01*
X66575000Y-30778061D01*
X20660000Y-30778061D01*
X20660000Y-27387496D01*
X21166735Y-28145879D01*
X21854121Y-28833265D01*
X22662401Y-29373340D01*
X23560514Y-29745350D01*
X24513945Y-29935000D01*
X25486055Y-29935000D01*
X26439486Y-29745350D01*
X27337599Y-29373340D01*
X28145879Y-28833265D01*
X28833265Y-28145879D01*
X28883471Y-28070741D01*
X28892307Y-28092074D01*
X29029099Y-28296798D01*
X29203202Y-28470901D01*
X29407926Y-28607693D01*
X29635402Y-28701917D01*
X29876890Y-28749952D01*
X30123110Y-28749952D01*
X30364598Y-28701917D01*
X30592074Y-28607693D01*
X30796798Y-28470901D01*
X30970901Y-28296798D01*
X31107693Y-28092074D01*
X31201917Y-27864598D01*
X31244988Y-27648061D01*
X56215000Y-27648061D01*
X56215000Y-27851939D01*
X56254774Y-28051898D01*
X56332795Y-28240256D01*
X56446063Y-28409774D01*
X56590226Y-28553937D01*
X56759744Y-28667205D01*
X56948102Y-28745226D01*
X57148061Y-28785000D01*
X57351939Y-28785000D01*
X57551898Y-28745226D01*
X57665763Y-28698061D01*
X70665000Y-28698061D01*
X70665000Y-28901939D01*
X70704774Y-29101898D01*
X70782795Y-29290256D01*
X70896063Y-29459774D01*
X71040226Y-29603937D01*
X71209744Y-29717205D01*
X71398102Y-29795226D01*
X71598061Y-29835000D01*
X71765000Y-29835000D01*
X71765000Y-30001939D01*
X71804774Y-30201898D01*
X71882795Y-30390256D01*
X71996063Y-30559774D01*
X72140226Y-30703937D01*
X72309744Y-30817205D01*
X72498102Y-30895226D01*
X72698061Y-30935000D01*
X72901939Y-30935000D01*
X73101898Y-30895226D01*
X73290256Y-30817205D01*
X73459774Y-30703937D01*
X73603937Y-30559774D01*
X73711989Y-30398061D01*
X80315000Y-30398061D01*
X80315000Y-30601939D01*
X80354774Y-30801898D01*
X80432795Y-30990256D01*
X80546063Y-31159774D01*
X80690226Y-31303937D01*
X80859744Y-31417205D01*
X81048102Y-31495226D01*
X81248061Y-31535000D01*
X81451939Y-31535000D01*
X81651898Y-31495226D01*
X81840256Y-31417205D01*
X82009774Y-31303937D01*
X82153937Y-31159774D01*
X82267205Y-30990256D01*
X82345226Y-30801898D01*
X82385000Y-30601939D01*
X82385000Y-30398061D01*
X82365109Y-30298061D01*
X82465000Y-30298061D01*
X82465000Y-30501939D01*
X82504774Y-30701898D01*
X82582795Y-30890256D01*
X82696063Y-31059774D01*
X82840226Y-31203937D01*
X83009744Y-31317205D01*
X83198102Y-31395226D01*
X83398061Y-31435000D01*
X83601939Y-31435000D01*
X83801898Y-31395226D01*
X83990256Y-31317205D01*
X84159774Y-31203937D01*
X84303937Y-31059774D01*
X84417205Y-30890256D01*
X84495226Y-30701898D01*
X84535000Y-30501939D01*
X84535000Y-30298061D01*
X84495226Y-30098102D01*
X84417205Y-29909744D01*
X84303937Y-29740226D01*
X84159774Y-29596063D01*
X83990256Y-29482795D01*
X83801898Y-29404774D01*
X83601939Y-29365000D01*
X83398061Y-29365000D01*
X83198102Y-29404774D01*
X83009744Y-29482795D01*
X82840226Y-29596063D01*
X82696063Y-29740226D01*
X82582795Y-29909744D01*
X82504774Y-30098102D01*
X82465000Y-30298061D01*
X82365109Y-30298061D01*
X82345226Y-30198102D01*
X82267205Y-30009744D01*
X82153937Y-29840226D01*
X82009774Y-29696063D01*
X81840256Y-29582795D01*
X81651898Y-29504774D01*
X81451939Y-29465000D01*
X81248061Y-29465000D01*
X81048102Y-29504774D01*
X80859744Y-29582795D01*
X80690226Y-29696063D01*
X80546063Y-29840226D01*
X80432795Y-30009744D01*
X80354774Y-30198102D01*
X80315000Y-30398061D01*
X73711989Y-30398061D01*
X73717205Y-30390256D01*
X73795226Y-30201898D01*
X73835000Y-30001939D01*
X73835000Y-29798061D01*
X73795226Y-29598102D01*
X73717205Y-29409744D01*
X73603937Y-29240226D01*
X73459774Y-29096063D01*
X73290256Y-28982795D01*
X73101898Y-28904774D01*
X72901939Y-28865000D01*
X72735000Y-28865000D01*
X72735000Y-28698061D01*
X72695226Y-28498102D01*
X72617205Y-28309744D01*
X72503937Y-28140226D01*
X72359774Y-27996063D01*
X72190256Y-27882795D01*
X72001898Y-27804774D01*
X71801939Y-27765000D01*
X71598061Y-27765000D01*
X71398102Y-27804774D01*
X71209744Y-27882795D01*
X71040226Y-27996063D01*
X70896063Y-28140226D01*
X70782795Y-28309744D01*
X70704774Y-28498102D01*
X70665000Y-28698061D01*
X57665763Y-28698061D01*
X57740256Y-28667205D01*
X57909774Y-28553937D01*
X58053937Y-28409774D01*
X58167205Y-28240256D01*
X58245226Y-28051898D01*
X58285000Y-27851939D01*
X58285000Y-27648061D01*
X58245226Y-27448102D01*
X58167205Y-27259744D01*
X58053937Y-27090226D01*
X57909774Y-26946063D01*
X57740256Y-26832795D01*
X57551898Y-26754774D01*
X57351939Y-26715000D01*
X57148061Y-26715000D01*
X56948102Y-26754774D01*
X56759744Y-26832795D01*
X56590226Y-26946063D01*
X56446063Y-27090226D01*
X56332795Y-27259744D01*
X56254774Y-27448102D01*
X56215000Y-27648061D01*
X31244988Y-27648061D01*
X31249952Y-27623110D01*
X31249952Y-27376890D01*
X31201917Y-27135402D01*
X31107693Y-26907926D01*
X30970901Y-26703202D01*
X30796798Y-26529099D01*
X30592074Y-26392307D01*
X30582188Y-26388212D01*
X85615000Y-26388212D01*
X85615000Y-26611788D01*
X85658617Y-26831067D01*
X85744176Y-27037624D01*
X85868388Y-27223520D01*
X86026480Y-27381612D01*
X86072707Y-27412500D01*
X86026480Y-27443388D01*
X85868388Y-27601480D01*
X85744176Y-27787376D01*
X85658617Y-27993933D01*
X85615000Y-28213212D01*
X85615000Y-28436788D01*
X85658617Y-28656067D01*
X85744176Y-28862624D01*
X85868388Y-29048520D01*
X86026480Y-29206612D01*
X86212376Y-29330824D01*
X86418933Y-29416383D01*
X86638212Y-29460000D01*
X86861788Y-29460000D01*
X87081067Y-29416383D01*
X87287624Y-29330824D01*
X87473520Y-29206612D01*
X87631612Y-29048520D01*
X87755824Y-28862624D01*
X87841383Y-28656067D01*
X87885000Y-28436788D01*
X87885000Y-28213212D01*
X87841383Y-27993933D01*
X87755824Y-27787376D01*
X87631612Y-27601480D01*
X87628364Y-27598232D01*
X87813212Y-27635000D01*
X88036788Y-27635000D01*
X88256067Y-27591383D01*
X88462624Y-27505824D01*
X88648520Y-27381612D01*
X88806612Y-27223520D01*
X88930824Y-27037624D01*
X89016383Y-26831067D01*
X89060000Y-26611788D01*
X89060000Y-26388212D01*
X89016383Y-26168933D01*
X88930824Y-25962376D01*
X88806612Y-25776480D01*
X88648520Y-25618388D01*
X88462624Y-25494176D01*
X88256067Y-25408617D01*
X88036788Y-25365000D01*
X87813212Y-25365000D01*
X87593933Y-25408617D01*
X87387376Y-25494176D01*
X87337500Y-25527502D01*
X87287624Y-25494176D01*
X87081067Y-25408617D01*
X86861788Y-25365000D01*
X86638212Y-25365000D01*
X86418933Y-25408617D01*
X86212376Y-25494176D01*
X86026480Y-25618388D01*
X85868388Y-25776480D01*
X85744176Y-25962376D01*
X85658617Y-26168933D01*
X85615000Y-26388212D01*
X30582188Y-26388212D01*
X30364598Y-26298083D01*
X30123110Y-26250048D01*
X29876890Y-26250048D01*
X29779165Y-26269487D01*
X29935000Y-25486055D01*
X29935000Y-24968061D01*
X58335000Y-24968061D01*
X58335000Y-25171939D01*
X58374774Y-25371898D01*
X58452795Y-25560256D01*
X58566063Y-25729774D01*
X58710226Y-25873937D01*
X58879744Y-25987205D01*
X59068102Y-26065226D01*
X59268061Y-26105000D01*
X59471939Y-26105000D01*
X59671898Y-26065226D01*
X59860256Y-25987205D01*
X60029774Y-25873937D01*
X60173937Y-25729774D01*
X60287205Y-25560256D01*
X60365226Y-25371898D01*
X60405000Y-25171939D01*
X60405000Y-24968061D01*
X60403041Y-24958212D01*
X65325000Y-24958212D01*
X65325000Y-25181788D01*
X65368617Y-25401067D01*
X65454176Y-25607624D01*
X65578388Y-25793520D01*
X65736480Y-25951612D01*
X65922376Y-26075824D01*
X66128933Y-26161383D01*
X66348212Y-26205000D01*
X66571788Y-26205000D01*
X66791067Y-26161383D01*
X66997624Y-26075824D01*
X67095000Y-26010759D01*
X67192376Y-26075824D01*
X67398933Y-26161383D01*
X67618212Y-26205000D01*
X67841788Y-26205000D01*
X68061067Y-26161383D01*
X68267624Y-26075824D01*
X68365000Y-26010759D01*
X68462376Y-26075824D01*
X68668933Y-26161383D01*
X68888212Y-26205000D01*
X69111788Y-26205000D01*
X69331067Y-26161383D01*
X69537624Y-26075824D01*
X69635000Y-26010759D01*
X69732376Y-26075824D01*
X69938933Y-26161383D01*
X70158212Y-26205000D01*
X70381788Y-26205000D01*
X70601067Y-26161383D01*
X70807624Y-26075824D01*
X70905000Y-26010759D01*
X71002376Y-26075824D01*
X71208933Y-26161383D01*
X71428212Y-26205000D01*
X71651788Y-26205000D01*
X71871067Y-26161383D01*
X72077624Y-26075824D01*
X72263520Y-25951612D01*
X72421612Y-25793520D01*
X72545824Y-25607624D01*
X72631383Y-25401067D01*
X72675000Y-25181788D01*
X72675000Y-24958212D01*
X72631383Y-24738933D01*
X72585112Y-24627226D01*
X72629502Y-24544180D01*
X72665812Y-24424482D01*
X72678072Y-24300000D01*
X72678072Y-23300000D01*
X72665812Y-23175518D01*
X72629502Y-23055820D01*
X72570537Y-22945506D01*
X72491185Y-22848815D01*
X72394494Y-22769463D01*
X72284180Y-22710498D01*
X72164482Y-22674188D01*
X72040000Y-22661928D01*
X71040000Y-22661928D01*
X70915518Y-22674188D01*
X70795820Y-22710498D01*
X70706820Y-22758070D01*
X70626864Y-22722554D01*
X70571874Y-22705881D01*
X70397000Y-22832046D01*
X70397000Y-23673000D01*
X70401928Y-23673000D01*
X70401928Y-23927000D01*
X70397000Y-23927000D01*
X70397000Y-23938026D01*
X70381788Y-23935000D01*
X70158212Y-23935000D01*
X70143000Y-23938026D01*
X70143000Y-23927000D01*
X69127000Y-23927000D01*
X69127000Y-23938026D01*
X69111788Y-23935000D01*
X68888212Y-23935000D01*
X68873000Y-23938026D01*
X68873000Y-23927000D01*
X68861974Y-23927000D01*
X68865000Y-23911788D01*
X68865000Y-23688212D01*
X68861974Y-23673000D01*
X68873000Y-23673000D01*
X68873000Y-22832046D01*
X69127000Y-22832046D01*
X69127000Y-23673000D01*
X70143000Y-23673000D01*
X70143000Y-22832046D01*
X69968126Y-22705881D01*
X69913136Y-22722554D01*
X69709794Y-22812877D01*
X69635000Y-22865639D01*
X69560206Y-22812877D01*
X69356864Y-22722554D01*
X69301874Y-22705881D01*
X69127000Y-22832046D01*
X68873000Y-22832046D01*
X68698126Y-22705881D01*
X68643136Y-22722554D01*
X68439794Y-22812877D01*
X68369658Y-22862353D01*
X68267624Y-22794176D01*
X68061067Y-22708617D01*
X67841788Y-22665000D01*
X67618212Y-22665000D01*
X67398933Y-22708617D01*
X67192376Y-22794176D01*
X67090342Y-22862353D01*
X67020206Y-22812877D01*
X66816864Y-22722554D01*
X66761874Y-22705881D01*
X66587000Y-22832046D01*
X66587000Y-23673000D01*
X66598026Y-23673000D01*
X66595000Y-23688212D01*
X66595000Y-23911788D01*
X66598026Y-23927000D01*
X66587000Y-23927000D01*
X66587000Y-23938026D01*
X66571788Y-23935000D01*
X66348212Y-23935000D01*
X66333000Y-23938026D01*
X66333000Y-23927000D01*
X65490871Y-23927000D01*
X65365874Y-24101876D01*
X65445790Y-24309529D01*
X65522256Y-24430488D01*
X65454176Y-24532376D01*
X65368617Y-24738933D01*
X65325000Y-24958212D01*
X60403041Y-24958212D01*
X60365226Y-24768102D01*
X60287205Y-24579744D01*
X60173937Y-24410226D01*
X60029774Y-24266063D01*
X59860256Y-24152795D01*
X59671898Y-24074774D01*
X59471939Y-24035000D01*
X59268061Y-24035000D01*
X59068102Y-24074774D01*
X58879744Y-24152795D01*
X58710226Y-24266063D01*
X58566063Y-24410226D01*
X58452795Y-24579744D01*
X58374774Y-24768102D01*
X58335000Y-24968061D01*
X29935000Y-24968061D01*
X29935000Y-24513945D01*
X29850579Y-24089532D01*
X29912376Y-24130824D01*
X30118933Y-24216383D01*
X30338212Y-24260000D01*
X30561788Y-24260000D01*
X30781067Y-24216383D01*
X30987624Y-24130824D01*
X31173520Y-24006612D01*
X31331612Y-23848520D01*
X31455824Y-23662624D01*
X31541383Y-23456067D01*
X31585000Y-23236788D01*
X31585000Y-23013212D01*
X33365000Y-23013212D01*
X33365000Y-23236788D01*
X33408617Y-23456067D01*
X33494176Y-23662624D01*
X33618388Y-23848520D01*
X33776480Y-24006612D01*
X33962376Y-24130824D01*
X34168933Y-24216383D01*
X34388212Y-24260000D01*
X34611788Y-24260000D01*
X34831067Y-24216383D01*
X35037624Y-24130824D01*
X35223520Y-24006612D01*
X35381612Y-23848520D01*
X35505824Y-23662624D01*
X35591383Y-23456067D01*
X35635000Y-23236788D01*
X35635000Y-23013212D01*
X37590000Y-23013212D01*
X37590000Y-23236788D01*
X37633617Y-23456067D01*
X37719176Y-23662624D01*
X37843388Y-23848520D01*
X38001480Y-24006612D01*
X38187376Y-24130824D01*
X38393933Y-24216383D01*
X38613212Y-24260000D01*
X38836788Y-24260000D01*
X39056067Y-24216383D01*
X39262624Y-24130824D01*
X39448520Y-24006612D01*
X39606612Y-23848520D01*
X39730824Y-23662624D01*
X39816383Y-23456067D01*
X39860000Y-23236788D01*
X39860000Y-23013212D01*
X41790000Y-23013212D01*
X41790000Y-23236788D01*
X41833617Y-23456067D01*
X41919176Y-23662624D01*
X42043388Y-23848520D01*
X42201480Y-24006612D01*
X42387376Y-24130824D01*
X42593933Y-24216383D01*
X42813212Y-24260000D01*
X43036788Y-24260000D01*
X43256067Y-24216383D01*
X43462624Y-24130824D01*
X43648520Y-24006612D01*
X43806612Y-23848520D01*
X43930824Y-23662624D01*
X44016383Y-23456067D01*
X44060000Y-23236788D01*
X44060000Y-23013212D01*
X45990000Y-23013212D01*
X45990000Y-23236788D01*
X46033617Y-23456067D01*
X46119176Y-23662624D01*
X46243388Y-23848520D01*
X46401480Y-24006612D01*
X46587376Y-24130824D01*
X46793933Y-24216383D01*
X47013212Y-24260000D01*
X47236788Y-24260000D01*
X47456067Y-24216383D01*
X47662624Y-24130824D01*
X47848520Y-24006612D01*
X48006612Y-23848520D01*
X48130824Y-23662624D01*
X48216383Y-23456067D01*
X48260000Y-23236788D01*
X48260000Y-23013212D01*
X48216383Y-22793933D01*
X48204522Y-22765297D01*
X55640000Y-22765297D01*
X55640000Y-22934703D01*
X55673049Y-23100853D01*
X55737878Y-23257363D01*
X55831995Y-23398218D01*
X55951782Y-23518005D01*
X56092637Y-23612122D01*
X56249147Y-23676951D01*
X56415297Y-23710000D01*
X56584703Y-23710000D01*
X56750853Y-23676951D01*
X56907363Y-23612122D01*
X57048218Y-23518005D01*
X57168005Y-23398218D01*
X57262122Y-23257363D01*
X57326951Y-23100853D01*
X57360000Y-22934703D01*
X57360000Y-22765297D01*
X58640000Y-22765297D01*
X58640000Y-22934703D01*
X58673049Y-23100853D01*
X58737878Y-23257363D01*
X58831995Y-23398218D01*
X58951782Y-23518005D01*
X59092637Y-23612122D01*
X59249147Y-23676951D01*
X59415297Y-23710000D01*
X59584703Y-23710000D01*
X59750853Y-23676951D01*
X59907363Y-23612122D01*
X60048218Y-23518005D01*
X60068099Y-23498124D01*
X65365874Y-23498124D01*
X65490871Y-23673000D01*
X66333000Y-23673000D01*
X66333000Y-22832046D01*
X66158126Y-22705881D01*
X66103136Y-22722554D01*
X65899794Y-22812877D01*
X65717980Y-22941135D01*
X65564682Y-23102399D01*
X65445790Y-23290471D01*
X65365874Y-23498124D01*
X60068099Y-23498124D01*
X60168005Y-23398218D01*
X60262122Y-23257363D01*
X60326951Y-23100853D01*
X60360000Y-22934703D01*
X60360000Y-22765297D01*
X60326951Y-22599147D01*
X60262122Y-22442637D01*
X60168005Y-22301782D01*
X60048218Y-22181995D01*
X59907363Y-22087878D01*
X59750853Y-22023049D01*
X59584703Y-21990000D01*
X59415297Y-21990000D01*
X59249147Y-22023049D01*
X59092637Y-22087878D01*
X58951782Y-22181995D01*
X58831995Y-22301782D01*
X58737878Y-22442637D01*
X58673049Y-22599147D01*
X58640000Y-22765297D01*
X57360000Y-22765297D01*
X57326951Y-22599147D01*
X57262122Y-22442637D01*
X57168005Y-22301782D01*
X57048218Y-22181995D01*
X56907363Y-22087878D01*
X56750853Y-22023049D01*
X56584703Y-21990000D01*
X56415297Y-21990000D01*
X56249147Y-22023049D01*
X56092637Y-22087878D01*
X55951782Y-22181995D01*
X55831995Y-22301782D01*
X55737878Y-22442637D01*
X55673049Y-22599147D01*
X55640000Y-22765297D01*
X48204522Y-22765297D01*
X48130824Y-22587376D01*
X48006612Y-22401480D01*
X47848520Y-22243388D01*
X47662624Y-22119176D01*
X47456067Y-22033617D01*
X47236788Y-21990000D01*
X47013212Y-21990000D01*
X46793933Y-22033617D01*
X46587376Y-22119176D01*
X46401480Y-22243388D01*
X46243388Y-22401480D01*
X46119176Y-22587376D01*
X46033617Y-22793933D01*
X45990000Y-23013212D01*
X44060000Y-23013212D01*
X44016383Y-22793933D01*
X43930824Y-22587376D01*
X43806612Y-22401480D01*
X43648520Y-22243388D01*
X43462624Y-22119176D01*
X43256067Y-22033617D01*
X43036788Y-21990000D01*
X42813212Y-21990000D01*
X42593933Y-22033617D01*
X42387376Y-22119176D01*
X42201480Y-22243388D01*
X42043388Y-22401480D01*
X41919176Y-22587376D01*
X41833617Y-22793933D01*
X41790000Y-23013212D01*
X39860000Y-23013212D01*
X39816383Y-22793933D01*
X39730824Y-22587376D01*
X39606612Y-22401480D01*
X39448520Y-22243388D01*
X39262624Y-22119176D01*
X39056067Y-22033617D01*
X38836788Y-21990000D01*
X38613212Y-21990000D01*
X38393933Y-22033617D01*
X38187376Y-22119176D01*
X38001480Y-22243388D01*
X37843388Y-22401480D01*
X37719176Y-22587376D01*
X37633617Y-22793933D01*
X37590000Y-23013212D01*
X35635000Y-23013212D01*
X35591383Y-22793933D01*
X35505824Y-22587376D01*
X35381612Y-22401480D01*
X35223520Y-22243388D01*
X35037624Y-22119176D01*
X34831067Y-22033617D01*
X34611788Y-21990000D01*
X34388212Y-21990000D01*
X34168933Y-22033617D01*
X33962376Y-22119176D01*
X33776480Y-22243388D01*
X33618388Y-22401480D01*
X33494176Y-22587376D01*
X33408617Y-22793933D01*
X33365000Y-23013212D01*
X31585000Y-23013212D01*
X31541383Y-22793933D01*
X31455824Y-22587376D01*
X31331612Y-22401480D01*
X31173520Y-22243388D01*
X30987624Y-22119176D01*
X30781067Y-22033617D01*
X30561788Y-21990000D01*
X30338212Y-21990000D01*
X30118933Y-22033617D01*
X29912376Y-22119176D01*
X29726480Y-22243388D01*
X29568388Y-22401480D01*
X29444176Y-22587376D01*
X29393220Y-22710395D01*
X29373340Y-22662401D01*
X28833265Y-21854121D01*
X28145879Y-21166735D01*
X27387496Y-20660000D01*
X76641840Y-20660000D01*
X76584618Y-20729725D01*
M02*
