G04 #@! TF.GenerationSoftware,KiCad,Pcbnew,(5.1.5)-3*
G04 #@! TF.CreationDate,2020-07-07T14:13:24+02:00*
G04 #@! TF.ProjectId,HadesNT,48616465-734e-4542-9e6b-696361645f70,rev?*
G04 #@! TF.SameCoordinates,Original*
G04 #@! TF.FileFunction,Legend,Bot*
G04 #@! TF.FilePolarity,Positive*
%FSLAX46Y46*%
G04 Gerber Fmt 4.6, Leading zero omitted, Abs format (unit mm)*
G04 Created by KiCad (PCBNEW (5.1.5)-3) date 2020-07-07 14:13:24*
%MOMM*%
%LPD*%
G04 APERTURE LIST*
%ADD10C,0.150000*%
%ADD11C,0.120000*%
G04 APERTURE END LIST*
D10*
X88530952Y-65502380D02*
X88864285Y-65026190D01*
X89102380Y-65502380D02*
X89102380Y-64502380D01*
X88721428Y-64502380D01*
X88626190Y-64550000D01*
X88578571Y-64597619D01*
X88530952Y-64692857D01*
X88530952Y-64835714D01*
X88578571Y-64930952D01*
X88626190Y-64978571D01*
X88721428Y-65026190D01*
X89102380Y-65026190D01*
X88102380Y-64978571D02*
X87769047Y-64978571D01*
X87626190Y-65502380D02*
X88102380Y-65502380D01*
X88102380Y-64502380D01*
X87626190Y-64502380D01*
X87340476Y-64502380D02*
X87007142Y-65502380D01*
X86673809Y-64502380D01*
X85626190Y-65216666D02*
X85150000Y-65216666D01*
X85721428Y-65502380D02*
X85388095Y-64502380D01*
X85054761Y-65502380D01*
X22197619Y-49319047D02*
X21483333Y-49319047D01*
X21340476Y-49366666D01*
X21245238Y-49461904D01*
X21197619Y-49604761D01*
X21197619Y-49700000D01*
X21197619Y-48366666D02*
X21197619Y-48842857D01*
X22197619Y-48842857D01*
X21292857Y-47461904D02*
X21245238Y-47509523D01*
X21197619Y-47652380D01*
X21197619Y-47747619D01*
X21245238Y-47890476D01*
X21340476Y-47985714D01*
X21435714Y-48033333D01*
X21626190Y-48080952D01*
X21769047Y-48080952D01*
X21959523Y-48033333D01*
X22054761Y-47985714D01*
X22150000Y-47890476D01*
X22197619Y-47747619D01*
X22197619Y-47652380D01*
X22150000Y-47509523D01*
X22102380Y-47461904D01*
X22197619Y-46747619D02*
X21483333Y-46747619D01*
X21340476Y-46795238D01*
X21245238Y-46890476D01*
X21197619Y-47033333D01*
X21197619Y-47128571D01*
X21197619Y-45795238D02*
X21197619Y-46271428D01*
X22197619Y-46271428D01*
X21292857Y-44890476D02*
X21245238Y-44938095D01*
X21197619Y-45080952D01*
X21197619Y-45176190D01*
X21245238Y-45319047D01*
X21340476Y-45414285D01*
X21435714Y-45461904D01*
X21626190Y-45509523D01*
X21769047Y-45509523D01*
X21959523Y-45461904D01*
X22054761Y-45414285D01*
X22150000Y-45319047D01*
X22197619Y-45176190D01*
X22197619Y-45080952D01*
X22150000Y-44938095D01*
X22102380Y-44890476D01*
X22197619Y-44176190D02*
X21483333Y-44176190D01*
X21340476Y-44223809D01*
X21245238Y-44319047D01*
X21197619Y-44461904D01*
X21197619Y-44557142D01*
X21197619Y-43223809D02*
X21197619Y-43700000D01*
X22197619Y-43700000D01*
X21292857Y-42319047D02*
X21245238Y-42366666D01*
X21197619Y-42509523D01*
X21197619Y-42604761D01*
X21245238Y-42747619D01*
X21340476Y-42842857D01*
X21435714Y-42890476D01*
X21626190Y-42938095D01*
X21769047Y-42938095D01*
X21959523Y-42890476D01*
X22054761Y-42842857D01*
X22150000Y-42747619D01*
X22197619Y-42604761D01*
X22197619Y-42509523D01*
X22150000Y-42366666D01*
X22102380Y-42319047D01*
X22197619Y-41604761D02*
X21483333Y-41604761D01*
X21340476Y-41652380D01*
X21245238Y-41747619D01*
X21197619Y-41890476D01*
X21197619Y-41985714D01*
X21197619Y-40652380D02*
X21197619Y-41128571D01*
X22197619Y-41128571D01*
X21292857Y-39747619D02*
X21245238Y-39795238D01*
X21197619Y-39938095D01*
X21197619Y-40033333D01*
X21245238Y-40176190D01*
X21340476Y-40271428D01*
X21435714Y-40319047D01*
X21626190Y-40366666D01*
X21769047Y-40366666D01*
X21959523Y-40319047D01*
X22054761Y-40271428D01*
X22150000Y-40176190D01*
X22197619Y-40033333D01*
X22197619Y-39938095D01*
X22150000Y-39795238D01*
X22102380Y-39747619D01*
X72900000Y-20785714D02*
X72900000Y-21785714D01*
X72900000Y-20833333D02*
X72804761Y-20785714D01*
X72614285Y-20785714D01*
X72519047Y-20833333D01*
X72471428Y-20880952D01*
X72423809Y-20976190D01*
X72423809Y-21261904D01*
X72471428Y-21357142D01*
X72519047Y-21404761D01*
X72614285Y-21452380D01*
X72804761Y-21452380D01*
X72900000Y-21404761D01*
X71995238Y-21452380D02*
X71995238Y-20452380D01*
X71566666Y-21452380D02*
X71566666Y-20928571D01*
X71614285Y-20833333D01*
X71709523Y-20785714D01*
X71852380Y-20785714D01*
X71947619Y-20833333D01*
X71995238Y-20880952D01*
X71090476Y-21452380D02*
X71090476Y-20785714D01*
X71090476Y-20452380D02*
X71138095Y-20500000D01*
X71090476Y-20547619D01*
X71042857Y-20500000D01*
X71090476Y-20452380D01*
X71090476Y-20547619D01*
X70471428Y-21452380D02*
X70566666Y-21404761D01*
X70614285Y-21309523D01*
X70614285Y-20452380D01*
X70138095Y-21404761D02*
X70042857Y-21452380D01*
X69852380Y-21452380D01*
X69757142Y-21404761D01*
X69709523Y-21309523D01*
X69709523Y-21261904D01*
X69757142Y-21166666D01*
X69852380Y-21119047D01*
X69995238Y-21119047D01*
X70090476Y-21071428D01*
X70138095Y-20976190D01*
X70138095Y-20928571D01*
X70090476Y-20833333D01*
X69995238Y-20785714D01*
X69852380Y-20785714D01*
X69757142Y-20833333D01*
X68852380Y-21452380D02*
X68852380Y-20928571D01*
X68900000Y-20833333D01*
X68995238Y-20785714D01*
X69185714Y-20785714D01*
X69280952Y-20833333D01*
X68852380Y-21404761D02*
X68947619Y-21452380D01*
X69185714Y-21452380D01*
X69280952Y-21404761D01*
X69328571Y-21309523D01*
X69328571Y-21214285D01*
X69280952Y-21119047D01*
X69185714Y-21071428D01*
X68947619Y-21071428D01*
X68852380Y-21023809D01*
X68233333Y-21452380D02*
X68328571Y-21404761D01*
X68376190Y-21309523D01*
X68376190Y-20452380D01*
X67852380Y-21357142D02*
X67804761Y-21404761D01*
X67852380Y-21452380D01*
X67900000Y-21404761D01*
X67852380Y-21357142D01*
X67852380Y-21452380D01*
X66947619Y-21404761D02*
X67042857Y-21452380D01*
X67233333Y-21452380D01*
X67328571Y-21404761D01*
X67376190Y-21357142D01*
X67423809Y-21261904D01*
X67423809Y-20976190D01*
X67376190Y-20880952D01*
X67328571Y-20833333D01*
X67233333Y-20785714D01*
X67042857Y-20785714D01*
X66947619Y-20833333D01*
X66376190Y-21452380D02*
X66471428Y-21404761D01*
X66519047Y-21357142D01*
X66566666Y-21261904D01*
X66566666Y-20976190D01*
X66519047Y-20880952D01*
X66471428Y-20833333D01*
X66376190Y-20785714D01*
X66233333Y-20785714D01*
X66138095Y-20833333D01*
X66090476Y-20880952D01*
X66042857Y-20976190D01*
X66042857Y-21261904D01*
X66090476Y-21357142D01*
X66138095Y-21404761D01*
X66233333Y-21452380D01*
X66376190Y-21452380D01*
X65614285Y-21357142D02*
X65566666Y-21404761D01*
X65614285Y-21452380D01*
X65661904Y-21404761D01*
X65614285Y-21357142D01*
X65614285Y-21452380D01*
X64709523Y-20785714D02*
X64709523Y-21452380D01*
X65138095Y-20785714D02*
X65138095Y-21309523D01*
X65090476Y-21404761D01*
X64995238Y-21452380D01*
X64852380Y-21452380D01*
X64757142Y-21404761D01*
X64709523Y-21357142D01*
X64233333Y-21452380D02*
X64233333Y-20452380D01*
X64138095Y-21071428D02*
X63852380Y-21452380D01*
X63852380Y-20785714D02*
X64233333Y-21166666D01*
X91671428Y-33807142D02*
X90528571Y-33807142D01*
D11*
X92150000Y-31800000D02*
X92150000Y-35800000D01*
X98650000Y-31800000D02*
X92150000Y-31800000D01*
X98650000Y-35800000D02*
X98650000Y-31800000D01*
X92150000Y-35800000D02*
X98650000Y-35800000D01*
M02*
