M48
; DRILL file {KiCad (5.1.5)-3} date 07/07/2020 14:13:22
; FORMAT={3:3/ absolute / metric / suppress leading zeros}
; #@! TF.CreationDate,2020-07-07T14:13:22+02:00
; #@! TF.GenerationSoftware,Kicad,Pcbnew,(5.1.5)-3
FMAT,2
METRIC,TZ
T1C0.400
T2C0.600
T3C0.650
T4C0.900
T5C0.950
T6C1.000
T7C4.300
%
G90
G05
T1
X23800Y-47600
X23800Y-48825
X26000Y-31500
X26000Y-32500
X26000Y-33500
X27000Y-31500
X27000Y-32500
X27000Y-33500
X28000Y-31500
X28000Y-32500
X28000Y-33500
X32000Y-58650
X32000Y-59800
X32000Y-61050
X32000Y-62300
X32000Y-63450
X32000Y-64800
X32180Y-39460
X38525Y-26260
X38550Y-43450
X39180Y-57700
X40150Y-35950
X40300Y-43200
X41225Y-38325
X41250Y-34400
X41250Y-35450
X41700Y-57700
X42650Y-51800
X42650Y-57100
X42720Y-26260
X43275Y-39350
X43700Y-51800
X43700Y-57100
X45125Y-34275
X46250Y-57700
X46525Y-34175
X46920Y-26260
X48650Y-57700
X49660Y-46150
X51130Y-26260
X51300Y-47600
X52200Y-45200
X52300Y-40600
X53200Y-41900
X53500Y-40600
X54100Y-47600
X54870Y-25070
X55450Y-45975
X55575Y-40625
X56250Y-49350
X56350Y-38850
X57250Y-27750
X57500Y-38147
X57750Y-39750
X57750Y-40750
X57750Y-41750
X57750Y-42750
X57750Y-43750
X57750Y-44750
X57750Y-45750
X57750Y-46750
X58750Y-46750
X58900Y-49800
X59370Y-25070
X59475Y-44850
X59750Y-46750
X59825Y-48925
X60750Y-46750
X60750Y-47750
X60800Y-29500
X61050Y-57475
X61750Y-47750
X62000Y-55600
X62250Y-39350
X62600Y-58975
X63475Y-33100
X64200Y-36600
X64450Y-32070
X64450Y-33100
X64878Y-37422
X65280Y-30850
X65400Y-58975
X66420Y-30860
X66450Y-51800
X66450Y-52800
X66500Y-57000
X67350Y-53720
X67610Y-30880
X67800Y-37500
X67990Y-41930
X67990Y-44120
X67990Y-45040
X68120Y-38550
X68320Y-53720
X68400Y-47000
X68550Y-57350
X68558Y-41107
X69060Y-42130
X69100Y-35900
X69225Y-38950
X69470Y-31800
X69490Y-32810
X69500Y-41107
X70575Y-39825
X70900Y-66550
X71200Y-60450
X71300Y-47700
X71400Y-53100
X71600Y-36175
X71700Y-28800
X72450Y-53100
X72775Y-40900
X72800Y-29900
X73300Y-65750
X73750Y-55750
X73850Y-36800
X74000Y-60450
X74300Y-38000
X75250Y-48000
X76150Y-58625
X76200Y-46600
X76200Y-53700
X76750Y-26000
X76750Y-27000
X77025Y-55050
X77050Y-47500
X77200Y-37400
X77225Y-59675
X77700Y-36400
X77750Y-26000
X77750Y-27000
X77775Y-48600
X77950Y-55050
X78350Y-47575
X78750Y-26000
X78750Y-27000
X81300Y-53650
X81350Y-28300
X81350Y-30500
X81800Y-33070
X82500Y-51900
X82600Y-58550
X82770Y-33070
X83440Y-50000
X83440Y-51030
X83500Y-30400
X83670Y-34000
X83800Y-58561
X84350Y-50000
X85390Y-35210
X87200Y-30400
X87500Y-45150
X87500Y-46350
X88350Y-56950
X89000Y-55750
T2
X29750Y-41000
X29750Y-42250
X29750Y-43500
X30450Y-23125
X30450Y-24680
X30500Y-53500
X30500Y-54750
X31500Y-52000
X33000Y-46250
X33000Y-52000
X33700Y-56850
X34250Y-46250
X34500Y-23125
X34500Y-52250
X34500Y-53500
X34500Y-54750
X34720Y-66470
X35500Y-46250
X35730Y-35350
X35730Y-36700
X35730Y-37950
X35980Y-66470
X36750Y-46250
X36750Y-55450
X36750Y-56700
X36750Y-57950
X38725Y-23125
X38800Y-54100
X38800Y-55250
X40700Y-45650
X41900Y-45650
X42250Y-49350
X42925Y-23125
X43100Y-45650
X45080Y-66470
X46330Y-66480
X47125Y-23125
X55450Y-66480
X56700Y-66470
X65930Y-66480
X67180Y-66470
X78880Y-66470
X80130Y-66480
X86750Y-26500
X86750Y-28325
X87925Y-26500
X91775Y-65000
X92720Y-62720
X92720Y-67280
X95000Y-61775
X95000Y-68225
X97280Y-62720
X97280Y-67280
X98225Y-65000
X91775Y-25000
X92720Y-22720
X92720Y-27280
X95000Y-21775
X95000Y-28225
X97280Y-22720
X97280Y-27280
X98225Y-25000
X21775Y-65000
X22720Y-62720
X22720Y-67280
X25000Y-61775
X25000Y-68225
X27280Y-62720
X27280Y-67280
X28225Y-65000
X21775Y-25000
X22720Y-22720
X22720Y-27280
X25000Y-21775
X25000Y-28225
X27280Y-22720
X27280Y-27280
X28225Y-25000
T3
X66460Y-23800
X66460Y-25070
X67730Y-23800
X67730Y-25070
X69000Y-23800
X69000Y-25070
X70270Y-23800
X70270Y-25070
X71540Y-23800
X71540Y-25070
T4
X56500Y-22850
X59500Y-22850
T6
X92925Y-40050
X92925Y-42590
X92925Y-45130
X92925Y-47670
X92925Y-50210
X92925Y-52750
X92925Y-55290
X92925Y-57830
X95460Y-40020
X95460Y-42560
X95460Y-45100
X95460Y-47640
X95460Y-50180
X95460Y-52720
X95460Y-55260
X95460Y-57800
X98000Y-40020
X98000Y-42560
X98000Y-45100
X98000Y-47640
X98000Y-50180
X98000Y-52720
X98000Y-55260
X98000Y-57800
T7
X95000Y-25000
X25000Y-65000
X25000Y-25000
X95000Y-65000
T5
G00X77700Y-21500
M15
G01X77700Y-21850
M16
G05
G00X84300Y-21500
M15
G01X84300Y-21850
M16
G05
T0
M30
