G04 #@! TF.GenerationSoftware,KiCad,Pcbnew,(5.1.5)-3*
G04 #@! TF.CreationDate,2020-05-21T19:58:44+02:00*
G04 #@! TF.ProjectId,HadesNT,48616465-734e-4542-9e6b-696361645f70,rev?*
G04 #@! TF.SameCoordinates,Original*
G04 #@! TF.FileFunction,Copper,L4,Bot*
G04 #@! TF.FilePolarity,Positive*
%FSLAX46Y46*%
G04 Gerber Fmt 4.6, Leading zero omitted, Abs format (unit mm)*
G04 Created by KiCad (PCBNEW (5.1.5)-3) date 2020-05-21 19:58:44*
%MOMM*%
%LPD*%
G04 APERTURE LIST*
%ADD10C,2.400000*%
%ADD11R,2.400000X2.400000*%
%ADD12O,1.400000X1.800000*%
%ADD13C,0.900000*%
%ADD14C,8.600000*%
%ADD15R,1.000000X1.000000*%
%ADD16O,1.000000X1.000000*%
%ADD17R,1.700000X1.700000*%
%ADD18O,1.700000X1.700000*%
%ADD19C,0.450000*%
%ADD20C,1.000000*%
%ADD21C,0.800000*%
%ADD22C,0.500000*%
%ADD23C,1.000000*%
%ADD24C,2.000000*%
%ADD25C,0.293370*%
%ADD26C,0.300000*%
%ADD27C,0.254000*%
G04 APERTURE END LIST*
D10*
X94725000Y-32275000D03*
D11*
X94725000Y-35775000D03*
D12*
X84300000Y-21675000D03*
X77700000Y-21675000D03*
D13*
X27280419Y-22719581D03*
X25000000Y-21775000D03*
X22719581Y-22719581D03*
X21775000Y-25000000D03*
X22719581Y-27280419D03*
X25000000Y-28225000D03*
X27280419Y-27280419D03*
X28225000Y-25000000D03*
D14*
X25000000Y-25000000D03*
X25000000Y-65000000D03*
D13*
X28225000Y-65000000D03*
X27280419Y-67280419D03*
X25000000Y-68225000D03*
X22719581Y-67280419D03*
X21775000Y-65000000D03*
X22719581Y-62719581D03*
X25000000Y-61775000D03*
X27280419Y-62719581D03*
X97280419Y-62719581D03*
X95000000Y-61775000D03*
X92719581Y-62719581D03*
X91775000Y-65000000D03*
X92719581Y-67280419D03*
X95000000Y-68225000D03*
X97280419Y-67280419D03*
X98225000Y-65000000D03*
D14*
X95000000Y-65000000D03*
X95000000Y-25000000D03*
D13*
X98225000Y-25000000D03*
X97280419Y-27280419D03*
X95000000Y-28225000D03*
X92719581Y-27280419D03*
X91775000Y-25000000D03*
X92719581Y-22719581D03*
X95000000Y-21775000D03*
X97280419Y-22719581D03*
D15*
X71540000Y-23800000D03*
D16*
X71540000Y-25070000D03*
X70270000Y-23800000D03*
X70270000Y-25070000D03*
X69000000Y-23800000D03*
X69000000Y-25070000D03*
X67730000Y-23800000D03*
X67730000Y-25070000D03*
X66460000Y-23800000D03*
X66460000Y-25070000D03*
D17*
X98000000Y-57800000D03*
D18*
X95460000Y-57800000D03*
X98000000Y-55260000D03*
X95460000Y-55260000D03*
X98000000Y-52720000D03*
X95460000Y-52720000D03*
X98000000Y-50180000D03*
X95460000Y-50180000D03*
X98000000Y-47640000D03*
X95460000Y-47640000D03*
X98000000Y-45100000D03*
X95460000Y-45100000D03*
X98000000Y-42560000D03*
X95460000Y-42560000D03*
X98000000Y-40020000D03*
X95460000Y-40020000D03*
D17*
X92925000Y-40050000D03*
D18*
X92925000Y-42590000D03*
X92925000Y-45130000D03*
X92925000Y-47670000D03*
X92925000Y-50210000D03*
X92925000Y-52750000D03*
X92925000Y-55290000D03*
X92925000Y-57830000D03*
D19*
X59500000Y-22250000D03*
X56500000Y-22250000D03*
D20*
X40800000Y-48800000D03*
X39600000Y-51100000D03*
D21*
X74000000Y-60450000D03*
X79125000Y-28275000D03*
X78750000Y-26000000D03*
X77750000Y-26000000D03*
X76750000Y-26000000D03*
X76750000Y-27000000D03*
X77750000Y-27000000D03*
X78750000Y-27000000D03*
X26000000Y-33500000D03*
X27000000Y-33500000D03*
X28000000Y-33500000D03*
X26000000Y-32500000D03*
X27000000Y-32500000D03*
X28000000Y-32500000D03*
X26000000Y-31500000D03*
X27000000Y-31500000D03*
X28000000Y-31500000D03*
X81300000Y-53650000D03*
X82500000Y-51900000D03*
X83440000Y-51030000D03*
X85390000Y-35210000D03*
X83670000Y-34000000D03*
X82770000Y-33070000D03*
X69490000Y-32810000D03*
X69470000Y-31800000D03*
X65280000Y-30850000D03*
X66420000Y-30860000D03*
X68558191Y-41107102D03*
X67990000Y-45040000D03*
X67990000Y-44120000D03*
X66450000Y-52800000D03*
X66450000Y-51800000D03*
X28700000Y-39400000D03*
X27700000Y-39400000D03*
D20*
X42000000Y-48800000D03*
X43200000Y-48800000D03*
X43200000Y-50000000D03*
X39700000Y-48800000D03*
X23800000Y-56700000D03*
X25200000Y-56700000D03*
X26900000Y-56700000D03*
X28200000Y-56700000D03*
X29800000Y-56700000D03*
X31200000Y-56700000D03*
X30800000Y-50300000D03*
X32200000Y-50300000D03*
X33100000Y-48900000D03*
X38250000Y-40725000D03*
D21*
X32450000Y-42700000D03*
X62600000Y-58975000D03*
X62000000Y-55600000D03*
X77950000Y-55050000D03*
X77025000Y-55050000D03*
X64450000Y-32070000D03*
X69500000Y-41107102D03*
X62250000Y-39350000D03*
X59475000Y-44850000D03*
X52300000Y-40600000D03*
X51300000Y-47600000D03*
D20*
X35120000Y-66470000D03*
X46120000Y-66470000D03*
X57120000Y-66470000D03*
X68130000Y-66470000D03*
X78880000Y-66470000D03*
D21*
X49100000Y-54120000D03*
X55100000Y-54120000D03*
X57750000Y-39750000D03*
X57750000Y-40750000D03*
X57750000Y-41750000D03*
X57750000Y-42750000D03*
X57750000Y-43750000D03*
X57750000Y-44750000D03*
X57750000Y-45750000D03*
X57750000Y-46750000D03*
X58750000Y-46750000D03*
X59750000Y-46750000D03*
X60750000Y-46750000D03*
X72250000Y-51800000D03*
X72250000Y-53000000D03*
X38525000Y-26260000D03*
X42720000Y-26260000D03*
X46920000Y-26260000D03*
X51130000Y-26260000D03*
D20*
X30450000Y-24680000D03*
X38580000Y-45640000D03*
X38580000Y-46850000D03*
D21*
X49660000Y-46150000D03*
X60750000Y-47750000D03*
X61750000Y-47750000D03*
X67610000Y-30880000D03*
X64450000Y-33100000D03*
X67990000Y-41930000D03*
X68120000Y-38550000D03*
X83440000Y-50000000D03*
X84350000Y-50000000D03*
X68320000Y-53720000D03*
X67350000Y-53720000D03*
X76200000Y-53700000D03*
X31700000Y-44700000D03*
X31700000Y-43800000D03*
D20*
X38400000Y-51100000D03*
X37200000Y-51100000D03*
X37200000Y-54900000D03*
X38400000Y-54900000D03*
X39600000Y-54900000D03*
X40800000Y-54900000D03*
X42000000Y-54900000D03*
X43200000Y-54900000D03*
X43200000Y-53700000D03*
X43200000Y-52500000D03*
X35200000Y-40700000D03*
D21*
X32700000Y-38325000D03*
X63475000Y-33100000D03*
X65400000Y-58975000D03*
X61050000Y-57475000D03*
X71200000Y-60450000D03*
X53200000Y-41900000D03*
X54100000Y-47600000D03*
D20*
X36380000Y-66470000D03*
X47370000Y-66480000D03*
X58380000Y-66480000D03*
X69370000Y-66480000D03*
X80130000Y-66480000D03*
D21*
X45630000Y-54390000D03*
X51620000Y-54390000D03*
D20*
X34500000Y-23125000D03*
X30450000Y-23125000D03*
X38725000Y-23125000D03*
X42925000Y-23125000D03*
X47125000Y-23125000D03*
D21*
X69060000Y-42130000D03*
X81800000Y-33070000D03*
X59370000Y-24470000D03*
X54870000Y-24470000D03*
D20*
X86750000Y-28325000D03*
D21*
X68700000Y-43150000D03*
D20*
X23360000Y-48470000D03*
X24540000Y-48470000D03*
X22160000Y-48470000D03*
X87925000Y-26500000D03*
X86750000Y-26500000D03*
D21*
X82600000Y-58550000D03*
X85100000Y-45275000D03*
X83614489Y-58560839D03*
X86150000Y-46300000D03*
X57250000Y-27750000D03*
X71600000Y-36175000D03*
X73750000Y-55750000D03*
X75250000Y-48000000D03*
X66500000Y-57000000D03*
X70846685Y-52250000D03*
X67800000Y-37500000D03*
X64877987Y-37422013D03*
X57500000Y-38146685D03*
X64200000Y-36600000D03*
X69100000Y-35899502D03*
D22*
X68700000Y-43150000D02*
X71725000Y-43150000D01*
X71725000Y-43150000D02*
X72475000Y-42400000D01*
X72475000Y-42400000D02*
X72475000Y-30800000D01*
X72475000Y-30800000D02*
X68625000Y-26950000D01*
X68625000Y-26950000D02*
X67225000Y-26950000D01*
X66460000Y-26185000D02*
X66460000Y-25070000D01*
X67225000Y-26950000D02*
X66460000Y-26185000D01*
D23*
X86750000Y-28325000D02*
X86750000Y-26500000D01*
X87925000Y-26500000D02*
X86750000Y-26500000D01*
X87925000Y-27150000D02*
X86750000Y-28325000D01*
X87925000Y-26500000D02*
X87925000Y-27150000D01*
X86750000Y-27675000D02*
X87925000Y-26500000D01*
X86750000Y-28325000D02*
X86750000Y-27675000D01*
X24540000Y-48470000D02*
X22160000Y-48470000D01*
X53100000Y-23175000D02*
X55200000Y-21075000D01*
X73250000Y-21075000D02*
X76650000Y-24475000D01*
X53100000Y-28206960D02*
X53100000Y-23175000D01*
X21660001Y-47970001D02*
X21660001Y-31889999D01*
X55200000Y-21075000D02*
X73250000Y-21075000D01*
X22160000Y-48470000D02*
X21660001Y-47970001D01*
X21660001Y-31889999D02*
X23225000Y-30325000D01*
X84725000Y-24475000D02*
X86750000Y-26500000D01*
X23225000Y-30325000D02*
X50981960Y-30325000D01*
X76650000Y-24475000D02*
X84725000Y-24475000D01*
X50981960Y-30325000D02*
X53100000Y-28206960D01*
D22*
X82600000Y-55125000D02*
X82600000Y-58550000D01*
X85350000Y-52375000D02*
X82600000Y-55125000D01*
X85100000Y-45275000D02*
X85350000Y-45525000D01*
X85350000Y-45525000D02*
X85350000Y-52375000D01*
X83425000Y-58371350D02*
X83614489Y-58560839D01*
X83425000Y-55425000D02*
X83425000Y-58371350D01*
X86150000Y-46300000D02*
X86125000Y-46325000D01*
X86125000Y-52725000D02*
X83425000Y-55425000D01*
X86125000Y-46325000D02*
X86125000Y-52725000D01*
D24*
X95460000Y-57800000D02*
X95460000Y-55260000D01*
X95460000Y-55260000D02*
X95460000Y-52720000D01*
X95460000Y-52720000D02*
X95460000Y-50180000D01*
X95460000Y-50180000D02*
X95460000Y-47640000D01*
X95460000Y-47640000D02*
X95460000Y-45100000D01*
X95460000Y-45100000D02*
X95460000Y-42560000D01*
X95460000Y-42560000D02*
X95460000Y-40020000D01*
X95460000Y-36510000D02*
X94725000Y-35775000D01*
X95460000Y-40020000D02*
X95460000Y-36510000D01*
D22*
X57250000Y-27750000D02*
X68200000Y-27750000D01*
X71600000Y-31150000D02*
X71600000Y-36175000D01*
X68200000Y-27750000D02*
X71600000Y-31150000D01*
D25*
X73750000Y-55750000D02*
X73750000Y-49000000D01*
X73750000Y-49000000D02*
X74750000Y-48000000D01*
X74750000Y-48000000D02*
X75250000Y-48000000D01*
X66500000Y-57000000D02*
X67250000Y-57000000D01*
X67250000Y-57000000D02*
X68000000Y-57000000D01*
X68000000Y-57000000D02*
X70846685Y-54153315D01*
X70846685Y-54153315D02*
X70846685Y-52250000D01*
D26*
X58224672Y-37422013D02*
X57500000Y-38146685D01*
X64877987Y-37422013D02*
X58224672Y-37422013D01*
D27*
G36*
X76584618Y-20729725D02*
G01*
X76460653Y-20961646D01*
X76384317Y-21213294D01*
X76365000Y-21409421D01*
X76365000Y-21940578D01*
X76384317Y-22136705D01*
X76460653Y-22388353D01*
X76584618Y-22620274D01*
X76751445Y-22823555D01*
X76954725Y-22990382D01*
X77186646Y-23114347D01*
X77438294Y-23190683D01*
X77700000Y-23216459D01*
X77961705Y-23190683D01*
X78213353Y-23114347D01*
X78445274Y-22990382D01*
X78648555Y-22823555D01*
X78815382Y-22620275D01*
X78939347Y-22388354D01*
X79015683Y-22136706D01*
X79035000Y-21940579D01*
X79035000Y-21409422D01*
X79015683Y-21213295D01*
X78939347Y-20961647D01*
X78815382Y-20729725D01*
X78758160Y-20660000D01*
X83241840Y-20660000D01*
X83184618Y-20729725D01*
X83060653Y-20961646D01*
X82984317Y-21213294D01*
X82965000Y-21409421D01*
X82965000Y-21940578D01*
X82984317Y-22136705D01*
X83060653Y-22388353D01*
X83184618Y-22620274D01*
X83351445Y-22823555D01*
X83554725Y-22990382D01*
X83786646Y-23114347D01*
X84038294Y-23190683D01*
X84300000Y-23216459D01*
X84561705Y-23190683D01*
X84813353Y-23114347D01*
X85045274Y-22990382D01*
X85248555Y-22823555D01*
X85415382Y-22620275D01*
X85539347Y-22388354D01*
X85615683Y-22136706D01*
X85635000Y-21940579D01*
X85635000Y-21409422D01*
X85615683Y-21213295D01*
X85539347Y-20961647D01*
X85415382Y-20729725D01*
X85358160Y-20660000D01*
X92648907Y-20660000D01*
X92301560Y-20839606D01*
X92188946Y-20914851D01*
X91696787Y-21517182D01*
X95000000Y-24820395D01*
X95014143Y-24806253D01*
X95193748Y-24985858D01*
X95179605Y-25000000D01*
X98482818Y-28303213D01*
X99085149Y-27811054D01*
X99340000Y-27349534D01*
X99340000Y-39396599D01*
X99271641Y-39253080D01*
X99097588Y-39019731D01*
X98881355Y-38824822D01*
X98631252Y-38675843D01*
X98356891Y-38578519D01*
X98127000Y-38699186D01*
X98127000Y-39893000D01*
X98147000Y-39893000D01*
X98147000Y-40147000D01*
X98127000Y-40147000D01*
X98127000Y-42433000D01*
X98147000Y-42433000D01*
X98147000Y-42687000D01*
X98127000Y-42687000D01*
X98127000Y-44973000D01*
X98147000Y-44973000D01*
X98147000Y-45227000D01*
X98127000Y-45227000D01*
X98127000Y-47513000D01*
X98147000Y-47513000D01*
X98147000Y-47767000D01*
X98127000Y-47767000D01*
X98127000Y-50053000D01*
X98147000Y-50053000D01*
X98147000Y-50307000D01*
X98127000Y-50307000D01*
X98127000Y-52593000D01*
X98147000Y-52593000D01*
X98147000Y-52847000D01*
X98127000Y-52847000D01*
X98127000Y-55133000D01*
X98147000Y-55133000D01*
X98147000Y-55387000D01*
X98127000Y-55387000D01*
X98127000Y-57673000D01*
X98147000Y-57673000D01*
X98147000Y-57927000D01*
X98127000Y-57927000D01*
X98127000Y-59126250D01*
X98285750Y-59285000D01*
X98850000Y-59288072D01*
X98974482Y-59275812D01*
X99094180Y-59239502D01*
X99204494Y-59180537D01*
X99301185Y-59101185D01*
X99340001Y-59053888D01*
X99340001Y-62648909D01*
X99160394Y-62301560D01*
X99085149Y-62188946D01*
X98482818Y-61696787D01*
X95179605Y-65000000D01*
X95193748Y-65014143D01*
X95014143Y-65193748D01*
X95000000Y-65179605D01*
X91696787Y-68482818D01*
X92188946Y-69085149D01*
X92650466Y-69340000D01*
X27351093Y-69340000D01*
X27698440Y-69160394D01*
X27811054Y-69085149D01*
X28303213Y-68482818D01*
X25000000Y-65179605D01*
X24985858Y-65193748D01*
X24806253Y-65014143D01*
X24820395Y-65000000D01*
X25179605Y-65000000D01*
X28482818Y-68303213D01*
X29085149Y-67811054D01*
X29555063Y-66960067D01*
X29746647Y-66358212D01*
X35245000Y-66358212D01*
X35245000Y-66581788D01*
X35288617Y-66801067D01*
X35374176Y-67007624D01*
X35498388Y-67193520D01*
X35656480Y-67351612D01*
X35842376Y-67475824D01*
X36048933Y-67561383D01*
X36268212Y-67605000D01*
X36491788Y-67605000D01*
X36711067Y-67561383D01*
X36917624Y-67475824D01*
X37103520Y-67351612D01*
X37261612Y-67193520D01*
X37385824Y-67007624D01*
X37471383Y-66801067D01*
X37515000Y-66581788D01*
X37515000Y-66368212D01*
X46235000Y-66368212D01*
X46235000Y-66591788D01*
X46278617Y-66811067D01*
X46364176Y-67017624D01*
X46488388Y-67203520D01*
X46646480Y-67361612D01*
X46832376Y-67485824D01*
X47038933Y-67571383D01*
X47258212Y-67615000D01*
X47481788Y-67615000D01*
X47701067Y-67571383D01*
X47907624Y-67485824D01*
X48093520Y-67361612D01*
X48251612Y-67203520D01*
X48375824Y-67017624D01*
X48461383Y-66811067D01*
X48505000Y-66591788D01*
X48505000Y-66368212D01*
X57245000Y-66368212D01*
X57245000Y-66591788D01*
X57288617Y-66811067D01*
X57374176Y-67017624D01*
X57498388Y-67203520D01*
X57656480Y-67361612D01*
X57842376Y-67485824D01*
X58048933Y-67571383D01*
X58268212Y-67615000D01*
X58491788Y-67615000D01*
X58711067Y-67571383D01*
X58917624Y-67485824D01*
X59103520Y-67361612D01*
X59261612Y-67203520D01*
X59385824Y-67017624D01*
X59471383Y-66811067D01*
X59515000Y-66591788D01*
X59515000Y-66368212D01*
X68235000Y-66368212D01*
X68235000Y-66591788D01*
X68278617Y-66811067D01*
X68364176Y-67017624D01*
X68488388Y-67203520D01*
X68646480Y-67361612D01*
X68832376Y-67485824D01*
X69038933Y-67571383D01*
X69258212Y-67615000D01*
X69481788Y-67615000D01*
X69701067Y-67571383D01*
X69907624Y-67485824D01*
X70093520Y-67361612D01*
X70251612Y-67203520D01*
X70375824Y-67017624D01*
X70461383Y-66811067D01*
X70505000Y-66591788D01*
X70505000Y-66368212D01*
X78995000Y-66368212D01*
X78995000Y-66591788D01*
X79038617Y-66811067D01*
X79124176Y-67017624D01*
X79248388Y-67203520D01*
X79406480Y-67361612D01*
X79592376Y-67485824D01*
X79798933Y-67571383D01*
X80018212Y-67615000D01*
X80241788Y-67615000D01*
X80461067Y-67571383D01*
X80667624Y-67485824D01*
X80853520Y-67361612D01*
X81011612Y-67203520D01*
X81135824Y-67017624D01*
X81221383Y-66811067D01*
X81265000Y-66591788D01*
X81265000Y-66368212D01*
X81221383Y-66148933D01*
X81135824Y-65942376D01*
X81011612Y-65756480D01*
X80853520Y-65598388D01*
X80667624Y-65474176D01*
X80461067Y-65388617D01*
X80241788Y-65345000D01*
X80018212Y-65345000D01*
X79798933Y-65388617D01*
X79592376Y-65474176D01*
X79406480Y-65598388D01*
X79248388Y-65756480D01*
X79124176Y-65942376D01*
X79038617Y-66148933D01*
X78995000Y-66368212D01*
X70505000Y-66368212D01*
X70461383Y-66148933D01*
X70375824Y-65942376D01*
X70251612Y-65756480D01*
X70093520Y-65598388D01*
X69907624Y-65474176D01*
X69701067Y-65388617D01*
X69481788Y-65345000D01*
X69258212Y-65345000D01*
X69038933Y-65388617D01*
X68832376Y-65474176D01*
X68646480Y-65598388D01*
X68488388Y-65756480D01*
X68364176Y-65942376D01*
X68278617Y-66148933D01*
X68235000Y-66368212D01*
X59515000Y-66368212D01*
X59471383Y-66148933D01*
X59385824Y-65942376D01*
X59261612Y-65756480D01*
X59103520Y-65598388D01*
X58917624Y-65474176D01*
X58711067Y-65388617D01*
X58491788Y-65345000D01*
X58268212Y-65345000D01*
X58048933Y-65388617D01*
X57842376Y-65474176D01*
X57656480Y-65598388D01*
X57498388Y-65756480D01*
X57374176Y-65942376D01*
X57288617Y-66148933D01*
X57245000Y-66368212D01*
X48505000Y-66368212D01*
X48461383Y-66148933D01*
X48375824Y-65942376D01*
X48251612Y-65756480D01*
X48093520Y-65598388D01*
X47907624Y-65474176D01*
X47701067Y-65388617D01*
X47481788Y-65345000D01*
X47258212Y-65345000D01*
X47038933Y-65388617D01*
X46832376Y-65474176D01*
X46646480Y-65598388D01*
X46488388Y-65756480D01*
X46364176Y-65942376D01*
X46278617Y-66148933D01*
X46235000Y-66368212D01*
X37515000Y-66368212D01*
X37515000Y-66358212D01*
X37471383Y-66138933D01*
X37385824Y-65932376D01*
X37261612Y-65746480D01*
X37103520Y-65588388D01*
X36917624Y-65464176D01*
X36711067Y-65378617D01*
X36491788Y-65335000D01*
X36268212Y-65335000D01*
X36048933Y-65378617D01*
X35842376Y-65464176D01*
X35656480Y-65588388D01*
X35498388Y-65746480D01*
X35374176Y-65932376D01*
X35288617Y-66138933D01*
X35245000Y-66358212D01*
X29746647Y-66358212D01*
X29849929Y-66033757D01*
X29958414Y-65067719D01*
X29946940Y-64932281D01*
X90041586Y-64932281D01*
X90123649Y-65900921D01*
X90393107Y-66834938D01*
X90839606Y-67698440D01*
X90914851Y-67811054D01*
X91517182Y-68303213D01*
X94820395Y-65000000D01*
X91517182Y-61696787D01*
X90914851Y-62188946D01*
X90444937Y-63039933D01*
X90150071Y-63966243D01*
X90041586Y-64932281D01*
X29946940Y-64932281D01*
X29876351Y-64099079D01*
X29606893Y-63165062D01*
X29160394Y-62301560D01*
X29085149Y-62188946D01*
X28482818Y-61696787D01*
X25179605Y-65000000D01*
X24820395Y-65000000D01*
X21517182Y-61696787D01*
X20914851Y-62188946D01*
X20660000Y-62650466D01*
X20660000Y-61517182D01*
X21696787Y-61517182D01*
X25000000Y-64820395D01*
X28303213Y-61517182D01*
X91696787Y-61517182D01*
X95000000Y-64820395D01*
X98303213Y-61517182D01*
X97811054Y-60914851D01*
X96960067Y-60444937D01*
X96033757Y-60150071D01*
X95067719Y-60041586D01*
X94099079Y-60123649D01*
X93165062Y-60393107D01*
X92301560Y-60839606D01*
X92188946Y-60914851D01*
X91696787Y-61517182D01*
X28303213Y-61517182D01*
X27811054Y-60914851D01*
X26960067Y-60444937D01*
X26655735Y-60348061D01*
X70165000Y-60348061D01*
X70165000Y-60551939D01*
X70204774Y-60751898D01*
X70282795Y-60940256D01*
X70396063Y-61109774D01*
X70540226Y-61253937D01*
X70709744Y-61367205D01*
X70898102Y-61445226D01*
X71098061Y-61485000D01*
X71301939Y-61485000D01*
X71501898Y-61445226D01*
X71690256Y-61367205D01*
X71859774Y-61253937D01*
X72003937Y-61109774D01*
X72117205Y-60940256D01*
X72195226Y-60751898D01*
X72235000Y-60551939D01*
X72235000Y-60348061D01*
X72195226Y-60148102D01*
X72117205Y-59959744D01*
X72003937Y-59790226D01*
X71859774Y-59646063D01*
X71690256Y-59532795D01*
X71501898Y-59454774D01*
X71301939Y-59415000D01*
X71098061Y-59415000D01*
X70898102Y-59454774D01*
X70709744Y-59532795D01*
X70540226Y-59646063D01*
X70396063Y-59790226D01*
X70282795Y-59959744D01*
X70204774Y-60148102D01*
X70165000Y-60348061D01*
X26655735Y-60348061D01*
X26033757Y-60150071D01*
X25067719Y-60041586D01*
X24099079Y-60123649D01*
X23165062Y-60393107D01*
X22301560Y-60839606D01*
X22188946Y-60914851D01*
X21696787Y-61517182D01*
X20660000Y-61517182D01*
X20660000Y-58873061D01*
X64365000Y-58873061D01*
X64365000Y-59076939D01*
X64404774Y-59276898D01*
X64482795Y-59465256D01*
X64596063Y-59634774D01*
X64740226Y-59778937D01*
X64909744Y-59892205D01*
X65098102Y-59970226D01*
X65298061Y-60010000D01*
X65501939Y-60010000D01*
X65701898Y-59970226D01*
X65890256Y-59892205D01*
X66059774Y-59778937D01*
X66203937Y-59634774D01*
X66317205Y-59465256D01*
X66395226Y-59276898D01*
X66435000Y-59076939D01*
X66435000Y-58873061D01*
X66395226Y-58673102D01*
X66317205Y-58484744D01*
X66292695Y-58448061D01*
X81565000Y-58448061D01*
X81565000Y-58651939D01*
X81604774Y-58851898D01*
X81682795Y-59040256D01*
X81796063Y-59209774D01*
X81940226Y-59353937D01*
X82109744Y-59467205D01*
X82298102Y-59545226D01*
X82498061Y-59585000D01*
X82701939Y-59585000D01*
X82901898Y-59545226D01*
X83090256Y-59467205D01*
X83099134Y-59461273D01*
X83124233Y-59478044D01*
X83312591Y-59556065D01*
X83512550Y-59595839D01*
X83716428Y-59595839D01*
X83916387Y-59556065D01*
X84104745Y-59478044D01*
X84274263Y-59364776D01*
X84418426Y-59220613D01*
X84531694Y-59051095D01*
X84609715Y-58862737D01*
X84649489Y-58662778D01*
X84649489Y-58458900D01*
X84609715Y-58258941D01*
X84531694Y-58070583D01*
X84418426Y-57901065D01*
X84310000Y-57792639D01*
X84310000Y-55791578D01*
X86720049Y-53381530D01*
X86753817Y-53353817D01*
X86864411Y-53219059D01*
X86892127Y-53167205D01*
X86946589Y-53065314D01*
X86997195Y-52898490D01*
X86997434Y-52896063D01*
X87010000Y-52768477D01*
X87010000Y-52768469D01*
X87014281Y-52725000D01*
X87010000Y-52681531D01*
X87010000Y-46875870D01*
X87067205Y-46790256D01*
X87145226Y-46601898D01*
X87185000Y-46401939D01*
X87185000Y-46198061D01*
X87145226Y-45998102D01*
X87067205Y-45809744D01*
X86953937Y-45640226D01*
X86809774Y-45496063D01*
X86640256Y-45382795D01*
X86451898Y-45304774D01*
X86251939Y-45265000D01*
X86195952Y-45265000D01*
X86171589Y-45184687D01*
X86116996Y-45082550D01*
X86095226Y-44973102D01*
X86017205Y-44784744D01*
X85903937Y-44615226D01*
X85759774Y-44471063D01*
X85590256Y-44357795D01*
X85401898Y-44279774D01*
X85201939Y-44240000D01*
X84998061Y-44240000D01*
X84798102Y-44279774D01*
X84609744Y-44357795D01*
X84440226Y-44471063D01*
X84296063Y-44615226D01*
X84182795Y-44784744D01*
X84104774Y-44973102D01*
X84065000Y-45173061D01*
X84065000Y-45376939D01*
X84104774Y-45576898D01*
X84182795Y-45765256D01*
X84296063Y-45934774D01*
X84440226Y-46078937D01*
X84465000Y-46095490D01*
X84465001Y-48967598D01*
X84451939Y-48965000D01*
X84248061Y-48965000D01*
X84048102Y-49004774D01*
X83895000Y-49068191D01*
X83741898Y-49004774D01*
X83541939Y-48965000D01*
X83338061Y-48965000D01*
X83138102Y-49004774D01*
X82949744Y-49082795D01*
X82780226Y-49196063D01*
X82636063Y-49340226D01*
X82522795Y-49509744D01*
X82444774Y-49698102D01*
X82405000Y-49898061D01*
X82405000Y-50101939D01*
X82444774Y-50301898D01*
X82522795Y-50490256D01*
X82636063Y-50659774D01*
X82780226Y-50803937D01*
X82949744Y-50917205D01*
X83138102Y-50995226D01*
X83338061Y-51035000D01*
X83541939Y-51035000D01*
X83741898Y-50995226D01*
X83895000Y-50931809D01*
X84048102Y-50995226D01*
X84248061Y-51035000D01*
X84451939Y-51035000D01*
X84465001Y-51032402D01*
X84465001Y-52008420D01*
X82004956Y-54468466D01*
X81971183Y-54496183D01*
X81860589Y-54630942D01*
X81778411Y-54784688D01*
X81763818Y-54832795D01*
X81729458Y-54946063D01*
X81727805Y-54951511D01*
X81715000Y-55081524D01*
X81715000Y-55081531D01*
X81710719Y-55125000D01*
X81715000Y-55168469D01*
X81715001Y-58011544D01*
X81682795Y-58059744D01*
X81604774Y-58248102D01*
X81565000Y-58448061D01*
X66292695Y-58448061D01*
X66203937Y-58315226D01*
X66059774Y-58171063D01*
X65890256Y-58057795D01*
X65701898Y-57979774D01*
X65501939Y-57940000D01*
X65298061Y-57940000D01*
X65098102Y-57979774D01*
X64909744Y-58057795D01*
X64740226Y-58171063D01*
X64596063Y-58315226D01*
X64482795Y-58484744D01*
X64404774Y-58673102D01*
X64365000Y-58873061D01*
X20660000Y-58873061D01*
X20660000Y-57373061D01*
X60015000Y-57373061D01*
X60015000Y-57576939D01*
X60054774Y-57776898D01*
X60132795Y-57965256D01*
X60246063Y-58134774D01*
X60390226Y-58278937D01*
X60559744Y-58392205D01*
X60748102Y-58470226D01*
X60948061Y-58510000D01*
X61151939Y-58510000D01*
X61351898Y-58470226D01*
X61540256Y-58392205D01*
X61709774Y-58278937D01*
X61853937Y-58134774D01*
X61967205Y-57965256D01*
X62045226Y-57776898D01*
X62085000Y-57576939D01*
X62085000Y-57373061D01*
X62045226Y-57173102D01*
X61967205Y-56984744D01*
X61909286Y-56898061D01*
X65465000Y-56898061D01*
X65465000Y-57101939D01*
X65504774Y-57301898D01*
X65582795Y-57490256D01*
X65696063Y-57659774D01*
X65840226Y-57803937D01*
X66009744Y-57917205D01*
X66198102Y-57995226D01*
X66398061Y-58035000D01*
X66601939Y-58035000D01*
X66801898Y-57995226D01*
X66990256Y-57917205D01*
X67159774Y-57803937D01*
X67182026Y-57781685D01*
X67961610Y-57781685D01*
X68000000Y-57785466D01*
X68038390Y-57781685D01*
X68038398Y-57781685D01*
X68153237Y-57770374D01*
X68300585Y-57725677D01*
X68436382Y-57653092D01*
X68555409Y-57555409D01*
X68579889Y-57525580D01*
X70457408Y-55648061D01*
X72715000Y-55648061D01*
X72715000Y-55851939D01*
X72754774Y-56051898D01*
X72832795Y-56240256D01*
X72946063Y-56409774D01*
X73090226Y-56553937D01*
X73259744Y-56667205D01*
X73448102Y-56745226D01*
X73648061Y-56785000D01*
X73851939Y-56785000D01*
X74051898Y-56745226D01*
X74240256Y-56667205D01*
X74409774Y-56553937D01*
X74553937Y-56409774D01*
X74667205Y-56240256D01*
X74745226Y-56051898D01*
X74785000Y-55851939D01*
X74785000Y-55648061D01*
X74745226Y-55448102D01*
X74667205Y-55259744D01*
X74553937Y-55090226D01*
X74531685Y-55067974D01*
X74531685Y-53598061D01*
X75165000Y-53598061D01*
X75165000Y-53801939D01*
X75204774Y-54001898D01*
X75282795Y-54190256D01*
X75396063Y-54359774D01*
X75540226Y-54503937D01*
X75709744Y-54617205D01*
X75898102Y-54695226D01*
X76098061Y-54735000D01*
X76301939Y-54735000D01*
X76501898Y-54695226D01*
X76690256Y-54617205D01*
X76859774Y-54503937D01*
X77003937Y-54359774D01*
X77117205Y-54190256D01*
X77195226Y-54001898D01*
X77235000Y-53801939D01*
X77235000Y-53598061D01*
X77195226Y-53398102D01*
X77117205Y-53209744D01*
X77003937Y-53040226D01*
X76859774Y-52896063D01*
X76690256Y-52782795D01*
X76501898Y-52704774D01*
X76301939Y-52665000D01*
X76098061Y-52665000D01*
X75898102Y-52704774D01*
X75709744Y-52782795D01*
X75540226Y-52896063D01*
X75396063Y-53040226D01*
X75282795Y-53209744D01*
X75204774Y-53398102D01*
X75165000Y-53598061D01*
X74531685Y-53598061D01*
X74531685Y-49323784D01*
X74885976Y-48969493D01*
X74948102Y-48995226D01*
X75148061Y-49035000D01*
X75351939Y-49035000D01*
X75551898Y-48995226D01*
X75740256Y-48917205D01*
X75909774Y-48803937D01*
X76053937Y-48659774D01*
X76167205Y-48490256D01*
X76245226Y-48301898D01*
X76285000Y-48101939D01*
X76285000Y-47898061D01*
X76245226Y-47698102D01*
X76167205Y-47509744D01*
X76053937Y-47340226D01*
X75909774Y-47196063D01*
X75740256Y-47082795D01*
X75551898Y-47004774D01*
X75351939Y-46965000D01*
X75148061Y-46965000D01*
X74948102Y-47004774D01*
X74759744Y-47082795D01*
X74590226Y-47196063D01*
X74539203Y-47247086D01*
X74449414Y-47274323D01*
X74410308Y-47295226D01*
X74313618Y-47346908D01*
X74194591Y-47444591D01*
X74170111Y-47474420D01*
X73224416Y-48420115D01*
X73194592Y-48444591D01*
X73170116Y-48474415D01*
X73170114Y-48474417D01*
X73145412Y-48504517D01*
X73096909Y-48563618D01*
X73058755Y-48635000D01*
X73024324Y-48699415D01*
X72979626Y-48846763D01*
X72964534Y-49000000D01*
X72968316Y-49038401D01*
X72968315Y-55067974D01*
X72946063Y-55090226D01*
X72832795Y-55259744D01*
X72754774Y-55448102D01*
X72715000Y-55648061D01*
X70457408Y-55648061D01*
X71372266Y-54733203D01*
X71402094Y-54708724D01*
X71499777Y-54589697D01*
X71552030Y-54491939D01*
X71572362Y-54453901D01*
X71617059Y-54306552D01*
X71632152Y-54153315D01*
X71628370Y-54114917D01*
X71628370Y-52932026D01*
X71650622Y-52909774D01*
X71763890Y-52740256D01*
X71841911Y-52551898D01*
X71881685Y-52351939D01*
X71881685Y-52148061D01*
X71841911Y-51948102D01*
X71763890Y-51759744D01*
X71650622Y-51590226D01*
X71506459Y-51446063D01*
X71336941Y-51332795D01*
X71148583Y-51254774D01*
X70948624Y-51215000D01*
X70744746Y-51215000D01*
X70544787Y-51254774D01*
X70356429Y-51332795D01*
X70186911Y-51446063D01*
X70042748Y-51590226D01*
X69929480Y-51759744D01*
X69851459Y-51948102D01*
X69811685Y-52148061D01*
X69811685Y-52351939D01*
X69851459Y-52551898D01*
X69929480Y-52740256D01*
X70042748Y-52909774D01*
X70065001Y-52932027D01*
X70065000Y-53829531D01*
X67676216Y-56218315D01*
X67182026Y-56218315D01*
X67159774Y-56196063D01*
X66990256Y-56082795D01*
X66801898Y-56004774D01*
X66601939Y-55965000D01*
X66398061Y-55965000D01*
X66198102Y-56004774D01*
X66009744Y-56082795D01*
X65840226Y-56196063D01*
X65696063Y-56340226D01*
X65582795Y-56509744D01*
X65504774Y-56698102D01*
X65465000Y-56898061D01*
X61909286Y-56898061D01*
X61853937Y-56815226D01*
X61709774Y-56671063D01*
X61540256Y-56557795D01*
X61351898Y-56479774D01*
X61151939Y-56440000D01*
X60948061Y-56440000D01*
X60748102Y-56479774D01*
X60559744Y-56557795D01*
X60390226Y-56671063D01*
X60246063Y-56815226D01*
X60132795Y-56984744D01*
X60054774Y-57173102D01*
X60015000Y-57373061D01*
X20660000Y-57373061D01*
X20660000Y-54788212D01*
X36065000Y-54788212D01*
X36065000Y-55011788D01*
X36108617Y-55231067D01*
X36194176Y-55437624D01*
X36318388Y-55623520D01*
X36476480Y-55781612D01*
X36662376Y-55905824D01*
X36868933Y-55991383D01*
X37088212Y-56035000D01*
X37311788Y-56035000D01*
X37531067Y-55991383D01*
X37737624Y-55905824D01*
X37800000Y-55864146D01*
X37862376Y-55905824D01*
X38068933Y-55991383D01*
X38288212Y-56035000D01*
X38511788Y-56035000D01*
X38731067Y-55991383D01*
X38937624Y-55905824D01*
X39000000Y-55864146D01*
X39062376Y-55905824D01*
X39268933Y-55991383D01*
X39488212Y-56035000D01*
X39711788Y-56035000D01*
X39931067Y-55991383D01*
X40137624Y-55905824D01*
X40200000Y-55864146D01*
X40262376Y-55905824D01*
X40468933Y-55991383D01*
X40688212Y-56035000D01*
X40911788Y-56035000D01*
X41131067Y-55991383D01*
X41337624Y-55905824D01*
X41400000Y-55864146D01*
X41462376Y-55905824D01*
X41668933Y-55991383D01*
X41888212Y-56035000D01*
X42111788Y-56035000D01*
X42331067Y-55991383D01*
X42537624Y-55905824D01*
X42600000Y-55864146D01*
X42662376Y-55905824D01*
X42868933Y-55991383D01*
X43088212Y-56035000D01*
X43311788Y-56035000D01*
X43531067Y-55991383D01*
X43737624Y-55905824D01*
X43923520Y-55781612D01*
X44081612Y-55623520D01*
X44205824Y-55437624D01*
X44291383Y-55231067D01*
X44335000Y-55011788D01*
X44335000Y-54788212D01*
X44291383Y-54568933D01*
X44205824Y-54362376D01*
X44164146Y-54300000D01*
X44172123Y-54288061D01*
X44595000Y-54288061D01*
X44595000Y-54491939D01*
X44634774Y-54691898D01*
X44712795Y-54880256D01*
X44826063Y-55049774D01*
X44970226Y-55193937D01*
X45139744Y-55307205D01*
X45328102Y-55385226D01*
X45528061Y-55425000D01*
X45731939Y-55425000D01*
X45931898Y-55385226D01*
X46120256Y-55307205D01*
X46289774Y-55193937D01*
X46433937Y-55049774D01*
X46547205Y-54880256D01*
X46625226Y-54691898D01*
X46665000Y-54491939D01*
X46665000Y-54288061D01*
X50585000Y-54288061D01*
X50585000Y-54491939D01*
X50624774Y-54691898D01*
X50702795Y-54880256D01*
X50816063Y-55049774D01*
X50960226Y-55193937D01*
X51129744Y-55307205D01*
X51318102Y-55385226D01*
X51518061Y-55425000D01*
X51721939Y-55425000D01*
X51921898Y-55385226D01*
X52110256Y-55307205D01*
X52279774Y-55193937D01*
X52423937Y-55049774D01*
X52537205Y-54880256D01*
X52615226Y-54691898D01*
X52655000Y-54491939D01*
X52655000Y-54288061D01*
X52615226Y-54088102D01*
X52537205Y-53899744D01*
X52423937Y-53730226D01*
X52311772Y-53618061D01*
X66315000Y-53618061D01*
X66315000Y-53821939D01*
X66354774Y-54021898D01*
X66432795Y-54210256D01*
X66546063Y-54379774D01*
X66690226Y-54523937D01*
X66859744Y-54637205D01*
X67048102Y-54715226D01*
X67248061Y-54755000D01*
X67451939Y-54755000D01*
X67651898Y-54715226D01*
X67835000Y-54639382D01*
X68018102Y-54715226D01*
X68218061Y-54755000D01*
X68421939Y-54755000D01*
X68621898Y-54715226D01*
X68810256Y-54637205D01*
X68979774Y-54523937D01*
X69123937Y-54379774D01*
X69237205Y-54210256D01*
X69315226Y-54021898D01*
X69355000Y-53821939D01*
X69355000Y-53618061D01*
X69315226Y-53418102D01*
X69237205Y-53229744D01*
X69123937Y-53060226D01*
X68979774Y-52916063D01*
X68810256Y-52802795D01*
X68621898Y-52724774D01*
X68421939Y-52685000D01*
X68218061Y-52685000D01*
X68018102Y-52724774D01*
X67835000Y-52800618D01*
X67651898Y-52724774D01*
X67451939Y-52685000D01*
X67248061Y-52685000D01*
X67048102Y-52724774D01*
X66859744Y-52802795D01*
X66690226Y-52916063D01*
X66546063Y-53060226D01*
X66432795Y-53229744D01*
X66354774Y-53418102D01*
X66315000Y-53618061D01*
X52311772Y-53618061D01*
X52279774Y-53586063D01*
X52110256Y-53472795D01*
X51921898Y-53394774D01*
X51721939Y-53355000D01*
X51518061Y-53355000D01*
X51318102Y-53394774D01*
X51129744Y-53472795D01*
X50960226Y-53586063D01*
X50816063Y-53730226D01*
X50702795Y-53899744D01*
X50624774Y-54088102D01*
X50585000Y-54288061D01*
X46665000Y-54288061D01*
X46625226Y-54088102D01*
X46547205Y-53899744D01*
X46433937Y-53730226D01*
X46289774Y-53586063D01*
X46120256Y-53472795D01*
X45931898Y-53394774D01*
X45731939Y-53355000D01*
X45528061Y-53355000D01*
X45328102Y-53394774D01*
X45139744Y-53472795D01*
X44970226Y-53586063D01*
X44826063Y-53730226D01*
X44712795Y-53899744D01*
X44634774Y-54088102D01*
X44595000Y-54288061D01*
X44172123Y-54288061D01*
X44205824Y-54237624D01*
X44291383Y-54031067D01*
X44335000Y-53811788D01*
X44335000Y-53588212D01*
X44291383Y-53368933D01*
X44205824Y-53162376D01*
X44164146Y-53100000D01*
X44205824Y-53037624D01*
X44291383Y-52831067D01*
X44335000Y-52611788D01*
X44335000Y-52388212D01*
X44291383Y-52168933D01*
X44205824Y-51962376D01*
X44081612Y-51776480D01*
X43923520Y-51618388D01*
X43737624Y-51494176D01*
X43531067Y-51408617D01*
X43311788Y-51365000D01*
X43088212Y-51365000D01*
X42868933Y-51408617D01*
X42662376Y-51494176D01*
X42476480Y-51618388D01*
X42318388Y-51776480D01*
X42194176Y-51962376D01*
X42108617Y-52168933D01*
X42065000Y-52388212D01*
X42065000Y-52611788D01*
X42108617Y-52831067D01*
X42194176Y-53037624D01*
X42235854Y-53100000D01*
X42194176Y-53162376D01*
X42108617Y-53368933D01*
X42065000Y-53588212D01*
X42065000Y-53765000D01*
X41888212Y-53765000D01*
X41668933Y-53808617D01*
X41462376Y-53894176D01*
X41400000Y-53935854D01*
X41337624Y-53894176D01*
X41131067Y-53808617D01*
X40911788Y-53765000D01*
X40688212Y-53765000D01*
X40468933Y-53808617D01*
X40262376Y-53894176D01*
X40200000Y-53935854D01*
X40137624Y-53894176D01*
X39931067Y-53808617D01*
X39711788Y-53765000D01*
X39488212Y-53765000D01*
X39268933Y-53808617D01*
X39062376Y-53894176D01*
X39000000Y-53935854D01*
X38937624Y-53894176D01*
X38731067Y-53808617D01*
X38511788Y-53765000D01*
X38288212Y-53765000D01*
X38068933Y-53808617D01*
X37862376Y-53894176D01*
X37800000Y-53935854D01*
X37737624Y-53894176D01*
X37531067Y-53808617D01*
X37311788Y-53765000D01*
X37088212Y-53765000D01*
X36868933Y-53808617D01*
X36662376Y-53894176D01*
X36476480Y-54018388D01*
X36318388Y-54176480D01*
X36194176Y-54362376D01*
X36108617Y-54568933D01*
X36065000Y-54788212D01*
X20660000Y-54788212D01*
X20660000Y-50988212D01*
X36065000Y-50988212D01*
X36065000Y-51211788D01*
X36108617Y-51431067D01*
X36194176Y-51637624D01*
X36318388Y-51823520D01*
X36476480Y-51981612D01*
X36662376Y-52105824D01*
X36868933Y-52191383D01*
X37088212Y-52235000D01*
X37311788Y-52235000D01*
X37531067Y-52191383D01*
X37737624Y-52105824D01*
X37800000Y-52064146D01*
X37862376Y-52105824D01*
X38068933Y-52191383D01*
X38288212Y-52235000D01*
X38511788Y-52235000D01*
X38731067Y-52191383D01*
X38937624Y-52105824D01*
X39000000Y-52064146D01*
X39062376Y-52105824D01*
X39268933Y-52191383D01*
X39488212Y-52235000D01*
X39711788Y-52235000D01*
X39931067Y-52191383D01*
X40137624Y-52105824D01*
X40323520Y-51981612D01*
X40481612Y-51823520D01*
X40605824Y-51637624D01*
X40691383Y-51431067D01*
X40735000Y-51211788D01*
X40735000Y-50988212D01*
X40691383Y-50768933D01*
X40605824Y-50562376D01*
X40481612Y-50376480D01*
X40323520Y-50218388D01*
X40137624Y-50094176D01*
X39931067Y-50008617D01*
X39711788Y-49965000D01*
X39488212Y-49965000D01*
X39268933Y-50008617D01*
X39062376Y-50094176D01*
X39000000Y-50135854D01*
X38937624Y-50094176D01*
X38731067Y-50008617D01*
X38511788Y-49965000D01*
X38288212Y-49965000D01*
X38068933Y-50008617D01*
X37862376Y-50094176D01*
X37800000Y-50135854D01*
X37737624Y-50094176D01*
X37531067Y-50008617D01*
X37311788Y-49965000D01*
X37088212Y-49965000D01*
X36868933Y-50008617D01*
X36662376Y-50094176D01*
X36476480Y-50218388D01*
X36318388Y-50376480D01*
X36194176Y-50562376D01*
X36108617Y-50768933D01*
X36065000Y-50988212D01*
X20660000Y-50988212D01*
X20660000Y-48506867D01*
X20711717Y-48603624D01*
X20853552Y-48776450D01*
X20896866Y-48811997D01*
X21278386Y-49193517D01*
X21278388Y-49193520D01*
X21318009Y-49233141D01*
X21353551Y-49276449D01*
X21396859Y-49311991D01*
X21436480Y-49351612D01*
X21483068Y-49382741D01*
X21526377Y-49418284D01*
X21575786Y-49444693D01*
X21622376Y-49475824D01*
X21674149Y-49497269D01*
X21723553Y-49523676D01*
X21777158Y-49539937D01*
X21828933Y-49561383D01*
X21883894Y-49572315D01*
X21937501Y-49588577D01*
X21993253Y-49594068D01*
X22048212Y-49605000D01*
X22104257Y-49605000D01*
X22159999Y-49610490D01*
X22215741Y-49605000D01*
X24651788Y-49605000D01*
X24706747Y-49594068D01*
X24762499Y-49588577D01*
X24816106Y-49572315D01*
X24871067Y-49561383D01*
X24922842Y-49539937D01*
X24976447Y-49523676D01*
X25025851Y-49497269D01*
X25077624Y-49475824D01*
X25124214Y-49444693D01*
X25173623Y-49418284D01*
X25216932Y-49382741D01*
X25263520Y-49351612D01*
X25303141Y-49311991D01*
X25346449Y-49276449D01*
X25381991Y-49233141D01*
X25421612Y-49193520D01*
X25452741Y-49146932D01*
X25488284Y-49103623D01*
X25514693Y-49054214D01*
X25545824Y-49007624D01*
X25567269Y-48955851D01*
X25593676Y-48906447D01*
X25609937Y-48852842D01*
X25631383Y-48801067D01*
X25642315Y-48746106D01*
X25658577Y-48692499D01*
X25664068Y-48636747D01*
X25675000Y-48581788D01*
X25675000Y-48525752D01*
X25680491Y-48470000D01*
X25675000Y-48414248D01*
X25675000Y-48358212D01*
X25664068Y-48303253D01*
X25658577Y-48247501D01*
X25642315Y-48193894D01*
X25631383Y-48138933D01*
X25609937Y-48087158D01*
X25593676Y-48033553D01*
X25567269Y-47984149D01*
X25545824Y-47932376D01*
X25514693Y-47885786D01*
X25488284Y-47836377D01*
X25452741Y-47793068D01*
X25421612Y-47746480D01*
X25381989Y-47706857D01*
X25346449Y-47663551D01*
X25303141Y-47628009D01*
X25263520Y-47588388D01*
X25216932Y-47557259D01*
X25173623Y-47521716D01*
X25129367Y-47498061D01*
X53065000Y-47498061D01*
X53065000Y-47701939D01*
X53104774Y-47901898D01*
X53182795Y-48090256D01*
X53296063Y-48259774D01*
X53440226Y-48403937D01*
X53609744Y-48517205D01*
X53798102Y-48595226D01*
X53998061Y-48635000D01*
X54201939Y-48635000D01*
X54401898Y-48595226D01*
X54590256Y-48517205D01*
X54759774Y-48403937D01*
X54903937Y-48259774D01*
X55017205Y-48090256D01*
X55095226Y-47901898D01*
X55135000Y-47701939D01*
X55135000Y-47648061D01*
X59715000Y-47648061D01*
X59715000Y-47851939D01*
X59754774Y-48051898D01*
X59832795Y-48240256D01*
X59946063Y-48409774D01*
X60090226Y-48553937D01*
X60259744Y-48667205D01*
X60448102Y-48745226D01*
X60648061Y-48785000D01*
X60851939Y-48785000D01*
X61051898Y-48745226D01*
X61240256Y-48667205D01*
X61250000Y-48660694D01*
X61259744Y-48667205D01*
X61448102Y-48745226D01*
X61648061Y-48785000D01*
X61851939Y-48785000D01*
X62051898Y-48745226D01*
X62240256Y-48667205D01*
X62409774Y-48553937D01*
X62553937Y-48409774D01*
X62667205Y-48240256D01*
X62745226Y-48051898D01*
X62785000Y-47851939D01*
X62785000Y-47648061D01*
X62745226Y-47448102D01*
X62667205Y-47259744D01*
X62553937Y-47090226D01*
X62409774Y-46946063D01*
X62240256Y-46832795D01*
X62051898Y-46754774D01*
X61851939Y-46715000D01*
X61648061Y-46715000D01*
X61448102Y-46754774D01*
X61259744Y-46832795D01*
X61250000Y-46839306D01*
X61240256Y-46832795D01*
X61051898Y-46754774D01*
X60851939Y-46715000D01*
X60648061Y-46715000D01*
X60448102Y-46754774D01*
X60259744Y-46832795D01*
X60090226Y-46946063D01*
X59946063Y-47090226D01*
X59832795Y-47259744D01*
X59754774Y-47448102D01*
X59715000Y-47648061D01*
X55135000Y-47648061D01*
X55135000Y-47498061D01*
X55095226Y-47298102D01*
X55017205Y-47109744D01*
X54903937Y-46940226D01*
X54759774Y-46796063D01*
X54590256Y-46682795D01*
X54401898Y-46604774D01*
X54201939Y-46565000D01*
X53998061Y-46565000D01*
X53798102Y-46604774D01*
X53609744Y-46682795D01*
X53440226Y-46796063D01*
X53296063Y-46940226D01*
X53182795Y-47109744D01*
X53104774Y-47298102D01*
X53065000Y-47498061D01*
X25129367Y-47498061D01*
X25124214Y-47495307D01*
X25077624Y-47464176D01*
X25025851Y-47442731D01*
X24976447Y-47416324D01*
X24922842Y-47400063D01*
X24871067Y-47378617D01*
X24816106Y-47367685D01*
X24762499Y-47351423D01*
X24706747Y-47345932D01*
X24651788Y-47335000D01*
X22795001Y-47335000D01*
X22795001Y-43698061D01*
X30665000Y-43698061D01*
X30665000Y-43901939D01*
X30704774Y-44101898D01*
X30766120Y-44250000D01*
X30704774Y-44398102D01*
X30665000Y-44598061D01*
X30665000Y-44801939D01*
X30704774Y-45001898D01*
X30782795Y-45190256D01*
X30896063Y-45359774D01*
X31040226Y-45503937D01*
X31209744Y-45617205D01*
X31398102Y-45695226D01*
X31598061Y-45735000D01*
X31801939Y-45735000D01*
X32001898Y-45695226D01*
X32190256Y-45617205D01*
X32359774Y-45503937D01*
X32503937Y-45359774D01*
X32617205Y-45190256D01*
X32695226Y-45001898D01*
X32735000Y-44801939D01*
X32735000Y-44598061D01*
X32695226Y-44398102D01*
X32633880Y-44250000D01*
X32695226Y-44101898D01*
X32735000Y-43901939D01*
X32735000Y-43698061D01*
X32695226Y-43498102D01*
X32617205Y-43309744D01*
X32503937Y-43140226D01*
X32359774Y-42996063D01*
X32190256Y-42882795D01*
X32001898Y-42804774D01*
X31801939Y-42765000D01*
X31598061Y-42765000D01*
X31398102Y-42804774D01*
X31209744Y-42882795D01*
X31040226Y-42996063D01*
X30896063Y-43140226D01*
X30782795Y-43309744D01*
X30704774Y-43498102D01*
X30665000Y-43698061D01*
X22795001Y-43698061D01*
X22795001Y-40588212D01*
X34065000Y-40588212D01*
X34065000Y-40811788D01*
X34108617Y-41031067D01*
X34194176Y-41237624D01*
X34318388Y-41423520D01*
X34476480Y-41581612D01*
X34662376Y-41705824D01*
X34868933Y-41791383D01*
X35088212Y-41835000D01*
X35311788Y-41835000D01*
X35497494Y-41798061D01*
X52165000Y-41798061D01*
X52165000Y-42001939D01*
X52204774Y-42201898D01*
X52282795Y-42390256D01*
X52396063Y-42559774D01*
X52540226Y-42703937D01*
X52709744Y-42817205D01*
X52898102Y-42895226D01*
X53098061Y-42935000D01*
X53301939Y-42935000D01*
X53501898Y-42895226D01*
X53690256Y-42817205D01*
X53859774Y-42703937D01*
X54003937Y-42559774D01*
X54117205Y-42390256D01*
X54195226Y-42201898D01*
X54235000Y-42001939D01*
X54235000Y-41798061D01*
X54195226Y-41598102D01*
X54117205Y-41409744D01*
X54003937Y-41240226D01*
X53859774Y-41096063D01*
X53690256Y-40982795D01*
X53501898Y-40904774D01*
X53301939Y-40865000D01*
X53098061Y-40865000D01*
X52898102Y-40904774D01*
X52709744Y-40982795D01*
X52540226Y-41096063D01*
X52396063Y-41240226D01*
X52282795Y-41409744D01*
X52204774Y-41598102D01*
X52165000Y-41798061D01*
X35497494Y-41798061D01*
X35531067Y-41791383D01*
X35737624Y-41705824D01*
X35923520Y-41581612D01*
X36081612Y-41423520D01*
X36205824Y-41237624D01*
X36291383Y-41031067D01*
X36335000Y-40811788D01*
X36335000Y-40588212D01*
X36291383Y-40368933D01*
X36205824Y-40162376D01*
X36081612Y-39976480D01*
X35923520Y-39818388D01*
X35737624Y-39694176D01*
X35531067Y-39608617D01*
X35311788Y-39565000D01*
X35088212Y-39565000D01*
X34868933Y-39608617D01*
X34662376Y-39694176D01*
X34476480Y-39818388D01*
X34318388Y-39976480D01*
X34194176Y-40162376D01*
X34108617Y-40368933D01*
X34065000Y-40588212D01*
X22795001Y-40588212D01*
X22795001Y-38223061D01*
X31665000Y-38223061D01*
X31665000Y-38426939D01*
X31704774Y-38626898D01*
X31782795Y-38815256D01*
X31896063Y-38984774D01*
X32040226Y-39128937D01*
X32209744Y-39242205D01*
X32398102Y-39320226D01*
X32598061Y-39360000D01*
X32801939Y-39360000D01*
X33001898Y-39320226D01*
X33190256Y-39242205D01*
X33359774Y-39128937D01*
X33503937Y-38984774D01*
X33617205Y-38815256D01*
X33695226Y-38626898D01*
X33735000Y-38426939D01*
X33735000Y-38223061D01*
X33695226Y-38023102D01*
X33617205Y-37834744D01*
X33503937Y-37665226D01*
X33359774Y-37521063D01*
X33190256Y-37407795D01*
X33001898Y-37329774D01*
X32801939Y-37290000D01*
X32598061Y-37290000D01*
X32398102Y-37329774D01*
X32209744Y-37407795D01*
X32040226Y-37521063D01*
X31896063Y-37665226D01*
X31782795Y-37834744D01*
X31704774Y-38023102D01*
X31665000Y-38223061D01*
X22795001Y-38223061D01*
X22795001Y-32998061D01*
X62440000Y-32998061D01*
X62440000Y-33201939D01*
X62479774Y-33401898D01*
X62557795Y-33590256D01*
X62671063Y-33759774D01*
X62815226Y-33903937D01*
X62984744Y-34017205D01*
X63173102Y-34095226D01*
X63373061Y-34135000D01*
X63576939Y-34135000D01*
X63776898Y-34095226D01*
X63962500Y-34018347D01*
X64148102Y-34095226D01*
X64348061Y-34135000D01*
X64551939Y-34135000D01*
X64751898Y-34095226D01*
X64940256Y-34017205D01*
X65109774Y-33903937D01*
X65253937Y-33759774D01*
X65367205Y-33590256D01*
X65445226Y-33401898D01*
X65485000Y-33201939D01*
X65485000Y-32998061D01*
X65445226Y-32798102D01*
X65367205Y-32609744D01*
X65253937Y-32440226D01*
X65109774Y-32296063D01*
X64940256Y-32182795D01*
X64751898Y-32104774D01*
X64551939Y-32065000D01*
X64348061Y-32065000D01*
X64148102Y-32104774D01*
X63962500Y-32181653D01*
X63776898Y-32104774D01*
X63576939Y-32065000D01*
X63373061Y-32065000D01*
X63173102Y-32104774D01*
X62984744Y-32182795D01*
X62815226Y-32296063D01*
X62671063Y-32440226D01*
X62557795Y-32609744D01*
X62479774Y-32798102D01*
X62440000Y-32998061D01*
X22795001Y-32998061D01*
X22795001Y-32360130D01*
X23695132Y-31460000D01*
X50926209Y-31460000D01*
X50981960Y-31465491D01*
X51037711Y-31460000D01*
X51037712Y-31460000D01*
X51204459Y-31443577D01*
X51418407Y-31378676D01*
X51615583Y-31273284D01*
X51788409Y-31131449D01*
X51823956Y-31088135D01*
X52134030Y-30778061D01*
X66575000Y-30778061D01*
X66575000Y-30981939D01*
X66614774Y-31181898D01*
X66692795Y-31370256D01*
X66806063Y-31539774D01*
X66950226Y-31683937D01*
X67119744Y-31797205D01*
X67308102Y-31875226D01*
X67508061Y-31915000D01*
X67711939Y-31915000D01*
X67911898Y-31875226D01*
X68100256Y-31797205D01*
X68269774Y-31683937D01*
X68413937Y-31539774D01*
X68527205Y-31370256D01*
X68605226Y-31181898D01*
X68645000Y-30981939D01*
X68645000Y-30778061D01*
X68605226Y-30578102D01*
X68527205Y-30389744D01*
X68413937Y-30220226D01*
X68269774Y-30076063D01*
X68100256Y-29962795D01*
X67911898Y-29884774D01*
X67711939Y-29845000D01*
X67508061Y-29845000D01*
X67308102Y-29884774D01*
X67119744Y-29962795D01*
X66950226Y-30076063D01*
X66806063Y-30220226D01*
X66692795Y-30389744D01*
X66614774Y-30578102D01*
X66575000Y-30778061D01*
X52134030Y-30778061D01*
X53863141Y-29048951D01*
X53906449Y-29013409D01*
X54048284Y-28840583D01*
X54153676Y-28643407D01*
X54218577Y-28429459D01*
X54235000Y-28262712D01*
X54235000Y-28262711D01*
X54240491Y-28206960D01*
X54235000Y-28151208D01*
X54235000Y-27648061D01*
X56215000Y-27648061D01*
X56215000Y-27851939D01*
X56254774Y-28051898D01*
X56332795Y-28240256D01*
X56446063Y-28409774D01*
X56590226Y-28553937D01*
X56759744Y-28667205D01*
X56948102Y-28745226D01*
X57148061Y-28785000D01*
X57351939Y-28785000D01*
X57551898Y-28745226D01*
X57740256Y-28667205D01*
X57788454Y-28635000D01*
X67833422Y-28635000D01*
X70715000Y-31516579D01*
X70715001Y-35636544D01*
X70682795Y-35684744D01*
X70604774Y-35873102D01*
X70565000Y-36073061D01*
X70565000Y-36276939D01*
X70604774Y-36476898D01*
X70682795Y-36665256D01*
X70796063Y-36834774D01*
X70940226Y-36978937D01*
X71109744Y-37092205D01*
X71298102Y-37170226D01*
X71498061Y-37210000D01*
X71590000Y-37210000D01*
X71590000Y-42033421D01*
X71358422Y-42265000D01*
X70088424Y-42265000D01*
X70095000Y-42231939D01*
X70095000Y-42028061D01*
X70055226Y-41828102D01*
X69977205Y-41639744D01*
X69863937Y-41470226D01*
X69719774Y-41326063D01*
X69550256Y-41212795D01*
X69361898Y-41134774D01*
X69161939Y-41095000D01*
X68958061Y-41095000D01*
X68758102Y-41134774D01*
X68687662Y-41163951D01*
X68649774Y-41126063D01*
X68480256Y-41012795D01*
X68291898Y-40934774D01*
X68091939Y-40895000D01*
X67888061Y-40895000D01*
X67688102Y-40934774D01*
X67499744Y-41012795D01*
X67409641Y-41073000D01*
X63427000Y-41073000D01*
X63427000Y-38207013D01*
X64199276Y-38207013D01*
X64218213Y-38225950D01*
X64387731Y-38339218D01*
X64576089Y-38417239D01*
X64776048Y-38457013D01*
X64979926Y-38457013D01*
X65179885Y-38417239D01*
X65368243Y-38339218D01*
X65537761Y-38225950D01*
X65681924Y-38081787D01*
X65795192Y-37912269D01*
X65873213Y-37723911D01*
X65912987Y-37523952D01*
X65912987Y-37398061D01*
X66765000Y-37398061D01*
X66765000Y-37601939D01*
X66804774Y-37801898D01*
X66882795Y-37990256D01*
X66996063Y-38159774D01*
X67118074Y-38281785D01*
X67085000Y-38448061D01*
X67085000Y-38651939D01*
X67124774Y-38851898D01*
X67202795Y-39040256D01*
X67316063Y-39209774D01*
X67460226Y-39353937D01*
X67629744Y-39467205D01*
X67818102Y-39545226D01*
X68018061Y-39585000D01*
X68221939Y-39585000D01*
X68421898Y-39545226D01*
X68610256Y-39467205D01*
X68779774Y-39353937D01*
X68923937Y-39209774D01*
X69037205Y-39040256D01*
X69115226Y-38851898D01*
X69155000Y-38651939D01*
X69155000Y-38448061D01*
X69115226Y-38248102D01*
X69037205Y-38059744D01*
X68923937Y-37890226D01*
X68801926Y-37768215D01*
X68835000Y-37601939D01*
X68835000Y-37398061D01*
X68795226Y-37198102D01*
X68717205Y-37009744D01*
X68603937Y-36840226D01*
X68521366Y-36757655D01*
X68609744Y-36816707D01*
X68798102Y-36894728D01*
X68998061Y-36934502D01*
X69201939Y-36934502D01*
X69401898Y-36894728D01*
X69590256Y-36816707D01*
X69759774Y-36703439D01*
X69903937Y-36559276D01*
X70017205Y-36389758D01*
X70095226Y-36201400D01*
X70135000Y-36001441D01*
X70135000Y-35797563D01*
X70095226Y-35597604D01*
X70017205Y-35409246D01*
X69903937Y-35239728D01*
X69759774Y-35095565D01*
X69590256Y-34982297D01*
X69401898Y-34904276D01*
X69201939Y-34864502D01*
X68998061Y-34864502D01*
X68798102Y-34904276D01*
X68609744Y-34982297D01*
X68440226Y-35095565D01*
X68296063Y-35239728D01*
X68182795Y-35409246D01*
X68104774Y-35597604D01*
X68065000Y-35797563D01*
X68065000Y-36001441D01*
X68104774Y-36201400D01*
X68182795Y-36389758D01*
X68296063Y-36559276D01*
X68378634Y-36641847D01*
X68290256Y-36582795D01*
X68101898Y-36504774D01*
X67901939Y-36465000D01*
X67698061Y-36465000D01*
X67498102Y-36504774D01*
X67309744Y-36582795D01*
X67140226Y-36696063D01*
X66996063Y-36840226D01*
X66882795Y-37009744D01*
X66804774Y-37198102D01*
X66765000Y-37398061D01*
X65912987Y-37398061D01*
X65912987Y-37320074D01*
X65873213Y-37120115D01*
X65795192Y-36931757D01*
X65681924Y-36762239D01*
X65537761Y-36618076D01*
X65368243Y-36504808D01*
X65224499Y-36445267D01*
X65195226Y-36298102D01*
X65117205Y-36109744D01*
X65003937Y-35940226D01*
X64859774Y-35796063D01*
X64690256Y-35682795D01*
X64501898Y-35604774D01*
X64301939Y-35565000D01*
X64098061Y-35565000D01*
X63898102Y-35604774D01*
X63709744Y-35682795D01*
X63540226Y-35796063D01*
X63396063Y-35940226D01*
X63282795Y-36109744D01*
X63204774Y-36298102D01*
X63165000Y-36498061D01*
X63165000Y-36637013D01*
X58263227Y-36637013D01*
X58224672Y-36633216D01*
X58186116Y-36637013D01*
X58186111Y-36637013D01*
X58145698Y-36640993D01*
X58070785Y-36648371D01*
X57940966Y-36687752D01*
X57922812Y-36693259D01*
X57786439Y-36766151D01*
X57740544Y-36803817D01*
X57696859Y-36839668D01*
X57696856Y-36839671D01*
X57666908Y-36864249D01*
X57642329Y-36894198D01*
X57424842Y-37111685D01*
X57398061Y-37111685D01*
X57198102Y-37151459D01*
X57009744Y-37229480D01*
X56840226Y-37342748D01*
X56696063Y-37486911D01*
X56582795Y-37656429D01*
X56504774Y-37844787D01*
X56465000Y-38044746D01*
X56465000Y-38248624D01*
X56504774Y-38448583D01*
X56582795Y-38636941D01*
X56696063Y-38806459D01*
X56840226Y-38950622D01*
X57009744Y-39063890D01*
X57198102Y-39141911D01*
X57398061Y-39181685D01*
X57601939Y-39181685D01*
X57801898Y-39141911D01*
X57990256Y-39063890D01*
X58159774Y-38950622D01*
X58273000Y-38837396D01*
X58273000Y-46000000D01*
X58275440Y-46024776D01*
X58282667Y-46048601D01*
X58294403Y-46070557D01*
X58310197Y-46089803D01*
X58329443Y-46105597D01*
X58351399Y-46117333D01*
X58375224Y-46124560D01*
X58400000Y-46127000D01*
X63250000Y-46127000D01*
X63274776Y-46124560D01*
X63298601Y-46117333D01*
X63320557Y-46105597D01*
X63339803Y-46089803D01*
X63355597Y-46070557D01*
X63367333Y-46048601D01*
X63374560Y-46024776D01*
X63377000Y-46000000D01*
X63377000Y-44627000D01*
X65750000Y-44627000D01*
X65774776Y-44624560D01*
X65798601Y-44617333D01*
X65820557Y-44605597D01*
X65839803Y-44589803D01*
X65855597Y-44570557D01*
X65867333Y-44548601D01*
X65874560Y-44524776D01*
X65877000Y-44500000D01*
X65877000Y-43027000D01*
X67600000Y-43027000D01*
X67624776Y-43024560D01*
X67648601Y-43017333D01*
X67670557Y-43005597D01*
X67674010Y-43002763D01*
X67665000Y-43048061D01*
X67665000Y-43251939D01*
X67704774Y-43451898D01*
X67782795Y-43640256D01*
X67896063Y-43809774D01*
X68040226Y-43953937D01*
X68209744Y-44067205D01*
X68398102Y-44145226D01*
X68598061Y-44185000D01*
X68801939Y-44185000D01*
X69001898Y-44145226D01*
X69190256Y-44067205D01*
X69238454Y-44035000D01*
X71681531Y-44035000D01*
X71725000Y-44039281D01*
X71768469Y-44035000D01*
X71768477Y-44035000D01*
X71898490Y-44022195D01*
X72065313Y-43971589D01*
X72219059Y-43889411D01*
X72353817Y-43778817D01*
X72381534Y-43745044D01*
X73070050Y-43056529D01*
X73103817Y-43028817D01*
X73214411Y-42894059D01*
X73296589Y-42740313D01*
X73347195Y-42573490D01*
X73360000Y-42443477D01*
X73360000Y-42443467D01*
X73364281Y-42400001D01*
X73360000Y-42356535D01*
X73360000Y-39200000D01*
X91436928Y-39200000D01*
X91436928Y-40900000D01*
X91449188Y-41024482D01*
X91485498Y-41144180D01*
X91544463Y-41254494D01*
X91623815Y-41351185D01*
X91720506Y-41430537D01*
X91830820Y-41489502D01*
X91903380Y-41511513D01*
X91771525Y-41643368D01*
X91609010Y-41886589D01*
X91497068Y-42156842D01*
X91440000Y-42443740D01*
X91440000Y-42736260D01*
X91497068Y-43023158D01*
X91609010Y-43293411D01*
X91771525Y-43536632D01*
X91978368Y-43743475D01*
X92152760Y-43860000D01*
X91978368Y-43976525D01*
X91771525Y-44183368D01*
X91609010Y-44426589D01*
X91497068Y-44696842D01*
X91440000Y-44983740D01*
X91440000Y-45276260D01*
X91497068Y-45563158D01*
X91609010Y-45833411D01*
X91771525Y-46076632D01*
X91978368Y-46283475D01*
X92152760Y-46400000D01*
X91978368Y-46516525D01*
X91771525Y-46723368D01*
X91609010Y-46966589D01*
X91497068Y-47236842D01*
X91440000Y-47523740D01*
X91440000Y-47816260D01*
X91497068Y-48103158D01*
X91609010Y-48373411D01*
X91771525Y-48616632D01*
X91978368Y-48823475D01*
X92152760Y-48940000D01*
X91978368Y-49056525D01*
X91771525Y-49263368D01*
X91609010Y-49506589D01*
X91497068Y-49776842D01*
X91440000Y-50063740D01*
X91440000Y-50356260D01*
X91497068Y-50643158D01*
X91609010Y-50913411D01*
X91771525Y-51156632D01*
X91978368Y-51363475D01*
X92152760Y-51480000D01*
X91978368Y-51596525D01*
X91771525Y-51803368D01*
X91609010Y-52046589D01*
X91497068Y-52316842D01*
X91440000Y-52603740D01*
X91440000Y-52896260D01*
X91497068Y-53183158D01*
X91609010Y-53453411D01*
X91771525Y-53696632D01*
X91978368Y-53903475D01*
X92152760Y-54020000D01*
X91978368Y-54136525D01*
X91771525Y-54343368D01*
X91609010Y-54586589D01*
X91497068Y-54856842D01*
X91440000Y-55143740D01*
X91440000Y-55436260D01*
X91497068Y-55723158D01*
X91609010Y-55993411D01*
X91771525Y-56236632D01*
X91978368Y-56443475D01*
X92152760Y-56560000D01*
X91978368Y-56676525D01*
X91771525Y-56883368D01*
X91609010Y-57126589D01*
X91497068Y-57396842D01*
X91440000Y-57683740D01*
X91440000Y-57976260D01*
X91497068Y-58263158D01*
X91609010Y-58533411D01*
X91771525Y-58776632D01*
X91978368Y-58983475D01*
X92221589Y-59145990D01*
X92491842Y-59257932D01*
X92778740Y-59315000D01*
X93071260Y-59315000D01*
X93358158Y-59257932D01*
X93628411Y-59145990D01*
X93871632Y-58983475D01*
X94078475Y-58776632D01*
X94108956Y-58731013D01*
X94298286Y-58961714D01*
X94547248Y-59166031D01*
X94831285Y-59317852D01*
X95139484Y-59411343D01*
X95460000Y-59442911D01*
X95780515Y-59411343D01*
X96088714Y-59317852D01*
X96372751Y-59166031D01*
X96604255Y-58976042D01*
X96619463Y-59004494D01*
X96698815Y-59101185D01*
X96795506Y-59180537D01*
X96905820Y-59239502D01*
X97025518Y-59275812D01*
X97150000Y-59288072D01*
X97714250Y-59285000D01*
X97873000Y-59126250D01*
X97873000Y-57927000D01*
X97853000Y-57927000D01*
X97853000Y-57673000D01*
X97873000Y-57673000D01*
X97873000Y-55387000D01*
X97853000Y-55387000D01*
X97853000Y-55133000D01*
X97873000Y-55133000D01*
X97873000Y-52847000D01*
X97853000Y-52847000D01*
X97853000Y-52593000D01*
X97873000Y-52593000D01*
X97873000Y-50307000D01*
X97853000Y-50307000D01*
X97853000Y-50053000D01*
X97873000Y-50053000D01*
X97873000Y-47767000D01*
X97853000Y-47767000D01*
X97853000Y-47513000D01*
X97873000Y-47513000D01*
X97873000Y-45227000D01*
X97853000Y-45227000D01*
X97853000Y-44973000D01*
X97873000Y-44973000D01*
X97873000Y-42687000D01*
X97853000Y-42687000D01*
X97853000Y-42433000D01*
X97873000Y-42433000D01*
X97873000Y-40147000D01*
X97853000Y-40147000D01*
X97853000Y-39893000D01*
X97873000Y-39893000D01*
X97873000Y-38699186D01*
X97643109Y-38578519D01*
X97368748Y-38675843D01*
X97118645Y-38824822D01*
X97095000Y-38846135D01*
X97095000Y-36590319D01*
X97102911Y-36510000D01*
X97094715Y-36426787D01*
X97071343Y-36189484D01*
X96977852Y-35881285D01*
X96826031Y-35597248D01*
X96621714Y-35348286D01*
X96563072Y-35300160D01*
X96563072Y-34575000D01*
X96550812Y-34450518D01*
X96514502Y-34330820D01*
X96455537Y-34220506D01*
X96376185Y-34123815D01*
X96279494Y-34044463D01*
X96169180Y-33985498D01*
X96049482Y-33949188D01*
X95925000Y-33936928D01*
X95518097Y-33936928D01*
X95703486Y-33837836D01*
X95823374Y-33552980D01*
X94725000Y-32454605D01*
X93626626Y-33552980D01*
X93746514Y-33837836D01*
X93945912Y-33936928D01*
X93525000Y-33936928D01*
X93400518Y-33949188D01*
X93280820Y-33985498D01*
X93170506Y-34044463D01*
X93073815Y-34123815D01*
X92994463Y-34220506D01*
X92935498Y-34330820D01*
X92899188Y-34450518D01*
X92886928Y-34575000D01*
X92886928Y-36975000D01*
X92899188Y-37099482D01*
X92935498Y-37219180D01*
X92994463Y-37329494D01*
X93073815Y-37426185D01*
X93170506Y-37505537D01*
X93280820Y-37564502D01*
X93400518Y-37600812D01*
X93525000Y-37613072D01*
X93825001Y-37613072D01*
X93825000Y-38566852D01*
X93775000Y-38561928D01*
X92075000Y-38561928D01*
X91950518Y-38574188D01*
X91830820Y-38610498D01*
X91720506Y-38669463D01*
X91623815Y-38748815D01*
X91544463Y-38845506D01*
X91485498Y-38955820D01*
X91449188Y-39075518D01*
X91436928Y-39200000D01*
X73360000Y-39200000D01*
X73360000Y-32968061D01*
X80765000Y-32968061D01*
X80765000Y-33171939D01*
X80804774Y-33371898D01*
X80882795Y-33560256D01*
X80996063Y-33729774D01*
X81140226Y-33873937D01*
X81309744Y-33987205D01*
X81498102Y-34065226D01*
X81698061Y-34105000D01*
X81901939Y-34105000D01*
X82101898Y-34065226D01*
X82290256Y-33987205D01*
X82459774Y-33873937D01*
X82603937Y-33729774D01*
X82717205Y-33560256D01*
X82795226Y-33371898D01*
X82835000Y-33171939D01*
X82835000Y-32968061D01*
X82795226Y-32768102D01*
X82717205Y-32579744D01*
X82603937Y-32410226D01*
X82523395Y-32329684D01*
X92881933Y-32329684D01*
X92928015Y-32688198D01*
X93043154Y-33030833D01*
X93162164Y-33253486D01*
X93447020Y-33373374D01*
X94545395Y-32275000D01*
X94904605Y-32275000D01*
X96002980Y-33373374D01*
X96287836Y-33253486D01*
X96448699Y-32929790D01*
X96543322Y-32580931D01*
X96568067Y-32220316D01*
X96521985Y-31861802D01*
X96406846Y-31519167D01*
X96287836Y-31296514D01*
X96002980Y-31176626D01*
X94904605Y-32275000D01*
X94545395Y-32275000D01*
X93447020Y-31176626D01*
X93162164Y-31296514D01*
X93001301Y-31620210D01*
X92906678Y-31969069D01*
X92881933Y-32329684D01*
X82523395Y-32329684D01*
X82459774Y-32266063D01*
X82290256Y-32152795D01*
X82101898Y-32074774D01*
X81901939Y-32035000D01*
X81698061Y-32035000D01*
X81498102Y-32074774D01*
X81309744Y-32152795D01*
X81140226Y-32266063D01*
X80996063Y-32410226D01*
X80882795Y-32579744D01*
X80804774Y-32768102D01*
X80765000Y-32968061D01*
X73360000Y-32968061D01*
X73360000Y-30997020D01*
X93626626Y-30997020D01*
X94725000Y-32095395D01*
X95823374Y-30997020D01*
X95703486Y-30712164D01*
X95379790Y-30551301D01*
X95030931Y-30456678D01*
X94670316Y-30431933D01*
X94311802Y-30478015D01*
X93969167Y-30593154D01*
X93746514Y-30712164D01*
X93626626Y-30997020D01*
X73360000Y-30997020D01*
X73360000Y-30843465D01*
X73364281Y-30799999D01*
X73360000Y-30756533D01*
X73360000Y-30756523D01*
X73347195Y-30626510D01*
X73296589Y-30459687D01*
X73214411Y-30305941D01*
X73103817Y-30171183D01*
X73070049Y-30143470D01*
X69281534Y-26354956D01*
X69253817Y-26321183D01*
X69119059Y-26210589D01*
X69108603Y-26205000D01*
X69111788Y-26205000D01*
X69331067Y-26161383D01*
X69537624Y-26075824D01*
X69635000Y-26010759D01*
X69732376Y-26075824D01*
X69938933Y-26161383D01*
X70158212Y-26205000D01*
X70381788Y-26205000D01*
X70601067Y-26161383D01*
X70807624Y-26075824D01*
X70905000Y-26010759D01*
X71002376Y-26075824D01*
X71208933Y-26161383D01*
X71428212Y-26205000D01*
X71651788Y-26205000D01*
X71871067Y-26161383D01*
X72077624Y-26075824D01*
X72263520Y-25951612D01*
X72421612Y-25793520D01*
X72545824Y-25607624D01*
X72631383Y-25401067D01*
X72675000Y-25181788D01*
X72675000Y-24958212D01*
X72631383Y-24738933D01*
X72585112Y-24627226D01*
X72629502Y-24544180D01*
X72665812Y-24424482D01*
X72678072Y-24300000D01*
X72678072Y-23300000D01*
X72665812Y-23175518D01*
X72629502Y-23055820D01*
X72570537Y-22945506D01*
X72491185Y-22848815D01*
X72394494Y-22769463D01*
X72284180Y-22710498D01*
X72164482Y-22674188D01*
X72040000Y-22661928D01*
X71040000Y-22661928D01*
X70915518Y-22674188D01*
X70795820Y-22710498D01*
X70706820Y-22758070D01*
X70626864Y-22722554D01*
X70571874Y-22705881D01*
X70397000Y-22832046D01*
X70397000Y-23673000D01*
X70401928Y-23673000D01*
X70401928Y-23927000D01*
X70397000Y-23927000D01*
X70397000Y-23938026D01*
X70381788Y-23935000D01*
X70158212Y-23935000D01*
X70143000Y-23938026D01*
X70143000Y-23927000D01*
X69127000Y-23927000D01*
X69127000Y-23938026D01*
X69111788Y-23935000D01*
X68888212Y-23935000D01*
X68873000Y-23938026D01*
X68873000Y-23927000D01*
X68861974Y-23927000D01*
X68865000Y-23911788D01*
X68865000Y-23688212D01*
X68861974Y-23673000D01*
X68873000Y-23673000D01*
X68873000Y-22832046D01*
X69127000Y-22832046D01*
X69127000Y-23673000D01*
X70143000Y-23673000D01*
X70143000Y-22832046D01*
X69968126Y-22705881D01*
X69913136Y-22722554D01*
X69709794Y-22812877D01*
X69635000Y-22865639D01*
X69560206Y-22812877D01*
X69356864Y-22722554D01*
X69301874Y-22705881D01*
X69127000Y-22832046D01*
X68873000Y-22832046D01*
X68698126Y-22705881D01*
X68643136Y-22722554D01*
X68439794Y-22812877D01*
X68369658Y-22862353D01*
X68267624Y-22794176D01*
X68061067Y-22708617D01*
X67841788Y-22665000D01*
X67618212Y-22665000D01*
X67398933Y-22708617D01*
X67192376Y-22794176D01*
X67090342Y-22862353D01*
X67020206Y-22812877D01*
X66816864Y-22722554D01*
X66761874Y-22705881D01*
X66587000Y-22832046D01*
X66587000Y-23673000D01*
X66598026Y-23673000D01*
X66595000Y-23688212D01*
X66595000Y-23911788D01*
X66598026Y-23927000D01*
X66587000Y-23927000D01*
X66587000Y-23938026D01*
X66571788Y-23935000D01*
X66348212Y-23935000D01*
X66333000Y-23938026D01*
X66333000Y-23927000D01*
X65490871Y-23927000D01*
X65365874Y-24101876D01*
X65445790Y-24309529D01*
X65522256Y-24430488D01*
X65454176Y-24532376D01*
X65368617Y-24738933D01*
X65325000Y-24958212D01*
X65325000Y-25181788D01*
X65368617Y-25401067D01*
X65454176Y-25607624D01*
X65575000Y-25788450D01*
X65575000Y-26141530D01*
X65570719Y-26185000D01*
X65575000Y-26228469D01*
X65575000Y-26228476D01*
X65579829Y-26277502D01*
X65587805Y-26358490D01*
X65603157Y-26409096D01*
X65638411Y-26525312D01*
X65720589Y-26679058D01*
X65831183Y-26813817D01*
X65864956Y-26841534D01*
X65888422Y-26865000D01*
X57788454Y-26865000D01*
X57740256Y-26832795D01*
X57551898Y-26754774D01*
X57351939Y-26715000D01*
X57148061Y-26715000D01*
X56948102Y-26754774D01*
X56759744Y-26832795D01*
X56590226Y-26946063D01*
X56446063Y-27090226D01*
X56332795Y-27259744D01*
X56254774Y-27448102D01*
X56215000Y-27648061D01*
X54235000Y-27648061D01*
X54235000Y-24368061D01*
X58335000Y-24368061D01*
X58335000Y-24571939D01*
X58374774Y-24771898D01*
X58452795Y-24960256D01*
X58566063Y-25129774D01*
X58710226Y-25273937D01*
X58879744Y-25387205D01*
X59068102Y-25465226D01*
X59268061Y-25505000D01*
X59471939Y-25505000D01*
X59671898Y-25465226D01*
X59860256Y-25387205D01*
X60029774Y-25273937D01*
X60173937Y-25129774D01*
X60287205Y-24960256D01*
X60365226Y-24771898D01*
X60405000Y-24571939D01*
X60405000Y-24368061D01*
X60365226Y-24168102D01*
X60287205Y-23979744D01*
X60173937Y-23810226D01*
X60029774Y-23666063D01*
X59860256Y-23552795D01*
X59728270Y-23498124D01*
X65365874Y-23498124D01*
X65490871Y-23673000D01*
X66333000Y-23673000D01*
X66333000Y-22832046D01*
X66158126Y-22705881D01*
X66103136Y-22722554D01*
X65899794Y-22812877D01*
X65717980Y-22941135D01*
X65564682Y-23102399D01*
X65445790Y-23290471D01*
X65365874Y-23498124D01*
X59728270Y-23498124D01*
X59671898Y-23474774D01*
X59471939Y-23435000D01*
X59268061Y-23435000D01*
X59068102Y-23474774D01*
X58879744Y-23552795D01*
X58710226Y-23666063D01*
X58566063Y-23810226D01*
X58452795Y-23979744D01*
X58374774Y-24168102D01*
X58335000Y-24368061D01*
X54235000Y-24368061D01*
X54235000Y-23645131D01*
X55640000Y-22240132D01*
X55640000Y-22334703D01*
X55673049Y-22500853D01*
X55737878Y-22657363D01*
X55831995Y-22798218D01*
X55951782Y-22918005D01*
X56092637Y-23012122D01*
X56249147Y-23076951D01*
X56415297Y-23110000D01*
X56584703Y-23110000D01*
X56750853Y-23076951D01*
X56907363Y-23012122D01*
X57048218Y-22918005D01*
X57168005Y-22798218D01*
X57262122Y-22657363D01*
X57326951Y-22500853D01*
X57360000Y-22334703D01*
X57360000Y-22210000D01*
X58640000Y-22210000D01*
X58640000Y-22334703D01*
X58673049Y-22500853D01*
X58737878Y-22657363D01*
X58831995Y-22798218D01*
X58951782Y-22918005D01*
X59092637Y-23012122D01*
X59249147Y-23076951D01*
X59415297Y-23110000D01*
X59584703Y-23110000D01*
X59750853Y-23076951D01*
X59907363Y-23012122D01*
X60048218Y-22918005D01*
X60168005Y-22798218D01*
X60262122Y-22657363D01*
X60326951Y-22500853D01*
X60360000Y-22334703D01*
X60360000Y-22210000D01*
X72779869Y-22210000D01*
X75808009Y-25238141D01*
X75843551Y-25281449D01*
X76016377Y-25423284D01*
X76213553Y-25528676D01*
X76377705Y-25578471D01*
X76427500Y-25593577D01*
X76649999Y-25615491D01*
X76705751Y-25610000D01*
X84254869Y-25610000D01*
X85615000Y-26970132D01*
X85615000Y-27619248D01*
X85609509Y-27675000D01*
X85615000Y-27730751D01*
X85615000Y-28269249D01*
X85609509Y-28325000D01*
X85615000Y-28380751D01*
X85615000Y-28436788D01*
X85625932Y-28491748D01*
X85631423Y-28547498D01*
X85647684Y-28601103D01*
X85658617Y-28656067D01*
X85680064Y-28707845D01*
X85696324Y-28761446D01*
X85722730Y-28810848D01*
X85744176Y-28862624D01*
X85775307Y-28909215D01*
X85801716Y-28958623D01*
X85837259Y-29001932D01*
X85868388Y-29048520D01*
X85908009Y-29088141D01*
X85943551Y-29131449D01*
X85986859Y-29166991D01*
X86026480Y-29206612D01*
X86073068Y-29237741D01*
X86116377Y-29273284D01*
X86165786Y-29299693D01*
X86212376Y-29330824D01*
X86264149Y-29352269D01*
X86313553Y-29378676D01*
X86367158Y-29394937D01*
X86418933Y-29416383D01*
X86473894Y-29427315D01*
X86527501Y-29443577D01*
X86583253Y-29449068D01*
X86638212Y-29460000D01*
X86694248Y-29460000D01*
X86750000Y-29465491D01*
X86805751Y-29460000D01*
X86861788Y-29460000D01*
X86916748Y-29449068D01*
X86972498Y-29443577D01*
X87026103Y-29427316D01*
X87081067Y-29416383D01*
X87132845Y-29394936D01*
X87186446Y-29378676D01*
X87190113Y-29376716D01*
X87235848Y-29352270D01*
X87287624Y-29330824D01*
X87334215Y-29299693D01*
X87383623Y-29273284D01*
X87426932Y-29237741D01*
X87473520Y-29206612D01*
X87513141Y-29166991D01*
X87556449Y-29131449D01*
X87591991Y-29088141D01*
X87631612Y-29048520D01*
X87631614Y-29048517D01*
X88197313Y-28482818D01*
X91696787Y-28482818D01*
X92188946Y-29085149D01*
X93039933Y-29555063D01*
X93966243Y-29849929D01*
X94932281Y-29958414D01*
X95900921Y-29876351D01*
X96834938Y-29606893D01*
X97698440Y-29160394D01*
X97811054Y-29085149D01*
X98303213Y-28482818D01*
X95000000Y-25179605D01*
X91696787Y-28482818D01*
X88197313Y-28482818D01*
X88688140Y-27991992D01*
X88731449Y-27956449D01*
X88873284Y-27783623D01*
X88978676Y-27586447D01*
X88981690Y-27576510D01*
X89043577Y-27372499D01*
X89065491Y-27150000D01*
X89060000Y-27094249D01*
X89060000Y-26555752D01*
X89065491Y-26500000D01*
X89060000Y-26444248D01*
X89060000Y-26388212D01*
X89049068Y-26333253D01*
X89043577Y-26277501D01*
X89027315Y-26223894D01*
X89016383Y-26168933D01*
X88994937Y-26117158D01*
X88978676Y-26063553D01*
X88952269Y-26014149D01*
X88930824Y-25962376D01*
X88899693Y-25915786D01*
X88873284Y-25866377D01*
X88837741Y-25823068D01*
X88806612Y-25776480D01*
X88766991Y-25736859D01*
X88731449Y-25693551D01*
X88688141Y-25658009D01*
X88648520Y-25618388D01*
X88601932Y-25587259D01*
X88558623Y-25551716D01*
X88509214Y-25525307D01*
X88462624Y-25494176D01*
X88410851Y-25472731D01*
X88361447Y-25446324D01*
X88307842Y-25430063D01*
X88256067Y-25408617D01*
X88201106Y-25397685D01*
X88147499Y-25381423D01*
X88091747Y-25375932D01*
X88036788Y-25365000D01*
X87980751Y-25365000D01*
X87925000Y-25359509D01*
X87869248Y-25365000D01*
X87220132Y-25365000D01*
X86787413Y-24932281D01*
X90041586Y-24932281D01*
X90123649Y-25900921D01*
X90393107Y-26834938D01*
X90839606Y-27698440D01*
X90914851Y-27811054D01*
X91517182Y-28303213D01*
X94820395Y-25000000D01*
X91517182Y-21696787D01*
X90914851Y-22188946D01*
X90444937Y-23039933D01*
X90150071Y-23966243D01*
X90041586Y-24932281D01*
X86787413Y-24932281D01*
X85566996Y-23711865D01*
X85531449Y-23668551D01*
X85358623Y-23526716D01*
X85161447Y-23421324D01*
X84947499Y-23356423D01*
X84780752Y-23340000D01*
X84780751Y-23340000D01*
X84725000Y-23334509D01*
X84669249Y-23340000D01*
X77120132Y-23340000D01*
X74440131Y-20660000D01*
X76641840Y-20660000D01*
X76584618Y-20729725D01*
G37*
X76584618Y-20729725D02*
X76460653Y-20961646D01*
X76384317Y-21213294D01*
X76365000Y-21409421D01*
X76365000Y-21940578D01*
X76384317Y-22136705D01*
X76460653Y-22388353D01*
X76584618Y-22620274D01*
X76751445Y-22823555D01*
X76954725Y-22990382D01*
X77186646Y-23114347D01*
X77438294Y-23190683D01*
X77700000Y-23216459D01*
X77961705Y-23190683D01*
X78213353Y-23114347D01*
X78445274Y-22990382D01*
X78648555Y-22823555D01*
X78815382Y-22620275D01*
X78939347Y-22388354D01*
X79015683Y-22136706D01*
X79035000Y-21940579D01*
X79035000Y-21409422D01*
X79015683Y-21213295D01*
X78939347Y-20961647D01*
X78815382Y-20729725D01*
X78758160Y-20660000D01*
X83241840Y-20660000D01*
X83184618Y-20729725D01*
X83060653Y-20961646D01*
X82984317Y-21213294D01*
X82965000Y-21409421D01*
X82965000Y-21940578D01*
X82984317Y-22136705D01*
X83060653Y-22388353D01*
X83184618Y-22620274D01*
X83351445Y-22823555D01*
X83554725Y-22990382D01*
X83786646Y-23114347D01*
X84038294Y-23190683D01*
X84300000Y-23216459D01*
X84561705Y-23190683D01*
X84813353Y-23114347D01*
X85045274Y-22990382D01*
X85248555Y-22823555D01*
X85415382Y-22620275D01*
X85539347Y-22388354D01*
X85615683Y-22136706D01*
X85635000Y-21940579D01*
X85635000Y-21409422D01*
X85615683Y-21213295D01*
X85539347Y-20961647D01*
X85415382Y-20729725D01*
X85358160Y-20660000D01*
X92648907Y-20660000D01*
X92301560Y-20839606D01*
X92188946Y-20914851D01*
X91696787Y-21517182D01*
X95000000Y-24820395D01*
X95014143Y-24806253D01*
X95193748Y-24985858D01*
X95179605Y-25000000D01*
X98482818Y-28303213D01*
X99085149Y-27811054D01*
X99340000Y-27349534D01*
X99340000Y-39396599D01*
X99271641Y-39253080D01*
X99097588Y-39019731D01*
X98881355Y-38824822D01*
X98631252Y-38675843D01*
X98356891Y-38578519D01*
X98127000Y-38699186D01*
X98127000Y-39893000D01*
X98147000Y-39893000D01*
X98147000Y-40147000D01*
X98127000Y-40147000D01*
X98127000Y-42433000D01*
X98147000Y-42433000D01*
X98147000Y-42687000D01*
X98127000Y-42687000D01*
X98127000Y-44973000D01*
X98147000Y-44973000D01*
X98147000Y-45227000D01*
X98127000Y-45227000D01*
X98127000Y-47513000D01*
X98147000Y-47513000D01*
X98147000Y-47767000D01*
X98127000Y-47767000D01*
X98127000Y-50053000D01*
X98147000Y-50053000D01*
X98147000Y-50307000D01*
X98127000Y-50307000D01*
X98127000Y-52593000D01*
X98147000Y-52593000D01*
X98147000Y-52847000D01*
X98127000Y-52847000D01*
X98127000Y-55133000D01*
X98147000Y-55133000D01*
X98147000Y-55387000D01*
X98127000Y-55387000D01*
X98127000Y-57673000D01*
X98147000Y-57673000D01*
X98147000Y-57927000D01*
X98127000Y-57927000D01*
X98127000Y-59126250D01*
X98285750Y-59285000D01*
X98850000Y-59288072D01*
X98974482Y-59275812D01*
X99094180Y-59239502D01*
X99204494Y-59180537D01*
X99301185Y-59101185D01*
X99340001Y-59053888D01*
X99340001Y-62648909D01*
X99160394Y-62301560D01*
X99085149Y-62188946D01*
X98482818Y-61696787D01*
X95179605Y-65000000D01*
X95193748Y-65014143D01*
X95014143Y-65193748D01*
X95000000Y-65179605D01*
X91696787Y-68482818D01*
X92188946Y-69085149D01*
X92650466Y-69340000D01*
X27351093Y-69340000D01*
X27698440Y-69160394D01*
X27811054Y-69085149D01*
X28303213Y-68482818D01*
X25000000Y-65179605D01*
X24985858Y-65193748D01*
X24806253Y-65014143D01*
X24820395Y-65000000D01*
X25179605Y-65000000D01*
X28482818Y-68303213D01*
X29085149Y-67811054D01*
X29555063Y-66960067D01*
X29746647Y-66358212D01*
X35245000Y-66358212D01*
X35245000Y-66581788D01*
X35288617Y-66801067D01*
X35374176Y-67007624D01*
X35498388Y-67193520D01*
X35656480Y-67351612D01*
X35842376Y-67475824D01*
X36048933Y-67561383D01*
X36268212Y-67605000D01*
X36491788Y-67605000D01*
X36711067Y-67561383D01*
X36917624Y-67475824D01*
X37103520Y-67351612D01*
X37261612Y-67193520D01*
X37385824Y-67007624D01*
X37471383Y-66801067D01*
X37515000Y-66581788D01*
X37515000Y-66368212D01*
X46235000Y-66368212D01*
X46235000Y-66591788D01*
X46278617Y-66811067D01*
X46364176Y-67017624D01*
X46488388Y-67203520D01*
X46646480Y-67361612D01*
X46832376Y-67485824D01*
X47038933Y-67571383D01*
X47258212Y-67615000D01*
X47481788Y-67615000D01*
X47701067Y-67571383D01*
X47907624Y-67485824D01*
X48093520Y-67361612D01*
X48251612Y-67203520D01*
X48375824Y-67017624D01*
X48461383Y-66811067D01*
X48505000Y-66591788D01*
X48505000Y-66368212D01*
X57245000Y-66368212D01*
X57245000Y-66591788D01*
X57288617Y-66811067D01*
X57374176Y-67017624D01*
X57498388Y-67203520D01*
X57656480Y-67361612D01*
X57842376Y-67485824D01*
X58048933Y-67571383D01*
X58268212Y-67615000D01*
X58491788Y-67615000D01*
X58711067Y-67571383D01*
X58917624Y-67485824D01*
X59103520Y-67361612D01*
X59261612Y-67203520D01*
X59385824Y-67017624D01*
X59471383Y-66811067D01*
X59515000Y-66591788D01*
X59515000Y-66368212D01*
X68235000Y-66368212D01*
X68235000Y-66591788D01*
X68278617Y-66811067D01*
X68364176Y-67017624D01*
X68488388Y-67203520D01*
X68646480Y-67361612D01*
X68832376Y-67485824D01*
X69038933Y-67571383D01*
X69258212Y-67615000D01*
X69481788Y-67615000D01*
X69701067Y-67571383D01*
X69907624Y-67485824D01*
X70093520Y-67361612D01*
X70251612Y-67203520D01*
X70375824Y-67017624D01*
X70461383Y-66811067D01*
X70505000Y-66591788D01*
X70505000Y-66368212D01*
X78995000Y-66368212D01*
X78995000Y-66591788D01*
X79038617Y-66811067D01*
X79124176Y-67017624D01*
X79248388Y-67203520D01*
X79406480Y-67361612D01*
X79592376Y-67485824D01*
X79798933Y-67571383D01*
X80018212Y-67615000D01*
X80241788Y-67615000D01*
X80461067Y-67571383D01*
X80667624Y-67485824D01*
X80853520Y-67361612D01*
X81011612Y-67203520D01*
X81135824Y-67017624D01*
X81221383Y-66811067D01*
X81265000Y-66591788D01*
X81265000Y-66368212D01*
X81221383Y-66148933D01*
X81135824Y-65942376D01*
X81011612Y-65756480D01*
X80853520Y-65598388D01*
X80667624Y-65474176D01*
X80461067Y-65388617D01*
X80241788Y-65345000D01*
X80018212Y-65345000D01*
X79798933Y-65388617D01*
X79592376Y-65474176D01*
X79406480Y-65598388D01*
X79248388Y-65756480D01*
X79124176Y-65942376D01*
X79038617Y-66148933D01*
X78995000Y-66368212D01*
X70505000Y-66368212D01*
X70461383Y-66148933D01*
X70375824Y-65942376D01*
X70251612Y-65756480D01*
X70093520Y-65598388D01*
X69907624Y-65474176D01*
X69701067Y-65388617D01*
X69481788Y-65345000D01*
X69258212Y-65345000D01*
X69038933Y-65388617D01*
X68832376Y-65474176D01*
X68646480Y-65598388D01*
X68488388Y-65756480D01*
X68364176Y-65942376D01*
X68278617Y-66148933D01*
X68235000Y-66368212D01*
X59515000Y-66368212D01*
X59471383Y-66148933D01*
X59385824Y-65942376D01*
X59261612Y-65756480D01*
X59103520Y-65598388D01*
X58917624Y-65474176D01*
X58711067Y-65388617D01*
X58491788Y-65345000D01*
X58268212Y-65345000D01*
X58048933Y-65388617D01*
X57842376Y-65474176D01*
X57656480Y-65598388D01*
X57498388Y-65756480D01*
X57374176Y-65942376D01*
X57288617Y-66148933D01*
X57245000Y-66368212D01*
X48505000Y-66368212D01*
X48461383Y-66148933D01*
X48375824Y-65942376D01*
X48251612Y-65756480D01*
X48093520Y-65598388D01*
X47907624Y-65474176D01*
X47701067Y-65388617D01*
X47481788Y-65345000D01*
X47258212Y-65345000D01*
X47038933Y-65388617D01*
X46832376Y-65474176D01*
X46646480Y-65598388D01*
X46488388Y-65756480D01*
X46364176Y-65942376D01*
X46278617Y-66148933D01*
X46235000Y-66368212D01*
X37515000Y-66368212D01*
X37515000Y-66358212D01*
X37471383Y-66138933D01*
X37385824Y-65932376D01*
X37261612Y-65746480D01*
X37103520Y-65588388D01*
X36917624Y-65464176D01*
X36711067Y-65378617D01*
X36491788Y-65335000D01*
X36268212Y-65335000D01*
X36048933Y-65378617D01*
X35842376Y-65464176D01*
X35656480Y-65588388D01*
X35498388Y-65746480D01*
X35374176Y-65932376D01*
X35288617Y-66138933D01*
X35245000Y-66358212D01*
X29746647Y-66358212D01*
X29849929Y-66033757D01*
X29958414Y-65067719D01*
X29946940Y-64932281D01*
X90041586Y-64932281D01*
X90123649Y-65900921D01*
X90393107Y-66834938D01*
X90839606Y-67698440D01*
X90914851Y-67811054D01*
X91517182Y-68303213D01*
X94820395Y-65000000D01*
X91517182Y-61696787D01*
X90914851Y-62188946D01*
X90444937Y-63039933D01*
X90150071Y-63966243D01*
X90041586Y-64932281D01*
X29946940Y-64932281D01*
X29876351Y-64099079D01*
X29606893Y-63165062D01*
X29160394Y-62301560D01*
X29085149Y-62188946D01*
X28482818Y-61696787D01*
X25179605Y-65000000D01*
X24820395Y-65000000D01*
X21517182Y-61696787D01*
X20914851Y-62188946D01*
X20660000Y-62650466D01*
X20660000Y-61517182D01*
X21696787Y-61517182D01*
X25000000Y-64820395D01*
X28303213Y-61517182D01*
X91696787Y-61517182D01*
X95000000Y-64820395D01*
X98303213Y-61517182D01*
X97811054Y-60914851D01*
X96960067Y-60444937D01*
X96033757Y-60150071D01*
X95067719Y-60041586D01*
X94099079Y-60123649D01*
X93165062Y-60393107D01*
X92301560Y-60839606D01*
X92188946Y-60914851D01*
X91696787Y-61517182D01*
X28303213Y-61517182D01*
X27811054Y-60914851D01*
X26960067Y-60444937D01*
X26655735Y-60348061D01*
X70165000Y-60348061D01*
X70165000Y-60551939D01*
X70204774Y-60751898D01*
X70282795Y-60940256D01*
X70396063Y-61109774D01*
X70540226Y-61253937D01*
X70709744Y-61367205D01*
X70898102Y-61445226D01*
X71098061Y-61485000D01*
X71301939Y-61485000D01*
X71501898Y-61445226D01*
X71690256Y-61367205D01*
X71859774Y-61253937D01*
X72003937Y-61109774D01*
X72117205Y-60940256D01*
X72195226Y-60751898D01*
X72235000Y-60551939D01*
X72235000Y-60348061D01*
X72195226Y-60148102D01*
X72117205Y-59959744D01*
X72003937Y-59790226D01*
X71859774Y-59646063D01*
X71690256Y-59532795D01*
X71501898Y-59454774D01*
X71301939Y-59415000D01*
X71098061Y-59415000D01*
X70898102Y-59454774D01*
X70709744Y-59532795D01*
X70540226Y-59646063D01*
X70396063Y-59790226D01*
X70282795Y-59959744D01*
X70204774Y-60148102D01*
X70165000Y-60348061D01*
X26655735Y-60348061D01*
X26033757Y-60150071D01*
X25067719Y-60041586D01*
X24099079Y-60123649D01*
X23165062Y-60393107D01*
X22301560Y-60839606D01*
X22188946Y-60914851D01*
X21696787Y-61517182D01*
X20660000Y-61517182D01*
X20660000Y-58873061D01*
X64365000Y-58873061D01*
X64365000Y-59076939D01*
X64404774Y-59276898D01*
X64482795Y-59465256D01*
X64596063Y-59634774D01*
X64740226Y-59778937D01*
X64909744Y-59892205D01*
X65098102Y-59970226D01*
X65298061Y-60010000D01*
X65501939Y-60010000D01*
X65701898Y-59970226D01*
X65890256Y-59892205D01*
X66059774Y-59778937D01*
X66203937Y-59634774D01*
X66317205Y-59465256D01*
X66395226Y-59276898D01*
X66435000Y-59076939D01*
X66435000Y-58873061D01*
X66395226Y-58673102D01*
X66317205Y-58484744D01*
X66292695Y-58448061D01*
X81565000Y-58448061D01*
X81565000Y-58651939D01*
X81604774Y-58851898D01*
X81682795Y-59040256D01*
X81796063Y-59209774D01*
X81940226Y-59353937D01*
X82109744Y-59467205D01*
X82298102Y-59545226D01*
X82498061Y-59585000D01*
X82701939Y-59585000D01*
X82901898Y-59545226D01*
X83090256Y-59467205D01*
X83099134Y-59461273D01*
X83124233Y-59478044D01*
X83312591Y-59556065D01*
X83512550Y-59595839D01*
X83716428Y-59595839D01*
X83916387Y-59556065D01*
X84104745Y-59478044D01*
X84274263Y-59364776D01*
X84418426Y-59220613D01*
X84531694Y-59051095D01*
X84609715Y-58862737D01*
X84649489Y-58662778D01*
X84649489Y-58458900D01*
X84609715Y-58258941D01*
X84531694Y-58070583D01*
X84418426Y-57901065D01*
X84310000Y-57792639D01*
X84310000Y-55791578D01*
X86720049Y-53381530D01*
X86753817Y-53353817D01*
X86864411Y-53219059D01*
X86892127Y-53167205D01*
X86946589Y-53065314D01*
X86997195Y-52898490D01*
X86997434Y-52896063D01*
X87010000Y-52768477D01*
X87010000Y-52768469D01*
X87014281Y-52725000D01*
X87010000Y-52681531D01*
X87010000Y-46875870D01*
X87067205Y-46790256D01*
X87145226Y-46601898D01*
X87185000Y-46401939D01*
X87185000Y-46198061D01*
X87145226Y-45998102D01*
X87067205Y-45809744D01*
X86953937Y-45640226D01*
X86809774Y-45496063D01*
X86640256Y-45382795D01*
X86451898Y-45304774D01*
X86251939Y-45265000D01*
X86195952Y-45265000D01*
X86171589Y-45184687D01*
X86116996Y-45082550D01*
X86095226Y-44973102D01*
X86017205Y-44784744D01*
X85903937Y-44615226D01*
X85759774Y-44471063D01*
X85590256Y-44357795D01*
X85401898Y-44279774D01*
X85201939Y-44240000D01*
X84998061Y-44240000D01*
X84798102Y-44279774D01*
X84609744Y-44357795D01*
X84440226Y-44471063D01*
X84296063Y-44615226D01*
X84182795Y-44784744D01*
X84104774Y-44973102D01*
X84065000Y-45173061D01*
X84065000Y-45376939D01*
X84104774Y-45576898D01*
X84182795Y-45765256D01*
X84296063Y-45934774D01*
X84440226Y-46078937D01*
X84465000Y-46095490D01*
X84465001Y-48967598D01*
X84451939Y-48965000D01*
X84248061Y-48965000D01*
X84048102Y-49004774D01*
X83895000Y-49068191D01*
X83741898Y-49004774D01*
X83541939Y-48965000D01*
X83338061Y-48965000D01*
X83138102Y-49004774D01*
X82949744Y-49082795D01*
X82780226Y-49196063D01*
X82636063Y-49340226D01*
X82522795Y-49509744D01*
X82444774Y-49698102D01*
X82405000Y-49898061D01*
X82405000Y-50101939D01*
X82444774Y-50301898D01*
X82522795Y-50490256D01*
X82636063Y-50659774D01*
X82780226Y-50803937D01*
X82949744Y-50917205D01*
X83138102Y-50995226D01*
X83338061Y-51035000D01*
X83541939Y-51035000D01*
X83741898Y-50995226D01*
X83895000Y-50931809D01*
X84048102Y-50995226D01*
X84248061Y-51035000D01*
X84451939Y-51035000D01*
X84465001Y-51032402D01*
X84465001Y-52008420D01*
X82004956Y-54468466D01*
X81971183Y-54496183D01*
X81860589Y-54630942D01*
X81778411Y-54784688D01*
X81763818Y-54832795D01*
X81729458Y-54946063D01*
X81727805Y-54951511D01*
X81715000Y-55081524D01*
X81715000Y-55081531D01*
X81710719Y-55125000D01*
X81715000Y-55168469D01*
X81715001Y-58011544D01*
X81682795Y-58059744D01*
X81604774Y-58248102D01*
X81565000Y-58448061D01*
X66292695Y-58448061D01*
X66203937Y-58315226D01*
X66059774Y-58171063D01*
X65890256Y-58057795D01*
X65701898Y-57979774D01*
X65501939Y-57940000D01*
X65298061Y-57940000D01*
X65098102Y-57979774D01*
X64909744Y-58057795D01*
X64740226Y-58171063D01*
X64596063Y-58315226D01*
X64482795Y-58484744D01*
X64404774Y-58673102D01*
X64365000Y-58873061D01*
X20660000Y-58873061D01*
X20660000Y-57373061D01*
X60015000Y-57373061D01*
X60015000Y-57576939D01*
X60054774Y-57776898D01*
X60132795Y-57965256D01*
X60246063Y-58134774D01*
X60390226Y-58278937D01*
X60559744Y-58392205D01*
X60748102Y-58470226D01*
X60948061Y-58510000D01*
X61151939Y-58510000D01*
X61351898Y-58470226D01*
X61540256Y-58392205D01*
X61709774Y-58278937D01*
X61853937Y-58134774D01*
X61967205Y-57965256D01*
X62045226Y-57776898D01*
X62085000Y-57576939D01*
X62085000Y-57373061D01*
X62045226Y-57173102D01*
X61967205Y-56984744D01*
X61909286Y-56898061D01*
X65465000Y-56898061D01*
X65465000Y-57101939D01*
X65504774Y-57301898D01*
X65582795Y-57490256D01*
X65696063Y-57659774D01*
X65840226Y-57803937D01*
X66009744Y-57917205D01*
X66198102Y-57995226D01*
X66398061Y-58035000D01*
X66601939Y-58035000D01*
X66801898Y-57995226D01*
X66990256Y-57917205D01*
X67159774Y-57803937D01*
X67182026Y-57781685D01*
X67961610Y-57781685D01*
X68000000Y-57785466D01*
X68038390Y-57781685D01*
X68038398Y-57781685D01*
X68153237Y-57770374D01*
X68300585Y-57725677D01*
X68436382Y-57653092D01*
X68555409Y-57555409D01*
X68579889Y-57525580D01*
X70457408Y-55648061D01*
X72715000Y-55648061D01*
X72715000Y-55851939D01*
X72754774Y-56051898D01*
X72832795Y-56240256D01*
X72946063Y-56409774D01*
X73090226Y-56553937D01*
X73259744Y-56667205D01*
X73448102Y-56745226D01*
X73648061Y-56785000D01*
X73851939Y-56785000D01*
X74051898Y-56745226D01*
X74240256Y-56667205D01*
X74409774Y-56553937D01*
X74553937Y-56409774D01*
X74667205Y-56240256D01*
X74745226Y-56051898D01*
X74785000Y-55851939D01*
X74785000Y-55648061D01*
X74745226Y-55448102D01*
X74667205Y-55259744D01*
X74553937Y-55090226D01*
X74531685Y-55067974D01*
X74531685Y-53598061D01*
X75165000Y-53598061D01*
X75165000Y-53801939D01*
X75204774Y-54001898D01*
X75282795Y-54190256D01*
X75396063Y-54359774D01*
X75540226Y-54503937D01*
X75709744Y-54617205D01*
X75898102Y-54695226D01*
X76098061Y-54735000D01*
X76301939Y-54735000D01*
X76501898Y-54695226D01*
X76690256Y-54617205D01*
X76859774Y-54503937D01*
X77003937Y-54359774D01*
X77117205Y-54190256D01*
X77195226Y-54001898D01*
X77235000Y-53801939D01*
X77235000Y-53598061D01*
X77195226Y-53398102D01*
X77117205Y-53209744D01*
X77003937Y-53040226D01*
X76859774Y-52896063D01*
X76690256Y-52782795D01*
X76501898Y-52704774D01*
X76301939Y-52665000D01*
X76098061Y-52665000D01*
X75898102Y-52704774D01*
X75709744Y-52782795D01*
X75540226Y-52896063D01*
X75396063Y-53040226D01*
X75282795Y-53209744D01*
X75204774Y-53398102D01*
X75165000Y-53598061D01*
X74531685Y-53598061D01*
X74531685Y-49323784D01*
X74885976Y-48969493D01*
X74948102Y-48995226D01*
X75148061Y-49035000D01*
X75351939Y-49035000D01*
X75551898Y-48995226D01*
X75740256Y-48917205D01*
X75909774Y-48803937D01*
X76053937Y-48659774D01*
X76167205Y-48490256D01*
X76245226Y-48301898D01*
X76285000Y-48101939D01*
X76285000Y-47898061D01*
X76245226Y-47698102D01*
X76167205Y-47509744D01*
X76053937Y-47340226D01*
X75909774Y-47196063D01*
X75740256Y-47082795D01*
X75551898Y-47004774D01*
X75351939Y-46965000D01*
X75148061Y-46965000D01*
X74948102Y-47004774D01*
X74759744Y-47082795D01*
X74590226Y-47196063D01*
X74539203Y-47247086D01*
X74449414Y-47274323D01*
X74410308Y-47295226D01*
X74313618Y-47346908D01*
X74194591Y-47444591D01*
X74170111Y-47474420D01*
X73224416Y-48420115D01*
X73194592Y-48444591D01*
X73170116Y-48474415D01*
X73170114Y-48474417D01*
X73145412Y-48504517D01*
X73096909Y-48563618D01*
X73058755Y-48635000D01*
X73024324Y-48699415D01*
X72979626Y-48846763D01*
X72964534Y-49000000D01*
X72968316Y-49038401D01*
X72968315Y-55067974D01*
X72946063Y-55090226D01*
X72832795Y-55259744D01*
X72754774Y-55448102D01*
X72715000Y-55648061D01*
X70457408Y-55648061D01*
X71372266Y-54733203D01*
X71402094Y-54708724D01*
X71499777Y-54589697D01*
X71552030Y-54491939D01*
X71572362Y-54453901D01*
X71617059Y-54306552D01*
X71632152Y-54153315D01*
X71628370Y-54114917D01*
X71628370Y-52932026D01*
X71650622Y-52909774D01*
X71763890Y-52740256D01*
X71841911Y-52551898D01*
X71881685Y-52351939D01*
X71881685Y-52148061D01*
X71841911Y-51948102D01*
X71763890Y-51759744D01*
X71650622Y-51590226D01*
X71506459Y-51446063D01*
X71336941Y-51332795D01*
X71148583Y-51254774D01*
X70948624Y-51215000D01*
X70744746Y-51215000D01*
X70544787Y-51254774D01*
X70356429Y-51332795D01*
X70186911Y-51446063D01*
X70042748Y-51590226D01*
X69929480Y-51759744D01*
X69851459Y-51948102D01*
X69811685Y-52148061D01*
X69811685Y-52351939D01*
X69851459Y-52551898D01*
X69929480Y-52740256D01*
X70042748Y-52909774D01*
X70065001Y-52932027D01*
X70065000Y-53829531D01*
X67676216Y-56218315D01*
X67182026Y-56218315D01*
X67159774Y-56196063D01*
X66990256Y-56082795D01*
X66801898Y-56004774D01*
X66601939Y-55965000D01*
X66398061Y-55965000D01*
X66198102Y-56004774D01*
X66009744Y-56082795D01*
X65840226Y-56196063D01*
X65696063Y-56340226D01*
X65582795Y-56509744D01*
X65504774Y-56698102D01*
X65465000Y-56898061D01*
X61909286Y-56898061D01*
X61853937Y-56815226D01*
X61709774Y-56671063D01*
X61540256Y-56557795D01*
X61351898Y-56479774D01*
X61151939Y-56440000D01*
X60948061Y-56440000D01*
X60748102Y-56479774D01*
X60559744Y-56557795D01*
X60390226Y-56671063D01*
X60246063Y-56815226D01*
X60132795Y-56984744D01*
X60054774Y-57173102D01*
X60015000Y-57373061D01*
X20660000Y-57373061D01*
X20660000Y-54788212D01*
X36065000Y-54788212D01*
X36065000Y-55011788D01*
X36108617Y-55231067D01*
X36194176Y-55437624D01*
X36318388Y-55623520D01*
X36476480Y-55781612D01*
X36662376Y-55905824D01*
X36868933Y-55991383D01*
X37088212Y-56035000D01*
X37311788Y-56035000D01*
X37531067Y-55991383D01*
X37737624Y-55905824D01*
X37800000Y-55864146D01*
X37862376Y-55905824D01*
X38068933Y-55991383D01*
X38288212Y-56035000D01*
X38511788Y-56035000D01*
X38731067Y-55991383D01*
X38937624Y-55905824D01*
X39000000Y-55864146D01*
X39062376Y-55905824D01*
X39268933Y-55991383D01*
X39488212Y-56035000D01*
X39711788Y-56035000D01*
X39931067Y-55991383D01*
X40137624Y-55905824D01*
X40200000Y-55864146D01*
X40262376Y-55905824D01*
X40468933Y-55991383D01*
X40688212Y-56035000D01*
X40911788Y-56035000D01*
X41131067Y-55991383D01*
X41337624Y-55905824D01*
X41400000Y-55864146D01*
X41462376Y-55905824D01*
X41668933Y-55991383D01*
X41888212Y-56035000D01*
X42111788Y-56035000D01*
X42331067Y-55991383D01*
X42537624Y-55905824D01*
X42600000Y-55864146D01*
X42662376Y-55905824D01*
X42868933Y-55991383D01*
X43088212Y-56035000D01*
X43311788Y-56035000D01*
X43531067Y-55991383D01*
X43737624Y-55905824D01*
X43923520Y-55781612D01*
X44081612Y-55623520D01*
X44205824Y-55437624D01*
X44291383Y-55231067D01*
X44335000Y-55011788D01*
X44335000Y-54788212D01*
X44291383Y-54568933D01*
X44205824Y-54362376D01*
X44164146Y-54300000D01*
X44172123Y-54288061D01*
X44595000Y-54288061D01*
X44595000Y-54491939D01*
X44634774Y-54691898D01*
X44712795Y-54880256D01*
X44826063Y-55049774D01*
X44970226Y-55193937D01*
X45139744Y-55307205D01*
X45328102Y-55385226D01*
X45528061Y-55425000D01*
X45731939Y-55425000D01*
X45931898Y-55385226D01*
X46120256Y-55307205D01*
X46289774Y-55193937D01*
X46433937Y-55049774D01*
X46547205Y-54880256D01*
X46625226Y-54691898D01*
X46665000Y-54491939D01*
X46665000Y-54288061D01*
X50585000Y-54288061D01*
X50585000Y-54491939D01*
X50624774Y-54691898D01*
X50702795Y-54880256D01*
X50816063Y-55049774D01*
X50960226Y-55193937D01*
X51129744Y-55307205D01*
X51318102Y-55385226D01*
X51518061Y-55425000D01*
X51721939Y-55425000D01*
X51921898Y-55385226D01*
X52110256Y-55307205D01*
X52279774Y-55193937D01*
X52423937Y-55049774D01*
X52537205Y-54880256D01*
X52615226Y-54691898D01*
X52655000Y-54491939D01*
X52655000Y-54288061D01*
X52615226Y-54088102D01*
X52537205Y-53899744D01*
X52423937Y-53730226D01*
X52311772Y-53618061D01*
X66315000Y-53618061D01*
X66315000Y-53821939D01*
X66354774Y-54021898D01*
X66432795Y-54210256D01*
X66546063Y-54379774D01*
X66690226Y-54523937D01*
X66859744Y-54637205D01*
X67048102Y-54715226D01*
X67248061Y-54755000D01*
X67451939Y-54755000D01*
X67651898Y-54715226D01*
X67835000Y-54639382D01*
X68018102Y-54715226D01*
X68218061Y-54755000D01*
X68421939Y-54755000D01*
X68621898Y-54715226D01*
X68810256Y-54637205D01*
X68979774Y-54523937D01*
X69123937Y-54379774D01*
X69237205Y-54210256D01*
X69315226Y-54021898D01*
X69355000Y-53821939D01*
X69355000Y-53618061D01*
X69315226Y-53418102D01*
X69237205Y-53229744D01*
X69123937Y-53060226D01*
X68979774Y-52916063D01*
X68810256Y-52802795D01*
X68621898Y-52724774D01*
X68421939Y-52685000D01*
X68218061Y-52685000D01*
X68018102Y-52724774D01*
X67835000Y-52800618D01*
X67651898Y-52724774D01*
X67451939Y-52685000D01*
X67248061Y-52685000D01*
X67048102Y-52724774D01*
X66859744Y-52802795D01*
X66690226Y-52916063D01*
X66546063Y-53060226D01*
X66432795Y-53229744D01*
X66354774Y-53418102D01*
X66315000Y-53618061D01*
X52311772Y-53618061D01*
X52279774Y-53586063D01*
X52110256Y-53472795D01*
X51921898Y-53394774D01*
X51721939Y-53355000D01*
X51518061Y-53355000D01*
X51318102Y-53394774D01*
X51129744Y-53472795D01*
X50960226Y-53586063D01*
X50816063Y-53730226D01*
X50702795Y-53899744D01*
X50624774Y-54088102D01*
X50585000Y-54288061D01*
X46665000Y-54288061D01*
X46625226Y-54088102D01*
X46547205Y-53899744D01*
X46433937Y-53730226D01*
X46289774Y-53586063D01*
X46120256Y-53472795D01*
X45931898Y-53394774D01*
X45731939Y-53355000D01*
X45528061Y-53355000D01*
X45328102Y-53394774D01*
X45139744Y-53472795D01*
X44970226Y-53586063D01*
X44826063Y-53730226D01*
X44712795Y-53899744D01*
X44634774Y-54088102D01*
X44595000Y-54288061D01*
X44172123Y-54288061D01*
X44205824Y-54237624D01*
X44291383Y-54031067D01*
X44335000Y-53811788D01*
X44335000Y-53588212D01*
X44291383Y-53368933D01*
X44205824Y-53162376D01*
X44164146Y-53100000D01*
X44205824Y-53037624D01*
X44291383Y-52831067D01*
X44335000Y-52611788D01*
X44335000Y-52388212D01*
X44291383Y-52168933D01*
X44205824Y-51962376D01*
X44081612Y-51776480D01*
X43923520Y-51618388D01*
X43737624Y-51494176D01*
X43531067Y-51408617D01*
X43311788Y-51365000D01*
X43088212Y-51365000D01*
X42868933Y-51408617D01*
X42662376Y-51494176D01*
X42476480Y-51618388D01*
X42318388Y-51776480D01*
X42194176Y-51962376D01*
X42108617Y-52168933D01*
X42065000Y-52388212D01*
X42065000Y-52611788D01*
X42108617Y-52831067D01*
X42194176Y-53037624D01*
X42235854Y-53100000D01*
X42194176Y-53162376D01*
X42108617Y-53368933D01*
X42065000Y-53588212D01*
X42065000Y-53765000D01*
X41888212Y-53765000D01*
X41668933Y-53808617D01*
X41462376Y-53894176D01*
X41400000Y-53935854D01*
X41337624Y-53894176D01*
X41131067Y-53808617D01*
X40911788Y-53765000D01*
X40688212Y-53765000D01*
X40468933Y-53808617D01*
X40262376Y-53894176D01*
X40200000Y-53935854D01*
X40137624Y-53894176D01*
X39931067Y-53808617D01*
X39711788Y-53765000D01*
X39488212Y-53765000D01*
X39268933Y-53808617D01*
X39062376Y-53894176D01*
X39000000Y-53935854D01*
X38937624Y-53894176D01*
X38731067Y-53808617D01*
X38511788Y-53765000D01*
X38288212Y-53765000D01*
X38068933Y-53808617D01*
X37862376Y-53894176D01*
X37800000Y-53935854D01*
X37737624Y-53894176D01*
X37531067Y-53808617D01*
X37311788Y-53765000D01*
X37088212Y-53765000D01*
X36868933Y-53808617D01*
X36662376Y-53894176D01*
X36476480Y-54018388D01*
X36318388Y-54176480D01*
X36194176Y-54362376D01*
X36108617Y-54568933D01*
X36065000Y-54788212D01*
X20660000Y-54788212D01*
X20660000Y-50988212D01*
X36065000Y-50988212D01*
X36065000Y-51211788D01*
X36108617Y-51431067D01*
X36194176Y-51637624D01*
X36318388Y-51823520D01*
X36476480Y-51981612D01*
X36662376Y-52105824D01*
X36868933Y-52191383D01*
X37088212Y-52235000D01*
X37311788Y-52235000D01*
X37531067Y-52191383D01*
X37737624Y-52105824D01*
X37800000Y-52064146D01*
X37862376Y-52105824D01*
X38068933Y-52191383D01*
X38288212Y-52235000D01*
X38511788Y-52235000D01*
X38731067Y-52191383D01*
X38937624Y-52105824D01*
X39000000Y-52064146D01*
X39062376Y-52105824D01*
X39268933Y-52191383D01*
X39488212Y-52235000D01*
X39711788Y-52235000D01*
X39931067Y-52191383D01*
X40137624Y-52105824D01*
X40323520Y-51981612D01*
X40481612Y-51823520D01*
X40605824Y-51637624D01*
X40691383Y-51431067D01*
X40735000Y-51211788D01*
X40735000Y-50988212D01*
X40691383Y-50768933D01*
X40605824Y-50562376D01*
X40481612Y-50376480D01*
X40323520Y-50218388D01*
X40137624Y-50094176D01*
X39931067Y-50008617D01*
X39711788Y-49965000D01*
X39488212Y-49965000D01*
X39268933Y-50008617D01*
X39062376Y-50094176D01*
X39000000Y-50135854D01*
X38937624Y-50094176D01*
X38731067Y-50008617D01*
X38511788Y-49965000D01*
X38288212Y-49965000D01*
X38068933Y-50008617D01*
X37862376Y-50094176D01*
X37800000Y-50135854D01*
X37737624Y-50094176D01*
X37531067Y-50008617D01*
X37311788Y-49965000D01*
X37088212Y-49965000D01*
X36868933Y-50008617D01*
X36662376Y-50094176D01*
X36476480Y-50218388D01*
X36318388Y-50376480D01*
X36194176Y-50562376D01*
X36108617Y-50768933D01*
X36065000Y-50988212D01*
X20660000Y-50988212D01*
X20660000Y-48506867D01*
X20711717Y-48603624D01*
X20853552Y-48776450D01*
X20896866Y-48811997D01*
X21278386Y-49193517D01*
X21278388Y-49193520D01*
X21318009Y-49233141D01*
X21353551Y-49276449D01*
X21396859Y-49311991D01*
X21436480Y-49351612D01*
X21483068Y-49382741D01*
X21526377Y-49418284D01*
X21575786Y-49444693D01*
X21622376Y-49475824D01*
X21674149Y-49497269D01*
X21723553Y-49523676D01*
X21777158Y-49539937D01*
X21828933Y-49561383D01*
X21883894Y-49572315D01*
X21937501Y-49588577D01*
X21993253Y-49594068D01*
X22048212Y-49605000D01*
X22104257Y-49605000D01*
X22159999Y-49610490D01*
X22215741Y-49605000D01*
X24651788Y-49605000D01*
X24706747Y-49594068D01*
X24762499Y-49588577D01*
X24816106Y-49572315D01*
X24871067Y-49561383D01*
X24922842Y-49539937D01*
X24976447Y-49523676D01*
X25025851Y-49497269D01*
X25077624Y-49475824D01*
X25124214Y-49444693D01*
X25173623Y-49418284D01*
X25216932Y-49382741D01*
X25263520Y-49351612D01*
X25303141Y-49311991D01*
X25346449Y-49276449D01*
X25381991Y-49233141D01*
X25421612Y-49193520D01*
X25452741Y-49146932D01*
X25488284Y-49103623D01*
X25514693Y-49054214D01*
X25545824Y-49007624D01*
X25567269Y-48955851D01*
X25593676Y-48906447D01*
X25609937Y-48852842D01*
X25631383Y-48801067D01*
X25642315Y-48746106D01*
X25658577Y-48692499D01*
X25664068Y-48636747D01*
X25675000Y-48581788D01*
X25675000Y-48525752D01*
X25680491Y-48470000D01*
X25675000Y-48414248D01*
X25675000Y-48358212D01*
X25664068Y-48303253D01*
X25658577Y-48247501D01*
X25642315Y-48193894D01*
X25631383Y-48138933D01*
X25609937Y-48087158D01*
X25593676Y-48033553D01*
X25567269Y-47984149D01*
X25545824Y-47932376D01*
X25514693Y-47885786D01*
X25488284Y-47836377D01*
X25452741Y-47793068D01*
X25421612Y-47746480D01*
X25381989Y-47706857D01*
X25346449Y-47663551D01*
X25303141Y-47628009D01*
X25263520Y-47588388D01*
X25216932Y-47557259D01*
X25173623Y-47521716D01*
X25129367Y-47498061D01*
X53065000Y-47498061D01*
X53065000Y-47701939D01*
X53104774Y-47901898D01*
X53182795Y-48090256D01*
X53296063Y-48259774D01*
X53440226Y-48403937D01*
X53609744Y-48517205D01*
X53798102Y-48595226D01*
X53998061Y-48635000D01*
X54201939Y-48635000D01*
X54401898Y-48595226D01*
X54590256Y-48517205D01*
X54759774Y-48403937D01*
X54903937Y-48259774D01*
X55017205Y-48090256D01*
X55095226Y-47901898D01*
X55135000Y-47701939D01*
X55135000Y-47648061D01*
X59715000Y-47648061D01*
X59715000Y-47851939D01*
X59754774Y-48051898D01*
X59832795Y-48240256D01*
X59946063Y-48409774D01*
X60090226Y-48553937D01*
X60259744Y-48667205D01*
X60448102Y-48745226D01*
X60648061Y-48785000D01*
X60851939Y-48785000D01*
X61051898Y-48745226D01*
X61240256Y-48667205D01*
X61250000Y-48660694D01*
X61259744Y-48667205D01*
X61448102Y-48745226D01*
X61648061Y-48785000D01*
X61851939Y-48785000D01*
X62051898Y-48745226D01*
X62240256Y-48667205D01*
X62409774Y-48553937D01*
X62553937Y-48409774D01*
X62667205Y-48240256D01*
X62745226Y-48051898D01*
X62785000Y-47851939D01*
X62785000Y-47648061D01*
X62745226Y-47448102D01*
X62667205Y-47259744D01*
X62553937Y-47090226D01*
X62409774Y-46946063D01*
X62240256Y-46832795D01*
X62051898Y-46754774D01*
X61851939Y-46715000D01*
X61648061Y-46715000D01*
X61448102Y-46754774D01*
X61259744Y-46832795D01*
X61250000Y-46839306D01*
X61240256Y-46832795D01*
X61051898Y-46754774D01*
X60851939Y-46715000D01*
X60648061Y-46715000D01*
X60448102Y-46754774D01*
X60259744Y-46832795D01*
X60090226Y-46946063D01*
X59946063Y-47090226D01*
X59832795Y-47259744D01*
X59754774Y-47448102D01*
X59715000Y-47648061D01*
X55135000Y-47648061D01*
X55135000Y-47498061D01*
X55095226Y-47298102D01*
X55017205Y-47109744D01*
X54903937Y-46940226D01*
X54759774Y-46796063D01*
X54590256Y-46682795D01*
X54401898Y-46604774D01*
X54201939Y-46565000D01*
X53998061Y-46565000D01*
X53798102Y-46604774D01*
X53609744Y-46682795D01*
X53440226Y-46796063D01*
X53296063Y-46940226D01*
X53182795Y-47109744D01*
X53104774Y-47298102D01*
X53065000Y-47498061D01*
X25129367Y-47498061D01*
X25124214Y-47495307D01*
X25077624Y-47464176D01*
X25025851Y-47442731D01*
X24976447Y-47416324D01*
X24922842Y-47400063D01*
X24871067Y-47378617D01*
X24816106Y-47367685D01*
X24762499Y-47351423D01*
X24706747Y-47345932D01*
X24651788Y-47335000D01*
X22795001Y-47335000D01*
X22795001Y-43698061D01*
X30665000Y-43698061D01*
X30665000Y-43901939D01*
X30704774Y-44101898D01*
X30766120Y-44250000D01*
X30704774Y-44398102D01*
X30665000Y-44598061D01*
X30665000Y-44801939D01*
X30704774Y-45001898D01*
X30782795Y-45190256D01*
X30896063Y-45359774D01*
X31040226Y-45503937D01*
X31209744Y-45617205D01*
X31398102Y-45695226D01*
X31598061Y-45735000D01*
X31801939Y-45735000D01*
X32001898Y-45695226D01*
X32190256Y-45617205D01*
X32359774Y-45503937D01*
X32503937Y-45359774D01*
X32617205Y-45190256D01*
X32695226Y-45001898D01*
X32735000Y-44801939D01*
X32735000Y-44598061D01*
X32695226Y-44398102D01*
X32633880Y-44250000D01*
X32695226Y-44101898D01*
X32735000Y-43901939D01*
X32735000Y-43698061D01*
X32695226Y-43498102D01*
X32617205Y-43309744D01*
X32503937Y-43140226D01*
X32359774Y-42996063D01*
X32190256Y-42882795D01*
X32001898Y-42804774D01*
X31801939Y-42765000D01*
X31598061Y-42765000D01*
X31398102Y-42804774D01*
X31209744Y-42882795D01*
X31040226Y-42996063D01*
X30896063Y-43140226D01*
X30782795Y-43309744D01*
X30704774Y-43498102D01*
X30665000Y-43698061D01*
X22795001Y-43698061D01*
X22795001Y-40588212D01*
X34065000Y-40588212D01*
X34065000Y-40811788D01*
X34108617Y-41031067D01*
X34194176Y-41237624D01*
X34318388Y-41423520D01*
X34476480Y-41581612D01*
X34662376Y-41705824D01*
X34868933Y-41791383D01*
X35088212Y-41835000D01*
X35311788Y-41835000D01*
X35497494Y-41798061D01*
X52165000Y-41798061D01*
X52165000Y-42001939D01*
X52204774Y-42201898D01*
X52282795Y-42390256D01*
X52396063Y-42559774D01*
X52540226Y-42703937D01*
X52709744Y-42817205D01*
X52898102Y-42895226D01*
X53098061Y-42935000D01*
X53301939Y-42935000D01*
X53501898Y-42895226D01*
X53690256Y-42817205D01*
X53859774Y-42703937D01*
X54003937Y-42559774D01*
X54117205Y-42390256D01*
X54195226Y-42201898D01*
X54235000Y-42001939D01*
X54235000Y-41798061D01*
X54195226Y-41598102D01*
X54117205Y-41409744D01*
X54003937Y-41240226D01*
X53859774Y-41096063D01*
X53690256Y-40982795D01*
X53501898Y-40904774D01*
X53301939Y-40865000D01*
X53098061Y-40865000D01*
X52898102Y-40904774D01*
X52709744Y-40982795D01*
X52540226Y-41096063D01*
X52396063Y-41240226D01*
X52282795Y-41409744D01*
X52204774Y-41598102D01*
X52165000Y-41798061D01*
X35497494Y-41798061D01*
X35531067Y-41791383D01*
X35737624Y-41705824D01*
X35923520Y-41581612D01*
X36081612Y-41423520D01*
X36205824Y-41237624D01*
X36291383Y-41031067D01*
X36335000Y-40811788D01*
X36335000Y-40588212D01*
X36291383Y-40368933D01*
X36205824Y-40162376D01*
X36081612Y-39976480D01*
X35923520Y-39818388D01*
X35737624Y-39694176D01*
X35531067Y-39608617D01*
X35311788Y-39565000D01*
X35088212Y-39565000D01*
X34868933Y-39608617D01*
X34662376Y-39694176D01*
X34476480Y-39818388D01*
X34318388Y-39976480D01*
X34194176Y-40162376D01*
X34108617Y-40368933D01*
X34065000Y-40588212D01*
X22795001Y-40588212D01*
X22795001Y-38223061D01*
X31665000Y-38223061D01*
X31665000Y-38426939D01*
X31704774Y-38626898D01*
X31782795Y-38815256D01*
X31896063Y-38984774D01*
X32040226Y-39128937D01*
X32209744Y-39242205D01*
X32398102Y-39320226D01*
X32598061Y-39360000D01*
X32801939Y-39360000D01*
X33001898Y-39320226D01*
X33190256Y-39242205D01*
X33359774Y-39128937D01*
X33503937Y-38984774D01*
X33617205Y-38815256D01*
X33695226Y-38626898D01*
X33735000Y-38426939D01*
X33735000Y-38223061D01*
X33695226Y-38023102D01*
X33617205Y-37834744D01*
X33503937Y-37665226D01*
X33359774Y-37521063D01*
X33190256Y-37407795D01*
X33001898Y-37329774D01*
X32801939Y-37290000D01*
X32598061Y-37290000D01*
X32398102Y-37329774D01*
X32209744Y-37407795D01*
X32040226Y-37521063D01*
X31896063Y-37665226D01*
X31782795Y-37834744D01*
X31704774Y-38023102D01*
X31665000Y-38223061D01*
X22795001Y-38223061D01*
X22795001Y-32998061D01*
X62440000Y-32998061D01*
X62440000Y-33201939D01*
X62479774Y-33401898D01*
X62557795Y-33590256D01*
X62671063Y-33759774D01*
X62815226Y-33903937D01*
X62984744Y-34017205D01*
X63173102Y-34095226D01*
X63373061Y-34135000D01*
X63576939Y-34135000D01*
X63776898Y-34095226D01*
X63962500Y-34018347D01*
X64148102Y-34095226D01*
X64348061Y-34135000D01*
X64551939Y-34135000D01*
X64751898Y-34095226D01*
X64940256Y-34017205D01*
X65109774Y-33903937D01*
X65253937Y-33759774D01*
X65367205Y-33590256D01*
X65445226Y-33401898D01*
X65485000Y-33201939D01*
X65485000Y-32998061D01*
X65445226Y-32798102D01*
X65367205Y-32609744D01*
X65253937Y-32440226D01*
X65109774Y-32296063D01*
X64940256Y-32182795D01*
X64751898Y-32104774D01*
X64551939Y-32065000D01*
X64348061Y-32065000D01*
X64148102Y-32104774D01*
X63962500Y-32181653D01*
X63776898Y-32104774D01*
X63576939Y-32065000D01*
X63373061Y-32065000D01*
X63173102Y-32104774D01*
X62984744Y-32182795D01*
X62815226Y-32296063D01*
X62671063Y-32440226D01*
X62557795Y-32609744D01*
X62479774Y-32798102D01*
X62440000Y-32998061D01*
X22795001Y-32998061D01*
X22795001Y-32360130D01*
X23695132Y-31460000D01*
X50926209Y-31460000D01*
X50981960Y-31465491D01*
X51037711Y-31460000D01*
X51037712Y-31460000D01*
X51204459Y-31443577D01*
X51418407Y-31378676D01*
X51615583Y-31273284D01*
X51788409Y-31131449D01*
X51823956Y-31088135D01*
X52134030Y-30778061D01*
X66575000Y-30778061D01*
X66575000Y-30981939D01*
X66614774Y-31181898D01*
X66692795Y-31370256D01*
X66806063Y-31539774D01*
X66950226Y-31683937D01*
X67119744Y-31797205D01*
X67308102Y-31875226D01*
X67508061Y-31915000D01*
X67711939Y-31915000D01*
X67911898Y-31875226D01*
X68100256Y-31797205D01*
X68269774Y-31683937D01*
X68413937Y-31539774D01*
X68527205Y-31370256D01*
X68605226Y-31181898D01*
X68645000Y-30981939D01*
X68645000Y-30778061D01*
X68605226Y-30578102D01*
X68527205Y-30389744D01*
X68413937Y-30220226D01*
X68269774Y-30076063D01*
X68100256Y-29962795D01*
X67911898Y-29884774D01*
X67711939Y-29845000D01*
X67508061Y-29845000D01*
X67308102Y-29884774D01*
X67119744Y-29962795D01*
X66950226Y-30076063D01*
X66806063Y-30220226D01*
X66692795Y-30389744D01*
X66614774Y-30578102D01*
X66575000Y-30778061D01*
X52134030Y-30778061D01*
X53863141Y-29048951D01*
X53906449Y-29013409D01*
X54048284Y-28840583D01*
X54153676Y-28643407D01*
X54218577Y-28429459D01*
X54235000Y-28262712D01*
X54235000Y-28262711D01*
X54240491Y-28206960D01*
X54235000Y-28151208D01*
X54235000Y-27648061D01*
X56215000Y-27648061D01*
X56215000Y-27851939D01*
X56254774Y-28051898D01*
X56332795Y-28240256D01*
X56446063Y-28409774D01*
X56590226Y-28553937D01*
X56759744Y-28667205D01*
X56948102Y-28745226D01*
X57148061Y-28785000D01*
X57351939Y-28785000D01*
X57551898Y-28745226D01*
X57740256Y-28667205D01*
X57788454Y-28635000D01*
X67833422Y-28635000D01*
X70715000Y-31516579D01*
X70715001Y-35636544D01*
X70682795Y-35684744D01*
X70604774Y-35873102D01*
X70565000Y-36073061D01*
X70565000Y-36276939D01*
X70604774Y-36476898D01*
X70682795Y-36665256D01*
X70796063Y-36834774D01*
X70940226Y-36978937D01*
X71109744Y-37092205D01*
X71298102Y-37170226D01*
X71498061Y-37210000D01*
X71590000Y-37210000D01*
X71590000Y-42033421D01*
X71358422Y-42265000D01*
X70088424Y-42265000D01*
X70095000Y-42231939D01*
X70095000Y-42028061D01*
X70055226Y-41828102D01*
X69977205Y-41639744D01*
X69863937Y-41470226D01*
X69719774Y-41326063D01*
X69550256Y-41212795D01*
X69361898Y-41134774D01*
X69161939Y-41095000D01*
X68958061Y-41095000D01*
X68758102Y-41134774D01*
X68687662Y-41163951D01*
X68649774Y-41126063D01*
X68480256Y-41012795D01*
X68291898Y-40934774D01*
X68091939Y-40895000D01*
X67888061Y-40895000D01*
X67688102Y-40934774D01*
X67499744Y-41012795D01*
X67409641Y-41073000D01*
X63427000Y-41073000D01*
X63427000Y-38207013D01*
X64199276Y-38207013D01*
X64218213Y-38225950D01*
X64387731Y-38339218D01*
X64576089Y-38417239D01*
X64776048Y-38457013D01*
X64979926Y-38457013D01*
X65179885Y-38417239D01*
X65368243Y-38339218D01*
X65537761Y-38225950D01*
X65681924Y-38081787D01*
X65795192Y-37912269D01*
X65873213Y-37723911D01*
X65912987Y-37523952D01*
X65912987Y-37398061D01*
X66765000Y-37398061D01*
X66765000Y-37601939D01*
X66804774Y-37801898D01*
X66882795Y-37990256D01*
X66996063Y-38159774D01*
X67118074Y-38281785D01*
X67085000Y-38448061D01*
X67085000Y-38651939D01*
X67124774Y-38851898D01*
X67202795Y-39040256D01*
X67316063Y-39209774D01*
X67460226Y-39353937D01*
X67629744Y-39467205D01*
X67818102Y-39545226D01*
X68018061Y-39585000D01*
X68221939Y-39585000D01*
X68421898Y-39545226D01*
X68610256Y-39467205D01*
X68779774Y-39353937D01*
X68923937Y-39209774D01*
X69037205Y-39040256D01*
X69115226Y-38851898D01*
X69155000Y-38651939D01*
X69155000Y-38448061D01*
X69115226Y-38248102D01*
X69037205Y-38059744D01*
X68923937Y-37890226D01*
X68801926Y-37768215D01*
X68835000Y-37601939D01*
X68835000Y-37398061D01*
X68795226Y-37198102D01*
X68717205Y-37009744D01*
X68603937Y-36840226D01*
X68521366Y-36757655D01*
X68609744Y-36816707D01*
X68798102Y-36894728D01*
X68998061Y-36934502D01*
X69201939Y-36934502D01*
X69401898Y-36894728D01*
X69590256Y-36816707D01*
X69759774Y-36703439D01*
X69903937Y-36559276D01*
X70017205Y-36389758D01*
X70095226Y-36201400D01*
X70135000Y-36001441D01*
X70135000Y-35797563D01*
X70095226Y-35597604D01*
X70017205Y-35409246D01*
X69903937Y-35239728D01*
X69759774Y-35095565D01*
X69590256Y-34982297D01*
X69401898Y-34904276D01*
X69201939Y-34864502D01*
X68998061Y-34864502D01*
X68798102Y-34904276D01*
X68609744Y-34982297D01*
X68440226Y-35095565D01*
X68296063Y-35239728D01*
X68182795Y-35409246D01*
X68104774Y-35597604D01*
X68065000Y-35797563D01*
X68065000Y-36001441D01*
X68104774Y-36201400D01*
X68182795Y-36389758D01*
X68296063Y-36559276D01*
X68378634Y-36641847D01*
X68290256Y-36582795D01*
X68101898Y-36504774D01*
X67901939Y-36465000D01*
X67698061Y-36465000D01*
X67498102Y-36504774D01*
X67309744Y-36582795D01*
X67140226Y-36696063D01*
X66996063Y-36840226D01*
X66882795Y-37009744D01*
X66804774Y-37198102D01*
X66765000Y-37398061D01*
X65912987Y-37398061D01*
X65912987Y-37320074D01*
X65873213Y-37120115D01*
X65795192Y-36931757D01*
X65681924Y-36762239D01*
X65537761Y-36618076D01*
X65368243Y-36504808D01*
X65224499Y-36445267D01*
X65195226Y-36298102D01*
X65117205Y-36109744D01*
X65003937Y-35940226D01*
X64859774Y-35796063D01*
X64690256Y-35682795D01*
X64501898Y-35604774D01*
X64301939Y-35565000D01*
X64098061Y-35565000D01*
X63898102Y-35604774D01*
X63709744Y-35682795D01*
X63540226Y-35796063D01*
X63396063Y-35940226D01*
X63282795Y-36109744D01*
X63204774Y-36298102D01*
X63165000Y-36498061D01*
X63165000Y-36637013D01*
X58263227Y-36637013D01*
X58224672Y-36633216D01*
X58186116Y-36637013D01*
X58186111Y-36637013D01*
X58145698Y-36640993D01*
X58070785Y-36648371D01*
X57940966Y-36687752D01*
X57922812Y-36693259D01*
X57786439Y-36766151D01*
X57740544Y-36803817D01*
X57696859Y-36839668D01*
X57696856Y-36839671D01*
X57666908Y-36864249D01*
X57642329Y-36894198D01*
X57424842Y-37111685D01*
X57398061Y-37111685D01*
X57198102Y-37151459D01*
X57009744Y-37229480D01*
X56840226Y-37342748D01*
X56696063Y-37486911D01*
X56582795Y-37656429D01*
X56504774Y-37844787D01*
X56465000Y-38044746D01*
X56465000Y-38248624D01*
X56504774Y-38448583D01*
X56582795Y-38636941D01*
X56696063Y-38806459D01*
X56840226Y-38950622D01*
X57009744Y-39063890D01*
X57198102Y-39141911D01*
X57398061Y-39181685D01*
X57601939Y-39181685D01*
X57801898Y-39141911D01*
X57990256Y-39063890D01*
X58159774Y-38950622D01*
X58273000Y-38837396D01*
X58273000Y-46000000D01*
X58275440Y-46024776D01*
X58282667Y-46048601D01*
X58294403Y-46070557D01*
X58310197Y-46089803D01*
X58329443Y-46105597D01*
X58351399Y-46117333D01*
X58375224Y-46124560D01*
X58400000Y-46127000D01*
X63250000Y-46127000D01*
X63274776Y-46124560D01*
X63298601Y-46117333D01*
X63320557Y-46105597D01*
X63339803Y-46089803D01*
X63355597Y-46070557D01*
X63367333Y-46048601D01*
X63374560Y-46024776D01*
X63377000Y-46000000D01*
X63377000Y-44627000D01*
X65750000Y-44627000D01*
X65774776Y-44624560D01*
X65798601Y-44617333D01*
X65820557Y-44605597D01*
X65839803Y-44589803D01*
X65855597Y-44570557D01*
X65867333Y-44548601D01*
X65874560Y-44524776D01*
X65877000Y-44500000D01*
X65877000Y-43027000D01*
X67600000Y-43027000D01*
X67624776Y-43024560D01*
X67648601Y-43017333D01*
X67670557Y-43005597D01*
X67674010Y-43002763D01*
X67665000Y-43048061D01*
X67665000Y-43251939D01*
X67704774Y-43451898D01*
X67782795Y-43640256D01*
X67896063Y-43809774D01*
X68040226Y-43953937D01*
X68209744Y-44067205D01*
X68398102Y-44145226D01*
X68598061Y-44185000D01*
X68801939Y-44185000D01*
X69001898Y-44145226D01*
X69190256Y-44067205D01*
X69238454Y-44035000D01*
X71681531Y-44035000D01*
X71725000Y-44039281D01*
X71768469Y-44035000D01*
X71768477Y-44035000D01*
X71898490Y-44022195D01*
X72065313Y-43971589D01*
X72219059Y-43889411D01*
X72353817Y-43778817D01*
X72381534Y-43745044D01*
X73070050Y-43056529D01*
X73103817Y-43028817D01*
X73214411Y-42894059D01*
X73296589Y-42740313D01*
X73347195Y-42573490D01*
X73360000Y-42443477D01*
X73360000Y-42443467D01*
X73364281Y-42400001D01*
X73360000Y-42356535D01*
X73360000Y-39200000D01*
X91436928Y-39200000D01*
X91436928Y-40900000D01*
X91449188Y-41024482D01*
X91485498Y-41144180D01*
X91544463Y-41254494D01*
X91623815Y-41351185D01*
X91720506Y-41430537D01*
X91830820Y-41489502D01*
X91903380Y-41511513D01*
X91771525Y-41643368D01*
X91609010Y-41886589D01*
X91497068Y-42156842D01*
X91440000Y-42443740D01*
X91440000Y-42736260D01*
X91497068Y-43023158D01*
X91609010Y-43293411D01*
X91771525Y-43536632D01*
X91978368Y-43743475D01*
X92152760Y-43860000D01*
X91978368Y-43976525D01*
X91771525Y-44183368D01*
X91609010Y-44426589D01*
X91497068Y-44696842D01*
X91440000Y-44983740D01*
X91440000Y-45276260D01*
X91497068Y-45563158D01*
X91609010Y-45833411D01*
X91771525Y-46076632D01*
X91978368Y-46283475D01*
X92152760Y-46400000D01*
X91978368Y-46516525D01*
X91771525Y-46723368D01*
X91609010Y-46966589D01*
X91497068Y-47236842D01*
X91440000Y-47523740D01*
X91440000Y-47816260D01*
X91497068Y-48103158D01*
X91609010Y-48373411D01*
X91771525Y-48616632D01*
X91978368Y-48823475D01*
X92152760Y-48940000D01*
X91978368Y-49056525D01*
X91771525Y-49263368D01*
X91609010Y-49506589D01*
X91497068Y-49776842D01*
X91440000Y-50063740D01*
X91440000Y-50356260D01*
X91497068Y-50643158D01*
X91609010Y-50913411D01*
X91771525Y-51156632D01*
X91978368Y-51363475D01*
X92152760Y-51480000D01*
X91978368Y-51596525D01*
X91771525Y-51803368D01*
X91609010Y-52046589D01*
X91497068Y-52316842D01*
X91440000Y-52603740D01*
X91440000Y-52896260D01*
X91497068Y-53183158D01*
X91609010Y-53453411D01*
X91771525Y-53696632D01*
X91978368Y-53903475D01*
X92152760Y-54020000D01*
X91978368Y-54136525D01*
X91771525Y-54343368D01*
X91609010Y-54586589D01*
X91497068Y-54856842D01*
X91440000Y-55143740D01*
X91440000Y-55436260D01*
X91497068Y-55723158D01*
X91609010Y-55993411D01*
X91771525Y-56236632D01*
X91978368Y-56443475D01*
X92152760Y-56560000D01*
X91978368Y-56676525D01*
X91771525Y-56883368D01*
X91609010Y-57126589D01*
X91497068Y-57396842D01*
X91440000Y-57683740D01*
X91440000Y-57976260D01*
X91497068Y-58263158D01*
X91609010Y-58533411D01*
X91771525Y-58776632D01*
X91978368Y-58983475D01*
X92221589Y-59145990D01*
X92491842Y-59257932D01*
X92778740Y-59315000D01*
X93071260Y-59315000D01*
X93358158Y-59257932D01*
X93628411Y-59145990D01*
X93871632Y-58983475D01*
X94078475Y-58776632D01*
X94108956Y-58731013D01*
X94298286Y-58961714D01*
X94547248Y-59166031D01*
X94831285Y-59317852D01*
X95139484Y-59411343D01*
X95460000Y-59442911D01*
X95780515Y-59411343D01*
X96088714Y-59317852D01*
X96372751Y-59166031D01*
X96604255Y-58976042D01*
X96619463Y-59004494D01*
X96698815Y-59101185D01*
X96795506Y-59180537D01*
X96905820Y-59239502D01*
X97025518Y-59275812D01*
X97150000Y-59288072D01*
X97714250Y-59285000D01*
X97873000Y-59126250D01*
X97873000Y-57927000D01*
X97853000Y-57927000D01*
X97853000Y-57673000D01*
X97873000Y-57673000D01*
X97873000Y-55387000D01*
X97853000Y-55387000D01*
X97853000Y-55133000D01*
X97873000Y-55133000D01*
X97873000Y-52847000D01*
X97853000Y-52847000D01*
X97853000Y-52593000D01*
X97873000Y-52593000D01*
X97873000Y-50307000D01*
X97853000Y-50307000D01*
X97853000Y-50053000D01*
X97873000Y-50053000D01*
X97873000Y-47767000D01*
X97853000Y-47767000D01*
X97853000Y-47513000D01*
X97873000Y-47513000D01*
X97873000Y-45227000D01*
X97853000Y-45227000D01*
X97853000Y-44973000D01*
X97873000Y-44973000D01*
X97873000Y-42687000D01*
X97853000Y-42687000D01*
X97853000Y-42433000D01*
X97873000Y-42433000D01*
X97873000Y-40147000D01*
X97853000Y-40147000D01*
X97853000Y-39893000D01*
X97873000Y-39893000D01*
X97873000Y-38699186D01*
X97643109Y-38578519D01*
X97368748Y-38675843D01*
X97118645Y-38824822D01*
X97095000Y-38846135D01*
X97095000Y-36590319D01*
X97102911Y-36510000D01*
X97094715Y-36426787D01*
X97071343Y-36189484D01*
X96977852Y-35881285D01*
X96826031Y-35597248D01*
X96621714Y-35348286D01*
X96563072Y-35300160D01*
X96563072Y-34575000D01*
X96550812Y-34450518D01*
X96514502Y-34330820D01*
X96455537Y-34220506D01*
X96376185Y-34123815D01*
X96279494Y-34044463D01*
X96169180Y-33985498D01*
X96049482Y-33949188D01*
X95925000Y-33936928D01*
X95518097Y-33936928D01*
X95703486Y-33837836D01*
X95823374Y-33552980D01*
X94725000Y-32454605D01*
X93626626Y-33552980D01*
X93746514Y-33837836D01*
X93945912Y-33936928D01*
X93525000Y-33936928D01*
X93400518Y-33949188D01*
X93280820Y-33985498D01*
X93170506Y-34044463D01*
X93073815Y-34123815D01*
X92994463Y-34220506D01*
X92935498Y-34330820D01*
X92899188Y-34450518D01*
X92886928Y-34575000D01*
X92886928Y-36975000D01*
X92899188Y-37099482D01*
X92935498Y-37219180D01*
X92994463Y-37329494D01*
X93073815Y-37426185D01*
X93170506Y-37505537D01*
X93280820Y-37564502D01*
X93400518Y-37600812D01*
X93525000Y-37613072D01*
X93825001Y-37613072D01*
X93825000Y-38566852D01*
X93775000Y-38561928D01*
X92075000Y-38561928D01*
X91950518Y-38574188D01*
X91830820Y-38610498D01*
X91720506Y-38669463D01*
X91623815Y-38748815D01*
X91544463Y-38845506D01*
X91485498Y-38955820D01*
X91449188Y-39075518D01*
X91436928Y-39200000D01*
X73360000Y-39200000D01*
X73360000Y-32968061D01*
X80765000Y-32968061D01*
X80765000Y-33171939D01*
X80804774Y-33371898D01*
X80882795Y-33560256D01*
X80996063Y-33729774D01*
X81140226Y-33873937D01*
X81309744Y-33987205D01*
X81498102Y-34065226D01*
X81698061Y-34105000D01*
X81901939Y-34105000D01*
X82101898Y-34065226D01*
X82290256Y-33987205D01*
X82459774Y-33873937D01*
X82603937Y-33729774D01*
X82717205Y-33560256D01*
X82795226Y-33371898D01*
X82835000Y-33171939D01*
X82835000Y-32968061D01*
X82795226Y-32768102D01*
X82717205Y-32579744D01*
X82603937Y-32410226D01*
X82523395Y-32329684D01*
X92881933Y-32329684D01*
X92928015Y-32688198D01*
X93043154Y-33030833D01*
X93162164Y-33253486D01*
X93447020Y-33373374D01*
X94545395Y-32275000D01*
X94904605Y-32275000D01*
X96002980Y-33373374D01*
X96287836Y-33253486D01*
X96448699Y-32929790D01*
X96543322Y-32580931D01*
X96568067Y-32220316D01*
X96521985Y-31861802D01*
X96406846Y-31519167D01*
X96287836Y-31296514D01*
X96002980Y-31176626D01*
X94904605Y-32275000D01*
X94545395Y-32275000D01*
X93447020Y-31176626D01*
X93162164Y-31296514D01*
X93001301Y-31620210D01*
X92906678Y-31969069D01*
X92881933Y-32329684D01*
X82523395Y-32329684D01*
X82459774Y-32266063D01*
X82290256Y-32152795D01*
X82101898Y-32074774D01*
X81901939Y-32035000D01*
X81698061Y-32035000D01*
X81498102Y-32074774D01*
X81309744Y-32152795D01*
X81140226Y-32266063D01*
X80996063Y-32410226D01*
X80882795Y-32579744D01*
X80804774Y-32768102D01*
X80765000Y-32968061D01*
X73360000Y-32968061D01*
X73360000Y-30997020D01*
X93626626Y-30997020D01*
X94725000Y-32095395D01*
X95823374Y-30997020D01*
X95703486Y-30712164D01*
X95379790Y-30551301D01*
X95030931Y-30456678D01*
X94670316Y-30431933D01*
X94311802Y-30478015D01*
X93969167Y-30593154D01*
X93746514Y-30712164D01*
X93626626Y-30997020D01*
X73360000Y-30997020D01*
X73360000Y-30843465D01*
X73364281Y-30799999D01*
X73360000Y-30756533D01*
X73360000Y-30756523D01*
X73347195Y-30626510D01*
X73296589Y-30459687D01*
X73214411Y-30305941D01*
X73103817Y-30171183D01*
X73070049Y-30143470D01*
X69281534Y-26354956D01*
X69253817Y-26321183D01*
X69119059Y-26210589D01*
X69108603Y-26205000D01*
X69111788Y-26205000D01*
X69331067Y-26161383D01*
X69537624Y-26075824D01*
X69635000Y-26010759D01*
X69732376Y-26075824D01*
X69938933Y-26161383D01*
X70158212Y-26205000D01*
X70381788Y-26205000D01*
X70601067Y-26161383D01*
X70807624Y-26075824D01*
X70905000Y-26010759D01*
X71002376Y-26075824D01*
X71208933Y-26161383D01*
X71428212Y-26205000D01*
X71651788Y-26205000D01*
X71871067Y-26161383D01*
X72077624Y-26075824D01*
X72263520Y-25951612D01*
X72421612Y-25793520D01*
X72545824Y-25607624D01*
X72631383Y-25401067D01*
X72675000Y-25181788D01*
X72675000Y-24958212D01*
X72631383Y-24738933D01*
X72585112Y-24627226D01*
X72629502Y-24544180D01*
X72665812Y-24424482D01*
X72678072Y-24300000D01*
X72678072Y-23300000D01*
X72665812Y-23175518D01*
X72629502Y-23055820D01*
X72570537Y-22945506D01*
X72491185Y-22848815D01*
X72394494Y-22769463D01*
X72284180Y-22710498D01*
X72164482Y-22674188D01*
X72040000Y-22661928D01*
X71040000Y-22661928D01*
X70915518Y-22674188D01*
X70795820Y-22710498D01*
X70706820Y-22758070D01*
X70626864Y-22722554D01*
X70571874Y-22705881D01*
X70397000Y-22832046D01*
X70397000Y-23673000D01*
X70401928Y-23673000D01*
X70401928Y-23927000D01*
X70397000Y-23927000D01*
X70397000Y-23938026D01*
X70381788Y-23935000D01*
X70158212Y-23935000D01*
X70143000Y-23938026D01*
X70143000Y-23927000D01*
X69127000Y-23927000D01*
X69127000Y-23938026D01*
X69111788Y-23935000D01*
X68888212Y-23935000D01*
X68873000Y-23938026D01*
X68873000Y-23927000D01*
X68861974Y-23927000D01*
X68865000Y-23911788D01*
X68865000Y-23688212D01*
X68861974Y-23673000D01*
X68873000Y-23673000D01*
X68873000Y-22832046D01*
X69127000Y-22832046D01*
X69127000Y-23673000D01*
X70143000Y-23673000D01*
X70143000Y-22832046D01*
X69968126Y-22705881D01*
X69913136Y-22722554D01*
X69709794Y-22812877D01*
X69635000Y-22865639D01*
X69560206Y-22812877D01*
X69356864Y-22722554D01*
X69301874Y-22705881D01*
X69127000Y-22832046D01*
X68873000Y-22832046D01*
X68698126Y-22705881D01*
X68643136Y-22722554D01*
X68439794Y-22812877D01*
X68369658Y-22862353D01*
X68267624Y-22794176D01*
X68061067Y-22708617D01*
X67841788Y-22665000D01*
X67618212Y-22665000D01*
X67398933Y-22708617D01*
X67192376Y-22794176D01*
X67090342Y-22862353D01*
X67020206Y-22812877D01*
X66816864Y-22722554D01*
X66761874Y-22705881D01*
X66587000Y-22832046D01*
X66587000Y-23673000D01*
X66598026Y-23673000D01*
X66595000Y-23688212D01*
X66595000Y-23911788D01*
X66598026Y-23927000D01*
X66587000Y-23927000D01*
X66587000Y-23938026D01*
X66571788Y-23935000D01*
X66348212Y-23935000D01*
X66333000Y-23938026D01*
X66333000Y-23927000D01*
X65490871Y-23927000D01*
X65365874Y-24101876D01*
X65445790Y-24309529D01*
X65522256Y-24430488D01*
X65454176Y-24532376D01*
X65368617Y-24738933D01*
X65325000Y-24958212D01*
X65325000Y-25181788D01*
X65368617Y-25401067D01*
X65454176Y-25607624D01*
X65575000Y-25788450D01*
X65575000Y-26141530D01*
X65570719Y-26185000D01*
X65575000Y-26228469D01*
X65575000Y-26228476D01*
X65579829Y-26277502D01*
X65587805Y-26358490D01*
X65603157Y-26409096D01*
X65638411Y-26525312D01*
X65720589Y-26679058D01*
X65831183Y-26813817D01*
X65864956Y-26841534D01*
X65888422Y-26865000D01*
X57788454Y-26865000D01*
X57740256Y-26832795D01*
X57551898Y-26754774D01*
X57351939Y-26715000D01*
X57148061Y-26715000D01*
X56948102Y-26754774D01*
X56759744Y-26832795D01*
X56590226Y-26946063D01*
X56446063Y-27090226D01*
X56332795Y-27259744D01*
X56254774Y-27448102D01*
X56215000Y-27648061D01*
X54235000Y-27648061D01*
X54235000Y-24368061D01*
X58335000Y-24368061D01*
X58335000Y-24571939D01*
X58374774Y-24771898D01*
X58452795Y-24960256D01*
X58566063Y-25129774D01*
X58710226Y-25273937D01*
X58879744Y-25387205D01*
X59068102Y-25465226D01*
X59268061Y-25505000D01*
X59471939Y-25505000D01*
X59671898Y-25465226D01*
X59860256Y-25387205D01*
X60029774Y-25273937D01*
X60173937Y-25129774D01*
X60287205Y-24960256D01*
X60365226Y-24771898D01*
X60405000Y-24571939D01*
X60405000Y-24368061D01*
X60365226Y-24168102D01*
X60287205Y-23979744D01*
X60173937Y-23810226D01*
X60029774Y-23666063D01*
X59860256Y-23552795D01*
X59728270Y-23498124D01*
X65365874Y-23498124D01*
X65490871Y-23673000D01*
X66333000Y-23673000D01*
X66333000Y-22832046D01*
X66158126Y-22705881D01*
X66103136Y-22722554D01*
X65899794Y-22812877D01*
X65717980Y-22941135D01*
X65564682Y-23102399D01*
X65445790Y-23290471D01*
X65365874Y-23498124D01*
X59728270Y-23498124D01*
X59671898Y-23474774D01*
X59471939Y-23435000D01*
X59268061Y-23435000D01*
X59068102Y-23474774D01*
X58879744Y-23552795D01*
X58710226Y-23666063D01*
X58566063Y-23810226D01*
X58452795Y-23979744D01*
X58374774Y-24168102D01*
X58335000Y-24368061D01*
X54235000Y-24368061D01*
X54235000Y-23645131D01*
X55640000Y-22240132D01*
X55640000Y-22334703D01*
X55673049Y-22500853D01*
X55737878Y-22657363D01*
X55831995Y-22798218D01*
X55951782Y-22918005D01*
X56092637Y-23012122D01*
X56249147Y-23076951D01*
X56415297Y-23110000D01*
X56584703Y-23110000D01*
X56750853Y-23076951D01*
X56907363Y-23012122D01*
X57048218Y-22918005D01*
X57168005Y-22798218D01*
X57262122Y-22657363D01*
X57326951Y-22500853D01*
X57360000Y-22334703D01*
X57360000Y-22210000D01*
X58640000Y-22210000D01*
X58640000Y-22334703D01*
X58673049Y-22500853D01*
X58737878Y-22657363D01*
X58831995Y-22798218D01*
X58951782Y-22918005D01*
X59092637Y-23012122D01*
X59249147Y-23076951D01*
X59415297Y-23110000D01*
X59584703Y-23110000D01*
X59750853Y-23076951D01*
X59907363Y-23012122D01*
X60048218Y-22918005D01*
X60168005Y-22798218D01*
X60262122Y-22657363D01*
X60326951Y-22500853D01*
X60360000Y-22334703D01*
X60360000Y-22210000D01*
X72779869Y-22210000D01*
X75808009Y-25238141D01*
X75843551Y-25281449D01*
X76016377Y-25423284D01*
X76213553Y-25528676D01*
X76377705Y-25578471D01*
X76427500Y-25593577D01*
X76649999Y-25615491D01*
X76705751Y-25610000D01*
X84254869Y-25610000D01*
X85615000Y-26970132D01*
X85615000Y-27619248D01*
X85609509Y-27675000D01*
X85615000Y-27730751D01*
X85615000Y-28269249D01*
X85609509Y-28325000D01*
X85615000Y-28380751D01*
X85615000Y-28436788D01*
X85625932Y-28491748D01*
X85631423Y-28547498D01*
X85647684Y-28601103D01*
X85658617Y-28656067D01*
X85680064Y-28707845D01*
X85696324Y-28761446D01*
X85722730Y-28810848D01*
X85744176Y-28862624D01*
X85775307Y-28909215D01*
X85801716Y-28958623D01*
X85837259Y-29001932D01*
X85868388Y-29048520D01*
X85908009Y-29088141D01*
X85943551Y-29131449D01*
X85986859Y-29166991D01*
X86026480Y-29206612D01*
X86073068Y-29237741D01*
X86116377Y-29273284D01*
X86165786Y-29299693D01*
X86212376Y-29330824D01*
X86264149Y-29352269D01*
X86313553Y-29378676D01*
X86367158Y-29394937D01*
X86418933Y-29416383D01*
X86473894Y-29427315D01*
X86527501Y-29443577D01*
X86583253Y-29449068D01*
X86638212Y-29460000D01*
X86694248Y-29460000D01*
X86750000Y-29465491D01*
X86805751Y-29460000D01*
X86861788Y-29460000D01*
X86916748Y-29449068D01*
X86972498Y-29443577D01*
X87026103Y-29427316D01*
X87081067Y-29416383D01*
X87132845Y-29394936D01*
X87186446Y-29378676D01*
X87190113Y-29376716D01*
X87235848Y-29352270D01*
X87287624Y-29330824D01*
X87334215Y-29299693D01*
X87383623Y-29273284D01*
X87426932Y-29237741D01*
X87473520Y-29206612D01*
X87513141Y-29166991D01*
X87556449Y-29131449D01*
X87591991Y-29088141D01*
X87631612Y-29048520D01*
X87631614Y-29048517D01*
X88197313Y-28482818D01*
X91696787Y-28482818D01*
X92188946Y-29085149D01*
X93039933Y-29555063D01*
X93966243Y-29849929D01*
X94932281Y-29958414D01*
X95900921Y-29876351D01*
X96834938Y-29606893D01*
X97698440Y-29160394D01*
X97811054Y-29085149D01*
X98303213Y-28482818D01*
X95000000Y-25179605D01*
X91696787Y-28482818D01*
X88197313Y-28482818D01*
X88688140Y-27991992D01*
X88731449Y-27956449D01*
X88873284Y-27783623D01*
X88978676Y-27586447D01*
X88981690Y-27576510D01*
X89043577Y-27372499D01*
X89065491Y-27150000D01*
X89060000Y-27094249D01*
X89060000Y-26555752D01*
X89065491Y-26500000D01*
X89060000Y-26444248D01*
X89060000Y-26388212D01*
X89049068Y-26333253D01*
X89043577Y-26277501D01*
X89027315Y-26223894D01*
X89016383Y-26168933D01*
X88994937Y-26117158D01*
X88978676Y-26063553D01*
X88952269Y-26014149D01*
X88930824Y-25962376D01*
X88899693Y-25915786D01*
X88873284Y-25866377D01*
X88837741Y-25823068D01*
X88806612Y-25776480D01*
X88766991Y-25736859D01*
X88731449Y-25693551D01*
X88688141Y-25658009D01*
X88648520Y-25618388D01*
X88601932Y-25587259D01*
X88558623Y-25551716D01*
X88509214Y-25525307D01*
X88462624Y-25494176D01*
X88410851Y-25472731D01*
X88361447Y-25446324D01*
X88307842Y-25430063D01*
X88256067Y-25408617D01*
X88201106Y-25397685D01*
X88147499Y-25381423D01*
X88091747Y-25375932D01*
X88036788Y-25365000D01*
X87980751Y-25365000D01*
X87925000Y-25359509D01*
X87869248Y-25365000D01*
X87220132Y-25365000D01*
X86787413Y-24932281D01*
X90041586Y-24932281D01*
X90123649Y-25900921D01*
X90393107Y-26834938D01*
X90839606Y-27698440D01*
X90914851Y-27811054D01*
X91517182Y-28303213D01*
X94820395Y-25000000D01*
X91517182Y-21696787D01*
X90914851Y-22188946D01*
X90444937Y-23039933D01*
X90150071Y-23966243D01*
X90041586Y-24932281D01*
X86787413Y-24932281D01*
X85566996Y-23711865D01*
X85531449Y-23668551D01*
X85358623Y-23526716D01*
X85161447Y-23421324D01*
X84947499Y-23356423D01*
X84780752Y-23340000D01*
X84780751Y-23340000D01*
X84725000Y-23334509D01*
X84669249Y-23340000D01*
X77120132Y-23340000D01*
X74440131Y-20660000D01*
X76641840Y-20660000D01*
X76584618Y-20729725D01*
G36*
X52336860Y-22333009D02*
G01*
X52293552Y-22368551D01*
X52151717Y-22541377D01*
X52106316Y-22626317D01*
X52046324Y-22738554D01*
X51981423Y-22952502D01*
X51959509Y-23175000D01*
X51965001Y-23230761D01*
X51965000Y-27736828D01*
X50511829Y-29190000D01*
X27641184Y-29190000D01*
X27698440Y-29160394D01*
X27811054Y-29085149D01*
X28303213Y-28482818D01*
X25000000Y-25179605D01*
X21696787Y-28482818D01*
X22188946Y-29085149D01*
X22655189Y-29342608D01*
X22591377Y-29376716D01*
X22418551Y-29518551D01*
X22383011Y-29561857D01*
X20896861Y-31048008D01*
X20853553Y-31083550D01*
X20711718Y-31256376D01*
X20702681Y-31273284D01*
X20660000Y-31353134D01*
X20660000Y-27351093D01*
X20839606Y-27698440D01*
X20914851Y-27811054D01*
X21517182Y-28303213D01*
X24820395Y-25000000D01*
X25179605Y-25000000D01*
X28482818Y-28303213D01*
X29085149Y-27811054D01*
X29555063Y-26960067D01*
X29849929Y-26033757D01*
X29958414Y-25067719D01*
X29877040Y-24107213D01*
X29912376Y-24130824D01*
X30118933Y-24216383D01*
X30338212Y-24260000D01*
X30561788Y-24260000D01*
X30781067Y-24216383D01*
X30987624Y-24130824D01*
X31173520Y-24006612D01*
X31331612Y-23848520D01*
X31455824Y-23662624D01*
X31541383Y-23456067D01*
X31585000Y-23236788D01*
X31585000Y-23013212D01*
X33365000Y-23013212D01*
X33365000Y-23236788D01*
X33408617Y-23456067D01*
X33494176Y-23662624D01*
X33618388Y-23848520D01*
X33776480Y-24006612D01*
X33962376Y-24130824D01*
X34168933Y-24216383D01*
X34388212Y-24260000D01*
X34611788Y-24260000D01*
X34831067Y-24216383D01*
X35037624Y-24130824D01*
X35223520Y-24006612D01*
X35381612Y-23848520D01*
X35505824Y-23662624D01*
X35591383Y-23456067D01*
X35635000Y-23236788D01*
X35635000Y-23013212D01*
X37590000Y-23013212D01*
X37590000Y-23236788D01*
X37633617Y-23456067D01*
X37719176Y-23662624D01*
X37843388Y-23848520D01*
X38001480Y-24006612D01*
X38187376Y-24130824D01*
X38393933Y-24216383D01*
X38613212Y-24260000D01*
X38836788Y-24260000D01*
X39056067Y-24216383D01*
X39262624Y-24130824D01*
X39448520Y-24006612D01*
X39606612Y-23848520D01*
X39730824Y-23662624D01*
X39816383Y-23456067D01*
X39860000Y-23236788D01*
X39860000Y-23013212D01*
X41790000Y-23013212D01*
X41790000Y-23236788D01*
X41833617Y-23456067D01*
X41919176Y-23662624D01*
X42043388Y-23848520D01*
X42201480Y-24006612D01*
X42387376Y-24130824D01*
X42593933Y-24216383D01*
X42813212Y-24260000D01*
X43036788Y-24260000D01*
X43256067Y-24216383D01*
X43462624Y-24130824D01*
X43648520Y-24006612D01*
X43806612Y-23848520D01*
X43930824Y-23662624D01*
X44016383Y-23456067D01*
X44060000Y-23236788D01*
X44060000Y-23013212D01*
X45990000Y-23013212D01*
X45990000Y-23236788D01*
X46033617Y-23456067D01*
X46119176Y-23662624D01*
X46243388Y-23848520D01*
X46401480Y-24006612D01*
X46587376Y-24130824D01*
X46793933Y-24216383D01*
X47013212Y-24260000D01*
X47236788Y-24260000D01*
X47456067Y-24216383D01*
X47662624Y-24130824D01*
X47848520Y-24006612D01*
X48006612Y-23848520D01*
X48130824Y-23662624D01*
X48216383Y-23456067D01*
X48260000Y-23236788D01*
X48260000Y-23013212D01*
X48216383Y-22793933D01*
X48130824Y-22587376D01*
X48006612Y-22401480D01*
X47848520Y-22243388D01*
X47662624Y-22119176D01*
X47456067Y-22033617D01*
X47236788Y-21990000D01*
X47013212Y-21990000D01*
X46793933Y-22033617D01*
X46587376Y-22119176D01*
X46401480Y-22243388D01*
X46243388Y-22401480D01*
X46119176Y-22587376D01*
X46033617Y-22793933D01*
X45990000Y-23013212D01*
X44060000Y-23013212D01*
X44016383Y-22793933D01*
X43930824Y-22587376D01*
X43806612Y-22401480D01*
X43648520Y-22243388D01*
X43462624Y-22119176D01*
X43256067Y-22033617D01*
X43036788Y-21990000D01*
X42813212Y-21990000D01*
X42593933Y-22033617D01*
X42387376Y-22119176D01*
X42201480Y-22243388D01*
X42043388Y-22401480D01*
X41919176Y-22587376D01*
X41833617Y-22793933D01*
X41790000Y-23013212D01*
X39860000Y-23013212D01*
X39816383Y-22793933D01*
X39730824Y-22587376D01*
X39606612Y-22401480D01*
X39448520Y-22243388D01*
X39262624Y-22119176D01*
X39056067Y-22033617D01*
X38836788Y-21990000D01*
X38613212Y-21990000D01*
X38393933Y-22033617D01*
X38187376Y-22119176D01*
X38001480Y-22243388D01*
X37843388Y-22401480D01*
X37719176Y-22587376D01*
X37633617Y-22793933D01*
X37590000Y-23013212D01*
X35635000Y-23013212D01*
X35591383Y-22793933D01*
X35505824Y-22587376D01*
X35381612Y-22401480D01*
X35223520Y-22243388D01*
X35037624Y-22119176D01*
X34831067Y-22033617D01*
X34611788Y-21990000D01*
X34388212Y-21990000D01*
X34168933Y-22033617D01*
X33962376Y-22119176D01*
X33776480Y-22243388D01*
X33618388Y-22401480D01*
X33494176Y-22587376D01*
X33408617Y-22793933D01*
X33365000Y-23013212D01*
X31585000Y-23013212D01*
X31541383Y-22793933D01*
X31455824Y-22587376D01*
X31331612Y-22401480D01*
X31173520Y-22243388D01*
X30987624Y-22119176D01*
X30781067Y-22033617D01*
X30561788Y-21990000D01*
X30338212Y-21990000D01*
X30118933Y-22033617D01*
X29912376Y-22119176D01*
X29726480Y-22243388D01*
X29568388Y-22401480D01*
X29444176Y-22587376D01*
X29383690Y-22733401D01*
X29160394Y-22301560D01*
X29085149Y-22188946D01*
X28482818Y-21696787D01*
X25179605Y-25000000D01*
X24820395Y-25000000D01*
X24806253Y-24985858D01*
X24985858Y-24806253D01*
X25000000Y-24820395D01*
X28303213Y-21517182D01*
X27811054Y-20914851D01*
X27349534Y-20660000D01*
X54009868Y-20660000D01*
X52336860Y-22333009D01*
G37*
X52336860Y-22333009D02*
X52293552Y-22368551D01*
X52151717Y-22541377D01*
X52106316Y-22626317D01*
X52046324Y-22738554D01*
X51981423Y-22952502D01*
X51959509Y-23175000D01*
X51965001Y-23230761D01*
X51965000Y-27736828D01*
X50511829Y-29190000D01*
X27641184Y-29190000D01*
X27698440Y-29160394D01*
X27811054Y-29085149D01*
X28303213Y-28482818D01*
X25000000Y-25179605D01*
X21696787Y-28482818D01*
X22188946Y-29085149D01*
X22655189Y-29342608D01*
X22591377Y-29376716D01*
X22418551Y-29518551D01*
X22383011Y-29561857D01*
X20896861Y-31048008D01*
X20853553Y-31083550D01*
X20711718Y-31256376D01*
X20702681Y-31273284D01*
X20660000Y-31353134D01*
X20660000Y-27351093D01*
X20839606Y-27698440D01*
X20914851Y-27811054D01*
X21517182Y-28303213D01*
X24820395Y-25000000D01*
X25179605Y-25000000D01*
X28482818Y-28303213D01*
X29085149Y-27811054D01*
X29555063Y-26960067D01*
X29849929Y-26033757D01*
X29958414Y-25067719D01*
X29877040Y-24107213D01*
X29912376Y-24130824D01*
X30118933Y-24216383D01*
X30338212Y-24260000D01*
X30561788Y-24260000D01*
X30781067Y-24216383D01*
X30987624Y-24130824D01*
X31173520Y-24006612D01*
X31331612Y-23848520D01*
X31455824Y-23662624D01*
X31541383Y-23456067D01*
X31585000Y-23236788D01*
X31585000Y-23013212D01*
X33365000Y-23013212D01*
X33365000Y-23236788D01*
X33408617Y-23456067D01*
X33494176Y-23662624D01*
X33618388Y-23848520D01*
X33776480Y-24006612D01*
X33962376Y-24130824D01*
X34168933Y-24216383D01*
X34388212Y-24260000D01*
X34611788Y-24260000D01*
X34831067Y-24216383D01*
X35037624Y-24130824D01*
X35223520Y-24006612D01*
X35381612Y-23848520D01*
X35505824Y-23662624D01*
X35591383Y-23456067D01*
X35635000Y-23236788D01*
X35635000Y-23013212D01*
X37590000Y-23013212D01*
X37590000Y-23236788D01*
X37633617Y-23456067D01*
X37719176Y-23662624D01*
X37843388Y-23848520D01*
X38001480Y-24006612D01*
X38187376Y-24130824D01*
X38393933Y-24216383D01*
X38613212Y-24260000D01*
X38836788Y-24260000D01*
X39056067Y-24216383D01*
X39262624Y-24130824D01*
X39448520Y-24006612D01*
X39606612Y-23848520D01*
X39730824Y-23662624D01*
X39816383Y-23456067D01*
X39860000Y-23236788D01*
X39860000Y-23013212D01*
X41790000Y-23013212D01*
X41790000Y-23236788D01*
X41833617Y-23456067D01*
X41919176Y-23662624D01*
X42043388Y-23848520D01*
X42201480Y-24006612D01*
X42387376Y-24130824D01*
X42593933Y-24216383D01*
X42813212Y-24260000D01*
X43036788Y-24260000D01*
X43256067Y-24216383D01*
X43462624Y-24130824D01*
X43648520Y-24006612D01*
X43806612Y-23848520D01*
X43930824Y-23662624D01*
X44016383Y-23456067D01*
X44060000Y-23236788D01*
X44060000Y-23013212D01*
X45990000Y-23013212D01*
X45990000Y-23236788D01*
X46033617Y-23456067D01*
X46119176Y-23662624D01*
X46243388Y-23848520D01*
X46401480Y-24006612D01*
X46587376Y-24130824D01*
X46793933Y-24216383D01*
X47013212Y-24260000D01*
X47236788Y-24260000D01*
X47456067Y-24216383D01*
X47662624Y-24130824D01*
X47848520Y-24006612D01*
X48006612Y-23848520D01*
X48130824Y-23662624D01*
X48216383Y-23456067D01*
X48260000Y-23236788D01*
X48260000Y-23013212D01*
X48216383Y-22793933D01*
X48130824Y-22587376D01*
X48006612Y-22401480D01*
X47848520Y-22243388D01*
X47662624Y-22119176D01*
X47456067Y-22033617D01*
X47236788Y-21990000D01*
X47013212Y-21990000D01*
X46793933Y-22033617D01*
X46587376Y-22119176D01*
X46401480Y-22243388D01*
X46243388Y-22401480D01*
X46119176Y-22587376D01*
X46033617Y-22793933D01*
X45990000Y-23013212D01*
X44060000Y-23013212D01*
X44016383Y-22793933D01*
X43930824Y-22587376D01*
X43806612Y-22401480D01*
X43648520Y-22243388D01*
X43462624Y-22119176D01*
X43256067Y-22033617D01*
X43036788Y-21990000D01*
X42813212Y-21990000D01*
X42593933Y-22033617D01*
X42387376Y-22119176D01*
X42201480Y-22243388D01*
X42043388Y-22401480D01*
X41919176Y-22587376D01*
X41833617Y-22793933D01*
X41790000Y-23013212D01*
X39860000Y-23013212D01*
X39816383Y-22793933D01*
X39730824Y-22587376D01*
X39606612Y-22401480D01*
X39448520Y-22243388D01*
X39262624Y-22119176D01*
X39056067Y-22033617D01*
X38836788Y-21990000D01*
X38613212Y-21990000D01*
X38393933Y-22033617D01*
X38187376Y-22119176D01*
X38001480Y-22243388D01*
X37843388Y-22401480D01*
X37719176Y-22587376D01*
X37633617Y-22793933D01*
X37590000Y-23013212D01*
X35635000Y-23013212D01*
X35591383Y-22793933D01*
X35505824Y-22587376D01*
X35381612Y-22401480D01*
X35223520Y-22243388D01*
X35037624Y-22119176D01*
X34831067Y-22033617D01*
X34611788Y-21990000D01*
X34388212Y-21990000D01*
X34168933Y-22033617D01*
X33962376Y-22119176D01*
X33776480Y-22243388D01*
X33618388Y-22401480D01*
X33494176Y-22587376D01*
X33408617Y-22793933D01*
X33365000Y-23013212D01*
X31585000Y-23013212D01*
X31541383Y-22793933D01*
X31455824Y-22587376D01*
X31331612Y-22401480D01*
X31173520Y-22243388D01*
X30987624Y-22119176D01*
X30781067Y-22033617D01*
X30561788Y-21990000D01*
X30338212Y-21990000D01*
X30118933Y-22033617D01*
X29912376Y-22119176D01*
X29726480Y-22243388D01*
X29568388Y-22401480D01*
X29444176Y-22587376D01*
X29383690Y-22733401D01*
X29160394Y-22301560D01*
X29085149Y-22188946D01*
X28482818Y-21696787D01*
X25179605Y-25000000D01*
X24820395Y-25000000D01*
X24806253Y-24985858D01*
X24985858Y-24806253D01*
X25000000Y-24820395D01*
X28303213Y-21517182D01*
X27811054Y-20914851D01*
X27349534Y-20660000D01*
X54009868Y-20660000D01*
X52336860Y-22333009D01*
M02*
