M48
; DRILL file {KiCad (5.1.5)-3} date 21/05/2020 19:58:42
; FORMAT={3:3/ absolute / metric / suppress leading zeros}
; #@! TF.CreationDate,2020-05-21T19:58:42+02:00
; #@! TF.GenerationSoftware,Kicad,Pcbnew,(5.1.5)-3
FMAT,2
METRIC,TZ
T1C0.400
T2C0.600
T3C0.650
T4C0.900
T5C0.950
T6C1.000
T7C1.200
T8C4.300
%
G90
G05
T1
X26000Y-31500
X26000Y-32500
X26000Y-33500
X27000Y-31500
X27000Y-32500
X27000Y-33500
X27700Y-39400
X28000Y-31500
X28000Y-32500
X28000Y-33500
X28700Y-39400
X31700Y-43800
X31700Y-44700
X32450Y-42700
X32700Y-38325
X38525Y-26260
X42720Y-26260
X45630Y-54390
X46920Y-26260
X49100Y-54120
X49660Y-46150
X51130Y-26260
X51300Y-47600
X51620Y-54390
X52300Y-40600
X53200Y-41900
X54100Y-47600
X54870Y-24470
X55100Y-54120
X57250Y-27750
X57500Y-38147
X57750Y-39750
X57750Y-40750
X57750Y-41750
X57750Y-42750
X57750Y-43750
X57750Y-44750
X57750Y-45750
X57750Y-46750
X58750Y-46750
X59370Y-24470
X59475Y-44850
X59750Y-46750
X60750Y-46750
X60750Y-47750
X61050Y-57475
X61750Y-47750
X62000Y-55600
X62250Y-39350
X62600Y-58975
X63475Y-33100
X64200Y-36600
X64450Y-32070
X64450Y-33100
X64878Y-37422
X65280Y-30850
X65400Y-58975
X66420Y-30860
X66450Y-51800
X66450Y-52800
X66500Y-57000
X67350Y-53720
X67610Y-30880
X67800Y-37500
X67990Y-41930
X67990Y-44120
X67990Y-45040
X68120Y-38550
X68320Y-53720
X68558Y-41107
X68700Y-43150
X69060Y-42130
X69100Y-35900
X69470Y-31800
X69490Y-32810
X69500Y-41107
X70847Y-52250
X71200Y-60450
X71600Y-36175
X72250Y-51800
X72250Y-53000
X73750Y-55750
X74000Y-60450
X75250Y-48000
X76200Y-53700
X76750Y-26000
X76750Y-27000
X77025Y-55050
X77750Y-26000
X77750Y-27000
X77950Y-55050
X78750Y-26000
X78750Y-27000
X79125Y-28275
X81300Y-53650
X81800Y-33070
X82500Y-51900
X82600Y-58550
X82770Y-33070
X83440Y-50000
X83440Y-51030
X83614Y-58561
X83670Y-34000
X84350Y-50000
X85100Y-45275
X85390Y-35210
X86150Y-46300
T2
X22160Y-48470
X23360Y-48470
X23800Y-56700
X24540Y-48470
X25200Y-56700
X26900Y-56700
X28200Y-56700
X29800Y-56700
X30450Y-23125
X30450Y-24680
X30800Y-50300
X31200Y-56700
X32200Y-50300
X33100Y-48900
X34500Y-23125
X35120Y-66470
X35200Y-40700
X36380Y-66470
X37200Y-51100
X37200Y-54900
X38250Y-40725
X38400Y-51100
X38400Y-54900
X38580Y-45640
X38580Y-46850
X38725Y-23125
X39600Y-51100
X39600Y-54900
X39700Y-48800
X40800Y-48800
X40800Y-54900
X42000Y-48800
X42000Y-54900
X42925Y-23125
X43200Y-48800
X43200Y-50000
X43200Y-52500
X43200Y-53700
X43200Y-54900
X46120Y-66470
X47125Y-23125
X47370Y-66480
X57120Y-66470
X58380Y-66480
X68130Y-66470
X69370Y-66480
X78880Y-66470
X80130Y-66480
X86750Y-26500
X86750Y-28325
X87925Y-26500
X91775Y-65000
X92720Y-62720
X92720Y-67280
X95000Y-61775
X95000Y-68225
X97280Y-62720
X97280Y-67280
X98225Y-65000
X91775Y-25000
X92720Y-22720
X92720Y-27280
X95000Y-21775
X95000Y-28225
X97280Y-22720
X97280Y-27280
X98225Y-25000
X21775Y-25000
X22720Y-22720
X22720Y-27280
X25000Y-21775
X25000Y-28225
X27280Y-22720
X27280Y-27280
X28225Y-25000
X21775Y-65000
X22720Y-62720
X22720Y-67280
X25000Y-61775
X25000Y-68225
X27280Y-62720
X27280Y-67280
X28225Y-65000
T3
X66460Y-23800
X66460Y-25070
X67730Y-23800
X67730Y-25070
X69000Y-23800
X69000Y-25070
X70270Y-23800
X70270Y-25070
X71540Y-23800
X71540Y-25070
T4
X56500Y-22250
X59500Y-22250
T6
X92925Y-40050
X92925Y-42590
X92925Y-45130
X92925Y-47670
X92925Y-50210
X92925Y-52750
X92925Y-55290
X92925Y-57830
X95460Y-40020
X95460Y-42560
X95460Y-45100
X95460Y-47640
X95460Y-50180
X95460Y-52720
X95460Y-55260
X95460Y-57800
X98000Y-40020
X98000Y-42560
X98000Y-45100
X98000Y-47640
X98000Y-50180
X98000Y-52720
X98000Y-55260
X98000Y-57800
T7
X94725Y-32275
X94725Y-35775
T8
X95000Y-65000
X95000Y-25000
X25000Y-25000
X25000Y-65000
T5
G00X77700Y-21500
M15
G01X77700Y-21850
M16
G05
G00X84300Y-21500
M15
G01X84300Y-21850
M16
G05
T0
M30
