G04 #@! TF.GenerationSoftware,KiCad,Pcbnew,(5.1.5)-3*
G04 #@! TF.CreationDate,2020-07-07T14:13:24+02:00*
G04 #@! TF.ProjectId,HadesNT,48616465-734e-4542-9e6b-696361645f70,rev?*
G04 #@! TF.SameCoordinates,Original*
G04 #@! TF.FileFunction,Legend,Top*
G04 #@! TF.FilePolarity,Positive*
%FSLAX46Y46*%
G04 Gerber Fmt 4.6, Leading zero omitted, Abs format (unit mm)*
G04 Created by KiCad (PCBNEW (5.1.5)-3) date 2020-07-07 14:13:24*
%MOMM*%
%LPD*%
G04 APERTURE LIST*
%ADD10C,0.100000*%
%ADD11C,0.150000*%
%ADD12C,0.120000*%
%ADD13C,0.200000*%
%ADD14C,0.010000*%
G04 APERTURE END LIST*
D10*
X32020238Y-41332142D02*
X32629761Y-41332142D01*
X32325000Y-41636904D02*
X32325000Y-41027380D01*
D11*
X92639285Y-38029761D02*
X92782142Y-38077380D01*
X93020238Y-38077380D01*
X93115476Y-38029761D01*
X93163095Y-37982142D01*
X93210714Y-37886904D01*
X93210714Y-37791666D01*
X93163095Y-37696428D01*
X93115476Y-37648809D01*
X93020238Y-37601190D01*
X92829761Y-37553571D01*
X92734523Y-37505952D01*
X92686904Y-37458333D01*
X92639285Y-37363095D01*
X92639285Y-37267857D01*
X92686904Y-37172619D01*
X92734523Y-37125000D01*
X92829761Y-37077380D01*
X93067857Y-37077380D01*
X93210714Y-37125000D01*
X97619047Y-37596428D02*
X98380952Y-37596428D01*
X95069047Y-37596428D02*
X95830952Y-37596428D01*
X95450000Y-37977380D02*
X95450000Y-37215476D01*
D10*
X25870238Y-37132142D02*
X26479761Y-37132142D01*
X26175000Y-37436904D02*
X26175000Y-36827380D01*
D12*
X41830902Y-35025000D02*
G75*
G03X41830902Y-35025000I-55902J0D01*
G01*
X31355902Y-40975000D02*
G75*
G03X31355902Y-40975000I-55902J0D01*
G01*
D10*
X54295238Y-30232142D02*
X54904761Y-30232142D01*
X54600000Y-30536904D02*
X54600000Y-29927380D01*
D12*
X82355902Y-26405901D02*
G75*
G03X82355902Y-26405901I-55902J0D01*
G01*
X80600001Y-58850000D02*
G75*
G03X80600001Y-58850000I-55902J0D01*
G01*
X54030902Y-46900000D02*
G75*
G03X54030902Y-46900000I-55902J0D01*
G01*
X37905902Y-53694099D02*
G75*
G03X37905902Y-53694099I-55902J0D01*
G01*
D11*
X27259523Y-52402380D02*
X26926190Y-51926190D01*
X26688095Y-52402380D02*
X26688095Y-51402380D01*
X27069047Y-51402380D01*
X27164285Y-51450000D01*
X27211904Y-51497619D01*
X27259523Y-51592857D01*
X27259523Y-51735714D01*
X27211904Y-51830952D01*
X27164285Y-51878571D01*
X27069047Y-51926190D01*
X26688095Y-51926190D01*
X28259523Y-52307142D02*
X28211904Y-52354761D01*
X28069047Y-52402380D01*
X27973809Y-52402380D01*
X27830952Y-52354761D01*
X27735714Y-52259523D01*
X27688095Y-52164285D01*
X27640476Y-51973809D01*
X27640476Y-51830952D01*
X27688095Y-51640476D01*
X27735714Y-51545238D01*
X27830952Y-51450000D01*
X27973809Y-51402380D01*
X28069047Y-51402380D01*
X28211904Y-51450000D01*
X28259523Y-51497619D01*
D10*
X83745238Y-27307142D02*
X84354761Y-27307142D01*
X84050000Y-27611904D02*
X84050000Y-27002380D01*
X30595238Y-23857142D02*
X31204761Y-23857142D01*
X30900000Y-24161904D02*
X30900000Y-23552380D01*
X34670238Y-23857142D02*
X35279761Y-23857142D01*
X34975000Y-24161904D02*
X34975000Y-23552380D01*
X38870238Y-23857142D02*
X39479761Y-23857142D01*
X39175000Y-24161904D02*
X39175000Y-23552380D01*
X43070238Y-23857142D02*
X43679761Y-23857142D01*
X43375000Y-24161904D02*
X43375000Y-23552380D01*
X47295238Y-23857142D02*
X47904761Y-23857142D01*
X47600000Y-24161904D02*
X47600000Y-23552380D01*
D12*
X65430902Y-36300000D02*
G75*
G03X65430902Y-36300000I-55902J0D01*
G01*
X49405902Y-61125000D02*
G75*
G03X49405902Y-61125000I-55902J0D01*
G01*
X43405902Y-61125000D02*
G75*
G03X43405902Y-61125000I-55902J0D01*
G01*
X63330902Y-55700000D02*
G75*
G03X63330902Y-55700000I-55902J0D01*
G01*
X50830902Y-28150000D02*
G75*
G03X50830902Y-28150000I-55902J0D01*
G01*
X46630902Y-28150000D02*
G75*
G03X46630902Y-28150000I-55902J0D01*
G01*
X42430902Y-28150000D02*
G75*
G03X42430902Y-28150000I-55902J0D01*
G01*
X38230902Y-28150000D02*
G75*
G03X38230902Y-28150000I-55902J0D01*
G01*
X45500000Y-45500000D02*
X45500000Y-45000000D01*
X45000000Y-45500000D02*
X45500000Y-45500000D01*
D11*
X48000000Y-44976190D02*
X48000000Y-45452380D01*
X47666666Y-44452380D02*
X48000000Y-44976190D01*
X48333333Y-44452380D01*
X43666666Y-46952380D02*
X44333333Y-47952380D01*
X44333333Y-46952380D02*
X43666666Y-47952380D01*
D12*
X45000000Y-47500000D02*
X45250000Y-47250000D01*
X44750000Y-47250000D02*
X45000000Y-47500000D01*
X45000000Y-45000000D02*
X45000000Y-47500000D01*
X47500000Y-45000000D02*
X47250000Y-45250000D01*
X47500000Y-45000000D02*
X47250000Y-44750000D01*
X45000000Y-45000000D02*
X47500000Y-45000000D01*
D10*
G36*
X73400000Y-23600000D02*
G01*
X74000000Y-23600000D01*
X74000000Y-24000000D01*
X73400000Y-24000000D01*
X73400000Y-24200000D01*
X73000000Y-23800000D01*
X73400000Y-23400000D01*
X73400000Y-23600000D01*
G37*
X73400000Y-23600000D02*
X74000000Y-23600000D01*
X74000000Y-24000000D01*
X73400000Y-24000000D01*
X73400000Y-24200000D01*
X73000000Y-23800000D01*
X73400000Y-23400000D01*
X73400000Y-23600000D01*
G36*
X61400000Y-26400000D02*
G01*
X60600000Y-27000000D01*
X60600000Y-26600000D01*
X58800000Y-26600000D01*
X58800000Y-26200000D01*
X60600000Y-26200000D01*
X60600000Y-25800000D01*
X61400000Y-26400000D01*
G37*
X61400000Y-26400000D02*
X60600000Y-27000000D01*
X60600000Y-26600000D01*
X58800000Y-26600000D01*
X58800000Y-26200000D01*
X60600000Y-26200000D01*
X60600000Y-25800000D01*
X61400000Y-26400000D01*
D11*
X86238095Y-20852380D02*
X86238095Y-21661904D01*
X86285714Y-21757142D01*
X86333333Y-21804761D01*
X86428571Y-21852380D01*
X86619047Y-21852380D01*
X86714285Y-21804761D01*
X86761904Y-21757142D01*
X86809523Y-21661904D01*
X86809523Y-20852380D01*
X87238095Y-21804761D02*
X87380952Y-21852380D01*
X87619047Y-21852380D01*
X87714285Y-21804761D01*
X87761904Y-21757142D01*
X87809523Y-21661904D01*
X87809523Y-21566666D01*
X87761904Y-21471428D01*
X87714285Y-21423809D01*
X87619047Y-21376190D01*
X87428571Y-21328571D01*
X87333333Y-21280952D01*
X87285714Y-21233333D01*
X87238095Y-21138095D01*
X87238095Y-21042857D01*
X87285714Y-20947619D01*
X87333333Y-20900000D01*
X87428571Y-20852380D01*
X87666666Y-20852380D01*
X87809523Y-20900000D01*
X88571428Y-21328571D02*
X88714285Y-21376190D01*
X88761904Y-21423809D01*
X88809523Y-21519047D01*
X88809523Y-21661904D01*
X88761904Y-21757142D01*
X88714285Y-21804761D01*
X88619047Y-21852380D01*
X88238095Y-21852380D01*
X88238095Y-20852380D01*
X88571428Y-20852380D01*
X88666666Y-20900000D01*
X88714285Y-20947619D01*
X88761904Y-21042857D01*
X88761904Y-21138095D01*
X88714285Y-21233333D01*
X88666666Y-21280952D01*
X88571428Y-21328571D01*
X88238095Y-21328571D01*
X67642857Y-21804761D02*
X67785714Y-21852380D01*
X68023809Y-21852380D01*
X68119047Y-21804761D01*
X68166666Y-21757142D01*
X68214285Y-21661904D01*
X68214285Y-21566666D01*
X68166666Y-21471428D01*
X68119047Y-21423809D01*
X68023809Y-21376190D01*
X67833333Y-21328571D01*
X67738095Y-21280952D01*
X67690476Y-21233333D01*
X67642857Y-21138095D01*
X67642857Y-21042857D01*
X67690476Y-20947619D01*
X67738095Y-20900000D01*
X67833333Y-20852380D01*
X68071428Y-20852380D01*
X68214285Y-20900000D01*
X68547619Y-20852380D02*
X68785714Y-21852380D01*
X68976190Y-21138095D01*
X69166666Y-21852380D01*
X69404761Y-20852380D01*
X69785714Y-21852380D02*
X69785714Y-20852380D01*
X70023809Y-20852380D01*
X70166666Y-20900000D01*
X70261904Y-20995238D01*
X70309523Y-21090476D01*
X70357142Y-21280952D01*
X70357142Y-21423809D01*
X70309523Y-21614285D01*
X70261904Y-21709523D01*
X70166666Y-21804761D01*
X70023809Y-21852380D01*
X69785714Y-21852380D01*
X55242857Y-26328571D02*
X55385714Y-26376190D01*
X55433333Y-26423809D01*
X55480952Y-26519047D01*
X55480952Y-26661904D01*
X55433333Y-26757142D01*
X55385714Y-26804761D01*
X55290476Y-26852380D01*
X54909523Y-26852380D01*
X54909523Y-25852380D01*
X55242857Y-25852380D01*
X55338095Y-25900000D01*
X55385714Y-25947619D01*
X55433333Y-26042857D01*
X55433333Y-26138095D01*
X55385714Y-26233333D01*
X55338095Y-26280952D01*
X55242857Y-26328571D01*
X54909523Y-26328571D01*
X56100000Y-25852380D02*
X56290476Y-25852380D01*
X56385714Y-25900000D01*
X56480952Y-25995238D01*
X56528571Y-26185714D01*
X56528571Y-26519047D01*
X56480952Y-26709523D01*
X56385714Y-26804761D01*
X56290476Y-26852380D01*
X56100000Y-26852380D01*
X56004761Y-26804761D01*
X55909523Y-26709523D01*
X55861904Y-26519047D01*
X55861904Y-26185714D01*
X55909523Y-25995238D01*
X56004761Y-25900000D01*
X56100000Y-25852380D01*
X57147619Y-25852380D02*
X57338095Y-25852380D01*
X57433333Y-25900000D01*
X57528571Y-25995238D01*
X57576190Y-26185714D01*
X57576190Y-26519047D01*
X57528571Y-26709523D01*
X57433333Y-26804761D01*
X57338095Y-26852380D01*
X57147619Y-26852380D01*
X57052380Y-26804761D01*
X56957142Y-26709523D01*
X56909523Y-26519047D01*
X56909523Y-26185714D01*
X56957142Y-25995238D01*
X57052380Y-25900000D01*
X57147619Y-25852380D01*
X57861904Y-25852380D02*
X58433333Y-25852380D01*
X58147619Y-26852380D02*
X58147619Y-25852380D01*
X48360714Y-21852380D02*
X47884523Y-21852380D01*
X47884523Y-20852380D01*
X48694047Y-21852380D02*
X48694047Y-20852380D01*
X49265476Y-21852380D01*
X49265476Y-20852380D01*
X49741666Y-21852380D02*
X49741666Y-20852380D01*
X50313095Y-21852380D02*
X49884523Y-21280952D01*
X50313095Y-20852380D02*
X49741666Y-21423809D01*
X43517857Y-21852380D02*
X43517857Y-20852380D01*
X43851190Y-21566666D01*
X44184523Y-20852380D01*
X44184523Y-21852380D01*
X44851190Y-20852380D02*
X45041666Y-20852380D01*
X45136904Y-20900000D01*
X45232142Y-20995238D01*
X45279761Y-21185714D01*
X45279761Y-21519047D01*
X45232142Y-21709523D01*
X45136904Y-21804761D01*
X45041666Y-21852380D01*
X44851190Y-21852380D01*
X44755952Y-21804761D01*
X44660714Y-21709523D01*
X44613095Y-21519047D01*
X44613095Y-21185714D01*
X44660714Y-20995238D01*
X44755952Y-20900000D01*
X44851190Y-20852380D01*
X45708333Y-21852380D02*
X45708333Y-20852380D01*
X45946428Y-20852380D01*
X46089285Y-20900000D01*
X46184523Y-20995238D01*
X46232142Y-21090476D01*
X46279761Y-21280952D01*
X46279761Y-21423809D01*
X46232142Y-21614285D01*
X46184523Y-21709523D01*
X46089285Y-21804761D01*
X45946428Y-21852380D01*
X45708333Y-21852380D01*
X39460714Y-21328571D02*
X39794047Y-21328571D01*
X39936904Y-21852380D02*
X39460714Y-21852380D01*
X39460714Y-20852380D01*
X39936904Y-20852380D01*
X40936904Y-21852380D02*
X40603571Y-21376190D01*
X40365476Y-21852380D02*
X40365476Y-20852380D01*
X40746428Y-20852380D01*
X40841666Y-20900000D01*
X40889285Y-20947619D01*
X40936904Y-21042857D01*
X40936904Y-21185714D01*
X40889285Y-21280952D01*
X40841666Y-21328571D01*
X40746428Y-21376190D01*
X40365476Y-21376190D01*
X41936904Y-21852380D02*
X41603571Y-21376190D01*
X41365476Y-21852380D02*
X41365476Y-20852380D01*
X41746428Y-20852380D01*
X41841666Y-20900000D01*
X41889285Y-20947619D01*
X41936904Y-21042857D01*
X41936904Y-21185714D01*
X41889285Y-21280952D01*
X41841666Y-21328571D01*
X41746428Y-21376190D01*
X41365476Y-21376190D01*
X35711904Y-21852380D02*
X35378571Y-21376190D01*
X35140476Y-21852380D02*
X35140476Y-20852380D01*
X35521428Y-20852380D01*
X35616666Y-20900000D01*
X35664285Y-20947619D01*
X35711904Y-21042857D01*
X35711904Y-21185714D01*
X35664285Y-21280952D01*
X35616666Y-21328571D01*
X35521428Y-21376190D01*
X35140476Y-21376190D01*
X36140476Y-20852380D02*
X36140476Y-21661904D01*
X36188095Y-21757142D01*
X36235714Y-21804761D01*
X36330952Y-21852380D01*
X36521428Y-21852380D01*
X36616666Y-21804761D01*
X36664285Y-21757142D01*
X36711904Y-21661904D01*
X36711904Y-20852380D01*
X37188095Y-21852380D02*
X37188095Y-20852380D01*
X37759523Y-21852380D01*
X37759523Y-20852380D01*
X31066666Y-21852380D02*
X31066666Y-20852380D01*
X31447619Y-20852380D01*
X31542857Y-20900000D01*
X31590476Y-20947619D01*
X31638095Y-21042857D01*
X31638095Y-21185714D01*
X31590476Y-21280952D01*
X31542857Y-21328571D01*
X31447619Y-21376190D01*
X31066666Y-21376190D01*
X31971428Y-20852380D02*
X32209523Y-21852380D01*
X32400000Y-21138095D01*
X32590476Y-21852380D01*
X32828571Y-20852380D01*
X33780952Y-21852380D02*
X33447619Y-21376190D01*
X33209523Y-21852380D02*
X33209523Y-20852380D01*
X33590476Y-20852380D01*
X33685714Y-20900000D01*
X33733333Y-20947619D01*
X33780952Y-21042857D01*
X33780952Y-21185714D01*
X33733333Y-21280952D01*
X33685714Y-21328571D01*
X33590476Y-21376190D01*
X33209523Y-21376190D01*
X90528571Y-33807142D02*
X91671428Y-33807142D01*
X91100000Y-34378571D02*
X91100000Y-33235714D01*
X90404761Y-57730952D02*
X90309523Y-57683333D01*
X90261904Y-57635714D01*
X90214285Y-57540476D01*
X90214285Y-57492857D01*
X90261904Y-57397619D01*
X90309523Y-57350000D01*
X90404761Y-57302380D01*
X90595238Y-57302380D01*
X90690476Y-57350000D01*
X90738095Y-57397619D01*
X90785714Y-57492857D01*
X90785714Y-57540476D01*
X90738095Y-57635714D01*
X90690476Y-57683333D01*
X90595238Y-57730952D01*
X90404761Y-57730952D01*
X90309523Y-57778571D01*
X90261904Y-57826190D01*
X90214285Y-57921428D01*
X90214285Y-58111904D01*
X90261904Y-58207142D01*
X90309523Y-58254761D01*
X90404761Y-58302380D01*
X90595238Y-58302380D01*
X90690476Y-58254761D01*
X90738095Y-58207142D01*
X90785714Y-58111904D01*
X90785714Y-57921428D01*
X90738095Y-57826190D01*
X90690476Y-57778571D01*
X90595238Y-57730952D01*
X90166666Y-54752380D02*
X90833333Y-54752380D01*
X90404761Y-55752380D01*
X90690476Y-52202380D02*
X90500000Y-52202380D01*
X90404761Y-52250000D01*
X90357142Y-52297619D01*
X90261904Y-52440476D01*
X90214285Y-52630952D01*
X90214285Y-53011904D01*
X90261904Y-53107142D01*
X90309523Y-53154761D01*
X90404761Y-53202380D01*
X90595238Y-53202380D01*
X90690476Y-53154761D01*
X90738095Y-53107142D01*
X90785714Y-53011904D01*
X90785714Y-52773809D01*
X90738095Y-52678571D01*
X90690476Y-52630952D01*
X90595238Y-52583333D01*
X90404761Y-52583333D01*
X90309523Y-52630952D01*
X90261904Y-52678571D01*
X90214285Y-52773809D01*
X90738095Y-49652380D02*
X90261904Y-49652380D01*
X90214285Y-50128571D01*
X90261904Y-50080952D01*
X90357142Y-50033333D01*
X90595238Y-50033333D01*
X90690476Y-50080952D01*
X90738095Y-50128571D01*
X90785714Y-50223809D01*
X90785714Y-50461904D01*
X90738095Y-50557142D01*
X90690476Y-50604761D01*
X90595238Y-50652380D01*
X90357142Y-50652380D01*
X90261904Y-50604761D01*
X90214285Y-50557142D01*
X90690476Y-47435714D02*
X90690476Y-48102380D01*
X90452380Y-47054761D02*
X90214285Y-47769047D01*
X90833333Y-47769047D01*
X90166666Y-44602380D02*
X90785714Y-44602380D01*
X90452380Y-44983333D01*
X90595238Y-44983333D01*
X90690476Y-45030952D01*
X90738095Y-45078571D01*
X90785714Y-45173809D01*
X90785714Y-45411904D01*
X90738095Y-45507142D01*
X90690476Y-45554761D01*
X90595238Y-45602380D01*
X90309523Y-45602380D01*
X90214285Y-45554761D01*
X90166666Y-45507142D01*
X90214285Y-42147619D02*
X90261904Y-42100000D01*
X90357142Y-42052380D01*
X90595238Y-42052380D01*
X90690476Y-42100000D01*
X90738095Y-42147619D01*
X90785714Y-42242857D01*
X90785714Y-42338095D01*
X90738095Y-42480952D01*
X90166666Y-43052380D01*
X90785714Y-43052380D01*
X90785714Y-40502380D02*
X90214285Y-40502380D01*
X90500000Y-40502380D02*
X90500000Y-39502380D01*
X90404761Y-39645238D01*
X90309523Y-39740476D01*
X90214285Y-39788095D01*
X26690476Y-36452380D02*
X26690476Y-35452380D01*
X27071428Y-35452380D01*
X27166666Y-35500000D01*
X27214285Y-35547619D01*
X27261904Y-35642857D01*
X27261904Y-35785714D01*
X27214285Y-35880952D01*
X27166666Y-35928571D01*
X27071428Y-35976190D01*
X26690476Y-35976190D01*
X27880952Y-35452380D02*
X28071428Y-35452380D01*
X28166666Y-35500000D01*
X28261904Y-35595238D01*
X28309523Y-35785714D01*
X28309523Y-36119047D01*
X28261904Y-36309523D01*
X28166666Y-36404761D01*
X28071428Y-36452380D01*
X27880952Y-36452380D01*
X27785714Y-36404761D01*
X27690476Y-36309523D01*
X27642857Y-36119047D01*
X27642857Y-35785714D01*
X27690476Y-35595238D01*
X27785714Y-35500000D01*
X27880952Y-35452380D01*
X28642857Y-35452380D02*
X28880952Y-36452380D01*
X29071428Y-35738095D01*
X29261904Y-36452380D01*
X29500000Y-35452380D01*
X29880952Y-35928571D02*
X30214285Y-35928571D01*
X30357142Y-36452380D02*
X29880952Y-36452380D01*
X29880952Y-35452380D01*
X30357142Y-35452380D01*
X31357142Y-36452380D02*
X31023809Y-35976190D01*
X30785714Y-36452380D02*
X30785714Y-35452380D01*
X31166666Y-35452380D01*
X31261904Y-35500000D01*
X31309523Y-35547619D01*
X31357142Y-35642857D01*
X31357142Y-35785714D01*
X31309523Y-35880952D01*
X31261904Y-35928571D01*
X31166666Y-35976190D01*
X30785714Y-35976190D01*
X80976190Y-63154761D02*
X81119047Y-63202380D01*
X81357142Y-63202380D01*
X81452380Y-63154761D01*
X81500000Y-63107142D01*
X81547619Y-63011904D01*
X81547619Y-62916666D01*
X81500000Y-62821428D01*
X81452380Y-62773809D01*
X81357142Y-62726190D01*
X81166666Y-62678571D01*
X81071428Y-62630952D01*
X81023809Y-62583333D01*
X80976190Y-62488095D01*
X80976190Y-62392857D01*
X81023809Y-62297619D01*
X81071428Y-62250000D01*
X81166666Y-62202380D01*
X81404761Y-62202380D01*
X81547619Y-62250000D01*
X81976190Y-63202380D02*
X81976190Y-62202380D01*
X82357142Y-62202380D01*
X82452380Y-62250000D01*
X82500000Y-62297619D01*
X82547619Y-62392857D01*
X82547619Y-62535714D01*
X82500000Y-62630952D01*
X82452380Y-62678571D01*
X82357142Y-62726190D01*
X81976190Y-62726190D01*
X82976190Y-63202380D02*
X82976190Y-62202380D01*
X67454761Y-62202380D02*
X67454761Y-63011904D01*
X67502380Y-63107142D01*
X67550000Y-63154761D01*
X67645238Y-63202380D01*
X67835714Y-63202380D01*
X67930952Y-63154761D01*
X67978571Y-63107142D01*
X68026190Y-63011904D01*
X68026190Y-62202380D01*
X68454761Y-62916666D02*
X68930952Y-62916666D01*
X68359523Y-63202380D02*
X68692857Y-62202380D01*
X69026190Y-63202380D01*
X69930952Y-63202380D02*
X69597619Y-62726190D01*
X69359523Y-63202380D02*
X69359523Y-62202380D01*
X69740476Y-62202380D01*
X69835714Y-62250000D01*
X69883333Y-62297619D01*
X69930952Y-62392857D01*
X69930952Y-62535714D01*
X69883333Y-62630952D01*
X69835714Y-62678571D01*
X69740476Y-62726190D01*
X69359523Y-62726190D01*
X70216666Y-62202380D02*
X70788095Y-62202380D01*
X70502380Y-63202380D02*
X70502380Y-62202380D01*
X56373809Y-63202380D02*
X56373809Y-62202380D01*
X56802380Y-62297619D02*
X56850000Y-62250000D01*
X56945238Y-62202380D01*
X57183333Y-62202380D01*
X57278571Y-62250000D01*
X57326190Y-62297619D01*
X57373809Y-62392857D01*
X57373809Y-62488095D01*
X57326190Y-62630952D01*
X56754761Y-63202380D01*
X57373809Y-63202380D01*
X58373809Y-63107142D02*
X58326190Y-63154761D01*
X58183333Y-63202380D01*
X58088095Y-63202380D01*
X57945238Y-63154761D01*
X57850000Y-63059523D01*
X57802380Y-62964285D01*
X57754761Y-62773809D01*
X57754761Y-62630952D01*
X57802380Y-62440476D01*
X57850000Y-62345238D01*
X57945238Y-62250000D01*
X58088095Y-62202380D01*
X58183333Y-62202380D01*
X58326190Y-62250000D01*
X58373809Y-62297619D01*
X45354761Y-62202380D02*
X45354761Y-63011904D01*
X45402380Y-63107142D01*
X45450000Y-63154761D01*
X45545238Y-63202380D01*
X45735714Y-63202380D01*
X45830952Y-63154761D01*
X45878571Y-63107142D01*
X45926190Y-63011904D01*
X45926190Y-62202380D01*
X46354761Y-62916666D02*
X46830952Y-62916666D01*
X46259523Y-63202380D02*
X46592857Y-62202380D01*
X46926190Y-63202380D01*
X47830952Y-63202380D02*
X47497619Y-62726190D01*
X47259523Y-63202380D02*
X47259523Y-62202380D01*
X47640476Y-62202380D01*
X47735714Y-62250000D01*
X47783333Y-62297619D01*
X47830952Y-62392857D01*
X47830952Y-62535714D01*
X47783333Y-62630952D01*
X47735714Y-62678571D01*
X47640476Y-62726190D01*
X47259523Y-62726190D01*
X48116666Y-62202380D02*
X48688095Y-62202380D01*
X48402380Y-63202380D02*
X48402380Y-62202380D01*
X34814285Y-63154761D02*
X34957142Y-63202380D01*
X35195238Y-63202380D01*
X35290476Y-63154761D01*
X35338095Y-63107142D01*
X35385714Y-63011904D01*
X35385714Y-62916666D01*
X35338095Y-62821428D01*
X35290476Y-62773809D01*
X35195238Y-62726190D01*
X35004761Y-62678571D01*
X34909523Y-62630952D01*
X34861904Y-62583333D01*
X34814285Y-62488095D01*
X34814285Y-62392857D01*
X34861904Y-62297619D01*
X34909523Y-62250000D01*
X35004761Y-62202380D01*
X35242857Y-62202380D01*
X35385714Y-62250000D01*
X36147619Y-62678571D02*
X36290476Y-62726190D01*
X36338095Y-62773809D01*
X36385714Y-62869047D01*
X36385714Y-63011904D01*
X36338095Y-63107142D01*
X36290476Y-63154761D01*
X36195238Y-63202380D01*
X35814285Y-63202380D01*
X35814285Y-62202380D01*
X36147619Y-62202380D01*
X36242857Y-62250000D01*
X36290476Y-62297619D01*
X36338095Y-62392857D01*
X36338095Y-62488095D01*
X36290476Y-62583333D01*
X36242857Y-62630952D01*
X36147619Y-62678571D01*
X35814285Y-62678571D01*
X36814285Y-62202380D02*
X36814285Y-63011904D01*
X36861904Y-63107142D01*
X36909523Y-63154761D01*
X37004761Y-63202380D01*
X37195238Y-63202380D01*
X37290476Y-63154761D01*
X37338095Y-63107142D01*
X37385714Y-63011904D01*
X37385714Y-62202380D01*
X37814285Y-63154761D02*
X37957142Y-63202380D01*
X38195238Y-63202380D01*
X38290476Y-63154761D01*
X38338095Y-63107142D01*
X38385714Y-63011904D01*
X38385714Y-62916666D01*
X38338095Y-62821428D01*
X38290476Y-62773809D01*
X38195238Y-62726190D01*
X38004761Y-62678571D01*
X37909523Y-62630952D01*
X37861904Y-62583333D01*
X37814285Y-62488095D01*
X37814285Y-62392857D01*
X37861904Y-62297619D01*
X37909523Y-62250000D01*
X38004761Y-62202380D01*
X38242857Y-62202380D01*
X38385714Y-62250000D01*
D12*
X64835000Y-69320000D02*
X73265000Y-69320000D01*
X74535000Y-65050000D02*
X72735000Y-65050000D01*
X74535000Y-66500000D02*
X74535000Y-65050000D01*
X65365000Y-65050000D02*
X65365000Y-64060000D01*
X63565000Y-65050000D02*
X65365000Y-65050000D01*
X63565000Y-66500000D02*
X63565000Y-65050000D01*
X33840000Y-38410000D02*
X33840000Y-39870000D01*
X30680000Y-38410000D02*
X30680000Y-40570000D01*
X30680000Y-38410000D02*
X31610000Y-38410000D01*
X33840000Y-38410000D02*
X32910000Y-38410000D01*
X98650000Y-31800000D02*
X98650000Y-35800000D01*
X92150000Y-31800000D02*
X98650000Y-31800000D01*
X92150000Y-35800000D02*
X92150000Y-31800000D01*
X98650000Y-35800000D02*
X92150000Y-35800000D01*
X59250279Y-28990000D02*
X58924721Y-28990000D01*
X59250279Y-30010000D02*
X58924721Y-30010000D01*
X20740000Y-46485000D02*
X20740000Y-57415000D01*
X25010000Y-58685000D02*
X25010000Y-56885000D01*
X23560000Y-58685000D02*
X25010000Y-58685000D01*
X25010000Y-47015000D02*
X26000000Y-47015000D01*
X25010000Y-45215000D02*
X25010000Y-47015000D01*
X23560000Y-45215000D02*
X25010000Y-45215000D01*
X57572500Y-28765000D02*
X55287500Y-28765000D01*
X57572500Y-30235000D02*
X57572500Y-28765000D01*
X55287500Y-30235000D02*
X57572500Y-30235000D01*
D13*
X67450000Y-35650000D02*
X80750000Y-35650000D01*
X80750000Y-35650000D02*
X80750000Y-48950000D01*
X80750000Y-48950000D02*
X67450000Y-48950000D01*
X67450000Y-48950000D02*
X67450000Y-35650000D01*
D10*
X84930000Y-20750000D02*
X84930000Y-20175000D01*
X84930000Y-20175000D02*
X77070000Y-20175000D01*
X77070000Y-20175000D02*
X77070000Y-20750000D01*
D13*
X54475000Y-43500000D02*
X54725000Y-43500000D01*
X54725000Y-43500000D02*
X54725000Y-44000000D01*
X54475000Y-46500000D02*
X54725000Y-46500000D01*
X54725000Y-46500000D02*
X54725000Y-46000000D01*
X50475000Y-43500000D02*
X50225000Y-43500000D01*
X50225000Y-43500000D02*
X50225000Y-44000000D01*
X50475000Y-46500000D02*
X50225000Y-46500000D01*
X50225000Y-46500000D02*
X50225000Y-46000000D01*
D14*
G36*
X61666000Y-50867666D02*
G01*
X61115667Y-50867666D01*
X61115667Y-53873333D01*
X60607667Y-53873333D01*
X60607667Y-50867666D01*
X60099667Y-50867666D01*
X60099667Y-50402000D01*
X61666000Y-50402000D01*
X61666000Y-50867666D01*
G37*
X61666000Y-50867666D02*
X61115667Y-50867666D01*
X61115667Y-53873333D01*
X60607667Y-53873333D01*
X60607667Y-50867666D01*
X60099667Y-50867666D01*
X60099667Y-50402000D01*
X61666000Y-50402000D01*
X61666000Y-50867666D01*
G36*
X58288840Y-50410371D02*
G01*
X58510014Y-50423166D01*
X58898854Y-51431819D01*
X59005348Y-51706564D01*
X59102662Y-51954773D01*
X59186460Y-52165617D01*
X59252405Y-52328262D01*
X59296161Y-52431876D01*
X59312681Y-52465458D01*
X59319537Y-52432092D01*
X59325674Y-52325111D01*
X59330822Y-52155564D01*
X59334710Y-51934502D01*
X59337066Y-51672975D01*
X59337667Y-51446222D01*
X59337667Y-50402000D01*
X59803333Y-50402000D01*
X59803333Y-53877757D01*
X59582134Y-53864962D01*
X59360935Y-53852166D01*
X58977124Y-52827351D01*
X58872367Y-52549505D01*
X58776188Y-52297953D01*
X58692851Y-52083564D01*
X58626622Y-51917212D01*
X58581766Y-51809769D01*
X58563323Y-51772545D01*
X58555176Y-51804602D01*
X58547870Y-51910446D01*
X58541720Y-52079202D01*
X58537042Y-52299991D01*
X58534151Y-52561937D01*
X58533333Y-52807944D01*
X58533333Y-53873333D01*
X58067667Y-53873333D01*
X58067667Y-50397575D01*
X58288840Y-50410371D01*
G37*
X58288840Y-50410371D02*
X58510014Y-50423166D01*
X58898854Y-51431819D01*
X59005348Y-51706564D01*
X59102662Y-51954773D01*
X59186460Y-52165617D01*
X59252405Y-52328262D01*
X59296161Y-52431876D01*
X59312681Y-52465458D01*
X59319537Y-52432092D01*
X59325674Y-52325111D01*
X59330822Y-52155564D01*
X59334710Y-51934502D01*
X59337066Y-51672975D01*
X59337667Y-51446222D01*
X59337667Y-50402000D01*
X59803333Y-50402000D01*
X59803333Y-53877757D01*
X59582134Y-53864962D01*
X59360935Y-53852166D01*
X58977124Y-52827351D01*
X58872367Y-52549505D01*
X58776188Y-52297953D01*
X58692851Y-52083564D01*
X58626622Y-51917212D01*
X58581766Y-51809769D01*
X58563323Y-51772545D01*
X58555176Y-51804602D01*
X58547870Y-51910446D01*
X58541720Y-52079202D01*
X58537042Y-52299991D01*
X58534151Y-52561937D01*
X58533333Y-52807944D01*
X58533333Y-53873333D01*
X58067667Y-53873333D01*
X58067667Y-50397575D01*
X58288840Y-50410371D01*
G36*
X55890086Y-50409207D02*
G01*
X55915040Y-50409709D01*
X56193057Y-50415312D01*
X56397728Y-50425428D01*
X56540259Y-50448981D01*
X56631858Y-50494893D01*
X56683729Y-50572087D01*
X56707079Y-50689487D01*
X56713114Y-50856015D01*
X56713000Y-51045091D01*
X56713000Y-51502666D01*
X56205000Y-51502666D01*
X56205000Y-50867666D01*
X55570000Y-50867666D01*
X55570000Y-51492060D01*
X56141500Y-52037676D01*
X56713000Y-52583291D01*
X56713000Y-53135554D01*
X56710154Y-53389389D01*
X56700874Y-53570494D01*
X56684047Y-53690635D01*
X56658559Y-53761583D01*
X56653000Y-53769992D01*
X56623300Y-53801144D01*
X56577872Y-53823843D01*
X56503469Y-53839804D01*
X56386847Y-53850744D01*
X56214760Y-53858379D01*
X55973962Y-53864426D01*
X55915040Y-53865623D01*
X55659857Y-53870049D01*
X55475431Y-53870712D01*
X55347889Y-53866271D01*
X55263357Y-53855382D01*
X55207959Y-53836702D01*
X55167822Y-53808890D01*
X55149540Y-53791540D01*
X55111336Y-53745144D01*
X55086104Y-53685619D01*
X55071222Y-53595769D01*
X55064070Y-53458398D01*
X55062028Y-53256310D01*
X55062000Y-53217166D01*
X55062000Y-52730333D01*
X55570000Y-52730333D01*
X55570000Y-53407666D01*
X56205000Y-53407666D01*
X56205000Y-52759029D01*
X55059950Y-51650833D01*
X55060975Y-51111083D01*
X55061692Y-50867824D01*
X55070047Y-50686877D01*
X55096923Y-50559304D01*
X55153205Y-50476168D01*
X55249778Y-50428528D01*
X55397527Y-50407447D01*
X55607335Y-50403986D01*
X55890086Y-50409207D01*
G37*
X55890086Y-50409207D02*
X55915040Y-50409709D01*
X56193057Y-50415312D01*
X56397728Y-50425428D01*
X56540259Y-50448981D01*
X56631858Y-50494893D01*
X56683729Y-50572087D01*
X56707079Y-50689487D01*
X56713114Y-50856015D01*
X56713000Y-51045091D01*
X56713000Y-51502666D01*
X56205000Y-51502666D01*
X56205000Y-50867666D01*
X55570000Y-50867666D01*
X55570000Y-51492060D01*
X56141500Y-52037676D01*
X56713000Y-52583291D01*
X56713000Y-53135554D01*
X56710154Y-53389389D01*
X56700874Y-53570494D01*
X56684047Y-53690635D01*
X56658559Y-53761583D01*
X56653000Y-53769992D01*
X56623300Y-53801144D01*
X56577872Y-53823843D01*
X56503469Y-53839804D01*
X56386847Y-53850744D01*
X56214760Y-53858379D01*
X55973962Y-53864426D01*
X55915040Y-53865623D01*
X55659857Y-53870049D01*
X55475431Y-53870712D01*
X55347889Y-53866271D01*
X55263357Y-53855382D01*
X55207959Y-53836702D01*
X55167822Y-53808890D01*
X55149540Y-53791540D01*
X55111336Y-53745144D01*
X55086104Y-53685619D01*
X55071222Y-53595769D01*
X55064070Y-53458398D01*
X55062028Y-53256310D01*
X55062000Y-53217166D01*
X55062000Y-52730333D01*
X55570000Y-52730333D01*
X55570000Y-53407666D01*
X56205000Y-53407666D01*
X56205000Y-52759029D01*
X55059950Y-51650833D01*
X55060975Y-51111083D01*
X55061692Y-50867824D01*
X55070047Y-50686877D01*
X55096923Y-50559304D01*
X55153205Y-50476168D01*
X55249778Y-50428528D01*
X55397527Y-50407447D01*
X55607335Y-50403986D01*
X55890086Y-50409207D01*
G36*
X54638667Y-50867666D02*
G01*
X53707333Y-50867666D01*
X53707333Y-51841333D01*
X54511667Y-51841333D01*
X54511667Y-52307000D01*
X53707333Y-52307000D01*
X53707333Y-53407666D01*
X54638667Y-53407666D01*
X54638667Y-53873333D01*
X53241667Y-53873333D01*
X53241667Y-50402000D01*
X54638667Y-50402000D01*
X54638667Y-50867666D01*
G37*
X54638667Y-50867666D02*
X53707333Y-50867666D01*
X53707333Y-51841333D01*
X54511667Y-51841333D01*
X54511667Y-52307000D01*
X53707333Y-52307000D01*
X53707333Y-53407666D01*
X54638667Y-53407666D01*
X54638667Y-53873333D01*
X53241667Y-53873333D01*
X53241667Y-50402000D01*
X54638667Y-50402000D01*
X54638667Y-50867666D01*
G36*
X51949170Y-50407237D02*
G01*
X52185962Y-50425791D01*
X52363780Y-50461928D01*
X52495227Y-50519910D01*
X52592908Y-50604003D01*
X52669425Y-50718470D01*
X52688789Y-50756576D01*
X52714137Y-50813431D01*
X52734048Y-50874143D01*
X52749171Y-50949226D01*
X52760161Y-51049190D01*
X52767667Y-51184550D01*
X52772344Y-51365817D01*
X52774841Y-51603503D01*
X52775813Y-51908121D01*
X52775934Y-52161615D01*
X52775337Y-52550232D01*
X52772288Y-52863561D01*
X52764833Y-53110978D01*
X52751017Y-53301862D01*
X52728884Y-53445589D01*
X52696481Y-53551536D01*
X52651852Y-53629080D01*
X52593042Y-53687599D01*
X52518097Y-53736469D01*
X52438947Y-53778083D01*
X52355210Y-53816326D01*
X52270064Y-53842797D01*
X52165883Y-53859612D01*
X52025042Y-53868887D01*
X51829914Y-53872735D01*
X51645197Y-53873333D01*
X51040333Y-53873333D01*
X51040333Y-50867666D01*
X51548333Y-50867666D01*
X51548333Y-53407666D01*
X51814080Y-53407666D01*
X52018064Y-53393724D01*
X52154922Y-53353322D01*
X52173914Y-53341766D01*
X52201980Y-53320156D01*
X52223824Y-53292713D01*
X52240225Y-53249458D01*
X52251963Y-53180411D01*
X52259817Y-53075591D01*
X52264568Y-52925020D01*
X52266996Y-52718719D01*
X52267880Y-52446706D01*
X52268000Y-52137666D01*
X52267839Y-51798024D01*
X52266835Y-51533068D01*
X52264209Y-51332820D01*
X52259181Y-51187300D01*
X52250971Y-51086528D01*
X52238800Y-51020525D01*
X52221887Y-50979311D01*
X52199453Y-50952906D01*
X52173914Y-50933567D01*
X52052519Y-50887919D01*
X51861565Y-50868284D01*
X51814080Y-50867666D01*
X51548333Y-50867666D01*
X51040333Y-50867666D01*
X51040333Y-50402000D01*
X51640801Y-50402000D01*
X51949170Y-50407237D01*
G37*
X51949170Y-50407237D02*
X52185962Y-50425791D01*
X52363780Y-50461928D01*
X52495227Y-50519910D01*
X52592908Y-50604003D01*
X52669425Y-50718470D01*
X52688789Y-50756576D01*
X52714137Y-50813431D01*
X52734048Y-50874143D01*
X52749171Y-50949226D01*
X52760161Y-51049190D01*
X52767667Y-51184550D01*
X52772344Y-51365817D01*
X52774841Y-51603503D01*
X52775813Y-51908121D01*
X52775934Y-52161615D01*
X52775337Y-52550232D01*
X52772288Y-52863561D01*
X52764833Y-53110978D01*
X52751017Y-53301862D01*
X52728884Y-53445589D01*
X52696481Y-53551536D01*
X52651852Y-53629080D01*
X52593042Y-53687599D01*
X52518097Y-53736469D01*
X52438947Y-53778083D01*
X52355210Y-53816326D01*
X52270064Y-53842797D01*
X52165883Y-53859612D01*
X52025042Y-53868887D01*
X51829914Y-53872735D01*
X51645197Y-53873333D01*
X51040333Y-53873333D01*
X51040333Y-50867666D01*
X51548333Y-50867666D01*
X51548333Y-53407666D01*
X51814080Y-53407666D01*
X52018064Y-53393724D01*
X52154922Y-53353322D01*
X52173914Y-53341766D01*
X52201980Y-53320156D01*
X52223824Y-53292713D01*
X52240225Y-53249458D01*
X52251963Y-53180411D01*
X52259817Y-53075591D01*
X52264568Y-52925020D01*
X52266996Y-52718719D01*
X52267880Y-52446706D01*
X52268000Y-52137666D01*
X52267839Y-51798024D01*
X52266835Y-51533068D01*
X52264209Y-51332820D01*
X52259181Y-51187300D01*
X52250971Y-51086528D01*
X52238800Y-51020525D01*
X52221887Y-50979311D01*
X52199453Y-50952906D01*
X52173914Y-50933567D01*
X52052519Y-50887919D01*
X51861565Y-50868284D01*
X51814080Y-50867666D01*
X51548333Y-50867666D01*
X51040333Y-50867666D01*
X51040333Y-50402000D01*
X51640801Y-50402000D01*
X51949170Y-50407237D01*
G36*
X50129623Y-50423166D02*
G01*
X50434431Y-52095333D01*
X50501076Y-52461961D01*
X50562808Y-52803520D01*
X50617993Y-53110823D01*
X50664998Y-53374682D01*
X50702188Y-53585910D01*
X50727929Y-53735321D01*
X50740588Y-53813727D01*
X50741619Y-53822529D01*
X50717572Y-53854485D01*
X50633493Y-53867424D01*
X50500867Y-53864862D01*
X50257735Y-53852166D01*
X50215117Y-53555833D01*
X50172500Y-53259500D01*
X49538399Y-53259500D01*
X49452833Y-53852166D01*
X49205564Y-53864977D01*
X48958294Y-53877788D01*
X48983357Y-53759144D01*
X48996800Y-53689913D01*
X49023400Y-53548130D01*
X49061171Y-53344543D01*
X49108129Y-53089901D01*
X49162292Y-52794953D01*
X49172432Y-52739537D01*
X49614692Y-52739537D01*
X49651112Y-52761984D01*
X49742406Y-52771221D01*
X49855000Y-52772666D01*
X49997777Y-52769777D01*
X50073080Y-52757576D01*
X50098003Y-52730769D01*
X50094112Y-52698583D01*
X50081461Y-52633003D01*
X50059761Y-52499466D01*
X50031462Y-52313900D01*
X49999013Y-52092230D01*
X49976892Y-51936583D01*
X49943235Y-51706935D01*
X49911672Y-51509815D01*
X49884643Y-51359101D01*
X49864587Y-51268670D01*
X49855968Y-51248666D01*
X49842242Y-51288313D01*
X49819745Y-51398006D01*
X49790933Y-51563870D01*
X49758260Y-51772032D01*
X49734250Y-51936583D01*
X49700143Y-52173144D01*
X49668616Y-52383943D01*
X49642138Y-52553055D01*
X49623179Y-52664558D01*
X49616063Y-52698583D01*
X49614692Y-52739537D01*
X49172432Y-52739537D01*
X49221675Y-52470449D01*
X49263093Y-52243500D01*
X49325964Y-51899300D01*
X49385938Y-51572233D01*
X49440834Y-51274100D01*
X49488470Y-51016700D01*
X49526665Y-50811832D01*
X49553239Y-50671296D01*
X49562786Y-50622318D01*
X49607805Y-50398136D01*
X50129623Y-50423166D01*
G37*
X50129623Y-50423166D02*
X50434431Y-52095333D01*
X50501076Y-52461961D01*
X50562808Y-52803520D01*
X50617993Y-53110823D01*
X50664998Y-53374682D01*
X50702188Y-53585910D01*
X50727929Y-53735321D01*
X50740588Y-53813727D01*
X50741619Y-53822529D01*
X50717572Y-53854485D01*
X50633493Y-53867424D01*
X50500867Y-53864862D01*
X50257735Y-53852166D01*
X50215117Y-53555833D01*
X50172500Y-53259500D01*
X49538399Y-53259500D01*
X49452833Y-53852166D01*
X49205564Y-53864977D01*
X48958294Y-53877788D01*
X48983357Y-53759144D01*
X48996800Y-53689913D01*
X49023400Y-53548130D01*
X49061171Y-53344543D01*
X49108129Y-53089901D01*
X49162292Y-52794953D01*
X49172432Y-52739537D01*
X49614692Y-52739537D01*
X49651112Y-52761984D01*
X49742406Y-52771221D01*
X49855000Y-52772666D01*
X49997777Y-52769777D01*
X50073080Y-52757576D01*
X50098003Y-52730769D01*
X50094112Y-52698583D01*
X50081461Y-52633003D01*
X50059761Y-52499466D01*
X50031462Y-52313900D01*
X49999013Y-52092230D01*
X49976892Y-51936583D01*
X49943235Y-51706935D01*
X49911672Y-51509815D01*
X49884643Y-51359101D01*
X49864587Y-51268670D01*
X49855968Y-51248666D01*
X49842242Y-51288313D01*
X49819745Y-51398006D01*
X49790933Y-51563870D01*
X49758260Y-51772032D01*
X49734250Y-51936583D01*
X49700143Y-52173144D01*
X49668616Y-52383943D01*
X49642138Y-52553055D01*
X49623179Y-52664558D01*
X49616063Y-52698583D01*
X49614692Y-52739537D01*
X49172432Y-52739537D01*
X49221675Y-52470449D01*
X49263093Y-52243500D01*
X49325964Y-51899300D01*
X49385938Y-51572233D01*
X49440834Y-51274100D01*
X49488470Y-51016700D01*
X49526665Y-50811832D01*
X49553239Y-50671296D01*
X49562786Y-50622318D01*
X49607805Y-50398136D01*
X50129623Y-50423166D01*
G36*
X47442000Y-51841333D02*
G01*
X48161667Y-51841333D01*
X48161667Y-50402000D01*
X48669667Y-50402000D01*
X48669667Y-53873333D01*
X48161667Y-53873333D01*
X48161667Y-52307000D01*
X47442000Y-52307000D01*
X47442000Y-53873333D01*
X46934000Y-53873333D01*
X46934000Y-50402000D01*
X47442000Y-50402000D01*
X47442000Y-51841333D01*
G37*
X47442000Y-51841333D02*
X48161667Y-51841333D01*
X48161667Y-50402000D01*
X48669667Y-50402000D01*
X48669667Y-53873333D01*
X48161667Y-53873333D01*
X48161667Y-52307000D01*
X47442000Y-52307000D01*
X47442000Y-53873333D01*
X46934000Y-53873333D01*
X46934000Y-50402000D01*
X47442000Y-50402000D01*
X47442000Y-51841333D01*
G36*
X48427803Y-54776002D02*
G01*
X48455472Y-54834106D01*
X48458000Y-54889333D01*
X48446609Y-54980096D01*
X48398189Y-55013300D01*
X48352167Y-55016333D01*
X48276530Y-55002664D01*
X48248861Y-54944560D01*
X48246333Y-54889333D01*
X48257724Y-54798569D01*
X48306144Y-54765366D01*
X48352167Y-54762333D01*
X48427803Y-54776002D01*
G37*
X48427803Y-54776002D02*
X48455472Y-54834106D01*
X48458000Y-54889333D01*
X48446609Y-54980096D01*
X48398189Y-55013300D01*
X48352167Y-55016333D01*
X48276530Y-55002664D01*
X48248861Y-54944560D01*
X48246333Y-54889333D01*
X48257724Y-54798569D01*
X48306144Y-54765366D01*
X48352167Y-54762333D01*
X48427803Y-54776002D01*
G36*
X60455159Y-55158474D02*
G01*
X60487722Y-55185022D01*
X60536123Y-55202958D01*
X60648797Y-55181422D01*
X60663689Y-55176966D01*
X60775971Y-55149526D01*
X60836400Y-55157810D01*
X60859743Y-55182553D01*
X60899614Y-55214506D01*
X60973651Y-55208990D01*
X61048882Y-55186750D01*
X61159961Y-55154550D01*
X61236786Y-55151250D01*
X61285648Y-55187788D01*
X61312832Y-55275104D01*
X61324628Y-55424135D01*
X61327322Y-55645821D01*
X61327333Y-55671171D01*
X61327333Y-56159333D01*
X61115667Y-56159333D01*
X61115667Y-55736000D01*
X61112054Y-55558303D01*
X61102315Y-55417335D01*
X61088093Y-55331012D01*
X61076796Y-55312666D01*
X60999573Y-55321145D01*
X60949282Y-55356282D01*
X60920323Y-55432630D01*
X60907096Y-55564741D01*
X60904000Y-55761695D01*
X60903243Y-55946744D01*
X60898144Y-56063076D01*
X60884457Y-56126639D01*
X60857937Y-56153382D01*
X60814339Y-56159256D01*
X60798167Y-56159333D01*
X60692333Y-56159333D01*
X60692333Y-55736000D01*
X60688721Y-55558303D01*
X60678982Y-55417335D01*
X60664760Y-55331012D01*
X60653462Y-55312666D01*
X60576239Y-55321145D01*
X60525949Y-55356282D01*
X60496990Y-55432630D01*
X60483763Y-55564741D01*
X60480667Y-55761695D01*
X60479910Y-55946744D01*
X60474811Y-56063076D01*
X60461124Y-56126639D01*
X60434604Y-56153382D01*
X60391006Y-56159256D01*
X60374833Y-56159333D01*
X60269000Y-56159333D01*
X60269000Y-55143333D01*
X60371305Y-55143333D01*
X60455159Y-55158474D01*
G37*
X60455159Y-55158474D02*
X60487722Y-55185022D01*
X60536123Y-55202958D01*
X60648797Y-55181422D01*
X60663689Y-55176966D01*
X60775971Y-55149526D01*
X60836400Y-55157810D01*
X60859743Y-55182553D01*
X60899614Y-55214506D01*
X60973651Y-55208990D01*
X61048882Y-55186750D01*
X61159961Y-55154550D01*
X61236786Y-55151250D01*
X61285648Y-55187788D01*
X61312832Y-55275104D01*
X61324628Y-55424135D01*
X61327322Y-55645821D01*
X61327333Y-55671171D01*
X61327333Y-56159333D01*
X61115667Y-56159333D01*
X61115667Y-55736000D01*
X61112054Y-55558303D01*
X61102315Y-55417335D01*
X61088093Y-55331012D01*
X61076796Y-55312666D01*
X60999573Y-55321145D01*
X60949282Y-55356282D01*
X60920323Y-55432630D01*
X60907096Y-55564741D01*
X60904000Y-55761695D01*
X60903243Y-55946744D01*
X60898144Y-56063076D01*
X60884457Y-56126639D01*
X60857937Y-56153382D01*
X60814339Y-56159256D01*
X60798167Y-56159333D01*
X60692333Y-56159333D01*
X60692333Y-55736000D01*
X60688721Y-55558303D01*
X60678982Y-55417335D01*
X60664760Y-55331012D01*
X60653462Y-55312666D01*
X60576239Y-55321145D01*
X60525949Y-55356282D01*
X60496990Y-55432630D01*
X60483763Y-55564741D01*
X60480667Y-55761695D01*
X60479910Y-55946744D01*
X60474811Y-56063076D01*
X60461124Y-56126639D01*
X60434604Y-56153382D01*
X60391006Y-56159256D01*
X60374833Y-56159333D01*
X60269000Y-56159333D01*
X60269000Y-55143333D01*
X60371305Y-55143333D01*
X60455159Y-55158474D01*
G36*
X59860865Y-55147286D02*
G01*
X59983658Y-55167483D01*
X60054603Y-55203544D01*
X60082316Y-55281086D01*
X60093259Y-55407130D01*
X60091537Y-55468127D01*
X60078500Y-55672500D01*
X59877417Y-55685402D01*
X59756258Y-55696288D01*
X59697268Y-55720227D01*
X59678073Y-55774882D01*
X59676333Y-55844152D01*
X59684540Y-55943346D01*
X59721266Y-55983528D01*
X59782167Y-55990000D01*
X59865157Y-55970156D01*
X59888000Y-55905333D01*
X59912804Y-55838940D01*
X59993833Y-55820666D01*
X60071332Y-55835689D01*
X60098064Y-55897823D01*
X60099667Y-55939200D01*
X60080424Y-56055344D01*
X60013876Y-56124290D01*
X59886795Y-56155209D01*
X59782167Y-56159333D01*
X59647818Y-56149903D01*
X59545830Y-56125870D01*
X59515467Y-56108533D01*
X59490331Y-56041100D01*
X59473444Y-55913159D01*
X59464807Y-55748465D01*
X59464418Y-55570773D01*
X59470591Y-55439666D01*
X59676333Y-55439666D01*
X59687724Y-55530430D01*
X59736144Y-55563633D01*
X59782167Y-55566666D01*
X59857803Y-55552997D01*
X59885472Y-55494893D01*
X59888000Y-55439666D01*
X59876609Y-55348903D01*
X59828189Y-55315699D01*
X59782167Y-55312666D01*
X59706530Y-55326335D01*
X59678861Y-55384439D01*
X59676333Y-55439666D01*
X59470591Y-55439666D01*
X59472278Y-55403838D01*
X59488386Y-55271417D01*
X59512744Y-55197264D01*
X59515466Y-55194133D01*
X59593887Y-55160036D01*
X59719981Y-55144612D01*
X59860865Y-55147286D01*
G37*
X59860865Y-55147286D02*
X59983658Y-55167483D01*
X60054603Y-55203544D01*
X60082316Y-55281086D01*
X60093259Y-55407130D01*
X60091537Y-55468127D01*
X60078500Y-55672500D01*
X59877417Y-55685402D01*
X59756258Y-55696288D01*
X59697268Y-55720227D01*
X59678073Y-55774882D01*
X59676333Y-55844152D01*
X59684540Y-55943346D01*
X59721266Y-55983528D01*
X59782167Y-55990000D01*
X59865157Y-55970156D01*
X59888000Y-55905333D01*
X59912804Y-55838940D01*
X59993833Y-55820666D01*
X60071332Y-55835689D01*
X60098064Y-55897823D01*
X60099667Y-55939200D01*
X60080424Y-56055344D01*
X60013876Y-56124290D01*
X59886795Y-56155209D01*
X59782167Y-56159333D01*
X59647818Y-56149903D01*
X59545830Y-56125870D01*
X59515467Y-56108533D01*
X59490331Y-56041100D01*
X59473444Y-55913159D01*
X59464807Y-55748465D01*
X59464418Y-55570773D01*
X59470591Y-55439666D01*
X59676333Y-55439666D01*
X59687724Y-55530430D01*
X59736144Y-55563633D01*
X59782167Y-55566666D01*
X59857803Y-55552997D01*
X59885472Y-55494893D01*
X59888000Y-55439666D01*
X59876609Y-55348903D01*
X59828189Y-55315699D01*
X59782167Y-55312666D01*
X59706530Y-55326335D01*
X59678861Y-55384439D01*
X59676333Y-55439666D01*
X59470591Y-55439666D01*
X59472278Y-55403838D01*
X59488386Y-55271417D01*
X59512744Y-55197264D01*
X59515466Y-55194133D01*
X59593887Y-55160036D01*
X59719981Y-55144612D01*
X59860865Y-55147286D01*
G36*
X59180469Y-54903002D02*
G01*
X59208139Y-54961106D01*
X59210667Y-55016333D01*
X59229599Y-55117159D01*
X59274167Y-55143333D01*
X59325881Y-55178626D01*
X59337667Y-55228000D01*
X59311197Y-55296952D01*
X59274167Y-55312666D01*
X59241585Y-55328618D01*
X59222032Y-55386494D01*
X59212688Y-55501329D01*
X59210667Y-55651333D01*
X59212434Y-55820071D01*
X59220575Y-55921200D01*
X59239348Y-55971751D01*
X59273010Y-55988753D01*
X59295333Y-55990000D01*
X59366085Y-56019934D01*
X59380000Y-56074666D01*
X59362220Y-56134378D01*
X59293990Y-56157364D01*
X59240300Y-56159333D01*
X59128123Y-56144783D01*
X59050969Y-56109667D01*
X59049800Y-56108533D01*
X59022494Y-56036507D01*
X59005105Y-55891644D01*
X58999000Y-55685339D01*
X58999000Y-55685200D01*
X58994466Y-55505546D01*
X58981946Y-55377760D01*
X58963065Y-55316126D01*
X58956667Y-55312666D01*
X58922271Y-55277210D01*
X58914333Y-55228000D01*
X58932061Y-55159209D01*
X58956667Y-55143333D01*
X58986390Y-55106547D01*
X58998997Y-55017913D01*
X58999000Y-55016333D01*
X59010390Y-54925569D01*
X59058810Y-54892366D01*
X59104833Y-54889333D01*
X59180469Y-54903002D01*
G37*
X59180469Y-54903002D02*
X59208139Y-54961106D01*
X59210667Y-55016333D01*
X59229599Y-55117159D01*
X59274167Y-55143333D01*
X59325881Y-55178626D01*
X59337667Y-55228000D01*
X59311197Y-55296952D01*
X59274167Y-55312666D01*
X59241585Y-55328618D01*
X59222032Y-55386494D01*
X59212688Y-55501329D01*
X59210667Y-55651333D01*
X59212434Y-55820071D01*
X59220575Y-55921200D01*
X59239348Y-55971751D01*
X59273010Y-55988753D01*
X59295333Y-55990000D01*
X59366085Y-56019934D01*
X59380000Y-56074666D01*
X59362220Y-56134378D01*
X59293990Y-56157364D01*
X59240300Y-56159333D01*
X59128123Y-56144783D01*
X59050969Y-56109667D01*
X59049800Y-56108533D01*
X59022494Y-56036507D01*
X59005105Y-55891644D01*
X58999000Y-55685339D01*
X58999000Y-55685200D01*
X58994466Y-55505546D01*
X58981946Y-55377760D01*
X58963065Y-55316126D01*
X58956667Y-55312666D01*
X58922271Y-55277210D01*
X58914333Y-55228000D01*
X58932061Y-55159209D01*
X58956667Y-55143333D01*
X58986390Y-55106547D01*
X58998997Y-55017913D01*
X58999000Y-55016333D01*
X59010390Y-54925569D01*
X59058810Y-54892366D01*
X59104833Y-54889333D01*
X59180469Y-54903002D01*
G36*
X58618675Y-55155271D02*
G01*
X58727037Y-55195486D01*
X58778743Y-55279072D01*
X58787333Y-55360183D01*
X58774760Y-55448535D01*
X58722179Y-55479752D01*
X58681500Y-55482000D01*
X58598509Y-55462156D01*
X58575667Y-55397333D01*
X58550862Y-55330940D01*
X58469833Y-55312666D01*
X58381449Y-55332987D01*
X58361965Y-55387542D01*
X58407854Y-55466720D01*
X58515585Y-55560909D01*
X58575667Y-55600923D01*
X58694637Y-55679032D01*
X58757879Y-55741172D01*
X58782931Y-55813802D01*
X58787333Y-55920222D01*
X58779601Y-56039133D01*
X58745192Y-56110618D01*
X58667286Y-56146482D01*
X58529064Y-56158533D01*
X58446694Y-56159333D01*
X58309125Y-56150873D01*
X58230811Y-56120222D01*
X58196156Y-56077449D01*
X58153233Y-55957032D01*
X58177701Y-55884757D01*
X58258167Y-55863000D01*
X58343286Y-55885080D01*
X58364000Y-55926500D01*
X58400800Y-55977571D01*
X58469833Y-55990000D01*
X58558341Y-55968656D01*
X58579981Y-55912746D01*
X58538479Y-55834444D01*
X58437560Y-55745930D01*
X58384928Y-55712455D01*
X58232636Y-55594553D01*
X58161343Y-55463276D01*
X58167597Y-55311299D01*
X58178822Y-55274971D01*
X58211715Y-55209159D01*
X58267731Y-55173560D01*
X58371918Y-55156446D01*
X58442340Y-55151585D01*
X58618675Y-55155271D01*
G37*
X58618675Y-55155271D02*
X58727037Y-55195486D01*
X58778743Y-55279072D01*
X58787333Y-55360183D01*
X58774760Y-55448535D01*
X58722179Y-55479752D01*
X58681500Y-55482000D01*
X58598509Y-55462156D01*
X58575667Y-55397333D01*
X58550862Y-55330940D01*
X58469833Y-55312666D01*
X58381449Y-55332987D01*
X58361965Y-55387542D01*
X58407854Y-55466720D01*
X58515585Y-55560909D01*
X58575667Y-55600923D01*
X58694637Y-55679032D01*
X58757879Y-55741172D01*
X58782931Y-55813802D01*
X58787333Y-55920222D01*
X58779601Y-56039133D01*
X58745192Y-56110618D01*
X58667286Y-56146482D01*
X58529064Y-56158533D01*
X58446694Y-56159333D01*
X58309125Y-56150873D01*
X58230811Y-56120222D01*
X58196156Y-56077449D01*
X58153233Y-55957032D01*
X58177701Y-55884757D01*
X58258167Y-55863000D01*
X58343286Y-55885080D01*
X58364000Y-55926500D01*
X58400800Y-55977571D01*
X58469833Y-55990000D01*
X58558341Y-55968656D01*
X58579981Y-55912746D01*
X58538479Y-55834444D01*
X58437560Y-55745930D01*
X58384928Y-55712455D01*
X58232636Y-55594553D01*
X58161343Y-55463276D01*
X58167597Y-55311299D01*
X58178822Y-55274971D01*
X58211715Y-55209159D01*
X58267731Y-55173560D01*
X58371918Y-55156446D01*
X58442340Y-55151585D01*
X58618675Y-55155271D01*
G36*
X57073946Y-54597118D02*
G01*
X57182108Y-54613950D01*
X57196371Y-54618695D01*
X57238696Y-54661363D01*
X57259371Y-54758619D01*
X57263333Y-54872695D01*
X57260457Y-55004417D01*
X57245366Y-55072420D01*
X57208368Y-55097615D01*
X57157500Y-55101000D01*
X57085929Y-55089929D01*
X57056629Y-55040114D01*
X57051667Y-54952833D01*
X57045113Y-54853527D01*
X57008140Y-54812801D01*
X56914778Y-54804685D01*
X56903500Y-54804666D01*
X56804117Y-54811425D01*
X56763353Y-54847873D01*
X56755339Y-54938264D01*
X56755333Y-54943575D01*
X56766646Y-55026388D01*
X56808604Y-55110530D01*
X56893237Y-55214485D01*
X57009333Y-55333833D01*
X57263333Y-55585182D01*
X57263333Y-55846562D01*
X57257562Y-56002853D01*
X57237561Y-56092384D01*
X57199295Y-56132444D01*
X57196371Y-56133637D01*
X57098123Y-56153018D01*
X56959871Y-56159525D01*
X56811280Y-56154396D01*
X56682017Y-56138867D01*
X56601749Y-56114177D01*
X56594467Y-56108533D01*
X56564271Y-56038276D01*
X56546075Y-55918639D01*
X56543667Y-55854533D01*
X56547440Y-55732095D01*
X56566419Y-55672188D01*
X56612089Y-55652760D01*
X56649500Y-55651333D01*
X56721071Y-55662403D01*
X56750370Y-55712219D01*
X56755333Y-55799500D01*
X56761886Y-55898805D01*
X56798860Y-55939532D01*
X56892222Y-55947648D01*
X56903500Y-55947666D01*
X57000222Y-55941971D01*
X57041825Y-55908173D01*
X57051512Y-55821201D01*
X57051667Y-55787591D01*
X57044094Y-55699669D01*
X57013076Y-55620747D01*
X56946165Y-55530661D01*
X56830910Y-55409246D01*
X56797667Y-55376166D01*
X56673353Y-55250329D01*
X56598052Y-55160435D01*
X56559511Y-55083983D01*
X56545478Y-54998476D01*
X56543667Y-54909708D01*
X56553131Y-54775579D01*
X56577243Y-54673827D01*
X56594467Y-54643800D01*
X56662028Y-54617503D01*
X56784239Y-54600132D01*
X56931434Y-54592925D01*
X57073946Y-54597118D01*
G37*
X57073946Y-54597118D02*
X57182108Y-54613950D01*
X57196371Y-54618695D01*
X57238696Y-54661363D01*
X57259371Y-54758619D01*
X57263333Y-54872695D01*
X57260457Y-55004417D01*
X57245366Y-55072420D01*
X57208368Y-55097615D01*
X57157500Y-55101000D01*
X57085929Y-55089929D01*
X57056629Y-55040114D01*
X57051667Y-54952833D01*
X57045113Y-54853527D01*
X57008140Y-54812801D01*
X56914778Y-54804685D01*
X56903500Y-54804666D01*
X56804117Y-54811425D01*
X56763353Y-54847873D01*
X56755339Y-54938264D01*
X56755333Y-54943575D01*
X56766646Y-55026388D01*
X56808604Y-55110530D01*
X56893237Y-55214485D01*
X57009333Y-55333833D01*
X57263333Y-55585182D01*
X57263333Y-55846562D01*
X57257562Y-56002853D01*
X57237561Y-56092384D01*
X57199295Y-56132444D01*
X57196371Y-56133637D01*
X57098123Y-56153018D01*
X56959871Y-56159525D01*
X56811280Y-56154396D01*
X56682017Y-56138867D01*
X56601749Y-56114177D01*
X56594467Y-56108533D01*
X56564271Y-56038276D01*
X56546075Y-55918639D01*
X56543667Y-55854533D01*
X56547440Y-55732095D01*
X56566419Y-55672188D01*
X56612089Y-55652760D01*
X56649500Y-55651333D01*
X56721071Y-55662403D01*
X56750370Y-55712219D01*
X56755333Y-55799500D01*
X56761886Y-55898805D01*
X56798860Y-55939532D01*
X56892222Y-55947648D01*
X56903500Y-55947666D01*
X57000222Y-55941971D01*
X57041825Y-55908173D01*
X57051512Y-55821201D01*
X57051667Y-55787591D01*
X57044094Y-55699669D01*
X57013076Y-55620747D01*
X56946165Y-55530661D01*
X56830910Y-55409246D01*
X56797667Y-55376166D01*
X56673353Y-55250329D01*
X56598052Y-55160435D01*
X56559511Y-55083983D01*
X56545478Y-54998476D01*
X56543667Y-54909708D01*
X56553131Y-54775579D01*
X56577243Y-54673827D01*
X56594467Y-54643800D01*
X56662028Y-54617503D01*
X56784239Y-54600132D01*
X56931434Y-54592925D01*
X57073946Y-54597118D01*
G36*
X55951000Y-56159333D02*
G01*
X55739333Y-56159333D01*
X55739333Y-54593000D01*
X55951000Y-54593000D01*
X55951000Y-56159333D01*
G37*
X55951000Y-56159333D02*
X55739333Y-56159333D01*
X55739333Y-54593000D01*
X55951000Y-54593000D01*
X55951000Y-56159333D01*
G36*
X55445768Y-55156347D02*
G01*
X55518588Y-55179159D01*
X55544020Y-55221543D01*
X55558779Y-55316580D01*
X55563802Y-55475259D01*
X55560921Y-55675928D01*
X55548833Y-56138166D01*
X55268309Y-56150565D01*
X55110952Y-56153517D01*
X55018701Y-56142709D01*
X54972621Y-56114664D01*
X54961392Y-56094186D01*
X54944362Y-56005045D01*
X54935363Y-55863905D01*
X54933766Y-55694013D01*
X54935024Y-55651333D01*
X55146667Y-55651333D01*
X55147794Y-55819298D01*
X55154777Y-55919871D01*
X55173012Y-55970329D01*
X55207898Y-55987945D01*
X55252500Y-55990000D01*
X55304989Y-55986391D01*
X55336418Y-55964047D01*
X55352186Y-55905695D01*
X55357691Y-55794060D01*
X55358333Y-55651333D01*
X55357205Y-55483368D01*
X55350223Y-55382794D01*
X55331988Y-55332337D01*
X55297102Y-55314721D01*
X55252500Y-55312666D01*
X55200011Y-55316275D01*
X55168582Y-55338618D01*
X55152814Y-55396970D01*
X55147309Y-55508606D01*
X55146667Y-55651333D01*
X54935024Y-55651333D01*
X54938939Y-55518617D01*
X54950253Y-55360962D01*
X54967076Y-55244296D01*
X54985800Y-55194133D01*
X55057262Y-55165051D01*
X55179686Y-55148443D01*
X55320159Y-55145234D01*
X55445768Y-55156347D01*
G37*
X55445768Y-55156347D02*
X55518588Y-55179159D01*
X55544020Y-55221543D01*
X55558779Y-55316580D01*
X55563802Y-55475259D01*
X55560921Y-55675928D01*
X55548833Y-56138166D01*
X55268309Y-56150565D01*
X55110952Y-56153517D01*
X55018701Y-56142709D01*
X54972621Y-56114664D01*
X54961392Y-56094186D01*
X54944362Y-56005045D01*
X54935363Y-55863905D01*
X54933766Y-55694013D01*
X54935024Y-55651333D01*
X55146667Y-55651333D01*
X55147794Y-55819298D01*
X55154777Y-55919871D01*
X55173012Y-55970329D01*
X55207898Y-55987945D01*
X55252500Y-55990000D01*
X55304989Y-55986391D01*
X55336418Y-55964047D01*
X55352186Y-55905695D01*
X55357691Y-55794060D01*
X55358333Y-55651333D01*
X55357205Y-55483368D01*
X55350223Y-55382794D01*
X55331988Y-55332337D01*
X55297102Y-55314721D01*
X55252500Y-55312666D01*
X55200011Y-55316275D01*
X55168582Y-55338618D01*
X55152814Y-55396970D01*
X55147309Y-55508606D01*
X55146667Y-55651333D01*
X54935024Y-55651333D01*
X54938939Y-55518617D01*
X54950253Y-55360962D01*
X54967076Y-55244296D01*
X54985800Y-55194133D01*
X55057262Y-55165051D01*
X55179686Y-55148443D01*
X55320159Y-55145234D01*
X55445768Y-55156347D01*
G36*
X54438236Y-55159751D02*
G01*
X54586174Y-55169213D01*
X54702897Y-55185080D01*
X54755736Y-55200695D01*
X54789246Y-55260463D01*
X54807098Y-55368418D01*
X54808000Y-55399831D01*
X54802018Y-55507904D01*
X54773952Y-55555527D01*
X54708616Y-55566637D01*
X54702167Y-55566666D01*
X54626530Y-55552997D01*
X54598861Y-55494893D01*
X54596333Y-55439666D01*
X54583938Y-55342623D01*
X54534896Y-55315667D01*
X54451629Y-55338362D01*
X54419250Y-55366015D01*
X54398940Y-55429191D01*
X54388249Y-55543375D01*
X54384728Y-55724050D01*
X54384667Y-55761695D01*
X54383910Y-55946744D01*
X54378811Y-56063076D01*
X54365124Y-56126639D01*
X54338604Y-56153382D01*
X54295006Y-56159256D01*
X54278833Y-56159333D01*
X54173000Y-56159333D01*
X54173000Y-55151107D01*
X54438236Y-55159751D01*
G37*
X54438236Y-55159751D02*
X54586174Y-55169213D01*
X54702897Y-55185080D01*
X54755736Y-55200695D01*
X54789246Y-55260463D01*
X54807098Y-55368418D01*
X54808000Y-55399831D01*
X54802018Y-55507904D01*
X54773952Y-55555527D01*
X54708616Y-55566637D01*
X54702167Y-55566666D01*
X54626530Y-55552997D01*
X54598861Y-55494893D01*
X54596333Y-55439666D01*
X54583938Y-55342623D01*
X54534896Y-55315667D01*
X54451629Y-55338362D01*
X54419250Y-55366015D01*
X54398940Y-55429191D01*
X54388249Y-55543375D01*
X54384728Y-55724050D01*
X54384667Y-55761695D01*
X54383910Y-55946744D01*
X54378811Y-56063076D01*
X54365124Y-56126639D01*
X54338604Y-56153382D01*
X54295006Y-56159256D01*
X54278833Y-56159333D01*
X54173000Y-56159333D01*
X54173000Y-55151107D01*
X54438236Y-55159751D01*
G36*
X53888803Y-54903002D02*
G01*
X53916472Y-54961106D01*
X53919000Y-55016333D01*
X53937932Y-55117159D01*
X53982500Y-55143333D01*
X54034214Y-55178626D01*
X54046000Y-55228000D01*
X54019530Y-55296952D01*
X53982500Y-55312666D01*
X53949919Y-55328618D01*
X53930365Y-55386494D01*
X53921021Y-55501329D01*
X53919000Y-55651333D01*
X53920767Y-55820071D01*
X53928909Y-55921200D01*
X53947682Y-55971751D01*
X53981343Y-55988753D01*
X54003667Y-55990000D01*
X54074419Y-56019934D01*
X54088333Y-56074666D01*
X54070554Y-56134378D01*
X54002323Y-56157364D01*
X53948633Y-56159333D01*
X53836456Y-56144783D01*
X53759302Y-56109667D01*
X53758133Y-56108533D01*
X53730828Y-56036507D01*
X53713439Y-55891644D01*
X53707333Y-55685339D01*
X53707333Y-55685200D01*
X53702799Y-55505546D01*
X53690280Y-55377760D01*
X53671398Y-55316126D01*
X53665000Y-55312666D01*
X53630605Y-55277210D01*
X53622667Y-55228000D01*
X53640395Y-55159209D01*
X53665000Y-55143333D01*
X53694723Y-55106547D01*
X53707330Y-55017913D01*
X53707333Y-55016333D01*
X53718724Y-54925569D01*
X53767144Y-54892366D01*
X53813167Y-54889333D01*
X53888803Y-54903002D01*
G37*
X53888803Y-54903002D02*
X53916472Y-54961106D01*
X53919000Y-55016333D01*
X53937932Y-55117159D01*
X53982500Y-55143333D01*
X54034214Y-55178626D01*
X54046000Y-55228000D01*
X54019530Y-55296952D01*
X53982500Y-55312666D01*
X53949919Y-55328618D01*
X53930365Y-55386494D01*
X53921021Y-55501329D01*
X53919000Y-55651333D01*
X53920767Y-55820071D01*
X53928909Y-55921200D01*
X53947682Y-55971751D01*
X53981343Y-55988753D01*
X54003667Y-55990000D01*
X54074419Y-56019934D01*
X54088333Y-56074666D01*
X54070554Y-56134378D01*
X54002323Y-56157364D01*
X53948633Y-56159333D01*
X53836456Y-56144783D01*
X53759302Y-56109667D01*
X53758133Y-56108533D01*
X53730828Y-56036507D01*
X53713439Y-55891644D01*
X53707333Y-55685339D01*
X53707333Y-55685200D01*
X53702799Y-55505546D01*
X53690280Y-55377760D01*
X53671398Y-55316126D01*
X53665000Y-55312666D01*
X53630605Y-55277210D01*
X53622667Y-55228000D01*
X53640395Y-55159209D01*
X53665000Y-55143333D01*
X53694723Y-55106547D01*
X53707330Y-55017913D01*
X53707333Y-55016333D01*
X53718724Y-54925569D01*
X53767144Y-54892366D01*
X53813167Y-54889333D01*
X53888803Y-54903002D01*
G36*
X53046075Y-55156663D02*
G01*
X53072333Y-55182254D01*
X53108455Y-55198752D01*
X53203773Y-55184598D01*
X53224348Y-55179201D01*
X53333411Y-55153117D01*
X53408510Y-55153269D01*
X53455965Y-55191118D01*
X53482095Y-55278121D01*
X53493219Y-55425737D01*
X53495657Y-55645425D01*
X53495667Y-55671171D01*
X53495667Y-56159333D01*
X53284000Y-56159333D01*
X53284000Y-55731470D01*
X53282484Y-55537080D01*
X53276423Y-55413683D01*
X53263545Y-55347637D01*
X53241579Y-55325300D01*
X53217037Y-55329304D01*
X53136386Y-55352147D01*
X53111204Y-55355000D01*
X53094502Y-55394259D01*
X53081395Y-55499785D01*
X53073659Y-55653193D01*
X53072333Y-55757166D01*
X53071598Y-55943476D01*
X53066611Y-56060978D01*
X53053198Y-56125531D01*
X53027186Y-56152996D01*
X52984402Y-56159231D01*
X52966500Y-56159333D01*
X52860667Y-56159333D01*
X52860667Y-55143333D01*
X52966500Y-55143333D01*
X53046075Y-55156663D01*
G37*
X53046075Y-55156663D02*
X53072333Y-55182254D01*
X53108455Y-55198752D01*
X53203773Y-55184598D01*
X53224348Y-55179201D01*
X53333411Y-55153117D01*
X53408510Y-55153269D01*
X53455965Y-55191118D01*
X53482095Y-55278121D01*
X53493219Y-55425737D01*
X53495657Y-55645425D01*
X53495667Y-55671171D01*
X53495667Y-56159333D01*
X53284000Y-56159333D01*
X53284000Y-55731470D01*
X53282484Y-55537080D01*
X53276423Y-55413683D01*
X53263545Y-55347637D01*
X53241579Y-55325300D01*
X53217037Y-55329304D01*
X53136386Y-55352147D01*
X53111204Y-55355000D01*
X53094502Y-55394259D01*
X53081395Y-55499785D01*
X53073659Y-55653193D01*
X53072333Y-55757166D01*
X53071598Y-55943476D01*
X53066611Y-56060978D01*
X53053198Y-56125531D01*
X53027186Y-56152996D01*
X52984402Y-56159231D01*
X52966500Y-56159333D01*
X52860667Y-56159333D01*
X52860667Y-55143333D01*
X52966500Y-55143333D01*
X53046075Y-55156663D01*
G36*
X52567101Y-55156347D02*
G01*
X52639921Y-55179159D01*
X52665353Y-55221543D01*
X52680112Y-55316580D01*
X52685135Y-55475259D01*
X52682255Y-55675928D01*
X52670167Y-56138166D01*
X52389642Y-56150565D01*
X52232285Y-56153517D01*
X52140034Y-56142709D01*
X52093955Y-56114664D01*
X52082726Y-56094186D01*
X52065695Y-56005045D01*
X52056697Y-55863905D01*
X52055099Y-55694013D01*
X52056357Y-55651333D01*
X52268000Y-55651333D01*
X52269128Y-55819298D01*
X52276110Y-55919871D01*
X52294345Y-55970329D01*
X52329231Y-55987945D01*
X52373833Y-55990000D01*
X52426322Y-55986391D01*
X52457751Y-55964047D01*
X52473519Y-55905695D01*
X52479024Y-55794060D01*
X52479667Y-55651333D01*
X52478539Y-55483368D01*
X52471556Y-55382794D01*
X52453321Y-55332337D01*
X52418435Y-55314721D01*
X52373833Y-55312666D01*
X52321344Y-55316275D01*
X52289915Y-55338618D01*
X52274147Y-55396970D01*
X52268642Y-55508606D01*
X52268000Y-55651333D01*
X52056357Y-55651333D01*
X52060272Y-55518617D01*
X52071586Y-55360962D01*
X52088409Y-55244296D01*
X52107133Y-55194133D01*
X52178595Y-55165051D01*
X52301020Y-55148443D01*
X52441493Y-55145234D01*
X52567101Y-55156347D01*
G37*
X52567101Y-55156347D02*
X52639921Y-55179159D01*
X52665353Y-55221543D01*
X52680112Y-55316580D01*
X52685135Y-55475259D01*
X52682255Y-55675928D01*
X52670167Y-56138166D01*
X52389642Y-56150565D01*
X52232285Y-56153517D01*
X52140034Y-56142709D01*
X52093955Y-56114664D01*
X52082726Y-56094186D01*
X52065695Y-56005045D01*
X52056697Y-55863905D01*
X52055099Y-55694013D01*
X52056357Y-55651333D01*
X52268000Y-55651333D01*
X52269128Y-55819298D01*
X52276110Y-55919871D01*
X52294345Y-55970329D01*
X52329231Y-55987945D01*
X52373833Y-55990000D01*
X52426322Y-55986391D01*
X52457751Y-55964047D01*
X52473519Y-55905695D01*
X52479024Y-55794060D01*
X52479667Y-55651333D01*
X52478539Y-55483368D01*
X52471556Y-55382794D01*
X52453321Y-55332337D01*
X52418435Y-55314721D01*
X52373833Y-55312666D01*
X52321344Y-55316275D01*
X52289915Y-55338618D01*
X52274147Y-55396970D01*
X52268642Y-55508606D01*
X52268000Y-55651333D01*
X52056357Y-55651333D01*
X52060272Y-55518617D01*
X52071586Y-55360962D01*
X52088409Y-55244296D01*
X52107133Y-55194133D01*
X52178595Y-55165051D01*
X52301020Y-55148443D01*
X52441493Y-55145234D01*
X52567101Y-55156347D01*
G36*
X51697613Y-54597118D02*
G01*
X51805775Y-54613950D01*
X51820037Y-54618695D01*
X51862362Y-54661363D01*
X51883038Y-54758619D01*
X51887000Y-54872695D01*
X51884124Y-55004417D01*
X51869033Y-55072420D01*
X51832034Y-55097615D01*
X51781167Y-55101000D01*
X51709596Y-55089929D01*
X51680296Y-55040114D01*
X51675333Y-54952833D01*
X51668780Y-54853527D01*
X51631807Y-54812801D01*
X51538444Y-54804685D01*
X51527167Y-54804666D01*
X51379000Y-54804666D01*
X51379000Y-55947666D01*
X51527167Y-55947666D01*
X51626472Y-55941113D01*
X51667199Y-55904140D01*
X51675315Y-55810777D01*
X51675333Y-55799500D01*
X51683240Y-55699300D01*
X51718823Y-55658281D01*
X51781167Y-55651333D01*
X51842228Y-55657537D01*
X51873752Y-55690091D01*
X51885431Y-55769905D01*
X51887000Y-55879637D01*
X51879249Y-56026915D01*
X51853051Y-56107460D01*
X51820037Y-56133637D01*
X51721790Y-56153018D01*
X51583538Y-56159525D01*
X51434947Y-56154396D01*
X51305684Y-56138867D01*
X51225416Y-56114177D01*
X51218133Y-56108533D01*
X51197869Y-56046588D01*
X51182416Y-55918053D01*
X51171774Y-55740868D01*
X51165944Y-55532974D01*
X51164924Y-55312310D01*
X51168717Y-55096817D01*
X51177321Y-54904433D01*
X51190736Y-54753101D01*
X51208962Y-54660759D01*
X51218133Y-54643800D01*
X51285694Y-54617503D01*
X51407906Y-54600132D01*
X51555101Y-54592925D01*
X51697613Y-54597118D01*
G37*
X51697613Y-54597118D02*
X51805775Y-54613950D01*
X51820037Y-54618695D01*
X51862362Y-54661363D01*
X51883038Y-54758619D01*
X51887000Y-54872695D01*
X51884124Y-55004417D01*
X51869033Y-55072420D01*
X51832034Y-55097615D01*
X51781167Y-55101000D01*
X51709596Y-55089929D01*
X51680296Y-55040114D01*
X51675333Y-54952833D01*
X51668780Y-54853527D01*
X51631807Y-54812801D01*
X51538444Y-54804685D01*
X51527167Y-54804666D01*
X51379000Y-54804666D01*
X51379000Y-55947666D01*
X51527167Y-55947666D01*
X51626472Y-55941113D01*
X51667199Y-55904140D01*
X51675315Y-55810777D01*
X51675333Y-55799500D01*
X51683240Y-55699300D01*
X51718823Y-55658281D01*
X51781167Y-55651333D01*
X51842228Y-55657537D01*
X51873752Y-55690091D01*
X51885431Y-55769905D01*
X51887000Y-55879637D01*
X51879249Y-56026915D01*
X51853051Y-56107460D01*
X51820037Y-56133637D01*
X51721790Y-56153018D01*
X51583538Y-56159525D01*
X51434947Y-56154396D01*
X51305684Y-56138867D01*
X51225416Y-56114177D01*
X51218133Y-56108533D01*
X51197869Y-56046588D01*
X51182416Y-55918053D01*
X51171774Y-55740868D01*
X51165944Y-55532974D01*
X51164924Y-55312310D01*
X51168717Y-55096817D01*
X51177321Y-54904433D01*
X51190736Y-54753101D01*
X51208962Y-54660759D01*
X51218133Y-54643800D01*
X51285694Y-54617503D01*
X51407906Y-54600132D01*
X51555101Y-54592925D01*
X51697613Y-54597118D01*
G36*
X50459803Y-54903002D02*
G01*
X50487472Y-54961106D01*
X50490000Y-55016333D01*
X50508932Y-55117159D01*
X50553500Y-55143333D01*
X50605214Y-55178626D01*
X50617000Y-55228000D01*
X50590530Y-55296952D01*
X50553500Y-55312666D01*
X50520919Y-55328618D01*
X50501365Y-55386494D01*
X50492021Y-55501329D01*
X50490000Y-55651333D01*
X50491767Y-55820071D01*
X50499909Y-55921200D01*
X50518682Y-55971751D01*
X50552343Y-55988753D01*
X50574667Y-55990000D01*
X50645419Y-56019934D01*
X50659333Y-56074666D01*
X50641554Y-56134378D01*
X50573323Y-56157364D01*
X50519633Y-56159333D01*
X50407456Y-56144783D01*
X50330302Y-56109667D01*
X50329133Y-56108533D01*
X50301828Y-56036507D01*
X50284439Y-55891644D01*
X50278333Y-55685339D01*
X50278333Y-55685200D01*
X50273799Y-55505546D01*
X50261280Y-55377760D01*
X50242398Y-55316126D01*
X50236000Y-55312666D01*
X50201605Y-55277210D01*
X50193667Y-55228000D01*
X50211395Y-55159209D01*
X50236000Y-55143333D01*
X50265723Y-55106547D01*
X50278330Y-55017913D01*
X50278333Y-55016333D01*
X50289724Y-54925569D01*
X50338144Y-54892366D01*
X50384167Y-54889333D01*
X50459803Y-54903002D01*
G37*
X50459803Y-54903002D02*
X50487472Y-54961106D01*
X50490000Y-55016333D01*
X50508932Y-55117159D01*
X50553500Y-55143333D01*
X50605214Y-55178626D01*
X50617000Y-55228000D01*
X50590530Y-55296952D01*
X50553500Y-55312666D01*
X50520919Y-55328618D01*
X50501365Y-55386494D01*
X50492021Y-55501329D01*
X50490000Y-55651333D01*
X50491767Y-55820071D01*
X50499909Y-55921200D01*
X50518682Y-55971751D01*
X50552343Y-55988753D01*
X50574667Y-55990000D01*
X50645419Y-56019934D01*
X50659333Y-56074666D01*
X50641554Y-56134378D01*
X50573323Y-56157364D01*
X50519633Y-56159333D01*
X50407456Y-56144783D01*
X50330302Y-56109667D01*
X50329133Y-56108533D01*
X50301828Y-56036507D01*
X50284439Y-55891644D01*
X50278333Y-55685339D01*
X50278333Y-55685200D01*
X50273799Y-55505546D01*
X50261280Y-55377760D01*
X50242398Y-55316126D01*
X50236000Y-55312666D01*
X50201605Y-55277210D01*
X50193667Y-55228000D01*
X50211395Y-55159209D01*
X50236000Y-55143333D01*
X50265723Y-55106547D01*
X50278330Y-55017913D01*
X50278333Y-55016333D01*
X50289724Y-54925569D01*
X50338144Y-54892366D01*
X50384167Y-54889333D01*
X50459803Y-54903002D01*
G36*
X49592640Y-54597314D02*
G01*
X49624277Y-54622515D01*
X49638932Y-54686987D01*
X49643124Y-54809114D01*
X49643333Y-54891453D01*
X49643333Y-55189906D01*
X49844417Y-55177203D01*
X50045500Y-55164500D01*
X50057427Y-55661916D01*
X50069353Y-56159333D01*
X49855000Y-56159333D01*
X49855000Y-55736000D01*
X49851388Y-55558303D01*
X49841648Y-55417335D01*
X49827426Y-55331012D01*
X49816129Y-55312666D01*
X49738906Y-55321145D01*
X49688615Y-55356282D01*
X49659656Y-55432630D01*
X49646429Y-55564741D01*
X49643333Y-55761695D01*
X49642577Y-55946744D01*
X49637477Y-56063076D01*
X49623790Y-56126639D01*
X49597270Y-56153382D01*
X49553673Y-56159256D01*
X49537500Y-56159333D01*
X49431667Y-56159333D01*
X49431667Y-54593000D01*
X49537500Y-54593000D01*
X49592640Y-54597314D01*
G37*
X49592640Y-54597314D02*
X49624277Y-54622515D01*
X49638932Y-54686987D01*
X49643124Y-54809114D01*
X49643333Y-54891453D01*
X49643333Y-55189906D01*
X49844417Y-55177203D01*
X50045500Y-55164500D01*
X50057427Y-55661916D01*
X50069353Y-56159333D01*
X49855000Y-56159333D01*
X49855000Y-55736000D01*
X49851388Y-55558303D01*
X49841648Y-55417335D01*
X49827426Y-55331012D01*
X49816129Y-55312666D01*
X49738906Y-55321145D01*
X49688615Y-55356282D01*
X49659656Y-55432630D01*
X49646429Y-55564741D01*
X49643333Y-55761695D01*
X49642577Y-55946744D01*
X49637477Y-56063076D01*
X49623790Y-56126639D01*
X49597270Y-56153382D01*
X49553673Y-56159256D01*
X49537500Y-56159333D01*
X49431667Y-56159333D01*
X49431667Y-54593000D01*
X49537500Y-54593000D01*
X49592640Y-54597314D01*
G36*
X48458000Y-56159333D02*
G01*
X48246333Y-56159333D01*
X48246333Y-55143333D01*
X48458000Y-55143333D01*
X48458000Y-56159333D01*
G37*
X48458000Y-56159333D02*
X48246333Y-56159333D01*
X48246333Y-55143333D01*
X48458000Y-55143333D01*
X48458000Y-56159333D01*
G36*
X48077000Y-56159333D02*
G01*
X47865333Y-56159333D01*
X47865333Y-54593000D01*
X48077000Y-54593000D01*
X48077000Y-56159333D01*
G37*
X48077000Y-56159333D02*
X47865333Y-56159333D01*
X47865333Y-54593000D01*
X48077000Y-54593000D01*
X48077000Y-56159333D01*
G36*
X47624660Y-54594318D02*
G01*
X47719324Y-54602238D01*
X47764992Y-54622704D01*
X47779499Y-54661661D01*
X47780667Y-54698833D01*
X47773804Y-54761644D01*
X47738781Y-54792979D01*
X47653947Y-54803664D01*
X47569000Y-54804666D01*
X47357333Y-54804666D01*
X47357333Y-55270333D01*
X47526667Y-55270333D01*
X47635765Y-55276109D01*
X47684256Y-55303356D01*
X47695939Y-55366950D01*
X47696000Y-55376166D01*
X47686757Y-55444353D01*
X47643162Y-55474659D01*
X47541413Y-55481962D01*
X47526667Y-55482000D01*
X47357333Y-55482000D01*
X47357333Y-55820666D01*
X47356205Y-55988631D01*
X47349223Y-56089205D01*
X47330988Y-56139662D01*
X47296102Y-56157278D01*
X47251500Y-56159333D01*
X47145667Y-56159333D01*
X47145667Y-54593000D01*
X47463167Y-54593000D01*
X47624660Y-54594318D01*
G37*
X47624660Y-54594318D02*
X47719324Y-54602238D01*
X47764992Y-54622704D01*
X47779499Y-54661661D01*
X47780667Y-54698833D01*
X47773804Y-54761644D01*
X47738781Y-54792979D01*
X47653947Y-54803664D01*
X47569000Y-54804666D01*
X47357333Y-54804666D01*
X47357333Y-55270333D01*
X47526667Y-55270333D01*
X47635765Y-55276109D01*
X47684256Y-55303356D01*
X47695939Y-55366950D01*
X47696000Y-55376166D01*
X47686757Y-55444353D01*
X47643162Y-55474659D01*
X47541413Y-55481962D01*
X47526667Y-55482000D01*
X47357333Y-55482000D01*
X47357333Y-55820666D01*
X47356205Y-55988631D01*
X47349223Y-56089205D01*
X47330988Y-56139662D01*
X47296102Y-56157278D01*
X47251500Y-56159333D01*
X47145667Y-56159333D01*
X47145667Y-54593000D01*
X47463167Y-54593000D01*
X47624660Y-54594318D01*
G36*
X57542216Y-55150348D02*
G01*
X57577419Y-55182921D01*
X57604145Y-55258342D01*
X57630573Y-55393900D01*
X57642155Y-55464259D01*
X57669391Y-55612225D01*
X57695273Y-55717311D01*
X57715099Y-55761256D01*
X57718462Y-55760648D01*
X57737178Y-55709297D01*
X57762717Y-55598172D01*
X57789569Y-55451265D01*
X57789726Y-55450305D01*
X57818081Y-55296830D01*
X57846518Y-55208334D01*
X57884440Y-55165644D01*
X57936932Y-55150180D01*
X57974749Y-55144800D01*
X58001341Y-55147814D01*
X58015655Y-55169541D01*
X58016640Y-55220298D01*
X58003244Y-55310402D01*
X57974416Y-55450171D01*
X57929103Y-55649922D01*
X57866253Y-55919974D01*
X57852398Y-55979416D01*
X57799253Y-56204178D01*
X57759155Y-56359225D01*
X57726643Y-56457458D01*
X57696257Y-56511782D01*
X57662535Y-56535098D01*
X57620015Y-56540311D01*
X57614994Y-56540333D01*
X57539118Y-56527089D01*
X57531585Y-56480060D01*
X57534062Y-56473132D01*
X57574125Y-56323457D01*
X57583110Y-56151005D01*
X57560261Y-55937921D01*
X57504824Y-55666349D01*
X57498848Y-55641098D01*
X57455119Y-55456015D01*
X57419820Y-55303118D01*
X57396968Y-55200043D01*
X57390333Y-55164848D01*
X57426484Y-55148323D01*
X57490358Y-55143333D01*
X57542216Y-55150348D01*
G37*
X57542216Y-55150348D02*
X57577419Y-55182921D01*
X57604145Y-55258342D01*
X57630573Y-55393900D01*
X57642155Y-55464259D01*
X57669391Y-55612225D01*
X57695273Y-55717311D01*
X57715099Y-55761256D01*
X57718462Y-55760648D01*
X57737178Y-55709297D01*
X57762717Y-55598172D01*
X57789569Y-55451265D01*
X57789726Y-55450305D01*
X57818081Y-55296830D01*
X57846518Y-55208334D01*
X57884440Y-55165644D01*
X57936932Y-55150180D01*
X57974749Y-55144800D01*
X58001341Y-55147814D01*
X58015655Y-55169541D01*
X58016640Y-55220298D01*
X58003244Y-55310402D01*
X57974416Y-55450171D01*
X57929103Y-55649922D01*
X57866253Y-55919974D01*
X57852398Y-55979416D01*
X57799253Y-56204178D01*
X57759155Y-56359225D01*
X57726643Y-56457458D01*
X57696257Y-56511782D01*
X57662535Y-56535098D01*
X57620015Y-56540311D01*
X57614994Y-56540333D01*
X57539118Y-56527089D01*
X57531585Y-56480060D01*
X57534062Y-56473132D01*
X57574125Y-56323457D01*
X57583110Y-56151005D01*
X57560261Y-55937921D01*
X57504824Y-55666349D01*
X57498848Y-55641098D01*
X57455119Y-55456015D01*
X57419820Y-55303118D01*
X57396968Y-55200043D01*
X57390333Y-55164848D01*
X57426484Y-55148323D01*
X57490358Y-55143333D01*
X57542216Y-55150348D01*
G36*
X49241167Y-56519166D02*
G01*
X48985429Y-56531540D01*
X48844916Y-56533496D01*
X48740182Y-56525995D01*
X48699679Y-56513901D01*
X48675958Y-56451741D01*
X48669667Y-56385111D01*
X48692553Y-56305798D01*
X48754333Y-56286333D01*
X48823123Y-56304061D01*
X48839000Y-56328666D01*
X48875228Y-56360489D01*
X48944833Y-56371000D01*
X49025394Y-56353515D01*
X49050220Y-56284670D01*
X49050667Y-56265166D01*
X49038892Y-56192418D01*
X48986761Y-56163539D01*
X48909061Y-56159333D01*
X48787405Y-56144422D01*
X48705165Y-56091626D01*
X48655694Y-55988852D01*
X48632345Y-55824007D01*
X48627991Y-55648389D01*
X48839000Y-55648389D01*
X48840061Y-55817226D01*
X48846856Y-55918601D01*
X48864805Y-55969719D01*
X48899329Y-55987783D01*
X48946614Y-55990000D01*
X49000509Y-55986860D01*
X49031729Y-55965751D01*
X49045367Y-55909133D01*
X49046513Y-55799469D01*
X49041864Y-55661916D01*
X49033698Y-55496064D01*
X49020847Y-55396691D01*
X48997582Y-55345619D01*
X48958176Y-55324666D01*
X48934250Y-55320305D01*
X48887171Y-55318009D01*
X48858885Y-55338588D01*
X48844616Y-55398499D01*
X48839585Y-55514201D01*
X48839000Y-55648389D01*
X48627991Y-55648389D01*
X48627981Y-55647999D01*
X48632546Y-55476721D01*
X48644118Y-55334449D01*
X48660484Y-55245277D01*
X48666172Y-55232205D01*
X48736575Y-55192379D01*
X48885063Y-55166959D01*
X48984062Y-55160170D01*
X49264411Y-55147430D01*
X49241167Y-56519166D01*
G37*
X49241167Y-56519166D02*
X48985429Y-56531540D01*
X48844916Y-56533496D01*
X48740182Y-56525995D01*
X48699679Y-56513901D01*
X48675958Y-56451741D01*
X48669667Y-56385111D01*
X48692553Y-56305798D01*
X48754333Y-56286333D01*
X48823123Y-56304061D01*
X48839000Y-56328666D01*
X48875228Y-56360489D01*
X48944833Y-56371000D01*
X49025394Y-56353515D01*
X49050220Y-56284670D01*
X49050667Y-56265166D01*
X49038892Y-56192418D01*
X48986761Y-56163539D01*
X48909061Y-56159333D01*
X48787405Y-56144422D01*
X48705165Y-56091626D01*
X48655694Y-55988852D01*
X48632345Y-55824007D01*
X48627991Y-55648389D01*
X48839000Y-55648389D01*
X48840061Y-55817226D01*
X48846856Y-55918601D01*
X48864805Y-55969719D01*
X48899329Y-55987783D01*
X48946614Y-55990000D01*
X49000509Y-55986860D01*
X49031729Y-55965751D01*
X49045367Y-55909133D01*
X49046513Y-55799469D01*
X49041864Y-55661916D01*
X49033698Y-55496064D01*
X49020847Y-55396691D01*
X48997582Y-55345619D01*
X48958176Y-55324666D01*
X48934250Y-55320305D01*
X48887171Y-55318009D01*
X48858885Y-55338588D01*
X48844616Y-55398499D01*
X48839585Y-55514201D01*
X48839000Y-55648389D01*
X48627991Y-55648389D01*
X48627981Y-55647999D01*
X48632546Y-55476721D01*
X48644118Y-55334449D01*
X48660484Y-55245277D01*
X48666172Y-55232205D01*
X48736575Y-55192379D01*
X48885063Y-55166959D01*
X48984062Y-55160170D01*
X49264411Y-55147430D01*
X49241167Y-56519166D01*
D12*
X37235000Y-42897936D02*
X37235000Y-44102064D01*
X35415000Y-42897936D02*
X35415000Y-44102064D01*
X32965000Y-42897936D02*
X32965000Y-44102064D01*
X34785000Y-42897936D02*
X34785000Y-44102064D01*
X42149721Y-53360000D02*
X42475279Y-53360000D01*
X42149721Y-52340000D02*
X42475279Y-52340000D01*
X35715000Y-51762779D02*
X35715000Y-51437221D01*
X36735000Y-51762779D02*
X36735000Y-51437221D01*
X39597936Y-48160000D02*
X40802064Y-48160000D01*
X39597936Y-46340000D02*
X40802064Y-46340000D01*
X33247936Y-55965000D02*
X34452064Y-55965000D01*
X33247936Y-57785000D02*
X34452064Y-57785000D01*
X85254721Y-30900000D02*
X85580279Y-30900000D01*
X85254721Y-29880000D02*
X85580279Y-29880000D01*
X65140000Y-33266078D02*
X65140000Y-32748922D01*
X66560000Y-33266078D02*
X66560000Y-32748922D01*
X83740000Y-36162779D02*
X83740000Y-35837221D01*
X84760000Y-36162779D02*
X84760000Y-35837221D01*
X80337221Y-51990000D02*
X80662779Y-51990000D01*
X80337221Y-53010000D02*
X80662779Y-53010000D01*
X30325000Y-45800000D02*
X32325000Y-45800000D01*
X32325000Y-45800000D02*
X32325000Y-41900000D01*
X30325000Y-45800000D02*
X30325000Y-41900000D01*
X31590000Y-23855000D02*
X33875000Y-23855000D01*
X33875000Y-23855000D02*
X33875000Y-22385000D01*
X33875000Y-22385000D02*
X31590000Y-22385000D01*
X88525000Y-29325000D02*
X84625000Y-29325000D01*
X88525000Y-27325000D02*
X84625000Y-27325000D01*
X88525000Y-29325000D02*
X88525000Y-27325000D01*
X48280000Y-23855000D02*
X50565000Y-23855000D01*
X50565000Y-23855000D02*
X50565000Y-22385000D01*
X50565000Y-22385000D02*
X48280000Y-22385000D01*
X46355000Y-22385000D02*
X44070000Y-22385000D01*
X46355000Y-23855000D02*
X46355000Y-22385000D01*
X44070000Y-23855000D02*
X46355000Y-23855000D01*
X39870000Y-23855000D02*
X42155000Y-23855000D01*
X42155000Y-23855000D02*
X42155000Y-22385000D01*
X42155000Y-22385000D02*
X39870000Y-22385000D01*
X37935000Y-22385000D02*
X35650000Y-22385000D01*
X37935000Y-23855000D02*
X37935000Y-22385000D01*
X35650000Y-23855000D02*
X37935000Y-23855000D01*
X36527936Y-38800000D02*
X37732064Y-38800000D01*
X36527936Y-40620000D02*
X37732064Y-40620000D01*
X40540000Y-40908578D02*
X40540000Y-40391422D01*
X41960000Y-40908578D02*
X41960000Y-40391422D01*
X23510000Y-33015000D02*
X24960000Y-33015000D01*
X24960000Y-33015000D02*
X24960000Y-34815000D01*
X24960000Y-34815000D02*
X25950000Y-34815000D01*
X23510000Y-38985000D02*
X24960000Y-38985000D01*
X24960000Y-38985000D02*
X24960000Y-37185000D01*
X20690000Y-34285000D02*
X20690000Y-37715000D01*
X65765000Y-22670000D02*
X65765000Y-23492470D01*
X65765000Y-25377530D02*
X65765000Y-26200000D01*
X65765000Y-24107530D02*
X65765000Y-24762470D01*
X70780000Y-22670000D02*
X65765000Y-22670000D01*
X72235000Y-26200000D02*
X65765000Y-26200000D01*
X70780000Y-22670000D02*
X70780000Y-23236529D01*
X70780000Y-24363471D02*
X70780000Y-24506529D01*
X70833471Y-24560000D02*
X70976529Y-24560000D01*
X72103471Y-24560000D02*
X72235000Y-24560000D01*
X72235000Y-24560000D02*
X72235000Y-24762470D01*
X72235000Y-25377530D02*
X72235000Y-26200000D01*
X71540000Y-22670000D02*
X72300000Y-22670000D01*
X72300000Y-22670000D02*
X72300000Y-23800000D01*
X32355000Y-66500000D02*
X32355000Y-65050000D01*
X32355000Y-65050000D02*
X34155000Y-65050000D01*
X34155000Y-65050000D02*
X34155000Y-64060000D01*
X40825000Y-66500000D02*
X40825000Y-65050000D01*
X40825000Y-65050000D02*
X39025000Y-65050000D01*
X33625000Y-69320000D02*
X39555000Y-69320000D01*
X43985000Y-69310000D02*
X49915000Y-69310000D01*
X51185000Y-65040000D02*
X49385000Y-65040000D01*
X51185000Y-66490000D02*
X51185000Y-65040000D01*
X44515000Y-65040000D02*
X44515000Y-64050000D01*
X42715000Y-65040000D02*
X44515000Y-65040000D01*
X42715000Y-66490000D02*
X42715000Y-65040000D01*
X54355000Y-69310000D02*
X60285000Y-69310000D01*
X61555000Y-65040000D02*
X59755000Y-65040000D01*
X61555000Y-66490000D02*
X61555000Y-65040000D01*
X54885000Y-65040000D02*
X54885000Y-64050000D01*
X53085000Y-65040000D02*
X54885000Y-65040000D01*
X53085000Y-66490000D02*
X53085000Y-65040000D01*
X76515000Y-66490000D02*
X76515000Y-65040000D01*
X76515000Y-65040000D02*
X78315000Y-65040000D01*
X78315000Y-65040000D02*
X78315000Y-64050000D01*
X87485000Y-66490000D02*
X87485000Y-65040000D01*
X87485000Y-65040000D02*
X85685000Y-65040000D01*
X77785000Y-69310000D02*
X86215000Y-69310000D01*
X99330000Y-38690000D02*
X94130000Y-38690000D01*
X99330000Y-56530000D02*
X99330000Y-38690000D01*
X94130000Y-59130000D02*
X94130000Y-38690000D01*
X99330000Y-56530000D02*
X96730000Y-56530000D01*
X96730000Y-56530000D02*
X96730000Y-59130000D01*
X96730000Y-59130000D02*
X94130000Y-59130000D01*
X99330000Y-57800000D02*
X99330000Y-59130000D01*
X99330000Y-59130000D02*
X98000000Y-59130000D01*
X91595000Y-59160000D02*
X94255000Y-59160000D01*
X91595000Y-41320000D02*
X91595000Y-59160000D01*
X94255000Y-41320000D02*
X94255000Y-59160000D01*
X91595000Y-41320000D02*
X94255000Y-41320000D01*
X91595000Y-40050000D02*
X91595000Y-38720000D01*
X91595000Y-38720000D02*
X92925000Y-38720000D01*
D13*
X35050000Y-54275000D02*
X35050000Y-48875000D01*
X29850000Y-48875000D02*
X29850000Y-54275000D01*
D12*
X48320000Y-25630000D02*
X49780000Y-25630000D01*
X48320000Y-28790000D02*
X50480000Y-28790000D01*
X48320000Y-28790000D02*
X48320000Y-27860000D01*
X48320000Y-25630000D02*
X48320000Y-26560000D01*
X44110000Y-25630000D02*
X44110000Y-26560000D01*
X44110000Y-28790000D02*
X44110000Y-27860000D01*
X44110000Y-28790000D02*
X46270000Y-28790000D01*
X44110000Y-25630000D02*
X45570000Y-25630000D01*
X39910000Y-25630000D02*
X41370000Y-25630000D01*
X39910000Y-28790000D02*
X42070000Y-28790000D01*
X39910000Y-28790000D02*
X39910000Y-27860000D01*
X39910000Y-25630000D02*
X39910000Y-26560000D01*
X35710000Y-25630000D02*
X37170000Y-25630000D01*
X35710000Y-28790000D02*
X37870000Y-28790000D01*
X35710000Y-28790000D02*
X35710000Y-27860000D01*
X35710000Y-25630000D02*
X35710000Y-26560000D01*
X46890000Y-58620000D02*
X46890000Y-59550000D01*
X46890000Y-61780000D02*
X46890000Y-60850000D01*
X46890000Y-61780000D02*
X49050000Y-61780000D01*
X46890000Y-58620000D02*
X48350000Y-58620000D01*
X40890000Y-58620000D02*
X40890000Y-59550000D01*
X40890000Y-61780000D02*
X40890000Y-60850000D01*
X40890000Y-61780000D02*
X43050000Y-61780000D01*
X40890000Y-58620000D02*
X42350000Y-58620000D01*
X37865000Y-44102064D02*
X37865000Y-42897936D01*
X39685000Y-44102064D02*
X39685000Y-42897936D01*
X42487779Y-54960000D02*
X42162221Y-54960000D01*
X42487779Y-53940000D02*
X42162221Y-53940000D01*
X42487779Y-55540000D02*
X42162221Y-55540000D01*
X42487779Y-56560000D02*
X42162221Y-56560000D01*
X32227221Y-25190000D02*
X32552779Y-25190000D01*
X32227221Y-24170000D02*
X32552779Y-24170000D01*
X48917221Y-24170000D02*
X49242779Y-24170000D01*
X48917221Y-25190000D02*
X49242779Y-25190000D01*
X44707221Y-24170000D02*
X45032779Y-24170000D01*
X44707221Y-25190000D02*
X45032779Y-25190000D01*
X40507221Y-24170000D02*
X40832779Y-24170000D01*
X40507221Y-25190000D02*
X40832779Y-25190000D01*
X36287221Y-24170000D02*
X36612779Y-24170000D01*
X36287221Y-25190000D02*
X36612779Y-25190000D01*
X45685000Y-60362779D02*
X45685000Y-60037221D01*
X44665000Y-60362779D02*
X44665000Y-60037221D01*
X39685000Y-60362779D02*
X39685000Y-60037221D01*
X38665000Y-60362779D02*
X38665000Y-60037221D01*
D10*
X60500000Y-21550000D02*
X55500000Y-21550000D01*
X61350000Y-22600000D02*
X61350000Y-23100000D01*
X54650000Y-22600000D02*
X54650000Y-23100000D01*
X59500000Y-24150000D02*
X58000000Y-24150000D01*
D12*
X42800000Y-37610000D02*
X44600000Y-37610000D01*
X44600000Y-34390000D02*
X42150000Y-34390000D01*
D13*
X37350000Y-51900000D02*
X37350000Y-51300000D01*
X37350000Y-51300000D02*
X40250000Y-51300000D01*
X40250000Y-51300000D02*
X40250000Y-51900000D01*
X40250000Y-51900000D02*
X37350000Y-51900000D01*
X37200000Y-53450000D02*
X37200000Y-52250000D01*
D12*
X79740000Y-27400000D02*
X79740000Y-29200000D01*
X82960000Y-29200000D02*
X82960000Y-26750000D01*
X78475000Y-59415000D02*
X80150000Y-59415000D01*
X78475000Y-59675000D02*
X78475000Y-59415000D01*
X75750000Y-59675000D02*
X78475000Y-59675000D01*
X73025000Y-59675000D02*
X73025000Y-59415000D01*
X75750000Y-59675000D02*
X73025000Y-59675000D01*
X78475000Y-54225000D02*
X78475000Y-54485000D01*
X75750000Y-54225000D02*
X78475000Y-54225000D01*
X73025000Y-54225000D02*
X73025000Y-54485000D01*
X75750000Y-54225000D02*
X73025000Y-54225000D01*
D10*
X62900000Y-58100000D02*
X63380000Y-58100000D01*
X65120000Y-58100000D02*
X65600000Y-58100000D01*
X65600000Y-58100000D02*
X65600000Y-57460000D01*
X62900000Y-58100000D02*
X62900000Y-57460000D01*
X65600000Y-56540000D02*
X65600000Y-55900000D01*
X65120000Y-55900000D02*
X65600000Y-55900000D01*
X62900000Y-56540000D02*
X62900000Y-55900000D01*
D12*
X62450000Y-40100000D02*
X59150000Y-40100000D01*
X59150000Y-40100000D02*
X59150000Y-44100000D01*
M02*
