G04 #@! TF.GenerationSoftware,KiCad,Pcbnew,(5.1.5)-3*
G04 #@! TF.CreationDate,2020-05-21T19:58:44+02:00*
G04 #@! TF.ProjectId,HadesNT,48616465-734e-4542-9e6b-696361645f70,rev?*
G04 #@! TF.SameCoordinates,Original*
G04 #@! TF.FileFunction,Copper,L3,Inr*
G04 #@! TF.FilePolarity,Positive*
%FSLAX46Y46*%
G04 Gerber Fmt 4.6, Leading zero omitted, Abs format (unit mm)*
G04 Created by KiCad (PCBNEW (5.1.5)-3) date 2020-05-21 19:58:44*
%MOMM*%
%LPD*%
G04 APERTURE LIST*
%ADD10C,2.400000*%
%ADD11R,2.400000X2.400000*%
%ADD12O,1.400000X1.800000*%
%ADD13C,0.900000*%
%ADD14C,8.600000*%
%ADD15R,1.000000X1.000000*%
%ADD16O,1.000000X1.000000*%
%ADD17R,1.700000X1.700000*%
%ADD18O,1.700000X1.700000*%
%ADD19C,0.450000*%
%ADD20C,1.000000*%
%ADD21C,0.800000*%
%ADD22C,0.254000*%
G04 APERTURE END LIST*
D10*
X94725000Y-32275000D03*
D11*
X94725000Y-35775000D03*
D12*
X84300000Y-21675000D03*
X77700000Y-21675000D03*
D13*
X27280419Y-22719581D03*
X25000000Y-21775000D03*
X22719581Y-22719581D03*
X21775000Y-25000000D03*
X22719581Y-27280419D03*
X25000000Y-28225000D03*
X27280419Y-27280419D03*
X28225000Y-25000000D03*
D14*
X25000000Y-25000000D03*
X25000000Y-65000000D03*
D13*
X28225000Y-65000000D03*
X27280419Y-67280419D03*
X25000000Y-68225000D03*
X22719581Y-67280419D03*
X21775000Y-65000000D03*
X22719581Y-62719581D03*
X25000000Y-61775000D03*
X27280419Y-62719581D03*
X97280419Y-62719581D03*
X95000000Y-61775000D03*
X92719581Y-62719581D03*
X91775000Y-65000000D03*
X92719581Y-67280419D03*
X95000000Y-68225000D03*
X97280419Y-67280419D03*
X98225000Y-65000000D03*
D14*
X95000000Y-65000000D03*
X95000000Y-25000000D03*
D13*
X98225000Y-25000000D03*
X97280419Y-27280419D03*
X95000000Y-28225000D03*
X92719581Y-27280419D03*
X91775000Y-25000000D03*
X92719581Y-22719581D03*
X95000000Y-21775000D03*
X97280419Y-22719581D03*
D15*
X71540000Y-23800000D03*
D16*
X71540000Y-25070000D03*
X70270000Y-23800000D03*
X70270000Y-25070000D03*
X69000000Y-23800000D03*
X69000000Y-25070000D03*
X67730000Y-23800000D03*
X67730000Y-25070000D03*
X66460000Y-23800000D03*
X66460000Y-25070000D03*
D17*
X98000000Y-57800000D03*
D18*
X95460000Y-57800000D03*
X98000000Y-55260000D03*
X95460000Y-55260000D03*
X98000000Y-52720000D03*
X95460000Y-52720000D03*
X98000000Y-50180000D03*
X95460000Y-50180000D03*
X98000000Y-47640000D03*
X95460000Y-47640000D03*
X98000000Y-45100000D03*
X95460000Y-45100000D03*
X98000000Y-42560000D03*
X95460000Y-42560000D03*
X98000000Y-40020000D03*
X95460000Y-40020000D03*
D17*
X92925000Y-40050000D03*
D18*
X92925000Y-42590000D03*
X92925000Y-45130000D03*
X92925000Y-47670000D03*
X92925000Y-50210000D03*
X92925000Y-52750000D03*
X92925000Y-55290000D03*
X92925000Y-57830000D03*
D19*
X59500000Y-22250000D03*
X56500000Y-22250000D03*
D20*
X40800000Y-48800000D03*
X39600000Y-51100000D03*
D21*
X74000000Y-60450000D03*
X79125000Y-28275000D03*
X78750000Y-26000000D03*
X77750000Y-26000000D03*
X76750000Y-26000000D03*
X76750000Y-27000000D03*
X77750000Y-27000000D03*
X78750000Y-27000000D03*
X26000000Y-33500000D03*
X27000000Y-33500000D03*
X28000000Y-33500000D03*
X26000000Y-32500000D03*
X27000000Y-32500000D03*
X28000000Y-32500000D03*
X26000000Y-31500000D03*
X27000000Y-31500000D03*
X28000000Y-31500000D03*
X81300000Y-53650000D03*
X82500000Y-51900000D03*
X83440000Y-51030000D03*
X85390000Y-35210000D03*
X83670000Y-34000000D03*
X82770000Y-33070000D03*
X69490000Y-32810000D03*
X69470000Y-31800000D03*
X65280000Y-30850000D03*
X66420000Y-30860000D03*
X68558191Y-41107102D03*
X67990000Y-45040000D03*
X67990000Y-44120000D03*
X66450000Y-52800000D03*
X66450000Y-51800000D03*
X28700000Y-39400000D03*
X27700000Y-39400000D03*
D20*
X42000000Y-48800000D03*
X43200000Y-48800000D03*
X43200000Y-50000000D03*
X39700000Y-48800000D03*
X23800000Y-56700000D03*
X25200000Y-56700000D03*
X26900000Y-56700000D03*
X28200000Y-56700000D03*
X29800000Y-56700000D03*
X31200000Y-56700000D03*
X30800000Y-50300000D03*
X32200000Y-50300000D03*
X33100000Y-48900000D03*
X38250000Y-40725000D03*
D21*
X32450000Y-42700000D03*
X62600000Y-58975000D03*
X62000000Y-55600000D03*
X77950000Y-55050000D03*
X77025000Y-55050000D03*
X64450000Y-32070000D03*
X69500000Y-41107102D03*
X62250000Y-39350000D03*
X59475000Y-44850000D03*
X52300000Y-40600000D03*
X51300000Y-47600000D03*
D20*
X35120000Y-66470000D03*
X46120000Y-66470000D03*
X57120000Y-66470000D03*
X68130000Y-66470000D03*
X78880000Y-66470000D03*
D21*
X49100000Y-54120000D03*
X55100000Y-54120000D03*
X57750000Y-39750000D03*
X57750000Y-40750000D03*
X57750000Y-41750000D03*
X57750000Y-42750000D03*
X57750000Y-43750000D03*
X57750000Y-44750000D03*
X57750000Y-45750000D03*
X57750000Y-46750000D03*
X58750000Y-46750000D03*
X59750000Y-46750000D03*
X60750000Y-46750000D03*
X72250000Y-51800000D03*
X72250000Y-53000000D03*
X38525000Y-26260000D03*
X42720000Y-26260000D03*
X46920000Y-26260000D03*
X51130000Y-26260000D03*
D20*
X30450000Y-24680000D03*
X38580000Y-45640000D03*
X38580000Y-46850000D03*
D21*
X49660000Y-46150000D03*
X60750000Y-47750000D03*
X61750000Y-47750000D03*
X67610000Y-30880000D03*
X64450000Y-33100000D03*
X67990000Y-41930000D03*
X68120000Y-38550000D03*
X83440000Y-50000000D03*
X84350000Y-50000000D03*
X68320000Y-53720000D03*
X67350000Y-53720000D03*
X76200000Y-53700000D03*
X31700000Y-44700000D03*
X31700000Y-43800000D03*
D20*
X38400000Y-51100000D03*
X37200000Y-51100000D03*
X37200000Y-54900000D03*
X38400000Y-54900000D03*
X39600000Y-54900000D03*
X40800000Y-54900000D03*
X42000000Y-54900000D03*
X43200000Y-54900000D03*
X43200000Y-53700000D03*
X43200000Y-52500000D03*
X35200000Y-40700000D03*
D21*
X32700000Y-38325000D03*
X63475000Y-33100000D03*
X65400000Y-58975000D03*
X61050000Y-57475000D03*
X71200000Y-60450000D03*
X53200000Y-41900000D03*
X54100000Y-47600000D03*
D20*
X36380000Y-66470000D03*
X47370000Y-66480000D03*
X58380000Y-66480000D03*
X69370000Y-66480000D03*
X80130000Y-66480000D03*
D21*
X45630000Y-54390000D03*
X51620000Y-54390000D03*
D20*
X34500000Y-23125000D03*
X30450000Y-23125000D03*
X38725000Y-23125000D03*
X42925000Y-23125000D03*
X47125000Y-23125000D03*
D21*
X69060000Y-42130000D03*
X81800000Y-33070000D03*
X59370000Y-24470000D03*
X54870000Y-24470000D03*
D20*
X86750000Y-28325000D03*
D21*
X68700000Y-43150000D03*
D20*
X23360000Y-48470000D03*
X24540000Y-48470000D03*
X22160000Y-48470000D03*
X87925000Y-26500000D03*
X86750000Y-26500000D03*
D21*
X82600000Y-58550000D03*
X85100000Y-45275000D03*
X83614489Y-58560839D03*
X86150000Y-46300000D03*
X57250000Y-27750000D03*
X71600000Y-36175000D03*
X73750000Y-55750000D03*
X75250000Y-48000000D03*
X66500000Y-57000000D03*
X70846685Y-52250000D03*
X67800000Y-37500000D03*
X64877987Y-37422013D03*
X57500000Y-38146685D03*
X64200000Y-36600000D03*
X69100000Y-35899502D03*
D22*
G36*
X76584618Y-20729725D02*
G01*
X76460653Y-20961646D01*
X76384317Y-21213294D01*
X76365000Y-21409421D01*
X76365000Y-21940578D01*
X76384317Y-22136705D01*
X76460653Y-22388353D01*
X76584618Y-22620274D01*
X76751445Y-22823555D01*
X76954725Y-22990382D01*
X77186646Y-23114347D01*
X77438294Y-23190683D01*
X77700000Y-23216459D01*
X77961705Y-23190683D01*
X78213353Y-23114347D01*
X78445274Y-22990382D01*
X78648555Y-22823555D01*
X78815382Y-22620275D01*
X78939347Y-22388354D01*
X79015683Y-22136706D01*
X79035000Y-21940579D01*
X79035000Y-21409422D01*
X79015683Y-21213295D01*
X78939347Y-20961647D01*
X78815382Y-20729725D01*
X78758160Y-20660000D01*
X83241840Y-20660000D01*
X83184618Y-20729725D01*
X83060653Y-20961646D01*
X82984317Y-21213294D01*
X82965000Y-21409421D01*
X82965000Y-21940578D01*
X82984317Y-22136705D01*
X83060653Y-22388353D01*
X83184618Y-22620274D01*
X83351445Y-22823555D01*
X83554725Y-22990382D01*
X83786646Y-23114347D01*
X84038294Y-23190683D01*
X84300000Y-23216459D01*
X84561705Y-23190683D01*
X84813353Y-23114347D01*
X85045274Y-22990382D01*
X85248555Y-22823555D01*
X85415382Y-22620275D01*
X85539347Y-22388354D01*
X85615683Y-22136706D01*
X85635000Y-21940579D01*
X85635000Y-21409422D01*
X85615683Y-21213295D01*
X85539347Y-20961647D01*
X85415382Y-20729725D01*
X85358160Y-20660000D01*
X92612504Y-20660000D01*
X91854121Y-21166735D01*
X91166735Y-21854121D01*
X90626660Y-22662401D01*
X90254650Y-23560514D01*
X90065000Y-24513945D01*
X90065000Y-25486055D01*
X90254650Y-26439486D01*
X90626660Y-27337599D01*
X91166735Y-28145879D01*
X91854121Y-28833265D01*
X92662401Y-29373340D01*
X93560514Y-29745350D01*
X94513945Y-29935000D01*
X95486055Y-29935000D01*
X96439486Y-29745350D01*
X97337599Y-29373340D01*
X98145879Y-28833265D01*
X98833265Y-28145879D01*
X99340000Y-27387496D01*
X99340000Y-39374555D01*
X99315990Y-39316589D01*
X99153475Y-39073368D01*
X98946632Y-38866525D01*
X98703411Y-38704010D01*
X98433158Y-38592068D01*
X98146260Y-38535000D01*
X97853740Y-38535000D01*
X97566842Y-38592068D01*
X97296589Y-38704010D01*
X97053368Y-38866525D01*
X96846525Y-39073368D01*
X96730000Y-39247760D01*
X96613475Y-39073368D01*
X96406632Y-38866525D01*
X96163411Y-38704010D01*
X95893158Y-38592068D01*
X95606260Y-38535000D01*
X95313740Y-38535000D01*
X95026842Y-38592068D01*
X94756589Y-38704010D01*
X94513368Y-38866525D01*
X94378367Y-39001526D01*
X94364502Y-38955820D01*
X94305537Y-38845506D01*
X94226185Y-38748815D01*
X94129494Y-38669463D01*
X94019180Y-38610498D01*
X93899482Y-38574188D01*
X93775000Y-38561928D01*
X92075000Y-38561928D01*
X91950518Y-38574188D01*
X91830820Y-38610498D01*
X91720506Y-38669463D01*
X91623815Y-38748815D01*
X91544463Y-38845506D01*
X91485498Y-38955820D01*
X91449188Y-39075518D01*
X91436928Y-39200000D01*
X91436928Y-40900000D01*
X91449188Y-41024482D01*
X91485498Y-41144180D01*
X91544463Y-41254494D01*
X91623815Y-41351185D01*
X91720506Y-41430537D01*
X91830820Y-41489502D01*
X91903380Y-41511513D01*
X91771525Y-41643368D01*
X91609010Y-41886589D01*
X91497068Y-42156842D01*
X91440000Y-42443740D01*
X91440000Y-42736260D01*
X91497068Y-43023158D01*
X91609010Y-43293411D01*
X91771525Y-43536632D01*
X91978368Y-43743475D01*
X92152760Y-43860000D01*
X91978368Y-43976525D01*
X91771525Y-44183368D01*
X91609010Y-44426589D01*
X91497068Y-44696842D01*
X91440000Y-44983740D01*
X91440000Y-45276260D01*
X91497068Y-45563158D01*
X91609010Y-45833411D01*
X91771525Y-46076632D01*
X91978368Y-46283475D01*
X92152760Y-46400000D01*
X91978368Y-46516525D01*
X91771525Y-46723368D01*
X91609010Y-46966589D01*
X91497068Y-47236842D01*
X91440000Y-47523740D01*
X91440000Y-47816260D01*
X91497068Y-48103158D01*
X91609010Y-48373411D01*
X91771525Y-48616632D01*
X91978368Y-48823475D01*
X92152760Y-48940000D01*
X91978368Y-49056525D01*
X91771525Y-49263368D01*
X91609010Y-49506589D01*
X91497068Y-49776842D01*
X91440000Y-50063740D01*
X91440000Y-50356260D01*
X91497068Y-50643158D01*
X91609010Y-50913411D01*
X91771525Y-51156632D01*
X91978368Y-51363475D01*
X92152760Y-51480000D01*
X91978368Y-51596525D01*
X91771525Y-51803368D01*
X91609010Y-52046589D01*
X91497068Y-52316842D01*
X91440000Y-52603740D01*
X91440000Y-52896260D01*
X91497068Y-53183158D01*
X91609010Y-53453411D01*
X91771525Y-53696632D01*
X91978368Y-53903475D01*
X92152760Y-54020000D01*
X91978368Y-54136525D01*
X91771525Y-54343368D01*
X91609010Y-54586589D01*
X91497068Y-54856842D01*
X91440000Y-55143740D01*
X91440000Y-55436260D01*
X91497068Y-55723158D01*
X91609010Y-55993411D01*
X91771525Y-56236632D01*
X91978368Y-56443475D01*
X92152760Y-56560000D01*
X91978368Y-56676525D01*
X91771525Y-56883368D01*
X91609010Y-57126589D01*
X91497068Y-57396842D01*
X91440000Y-57683740D01*
X91440000Y-57976260D01*
X91497068Y-58263158D01*
X91609010Y-58533411D01*
X91771525Y-58776632D01*
X91978368Y-58983475D01*
X92221589Y-59145990D01*
X92491842Y-59257932D01*
X92778740Y-59315000D01*
X93071260Y-59315000D01*
X93358158Y-59257932D01*
X93628411Y-59145990D01*
X93871632Y-58983475D01*
X94078475Y-58776632D01*
X94202523Y-58590981D01*
X94306525Y-58746632D01*
X94513368Y-58953475D01*
X94756589Y-59115990D01*
X95026842Y-59227932D01*
X95313740Y-59285000D01*
X95606260Y-59285000D01*
X95893158Y-59227932D01*
X96163411Y-59115990D01*
X96406632Y-58953475D01*
X96538487Y-58821620D01*
X96560498Y-58894180D01*
X96619463Y-59004494D01*
X96698815Y-59101185D01*
X96795506Y-59180537D01*
X96905820Y-59239502D01*
X97025518Y-59275812D01*
X97150000Y-59288072D01*
X98850000Y-59288072D01*
X98974482Y-59275812D01*
X99094180Y-59239502D01*
X99204494Y-59180537D01*
X99301185Y-59101185D01*
X99340001Y-59053888D01*
X99340001Y-62612506D01*
X98833265Y-61854121D01*
X98145879Y-61166735D01*
X97337599Y-60626660D01*
X96439486Y-60254650D01*
X95486055Y-60065000D01*
X94513945Y-60065000D01*
X93560514Y-60254650D01*
X92662401Y-60626660D01*
X91854121Y-61166735D01*
X91166735Y-61854121D01*
X90626660Y-62662401D01*
X90254650Y-63560514D01*
X90065000Y-64513945D01*
X90065000Y-65486055D01*
X90254650Y-66439486D01*
X90626660Y-67337599D01*
X91166735Y-68145879D01*
X91854121Y-68833265D01*
X92612504Y-69340000D01*
X27387496Y-69340000D01*
X28145879Y-68833265D01*
X28833265Y-68145879D01*
X29373340Y-67337599D01*
X29745350Y-66439486D01*
X29761516Y-66358212D01*
X33985000Y-66358212D01*
X33985000Y-66581788D01*
X34028617Y-66801067D01*
X34114176Y-67007624D01*
X34238388Y-67193520D01*
X34396480Y-67351612D01*
X34582376Y-67475824D01*
X34788933Y-67561383D01*
X35008212Y-67605000D01*
X35231788Y-67605000D01*
X35451067Y-67561383D01*
X35657624Y-67475824D01*
X35843520Y-67351612D01*
X36001612Y-67193520D01*
X36125824Y-67007624D01*
X36211383Y-66801067D01*
X36255000Y-66581788D01*
X36255000Y-66358212D01*
X44985000Y-66358212D01*
X44985000Y-66581788D01*
X45028617Y-66801067D01*
X45114176Y-67007624D01*
X45238388Y-67193520D01*
X45396480Y-67351612D01*
X45582376Y-67475824D01*
X45788933Y-67561383D01*
X46008212Y-67605000D01*
X46231788Y-67605000D01*
X46451067Y-67561383D01*
X46657624Y-67475824D01*
X46843520Y-67351612D01*
X47001612Y-67193520D01*
X47125824Y-67007624D01*
X47211383Y-66801067D01*
X47255000Y-66581788D01*
X47255000Y-66358212D01*
X55985000Y-66358212D01*
X55985000Y-66581788D01*
X56028617Y-66801067D01*
X56114176Y-67007624D01*
X56238388Y-67193520D01*
X56396480Y-67351612D01*
X56582376Y-67475824D01*
X56788933Y-67561383D01*
X57008212Y-67605000D01*
X57231788Y-67605000D01*
X57451067Y-67561383D01*
X57657624Y-67475824D01*
X57843520Y-67351612D01*
X58001612Y-67193520D01*
X58125824Y-67007624D01*
X58211383Y-66801067D01*
X58255000Y-66581788D01*
X58255000Y-66358212D01*
X66995000Y-66358212D01*
X66995000Y-66581788D01*
X67038617Y-66801067D01*
X67124176Y-67007624D01*
X67248388Y-67193520D01*
X67406480Y-67351612D01*
X67592376Y-67475824D01*
X67798933Y-67561383D01*
X68018212Y-67605000D01*
X68241788Y-67605000D01*
X68461067Y-67561383D01*
X68667624Y-67475824D01*
X68853520Y-67351612D01*
X69011612Y-67193520D01*
X69135824Y-67007624D01*
X69221383Y-66801067D01*
X69265000Y-66581788D01*
X69265000Y-66358212D01*
X77745000Y-66358212D01*
X77745000Y-66581788D01*
X77788617Y-66801067D01*
X77874176Y-67007624D01*
X77998388Y-67193520D01*
X78156480Y-67351612D01*
X78342376Y-67475824D01*
X78548933Y-67561383D01*
X78768212Y-67605000D01*
X78991788Y-67605000D01*
X79211067Y-67561383D01*
X79417624Y-67475824D01*
X79603520Y-67351612D01*
X79761612Y-67193520D01*
X79885824Y-67007624D01*
X79971383Y-66801067D01*
X80015000Y-66581788D01*
X80015000Y-66358212D01*
X79971383Y-66138933D01*
X79885824Y-65932376D01*
X79761612Y-65746480D01*
X79603520Y-65588388D01*
X79417624Y-65464176D01*
X79211067Y-65378617D01*
X78991788Y-65335000D01*
X78768212Y-65335000D01*
X78548933Y-65378617D01*
X78342376Y-65464176D01*
X78156480Y-65588388D01*
X77998388Y-65746480D01*
X77874176Y-65932376D01*
X77788617Y-66138933D01*
X77745000Y-66358212D01*
X69265000Y-66358212D01*
X69221383Y-66138933D01*
X69135824Y-65932376D01*
X69011612Y-65746480D01*
X68853520Y-65588388D01*
X68667624Y-65464176D01*
X68461067Y-65378617D01*
X68241788Y-65335000D01*
X68018212Y-65335000D01*
X67798933Y-65378617D01*
X67592376Y-65464176D01*
X67406480Y-65588388D01*
X67248388Y-65746480D01*
X67124176Y-65932376D01*
X67038617Y-66138933D01*
X66995000Y-66358212D01*
X58255000Y-66358212D01*
X58211383Y-66138933D01*
X58125824Y-65932376D01*
X58001612Y-65746480D01*
X57843520Y-65588388D01*
X57657624Y-65464176D01*
X57451067Y-65378617D01*
X57231788Y-65335000D01*
X57008212Y-65335000D01*
X56788933Y-65378617D01*
X56582376Y-65464176D01*
X56396480Y-65588388D01*
X56238388Y-65746480D01*
X56114176Y-65932376D01*
X56028617Y-66138933D01*
X55985000Y-66358212D01*
X47255000Y-66358212D01*
X47211383Y-66138933D01*
X47125824Y-65932376D01*
X47001612Y-65746480D01*
X46843520Y-65588388D01*
X46657624Y-65464176D01*
X46451067Y-65378617D01*
X46231788Y-65335000D01*
X46008212Y-65335000D01*
X45788933Y-65378617D01*
X45582376Y-65464176D01*
X45396480Y-65588388D01*
X45238388Y-65746480D01*
X45114176Y-65932376D01*
X45028617Y-66138933D01*
X44985000Y-66358212D01*
X36255000Y-66358212D01*
X36211383Y-66138933D01*
X36125824Y-65932376D01*
X36001612Y-65746480D01*
X35843520Y-65588388D01*
X35657624Y-65464176D01*
X35451067Y-65378617D01*
X35231788Y-65335000D01*
X35008212Y-65335000D01*
X34788933Y-65378617D01*
X34582376Y-65464176D01*
X34396480Y-65588388D01*
X34238388Y-65746480D01*
X34114176Y-65932376D01*
X34028617Y-66138933D01*
X33985000Y-66358212D01*
X29761516Y-66358212D01*
X29935000Y-65486055D01*
X29935000Y-64513945D01*
X29745350Y-63560514D01*
X29373340Y-62662401D01*
X28833265Y-61854121D01*
X28145879Y-61166735D01*
X27337599Y-60626660D01*
X26665001Y-60348061D01*
X72965000Y-60348061D01*
X72965000Y-60551939D01*
X73004774Y-60751898D01*
X73082795Y-60940256D01*
X73196063Y-61109774D01*
X73340226Y-61253937D01*
X73509744Y-61367205D01*
X73698102Y-61445226D01*
X73898061Y-61485000D01*
X74101939Y-61485000D01*
X74301898Y-61445226D01*
X74490256Y-61367205D01*
X74659774Y-61253937D01*
X74803937Y-61109774D01*
X74917205Y-60940256D01*
X74995226Y-60751898D01*
X75035000Y-60551939D01*
X75035000Y-60348061D01*
X74995226Y-60148102D01*
X74917205Y-59959744D01*
X74803937Y-59790226D01*
X74659774Y-59646063D01*
X74490256Y-59532795D01*
X74301898Y-59454774D01*
X74101939Y-59415000D01*
X73898061Y-59415000D01*
X73698102Y-59454774D01*
X73509744Y-59532795D01*
X73340226Y-59646063D01*
X73196063Y-59790226D01*
X73082795Y-59959744D01*
X73004774Y-60148102D01*
X72965000Y-60348061D01*
X26665001Y-60348061D01*
X26439486Y-60254650D01*
X25486055Y-60065000D01*
X24513945Y-60065000D01*
X23560514Y-60254650D01*
X22662401Y-60626660D01*
X21854121Y-61166735D01*
X21166735Y-61854121D01*
X20660000Y-62612504D01*
X20660000Y-58873061D01*
X61565000Y-58873061D01*
X61565000Y-59076939D01*
X61604774Y-59276898D01*
X61682795Y-59465256D01*
X61796063Y-59634774D01*
X61940226Y-59778937D01*
X62109744Y-59892205D01*
X62298102Y-59970226D01*
X62498061Y-60010000D01*
X62701939Y-60010000D01*
X62901898Y-59970226D01*
X63090256Y-59892205D01*
X63259774Y-59778937D01*
X63403937Y-59634774D01*
X63517205Y-59465256D01*
X63595226Y-59276898D01*
X63635000Y-59076939D01*
X63635000Y-58873061D01*
X63595226Y-58673102D01*
X63517205Y-58484744D01*
X63492695Y-58448061D01*
X81565000Y-58448061D01*
X81565000Y-58651939D01*
X81604774Y-58851898D01*
X81682795Y-59040256D01*
X81796063Y-59209774D01*
X81940226Y-59353937D01*
X82109744Y-59467205D01*
X82298102Y-59545226D01*
X82498061Y-59585000D01*
X82701939Y-59585000D01*
X82901898Y-59545226D01*
X83090256Y-59467205D01*
X83099134Y-59461273D01*
X83124233Y-59478044D01*
X83312591Y-59556065D01*
X83512550Y-59595839D01*
X83716428Y-59595839D01*
X83916387Y-59556065D01*
X84104745Y-59478044D01*
X84274263Y-59364776D01*
X84418426Y-59220613D01*
X84531694Y-59051095D01*
X84609715Y-58862737D01*
X84649489Y-58662778D01*
X84649489Y-58458900D01*
X84609715Y-58258941D01*
X84531694Y-58070583D01*
X84418426Y-57901065D01*
X84274263Y-57756902D01*
X84104745Y-57643634D01*
X83916387Y-57565613D01*
X83716428Y-57525839D01*
X83512550Y-57525839D01*
X83312591Y-57565613D01*
X83124233Y-57643634D01*
X83115355Y-57649566D01*
X83090256Y-57632795D01*
X82901898Y-57554774D01*
X82701939Y-57515000D01*
X82498061Y-57515000D01*
X82298102Y-57554774D01*
X82109744Y-57632795D01*
X81940226Y-57746063D01*
X81796063Y-57890226D01*
X81682795Y-58059744D01*
X81604774Y-58248102D01*
X81565000Y-58448061D01*
X63492695Y-58448061D01*
X63403937Y-58315226D01*
X63259774Y-58171063D01*
X63090256Y-58057795D01*
X62901898Y-57979774D01*
X62701939Y-57940000D01*
X62498061Y-57940000D01*
X62298102Y-57979774D01*
X62109744Y-58057795D01*
X61940226Y-58171063D01*
X61796063Y-58315226D01*
X61682795Y-58484744D01*
X61604774Y-58673102D01*
X61565000Y-58873061D01*
X20660000Y-58873061D01*
X20660000Y-56588212D01*
X22665000Y-56588212D01*
X22665000Y-56811788D01*
X22708617Y-57031067D01*
X22794176Y-57237624D01*
X22918388Y-57423520D01*
X23076480Y-57581612D01*
X23262376Y-57705824D01*
X23468933Y-57791383D01*
X23688212Y-57835000D01*
X23911788Y-57835000D01*
X24131067Y-57791383D01*
X24337624Y-57705824D01*
X24500000Y-57597328D01*
X24662376Y-57705824D01*
X24868933Y-57791383D01*
X25088212Y-57835000D01*
X25311788Y-57835000D01*
X25531067Y-57791383D01*
X25737624Y-57705824D01*
X25923520Y-57581612D01*
X26050000Y-57455132D01*
X26176480Y-57581612D01*
X26362376Y-57705824D01*
X26568933Y-57791383D01*
X26788212Y-57835000D01*
X27011788Y-57835000D01*
X27231067Y-57791383D01*
X27437624Y-57705824D01*
X27550000Y-57630737D01*
X27662376Y-57705824D01*
X27868933Y-57791383D01*
X28088212Y-57835000D01*
X28311788Y-57835000D01*
X28531067Y-57791383D01*
X28737624Y-57705824D01*
X28923520Y-57581612D01*
X29000000Y-57505132D01*
X29076480Y-57581612D01*
X29262376Y-57705824D01*
X29468933Y-57791383D01*
X29688212Y-57835000D01*
X29911788Y-57835000D01*
X30131067Y-57791383D01*
X30337624Y-57705824D01*
X30500000Y-57597328D01*
X30662376Y-57705824D01*
X30868933Y-57791383D01*
X31088212Y-57835000D01*
X31311788Y-57835000D01*
X31531067Y-57791383D01*
X31737624Y-57705824D01*
X31923520Y-57581612D01*
X32081612Y-57423520D01*
X32205824Y-57237624D01*
X32291383Y-57031067D01*
X32317839Y-56898061D01*
X65465000Y-56898061D01*
X65465000Y-57101939D01*
X65504774Y-57301898D01*
X65582795Y-57490256D01*
X65696063Y-57659774D01*
X65840226Y-57803937D01*
X66009744Y-57917205D01*
X66198102Y-57995226D01*
X66398061Y-58035000D01*
X66601939Y-58035000D01*
X66801898Y-57995226D01*
X66990256Y-57917205D01*
X67159774Y-57803937D01*
X67303937Y-57659774D01*
X67417205Y-57490256D01*
X67495226Y-57301898D01*
X67535000Y-57101939D01*
X67535000Y-56898061D01*
X67495226Y-56698102D01*
X67417205Y-56509744D01*
X67303937Y-56340226D01*
X67159774Y-56196063D01*
X66990256Y-56082795D01*
X66801898Y-56004774D01*
X66601939Y-55965000D01*
X66398061Y-55965000D01*
X66198102Y-56004774D01*
X66009744Y-56082795D01*
X65840226Y-56196063D01*
X65696063Y-56340226D01*
X65582795Y-56509744D01*
X65504774Y-56698102D01*
X65465000Y-56898061D01*
X32317839Y-56898061D01*
X32335000Y-56811788D01*
X32335000Y-56588212D01*
X32291383Y-56368933D01*
X32205824Y-56162376D01*
X32081612Y-55976480D01*
X31923520Y-55818388D01*
X31737624Y-55694176D01*
X31531067Y-55608617D01*
X31311788Y-55565000D01*
X31088212Y-55565000D01*
X30868933Y-55608617D01*
X30662376Y-55694176D01*
X30500000Y-55802672D01*
X30337624Y-55694176D01*
X30131067Y-55608617D01*
X29911788Y-55565000D01*
X29688212Y-55565000D01*
X29468933Y-55608617D01*
X29262376Y-55694176D01*
X29076480Y-55818388D01*
X29000000Y-55894868D01*
X28923520Y-55818388D01*
X28737624Y-55694176D01*
X28531067Y-55608617D01*
X28311788Y-55565000D01*
X28088212Y-55565000D01*
X27868933Y-55608617D01*
X27662376Y-55694176D01*
X27550000Y-55769263D01*
X27437624Y-55694176D01*
X27231067Y-55608617D01*
X27011788Y-55565000D01*
X26788212Y-55565000D01*
X26568933Y-55608617D01*
X26362376Y-55694176D01*
X26176480Y-55818388D01*
X26050000Y-55944868D01*
X25923520Y-55818388D01*
X25737624Y-55694176D01*
X25531067Y-55608617D01*
X25311788Y-55565000D01*
X25088212Y-55565000D01*
X24868933Y-55608617D01*
X24662376Y-55694176D01*
X24500000Y-55802672D01*
X24337624Y-55694176D01*
X24131067Y-55608617D01*
X23911788Y-55565000D01*
X23688212Y-55565000D01*
X23468933Y-55608617D01*
X23262376Y-55694176D01*
X23076480Y-55818388D01*
X22918388Y-55976480D01*
X22794176Y-56162376D01*
X22708617Y-56368933D01*
X22665000Y-56588212D01*
X20660000Y-56588212D01*
X20660000Y-55498061D01*
X60965000Y-55498061D01*
X60965000Y-55701939D01*
X61004774Y-55901898D01*
X61082795Y-56090256D01*
X61196063Y-56259774D01*
X61340226Y-56403937D01*
X61509744Y-56517205D01*
X61698102Y-56595226D01*
X61898061Y-56635000D01*
X62101939Y-56635000D01*
X62301898Y-56595226D01*
X62490256Y-56517205D01*
X62659774Y-56403937D01*
X62803937Y-56259774D01*
X62917205Y-56090256D01*
X62995226Y-55901898D01*
X63035000Y-55701939D01*
X63035000Y-55648061D01*
X72715000Y-55648061D01*
X72715000Y-55851939D01*
X72754774Y-56051898D01*
X72832795Y-56240256D01*
X72946063Y-56409774D01*
X73090226Y-56553937D01*
X73259744Y-56667205D01*
X73448102Y-56745226D01*
X73648061Y-56785000D01*
X73851939Y-56785000D01*
X74051898Y-56745226D01*
X74240256Y-56667205D01*
X74409774Y-56553937D01*
X74553937Y-56409774D01*
X74667205Y-56240256D01*
X74745226Y-56051898D01*
X74785000Y-55851939D01*
X74785000Y-55648061D01*
X74745226Y-55448102D01*
X74667205Y-55259744D01*
X74553937Y-55090226D01*
X74411772Y-54948061D01*
X75990000Y-54948061D01*
X75990000Y-55151939D01*
X76029774Y-55351898D01*
X76107795Y-55540256D01*
X76221063Y-55709774D01*
X76365226Y-55853937D01*
X76534744Y-55967205D01*
X76723102Y-56045226D01*
X76923061Y-56085000D01*
X77126939Y-56085000D01*
X77326898Y-56045226D01*
X77487500Y-55978702D01*
X77648102Y-56045226D01*
X77848061Y-56085000D01*
X78051939Y-56085000D01*
X78251898Y-56045226D01*
X78440256Y-55967205D01*
X78609774Y-55853937D01*
X78753937Y-55709774D01*
X78867205Y-55540256D01*
X78945226Y-55351898D01*
X78985000Y-55151939D01*
X78985000Y-54948061D01*
X78945226Y-54748102D01*
X78867205Y-54559744D01*
X78753937Y-54390226D01*
X78609774Y-54246063D01*
X78440256Y-54132795D01*
X78251898Y-54054774D01*
X78051939Y-54015000D01*
X77848061Y-54015000D01*
X77648102Y-54054774D01*
X77487500Y-54121298D01*
X77326898Y-54054774D01*
X77126939Y-54015000D01*
X76923061Y-54015000D01*
X76723102Y-54054774D01*
X76534744Y-54132795D01*
X76365226Y-54246063D01*
X76221063Y-54390226D01*
X76107795Y-54559744D01*
X76029774Y-54748102D01*
X75990000Y-54948061D01*
X74411772Y-54948061D01*
X74409774Y-54946063D01*
X74240256Y-54832795D01*
X74051898Y-54754774D01*
X73851939Y-54715000D01*
X73648061Y-54715000D01*
X73448102Y-54754774D01*
X73259744Y-54832795D01*
X73090226Y-54946063D01*
X72946063Y-55090226D01*
X72832795Y-55259744D01*
X72754774Y-55448102D01*
X72715000Y-55648061D01*
X63035000Y-55648061D01*
X63035000Y-55498061D01*
X62995226Y-55298102D01*
X62917205Y-55109744D01*
X62803937Y-54940226D01*
X62659774Y-54796063D01*
X62490256Y-54682795D01*
X62301898Y-54604774D01*
X62101939Y-54565000D01*
X61898061Y-54565000D01*
X61698102Y-54604774D01*
X61509744Y-54682795D01*
X61340226Y-54796063D01*
X61196063Y-54940226D01*
X61082795Y-55109744D01*
X61004774Y-55298102D01*
X60965000Y-55498061D01*
X20660000Y-55498061D01*
X20660000Y-54018061D01*
X48065000Y-54018061D01*
X48065000Y-54221939D01*
X48104774Y-54421898D01*
X48182795Y-54610256D01*
X48296063Y-54779774D01*
X48440226Y-54923937D01*
X48609744Y-55037205D01*
X48798102Y-55115226D01*
X48998061Y-55155000D01*
X49201939Y-55155000D01*
X49401898Y-55115226D01*
X49590256Y-55037205D01*
X49759774Y-54923937D01*
X49903937Y-54779774D01*
X50017205Y-54610256D01*
X50095226Y-54421898D01*
X50135000Y-54221939D01*
X50135000Y-54018061D01*
X54065000Y-54018061D01*
X54065000Y-54221939D01*
X54104774Y-54421898D01*
X54182795Y-54610256D01*
X54296063Y-54779774D01*
X54440226Y-54923937D01*
X54609744Y-55037205D01*
X54798102Y-55115226D01*
X54998061Y-55155000D01*
X55201939Y-55155000D01*
X55401898Y-55115226D01*
X55590256Y-55037205D01*
X55759774Y-54923937D01*
X55903937Y-54779774D01*
X56017205Y-54610256D01*
X56095226Y-54421898D01*
X56135000Y-54221939D01*
X56135000Y-54018061D01*
X56095226Y-53818102D01*
X56017205Y-53629744D01*
X55903937Y-53460226D01*
X55759774Y-53316063D01*
X55590256Y-53202795D01*
X55401898Y-53124774D01*
X55201939Y-53085000D01*
X54998061Y-53085000D01*
X54798102Y-53124774D01*
X54609744Y-53202795D01*
X54440226Y-53316063D01*
X54296063Y-53460226D01*
X54182795Y-53629744D01*
X54104774Y-53818102D01*
X54065000Y-54018061D01*
X50135000Y-54018061D01*
X50095226Y-53818102D01*
X50017205Y-53629744D01*
X49903937Y-53460226D01*
X49759774Y-53316063D01*
X49590256Y-53202795D01*
X49401898Y-53124774D01*
X49201939Y-53085000D01*
X48998061Y-53085000D01*
X48798102Y-53124774D01*
X48609744Y-53202795D01*
X48440226Y-53316063D01*
X48296063Y-53460226D01*
X48182795Y-53629744D01*
X48104774Y-53818102D01*
X48065000Y-54018061D01*
X20660000Y-54018061D01*
X20660000Y-51698061D01*
X65415000Y-51698061D01*
X65415000Y-51901939D01*
X65454774Y-52101898D01*
X65532795Y-52290256D01*
X65539306Y-52300000D01*
X65532795Y-52309744D01*
X65454774Y-52498102D01*
X65415000Y-52698061D01*
X65415000Y-52901939D01*
X65454774Y-53101898D01*
X65532795Y-53290256D01*
X65646063Y-53459774D01*
X65790226Y-53603937D01*
X65959744Y-53717205D01*
X66148102Y-53795226D01*
X66348061Y-53835000D01*
X66551939Y-53835000D01*
X66751898Y-53795226D01*
X66940256Y-53717205D01*
X67109774Y-53603937D01*
X67253937Y-53459774D01*
X67367205Y-53290256D01*
X67445226Y-53101898D01*
X67485000Y-52901939D01*
X67485000Y-52698061D01*
X67445226Y-52498102D01*
X67367205Y-52309744D01*
X67360694Y-52300000D01*
X67367205Y-52290256D01*
X67426104Y-52148061D01*
X69811685Y-52148061D01*
X69811685Y-52351939D01*
X69851459Y-52551898D01*
X69929480Y-52740256D01*
X70042748Y-52909774D01*
X70186911Y-53053937D01*
X70356429Y-53167205D01*
X70544787Y-53245226D01*
X70744746Y-53285000D01*
X70948624Y-53285000D01*
X71148583Y-53245226D01*
X71236276Y-53208902D01*
X71254774Y-53301898D01*
X71332795Y-53490256D01*
X71446063Y-53659774D01*
X71590226Y-53803937D01*
X71759744Y-53917205D01*
X71948102Y-53995226D01*
X72148061Y-54035000D01*
X72351939Y-54035000D01*
X72551898Y-53995226D01*
X72740256Y-53917205D01*
X72909774Y-53803937D01*
X73053937Y-53659774D01*
X73128581Y-53548061D01*
X80265000Y-53548061D01*
X80265000Y-53751939D01*
X80304774Y-53951898D01*
X80382795Y-54140256D01*
X80496063Y-54309774D01*
X80640226Y-54453937D01*
X80809744Y-54567205D01*
X80998102Y-54645226D01*
X81198061Y-54685000D01*
X81401939Y-54685000D01*
X81601898Y-54645226D01*
X81790256Y-54567205D01*
X81959774Y-54453937D01*
X82103937Y-54309774D01*
X82217205Y-54140256D01*
X82295226Y-53951898D01*
X82335000Y-53751939D01*
X82335000Y-53548061D01*
X82295226Y-53348102D01*
X82217205Y-53159744D01*
X82103937Y-52990226D01*
X81959774Y-52846063D01*
X81790256Y-52732795D01*
X81601898Y-52654774D01*
X81401939Y-52615000D01*
X81198061Y-52615000D01*
X80998102Y-52654774D01*
X80809744Y-52732795D01*
X80640226Y-52846063D01*
X80496063Y-52990226D01*
X80382795Y-53159744D01*
X80304774Y-53348102D01*
X80265000Y-53548061D01*
X73128581Y-53548061D01*
X73167205Y-53490256D01*
X73245226Y-53301898D01*
X73285000Y-53101939D01*
X73285000Y-52898061D01*
X73245226Y-52698102D01*
X73167205Y-52509744D01*
X73093877Y-52400000D01*
X73167205Y-52290256D01*
X73245226Y-52101898D01*
X73285000Y-51901939D01*
X73285000Y-51798061D01*
X81465000Y-51798061D01*
X81465000Y-52001939D01*
X81504774Y-52201898D01*
X81582795Y-52390256D01*
X81696063Y-52559774D01*
X81840226Y-52703937D01*
X82009744Y-52817205D01*
X82198102Y-52895226D01*
X82398061Y-52935000D01*
X82601939Y-52935000D01*
X82801898Y-52895226D01*
X82990256Y-52817205D01*
X83159774Y-52703937D01*
X83303937Y-52559774D01*
X83417205Y-52390256D01*
X83495226Y-52201898D01*
X83522456Y-52065000D01*
X83541939Y-52065000D01*
X83741898Y-52025226D01*
X83930256Y-51947205D01*
X84099774Y-51833937D01*
X84243937Y-51689774D01*
X84357205Y-51520256D01*
X84435226Y-51331898D01*
X84475000Y-51131939D01*
X84475000Y-50928061D01*
X84435226Y-50728102D01*
X84357205Y-50539744D01*
X84243937Y-50370226D01*
X84099774Y-50226063D01*
X83930256Y-50112795D01*
X83741898Y-50034774D01*
X83541939Y-49995000D01*
X83338061Y-49995000D01*
X83138102Y-50034774D01*
X82949744Y-50112795D01*
X82780226Y-50226063D01*
X82636063Y-50370226D01*
X82522795Y-50539744D01*
X82444774Y-50728102D01*
X82417544Y-50865000D01*
X82398061Y-50865000D01*
X82198102Y-50904774D01*
X82009744Y-50982795D01*
X81840226Y-51096063D01*
X81696063Y-51240226D01*
X81582795Y-51409744D01*
X81504774Y-51598102D01*
X81465000Y-51798061D01*
X73285000Y-51798061D01*
X73285000Y-51698061D01*
X73245226Y-51498102D01*
X73167205Y-51309744D01*
X73053937Y-51140226D01*
X72909774Y-50996063D01*
X72740256Y-50882795D01*
X72551898Y-50804774D01*
X72351939Y-50765000D01*
X72148061Y-50765000D01*
X71948102Y-50804774D01*
X71759744Y-50882795D01*
X71590226Y-50996063D01*
X71446063Y-51140226D01*
X71332795Y-51309744D01*
X71325252Y-51327953D01*
X71148583Y-51254774D01*
X70948624Y-51215000D01*
X70744746Y-51215000D01*
X70544787Y-51254774D01*
X70356429Y-51332795D01*
X70186911Y-51446063D01*
X70042748Y-51590226D01*
X69929480Y-51759744D01*
X69851459Y-51948102D01*
X69811685Y-52148061D01*
X67426104Y-52148061D01*
X67445226Y-52101898D01*
X67485000Y-51901939D01*
X67485000Y-51698061D01*
X67445226Y-51498102D01*
X67367205Y-51309744D01*
X67253937Y-51140226D01*
X67109774Y-50996063D01*
X66940256Y-50882795D01*
X66751898Y-50804774D01*
X66551939Y-50765000D01*
X66348061Y-50765000D01*
X66148102Y-50804774D01*
X65959744Y-50882795D01*
X65790226Y-50996063D01*
X65646063Y-51140226D01*
X65532795Y-51309744D01*
X65454774Y-51498102D01*
X65415000Y-51698061D01*
X20660000Y-51698061D01*
X20660000Y-50188212D01*
X29665000Y-50188212D01*
X29665000Y-50411788D01*
X29708617Y-50631067D01*
X29794176Y-50837624D01*
X29918388Y-51023520D01*
X30076480Y-51181612D01*
X30262376Y-51305824D01*
X30468933Y-51391383D01*
X30688212Y-51435000D01*
X30911788Y-51435000D01*
X31131067Y-51391383D01*
X31337624Y-51305824D01*
X31500000Y-51197328D01*
X31662376Y-51305824D01*
X31868933Y-51391383D01*
X32088212Y-51435000D01*
X32311788Y-51435000D01*
X32531067Y-51391383D01*
X32737624Y-51305824D01*
X32923520Y-51181612D01*
X33081612Y-51023520D01*
X33205824Y-50837624D01*
X33291383Y-50631067D01*
X33335000Y-50411788D01*
X33335000Y-50188212D01*
X33300995Y-50017256D01*
X33431067Y-49991383D01*
X33637624Y-49905824D01*
X33823520Y-49781612D01*
X33981612Y-49623520D01*
X34105824Y-49437624D01*
X34191383Y-49231067D01*
X34235000Y-49011788D01*
X34235000Y-48788212D01*
X34191383Y-48568933D01*
X34105824Y-48362376D01*
X33981612Y-48176480D01*
X33823520Y-48018388D01*
X33637624Y-47894176D01*
X33431067Y-47808617D01*
X33211788Y-47765000D01*
X32988212Y-47765000D01*
X32768933Y-47808617D01*
X32562376Y-47894176D01*
X32376480Y-48018388D01*
X32218388Y-48176480D01*
X32094176Y-48362376D01*
X32008617Y-48568933D01*
X31965000Y-48788212D01*
X31965000Y-49011788D01*
X31999005Y-49182744D01*
X31868933Y-49208617D01*
X31662376Y-49294176D01*
X31500000Y-49402672D01*
X31337624Y-49294176D01*
X31131067Y-49208617D01*
X30911788Y-49165000D01*
X30688212Y-49165000D01*
X30468933Y-49208617D01*
X30262376Y-49294176D01*
X30076480Y-49418388D01*
X29918388Y-49576480D01*
X29794176Y-49762376D01*
X29708617Y-49968933D01*
X29665000Y-50188212D01*
X20660000Y-50188212D01*
X20660000Y-48358212D01*
X21025000Y-48358212D01*
X21025000Y-48581788D01*
X21068617Y-48801067D01*
X21154176Y-49007624D01*
X21278388Y-49193520D01*
X21436480Y-49351612D01*
X21622376Y-49475824D01*
X21828933Y-49561383D01*
X22048212Y-49605000D01*
X22271788Y-49605000D01*
X22491067Y-49561383D01*
X22697624Y-49475824D01*
X22760000Y-49434146D01*
X22822376Y-49475824D01*
X23028933Y-49561383D01*
X23248212Y-49605000D01*
X23471788Y-49605000D01*
X23691067Y-49561383D01*
X23897624Y-49475824D01*
X23950000Y-49440827D01*
X24002376Y-49475824D01*
X24208933Y-49561383D01*
X24428212Y-49605000D01*
X24651788Y-49605000D01*
X24871067Y-49561383D01*
X25077624Y-49475824D01*
X25263520Y-49351612D01*
X25421612Y-49193520D01*
X25545824Y-49007624D01*
X25631383Y-48801067D01*
X25675000Y-48581788D01*
X25675000Y-48358212D01*
X25631383Y-48138933D01*
X25545824Y-47932376D01*
X25421612Y-47746480D01*
X25263520Y-47588388D01*
X25077624Y-47464176D01*
X24871067Y-47378617D01*
X24651788Y-47335000D01*
X24428212Y-47335000D01*
X24208933Y-47378617D01*
X24002376Y-47464176D01*
X23950000Y-47499173D01*
X23897624Y-47464176D01*
X23691067Y-47378617D01*
X23471788Y-47335000D01*
X23248212Y-47335000D01*
X23028933Y-47378617D01*
X22822376Y-47464176D01*
X22760000Y-47505854D01*
X22697624Y-47464176D01*
X22491067Y-47378617D01*
X22271788Y-47335000D01*
X22048212Y-47335000D01*
X21828933Y-47378617D01*
X21622376Y-47464176D01*
X21436480Y-47588388D01*
X21278388Y-47746480D01*
X21154176Y-47932376D01*
X21068617Y-48138933D01*
X21025000Y-48358212D01*
X20660000Y-48358212D01*
X20660000Y-45528212D01*
X37445000Y-45528212D01*
X37445000Y-45751788D01*
X37488617Y-45971067D01*
X37574176Y-46177624D01*
X37619195Y-46245000D01*
X37574176Y-46312376D01*
X37488617Y-46518933D01*
X37445000Y-46738212D01*
X37445000Y-46961788D01*
X37488617Y-47181067D01*
X37574176Y-47387624D01*
X37698388Y-47573520D01*
X37856480Y-47731612D01*
X38042376Y-47855824D01*
X38248933Y-47941383D01*
X38468212Y-47985000D01*
X38691788Y-47985000D01*
X38911067Y-47941383D01*
X38992624Y-47907601D01*
X38976480Y-47918388D01*
X38818388Y-48076480D01*
X38694176Y-48262376D01*
X38608617Y-48468933D01*
X38565000Y-48688212D01*
X38565000Y-48911788D01*
X38608617Y-49131067D01*
X38694176Y-49337624D01*
X38818388Y-49523520D01*
X38976480Y-49681612D01*
X39162376Y-49805824D01*
X39368933Y-49891383D01*
X39588212Y-49935000D01*
X39811788Y-49935000D01*
X40031067Y-49891383D01*
X40237624Y-49805824D01*
X40250000Y-49797555D01*
X40262376Y-49805824D01*
X40468933Y-49891383D01*
X40688212Y-49935000D01*
X40911788Y-49935000D01*
X41131067Y-49891383D01*
X41337624Y-49805824D01*
X41400000Y-49764146D01*
X41462376Y-49805824D01*
X41668933Y-49891383D01*
X41888212Y-49935000D01*
X42065000Y-49935000D01*
X42065000Y-50111788D01*
X42108617Y-50331067D01*
X42194176Y-50537624D01*
X42318388Y-50723520D01*
X42476480Y-50881612D01*
X42662376Y-51005824D01*
X42868933Y-51091383D01*
X43088212Y-51135000D01*
X43311788Y-51135000D01*
X43531067Y-51091383D01*
X43737624Y-51005824D01*
X43923520Y-50881612D01*
X44081612Y-50723520D01*
X44205824Y-50537624D01*
X44291383Y-50331067D01*
X44335000Y-50111788D01*
X44335000Y-49888212D01*
X44291383Y-49668933D01*
X44205824Y-49462376D01*
X44164146Y-49400000D01*
X44205824Y-49337624D01*
X44291383Y-49131067D01*
X44335000Y-48911788D01*
X44335000Y-48688212D01*
X44291383Y-48468933D01*
X44205824Y-48262376D01*
X44081612Y-48076480D01*
X43923520Y-47918388D01*
X43737624Y-47794176D01*
X43531067Y-47708617D01*
X43311788Y-47665000D01*
X43088212Y-47665000D01*
X42868933Y-47708617D01*
X42662376Y-47794176D01*
X42600000Y-47835854D01*
X42537624Y-47794176D01*
X42331067Y-47708617D01*
X42111788Y-47665000D01*
X41888212Y-47665000D01*
X41668933Y-47708617D01*
X41462376Y-47794176D01*
X41400000Y-47835854D01*
X41337624Y-47794176D01*
X41131067Y-47708617D01*
X40911788Y-47665000D01*
X40688212Y-47665000D01*
X40468933Y-47708617D01*
X40262376Y-47794176D01*
X40250000Y-47802445D01*
X40237624Y-47794176D01*
X40031067Y-47708617D01*
X39811788Y-47665000D01*
X39588212Y-47665000D01*
X39368933Y-47708617D01*
X39287376Y-47742399D01*
X39303520Y-47731612D01*
X39461612Y-47573520D01*
X39512032Y-47498061D01*
X50265000Y-47498061D01*
X50265000Y-47701939D01*
X50304774Y-47901898D01*
X50382795Y-48090256D01*
X50496063Y-48259774D01*
X50640226Y-48403937D01*
X50809744Y-48517205D01*
X50998102Y-48595226D01*
X51198061Y-48635000D01*
X51401939Y-48635000D01*
X51601898Y-48595226D01*
X51790256Y-48517205D01*
X51959774Y-48403937D01*
X52103937Y-48259774D01*
X52217205Y-48090256D01*
X52295226Y-47901898D01*
X52295989Y-47898061D01*
X74215000Y-47898061D01*
X74215000Y-48101939D01*
X74254774Y-48301898D01*
X74332795Y-48490256D01*
X74446063Y-48659774D01*
X74590226Y-48803937D01*
X74759744Y-48917205D01*
X74948102Y-48995226D01*
X75148061Y-49035000D01*
X75351939Y-49035000D01*
X75551898Y-48995226D01*
X75740256Y-48917205D01*
X75909774Y-48803937D01*
X76053937Y-48659774D01*
X76167205Y-48490256D01*
X76245226Y-48301898D01*
X76285000Y-48101939D01*
X76285000Y-47898061D01*
X76245226Y-47698102D01*
X76167205Y-47509744D01*
X76053937Y-47340226D01*
X75909774Y-47196063D01*
X75740256Y-47082795D01*
X75551898Y-47004774D01*
X75351939Y-46965000D01*
X75148061Y-46965000D01*
X74948102Y-47004774D01*
X74759744Y-47082795D01*
X74590226Y-47196063D01*
X74446063Y-47340226D01*
X74332795Y-47509744D01*
X74254774Y-47698102D01*
X74215000Y-47898061D01*
X52295989Y-47898061D01*
X52335000Y-47701939D01*
X52335000Y-47498061D01*
X52295226Y-47298102D01*
X52217205Y-47109744D01*
X52103937Y-46940226D01*
X51959774Y-46796063D01*
X51790256Y-46682795D01*
X51601898Y-46604774D01*
X51401939Y-46565000D01*
X51198061Y-46565000D01*
X50998102Y-46604774D01*
X50809744Y-46682795D01*
X50640226Y-46796063D01*
X50496063Y-46940226D01*
X50382795Y-47109744D01*
X50304774Y-47298102D01*
X50265000Y-47498061D01*
X39512032Y-47498061D01*
X39585824Y-47387624D01*
X39671383Y-47181067D01*
X39715000Y-46961788D01*
X39715000Y-46738212D01*
X39671383Y-46518933D01*
X39585824Y-46312376D01*
X39540805Y-46245000D01*
X39585824Y-46177624D01*
X39639490Y-46048061D01*
X48625000Y-46048061D01*
X48625000Y-46251939D01*
X48664774Y-46451898D01*
X48742795Y-46640256D01*
X48856063Y-46809774D01*
X49000226Y-46953937D01*
X49169744Y-47067205D01*
X49358102Y-47145226D01*
X49558061Y-47185000D01*
X49761939Y-47185000D01*
X49961898Y-47145226D01*
X50150256Y-47067205D01*
X50319774Y-46953937D01*
X50463937Y-46809774D01*
X50577205Y-46640256D01*
X50655226Y-46451898D01*
X50695000Y-46251939D01*
X50695000Y-46048061D01*
X50655226Y-45848102D01*
X50577205Y-45659744D01*
X50463937Y-45490226D01*
X50319774Y-45346063D01*
X50150256Y-45232795D01*
X49961898Y-45154774D01*
X49761939Y-45115000D01*
X49558061Y-45115000D01*
X49358102Y-45154774D01*
X49169744Y-45232795D01*
X49000226Y-45346063D01*
X48856063Y-45490226D01*
X48742795Y-45659744D01*
X48664774Y-45848102D01*
X48625000Y-46048061D01*
X39639490Y-46048061D01*
X39671383Y-45971067D01*
X39715000Y-45751788D01*
X39715000Y-45528212D01*
X39671383Y-45308933D01*
X39585824Y-45102376D01*
X39461612Y-44916480D01*
X39303520Y-44758388D01*
X39117624Y-44634176D01*
X38911067Y-44548617D01*
X38691788Y-44505000D01*
X38468212Y-44505000D01*
X38248933Y-44548617D01*
X38042376Y-44634176D01*
X37856480Y-44758388D01*
X37698388Y-44916480D01*
X37574176Y-45102376D01*
X37488617Y-45308933D01*
X37445000Y-45528212D01*
X20660000Y-45528212D01*
X20660000Y-42598061D01*
X31415000Y-42598061D01*
X31415000Y-42801939D01*
X31454774Y-43001898D01*
X31532795Y-43190256D01*
X31646063Y-43359774D01*
X31790226Y-43503937D01*
X31959744Y-43617205D01*
X32148102Y-43695226D01*
X32348061Y-43735000D01*
X32551939Y-43735000D01*
X32751898Y-43695226D01*
X32940256Y-43617205D01*
X33109774Y-43503937D01*
X33253937Y-43359774D01*
X33367205Y-43190256D01*
X33445226Y-43001898D01*
X33485000Y-42801939D01*
X33485000Y-42598061D01*
X33445226Y-42398102D01*
X33367205Y-42209744D01*
X33253937Y-42040226D01*
X33109774Y-41896063D01*
X32940256Y-41782795D01*
X32751898Y-41704774D01*
X32551939Y-41665000D01*
X32348061Y-41665000D01*
X32148102Y-41704774D01*
X31959744Y-41782795D01*
X31790226Y-41896063D01*
X31646063Y-42040226D01*
X31532795Y-42209744D01*
X31454774Y-42398102D01*
X31415000Y-42598061D01*
X20660000Y-42598061D01*
X20660000Y-40613212D01*
X37115000Y-40613212D01*
X37115000Y-40836788D01*
X37158617Y-41056067D01*
X37244176Y-41262624D01*
X37368388Y-41448520D01*
X37526480Y-41606612D01*
X37712376Y-41730824D01*
X37918933Y-41816383D01*
X38138212Y-41860000D01*
X38361788Y-41860000D01*
X38581067Y-41816383D01*
X38787624Y-41730824D01*
X38973520Y-41606612D01*
X39131612Y-41448520D01*
X39255824Y-41262624D01*
X39341383Y-41056067D01*
X39385000Y-40836788D01*
X39385000Y-40613212D01*
X39362096Y-40498061D01*
X51265000Y-40498061D01*
X51265000Y-40701939D01*
X51304774Y-40901898D01*
X51382795Y-41090256D01*
X51496063Y-41259774D01*
X51640226Y-41403937D01*
X51809744Y-41517205D01*
X51998102Y-41595226D01*
X52198061Y-41635000D01*
X52401939Y-41635000D01*
X52601898Y-41595226D01*
X52790256Y-41517205D01*
X52959774Y-41403937D01*
X53103937Y-41259774D01*
X53217205Y-41090256D01*
X53295226Y-40901898D01*
X53335000Y-40701939D01*
X53335000Y-40498061D01*
X53295226Y-40298102D01*
X53217205Y-40109744D01*
X53103937Y-39940226D01*
X52959774Y-39796063D01*
X52790256Y-39682795D01*
X52601898Y-39604774D01*
X52401939Y-39565000D01*
X52198061Y-39565000D01*
X51998102Y-39604774D01*
X51809744Y-39682795D01*
X51640226Y-39796063D01*
X51496063Y-39940226D01*
X51382795Y-40109744D01*
X51304774Y-40298102D01*
X51265000Y-40498061D01*
X39362096Y-40498061D01*
X39341383Y-40393933D01*
X39255824Y-40187376D01*
X39131612Y-40001480D01*
X38973520Y-39843388D01*
X38787624Y-39719176D01*
X38581067Y-39633617D01*
X38361788Y-39590000D01*
X38138212Y-39590000D01*
X37918933Y-39633617D01*
X37712376Y-39719176D01*
X37526480Y-39843388D01*
X37368388Y-40001480D01*
X37244176Y-40187376D01*
X37158617Y-40393933D01*
X37115000Y-40613212D01*
X20660000Y-40613212D01*
X20660000Y-39298061D01*
X26665000Y-39298061D01*
X26665000Y-39501939D01*
X26704774Y-39701898D01*
X26782795Y-39890256D01*
X26896063Y-40059774D01*
X27040226Y-40203937D01*
X27209744Y-40317205D01*
X27398102Y-40395226D01*
X27598061Y-40435000D01*
X27801939Y-40435000D01*
X28001898Y-40395226D01*
X28190256Y-40317205D01*
X28200000Y-40310694D01*
X28209744Y-40317205D01*
X28398102Y-40395226D01*
X28598061Y-40435000D01*
X28801939Y-40435000D01*
X29001898Y-40395226D01*
X29190256Y-40317205D01*
X29359774Y-40203937D01*
X29503937Y-40059774D01*
X29617205Y-39890256D01*
X29695226Y-39701898D01*
X29735000Y-39501939D01*
X29735000Y-39298061D01*
X29695226Y-39098102D01*
X29617205Y-38909744D01*
X29503937Y-38740226D01*
X29359774Y-38596063D01*
X29190256Y-38482795D01*
X29001898Y-38404774D01*
X28801939Y-38365000D01*
X28598061Y-38365000D01*
X28398102Y-38404774D01*
X28209744Y-38482795D01*
X28200000Y-38489306D01*
X28190256Y-38482795D01*
X28001898Y-38404774D01*
X27801939Y-38365000D01*
X27598061Y-38365000D01*
X27398102Y-38404774D01*
X27209744Y-38482795D01*
X27040226Y-38596063D01*
X26896063Y-38740226D01*
X26782795Y-38909744D01*
X26704774Y-39098102D01*
X26665000Y-39298061D01*
X20660000Y-39298061D01*
X20660000Y-38044746D01*
X56465000Y-38044746D01*
X56465000Y-38248624D01*
X56504774Y-38448583D01*
X56582795Y-38636941D01*
X56696063Y-38806459D01*
X56840226Y-38950622D01*
X56987357Y-39048932D01*
X56946063Y-39090226D01*
X56832795Y-39259744D01*
X56754774Y-39448102D01*
X56715000Y-39648061D01*
X56715000Y-39851939D01*
X56754774Y-40051898D01*
X56832795Y-40240256D01*
X56839306Y-40250000D01*
X56832795Y-40259744D01*
X56754774Y-40448102D01*
X56715000Y-40648061D01*
X56715000Y-40851939D01*
X56754774Y-41051898D01*
X56832795Y-41240256D01*
X56839306Y-41250000D01*
X56832795Y-41259744D01*
X56754774Y-41448102D01*
X56715000Y-41648061D01*
X56715000Y-41851939D01*
X56754774Y-42051898D01*
X56832795Y-42240256D01*
X56839306Y-42250000D01*
X56832795Y-42259744D01*
X56754774Y-42448102D01*
X56715000Y-42648061D01*
X56715000Y-42851939D01*
X56754774Y-43051898D01*
X56832795Y-43240256D01*
X56839306Y-43250000D01*
X56832795Y-43259744D01*
X56754774Y-43448102D01*
X56715000Y-43648061D01*
X56715000Y-43851939D01*
X56754774Y-44051898D01*
X56832795Y-44240256D01*
X56839306Y-44250000D01*
X56832795Y-44259744D01*
X56754774Y-44448102D01*
X56715000Y-44648061D01*
X56715000Y-44851939D01*
X56754774Y-45051898D01*
X56832795Y-45240256D01*
X56839306Y-45250000D01*
X56832795Y-45259744D01*
X56754774Y-45448102D01*
X56715000Y-45648061D01*
X56715000Y-45851939D01*
X56754774Y-46051898D01*
X56832795Y-46240256D01*
X56839306Y-46250000D01*
X56832795Y-46259744D01*
X56754774Y-46448102D01*
X56715000Y-46648061D01*
X56715000Y-46851939D01*
X56754774Y-47051898D01*
X56832795Y-47240256D01*
X56946063Y-47409774D01*
X57090226Y-47553937D01*
X57259744Y-47667205D01*
X57448102Y-47745226D01*
X57648061Y-47785000D01*
X57851939Y-47785000D01*
X58051898Y-47745226D01*
X58240256Y-47667205D01*
X58250000Y-47660694D01*
X58259744Y-47667205D01*
X58448102Y-47745226D01*
X58648061Y-47785000D01*
X58851939Y-47785000D01*
X59051898Y-47745226D01*
X59240256Y-47667205D01*
X59250000Y-47660694D01*
X59259744Y-47667205D01*
X59448102Y-47745226D01*
X59648061Y-47785000D01*
X59851939Y-47785000D01*
X60051898Y-47745226D01*
X60240256Y-47667205D01*
X60250000Y-47660694D01*
X60259744Y-47667205D01*
X60448102Y-47745226D01*
X60648061Y-47785000D01*
X60851939Y-47785000D01*
X61051898Y-47745226D01*
X61240256Y-47667205D01*
X61409774Y-47553937D01*
X61553937Y-47409774D01*
X61667205Y-47240256D01*
X61745226Y-47051898D01*
X61785000Y-46851939D01*
X61785000Y-46648061D01*
X61745226Y-46448102D01*
X61667205Y-46259744D01*
X61578509Y-46127000D01*
X63250000Y-46127000D01*
X63274776Y-46124560D01*
X63298601Y-46117333D01*
X63320557Y-46105597D01*
X63339803Y-46089803D01*
X63355597Y-46070557D01*
X63367333Y-46048601D01*
X63374560Y-46024776D01*
X63377000Y-46000000D01*
X63377000Y-44627000D01*
X65750000Y-44627000D01*
X65774776Y-44624560D01*
X65798601Y-44617333D01*
X65820557Y-44605597D01*
X65839803Y-44589803D01*
X65855597Y-44570557D01*
X65867333Y-44548601D01*
X65874560Y-44524776D01*
X65877000Y-44500000D01*
X65877000Y-43027000D01*
X67600000Y-43027000D01*
X67624776Y-43024560D01*
X67648601Y-43017333D01*
X67670557Y-43005597D01*
X67674010Y-43002763D01*
X67665000Y-43048061D01*
X67665000Y-43134343D01*
X67499744Y-43202795D01*
X67330226Y-43316063D01*
X67186063Y-43460226D01*
X67072795Y-43629744D01*
X66994774Y-43818102D01*
X66955000Y-44018061D01*
X66955000Y-44221939D01*
X66994774Y-44421898D01*
X67060262Y-44580000D01*
X66994774Y-44738102D01*
X66955000Y-44938061D01*
X66955000Y-45141939D01*
X66994774Y-45341898D01*
X67072795Y-45530256D01*
X67186063Y-45699774D01*
X67330226Y-45843937D01*
X67499744Y-45957205D01*
X67688102Y-46035226D01*
X67888061Y-46075000D01*
X68091939Y-46075000D01*
X68291898Y-46035226D01*
X68480256Y-45957205D01*
X68649774Y-45843937D01*
X68793937Y-45699774D01*
X68907205Y-45530256D01*
X68985226Y-45341898D01*
X69018809Y-45173061D01*
X84065000Y-45173061D01*
X84065000Y-45376939D01*
X84104774Y-45576898D01*
X84182795Y-45765256D01*
X84296063Y-45934774D01*
X84440226Y-46078937D01*
X84609744Y-46192205D01*
X84798102Y-46270226D01*
X84998061Y-46310000D01*
X85115000Y-46310000D01*
X85115000Y-46401939D01*
X85154774Y-46601898D01*
X85232795Y-46790256D01*
X85346063Y-46959774D01*
X85490226Y-47103937D01*
X85659744Y-47217205D01*
X85848102Y-47295226D01*
X86048061Y-47335000D01*
X86251939Y-47335000D01*
X86451898Y-47295226D01*
X86640256Y-47217205D01*
X86809774Y-47103937D01*
X86953937Y-46959774D01*
X87067205Y-46790256D01*
X87145226Y-46601898D01*
X87185000Y-46401939D01*
X87185000Y-46198061D01*
X87145226Y-45998102D01*
X87067205Y-45809744D01*
X86953937Y-45640226D01*
X86809774Y-45496063D01*
X86640256Y-45382795D01*
X86451898Y-45304774D01*
X86251939Y-45265000D01*
X86135000Y-45265000D01*
X86135000Y-45173061D01*
X86095226Y-44973102D01*
X86017205Y-44784744D01*
X85903937Y-44615226D01*
X85759774Y-44471063D01*
X85590256Y-44357795D01*
X85401898Y-44279774D01*
X85201939Y-44240000D01*
X84998061Y-44240000D01*
X84798102Y-44279774D01*
X84609744Y-44357795D01*
X84440226Y-44471063D01*
X84296063Y-44615226D01*
X84182795Y-44784744D01*
X84104774Y-44973102D01*
X84065000Y-45173061D01*
X69018809Y-45173061D01*
X69025000Y-45141939D01*
X69025000Y-44938061D01*
X68985226Y-44738102D01*
X68919738Y-44580000D01*
X68985226Y-44421898D01*
X69025000Y-44221939D01*
X69025000Y-44135657D01*
X69190256Y-44067205D01*
X69359774Y-43953937D01*
X69503937Y-43809774D01*
X69617205Y-43640256D01*
X69695226Y-43451898D01*
X69735000Y-43251939D01*
X69735000Y-43048061D01*
X69695226Y-42848102D01*
X69617205Y-42659744D01*
X69503937Y-42490226D01*
X69359774Y-42346063D01*
X69190256Y-42232795D01*
X69001898Y-42154774D01*
X68801939Y-42115000D01*
X68796382Y-42115000D01*
X68860089Y-42102328D01*
X69029096Y-42032323D01*
X69198102Y-42102328D01*
X69398061Y-42142102D01*
X69601939Y-42142102D01*
X69801898Y-42102328D01*
X69990256Y-42024307D01*
X70159774Y-41911039D01*
X70303937Y-41766876D01*
X70417205Y-41597358D01*
X70495226Y-41409000D01*
X70535000Y-41209041D01*
X70535000Y-41005163D01*
X70495226Y-40805204D01*
X70417205Y-40616846D01*
X70303937Y-40447328D01*
X70159774Y-40303165D01*
X69990256Y-40189897D01*
X69801898Y-40111876D01*
X69601939Y-40072102D01*
X69398061Y-40072102D01*
X69198102Y-40111876D01*
X69029096Y-40181881D01*
X68860089Y-40111876D01*
X68660130Y-40072102D01*
X68456252Y-40072102D01*
X68256293Y-40111876D01*
X68067935Y-40189897D01*
X67898417Y-40303165D01*
X67754254Y-40447328D01*
X67640986Y-40616846D01*
X67562965Y-40805204D01*
X67523191Y-41005163D01*
X67523191Y-41073000D01*
X63427000Y-41073000D01*
X63427000Y-38200000D01*
X63424560Y-38175224D01*
X63417333Y-38151399D01*
X63405597Y-38129443D01*
X63389803Y-38110197D01*
X63370557Y-38094403D01*
X63348601Y-38082667D01*
X63324776Y-38075440D01*
X63300000Y-38073000D01*
X58535000Y-38073000D01*
X58535000Y-38044746D01*
X58495226Y-37844787D01*
X58417205Y-37656429D01*
X58303937Y-37486911D01*
X58159774Y-37342748D01*
X57990256Y-37229480D01*
X57801898Y-37151459D01*
X57601939Y-37111685D01*
X57398061Y-37111685D01*
X57198102Y-37151459D01*
X57009744Y-37229480D01*
X56840226Y-37342748D01*
X56696063Y-37486911D01*
X56582795Y-37656429D01*
X56504774Y-37844787D01*
X56465000Y-38044746D01*
X20660000Y-38044746D01*
X20660000Y-36498061D01*
X63165000Y-36498061D01*
X63165000Y-36701939D01*
X63204774Y-36901898D01*
X63282795Y-37090256D01*
X63396063Y-37259774D01*
X63540226Y-37403937D01*
X63709744Y-37517205D01*
X63853488Y-37576746D01*
X63882761Y-37723911D01*
X63960782Y-37912269D01*
X64074050Y-38081787D01*
X64218213Y-38225950D01*
X64387731Y-38339218D01*
X64576089Y-38417239D01*
X64776048Y-38457013D01*
X64979926Y-38457013D01*
X65179885Y-38417239D01*
X65368243Y-38339218D01*
X65537761Y-38225950D01*
X65681924Y-38081787D01*
X65795192Y-37912269D01*
X65873213Y-37723911D01*
X65912987Y-37523952D01*
X65912987Y-37398061D01*
X66765000Y-37398061D01*
X66765000Y-37601939D01*
X66804774Y-37801898D01*
X66882795Y-37990256D01*
X66996063Y-38159774D01*
X67140226Y-38303937D01*
X67309744Y-38417205D01*
X67498102Y-38495226D01*
X67698061Y-38535000D01*
X67901939Y-38535000D01*
X68101898Y-38495226D01*
X68290256Y-38417205D01*
X68459774Y-38303937D01*
X68603937Y-38159774D01*
X68717205Y-37990256D01*
X68795226Y-37801898D01*
X68835000Y-37601939D01*
X68835000Y-37398061D01*
X68795226Y-37198102D01*
X68717205Y-37009744D01*
X68603937Y-36840226D01*
X68521366Y-36757655D01*
X68609744Y-36816707D01*
X68798102Y-36894728D01*
X68998061Y-36934502D01*
X69201939Y-36934502D01*
X69401898Y-36894728D01*
X69590256Y-36816707D01*
X69759774Y-36703439D01*
X69903937Y-36559276D01*
X70017205Y-36389758D01*
X70095226Y-36201400D01*
X70120754Y-36073061D01*
X70565000Y-36073061D01*
X70565000Y-36276939D01*
X70604774Y-36476898D01*
X70682795Y-36665256D01*
X70796063Y-36834774D01*
X70940226Y-36978937D01*
X71109744Y-37092205D01*
X71298102Y-37170226D01*
X71498061Y-37210000D01*
X71701939Y-37210000D01*
X71901898Y-37170226D01*
X72090256Y-37092205D01*
X72259774Y-36978937D01*
X72403937Y-36834774D01*
X72517205Y-36665256D01*
X72595226Y-36476898D01*
X72635000Y-36276939D01*
X72635000Y-36073061D01*
X72595226Y-35873102D01*
X72517205Y-35684744D01*
X72403937Y-35515226D01*
X72259774Y-35371063D01*
X72090256Y-35257795D01*
X71901898Y-35179774D01*
X71701939Y-35140000D01*
X71498061Y-35140000D01*
X71298102Y-35179774D01*
X71109744Y-35257795D01*
X70940226Y-35371063D01*
X70796063Y-35515226D01*
X70682795Y-35684744D01*
X70604774Y-35873102D01*
X70565000Y-36073061D01*
X70120754Y-36073061D01*
X70135000Y-36001441D01*
X70135000Y-35797563D01*
X70095226Y-35597604D01*
X70017205Y-35409246D01*
X69903937Y-35239728D01*
X69772270Y-35108061D01*
X84355000Y-35108061D01*
X84355000Y-35311939D01*
X84394774Y-35511898D01*
X84472795Y-35700256D01*
X84586063Y-35869774D01*
X84730226Y-36013937D01*
X84899744Y-36127205D01*
X85088102Y-36205226D01*
X85288061Y-36245000D01*
X85491939Y-36245000D01*
X85691898Y-36205226D01*
X85880256Y-36127205D01*
X86049774Y-36013937D01*
X86193937Y-35869774D01*
X86307205Y-35700256D01*
X86385226Y-35511898D01*
X86425000Y-35311939D01*
X86425000Y-35108061D01*
X86385226Y-34908102D01*
X86307205Y-34719744D01*
X86210491Y-34575000D01*
X92886928Y-34575000D01*
X92886928Y-36975000D01*
X92899188Y-37099482D01*
X92935498Y-37219180D01*
X92994463Y-37329494D01*
X93073815Y-37426185D01*
X93170506Y-37505537D01*
X93280820Y-37564502D01*
X93400518Y-37600812D01*
X93525000Y-37613072D01*
X95925000Y-37613072D01*
X96049482Y-37600812D01*
X96169180Y-37564502D01*
X96279494Y-37505537D01*
X96376185Y-37426185D01*
X96455537Y-37329494D01*
X96514502Y-37219180D01*
X96550812Y-37099482D01*
X96563072Y-36975000D01*
X96563072Y-34575000D01*
X96550812Y-34450518D01*
X96514502Y-34330820D01*
X96455537Y-34220506D01*
X96376185Y-34123815D01*
X96279494Y-34044463D01*
X96169180Y-33985498D01*
X96049482Y-33949188D01*
X95925000Y-33936928D01*
X95507838Y-33936928D01*
X95594199Y-33901156D01*
X95894744Y-33700338D01*
X96150338Y-33444744D01*
X96351156Y-33144199D01*
X96489482Y-32810250D01*
X96560000Y-32455732D01*
X96560000Y-32094268D01*
X96489482Y-31739750D01*
X96351156Y-31405801D01*
X96150338Y-31105256D01*
X95894744Y-30849662D01*
X95594199Y-30648844D01*
X95260250Y-30510518D01*
X94905732Y-30440000D01*
X94544268Y-30440000D01*
X94189750Y-30510518D01*
X93855801Y-30648844D01*
X93555256Y-30849662D01*
X93299662Y-31105256D01*
X93098844Y-31405801D01*
X92960518Y-31739750D01*
X92890000Y-32094268D01*
X92890000Y-32455732D01*
X92960518Y-32810250D01*
X93098844Y-33144199D01*
X93299662Y-33444744D01*
X93555256Y-33700338D01*
X93855801Y-33901156D01*
X93942162Y-33936928D01*
X93525000Y-33936928D01*
X93400518Y-33949188D01*
X93280820Y-33985498D01*
X93170506Y-34044463D01*
X93073815Y-34123815D01*
X92994463Y-34220506D01*
X92935498Y-34330820D01*
X92899188Y-34450518D01*
X92886928Y-34575000D01*
X86210491Y-34575000D01*
X86193937Y-34550226D01*
X86049774Y-34406063D01*
X85880256Y-34292795D01*
X85691898Y-34214774D01*
X85491939Y-34175000D01*
X85288061Y-34175000D01*
X85088102Y-34214774D01*
X84899744Y-34292795D01*
X84730226Y-34406063D01*
X84586063Y-34550226D01*
X84472795Y-34719744D01*
X84394774Y-34908102D01*
X84355000Y-35108061D01*
X69772270Y-35108061D01*
X69759774Y-35095565D01*
X69590256Y-34982297D01*
X69401898Y-34904276D01*
X69201939Y-34864502D01*
X68998061Y-34864502D01*
X68798102Y-34904276D01*
X68609744Y-34982297D01*
X68440226Y-35095565D01*
X68296063Y-35239728D01*
X68182795Y-35409246D01*
X68104774Y-35597604D01*
X68065000Y-35797563D01*
X68065000Y-36001441D01*
X68104774Y-36201400D01*
X68182795Y-36389758D01*
X68296063Y-36559276D01*
X68378634Y-36641847D01*
X68290256Y-36582795D01*
X68101898Y-36504774D01*
X67901939Y-36465000D01*
X67698061Y-36465000D01*
X67498102Y-36504774D01*
X67309744Y-36582795D01*
X67140226Y-36696063D01*
X66996063Y-36840226D01*
X66882795Y-37009744D01*
X66804774Y-37198102D01*
X66765000Y-37398061D01*
X65912987Y-37398061D01*
X65912987Y-37320074D01*
X65873213Y-37120115D01*
X65795192Y-36931757D01*
X65681924Y-36762239D01*
X65537761Y-36618076D01*
X65368243Y-36504808D01*
X65224499Y-36445267D01*
X65195226Y-36298102D01*
X65117205Y-36109744D01*
X65003937Y-35940226D01*
X64859774Y-35796063D01*
X64690256Y-35682795D01*
X64501898Y-35604774D01*
X64301939Y-35565000D01*
X64098061Y-35565000D01*
X63898102Y-35604774D01*
X63709744Y-35682795D01*
X63540226Y-35796063D01*
X63396063Y-35940226D01*
X63282795Y-36109744D01*
X63204774Y-36298102D01*
X63165000Y-36498061D01*
X20660000Y-36498061D01*
X20660000Y-31398061D01*
X24965000Y-31398061D01*
X24965000Y-31601939D01*
X25004774Y-31801898D01*
X25082795Y-31990256D01*
X25089306Y-32000000D01*
X25082795Y-32009744D01*
X25004774Y-32198102D01*
X24965000Y-32398061D01*
X24965000Y-32601939D01*
X25004774Y-32801898D01*
X25082795Y-32990256D01*
X25089306Y-33000000D01*
X25082795Y-33009744D01*
X25004774Y-33198102D01*
X24965000Y-33398061D01*
X24965000Y-33601939D01*
X25004774Y-33801898D01*
X25082795Y-33990256D01*
X25196063Y-34159774D01*
X25340226Y-34303937D01*
X25509744Y-34417205D01*
X25698102Y-34495226D01*
X25898061Y-34535000D01*
X26101939Y-34535000D01*
X26301898Y-34495226D01*
X26490256Y-34417205D01*
X26500000Y-34410694D01*
X26509744Y-34417205D01*
X26698102Y-34495226D01*
X26898061Y-34535000D01*
X27101939Y-34535000D01*
X27301898Y-34495226D01*
X27490256Y-34417205D01*
X27500000Y-34410694D01*
X27509744Y-34417205D01*
X27698102Y-34495226D01*
X27898061Y-34535000D01*
X28101939Y-34535000D01*
X28301898Y-34495226D01*
X28490256Y-34417205D01*
X28659774Y-34303937D01*
X28803937Y-34159774D01*
X28917205Y-33990256D01*
X28995226Y-33801898D01*
X29035000Y-33601939D01*
X29035000Y-33398061D01*
X28995226Y-33198102D01*
X28917205Y-33009744D01*
X28910694Y-33000000D01*
X28917205Y-32990256D01*
X28995226Y-32801898D01*
X29035000Y-32601939D01*
X29035000Y-32398061D01*
X28995226Y-32198102D01*
X28917205Y-32009744D01*
X28910694Y-32000000D01*
X28917205Y-31990256D01*
X28926398Y-31968061D01*
X63415000Y-31968061D01*
X63415000Y-32171939D01*
X63454774Y-32371898D01*
X63532795Y-32560256D01*
X63646063Y-32729774D01*
X63790226Y-32873937D01*
X63959744Y-32987205D01*
X64148102Y-33065226D01*
X64348061Y-33105000D01*
X64551939Y-33105000D01*
X64751898Y-33065226D01*
X64940256Y-32987205D01*
X65109774Y-32873937D01*
X65253937Y-32729774D01*
X65367205Y-32560256D01*
X65445226Y-32371898D01*
X65485000Y-32171939D01*
X65485000Y-31968061D01*
X65465185Y-31868442D01*
X65581898Y-31845226D01*
X65770256Y-31767205D01*
X65842517Y-31718922D01*
X65929744Y-31777205D01*
X66118102Y-31855226D01*
X66318061Y-31895000D01*
X66521939Y-31895000D01*
X66721898Y-31855226D01*
X66910256Y-31777205D01*
X67028703Y-31698061D01*
X68435000Y-31698061D01*
X68435000Y-31901939D01*
X68474774Y-32101898D01*
X68552795Y-32290256D01*
X68572681Y-32320018D01*
X68494774Y-32508102D01*
X68455000Y-32708061D01*
X68455000Y-32911939D01*
X68494774Y-33111898D01*
X68572795Y-33300256D01*
X68686063Y-33469774D01*
X68830226Y-33613937D01*
X68999744Y-33727205D01*
X69188102Y-33805226D01*
X69388061Y-33845000D01*
X69591939Y-33845000D01*
X69791898Y-33805226D01*
X69980256Y-33727205D01*
X70149774Y-33613937D01*
X70293937Y-33469774D01*
X70407205Y-33300256D01*
X70485226Y-33111898D01*
X70513836Y-32968061D01*
X81735000Y-32968061D01*
X81735000Y-33171939D01*
X81774774Y-33371898D01*
X81852795Y-33560256D01*
X81966063Y-33729774D01*
X82110226Y-33873937D01*
X82279744Y-33987205D01*
X82468102Y-34065226D01*
X82635000Y-34098424D01*
X82635000Y-34101939D01*
X82674774Y-34301898D01*
X82752795Y-34490256D01*
X82866063Y-34659774D01*
X83010226Y-34803937D01*
X83179744Y-34917205D01*
X83368102Y-34995226D01*
X83568061Y-35035000D01*
X83771939Y-35035000D01*
X83971898Y-34995226D01*
X84160256Y-34917205D01*
X84329774Y-34803937D01*
X84473937Y-34659774D01*
X84587205Y-34490256D01*
X84665226Y-34301898D01*
X84705000Y-34101939D01*
X84705000Y-33898061D01*
X84665226Y-33698102D01*
X84587205Y-33509744D01*
X84473937Y-33340226D01*
X84329774Y-33196063D01*
X84160256Y-33082795D01*
X83971898Y-33004774D01*
X83805000Y-32971576D01*
X83805000Y-32968061D01*
X83765226Y-32768102D01*
X83687205Y-32579744D01*
X83573937Y-32410226D01*
X83429774Y-32266063D01*
X83260256Y-32152795D01*
X83071898Y-32074774D01*
X82871939Y-32035000D01*
X82668061Y-32035000D01*
X82468102Y-32074774D01*
X82279744Y-32152795D01*
X82110226Y-32266063D01*
X81966063Y-32410226D01*
X81852795Y-32579744D01*
X81774774Y-32768102D01*
X81735000Y-32968061D01*
X70513836Y-32968061D01*
X70525000Y-32911939D01*
X70525000Y-32708061D01*
X70485226Y-32508102D01*
X70407205Y-32319744D01*
X70387319Y-32289982D01*
X70465226Y-32101898D01*
X70505000Y-31901939D01*
X70505000Y-31698061D01*
X70465226Y-31498102D01*
X70387205Y-31309744D01*
X70273937Y-31140226D01*
X70129774Y-30996063D01*
X69960256Y-30882795D01*
X69771898Y-30804774D01*
X69571939Y-30765000D01*
X69368061Y-30765000D01*
X69168102Y-30804774D01*
X68979744Y-30882795D01*
X68810226Y-30996063D01*
X68666063Y-31140226D01*
X68552795Y-31309744D01*
X68474774Y-31498102D01*
X68435000Y-31698061D01*
X67028703Y-31698061D01*
X67079774Y-31663937D01*
X67223937Y-31519774D01*
X67337205Y-31350256D01*
X67415226Y-31161898D01*
X67455000Y-30961939D01*
X67455000Y-30758061D01*
X67415226Y-30558102D01*
X67337205Y-30369744D01*
X67223937Y-30200226D01*
X67079774Y-30056063D01*
X66910256Y-29942795D01*
X66721898Y-29864774D01*
X66521939Y-29825000D01*
X66318061Y-29825000D01*
X66118102Y-29864774D01*
X65929744Y-29942795D01*
X65857483Y-29991078D01*
X65770256Y-29932795D01*
X65581898Y-29854774D01*
X65381939Y-29815000D01*
X65178061Y-29815000D01*
X64978102Y-29854774D01*
X64789744Y-29932795D01*
X64620226Y-30046063D01*
X64476063Y-30190226D01*
X64362795Y-30359744D01*
X64284774Y-30548102D01*
X64245000Y-30748061D01*
X64245000Y-30951939D01*
X64264815Y-31051558D01*
X64148102Y-31074774D01*
X63959744Y-31152795D01*
X63790226Y-31266063D01*
X63646063Y-31410226D01*
X63532795Y-31579744D01*
X63454774Y-31768102D01*
X63415000Y-31968061D01*
X28926398Y-31968061D01*
X28995226Y-31801898D01*
X29035000Y-31601939D01*
X29035000Y-31398061D01*
X28995226Y-31198102D01*
X28917205Y-31009744D01*
X28803937Y-30840226D01*
X28659774Y-30696063D01*
X28490256Y-30582795D01*
X28301898Y-30504774D01*
X28101939Y-30465000D01*
X27898061Y-30465000D01*
X27698102Y-30504774D01*
X27509744Y-30582795D01*
X27500000Y-30589306D01*
X27490256Y-30582795D01*
X27301898Y-30504774D01*
X27101939Y-30465000D01*
X26898061Y-30465000D01*
X26698102Y-30504774D01*
X26509744Y-30582795D01*
X26500000Y-30589306D01*
X26490256Y-30582795D01*
X26301898Y-30504774D01*
X26101939Y-30465000D01*
X25898061Y-30465000D01*
X25698102Y-30504774D01*
X25509744Y-30582795D01*
X25340226Y-30696063D01*
X25196063Y-30840226D01*
X25082795Y-31009744D01*
X25004774Y-31198102D01*
X24965000Y-31398061D01*
X20660000Y-31398061D01*
X20660000Y-27387496D01*
X21166735Y-28145879D01*
X21854121Y-28833265D01*
X22662401Y-29373340D01*
X23560514Y-29745350D01*
X24513945Y-29935000D01*
X25486055Y-29935000D01*
X26439486Y-29745350D01*
X27337599Y-29373340D01*
X28145879Y-28833265D01*
X28833265Y-28145879D01*
X29165896Y-27648061D01*
X56215000Y-27648061D01*
X56215000Y-27851939D01*
X56254774Y-28051898D01*
X56332795Y-28240256D01*
X56446063Y-28409774D01*
X56590226Y-28553937D01*
X56759744Y-28667205D01*
X56948102Y-28745226D01*
X57148061Y-28785000D01*
X57351939Y-28785000D01*
X57551898Y-28745226D01*
X57740256Y-28667205D01*
X57909774Y-28553937D01*
X58053937Y-28409774D01*
X58167205Y-28240256D01*
X58245226Y-28051898D01*
X58285000Y-27851939D01*
X58285000Y-27648061D01*
X58245226Y-27448102D01*
X58167205Y-27259744D01*
X58053937Y-27090226D01*
X57909774Y-26946063D01*
X57740256Y-26832795D01*
X57551898Y-26754774D01*
X57351939Y-26715000D01*
X57148061Y-26715000D01*
X56948102Y-26754774D01*
X56759744Y-26832795D01*
X56590226Y-26946063D01*
X56446063Y-27090226D01*
X56332795Y-27259744D01*
X56254774Y-27448102D01*
X56215000Y-27648061D01*
X29165896Y-27648061D01*
X29373340Y-27337599D01*
X29745350Y-26439486D01*
X29801329Y-26158061D01*
X37490000Y-26158061D01*
X37490000Y-26361939D01*
X37529774Y-26561898D01*
X37607795Y-26750256D01*
X37721063Y-26919774D01*
X37865226Y-27063937D01*
X38034744Y-27177205D01*
X38223102Y-27255226D01*
X38423061Y-27295000D01*
X38626939Y-27295000D01*
X38826898Y-27255226D01*
X39015256Y-27177205D01*
X39184774Y-27063937D01*
X39328937Y-26919774D01*
X39442205Y-26750256D01*
X39520226Y-26561898D01*
X39560000Y-26361939D01*
X39560000Y-26158061D01*
X41685000Y-26158061D01*
X41685000Y-26361939D01*
X41724774Y-26561898D01*
X41802795Y-26750256D01*
X41916063Y-26919774D01*
X42060226Y-27063937D01*
X42229744Y-27177205D01*
X42418102Y-27255226D01*
X42618061Y-27295000D01*
X42821939Y-27295000D01*
X43021898Y-27255226D01*
X43210256Y-27177205D01*
X43379774Y-27063937D01*
X43523937Y-26919774D01*
X43637205Y-26750256D01*
X43715226Y-26561898D01*
X43755000Y-26361939D01*
X43755000Y-26158061D01*
X45885000Y-26158061D01*
X45885000Y-26361939D01*
X45924774Y-26561898D01*
X46002795Y-26750256D01*
X46116063Y-26919774D01*
X46260226Y-27063937D01*
X46429744Y-27177205D01*
X46618102Y-27255226D01*
X46818061Y-27295000D01*
X47021939Y-27295000D01*
X47221898Y-27255226D01*
X47410256Y-27177205D01*
X47579774Y-27063937D01*
X47723937Y-26919774D01*
X47837205Y-26750256D01*
X47915226Y-26561898D01*
X47955000Y-26361939D01*
X47955000Y-26158061D01*
X50095000Y-26158061D01*
X50095000Y-26361939D01*
X50134774Y-26561898D01*
X50212795Y-26750256D01*
X50326063Y-26919774D01*
X50470226Y-27063937D01*
X50639744Y-27177205D01*
X50828102Y-27255226D01*
X51028061Y-27295000D01*
X51231939Y-27295000D01*
X51431898Y-27255226D01*
X51620256Y-27177205D01*
X51789774Y-27063937D01*
X51933937Y-26919774D01*
X52047205Y-26750256D01*
X52125226Y-26561898D01*
X52165000Y-26361939D01*
X52165000Y-26158061D01*
X52125226Y-25958102D01*
X52047205Y-25769744D01*
X51933937Y-25600226D01*
X51789774Y-25456063D01*
X51620256Y-25342795D01*
X51431898Y-25264774D01*
X51231939Y-25225000D01*
X51028061Y-25225000D01*
X50828102Y-25264774D01*
X50639744Y-25342795D01*
X50470226Y-25456063D01*
X50326063Y-25600226D01*
X50212795Y-25769744D01*
X50134774Y-25958102D01*
X50095000Y-26158061D01*
X47955000Y-26158061D01*
X47915226Y-25958102D01*
X47837205Y-25769744D01*
X47723937Y-25600226D01*
X47579774Y-25456063D01*
X47410256Y-25342795D01*
X47221898Y-25264774D01*
X47021939Y-25225000D01*
X46818061Y-25225000D01*
X46618102Y-25264774D01*
X46429744Y-25342795D01*
X46260226Y-25456063D01*
X46116063Y-25600226D01*
X46002795Y-25769744D01*
X45924774Y-25958102D01*
X45885000Y-26158061D01*
X43755000Y-26158061D01*
X43715226Y-25958102D01*
X43637205Y-25769744D01*
X43523937Y-25600226D01*
X43379774Y-25456063D01*
X43210256Y-25342795D01*
X43021898Y-25264774D01*
X42821939Y-25225000D01*
X42618061Y-25225000D01*
X42418102Y-25264774D01*
X42229744Y-25342795D01*
X42060226Y-25456063D01*
X41916063Y-25600226D01*
X41802795Y-25769744D01*
X41724774Y-25958102D01*
X41685000Y-26158061D01*
X39560000Y-26158061D01*
X39520226Y-25958102D01*
X39442205Y-25769744D01*
X39328937Y-25600226D01*
X39184774Y-25456063D01*
X39015256Y-25342795D01*
X38826898Y-25264774D01*
X38626939Y-25225000D01*
X38423061Y-25225000D01*
X38223102Y-25264774D01*
X38034744Y-25342795D01*
X37865226Y-25456063D01*
X37721063Y-25600226D01*
X37607795Y-25769744D01*
X37529774Y-25958102D01*
X37490000Y-26158061D01*
X29801329Y-26158061D01*
X29897271Y-25675731D01*
X29912376Y-25685824D01*
X30118933Y-25771383D01*
X30338212Y-25815000D01*
X30561788Y-25815000D01*
X30781067Y-25771383D01*
X30987624Y-25685824D01*
X31173520Y-25561612D01*
X31331612Y-25403520D01*
X31455824Y-25217624D01*
X31541383Y-25011067D01*
X31585000Y-24791788D01*
X31585000Y-24568212D01*
X31545188Y-24368061D01*
X53835000Y-24368061D01*
X53835000Y-24571939D01*
X53874774Y-24771898D01*
X53952795Y-24960256D01*
X54066063Y-25129774D01*
X54210226Y-25273937D01*
X54379744Y-25387205D01*
X54568102Y-25465226D01*
X54768061Y-25505000D01*
X54971939Y-25505000D01*
X55171898Y-25465226D01*
X55360256Y-25387205D01*
X55529774Y-25273937D01*
X55673937Y-25129774D01*
X55787205Y-24960256D01*
X55865226Y-24771898D01*
X55905000Y-24571939D01*
X55905000Y-24368061D01*
X55865226Y-24168102D01*
X55787205Y-23979744D01*
X55673937Y-23810226D01*
X55551923Y-23688212D01*
X65325000Y-23688212D01*
X65325000Y-23911788D01*
X65368617Y-24131067D01*
X65454176Y-24337624D01*
X65519241Y-24435000D01*
X65454176Y-24532376D01*
X65368617Y-24738933D01*
X65325000Y-24958212D01*
X65325000Y-25181788D01*
X65368617Y-25401067D01*
X65454176Y-25607624D01*
X65578388Y-25793520D01*
X65736480Y-25951612D01*
X65922376Y-26075824D01*
X66128933Y-26161383D01*
X66348212Y-26205000D01*
X66571788Y-26205000D01*
X66791067Y-26161383D01*
X66997624Y-26075824D01*
X67095000Y-26010759D01*
X67192376Y-26075824D01*
X67398933Y-26161383D01*
X67618212Y-26205000D01*
X67841788Y-26205000D01*
X68061067Y-26161383D01*
X68267624Y-26075824D01*
X68365000Y-26010759D01*
X68462376Y-26075824D01*
X68668933Y-26161383D01*
X68888212Y-26205000D01*
X69111788Y-26205000D01*
X69331067Y-26161383D01*
X69537624Y-26075824D01*
X69635000Y-26010759D01*
X69732376Y-26075824D01*
X69938933Y-26161383D01*
X70158212Y-26205000D01*
X70381788Y-26205000D01*
X70601067Y-26161383D01*
X70807624Y-26075824D01*
X70905000Y-26010759D01*
X71002376Y-26075824D01*
X71208933Y-26161383D01*
X71428212Y-26205000D01*
X71651788Y-26205000D01*
X71871067Y-26161383D01*
X72077624Y-26075824D01*
X72263520Y-25951612D01*
X72317071Y-25898061D01*
X75715000Y-25898061D01*
X75715000Y-26101939D01*
X75754774Y-26301898D01*
X75832795Y-26490256D01*
X75839306Y-26500000D01*
X75832795Y-26509744D01*
X75754774Y-26698102D01*
X75715000Y-26898061D01*
X75715000Y-27101939D01*
X75754774Y-27301898D01*
X75832795Y-27490256D01*
X75946063Y-27659774D01*
X76090226Y-27803937D01*
X76259744Y-27917205D01*
X76448102Y-27995226D01*
X76648061Y-28035000D01*
X76851939Y-28035000D01*
X77051898Y-27995226D01*
X77240256Y-27917205D01*
X77250000Y-27910694D01*
X77259744Y-27917205D01*
X77448102Y-27995226D01*
X77648061Y-28035000D01*
X77851939Y-28035000D01*
X78051898Y-27995226D01*
X78134841Y-27960870D01*
X78129774Y-27973102D01*
X78090000Y-28173061D01*
X78090000Y-28376939D01*
X78129774Y-28576898D01*
X78207795Y-28765256D01*
X78321063Y-28934774D01*
X78465226Y-29078937D01*
X78634744Y-29192205D01*
X78823102Y-29270226D01*
X79023061Y-29310000D01*
X79226939Y-29310000D01*
X79426898Y-29270226D01*
X79615256Y-29192205D01*
X79784774Y-29078937D01*
X79928937Y-28934774D01*
X80042205Y-28765256D01*
X80120226Y-28576898D01*
X80160000Y-28376939D01*
X80160000Y-28173061D01*
X80120226Y-27973102D01*
X80042205Y-27784744D01*
X79928937Y-27615226D01*
X79784774Y-27471063D01*
X79698918Y-27413696D01*
X79745226Y-27301898D01*
X79785000Y-27101939D01*
X79785000Y-26898061D01*
X79745226Y-26698102D01*
X79667205Y-26509744D01*
X79660694Y-26500000D01*
X79667205Y-26490256D01*
X79709473Y-26388212D01*
X85615000Y-26388212D01*
X85615000Y-26611788D01*
X85658617Y-26831067D01*
X85744176Y-27037624D01*
X85868388Y-27223520D01*
X86026480Y-27381612D01*
X86072707Y-27412500D01*
X86026480Y-27443388D01*
X85868388Y-27601480D01*
X85744176Y-27787376D01*
X85658617Y-27993933D01*
X85615000Y-28213212D01*
X85615000Y-28436788D01*
X85658617Y-28656067D01*
X85744176Y-28862624D01*
X85868388Y-29048520D01*
X86026480Y-29206612D01*
X86212376Y-29330824D01*
X86418933Y-29416383D01*
X86638212Y-29460000D01*
X86861788Y-29460000D01*
X87081067Y-29416383D01*
X87287624Y-29330824D01*
X87473520Y-29206612D01*
X87631612Y-29048520D01*
X87755824Y-28862624D01*
X87841383Y-28656067D01*
X87885000Y-28436788D01*
X87885000Y-28213212D01*
X87841383Y-27993933D01*
X87755824Y-27787376D01*
X87631612Y-27601480D01*
X87628364Y-27598232D01*
X87813212Y-27635000D01*
X88036788Y-27635000D01*
X88256067Y-27591383D01*
X88462624Y-27505824D01*
X88648520Y-27381612D01*
X88806612Y-27223520D01*
X88930824Y-27037624D01*
X89016383Y-26831067D01*
X89060000Y-26611788D01*
X89060000Y-26388212D01*
X89016383Y-26168933D01*
X88930824Y-25962376D01*
X88806612Y-25776480D01*
X88648520Y-25618388D01*
X88462624Y-25494176D01*
X88256067Y-25408617D01*
X88036788Y-25365000D01*
X87813212Y-25365000D01*
X87593933Y-25408617D01*
X87387376Y-25494176D01*
X87337500Y-25527502D01*
X87287624Y-25494176D01*
X87081067Y-25408617D01*
X86861788Y-25365000D01*
X86638212Y-25365000D01*
X86418933Y-25408617D01*
X86212376Y-25494176D01*
X86026480Y-25618388D01*
X85868388Y-25776480D01*
X85744176Y-25962376D01*
X85658617Y-26168933D01*
X85615000Y-26388212D01*
X79709473Y-26388212D01*
X79745226Y-26301898D01*
X79785000Y-26101939D01*
X79785000Y-25898061D01*
X79745226Y-25698102D01*
X79667205Y-25509744D01*
X79553937Y-25340226D01*
X79409774Y-25196063D01*
X79240256Y-25082795D01*
X79051898Y-25004774D01*
X78851939Y-24965000D01*
X78648061Y-24965000D01*
X78448102Y-25004774D01*
X78259744Y-25082795D01*
X78250000Y-25089306D01*
X78240256Y-25082795D01*
X78051898Y-25004774D01*
X77851939Y-24965000D01*
X77648061Y-24965000D01*
X77448102Y-25004774D01*
X77259744Y-25082795D01*
X77250000Y-25089306D01*
X77240256Y-25082795D01*
X77051898Y-25004774D01*
X76851939Y-24965000D01*
X76648061Y-24965000D01*
X76448102Y-25004774D01*
X76259744Y-25082795D01*
X76090226Y-25196063D01*
X75946063Y-25340226D01*
X75832795Y-25509744D01*
X75754774Y-25698102D01*
X75715000Y-25898061D01*
X72317071Y-25898061D01*
X72421612Y-25793520D01*
X72545824Y-25607624D01*
X72631383Y-25401067D01*
X72675000Y-25181788D01*
X72675000Y-24958212D01*
X72631383Y-24738933D01*
X72585112Y-24627226D01*
X72629502Y-24544180D01*
X72665812Y-24424482D01*
X72678072Y-24300000D01*
X72675000Y-24085750D01*
X72516250Y-23927000D01*
X71667000Y-23927000D01*
X71667000Y-23938026D01*
X71651788Y-23935000D01*
X71428212Y-23935000D01*
X71413000Y-23938026D01*
X71413000Y-23927000D01*
X71401974Y-23927000D01*
X71405000Y-23911788D01*
X71405000Y-23688212D01*
X71401974Y-23673000D01*
X71413000Y-23673000D01*
X71413000Y-22823750D01*
X71667000Y-22823750D01*
X71667000Y-23673000D01*
X72516250Y-23673000D01*
X72675000Y-23514250D01*
X72678072Y-23300000D01*
X72665812Y-23175518D01*
X72629502Y-23055820D01*
X72570537Y-22945506D01*
X72491185Y-22848815D01*
X72394494Y-22769463D01*
X72284180Y-22710498D01*
X72164482Y-22674188D01*
X72040000Y-22661928D01*
X71825750Y-22665000D01*
X71667000Y-22823750D01*
X71413000Y-22823750D01*
X71254250Y-22665000D01*
X71040000Y-22661928D01*
X70915518Y-22674188D01*
X70795820Y-22710498D01*
X70712774Y-22754888D01*
X70601067Y-22708617D01*
X70381788Y-22665000D01*
X70158212Y-22665000D01*
X69938933Y-22708617D01*
X69732376Y-22794176D01*
X69635000Y-22859241D01*
X69537624Y-22794176D01*
X69331067Y-22708617D01*
X69111788Y-22665000D01*
X68888212Y-22665000D01*
X68668933Y-22708617D01*
X68462376Y-22794176D01*
X68365000Y-22859241D01*
X68267624Y-22794176D01*
X68061067Y-22708617D01*
X67841788Y-22665000D01*
X67618212Y-22665000D01*
X67398933Y-22708617D01*
X67192376Y-22794176D01*
X67095000Y-22859241D01*
X66997624Y-22794176D01*
X66791067Y-22708617D01*
X66571788Y-22665000D01*
X66348212Y-22665000D01*
X66128933Y-22708617D01*
X65922376Y-22794176D01*
X65736480Y-22918388D01*
X65578388Y-23076480D01*
X65454176Y-23262376D01*
X65368617Y-23468933D01*
X65325000Y-23688212D01*
X55551923Y-23688212D01*
X55529774Y-23666063D01*
X55360256Y-23552795D01*
X55171898Y-23474774D01*
X54971939Y-23435000D01*
X54768061Y-23435000D01*
X54568102Y-23474774D01*
X54379744Y-23552795D01*
X54210226Y-23666063D01*
X54066063Y-23810226D01*
X53952795Y-23979744D01*
X53874774Y-24168102D01*
X53835000Y-24368061D01*
X31545188Y-24368061D01*
X31541383Y-24348933D01*
X31455824Y-24142376D01*
X31331612Y-23956480D01*
X31173520Y-23798388D01*
X30987624Y-23674176D01*
X30781067Y-23588617D01*
X30561788Y-23545000D01*
X30338212Y-23545000D01*
X30118933Y-23588617D01*
X29912376Y-23674176D01*
X29784901Y-23759352D01*
X29745350Y-23560514D01*
X29373340Y-22662401D01*
X29041186Y-22165297D01*
X55640000Y-22165297D01*
X55640000Y-22334703D01*
X55673049Y-22500853D01*
X55737878Y-22657363D01*
X55831995Y-22798218D01*
X55951782Y-22918005D01*
X56092637Y-23012122D01*
X56249147Y-23076951D01*
X56415297Y-23110000D01*
X56584703Y-23110000D01*
X56750853Y-23076951D01*
X56907363Y-23012122D01*
X57048218Y-22918005D01*
X57168005Y-22798218D01*
X57262122Y-22657363D01*
X57326951Y-22500853D01*
X57360000Y-22334703D01*
X57360000Y-22165297D01*
X58640000Y-22165297D01*
X58640000Y-22334703D01*
X58673049Y-22500853D01*
X58737878Y-22657363D01*
X58831995Y-22798218D01*
X58951782Y-22918005D01*
X59092637Y-23012122D01*
X59249147Y-23076951D01*
X59415297Y-23110000D01*
X59584703Y-23110000D01*
X59750853Y-23076951D01*
X59907363Y-23012122D01*
X60048218Y-22918005D01*
X60168005Y-22798218D01*
X60262122Y-22657363D01*
X60326951Y-22500853D01*
X60360000Y-22334703D01*
X60360000Y-22165297D01*
X60326951Y-21999147D01*
X60262122Y-21842637D01*
X60168005Y-21701782D01*
X60048218Y-21581995D01*
X59907363Y-21487878D01*
X59750853Y-21423049D01*
X59584703Y-21390000D01*
X59415297Y-21390000D01*
X59249147Y-21423049D01*
X59092637Y-21487878D01*
X58951782Y-21581995D01*
X58831995Y-21701782D01*
X58737878Y-21842637D01*
X58673049Y-21999147D01*
X58640000Y-22165297D01*
X57360000Y-22165297D01*
X57326951Y-21999147D01*
X57262122Y-21842637D01*
X57168005Y-21701782D01*
X57048218Y-21581995D01*
X56907363Y-21487878D01*
X56750853Y-21423049D01*
X56584703Y-21390000D01*
X56415297Y-21390000D01*
X56249147Y-21423049D01*
X56092637Y-21487878D01*
X55951782Y-21581995D01*
X55831995Y-21701782D01*
X55737878Y-21842637D01*
X55673049Y-21999147D01*
X55640000Y-22165297D01*
X29041186Y-22165297D01*
X28833265Y-21854121D01*
X28145879Y-21166735D01*
X27387496Y-20660000D01*
X76641840Y-20660000D01*
X76584618Y-20729725D01*
G37*
X76584618Y-20729725D02*
X76460653Y-20961646D01*
X76384317Y-21213294D01*
X76365000Y-21409421D01*
X76365000Y-21940578D01*
X76384317Y-22136705D01*
X76460653Y-22388353D01*
X76584618Y-22620274D01*
X76751445Y-22823555D01*
X76954725Y-22990382D01*
X77186646Y-23114347D01*
X77438294Y-23190683D01*
X77700000Y-23216459D01*
X77961705Y-23190683D01*
X78213353Y-23114347D01*
X78445274Y-22990382D01*
X78648555Y-22823555D01*
X78815382Y-22620275D01*
X78939347Y-22388354D01*
X79015683Y-22136706D01*
X79035000Y-21940579D01*
X79035000Y-21409422D01*
X79015683Y-21213295D01*
X78939347Y-20961647D01*
X78815382Y-20729725D01*
X78758160Y-20660000D01*
X83241840Y-20660000D01*
X83184618Y-20729725D01*
X83060653Y-20961646D01*
X82984317Y-21213294D01*
X82965000Y-21409421D01*
X82965000Y-21940578D01*
X82984317Y-22136705D01*
X83060653Y-22388353D01*
X83184618Y-22620274D01*
X83351445Y-22823555D01*
X83554725Y-22990382D01*
X83786646Y-23114347D01*
X84038294Y-23190683D01*
X84300000Y-23216459D01*
X84561705Y-23190683D01*
X84813353Y-23114347D01*
X85045274Y-22990382D01*
X85248555Y-22823555D01*
X85415382Y-22620275D01*
X85539347Y-22388354D01*
X85615683Y-22136706D01*
X85635000Y-21940579D01*
X85635000Y-21409422D01*
X85615683Y-21213295D01*
X85539347Y-20961647D01*
X85415382Y-20729725D01*
X85358160Y-20660000D01*
X92612504Y-20660000D01*
X91854121Y-21166735D01*
X91166735Y-21854121D01*
X90626660Y-22662401D01*
X90254650Y-23560514D01*
X90065000Y-24513945D01*
X90065000Y-25486055D01*
X90254650Y-26439486D01*
X90626660Y-27337599D01*
X91166735Y-28145879D01*
X91854121Y-28833265D01*
X92662401Y-29373340D01*
X93560514Y-29745350D01*
X94513945Y-29935000D01*
X95486055Y-29935000D01*
X96439486Y-29745350D01*
X97337599Y-29373340D01*
X98145879Y-28833265D01*
X98833265Y-28145879D01*
X99340000Y-27387496D01*
X99340000Y-39374555D01*
X99315990Y-39316589D01*
X99153475Y-39073368D01*
X98946632Y-38866525D01*
X98703411Y-38704010D01*
X98433158Y-38592068D01*
X98146260Y-38535000D01*
X97853740Y-38535000D01*
X97566842Y-38592068D01*
X97296589Y-38704010D01*
X97053368Y-38866525D01*
X96846525Y-39073368D01*
X96730000Y-39247760D01*
X96613475Y-39073368D01*
X96406632Y-38866525D01*
X96163411Y-38704010D01*
X95893158Y-38592068D01*
X95606260Y-38535000D01*
X95313740Y-38535000D01*
X95026842Y-38592068D01*
X94756589Y-38704010D01*
X94513368Y-38866525D01*
X94378367Y-39001526D01*
X94364502Y-38955820D01*
X94305537Y-38845506D01*
X94226185Y-38748815D01*
X94129494Y-38669463D01*
X94019180Y-38610498D01*
X93899482Y-38574188D01*
X93775000Y-38561928D01*
X92075000Y-38561928D01*
X91950518Y-38574188D01*
X91830820Y-38610498D01*
X91720506Y-38669463D01*
X91623815Y-38748815D01*
X91544463Y-38845506D01*
X91485498Y-38955820D01*
X91449188Y-39075518D01*
X91436928Y-39200000D01*
X91436928Y-40900000D01*
X91449188Y-41024482D01*
X91485498Y-41144180D01*
X91544463Y-41254494D01*
X91623815Y-41351185D01*
X91720506Y-41430537D01*
X91830820Y-41489502D01*
X91903380Y-41511513D01*
X91771525Y-41643368D01*
X91609010Y-41886589D01*
X91497068Y-42156842D01*
X91440000Y-42443740D01*
X91440000Y-42736260D01*
X91497068Y-43023158D01*
X91609010Y-43293411D01*
X91771525Y-43536632D01*
X91978368Y-43743475D01*
X92152760Y-43860000D01*
X91978368Y-43976525D01*
X91771525Y-44183368D01*
X91609010Y-44426589D01*
X91497068Y-44696842D01*
X91440000Y-44983740D01*
X91440000Y-45276260D01*
X91497068Y-45563158D01*
X91609010Y-45833411D01*
X91771525Y-46076632D01*
X91978368Y-46283475D01*
X92152760Y-46400000D01*
X91978368Y-46516525D01*
X91771525Y-46723368D01*
X91609010Y-46966589D01*
X91497068Y-47236842D01*
X91440000Y-47523740D01*
X91440000Y-47816260D01*
X91497068Y-48103158D01*
X91609010Y-48373411D01*
X91771525Y-48616632D01*
X91978368Y-48823475D01*
X92152760Y-48940000D01*
X91978368Y-49056525D01*
X91771525Y-49263368D01*
X91609010Y-49506589D01*
X91497068Y-49776842D01*
X91440000Y-50063740D01*
X91440000Y-50356260D01*
X91497068Y-50643158D01*
X91609010Y-50913411D01*
X91771525Y-51156632D01*
X91978368Y-51363475D01*
X92152760Y-51480000D01*
X91978368Y-51596525D01*
X91771525Y-51803368D01*
X91609010Y-52046589D01*
X91497068Y-52316842D01*
X91440000Y-52603740D01*
X91440000Y-52896260D01*
X91497068Y-53183158D01*
X91609010Y-53453411D01*
X91771525Y-53696632D01*
X91978368Y-53903475D01*
X92152760Y-54020000D01*
X91978368Y-54136525D01*
X91771525Y-54343368D01*
X91609010Y-54586589D01*
X91497068Y-54856842D01*
X91440000Y-55143740D01*
X91440000Y-55436260D01*
X91497068Y-55723158D01*
X91609010Y-55993411D01*
X91771525Y-56236632D01*
X91978368Y-56443475D01*
X92152760Y-56560000D01*
X91978368Y-56676525D01*
X91771525Y-56883368D01*
X91609010Y-57126589D01*
X91497068Y-57396842D01*
X91440000Y-57683740D01*
X91440000Y-57976260D01*
X91497068Y-58263158D01*
X91609010Y-58533411D01*
X91771525Y-58776632D01*
X91978368Y-58983475D01*
X92221589Y-59145990D01*
X92491842Y-59257932D01*
X92778740Y-59315000D01*
X93071260Y-59315000D01*
X93358158Y-59257932D01*
X93628411Y-59145990D01*
X93871632Y-58983475D01*
X94078475Y-58776632D01*
X94202523Y-58590981D01*
X94306525Y-58746632D01*
X94513368Y-58953475D01*
X94756589Y-59115990D01*
X95026842Y-59227932D01*
X95313740Y-59285000D01*
X95606260Y-59285000D01*
X95893158Y-59227932D01*
X96163411Y-59115990D01*
X96406632Y-58953475D01*
X96538487Y-58821620D01*
X96560498Y-58894180D01*
X96619463Y-59004494D01*
X96698815Y-59101185D01*
X96795506Y-59180537D01*
X96905820Y-59239502D01*
X97025518Y-59275812D01*
X97150000Y-59288072D01*
X98850000Y-59288072D01*
X98974482Y-59275812D01*
X99094180Y-59239502D01*
X99204494Y-59180537D01*
X99301185Y-59101185D01*
X99340001Y-59053888D01*
X99340001Y-62612506D01*
X98833265Y-61854121D01*
X98145879Y-61166735D01*
X97337599Y-60626660D01*
X96439486Y-60254650D01*
X95486055Y-60065000D01*
X94513945Y-60065000D01*
X93560514Y-60254650D01*
X92662401Y-60626660D01*
X91854121Y-61166735D01*
X91166735Y-61854121D01*
X90626660Y-62662401D01*
X90254650Y-63560514D01*
X90065000Y-64513945D01*
X90065000Y-65486055D01*
X90254650Y-66439486D01*
X90626660Y-67337599D01*
X91166735Y-68145879D01*
X91854121Y-68833265D01*
X92612504Y-69340000D01*
X27387496Y-69340000D01*
X28145879Y-68833265D01*
X28833265Y-68145879D01*
X29373340Y-67337599D01*
X29745350Y-66439486D01*
X29761516Y-66358212D01*
X33985000Y-66358212D01*
X33985000Y-66581788D01*
X34028617Y-66801067D01*
X34114176Y-67007624D01*
X34238388Y-67193520D01*
X34396480Y-67351612D01*
X34582376Y-67475824D01*
X34788933Y-67561383D01*
X35008212Y-67605000D01*
X35231788Y-67605000D01*
X35451067Y-67561383D01*
X35657624Y-67475824D01*
X35843520Y-67351612D01*
X36001612Y-67193520D01*
X36125824Y-67007624D01*
X36211383Y-66801067D01*
X36255000Y-66581788D01*
X36255000Y-66358212D01*
X44985000Y-66358212D01*
X44985000Y-66581788D01*
X45028617Y-66801067D01*
X45114176Y-67007624D01*
X45238388Y-67193520D01*
X45396480Y-67351612D01*
X45582376Y-67475824D01*
X45788933Y-67561383D01*
X46008212Y-67605000D01*
X46231788Y-67605000D01*
X46451067Y-67561383D01*
X46657624Y-67475824D01*
X46843520Y-67351612D01*
X47001612Y-67193520D01*
X47125824Y-67007624D01*
X47211383Y-66801067D01*
X47255000Y-66581788D01*
X47255000Y-66358212D01*
X55985000Y-66358212D01*
X55985000Y-66581788D01*
X56028617Y-66801067D01*
X56114176Y-67007624D01*
X56238388Y-67193520D01*
X56396480Y-67351612D01*
X56582376Y-67475824D01*
X56788933Y-67561383D01*
X57008212Y-67605000D01*
X57231788Y-67605000D01*
X57451067Y-67561383D01*
X57657624Y-67475824D01*
X57843520Y-67351612D01*
X58001612Y-67193520D01*
X58125824Y-67007624D01*
X58211383Y-66801067D01*
X58255000Y-66581788D01*
X58255000Y-66358212D01*
X66995000Y-66358212D01*
X66995000Y-66581788D01*
X67038617Y-66801067D01*
X67124176Y-67007624D01*
X67248388Y-67193520D01*
X67406480Y-67351612D01*
X67592376Y-67475824D01*
X67798933Y-67561383D01*
X68018212Y-67605000D01*
X68241788Y-67605000D01*
X68461067Y-67561383D01*
X68667624Y-67475824D01*
X68853520Y-67351612D01*
X69011612Y-67193520D01*
X69135824Y-67007624D01*
X69221383Y-66801067D01*
X69265000Y-66581788D01*
X69265000Y-66358212D01*
X77745000Y-66358212D01*
X77745000Y-66581788D01*
X77788617Y-66801067D01*
X77874176Y-67007624D01*
X77998388Y-67193520D01*
X78156480Y-67351612D01*
X78342376Y-67475824D01*
X78548933Y-67561383D01*
X78768212Y-67605000D01*
X78991788Y-67605000D01*
X79211067Y-67561383D01*
X79417624Y-67475824D01*
X79603520Y-67351612D01*
X79761612Y-67193520D01*
X79885824Y-67007624D01*
X79971383Y-66801067D01*
X80015000Y-66581788D01*
X80015000Y-66358212D01*
X79971383Y-66138933D01*
X79885824Y-65932376D01*
X79761612Y-65746480D01*
X79603520Y-65588388D01*
X79417624Y-65464176D01*
X79211067Y-65378617D01*
X78991788Y-65335000D01*
X78768212Y-65335000D01*
X78548933Y-65378617D01*
X78342376Y-65464176D01*
X78156480Y-65588388D01*
X77998388Y-65746480D01*
X77874176Y-65932376D01*
X77788617Y-66138933D01*
X77745000Y-66358212D01*
X69265000Y-66358212D01*
X69221383Y-66138933D01*
X69135824Y-65932376D01*
X69011612Y-65746480D01*
X68853520Y-65588388D01*
X68667624Y-65464176D01*
X68461067Y-65378617D01*
X68241788Y-65335000D01*
X68018212Y-65335000D01*
X67798933Y-65378617D01*
X67592376Y-65464176D01*
X67406480Y-65588388D01*
X67248388Y-65746480D01*
X67124176Y-65932376D01*
X67038617Y-66138933D01*
X66995000Y-66358212D01*
X58255000Y-66358212D01*
X58211383Y-66138933D01*
X58125824Y-65932376D01*
X58001612Y-65746480D01*
X57843520Y-65588388D01*
X57657624Y-65464176D01*
X57451067Y-65378617D01*
X57231788Y-65335000D01*
X57008212Y-65335000D01*
X56788933Y-65378617D01*
X56582376Y-65464176D01*
X56396480Y-65588388D01*
X56238388Y-65746480D01*
X56114176Y-65932376D01*
X56028617Y-66138933D01*
X55985000Y-66358212D01*
X47255000Y-66358212D01*
X47211383Y-66138933D01*
X47125824Y-65932376D01*
X47001612Y-65746480D01*
X46843520Y-65588388D01*
X46657624Y-65464176D01*
X46451067Y-65378617D01*
X46231788Y-65335000D01*
X46008212Y-65335000D01*
X45788933Y-65378617D01*
X45582376Y-65464176D01*
X45396480Y-65588388D01*
X45238388Y-65746480D01*
X45114176Y-65932376D01*
X45028617Y-66138933D01*
X44985000Y-66358212D01*
X36255000Y-66358212D01*
X36211383Y-66138933D01*
X36125824Y-65932376D01*
X36001612Y-65746480D01*
X35843520Y-65588388D01*
X35657624Y-65464176D01*
X35451067Y-65378617D01*
X35231788Y-65335000D01*
X35008212Y-65335000D01*
X34788933Y-65378617D01*
X34582376Y-65464176D01*
X34396480Y-65588388D01*
X34238388Y-65746480D01*
X34114176Y-65932376D01*
X34028617Y-66138933D01*
X33985000Y-66358212D01*
X29761516Y-66358212D01*
X29935000Y-65486055D01*
X29935000Y-64513945D01*
X29745350Y-63560514D01*
X29373340Y-62662401D01*
X28833265Y-61854121D01*
X28145879Y-61166735D01*
X27337599Y-60626660D01*
X26665001Y-60348061D01*
X72965000Y-60348061D01*
X72965000Y-60551939D01*
X73004774Y-60751898D01*
X73082795Y-60940256D01*
X73196063Y-61109774D01*
X73340226Y-61253937D01*
X73509744Y-61367205D01*
X73698102Y-61445226D01*
X73898061Y-61485000D01*
X74101939Y-61485000D01*
X74301898Y-61445226D01*
X74490256Y-61367205D01*
X74659774Y-61253937D01*
X74803937Y-61109774D01*
X74917205Y-60940256D01*
X74995226Y-60751898D01*
X75035000Y-60551939D01*
X75035000Y-60348061D01*
X74995226Y-60148102D01*
X74917205Y-59959744D01*
X74803937Y-59790226D01*
X74659774Y-59646063D01*
X74490256Y-59532795D01*
X74301898Y-59454774D01*
X74101939Y-59415000D01*
X73898061Y-59415000D01*
X73698102Y-59454774D01*
X73509744Y-59532795D01*
X73340226Y-59646063D01*
X73196063Y-59790226D01*
X73082795Y-59959744D01*
X73004774Y-60148102D01*
X72965000Y-60348061D01*
X26665001Y-60348061D01*
X26439486Y-60254650D01*
X25486055Y-60065000D01*
X24513945Y-60065000D01*
X23560514Y-60254650D01*
X22662401Y-60626660D01*
X21854121Y-61166735D01*
X21166735Y-61854121D01*
X20660000Y-62612504D01*
X20660000Y-58873061D01*
X61565000Y-58873061D01*
X61565000Y-59076939D01*
X61604774Y-59276898D01*
X61682795Y-59465256D01*
X61796063Y-59634774D01*
X61940226Y-59778937D01*
X62109744Y-59892205D01*
X62298102Y-59970226D01*
X62498061Y-60010000D01*
X62701939Y-60010000D01*
X62901898Y-59970226D01*
X63090256Y-59892205D01*
X63259774Y-59778937D01*
X63403937Y-59634774D01*
X63517205Y-59465256D01*
X63595226Y-59276898D01*
X63635000Y-59076939D01*
X63635000Y-58873061D01*
X63595226Y-58673102D01*
X63517205Y-58484744D01*
X63492695Y-58448061D01*
X81565000Y-58448061D01*
X81565000Y-58651939D01*
X81604774Y-58851898D01*
X81682795Y-59040256D01*
X81796063Y-59209774D01*
X81940226Y-59353937D01*
X82109744Y-59467205D01*
X82298102Y-59545226D01*
X82498061Y-59585000D01*
X82701939Y-59585000D01*
X82901898Y-59545226D01*
X83090256Y-59467205D01*
X83099134Y-59461273D01*
X83124233Y-59478044D01*
X83312591Y-59556065D01*
X83512550Y-59595839D01*
X83716428Y-59595839D01*
X83916387Y-59556065D01*
X84104745Y-59478044D01*
X84274263Y-59364776D01*
X84418426Y-59220613D01*
X84531694Y-59051095D01*
X84609715Y-58862737D01*
X84649489Y-58662778D01*
X84649489Y-58458900D01*
X84609715Y-58258941D01*
X84531694Y-58070583D01*
X84418426Y-57901065D01*
X84274263Y-57756902D01*
X84104745Y-57643634D01*
X83916387Y-57565613D01*
X83716428Y-57525839D01*
X83512550Y-57525839D01*
X83312591Y-57565613D01*
X83124233Y-57643634D01*
X83115355Y-57649566D01*
X83090256Y-57632795D01*
X82901898Y-57554774D01*
X82701939Y-57515000D01*
X82498061Y-57515000D01*
X82298102Y-57554774D01*
X82109744Y-57632795D01*
X81940226Y-57746063D01*
X81796063Y-57890226D01*
X81682795Y-58059744D01*
X81604774Y-58248102D01*
X81565000Y-58448061D01*
X63492695Y-58448061D01*
X63403937Y-58315226D01*
X63259774Y-58171063D01*
X63090256Y-58057795D01*
X62901898Y-57979774D01*
X62701939Y-57940000D01*
X62498061Y-57940000D01*
X62298102Y-57979774D01*
X62109744Y-58057795D01*
X61940226Y-58171063D01*
X61796063Y-58315226D01*
X61682795Y-58484744D01*
X61604774Y-58673102D01*
X61565000Y-58873061D01*
X20660000Y-58873061D01*
X20660000Y-56588212D01*
X22665000Y-56588212D01*
X22665000Y-56811788D01*
X22708617Y-57031067D01*
X22794176Y-57237624D01*
X22918388Y-57423520D01*
X23076480Y-57581612D01*
X23262376Y-57705824D01*
X23468933Y-57791383D01*
X23688212Y-57835000D01*
X23911788Y-57835000D01*
X24131067Y-57791383D01*
X24337624Y-57705824D01*
X24500000Y-57597328D01*
X24662376Y-57705824D01*
X24868933Y-57791383D01*
X25088212Y-57835000D01*
X25311788Y-57835000D01*
X25531067Y-57791383D01*
X25737624Y-57705824D01*
X25923520Y-57581612D01*
X26050000Y-57455132D01*
X26176480Y-57581612D01*
X26362376Y-57705824D01*
X26568933Y-57791383D01*
X26788212Y-57835000D01*
X27011788Y-57835000D01*
X27231067Y-57791383D01*
X27437624Y-57705824D01*
X27550000Y-57630737D01*
X27662376Y-57705824D01*
X27868933Y-57791383D01*
X28088212Y-57835000D01*
X28311788Y-57835000D01*
X28531067Y-57791383D01*
X28737624Y-57705824D01*
X28923520Y-57581612D01*
X29000000Y-57505132D01*
X29076480Y-57581612D01*
X29262376Y-57705824D01*
X29468933Y-57791383D01*
X29688212Y-57835000D01*
X29911788Y-57835000D01*
X30131067Y-57791383D01*
X30337624Y-57705824D01*
X30500000Y-57597328D01*
X30662376Y-57705824D01*
X30868933Y-57791383D01*
X31088212Y-57835000D01*
X31311788Y-57835000D01*
X31531067Y-57791383D01*
X31737624Y-57705824D01*
X31923520Y-57581612D01*
X32081612Y-57423520D01*
X32205824Y-57237624D01*
X32291383Y-57031067D01*
X32317839Y-56898061D01*
X65465000Y-56898061D01*
X65465000Y-57101939D01*
X65504774Y-57301898D01*
X65582795Y-57490256D01*
X65696063Y-57659774D01*
X65840226Y-57803937D01*
X66009744Y-57917205D01*
X66198102Y-57995226D01*
X66398061Y-58035000D01*
X66601939Y-58035000D01*
X66801898Y-57995226D01*
X66990256Y-57917205D01*
X67159774Y-57803937D01*
X67303937Y-57659774D01*
X67417205Y-57490256D01*
X67495226Y-57301898D01*
X67535000Y-57101939D01*
X67535000Y-56898061D01*
X67495226Y-56698102D01*
X67417205Y-56509744D01*
X67303937Y-56340226D01*
X67159774Y-56196063D01*
X66990256Y-56082795D01*
X66801898Y-56004774D01*
X66601939Y-55965000D01*
X66398061Y-55965000D01*
X66198102Y-56004774D01*
X66009744Y-56082795D01*
X65840226Y-56196063D01*
X65696063Y-56340226D01*
X65582795Y-56509744D01*
X65504774Y-56698102D01*
X65465000Y-56898061D01*
X32317839Y-56898061D01*
X32335000Y-56811788D01*
X32335000Y-56588212D01*
X32291383Y-56368933D01*
X32205824Y-56162376D01*
X32081612Y-55976480D01*
X31923520Y-55818388D01*
X31737624Y-55694176D01*
X31531067Y-55608617D01*
X31311788Y-55565000D01*
X31088212Y-55565000D01*
X30868933Y-55608617D01*
X30662376Y-55694176D01*
X30500000Y-55802672D01*
X30337624Y-55694176D01*
X30131067Y-55608617D01*
X29911788Y-55565000D01*
X29688212Y-55565000D01*
X29468933Y-55608617D01*
X29262376Y-55694176D01*
X29076480Y-55818388D01*
X29000000Y-55894868D01*
X28923520Y-55818388D01*
X28737624Y-55694176D01*
X28531067Y-55608617D01*
X28311788Y-55565000D01*
X28088212Y-55565000D01*
X27868933Y-55608617D01*
X27662376Y-55694176D01*
X27550000Y-55769263D01*
X27437624Y-55694176D01*
X27231067Y-55608617D01*
X27011788Y-55565000D01*
X26788212Y-55565000D01*
X26568933Y-55608617D01*
X26362376Y-55694176D01*
X26176480Y-55818388D01*
X26050000Y-55944868D01*
X25923520Y-55818388D01*
X25737624Y-55694176D01*
X25531067Y-55608617D01*
X25311788Y-55565000D01*
X25088212Y-55565000D01*
X24868933Y-55608617D01*
X24662376Y-55694176D01*
X24500000Y-55802672D01*
X24337624Y-55694176D01*
X24131067Y-55608617D01*
X23911788Y-55565000D01*
X23688212Y-55565000D01*
X23468933Y-55608617D01*
X23262376Y-55694176D01*
X23076480Y-55818388D01*
X22918388Y-55976480D01*
X22794176Y-56162376D01*
X22708617Y-56368933D01*
X22665000Y-56588212D01*
X20660000Y-56588212D01*
X20660000Y-55498061D01*
X60965000Y-55498061D01*
X60965000Y-55701939D01*
X61004774Y-55901898D01*
X61082795Y-56090256D01*
X61196063Y-56259774D01*
X61340226Y-56403937D01*
X61509744Y-56517205D01*
X61698102Y-56595226D01*
X61898061Y-56635000D01*
X62101939Y-56635000D01*
X62301898Y-56595226D01*
X62490256Y-56517205D01*
X62659774Y-56403937D01*
X62803937Y-56259774D01*
X62917205Y-56090256D01*
X62995226Y-55901898D01*
X63035000Y-55701939D01*
X63035000Y-55648061D01*
X72715000Y-55648061D01*
X72715000Y-55851939D01*
X72754774Y-56051898D01*
X72832795Y-56240256D01*
X72946063Y-56409774D01*
X73090226Y-56553937D01*
X73259744Y-56667205D01*
X73448102Y-56745226D01*
X73648061Y-56785000D01*
X73851939Y-56785000D01*
X74051898Y-56745226D01*
X74240256Y-56667205D01*
X74409774Y-56553937D01*
X74553937Y-56409774D01*
X74667205Y-56240256D01*
X74745226Y-56051898D01*
X74785000Y-55851939D01*
X74785000Y-55648061D01*
X74745226Y-55448102D01*
X74667205Y-55259744D01*
X74553937Y-55090226D01*
X74411772Y-54948061D01*
X75990000Y-54948061D01*
X75990000Y-55151939D01*
X76029774Y-55351898D01*
X76107795Y-55540256D01*
X76221063Y-55709774D01*
X76365226Y-55853937D01*
X76534744Y-55967205D01*
X76723102Y-56045226D01*
X76923061Y-56085000D01*
X77126939Y-56085000D01*
X77326898Y-56045226D01*
X77487500Y-55978702D01*
X77648102Y-56045226D01*
X77848061Y-56085000D01*
X78051939Y-56085000D01*
X78251898Y-56045226D01*
X78440256Y-55967205D01*
X78609774Y-55853937D01*
X78753937Y-55709774D01*
X78867205Y-55540256D01*
X78945226Y-55351898D01*
X78985000Y-55151939D01*
X78985000Y-54948061D01*
X78945226Y-54748102D01*
X78867205Y-54559744D01*
X78753937Y-54390226D01*
X78609774Y-54246063D01*
X78440256Y-54132795D01*
X78251898Y-54054774D01*
X78051939Y-54015000D01*
X77848061Y-54015000D01*
X77648102Y-54054774D01*
X77487500Y-54121298D01*
X77326898Y-54054774D01*
X77126939Y-54015000D01*
X76923061Y-54015000D01*
X76723102Y-54054774D01*
X76534744Y-54132795D01*
X76365226Y-54246063D01*
X76221063Y-54390226D01*
X76107795Y-54559744D01*
X76029774Y-54748102D01*
X75990000Y-54948061D01*
X74411772Y-54948061D01*
X74409774Y-54946063D01*
X74240256Y-54832795D01*
X74051898Y-54754774D01*
X73851939Y-54715000D01*
X73648061Y-54715000D01*
X73448102Y-54754774D01*
X73259744Y-54832795D01*
X73090226Y-54946063D01*
X72946063Y-55090226D01*
X72832795Y-55259744D01*
X72754774Y-55448102D01*
X72715000Y-55648061D01*
X63035000Y-55648061D01*
X63035000Y-55498061D01*
X62995226Y-55298102D01*
X62917205Y-55109744D01*
X62803937Y-54940226D01*
X62659774Y-54796063D01*
X62490256Y-54682795D01*
X62301898Y-54604774D01*
X62101939Y-54565000D01*
X61898061Y-54565000D01*
X61698102Y-54604774D01*
X61509744Y-54682795D01*
X61340226Y-54796063D01*
X61196063Y-54940226D01*
X61082795Y-55109744D01*
X61004774Y-55298102D01*
X60965000Y-55498061D01*
X20660000Y-55498061D01*
X20660000Y-54018061D01*
X48065000Y-54018061D01*
X48065000Y-54221939D01*
X48104774Y-54421898D01*
X48182795Y-54610256D01*
X48296063Y-54779774D01*
X48440226Y-54923937D01*
X48609744Y-55037205D01*
X48798102Y-55115226D01*
X48998061Y-55155000D01*
X49201939Y-55155000D01*
X49401898Y-55115226D01*
X49590256Y-55037205D01*
X49759774Y-54923937D01*
X49903937Y-54779774D01*
X50017205Y-54610256D01*
X50095226Y-54421898D01*
X50135000Y-54221939D01*
X50135000Y-54018061D01*
X54065000Y-54018061D01*
X54065000Y-54221939D01*
X54104774Y-54421898D01*
X54182795Y-54610256D01*
X54296063Y-54779774D01*
X54440226Y-54923937D01*
X54609744Y-55037205D01*
X54798102Y-55115226D01*
X54998061Y-55155000D01*
X55201939Y-55155000D01*
X55401898Y-55115226D01*
X55590256Y-55037205D01*
X55759774Y-54923937D01*
X55903937Y-54779774D01*
X56017205Y-54610256D01*
X56095226Y-54421898D01*
X56135000Y-54221939D01*
X56135000Y-54018061D01*
X56095226Y-53818102D01*
X56017205Y-53629744D01*
X55903937Y-53460226D01*
X55759774Y-53316063D01*
X55590256Y-53202795D01*
X55401898Y-53124774D01*
X55201939Y-53085000D01*
X54998061Y-53085000D01*
X54798102Y-53124774D01*
X54609744Y-53202795D01*
X54440226Y-53316063D01*
X54296063Y-53460226D01*
X54182795Y-53629744D01*
X54104774Y-53818102D01*
X54065000Y-54018061D01*
X50135000Y-54018061D01*
X50095226Y-53818102D01*
X50017205Y-53629744D01*
X49903937Y-53460226D01*
X49759774Y-53316063D01*
X49590256Y-53202795D01*
X49401898Y-53124774D01*
X49201939Y-53085000D01*
X48998061Y-53085000D01*
X48798102Y-53124774D01*
X48609744Y-53202795D01*
X48440226Y-53316063D01*
X48296063Y-53460226D01*
X48182795Y-53629744D01*
X48104774Y-53818102D01*
X48065000Y-54018061D01*
X20660000Y-54018061D01*
X20660000Y-51698061D01*
X65415000Y-51698061D01*
X65415000Y-51901939D01*
X65454774Y-52101898D01*
X65532795Y-52290256D01*
X65539306Y-52300000D01*
X65532795Y-52309744D01*
X65454774Y-52498102D01*
X65415000Y-52698061D01*
X65415000Y-52901939D01*
X65454774Y-53101898D01*
X65532795Y-53290256D01*
X65646063Y-53459774D01*
X65790226Y-53603937D01*
X65959744Y-53717205D01*
X66148102Y-53795226D01*
X66348061Y-53835000D01*
X66551939Y-53835000D01*
X66751898Y-53795226D01*
X66940256Y-53717205D01*
X67109774Y-53603937D01*
X67253937Y-53459774D01*
X67367205Y-53290256D01*
X67445226Y-53101898D01*
X67485000Y-52901939D01*
X67485000Y-52698061D01*
X67445226Y-52498102D01*
X67367205Y-52309744D01*
X67360694Y-52300000D01*
X67367205Y-52290256D01*
X67426104Y-52148061D01*
X69811685Y-52148061D01*
X69811685Y-52351939D01*
X69851459Y-52551898D01*
X69929480Y-52740256D01*
X70042748Y-52909774D01*
X70186911Y-53053937D01*
X70356429Y-53167205D01*
X70544787Y-53245226D01*
X70744746Y-53285000D01*
X70948624Y-53285000D01*
X71148583Y-53245226D01*
X71236276Y-53208902D01*
X71254774Y-53301898D01*
X71332795Y-53490256D01*
X71446063Y-53659774D01*
X71590226Y-53803937D01*
X71759744Y-53917205D01*
X71948102Y-53995226D01*
X72148061Y-54035000D01*
X72351939Y-54035000D01*
X72551898Y-53995226D01*
X72740256Y-53917205D01*
X72909774Y-53803937D01*
X73053937Y-53659774D01*
X73128581Y-53548061D01*
X80265000Y-53548061D01*
X80265000Y-53751939D01*
X80304774Y-53951898D01*
X80382795Y-54140256D01*
X80496063Y-54309774D01*
X80640226Y-54453937D01*
X80809744Y-54567205D01*
X80998102Y-54645226D01*
X81198061Y-54685000D01*
X81401939Y-54685000D01*
X81601898Y-54645226D01*
X81790256Y-54567205D01*
X81959774Y-54453937D01*
X82103937Y-54309774D01*
X82217205Y-54140256D01*
X82295226Y-53951898D01*
X82335000Y-53751939D01*
X82335000Y-53548061D01*
X82295226Y-53348102D01*
X82217205Y-53159744D01*
X82103937Y-52990226D01*
X81959774Y-52846063D01*
X81790256Y-52732795D01*
X81601898Y-52654774D01*
X81401939Y-52615000D01*
X81198061Y-52615000D01*
X80998102Y-52654774D01*
X80809744Y-52732795D01*
X80640226Y-52846063D01*
X80496063Y-52990226D01*
X80382795Y-53159744D01*
X80304774Y-53348102D01*
X80265000Y-53548061D01*
X73128581Y-53548061D01*
X73167205Y-53490256D01*
X73245226Y-53301898D01*
X73285000Y-53101939D01*
X73285000Y-52898061D01*
X73245226Y-52698102D01*
X73167205Y-52509744D01*
X73093877Y-52400000D01*
X73167205Y-52290256D01*
X73245226Y-52101898D01*
X73285000Y-51901939D01*
X73285000Y-51798061D01*
X81465000Y-51798061D01*
X81465000Y-52001939D01*
X81504774Y-52201898D01*
X81582795Y-52390256D01*
X81696063Y-52559774D01*
X81840226Y-52703937D01*
X82009744Y-52817205D01*
X82198102Y-52895226D01*
X82398061Y-52935000D01*
X82601939Y-52935000D01*
X82801898Y-52895226D01*
X82990256Y-52817205D01*
X83159774Y-52703937D01*
X83303937Y-52559774D01*
X83417205Y-52390256D01*
X83495226Y-52201898D01*
X83522456Y-52065000D01*
X83541939Y-52065000D01*
X83741898Y-52025226D01*
X83930256Y-51947205D01*
X84099774Y-51833937D01*
X84243937Y-51689774D01*
X84357205Y-51520256D01*
X84435226Y-51331898D01*
X84475000Y-51131939D01*
X84475000Y-50928061D01*
X84435226Y-50728102D01*
X84357205Y-50539744D01*
X84243937Y-50370226D01*
X84099774Y-50226063D01*
X83930256Y-50112795D01*
X83741898Y-50034774D01*
X83541939Y-49995000D01*
X83338061Y-49995000D01*
X83138102Y-50034774D01*
X82949744Y-50112795D01*
X82780226Y-50226063D01*
X82636063Y-50370226D01*
X82522795Y-50539744D01*
X82444774Y-50728102D01*
X82417544Y-50865000D01*
X82398061Y-50865000D01*
X82198102Y-50904774D01*
X82009744Y-50982795D01*
X81840226Y-51096063D01*
X81696063Y-51240226D01*
X81582795Y-51409744D01*
X81504774Y-51598102D01*
X81465000Y-51798061D01*
X73285000Y-51798061D01*
X73285000Y-51698061D01*
X73245226Y-51498102D01*
X73167205Y-51309744D01*
X73053937Y-51140226D01*
X72909774Y-50996063D01*
X72740256Y-50882795D01*
X72551898Y-50804774D01*
X72351939Y-50765000D01*
X72148061Y-50765000D01*
X71948102Y-50804774D01*
X71759744Y-50882795D01*
X71590226Y-50996063D01*
X71446063Y-51140226D01*
X71332795Y-51309744D01*
X71325252Y-51327953D01*
X71148583Y-51254774D01*
X70948624Y-51215000D01*
X70744746Y-51215000D01*
X70544787Y-51254774D01*
X70356429Y-51332795D01*
X70186911Y-51446063D01*
X70042748Y-51590226D01*
X69929480Y-51759744D01*
X69851459Y-51948102D01*
X69811685Y-52148061D01*
X67426104Y-52148061D01*
X67445226Y-52101898D01*
X67485000Y-51901939D01*
X67485000Y-51698061D01*
X67445226Y-51498102D01*
X67367205Y-51309744D01*
X67253937Y-51140226D01*
X67109774Y-50996063D01*
X66940256Y-50882795D01*
X66751898Y-50804774D01*
X66551939Y-50765000D01*
X66348061Y-50765000D01*
X66148102Y-50804774D01*
X65959744Y-50882795D01*
X65790226Y-50996063D01*
X65646063Y-51140226D01*
X65532795Y-51309744D01*
X65454774Y-51498102D01*
X65415000Y-51698061D01*
X20660000Y-51698061D01*
X20660000Y-50188212D01*
X29665000Y-50188212D01*
X29665000Y-50411788D01*
X29708617Y-50631067D01*
X29794176Y-50837624D01*
X29918388Y-51023520D01*
X30076480Y-51181612D01*
X30262376Y-51305824D01*
X30468933Y-51391383D01*
X30688212Y-51435000D01*
X30911788Y-51435000D01*
X31131067Y-51391383D01*
X31337624Y-51305824D01*
X31500000Y-51197328D01*
X31662376Y-51305824D01*
X31868933Y-51391383D01*
X32088212Y-51435000D01*
X32311788Y-51435000D01*
X32531067Y-51391383D01*
X32737624Y-51305824D01*
X32923520Y-51181612D01*
X33081612Y-51023520D01*
X33205824Y-50837624D01*
X33291383Y-50631067D01*
X33335000Y-50411788D01*
X33335000Y-50188212D01*
X33300995Y-50017256D01*
X33431067Y-49991383D01*
X33637624Y-49905824D01*
X33823520Y-49781612D01*
X33981612Y-49623520D01*
X34105824Y-49437624D01*
X34191383Y-49231067D01*
X34235000Y-49011788D01*
X34235000Y-48788212D01*
X34191383Y-48568933D01*
X34105824Y-48362376D01*
X33981612Y-48176480D01*
X33823520Y-48018388D01*
X33637624Y-47894176D01*
X33431067Y-47808617D01*
X33211788Y-47765000D01*
X32988212Y-47765000D01*
X32768933Y-47808617D01*
X32562376Y-47894176D01*
X32376480Y-48018388D01*
X32218388Y-48176480D01*
X32094176Y-48362376D01*
X32008617Y-48568933D01*
X31965000Y-48788212D01*
X31965000Y-49011788D01*
X31999005Y-49182744D01*
X31868933Y-49208617D01*
X31662376Y-49294176D01*
X31500000Y-49402672D01*
X31337624Y-49294176D01*
X31131067Y-49208617D01*
X30911788Y-49165000D01*
X30688212Y-49165000D01*
X30468933Y-49208617D01*
X30262376Y-49294176D01*
X30076480Y-49418388D01*
X29918388Y-49576480D01*
X29794176Y-49762376D01*
X29708617Y-49968933D01*
X29665000Y-50188212D01*
X20660000Y-50188212D01*
X20660000Y-48358212D01*
X21025000Y-48358212D01*
X21025000Y-48581788D01*
X21068617Y-48801067D01*
X21154176Y-49007624D01*
X21278388Y-49193520D01*
X21436480Y-49351612D01*
X21622376Y-49475824D01*
X21828933Y-49561383D01*
X22048212Y-49605000D01*
X22271788Y-49605000D01*
X22491067Y-49561383D01*
X22697624Y-49475824D01*
X22760000Y-49434146D01*
X22822376Y-49475824D01*
X23028933Y-49561383D01*
X23248212Y-49605000D01*
X23471788Y-49605000D01*
X23691067Y-49561383D01*
X23897624Y-49475824D01*
X23950000Y-49440827D01*
X24002376Y-49475824D01*
X24208933Y-49561383D01*
X24428212Y-49605000D01*
X24651788Y-49605000D01*
X24871067Y-49561383D01*
X25077624Y-49475824D01*
X25263520Y-49351612D01*
X25421612Y-49193520D01*
X25545824Y-49007624D01*
X25631383Y-48801067D01*
X25675000Y-48581788D01*
X25675000Y-48358212D01*
X25631383Y-48138933D01*
X25545824Y-47932376D01*
X25421612Y-47746480D01*
X25263520Y-47588388D01*
X25077624Y-47464176D01*
X24871067Y-47378617D01*
X24651788Y-47335000D01*
X24428212Y-47335000D01*
X24208933Y-47378617D01*
X24002376Y-47464176D01*
X23950000Y-47499173D01*
X23897624Y-47464176D01*
X23691067Y-47378617D01*
X23471788Y-47335000D01*
X23248212Y-47335000D01*
X23028933Y-47378617D01*
X22822376Y-47464176D01*
X22760000Y-47505854D01*
X22697624Y-47464176D01*
X22491067Y-47378617D01*
X22271788Y-47335000D01*
X22048212Y-47335000D01*
X21828933Y-47378617D01*
X21622376Y-47464176D01*
X21436480Y-47588388D01*
X21278388Y-47746480D01*
X21154176Y-47932376D01*
X21068617Y-48138933D01*
X21025000Y-48358212D01*
X20660000Y-48358212D01*
X20660000Y-45528212D01*
X37445000Y-45528212D01*
X37445000Y-45751788D01*
X37488617Y-45971067D01*
X37574176Y-46177624D01*
X37619195Y-46245000D01*
X37574176Y-46312376D01*
X37488617Y-46518933D01*
X37445000Y-46738212D01*
X37445000Y-46961788D01*
X37488617Y-47181067D01*
X37574176Y-47387624D01*
X37698388Y-47573520D01*
X37856480Y-47731612D01*
X38042376Y-47855824D01*
X38248933Y-47941383D01*
X38468212Y-47985000D01*
X38691788Y-47985000D01*
X38911067Y-47941383D01*
X38992624Y-47907601D01*
X38976480Y-47918388D01*
X38818388Y-48076480D01*
X38694176Y-48262376D01*
X38608617Y-48468933D01*
X38565000Y-48688212D01*
X38565000Y-48911788D01*
X38608617Y-49131067D01*
X38694176Y-49337624D01*
X38818388Y-49523520D01*
X38976480Y-49681612D01*
X39162376Y-49805824D01*
X39368933Y-49891383D01*
X39588212Y-49935000D01*
X39811788Y-49935000D01*
X40031067Y-49891383D01*
X40237624Y-49805824D01*
X40250000Y-49797555D01*
X40262376Y-49805824D01*
X40468933Y-49891383D01*
X40688212Y-49935000D01*
X40911788Y-49935000D01*
X41131067Y-49891383D01*
X41337624Y-49805824D01*
X41400000Y-49764146D01*
X41462376Y-49805824D01*
X41668933Y-49891383D01*
X41888212Y-49935000D01*
X42065000Y-49935000D01*
X42065000Y-50111788D01*
X42108617Y-50331067D01*
X42194176Y-50537624D01*
X42318388Y-50723520D01*
X42476480Y-50881612D01*
X42662376Y-51005824D01*
X42868933Y-51091383D01*
X43088212Y-51135000D01*
X43311788Y-51135000D01*
X43531067Y-51091383D01*
X43737624Y-51005824D01*
X43923520Y-50881612D01*
X44081612Y-50723520D01*
X44205824Y-50537624D01*
X44291383Y-50331067D01*
X44335000Y-50111788D01*
X44335000Y-49888212D01*
X44291383Y-49668933D01*
X44205824Y-49462376D01*
X44164146Y-49400000D01*
X44205824Y-49337624D01*
X44291383Y-49131067D01*
X44335000Y-48911788D01*
X44335000Y-48688212D01*
X44291383Y-48468933D01*
X44205824Y-48262376D01*
X44081612Y-48076480D01*
X43923520Y-47918388D01*
X43737624Y-47794176D01*
X43531067Y-47708617D01*
X43311788Y-47665000D01*
X43088212Y-47665000D01*
X42868933Y-47708617D01*
X42662376Y-47794176D01*
X42600000Y-47835854D01*
X42537624Y-47794176D01*
X42331067Y-47708617D01*
X42111788Y-47665000D01*
X41888212Y-47665000D01*
X41668933Y-47708617D01*
X41462376Y-47794176D01*
X41400000Y-47835854D01*
X41337624Y-47794176D01*
X41131067Y-47708617D01*
X40911788Y-47665000D01*
X40688212Y-47665000D01*
X40468933Y-47708617D01*
X40262376Y-47794176D01*
X40250000Y-47802445D01*
X40237624Y-47794176D01*
X40031067Y-47708617D01*
X39811788Y-47665000D01*
X39588212Y-47665000D01*
X39368933Y-47708617D01*
X39287376Y-47742399D01*
X39303520Y-47731612D01*
X39461612Y-47573520D01*
X39512032Y-47498061D01*
X50265000Y-47498061D01*
X50265000Y-47701939D01*
X50304774Y-47901898D01*
X50382795Y-48090256D01*
X50496063Y-48259774D01*
X50640226Y-48403937D01*
X50809744Y-48517205D01*
X50998102Y-48595226D01*
X51198061Y-48635000D01*
X51401939Y-48635000D01*
X51601898Y-48595226D01*
X51790256Y-48517205D01*
X51959774Y-48403937D01*
X52103937Y-48259774D01*
X52217205Y-48090256D01*
X52295226Y-47901898D01*
X52295989Y-47898061D01*
X74215000Y-47898061D01*
X74215000Y-48101939D01*
X74254774Y-48301898D01*
X74332795Y-48490256D01*
X74446063Y-48659774D01*
X74590226Y-48803937D01*
X74759744Y-48917205D01*
X74948102Y-48995226D01*
X75148061Y-49035000D01*
X75351939Y-49035000D01*
X75551898Y-48995226D01*
X75740256Y-48917205D01*
X75909774Y-48803937D01*
X76053937Y-48659774D01*
X76167205Y-48490256D01*
X76245226Y-48301898D01*
X76285000Y-48101939D01*
X76285000Y-47898061D01*
X76245226Y-47698102D01*
X76167205Y-47509744D01*
X76053937Y-47340226D01*
X75909774Y-47196063D01*
X75740256Y-47082795D01*
X75551898Y-47004774D01*
X75351939Y-46965000D01*
X75148061Y-46965000D01*
X74948102Y-47004774D01*
X74759744Y-47082795D01*
X74590226Y-47196063D01*
X74446063Y-47340226D01*
X74332795Y-47509744D01*
X74254774Y-47698102D01*
X74215000Y-47898061D01*
X52295989Y-47898061D01*
X52335000Y-47701939D01*
X52335000Y-47498061D01*
X52295226Y-47298102D01*
X52217205Y-47109744D01*
X52103937Y-46940226D01*
X51959774Y-46796063D01*
X51790256Y-46682795D01*
X51601898Y-46604774D01*
X51401939Y-46565000D01*
X51198061Y-46565000D01*
X50998102Y-46604774D01*
X50809744Y-46682795D01*
X50640226Y-46796063D01*
X50496063Y-46940226D01*
X50382795Y-47109744D01*
X50304774Y-47298102D01*
X50265000Y-47498061D01*
X39512032Y-47498061D01*
X39585824Y-47387624D01*
X39671383Y-47181067D01*
X39715000Y-46961788D01*
X39715000Y-46738212D01*
X39671383Y-46518933D01*
X39585824Y-46312376D01*
X39540805Y-46245000D01*
X39585824Y-46177624D01*
X39639490Y-46048061D01*
X48625000Y-46048061D01*
X48625000Y-46251939D01*
X48664774Y-46451898D01*
X48742795Y-46640256D01*
X48856063Y-46809774D01*
X49000226Y-46953937D01*
X49169744Y-47067205D01*
X49358102Y-47145226D01*
X49558061Y-47185000D01*
X49761939Y-47185000D01*
X49961898Y-47145226D01*
X50150256Y-47067205D01*
X50319774Y-46953937D01*
X50463937Y-46809774D01*
X50577205Y-46640256D01*
X50655226Y-46451898D01*
X50695000Y-46251939D01*
X50695000Y-46048061D01*
X50655226Y-45848102D01*
X50577205Y-45659744D01*
X50463937Y-45490226D01*
X50319774Y-45346063D01*
X50150256Y-45232795D01*
X49961898Y-45154774D01*
X49761939Y-45115000D01*
X49558061Y-45115000D01*
X49358102Y-45154774D01*
X49169744Y-45232795D01*
X49000226Y-45346063D01*
X48856063Y-45490226D01*
X48742795Y-45659744D01*
X48664774Y-45848102D01*
X48625000Y-46048061D01*
X39639490Y-46048061D01*
X39671383Y-45971067D01*
X39715000Y-45751788D01*
X39715000Y-45528212D01*
X39671383Y-45308933D01*
X39585824Y-45102376D01*
X39461612Y-44916480D01*
X39303520Y-44758388D01*
X39117624Y-44634176D01*
X38911067Y-44548617D01*
X38691788Y-44505000D01*
X38468212Y-44505000D01*
X38248933Y-44548617D01*
X38042376Y-44634176D01*
X37856480Y-44758388D01*
X37698388Y-44916480D01*
X37574176Y-45102376D01*
X37488617Y-45308933D01*
X37445000Y-45528212D01*
X20660000Y-45528212D01*
X20660000Y-42598061D01*
X31415000Y-42598061D01*
X31415000Y-42801939D01*
X31454774Y-43001898D01*
X31532795Y-43190256D01*
X31646063Y-43359774D01*
X31790226Y-43503937D01*
X31959744Y-43617205D01*
X32148102Y-43695226D01*
X32348061Y-43735000D01*
X32551939Y-43735000D01*
X32751898Y-43695226D01*
X32940256Y-43617205D01*
X33109774Y-43503937D01*
X33253937Y-43359774D01*
X33367205Y-43190256D01*
X33445226Y-43001898D01*
X33485000Y-42801939D01*
X33485000Y-42598061D01*
X33445226Y-42398102D01*
X33367205Y-42209744D01*
X33253937Y-42040226D01*
X33109774Y-41896063D01*
X32940256Y-41782795D01*
X32751898Y-41704774D01*
X32551939Y-41665000D01*
X32348061Y-41665000D01*
X32148102Y-41704774D01*
X31959744Y-41782795D01*
X31790226Y-41896063D01*
X31646063Y-42040226D01*
X31532795Y-42209744D01*
X31454774Y-42398102D01*
X31415000Y-42598061D01*
X20660000Y-42598061D01*
X20660000Y-40613212D01*
X37115000Y-40613212D01*
X37115000Y-40836788D01*
X37158617Y-41056067D01*
X37244176Y-41262624D01*
X37368388Y-41448520D01*
X37526480Y-41606612D01*
X37712376Y-41730824D01*
X37918933Y-41816383D01*
X38138212Y-41860000D01*
X38361788Y-41860000D01*
X38581067Y-41816383D01*
X38787624Y-41730824D01*
X38973520Y-41606612D01*
X39131612Y-41448520D01*
X39255824Y-41262624D01*
X39341383Y-41056067D01*
X39385000Y-40836788D01*
X39385000Y-40613212D01*
X39362096Y-40498061D01*
X51265000Y-40498061D01*
X51265000Y-40701939D01*
X51304774Y-40901898D01*
X51382795Y-41090256D01*
X51496063Y-41259774D01*
X51640226Y-41403937D01*
X51809744Y-41517205D01*
X51998102Y-41595226D01*
X52198061Y-41635000D01*
X52401939Y-41635000D01*
X52601898Y-41595226D01*
X52790256Y-41517205D01*
X52959774Y-41403937D01*
X53103937Y-41259774D01*
X53217205Y-41090256D01*
X53295226Y-40901898D01*
X53335000Y-40701939D01*
X53335000Y-40498061D01*
X53295226Y-40298102D01*
X53217205Y-40109744D01*
X53103937Y-39940226D01*
X52959774Y-39796063D01*
X52790256Y-39682795D01*
X52601898Y-39604774D01*
X52401939Y-39565000D01*
X52198061Y-39565000D01*
X51998102Y-39604774D01*
X51809744Y-39682795D01*
X51640226Y-39796063D01*
X51496063Y-39940226D01*
X51382795Y-40109744D01*
X51304774Y-40298102D01*
X51265000Y-40498061D01*
X39362096Y-40498061D01*
X39341383Y-40393933D01*
X39255824Y-40187376D01*
X39131612Y-40001480D01*
X38973520Y-39843388D01*
X38787624Y-39719176D01*
X38581067Y-39633617D01*
X38361788Y-39590000D01*
X38138212Y-39590000D01*
X37918933Y-39633617D01*
X37712376Y-39719176D01*
X37526480Y-39843388D01*
X37368388Y-40001480D01*
X37244176Y-40187376D01*
X37158617Y-40393933D01*
X37115000Y-40613212D01*
X20660000Y-40613212D01*
X20660000Y-39298061D01*
X26665000Y-39298061D01*
X26665000Y-39501939D01*
X26704774Y-39701898D01*
X26782795Y-39890256D01*
X26896063Y-40059774D01*
X27040226Y-40203937D01*
X27209744Y-40317205D01*
X27398102Y-40395226D01*
X27598061Y-40435000D01*
X27801939Y-40435000D01*
X28001898Y-40395226D01*
X28190256Y-40317205D01*
X28200000Y-40310694D01*
X28209744Y-40317205D01*
X28398102Y-40395226D01*
X28598061Y-40435000D01*
X28801939Y-40435000D01*
X29001898Y-40395226D01*
X29190256Y-40317205D01*
X29359774Y-40203937D01*
X29503937Y-40059774D01*
X29617205Y-39890256D01*
X29695226Y-39701898D01*
X29735000Y-39501939D01*
X29735000Y-39298061D01*
X29695226Y-39098102D01*
X29617205Y-38909744D01*
X29503937Y-38740226D01*
X29359774Y-38596063D01*
X29190256Y-38482795D01*
X29001898Y-38404774D01*
X28801939Y-38365000D01*
X28598061Y-38365000D01*
X28398102Y-38404774D01*
X28209744Y-38482795D01*
X28200000Y-38489306D01*
X28190256Y-38482795D01*
X28001898Y-38404774D01*
X27801939Y-38365000D01*
X27598061Y-38365000D01*
X27398102Y-38404774D01*
X27209744Y-38482795D01*
X27040226Y-38596063D01*
X26896063Y-38740226D01*
X26782795Y-38909744D01*
X26704774Y-39098102D01*
X26665000Y-39298061D01*
X20660000Y-39298061D01*
X20660000Y-38044746D01*
X56465000Y-38044746D01*
X56465000Y-38248624D01*
X56504774Y-38448583D01*
X56582795Y-38636941D01*
X56696063Y-38806459D01*
X56840226Y-38950622D01*
X56987357Y-39048932D01*
X56946063Y-39090226D01*
X56832795Y-39259744D01*
X56754774Y-39448102D01*
X56715000Y-39648061D01*
X56715000Y-39851939D01*
X56754774Y-40051898D01*
X56832795Y-40240256D01*
X56839306Y-40250000D01*
X56832795Y-40259744D01*
X56754774Y-40448102D01*
X56715000Y-40648061D01*
X56715000Y-40851939D01*
X56754774Y-41051898D01*
X56832795Y-41240256D01*
X56839306Y-41250000D01*
X56832795Y-41259744D01*
X56754774Y-41448102D01*
X56715000Y-41648061D01*
X56715000Y-41851939D01*
X56754774Y-42051898D01*
X56832795Y-42240256D01*
X56839306Y-42250000D01*
X56832795Y-42259744D01*
X56754774Y-42448102D01*
X56715000Y-42648061D01*
X56715000Y-42851939D01*
X56754774Y-43051898D01*
X56832795Y-43240256D01*
X56839306Y-43250000D01*
X56832795Y-43259744D01*
X56754774Y-43448102D01*
X56715000Y-43648061D01*
X56715000Y-43851939D01*
X56754774Y-44051898D01*
X56832795Y-44240256D01*
X56839306Y-44250000D01*
X56832795Y-44259744D01*
X56754774Y-44448102D01*
X56715000Y-44648061D01*
X56715000Y-44851939D01*
X56754774Y-45051898D01*
X56832795Y-45240256D01*
X56839306Y-45250000D01*
X56832795Y-45259744D01*
X56754774Y-45448102D01*
X56715000Y-45648061D01*
X56715000Y-45851939D01*
X56754774Y-46051898D01*
X56832795Y-46240256D01*
X56839306Y-46250000D01*
X56832795Y-46259744D01*
X56754774Y-46448102D01*
X56715000Y-46648061D01*
X56715000Y-46851939D01*
X56754774Y-47051898D01*
X56832795Y-47240256D01*
X56946063Y-47409774D01*
X57090226Y-47553937D01*
X57259744Y-47667205D01*
X57448102Y-47745226D01*
X57648061Y-47785000D01*
X57851939Y-47785000D01*
X58051898Y-47745226D01*
X58240256Y-47667205D01*
X58250000Y-47660694D01*
X58259744Y-47667205D01*
X58448102Y-47745226D01*
X58648061Y-47785000D01*
X58851939Y-47785000D01*
X59051898Y-47745226D01*
X59240256Y-47667205D01*
X59250000Y-47660694D01*
X59259744Y-47667205D01*
X59448102Y-47745226D01*
X59648061Y-47785000D01*
X59851939Y-47785000D01*
X60051898Y-47745226D01*
X60240256Y-47667205D01*
X60250000Y-47660694D01*
X60259744Y-47667205D01*
X60448102Y-47745226D01*
X60648061Y-47785000D01*
X60851939Y-47785000D01*
X61051898Y-47745226D01*
X61240256Y-47667205D01*
X61409774Y-47553937D01*
X61553937Y-47409774D01*
X61667205Y-47240256D01*
X61745226Y-47051898D01*
X61785000Y-46851939D01*
X61785000Y-46648061D01*
X61745226Y-46448102D01*
X61667205Y-46259744D01*
X61578509Y-46127000D01*
X63250000Y-46127000D01*
X63274776Y-46124560D01*
X63298601Y-46117333D01*
X63320557Y-46105597D01*
X63339803Y-46089803D01*
X63355597Y-46070557D01*
X63367333Y-46048601D01*
X63374560Y-46024776D01*
X63377000Y-46000000D01*
X63377000Y-44627000D01*
X65750000Y-44627000D01*
X65774776Y-44624560D01*
X65798601Y-44617333D01*
X65820557Y-44605597D01*
X65839803Y-44589803D01*
X65855597Y-44570557D01*
X65867333Y-44548601D01*
X65874560Y-44524776D01*
X65877000Y-44500000D01*
X65877000Y-43027000D01*
X67600000Y-43027000D01*
X67624776Y-43024560D01*
X67648601Y-43017333D01*
X67670557Y-43005597D01*
X67674010Y-43002763D01*
X67665000Y-43048061D01*
X67665000Y-43134343D01*
X67499744Y-43202795D01*
X67330226Y-43316063D01*
X67186063Y-43460226D01*
X67072795Y-43629744D01*
X66994774Y-43818102D01*
X66955000Y-44018061D01*
X66955000Y-44221939D01*
X66994774Y-44421898D01*
X67060262Y-44580000D01*
X66994774Y-44738102D01*
X66955000Y-44938061D01*
X66955000Y-45141939D01*
X66994774Y-45341898D01*
X67072795Y-45530256D01*
X67186063Y-45699774D01*
X67330226Y-45843937D01*
X67499744Y-45957205D01*
X67688102Y-46035226D01*
X67888061Y-46075000D01*
X68091939Y-46075000D01*
X68291898Y-46035226D01*
X68480256Y-45957205D01*
X68649774Y-45843937D01*
X68793937Y-45699774D01*
X68907205Y-45530256D01*
X68985226Y-45341898D01*
X69018809Y-45173061D01*
X84065000Y-45173061D01*
X84065000Y-45376939D01*
X84104774Y-45576898D01*
X84182795Y-45765256D01*
X84296063Y-45934774D01*
X84440226Y-46078937D01*
X84609744Y-46192205D01*
X84798102Y-46270226D01*
X84998061Y-46310000D01*
X85115000Y-46310000D01*
X85115000Y-46401939D01*
X85154774Y-46601898D01*
X85232795Y-46790256D01*
X85346063Y-46959774D01*
X85490226Y-47103937D01*
X85659744Y-47217205D01*
X85848102Y-47295226D01*
X86048061Y-47335000D01*
X86251939Y-47335000D01*
X86451898Y-47295226D01*
X86640256Y-47217205D01*
X86809774Y-47103937D01*
X86953937Y-46959774D01*
X87067205Y-46790256D01*
X87145226Y-46601898D01*
X87185000Y-46401939D01*
X87185000Y-46198061D01*
X87145226Y-45998102D01*
X87067205Y-45809744D01*
X86953937Y-45640226D01*
X86809774Y-45496063D01*
X86640256Y-45382795D01*
X86451898Y-45304774D01*
X86251939Y-45265000D01*
X86135000Y-45265000D01*
X86135000Y-45173061D01*
X86095226Y-44973102D01*
X86017205Y-44784744D01*
X85903937Y-44615226D01*
X85759774Y-44471063D01*
X85590256Y-44357795D01*
X85401898Y-44279774D01*
X85201939Y-44240000D01*
X84998061Y-44240000D01*
X84798102Y-44279774D01*
X84609744Y-44357795D01*
X84440226Y-44471063D01*
X84296063Y-44615226D01*
X84182795Y-44784744D01*
X84104774Y-44973102D01*
X84065000Y-45173061D01*
X69018809Y-45173061D01*
X69025000Y-45141939D01*
X69025000Y-44938061D01*
X68985226Y-44738102D01*
X68919738Y-44580000D01*
X68985226Y-44421898D01*
X69025000Y-44221939D01*
X69025000Y-44135657D01*
X69190256Y-44067205D01*
X69359774Y-43953937D01*
X69503937Y-43809774D01*
X69617205Y-43640256D01*
X69695226Y-43451898D01*
X69735000Y-43251939D01*
X69735000Y-43048061D01*
X69695226Y-42848102D01*
X69617205Y-42659744D01*
X69503937Y-42490226D01*
X69359774Y-42346063D01*
X69190256Y-42232795D01*
X69001898Y-42154774D01*
X68801939Y-42115000D01*
X68796382Y-42115000D01*
X68860089Y-42102328D01*
X69029096Y-42032323D01*
X69198102Y-42102328D01*
X69398061Y-42142102D01*
X69601939Y-42142102D01*
X69801898Y-42102328D01*
X69990256Y-42024307D01*
X70159774Y-41911039D01*
X70303937Y-41766876D01*
X70417205Y-41597358D01*
X70495226Y-41409000D01*
X70535000Y-41209041D01*
X70535000Y-41005163D01*
X70495226Y-40805204D01*
X70417205Y-40616846D01*
X70303937Y-40447328D01*
X70159774Y-40303165D01*
X69990256Y-40189897D01*
X69801898Y-40111876D01*
X69601939Y-40072102D01*
X69398061Y-40072102D01*
X69198102Y-40111876D01*
X69029096Y-40181881D01*
X68860089Y-40111876D01*
X68660130Y-40072102D01*
X68456252Y-40072102D01*
X68256293Y-40111876D01*
X68067935Y-40189897D01*
X67898417Y-40303165D01*
X67754254Y-40447328D01*
X67640986Y-40616846D01*
X67562965Y-40805204D01*
X67523191Y-41005163D01*
X67523191Y-41073000D01*
X63427000Y-41073000D01*
X63427000Y-38200000D01*
X63424560Y-38175224D01*
X63417333Y-38151399D01*
X63405597Y-38129443D01*
X63389803Y-38110197D01*
X63370557Y-38094403D01*
X63348601Y-38082667D01*
X63324776Y-38075440D01*
X63300000Y-38073000D01*
X58535000Y-38073000D01*
X58535000Y-38044746D01*
X58495226Y-37844787D01*
X58417205Y-37656429D01*
X58303937Y-37486911D01*
X58159774Y-37342748D01*
X57990256Y-37229480D01*
X57801898Y-37151459D01*
X57601939Y-37111685D01*
X57398061Y-37111685D01*
X57198102Y-37151459D01*
X57009744Y-37229480D01*
X56840226Y-37342748D01*
X56696063Y-37486911D01*
X56582795Y-37656429D01*
X56504774Y-37844787D01*
X56465000Y-38044746D01*
X20660000Y-38044746D01*
X20660000Y-36498061D01*
X63165000Y-36498061D01*
X63165000Y-36701939D01*
X63204774Y-36901898D01*
X63282795Y-37090256D01*
X63396063Y-37259774D01*
X63540226Y-37403937D01*
X63709744Y-37517205D01*
X63853488Y-37576746D01*
X63882761Y-37723911D01*
X63960782Y-37912269D01*
X64074050Y-38081787D01*
X64218213Y-38225950D01*
X64387731Y-38339218D01*
X64576089Y-38417239D01*
X64776048Y-38457013D01*
X64979926Y-38457013D01*
X65179885Y-38417239D01*
X65368243Y-38339218D01*
X65537761Y-38225950D01*
X65681924Y-38081787D01*
X65795192Y-37912269D01*
X65873213Y-37723911D01*
X65912987Y-37523952D01*
X65912987Y-37398061D01*
X66765000Y-37398061D01*
X66765000Y-37601939D01*
X66804774Y-37801898D01*
X66882795Y-37990256D01*
X66996063Y-38159774D01*
X67140226Y-38303937D01*
X67309744Y-38417205D01*
X67498102Y-38495226D01*
X67698061Y-38535000D01*
X67901939Y-38535000D01*
X68101898Y-38495226D01*
X68290256Y-38417205D01*
X68459774Y-38303937D01*
X68603937Y-38159774D01*
X68717205Y-37990256D01*
X68795226Y-37801898D01*
X68835000Y-37601939D01*
X68835000Y-37398061D01*
X68795226Y-37198102D01*
X68717205Y-37009744D01*
X68603937Y-36840226D01*
X68521366Y-36757655D01*
X68609744Y-36816707D01*
X68798102Y-36894728D01*
X68998061Y-36934502D01*
X69201939Y-36934502D01*
X69401898Y-36894728D01*
X69590256Y-36816707D01*
X69759774Y-36703439D01*
X69903937Y-36559276D01*
X70017205Y-36389758D01*
X70095226Y-36201400D01*
X70120754Y-36073061D01*
X70565000Y-36073061D01*
X70565000Y-36276939D01*
X70604774Y-36476898D01*
X70682795Y-36665256D01*
X70796063Y-36834774D01*
X70940226Y-36978937D01*
X71109744Y-37092205D01*
X71298102Y-37170226D01*
X71498061Y-37210000D01*
X71701939Y-37210000D01*
X71901898Y-37170226D01*
X72090256Y-37092205D01*
X72259774Y-36978937D01*
X72403937Y-36834774D01*
X72517205Y-36665256D01*
X72595226Y-36476898D01*
X72635000Y-36276939D01*
X72635000Y-36073061D01*
X72595226Y-35873102D01*
X72517205Y-35684744D01*
X72403937Y-35515226D01*
X72259774Y-35371063D01*
X72090256Y-35257795D01*
X71901898Y-35179774D01*
X71701939Y-35140000D01*
X71498061Y-35140000D01*
X71298102Y-35179774D01*
X71109744Y-35257795D01*
X70940226Y-35371063D01*
X70796063Y-35515226D01*
X70682795Y-35684744D01*
X70604774Y-35873102D01*
X70565000Y-36073061D01*
X70120754Y-36073061D01*
X70135000Y-36001441D01*
X70135000Y-35797563D01*
X70095226Y-35597604D01*
X70017205Y-35409246D01*
X69903937Y-35239728D01*
X69772270Y-35108061D01*
X84355000Y-35108061D01*
X84355000Y-35311939D01*
X84394774Y-35511898D01*
X84472795Y-35700256D01*
X84586063Y-35869774D01*
X84730226Y-36013937D01*
X84899744Y-36127205D01*
X85088102Y-36205226D01*
X85288061Y-36245000D01*
X85491939Y-36245000D01*
X85691898Y-36205226D01*
X85880256Y-36127205D01*
X86049774Y-36013937D01*
X86193937Y-35869774D01*
X86307205Y-35700256D01*
X86385226Y-35511898D01*
X86425000Y-35311939D01*
X86425000Y-35108061D01*
X86385226Y-34908102D01*
X86307205Y-34719744D01*
X86210491Y-34575000D01*
X92886928Y-34575000D01*
X92886928Y-36975000D01*
X92899188Y-37099482D01*
X92935498Y-37219180D01*
X92994463Y-37329494D01*
X93073815Y-37426185D01*
X93170506Y-37505537D01*
X93280820Y-37564502D01*
X93400518Y-37600812D01*
X93525000Y-37613072D01*
X95925000Y-37613072D01*
X96049482Y-37600812D01*
X96169180Y-37564502D01*
X96279494Y-37505537D01*
X96376185Y-37426185D01*
X96455537Y-37329494D01*
X96514502Y-37219180D01*
X96550812Y-37099482D01*
X96563072Y-36975000D01*
X96563072Y-34575000D01*
X96550812Y-34450518D01*
X96514502Y-34330820D01*
X96455537Y-34220506D01*
X96376185Y-34123815D01*
X96279494Y-34044463D01*
X96169180Y-33985498D01*
X96049482Y-33949188D01*
X95925000Y-33936928D01*
X95507838Y-33936928D01*
X95594199Y-33901156D01*
X95894744Y-33700338D01*
X96150338Y-33444744D01*
X96351156Y-33144199D01*
X96489482Y-32810250D01*
X96560000Y-32455732D01*
X96560000Y-32094268D01*
X96489482Y-31739750D01*
X96351156Y-31405801D01*
X96150338Y-31105256D01*
X95894744Y-30849662D01*
X95594199Y-30648844D01*
X95260250Y-30510518D01*
X94905732Y-30440000D01*
X94544268Y-30440000D01*
X94189750Y-30510518D01*
X93855801Y-30648844D01*
X93555256Y-30849662D01*
X93299662Y-31105256D01*
X93098844Y-31405801D01*
X92960518Y-31739750D01*
X92890000Y-32094268D01*
X92890000Y-32455732D01*
X92960518Y-32810250D01*
X93098844Y-33144199D01*
X93299662Y-33444744D01*
X93555256Y-33700338D01*
X93855801Y-33901156D01*
X93942162Y-33936928D01*
X93525000Y-33936928D01*
X93400518Y-33949188D01*
X93280820Y-33985498D01*
X93170506Y-34044463D01*
X93073815Y-34123815D01*
X92994463Y-34220506D01*
X92935498Y-34330820D01*
X92899188Y-34450518D01*
X92886928Y-34575000D01*
X86210491Y-34575000D01*
X86193937Y-34550226D01*
X86049774Y-34406063D01*
X85880256Y-34292795D01*
X85691898Y-34214774D01*
X85491939Y-34175000D01*
X85288061Y-34175000D01*
X85088102Y-34214774D01*
X84899744Y-34292795D01*
X84730226Y-34406063D01*
X84586063Y-34550226D01*
X84472795Y-34719744D01*
X84394774Y-34908102D01*
X84355000Y-35108061D01*
X69772270Y-35108061D01*
X69759774Y-35095565D01*
X69590256Y-34982297D01*
X69401898Y-34904276D01*
X69201939Y-34864502D01*
X68998061Y-34864502D01*
X68798102Y-34904276D01*
X68609744Y-34982297D01*
X68440226Y-35095565D01*
X68296063Y-35239728D01*
X68182795Y-35409246D01*
X68104774Y-35597604D01*
X68065000Y-35797563D01*
X68065000Y-36001441D01*
X68104774Y-36201400D01*
X68182795Y-36389758D01*
X68296063Y-36559276D01*
X68378634Y-36641847D01*
X68290256Y-36582795D01*
X68101898Y-36504774D01*
X67901939Y-36465000D01*
X67698061Y-36465000D01*
X67498102Y-36504774D01*
X67309744Y-36582795D01*
X67140226Y-36696063D01*
X66996063Y-36840226D01*
X66882795Y-37009744D01*
X66804774Y-37198102D01*
X66765000Y-37398061D01*
X65912987Y-37398061D01*
X65912987Y-37320074D01*
X65873213Y-37120115D01*
X65795192Y-36931757D01*
X65681924Y-36762239D01*
X65537761Y-36618076D01*
X65368243Y-36504808D01*
X65224499Y-36445267D01*
X65195226Y-36298102D01*
X65117205Y-36109744D01*
X65003937Y-35940226D01*
X64859774Y-35796063D01*
X64690256Y-35682795D01*
X64501898Y-35604774D01*
X64301939Y-35565000D01*
X64098061Y-35565000D01*
X63898102Y-35604774D01*
X63709744Y-35682795D01*
X63540226Y-35796063D01*
X63396063Y-35940226D01*
X63282795Y-36109744D01*
X63204774Y-36298102D01*
X63165000Y-36498061D01*
X20660000Y-36498061D01*
X20660000Y-31398061D01*
X24965000Y-31398061D01*
X24965000Y-31601939D01*
X25004774Y-31801898D01*
X25082795Y-31990256D01*
X25089306Y-32000000D01*
X25082795Y-32009744D01*
X25004774Y-32198102D01*
X24965000Y-32398061D01*
X24965000Y-32601939D01*
X25004774Y-32801898D01*
X25082795Y-32990256D01*
X25089306Y-33000000D01*
X25082795Y-33009744D01*
X25004774Y-33198102D01*
X24965000Y-33398061D01*
X24965000Y-33601939D01*
X25004774Y-33801898D01*
X25082795Y-33990256D01*
X25196063Y-34159774D01*
X25340226Y-34303937D01*
X25509744Y-34417205D01*
X25698102Y-34495226D01*
X25898061Y-34535000D01*
X26101939Y-34535000D01*
X26301898Y-34495226D01*
X26490256Y-34417205D01*
X26500000Y-34410694D01*
X26509744Y-34417205D01*
X26698102Y-34495226D01*
X26898061Y-34535000D01*
X27101939Y-34535000D01*
X27301898Y-34495226D01*
X27490256Y-34417205D01*
X27500000Y-34410694D01*
X27509744Y-34417205D01*
X27698102Y-34495226D01*
X27898061Y-34535000D01*
X28101939Y-34535000D01*
X28301898Y-34495226D01*
X28490256Y-34417205D01*
X28659774Y-34303937D01*
X28803937Y-34159774D01*
X28917205Y-33990256D01*
X28995226Y-33801898D01*
X29035000Y-33601939D01*
X29035000Y-33398061D01*
X28995226Y-33198102D01*
X28917205Y-33009744D01*
X28910694Y-33000000D01*
X28917205Y-32990256D01*
X28995226Y-32801898D01*
X29035000Y-32601939D01*
X29035000Y-32398061D01*
X28995226Y-32198102D01*
X28917205Y-32009744D01*
X28910694Y-32000000D01*
X28917205Y-31990256D01*
X28926398Y-31968061D01*
X63415000Y-31968061D01*
X63415000Y-32171939D01*
X63454774Y-32371898D01*
X63532795Y-32560256D01*
X63646063Y-32729774D01*
X63790226Y-32873937D01*
X63959744Y-32987205D01*
X64148102Y-33065226D01*
X64348061Y-33105000D01*
X64551939Y-33105000D01*
X64751898Y-33065226D01*
X64940256Y-32987205D01*
X65109774Y-32873937D01*
X65253937Y-32729774D01*
X65367205Y-32560256D01*
X65445226Y-32371898D01*
X65485000Y-32171939D01*
X65485000Y-31968061D01*
X65465185Y-31868442D01*
X65581898Y-31845226D01*
X65770256Y-31767205D01*
X65842517Y-31718922D01*
X65929744Y-31777205D01*
X66118102Y-31855226D01*
X66318061Y-31895000D01*
X66521939Y-31895000D01*
X66721898Y-31855226D01*
X66910256Y-31777205D01*
X67028703Y-31698061D01*
X68435000Y-31698061D01*
X68435000Y-31901939D01*
X68474774Y-32101898D01*
X68552795Y-32290256D01*
X68572681Y-32320018D01*
X68494774Y-32508102D01*
X68455000Y-32708061D01*
X68455000Y-32911939D01*
X68494774Y-33111898D01*
X68572795Y-33300256D01*
X68686063Y-33469774D01*
X68830226Y-33613937D01*
X68999744Y-33727205D01*
X69188102Y-33805226D01*
X69388061Y-33845000D01*
X69591939Y-33845000D01*
X69791898Y-33805226D01*
X69980256Y-33727205D01*
X70149774Y-33613937D01*
X70293937Y-33469774D01*
X70407205Y-33300256D01*
X70485226Y-33111898D01*
X70513836Y-32968061D01*
X81735000Y-32968061D01*
X81735000Y-33171939D01*
X81774774Y-33371898D01*
X81852795Y-33560256D01*
X81966063Y-33729774D01*
X82110226Y-33873937D01*
X82279744Y-33987205D01*
X82468102Y-34065226D01*
X82635000Y-34098424D01*
X82635000Y-34101939D01*
X82674774Y-34301898D01*
X82752795Y-34490256D01*
X82866063Y-34659774D01*
X83010226Y-34803937D01*
X83179744Y-34917205D01*
X83368102Y-34995226D01*
X83568061Y-35035000D01*
X83771939Y-35035000D01*
X83971898Y-34995226D01*
X84160256Y-34917205D01*
X84329774Y-34803937D01*
X84473937Y-34659774D01*
X84587205Y-34490256D01*
X84665226Y-34301898D01*
X84705000Y-34101939D01*
X84705000Y-33898061D01*
X84665226Y-33698102D01*
X84587205Y-33509744D01*
X84473937Y-33340226D01*
X84329774Y-33196063D01*
X84160256Y-33082795D01*
X83971898Y-33004774D01*
X83805000Y-32971576D01*
X83805000Y-32968061D01*
X83765226Y-32768102D01*
X83687205Y-32579744D01*
X83573937Y-32410226D01*
X83429774Y-32266063D01*
X83260256Y-32152795D01*
X83071898Y-32074774D01*
X82871939Y-32035000D01*
X82668061Y-32035000D01*
X82468102Y-32074774D01*
X82279744Y-32152795D01*
X82110226Y-32266063D01*
X81966063Y-32410226D01*
X81852795Y-32579744D01*
X81774774Y-32768102D01*
X81735000Y-32968061D01*
X70513836Y-32968061D01*
X70525000Y-32911939D01*
X70525000Y-32708061D01*
X70485226Y-32508102D01*
X70407205Y-32319744D01*
X70387319Y-32289982D01*
X70465226Y-32101898D01*
X70505000Y-31901939D01*
X70505000Y-31698061D01*
X70465226Y-31498102D01*
X70387205Y-31309744D01*
X70273937Y-31140226D01*
X70129774Y-30996063D01*
X69960256Y-30882795D01*
X69771898Y-30804774D01*
X69571939Y-30765000D01*
X69368061Y-30765000D01*
X69168102Y-30804774D01*
X68979744Y-30882795D01*
X68810226Y-30996063D01*
X68666063Y-31140226D01*
X68552795Y-31309744D01*
X68474774Y-31498102D01*
X68435000Y-31698061D01*
X67028703Y-31698061D01*
X67079774Y-31663937D01*
X67223937Y-31519774D01*
X67337205Y-31350256D01*
X67415226Y-31161898D01*
X67455000Y-30961939D01*
X67455000Y-30758061D01*
X67415226Y-30558102D01*
X67337205Y-30369744D01*
X67223937Y-30200226D01*
X67079774Y-30056063D01*
X66910256Y-29942795D01*
X66721898Y-29864774D01*
X66521939Y-29825000D01*
X66318061Y-29825000D01*
X66118102Y-29864774D01*
X65929744Y-29942795D01*
X65857483Y-29991078D01*
X65770256Y-29932795D01*
X65581898Y-29854774D01*
X65381939Y-29815000D01*
X65178061Y-29815000D01*
X64978102Y-29854774D01*
X64789744Y-29932795D01*
X64620226Y-30046063D01*
X64476063Y-30190226D01*
X64362795Y-30359744D01*
X64284774Y-30548102D01*
X64245000Y-30748061D01*
X64245000Y-30951939D01*
X64264815Y-31051558D01*
X64148102Y-31074774D01*
X63959744Y-31152795D01*
X63790226Y-31266063D01*
X63646063Y-31410226D01*
X63532795Y-31579744D01*
X63454774Y-31768102D01*
X63415000Y-31968061D01*
X28926398Y-31968061D01*
X28995226Y-31801898D01*
X29035000Y-31601939D01*
X29035000Y-31398061D01*
X28995226Y-31198102D01*
X28917205Y-31009744D01*
X28803937Y-30840226D01*
X28659774Y-30696063D01*
X28490256Y-30582795D01*
X28301898Y-30504774D01*
X28101939Y-30465000D01*
X27898061Y-30465000D01*
X27698102Y-30504774D01*
X27509744Y-30582795D01*
X27500000Y-30589306D01*
X27490256Y-30582795D01*
X27301898Y-30504774D01*
X27101939Y-30465000D01*
X26898061Y-30465000D01*
X26698102Y-30504774D01*
X26509744Y-30582795D01*
X26500000Y-30589306D01*
X26490256Y-30582795D01*
X26301898Y-30504774D01*
X26101939Y-30465000D01*
X25898061Y-30465000D01*
X25698102Y-30504774D01*
X25509744Y-30582795D01*
X25340226Y-30696063D01*
X25196063Y-30840226D01*
X25082795Y-31009744D01*
X25004774Y-31198102D01*
X24965000Y-31398061D01*
X20660000Y-31398061D01*
X20660000Y-27387496D01*
X21166735Y-28145879D01*
X21854121Y-28833265D01*
X22662401Y-29373340D01*
X23560514Y-29745350D01*
X24513945Y-29935000D01*
X25486055Y-29935000D01*
X26439486Y-29745350D01*
X27337599Y-29373340D01*
X28145879Y-28833265D01*
X28833265Y-28145879D01*
X29165896Y-27648061D01*
X56215000Y-27648061D01*
X56215000Y-27851939D01*
X56254774Y-28051898D01*
X56332795Y-28240256D01*
X56446063Y-28409774D01*
X56590226Y-28553937D01*
X56759744Y-28667205D01*
X56948102Y-28745226D01*
X57148061Y-28785000D01*
X57351939Y-28785000D01*
X57551898Y-28745226D01*
X57740256Y-28667205D01*
X57909774Y-28553937D01*
X58053937Y-28409774D01*
X58167205Y-28240256D01*
X58245226Y-28051898D01*
X58285000Y-27851939D01*
X58285000Y-27648061D01*
X58245226Y-27448102D01*
X58167205Y-27259744D01*
X58053937Y-27090226D01*
X57909774Y-26946063D01*
X57740256Y-26832795D01*
X57551898Y-26754774D01*
X57351939Y-26715000D01*
X57148061Y-26715000D01*
X56948102Y-26754774D01*
X56759744Y-26832795D01*
X56590226Y-26946063D01*
X56446063Y-27090226D01*
X56332795Y-27259744D01*
X56254774Y-27448102D01*
X56215000Y-27648061D01*
X29165896Y-27648061D01*
X29373340Y-27337599D01*
X29745350Y-26439486D01*
X29801329Y-26158061D01*
X37490000Y-26158061D01*
X37490000Y-26361939D01*
X37529774Y-26561898D01*
X37607795Y-26750256D01*
X37721063Y-26919774D01*
X37865226Y-27063937D01*
X38034744Y-27177205D01*
X38223102Y-27255226D01*
X38423061Y-27295000D01*
X38626939Y-27295000D01*
X38826898Y-27255226D01*
X39015256Y-27177205D01*
X39184774Y-27063937D01*
X39328937Y-26919774D01*
X39442205Y-26750256D01*
X39520226Y-26561898D01*
X39560000Y-26361939D01*
X39560000Y-26158061D01*
X41685000Y-26158061D01*
X41685000Y-26361939D01*
X41724774Y-26561898D01*
X41802795Y-26750256D01*
X41916063Y-26919774D01*
X42060226Y-27063937D01*
X42229744Y-27177205D01*
X42418102Y-27255226D01*
X42618061Y-27295000D01*
X42821939Y-27295000D01*
X43021898Y-27255226D01*
X43210256Y-27177205D01*
X43379774Y-27063937D01*
X43523937Y-26919774D01*
X43637205Y-26750256D01*
X43715226Y-26561898D01*
X43755000Y-26361939D01*
X43755000Y-26158061D01*
X45885000Y-26158061D01*
X45885000Y-26361939D01*
X45924774Y-26561898D01*
X46002795Y-26750256D01*
X46116063Y-26919774D01*
X46260226Y-27063937D01*
X46429744Y-27177205D01*
X46618102Y-27255226D01*
X46818061Y-27295000D01*
X47021939Y-27295000D01*
X47221898Y-27255226D01*
X47410256Y-27177205D01*
X47579774Y-27063937D01*
X47723937Y-26919774D01*
X47837205Y-26750256D01*
X47915226Y-26561898D01*
X47955000Y-26361939D01*
X47955000Y-26158061D01*
X50095000Y-26158061D01*
X50095000Y-26361939D01*
X50134774Y-26561898D01*
X50212795Y-26750256D01*
X50326063Y-26919774D01*
X50470226Y-27063937D01*
X50639744Y-27177205D01*
X50828102Y-27255226D01*
X51028061Y-27295000D01*
X51231939Y-27295000D01*
X51431898Y-27255226D01*
X51620256Y-27177205D01*
X51789774Y-27063937D01*
X51933937Y-26919774D01*
X52047205Y-26750256D01*
X52125226Y-26561898D01*
X52165000Y-26361939D01*
X52165000Y-26158061D01*
X52125226Y-25958102D01*
X52047205Y-25769744D01*
X51933937Y-25600226D01*
X51789774Y-25456063D01*
X51620256Y-25342795D01*
X51431898Y-25264774D01*
X51231939Y-25225000D01*
X51028061Y-25225000D01*
X50828102Y-25264774D01*
X50639744Y-25342795D01*
X50470226Y-25456063D01*
X50326063Y-25600226D01*
X50212795Y-25769744D01*
X50134774Y-25958102D01*
X50095000Y-26158061D01*
X47955000Y-26158061D01*
X47915226Y-25958102D01*
X47837205Y-25769744D01*
X47723937Y-25600226D01*
X47579774Y-25456063D01*
X47410256Y-25342795D01*
X47221898Y-25264774D01*
X47021939Y-25225000D01*
X46818061Y-25225000D01*
X46618102Y-25264774D01*
X46429744Y-25342795D01*
X46260226Y-25456063D01*
X46116063Y-25600226D01*
X46002795Y-25769744D01*
X45924774Y-25958102D01*
X45885000Y-26158061D01*
X43755000Y-26158061D01*
X43715226Y-25958102D01*
X43637205Y-25769744D01*
X43523937Y-25600226D01*
X43379774Y-25456063D01*
X43210256Y-25342795D01*
X43021898Y-25264774D01*
X42821939Y-25225000D01*
X42618061Y-25225000D01*
X42418102Y-25264774D01*
X42229744Y-25342795D01*
X42060226Y-25456063D01*
X41916063Y-25600226D01*
X41802795Y-25769744D01*
X41724774Y-25958102D01*
X41685000Y-26158061D01*
X39560000Y-26158061D01*
X39520226Y-25958102D01*
X39442205Y-25769744D01*
X39328937Y-25600226D01*
X39184774Y-25456063D01*
X39015256Y-25342795D01*
X38826898Y-25264774D01*
X38626939Y-25225000D01*
X38423061Y-25225000D01*
X38223102Y-25264774D01*
X38034744Y-25342795D01*
X37865226Y-25456063D01*
X37721063Y-25600226D01*
X37607795Y-25769744D01*
X37529774Y-25958102D01*
X37490000Y-26158061D01*
X29801329Y-26158061D01*
X29897271Y-25675731D01*
X29912376Y-25685824D01*
X30118933Y-25771383D01*
X30338212Y-25815000D01*
X30561788Y-25815000D01*
X30781067Y-25771383D01*
X30987624Y-25685824D01*
X31173520Y-25561612D01*
X31331612Y-25403520D01*
X31455824Y-25217624D01*
X31541383Y-25011067D01*
X31585000Y-24791788D01*
X31585000Y-24568212D01*
X31545188Y-24368061D01*
X53835000Y-24368061D01*
X53835000Y-24571939D01*
X53874774Y-24771898D01*
X53952795Y-24960256D01*
X54066063Y-25129774D01*
X54210226Y-25273937D01*
X54379744Y-25387205D01*
X54568102Y-25465226D01*
X54768061Y-25505000D01*
X54971939Y-25505000D01*
X55171898Y-25465226D01*
X55360256Y-25387205D01*
X55529774Y-25273937D01*
X55673937Y-25129774D01*
X55787205Y-24960256D01*
X55865226Y-24771898D01*
X55905000Y-24571939D01*
X55905000Y-24368061D01*
X55865226Y-24168102D01*
X55787205Y-23979744D01*
X55673937Y-23810226D01*
X55551923Y-23688212D01*
X65325000Y-23688212D01*
X65325000Y-23911788D01*
X65368617Y-24131067D01*
X65454176Y-24337624D01*
X65519241Y-24435000D01*
X65454176Y-24532376D01*
X65368617Y-24738933D01*
X65325000Y-24958212D01*
X65325000Y-25181788D01*
X65368617Y-25401067D01*
X65454176Y-25607624D01*
X65578388Y-25793520D01*
X65736480Y-25951612D01*
X65922376Y-26075824D01*
X66128933Y-26161383D01*
X66348212Y-26205000D01*
X66571788Y-26205000D01*
X66791067Y-26161383D01*
X66997624Y-26075824D01*
X67095000Y-26010759D01*
X67192376Y-26075824D01*
X67398933Y-26161383D01*
X67618212Y-26205000D01*
X67841788Y-26205000D01*
X68061067Y-26161383D01*
X68267624Y-26075824D01*
X68365000Y-26010759D01*
X68462376Y-26075824D01*
X68668933Y-26161383D01*
X68888212Y-26205000D01*
X69111788Y-26205000D01*
X69331067Y-26161383D01*
X69537624Y-26075824D01*
X69635000Y-26010759D01*
X69732376Y-26075824D01*
X69938933Y-26161383D01*
X70158212Y-26205000D01*
X70381788Y-26205000D01*
X70601067Y-26161383D01*
X70807624Y-26075824D01*
X70905000Y-26010759D01*
X71002376Y-26075824D01*
X71208933Y-26161383D01*
X71428212Y-26205000D01*
X71651788Y-26205000D01*
X71871067Y-26161383D01*
X72077624Y-26075824D01*
X72263520Y-25951612D01*
X72317071Y-25898061D01*
X75715000Y-25898061D01*
X75715000Y-26101939D01*
X75754774Y-26301898D01*
X75832795Y-26490256D01*
X75839306Y-26500000D01*
X75832795Y-26509744D01*
X75754774Y-26698102D01*
X75715000Y-26898061D01*
X75715000Y-27101939D01*
X75754774Y-27301898D01*
X75832795Y-27490256D01*
X75946063Y-27659774D01*
X76090226Y-27803937D01*
X76259744Y-27917205D01*
X76448102Y-27995226D01*
X76648061Y-28035000D01*
X76851939Y-28035000D01*
X77051898Y-27995226D01*
X77240256Y-27917205D01*
X77250000Y-27910694D01*
X77259744Y-27917205D01*
X77448102Y-27995226D01*
X77648061Y-28035000D01*
X77851939Y-28035000D01*
X78051898Y-27995226D01*
X78134841Y-27960870D01*
X78129774Y-27973102D01*
X78090000Y-28173061D01*
X78090000Y-28376939D01*
X78129774Y-28576898D01*
X78207795Y-28765256D01*
X78321063Y-28934774D01*
X78465226Y-29078937D01*
X78634744Y-29192205D01*
X78823102Y-29270226D01*
X79023061Y-29310000D01*
X79226939Y-29310000D01*
X79426898Y-29270226D01*
X79615256Y-29192205D01*
X79784774Y-29078937D01*
X79928937Y-28934774D01*
X80042205Y-28765256D01*
X80120226Y-28576898D01*
X80160000Y-28376939D01*
X80160000Y-28173061D01*
X80120226Y-27973102D01*
X80042205Y-27784744D01*
X79928937Y-27615226D01*
X79784774Y-27471063D01*
X79698918Y-27413696D01*
X79745226Y-27301898D01*
X79785000Y-27101939D01*
X79785000Y-26898061D01*
X79745226Y-26698102D01*
X79667205Y-26509744D01*
X79660694Y-26500000D01*
X79667205Y-26490256D01*
X79709473Y-26388212D01*
X85615000Y-26388212D01*
X85615000Y-26611788D01*
X85658617Y-26831067D01*
X85744176Y-27037624D01*
X85868388Y-27223520D01*
X86026480Y-27381612D01*
X86072707Y-27412500D01*
X86026480Y-27443388D01*
X85868388Y-27601480D01*
X85744176Y-27787376D01*
X85658617Y-27993933D01*
X85615000Y-28213212D01*
X85615000Y-28436788D01*
X85658617Y-28656067D01*
X85744176Y-28862624D01*
X85868388Y-29048520D01*
X86026480Y-29206612D01*
X86212376Y-29330824D01*
X86418933Y-29416383D01*
X86638212Y-29460000D01*
X86861788Y-29460000D01*
X87081067Y-29416383D01*
X87287624Y-29330824D01*
X87473520Y-29206612D01*
X87631612Y-29048520D01*
X87755824Y-28862624D01*
X87841383Y-28656067D01*
X87885000Y-28436788D01*
X87885000Y-28213212D01*
X87841383Y-27993933D01*
X87755824Y-27787376D01*
X87631612Y-27601480D01*
X87628364Y-27598232D01*
X87813212Y-27635000D01*
X88036788Y-27635000D01*
X88256067Y-27591383D01*
X88462624Y-27505824D01*
X88648520Y-27381612D01*
X88806612Y-27223520D01*
X88930824Y-27037624D01*
X89016383Y-26831067D01*
X89060000Y-26611788D01*
X89060000Y-26388212D01*
X89016383Y-26168933D01*
X88930824Y-25962376D01*
X88806612Y-25776480D01*
X88648520Y-25618388D01*
X88462624Y-25494176D01*
X88256067Y-25408617D01*
X88036788Y-25365000D01*
X87813212Y-25365000D01*
X87593933Y-25408617D01*
X87387376Y-25494176D01*
X87337500Y-25527502D01*
X87287624Y-25494176D01*
X87081067Y-25408617D01*
X86861788Y-25365000D01*
X86638212Y-25365000D01*
X86418933Y-25408617D01*
X86212376Y-25494176D01*
X86026480Y-25618388D01*
X85868388Y-25776480D01*
X85744176Y-25962376D01*
X85658617Y-26168933D01*
X85615000Y-26388212D01*
X79709473Y-26388212D01*
X79745226Y-26301898D01*
X79785000Y-26101939D01*
X79785000Y-25898061D01*
X79745226Y-25698102D01*
X79667205Y-25509744D01*
X79553937Y-25340226D01*
X79409774Y-25196063D01*
X79240256Y-25082795D01*
X79051898Y-25004774D01*
X78851939Y-24965000D01*
X78648061Y-24965000D01*
X78448102Y-25004774D01*
X78259744Y-25082795D01*
X78250000Y-25089306D01*
X78240256Y-25082795D01*
X78051898Y-25004774D01*
X77851939Y-24965000D01*
X77648061Y-24965000D01*
X77448102Y-25004774D01*
X77259744Y-25082795D01*
X77250000Y-25089306D01*
X77240256Y-25082795D01*
X77051898Y-25004774D01*
X76851939Y-24965000D01*
X76648061Y-24965000D01*
X76448102Y-25004774D01*
X76259744Y-25082795D01*
X76090226Y-25196063D01*
X75946063Y-25340226D01*
X75832795Y-25509744D01*
X75754774Y-25698102D01*
X75715000Y-25898061D01*
X72317071Y-25898061D01*
X72421612Y-25793520D01*
X72545824Y-25607624D01*
X72631383Y-25401067D01*
X72675000Y-25181788D01*
X72675000Y-24958212D01*
X72631383Y-24738933D01*
X72585112Y-24627226D01*
X72629502Y-24544180D01*
X72665812Y-24424482D01*
X72678072Y-24300000D01*
X72675000Y-24085750D01*
X72516250Y-23927000D01*
X71667000Y-23927000D01*
X71667000Y-23938026D01*
X71651788Y-23935000D01*
X71428212Y-23935000D01*
X71413000Y-23938026D01*
X71413000Y-23927000D01*
X71401974Y-23927000D01*
X71405000Y-23911788D01*
X71405000Y-23688212D01*
X71401974Y-23673000D01*
X71413000Y-23673000D01*
X71413000Y-22823750D01*
X71667000Y-22823750D01*
X71667000Y-23673000D01*
X72516250Y-23673000D01*
X72675000Y-23514250D01*
X72678072Y-23300000D01*
X72665812Y-23175518D01*
X72629502Y-23055820D01*
X72570537Y-22945506D01*
X72491185Y-22848815D01*
X72394494Y-22769463D01*
X72284180Y-22710498D01*
X72164482Y-22674188D01*
X72040000Y-22661928D01*
X71825750Y-22665000D01*
X71667000Y-22823750D01*
X71413000Y-22823750D01*
X71254250Y-22665000D01*
X71040000Y-22661928D01*
X70915518Y-22674188D01*
X70795820Y-22710498D01*
X70712774Y-22754888D01*
X70601067Y-22708617D01*
X70381788Y-22665000D01*
X70158212Y-22665000D01*
X69938933Y-22708617D01*
X69732376Y-22794176D01*
X69635000Y-22859241D01*
X69537624Y-22794176D01*
X69331067Y-22708617D01*
X69111788Y-22665000D01*
X68888212Y-22665000D01*
X68668933Y-22708617D01*
X68462376Y-22794176D01*
X68365000Y-22859241D01*
X68267624Y-22794176D01*
X68061067Y-22708617D01*
X67841788Y-22665000D01*
X67618212Y-22665000D01*
X67398933Y-22708617D01*
X67192376Y-22794176D01*
X67095000Y-22859241D01*
X66997624Y-22794176D01*
X66791067Y-22708617D01*
X66571788Y-22665000D01*
X66348212Y-22665000D01*
X66128933Y-22708617D01*
X65922376Y-22794176D01*
X65736480Y-22918388D01*
X65578388Y-23076480D01*
X65454176Y-23262376D01*
X65368617Y-23468933D01*
X65325000Y-23688212D01*
X55551923Y-23688212D01*
X55529774Y-23666063D01*
X55360256Y-23552795D01*
X55171898Y-23474774D01*
X54971939Y-23435000D01*
X54768061Y-23435000D01*
X54568102Y-23474774D01*
X54379744Y-23552795D01*
X54210226Y-23666063D01*
X54066063Y-23810226D01*
X53952795Y-23979744D01*
X53874774Y-24168102D01*
X53835000Y-24368061D01*
X31545188Y-24368061D01*
X31541383Y-24348933D01*
X31455824Y-24142376D01*
X31331612Y-23956480D01*
X31173520Y-23798388D01*
X30987624Y-23674176D01*
X30781067Y-23588617D01*
X30561788Y-23545000D01*
X30338212Y-23545000D01*
X30118933Y-23588617D01*
X29912376Y-23674176D01*
X29784901Y-23759352D01*
X29745350Y-23560514D01*
X29373340Y-22662401D01*
X29041186Y-22165297D01*
X55640000Y-22165297D01*
X55640000Y-22334703D01*
X55673049Y-22500853D01*
X55737878Y-22657363D01*
X55831995Y-22798218D01*
X55951782Y-22918005D01*
X56092637Y-23012122D01*
X56249147Y-23076951D01*
X56415297Y-23110000D01*
X56584703Y-23110000D01*
X56750853Y-23076951D01*
X56907363Y-23012122D01*
X57048218Y-22918005D01*
X57168005Y-22798218D01*
X57262122Y-22657363D01*
X57326951Y-22500853D01*
X57360000Y-22334703D01*
X57360000Y-22165297D01*
X58640000Y-22165297D01*
X58640000Y-22334703D01*
X58673049Y-22500853D01*
X58737878Y-22657363D01*
X58831995Y-22798218D01*
X58951782Y-22918005D01*
X59092637Y-23012122D01*
X59249147Y-23076951D01*
X59415297Y-23110000D01*
X59584703Y-23110000D01*
X59750853Y-23076951D01*
X59907363Y-23012122D01*
X60048218Y-22918005D01*
X60168005Y-22798218D01*
X60262122Y-22657363D01*
X60326951Y-22500853D01*
X60360000Y-22334703D01*
X60360000Y-22165297D01*
X60326951Y-21999147D01*
X60262122Y-21842637D01*
X60168005Y-21701782D01*
X60048218Y-21581995D01*
X59907363Y-21487878D01*
X59750853Y-21423049D01*
X59584703Y-21390000D01*
X59415297Y-21390000D01*
X59249147Y-21423049D01*
X59092637Y-21487878D01*
X58951782Y-21581995D01*
X58831995Y-21701782D01*
X58737878Y-21842637D01*
X58673049Y-21999147D01*
X58640000Y-22165297D01*
X57360000Y-22165297D01*
X57326951Y-21999147D01*
X57262122Y-21842637D01*
X57168005Y-21701782D01*
X57048218Y-21581995D01*
X56907363Y-21487878D01*
X56750853Y-21423049D01*
X56584703Y-21390000D01*
X56415297Y-21390000D01*
X56249147Y-21423049D01*
X56092637Y-21487878D01*
X55951782Y-21581995D01*
X55831995Y-21701782D01*
X55737878Y-21842637D01*
X55673049Y-21999147D01*
X55640000Y-22165297D01*
X29041186Y-22165297D01*
X28833265Y-21854121D01*
X28145879Y-21166735D01*
X27387496Y-20660000D01*
X76641840Y-20660000D01*
X76584618Y-20729725D01*
G36*
X67754254Y-41766876D02*
G01*
X67898417Y-41911039D01*
X68067935Y-42024307D01*
X68256293Y-42102328D01*
X68456252Y-42142102D01*
X68461809Y-42142102D01*
X68398102Y-42154774D01*
X68209744Y-42232795D01*
X68040226Y-42346063D01*
X67896063Y-42490226D01*
X67782795Y-42659744D01*
X67727000Y-42794444D01*
X67727000Y-41726087D01*
X67754254Y-41766876D01*
G37*
X67754254Y-41766876D02*
X67898417Y-41911039D01*
X68067935Y-42024307D01*
X68256293Y-42102328D01*
X68456252Y-42142102D01*
X68461809Y-42142102D01*
X68398102Y-42154774D01*
X68209744Y-42232795D01*
X68040226Y-42346063D01*
X67896063Y-42490226D01*
X67782795Y-42659744D01*
X67727000Y-42794444D01*
X67727000Y-41726087D01*
X67754254Y-41766876D01*
M02*
