G04 #@! TF.GenerationSoftware,KiCad,Pcbnew,(5.1.5)-3*
G04 #@! TF.CreationDate,2020-07-07T14:13:24+02:00*
G04 #@! TF.ProjectId,HadesNT,48616465-734e-4542-9e6b-696361645f70,rev?*
G04 #@! TF.SameCoordinates,Original*
G04 #@! TF.FileFunction,Soldermask,Bot*
G04 #@! TF.FilePolarity,Negative*
%FSLAX46Y46*%
G04 Gerber Fmt 4.6, Leading zero omitted, Abs format (unit mm)*
G04 Created by KiCad (PCBNEW (5.1.5)-3) date 2020-07-07 14:13:24*
%MOMM*%
%LPD*%
G04 APERTURE LIST*
%ADD10C,0.100000*%
G04 APERTURE END LIST*
D10*
G36*
X95548156Y-60672794D02*
G01*
X96269140Y-60816206D01*
X97060972Y-61144193D01*
X97773601Y-61620357D01*
X98379643Y-62226399D01*
X98855807Y-62939028D01*
X99183794Y-63730860D01*
X99351000Y-64571464D01*
X99351000Y-65428536D01*
X99183794Y-66269140D01*
X98855807Y-67060972D01*
X98379643Y-67773601D01*
X97773601Y-68379643D01*
X97060972Y-68855807D01*
X96269140Y-69183794D01*
X95548156Y-69327206D01*
X95428537Y-69351000D01*
X94571463Y-69351000D01*
X94451844Y-69327206D01*
X93730860Y-69183794D01*
X92939028Y-68855807D01*
X92226399Y-68379643D01*
X91620357Y-67773601D01*
X91144193Y-67060972D01*
X90816206Y-66269140D01*
X90649000Y-65428536D01*
X90649000Y-64571464D01*
X90816206Y-63730860D01*
X91144193Y-62939028D01*
X91620357Y-62226399D01*
X92226399Y-61620357D01*
X92939028Y-61144193D01*
X93730860Y-60816206D01*
X94451844Y-60672794D01*
X94571463Y-60649000D01*
X95428537Y-60649000D01*
X95548156Y-60672794D01*
G37*
G36*
X25548156Y-60672794D02*
G01*
X26269140Y-60816206D01*
X27060972Y-61144193D01*
X27773601Y-61620357D01*
X28379643Y-62226399D01*
X28855807Y-62939028D01*
X29183794Y-63730860D01*
X29351000Y-64571464D01*
X29351000Y-65428536D01*
X29183794Y-66269140D01*
X28855807Y-67060972D01*
X28379643Y-67773601D01*
X27773601Y-68379643D01*
X27060972Y-68855807D01*
X26269140Y-69183794D01*
X25548156Y-69327206D01*
X25428537Y-69351000D01*
X24571463Y-69351000D01*
X24451844Y-69327206D01*
X23730860Y-69183794D01*
X22939028Y-68855807D01*
X22226399Y-68379643D01*
X21620357Y-67773601D01*
X21144193Y-67060972D01*
X20816206Y-66269140D01*
X20649000Y-65428536D01*
X20649000Y-64571464D01*
X20816206Y-63730860D01*
X21144193Y-62939028D01*
X21620357Y-62226399D01*
X22226399Y-61620357D01*
X22939028Y-61144193D01*
X23730860Y-60816206D01*
X24451844Y-60672794D01*
X24571463Y-60649000D01*
X25428537Y-60649000D01*
X25548156Y-60672794D01*
G37*
G36*
X93036988Y-56933624D02*
G01*
X93187812Y-56963624D01*
X93351784Y-57031544D01*
X93499354Y-57130147D01*
X93624853Y-57255646D01*
X93723456Y-57403216D01*
X93791376Y-57567188D01*
X93826000Y-57741259D01*
X93826000Y-57918741D01*
X93791376Y-58092812D01*
X93723456Y-58256784D01*
X93624853Y-58404354D01*
X93499354Y-58529853D01*
X93351784Y-58628456D01*
X93187812Y-58696376D01*
X93038512Y-58726073D01*
X93013742Y-58731000D01*
X92836258Y-58731000D01*
X92811488Y-58726073D01*
X92662188Y-58696376D01*
X92498216Y-58628456D01*
X92350646Y-58529853D01*
X92225147Y-58404354D01*
X92126544Y-58256784D01*
X92058624Y-58092812D01*
X92024000Y-57918741D01*
X92024000Y-57741259D01*
X92058624Y-57567188D01*
X92126544Y-57403216D01*
X92225147Y-57255646D01*
X92350646Y-57130147D01*
X92498216Y-57031544D01*
X92662188Y-56963624D01*
X92813012Y-56933624D01*
X92836258Y-56929000D01*
X93013742Y-56929000D01*
X93036988Y-56933624D01*
G37*
G36*
X95573512Y-56903927D02*
G01*
X95722812Y-56933624D01*
X95886784Y-57001544D01*
X96034354Y-57100147D01*
X96159853Y-57225646D01*
X96258456Y-57373216D01*
X96326376Y-57537188D01*
X96361000Y-57711259D01*
X96361000Y-57888741D01*
X96326376Y-58062812D01*
X96258456Y-58226784D01*
X96159853Y-58374354D01*
X96034354Y-58499853D01*
X95886784Y-58598456D01*
X95722812Y-58666376D01*
X95573512Y-58696073D01*
X95548742Y-58701000D01*
X95371258Y-58701000D01*
X95346488Y-58696073D01*
X95197188Y-58666376D01*
X95033216Y-58598456D01*
X94885646Y-58499853D01*
X94760147Y-58374354D01*
X94661544Y-58226784D01*
X94593624Y-58062812D01*
X94559000Y-57888741D01*
X94559000Y-57711259D01*
X94593624Y-57537188D01*
X94661544Y-57373216D01*
X94760147Y-57225646D01*
X94885646Y-57100147D01*
X95033216Y-57001544D01*
X95197188Y-56933624D01*
X95346488Y-56903927D01*
X95371258Y-56899000D01*
X95548742Y-56899000D01*
X95573512Y-56903927D01*
G37*
G36*
X98901000Y-58701000D02*
G01*
X97099000Y-58701000D01*
X97099000Y-56899000D01*
X98901000Y-56899000D01*
X98901000Y-58701000D01*
G37*
G36*
X93036988Y-54393624D02*
G01*
X93187812Y-54423624D01*
X93351784Y-54491544D01*
X93499354Y-54590147D01*
X93624853Y-54715646D01*
X93723456Y-54863216D01*
X93791376Y-55027188D01*
X93826000Y-55201259D01*
X93826000Y-55378741D01*
X93791376Y-55552812D01*
X93723456Y-55716784D01*
X93624853Y-55864354D01*
X93499354Y-55989853D01*
X93351784Y-56088456D01*
X93187812Y-56156376D01*
X93038512Y-56186073D01*
X93013742Y-56191000D01*
X92836258Y-56191000D01*
X92811488Y-56186073D01*
X92662188Y-56156376D01*
X92498216Y-56088456D01*
X92350646Y-55989853D01*
X92225147Y-55864354D01*
X92126544Y-55716784D01*
X92058624Y-55552812D01*
X92024000Y-55378741D01*
X92024000Y-55201259D01*
X92058624Y-55027188D01*
X92126544Y-54863216D01*
X92225147Y-54715646D01*
X92350646Y-54590147D01*
X92498216Y-54491544D01*
X92662188Y-54423624D01*
X92813012Y-54393624D01*
X92836258Y-54389000D01*
X93013742Y-54389000D01*
X93036988Y-54393624D01*
G37*
G36*
X98113512Y-54363927D02*
G01*
X98262812Y-54393624D01*
X98426784Y-54461544D01*
X98574354Y-54560147D01*
X98699853Y-54685646D01*
X98798456Y-54833216D01*
X98866376Y-54997188D01*
X98901000Y-55171259D01*
X98901000Y-55348741D01*
X98866376Y-55522812D01*
X98798456Y-55686784D01*
X98699853Y-55834354D01*
X98574354Y-55959853D01*
X98426784Y-56058456D01*
X98262812Y-56126376D01*
X98113512Y-56156073D01*
X98088742Y-56161000D01*
X97911258Y-56161000D01*
X97886488Y-56156073D01*
X97737188Y-56126376D01*
X97573216Y-56058456D01*
X97425646Y-55959853D01*
X97300147Y-55834354D01*
X97201544Y-55686784D01*
X97133624Y-55522812D01*
X97099000Y-55348741D01*
X97099000Y-55171259D01*
X97133624Y-54997188D01*
X97201544Y-54833216D01*
X97300147Y-54685646D01*
X97425646Y-54560147D01*
X97573216Y-54461544D01*
X97737188Y-54393624D01*
X97886488Y-54363927D01*
X97911258Y-54359000D01*
X98088742Y-54359000D01*
X98113512Y-54363927D01*
G37*
G36*
X95573512Y-54363927D02*
G01*
X95722812Y-54393624D01*
X95886784Y-54461544D01*
X96034354Y-54560147D01*
X96159853Y-54685646D01*
X96258456Y-54833216D01*
X96326376Y-54997188D01*
X96361000Y-55171259D01*
X96361000Y-55348741D01*
X96326376Y-55522812D01*
X96258456Y-55686784D01*
X96159853Y-55834354D01*
X96034354Y-55959853D01*
X95886784Y-56058456D01*
X95722812Y-56126376D01*
X95573512Y-56156073D01*
X95548742Y-56161000D01*
X95371258Y-56161000D01*
X95346488Y-56156073D01*
X95197188Y-56126376D01*
X95033216Y-56058456D01*
X94885646Y-55959853D01*
X94760147Y-55834354D01*
X94661544Y-55686784D01*
X94593624Y-55522812D01*
X94559000Y-55348741D01*
X94559000Y-55171259D01*
X94593624Y-54997188D01*
X94661544Y-54833216D01*
X94760147Y-54685646D01*
X94885646Y-54560147D01*
X95033216Y-54461544D01*
X95197188Y-54393624D01*
X95346488Y-54363927D01*
X95371258Y-54359000D01*
X95548742Y-54359000D01*
X95573512Y-54363927D01*
G37*
G36*
X93036988Y-51853624D02*
G01*
X93187812Y-51883624D01*
X93351784Y-51951544D01*
X93499354Y-52050147D01*
X93624853Y-52175646D01*
X93723456Y-52323216D01*
X93791376Y-52487188D01*
X93826000Y-52661259D01*
X93826000Y-52838741D01*
X93791376Y-53012812D01*
X93723456Y-53176784D01*
X93624853Y-53324354D01*
X93499354Y-53449853D01*
X93351784Y-53548456D01*
X93187812Y-53616376D01*
X93038512Y-53646073D01*
X93013742Y-53651000D01*
X92836258Y-53651000D01*
X92811488Y-53646073D01*
X92662188Y-53616376D01*
X92498216Y-53548456D01*
X92350646Y-53449853D01*
X92225147Y-53324354D01*
X92126544Y-53176784D01*
X92058624Y-53012812D01*
X92024000Y-52838741D01*
X92024000Y-52661259D01*
X92058624Y-52487188D01*
X92126544Y-52323216D01*
X92225147Y-52175646D01*
X92350646Y-52050147D01*
X92498216Y-51951544D01*
X92662188Y-51883624D01*
X92813012Y-51853624D01*
X92836258Y-51849000D01*
X93013742Y-51849000D01*
X93036988Y-51853624D01*
G37*
G36*
X98113512Y-51823927D02*
G01*
X98262812Y-51853624D01*
X98426784Y-51921544D01*
X98574354Y-52020147D01*
X98699853Y-52145646D01*
X98798456Y-52293216D01*
X98866376Y-52457188D01*
X98901000Y-52631259D01*
X98901000Y-52808741D01*
X98866376Y-52982812D01*
X98798456Y-53146784D01*
X98699853Y-53294354D01*
X98574354Y-53419853D01*
X98426784Y-53518456D01*
X98262812Y-53586376D01*
X98113512Y-53616073D01*
X98088742Y-53621000D01*
X97911258Y-53621000D01*
X97886488Y-53616073D01*
X97737188Y-53586376D01*
X97573216Y-53518456D01*
X97425646Y-53419853D01*
X97300147Y-53294354D01*
X97201544Y-53146784D01*
X97133624Y-52982812D01*
X97099000Y-52808741D01*
X97099000Y-52631259D01*
X97133624Y-52457188D01*
X97201544Y-52293216D01*
X97300147Y-52145646D01*
X97425646Y-52020147D01*
X97573216Y-51921544D01*
X97737188Y-51853624D01*
X97886488Y-51823927D01*
X97911258Y-51819000D01*
X98088742Y-51819000D01*
X98113512Y-51823927D01*
G37*
G36*
X95573512Y-51823927D02*
G01*
X95722812Y-51853624D01*
X95886784Y-51921544D01*
X96034354Y-52020147D01*
X96159853Y-52145646D01*
X96258456Y-52293216D01*
X96326376Y-52457188D01*
X96361000Y-52631259D01*
X96361000Y-52808741D01*
X96326376Y-52982812D01*
X96258456Y-53146784D01*
X96159853Y-53294354D01*
X96034354Y-53419853D01*
X95886784Y-53518456D01*
X95722812Y-53586376D01*
X95573512Y-53616073D01*
X95548742Y-53621000D01*
X95371258Y-53621000D01*
X95346488Y-53616073D01*
X95197188Y-53586376D01*
X95033216Y-53518456D01*
X94885646Y-53419853D01*
X94760147Y-53294354D01*
X94661544Y-53146784D01*
X94593624Y-52982812D01*
X94559000Y-52808741D01*
X94559000Y-52631259D01*
X94593624Y-52457188D01*
X94661544Y-52293216D01*
X94760147Y-52145646D01*
X94885646Y-52020147D01*
X95033216Y-51921544D01*
X95197188Y-51853624D01*
X95346488Y-51823927D01*
X95371258Y-51819000D01*
X95548742Y-51819000D01*
X95573512Y-51823927D01*
G37*
G36*
X93036988Y-49313624D02*
G01*
X93187812Y-49343624D01*
X93351784Y-49411544D01*
X93499354Y-49510147D01*
X93624853Y-49635646D01*
X93723456Y-49783216D01*
X93791376Y-49947188D01*
X93826000Y-50121259D01*
X93826000Y-50298741D01*
X93791376Y-50472812D01*
X93723456Y-50636784D01*
X93624853Y-50784354D01*
X93499354Y-50909853D01*
X93351784Y-51008456D01*
X93187812Y-51076376D01*
X93038512Y-51106073D01*
X93013742Y-51111000D01*
X92836258Y-51111000D01*
X92811488Y-51106073D01*
X92662188Y-51076376D01*
X92498216Y-51008456D01*
X92350646Y-50909853D01*
X92225147Y-50784354D01*
X92126544Y-50636784D01*
X92058624Y-50472812D01*
X92024000Y-50298741D01*
X92024000Y-50121259D01*
X92058624Y-49947188D01*
X92126544Y-49783216D01*
X92225147Y-49635646D01*
X92350646Y-49510147D01*
X92498216Y-49411544D01*
X92662188Y-49343624D01*
X92813012Y-49313624D01*
X92836258Y-49309000D01*
X93013742Y-49309000D01*
X93036988Y-49313624D01*
G37*
G36*
X95573512Y-49283927D02*
G01*
X95722812Y-49313624D01*
X95886784Y-49381544D01*
X96034354Y-49480147D01*
X96159853Y-49605646D01*
X96258456Y-49753216D01*
X96326376Y-49917188D01*
X96361000Y-50091259D01*
X96361000Y-50268741D01*
X96326376Y-50442812D01*
X96258456Y-50606784D01*
X96159853Y-50754354D01*
X96034354Y-50879853D01*
X95886784Y-50978456D01*
X95722812Y-51046376D01*
X95573512Y-51076073D01*
X95548742Y-51081000D01*
X95371258Y-51081000D01*
X95346488Y-51076073D01*
X95197188Y-51046376D01*
X95033216Y-50978456D01*
X94885646Y-50879853D01*
X94760147Y-50754354D01*
X94661544Y-50606784D01*
X94593624Y-50442812D01*
X94559000Y-50268741D01*
X94559000Y-50091259D01*
X94593624Y-49917188D01*
X94661544Y-49753216D01*
X94760147Y-49605646D01*
X94885646Y-49480147D01*
X95033216Y-49381544D01*
X95197188Y-49313624D01*
X95346488Y-49283927D01*
X95371258Y-49279000D01*
X95548742Y-49279000D01*
X95573512Y-49283927D01*
G37*
G36*
X98113512Y-49283927D02*
G01*
X98262812Y-49313624D01*
X98426784Y-49381544D01*
X98574354Y-49480147D01*
X98699853Y-49605646D01*
X98798456Y-49753216D01*
X98866376Y-49917188D01*
X98901000Y-50091259D01*
X98901000Y-50268741D01*
X98866376Y-50442812D01*
X98798456Y-50606784D01*
X98699853Y-50754354D01*
X98574354Y-50879853D01*
X98426784Y-50978456D01*
X98262812Y-51046376D01*
X98113512Y-51076073D01*
X98088742Y-51081000D01*
X97911258Y-51081000D01*
X97886488Y-51076073D01*
X97737188Y-51046376D01*
X97573216Y-50978456D01*
X97425646Y-50879853D01*
X97300147Y-50754354D01*
X97201544Y-50606784D01*
X97133624Y-50442812D01*
X97099000Y-50268741D01*
X97099000Y-50091259D01*
X97133624Y-49917188D01*
X97201544Y-49753216D01*
X97300147Y-49605646D01*
X97425646Y-49480147D01*
X97573216Y-49381544D01*
X97737188Y-49313624D01*
X97886488Y-49283927D01*
X97911258Y-49279000D01*
X98088742Y-49279000D01*
X98113512Y-49283927D01*
G37*
G36*
X93036988Y-46773624D02*
G01*
X93187812Y-46803624D01*
X93351784Y-46871544D01*
X93499354Y-46970147D01*
X93624853Y-47095646D01*
X93723456Y-47243216D01*
X93791376Y-47407188D01*
X93826000Y-47581259D01*
X93826000Y-47758741D01*
X93791376Y-47932812D01*
X93723456Y-48096784D01*
X93624853Y-48244354D01*
X93499354Y-48369853D01*
X93351784Y-48468456D01*
X93187812Y-48536376D01*
X93038512Y-48566073D01*
X93013742Y-48571000D01*
X92836258Y-48571000D01*
X92811488Y-48566073D01*
X92662188Y-48536376D01*
X92498216Y-48468456D01*
X92350646Y-48369853D01*
X92225147Y-48244354D01*
X92126544Y-48096784D01*
X92058624Y-47932812D01*
X92024000Y-47758741D01*
X92024000Y-47581259D01*
X92058624Y-47407188D01*
X92126544Y-47243216D01*
X92225147Y-47095646D01*
X92350646Y-46970147D01*
X92498216Y-46871544D01*
X92662188Y-46803624D01*
X92813012Y-46773624D01*
X92836258Y-46769000D01*
X93013742Y-46769000D01*
X93036988Y-46773624D01*
G37*
G36*
X95573512Y-46743927D02*
G01*
X95722812Y-46773624D01*
X95886784Y-46841544D01*
X96034354Y-46940147D01*
X96159853Y-47065646D01*
X96258456Y-47213216D01*
X96326376Y-47377188D01*
X96361000Y-47551259D01*
X96361000Y-47728741D01*
X96326376Y-47902812D01*
X96258456Y-48066784D01*
X96159853Y-48214354D01*
X96034354Y-48339853D01*
X95886784Y-48438456D01*
X95722812Y-48506376D01*
X95573512Y-48536073D01*
X95548742Y-48541000D01*
X95371258Y-48541000D01*
X95346488Y-48536073D01*
X95197188Y-48506376D01*
X95033216Y-48438456D01*
X94885646Y-48339853D01*
X94760147Y-48214354D01*
X94661544Y-48066784D01*
X94593624Y-47902812D01*
X94559000Y-47728741D01*
X94559000Y-47551259D01*
X94593624Y-47377188D01*
X94661544Y-47213216D01*
X94760147Y-47065646D01*
X94885646Y-46940147D01*
X95033216Y-46841544D01*
X95197188Y-46773624D01*
X95346488Y-46743927D01*
X95371258Y-46739000D01*
X95548742Y-46739000D01*
X95573512Y-46743927D01*
G37*
G36*
X98113512Y-46743927D02*
G01*
X98262812Y-46773624D01*
X98426784Y-46841544D01*
X98574354Y-46940147D01*
X98699853Y-47065646D01*
X98798456Y-47213216D01*
X98866376Y-47377188D01*
X98901000Y-47551259D01*
X98901000Y-47728741D01*
X98866376Y-47902812D01*
X98798456Y-48066784D01*
X98699853Y-48214354D01*
X98574354Y-48339853D01*
X98426784Y-48438456D01*
X98262812Y-48506376D01*
X98113512Y-48536073D01*
X98088742Y-48541000D01*
X97911258Y-48541000D01*
X97886488Y-48536073D01*
X97737188Y-48506376D01*
X97573216Y-48438456D01*
X97425646Y-48339853D01*
X97300147Y-48214354D01*
X97201544Y-48066784D01*
X97133624Y-47902812D01*
X97099000Y-47728741D01*
X97099000Y-47551259D01*
X97133624Y-47377188D01*
X97201544Y-47213216D01*
X97300147Y-47065646D01*
X97425646Y-46940147D01*
X97573216Y-46841544D01*
X97737188Y-46773624D01*
X97886488Y-46743927D01*
X97911258Y-46739000D01*
X98088742Y-46739000D01*
X98113512Y-46743927D01*
G37*
G36*
X93036988Y-44233624D02*
G01*
X93187812Y-44263624D01*
X93351784Y-44331544D01*
X93499354Y-44430147D01*
X93624853Y-44555646D01*
X93723456Y-44703216D01*
X93791376Y-44867188D01*
X93826000Y-45041259D01*
X93826000Y-45218741D01*
X93791376Y-45392812D01*
X93723456Y-45556784D01*
X93624853Y-45704354D01*
X93499354Y-45829853D01*
X93351784Y-45928456D01*
X93187812Y-45996376D01*
X93038512Y-46026073D01*
X93013742Y-46031000D01*
X92836258Y-46031000D01*
X92811488Y-46026073D01*
X92662188Y-45996376D01*
X92498216Y-45928456D01*
X92350646Y-45829853D01*
X92225147Y-45704354D01*
X92126544Y-45556784D01*
X92058624Y-45392812D01*
X92024000Y-45218741D01*
X92024000Y-45041259D01*
X92058624Y-44867188D01*
X92126544Y-44703216D01*
X92225147Y-44555646D01*
X92350646Y-44430147D01*
X92498216Y-44331544D01*
X92662188Y-44263624D01*
X92813012Y-44233624D01*
X92836258Y-44229000D01*
X93013742Y-44229000D01*
X93036988Y-44233624D01*
G37*
G36*
X95573512Y-44203927D02*
G01*
X95722812Y-44233624D01*
X95886784Y-44301544D01*
X96034354Y-44400147D01*
X96159853Y-44525646D01*
X96258456Y-44673216D01*
X96326376Y-44837188D01*
X96361000Y-45011259D01*
X96361000Y-45188741D01*
X96326376Y-45362812D01*
X96258456Y-45526784D01*
X96159853Y-45674354D01*
X96034354Y-45799853D01*
X95886784Y-45898456D01*
X95722812Y-45966376D01*
X95573512Y-45996073D01*
X95548742Y-46001000D01*
X95371258Y-46001000D01*
X95346488Y-45996073D01*
X95197188Y-45966376D01*
X95033216Y-45898456D01*
X94885646Y-45799853D01*
X94760147Y-45674354D01*
X94661544Y-45526784D01*
X94593624Y-45362812D01*
X94559000Y-45188741D01*
X94559000Y-45011259D01*
X94593624Y-44837188D01*
X94661544Y-44673216D01*
X94760147Y-44525646D01*
X94885646Y-44400147D01*
X95033216Y-44301544D01*
X95197188Y-44233624D01*
X95346488Y-44203927D01*
X95371258Y-44199000D01*
X95548742Y-44199000D01*
X95573512Y-44203927D01*
G37*
G36*
X98113512Y-44203927D02*
G01*
X98262812Y-44233624D01*
X98426784Y-44301544D01*
X98574354Y-44400147D01*
X98699853Y-44525646D01*
X98798456Y-44673216D01*
X98866376Y-44837188D01*
X98901000Y-45011259D01*
X98901000Y-45188741D01*
X98866376Y-45362812D01*
X98798456Y-45526784D01*
X98699853Y-45674354D01*
X98574354Y-45799853D01*
X98426784Y-45898456D01*
X98262812Y-45966376D01*
X98113512Y-45996073D01*
X98088742Y-46001000D01*
X97911258Y-46001000D01*
X97886488Y-45996073D01*
X97737188Y-45966376D01*
X97573216Y-45898456D01*
X97425646Y-45799853D01*
X97300147Y-45674354D01*
X97201544Y-45526784D01*
X97133624Y-45362812D01*
X97099000Y-45188741D01*
X97099000Y-45011259D01*
X97133624Y-44837188D01*
X97201544Y-44673216D01*
X97300147Y-44525646D01*
X97425646Y-44400147D01*
X97573216Y-44301544D01*
X97737188Y-44233624D01*
X97886488Y-44203927D01*
X97911258Y-44199000D01*
X98088742Y-44199000D01*
X98113512Y-44203927D01*
G37*
G36*
X93036988Y-41693624D02*
G01*
X93187812Y-41723624D01*
X93351784Y-41791544D01*
X93499354Y-41890147D01*
X93624853Y-42015646D01*
X93723456Y-42163216D01*
X93791376Y-42327188D01*
X93826000Y-42501259D01*
X93826000Y-42678741D01*
X93791376Y-42852812D01*
X93723456Y-43016784D01*
X93624853Y-43164354D01*
X93499354Y-43289853D01*
X93351784Y-43388456D01*
X93187812Y-43456376D01*
X93038512Y-43486073D01*
X93013742Y-43491000D01*
X92836258Y-43491000D01*
X92811488Y-43486073D01*
X92662188Y-43456376D01*
X92498216Y-43388456D01*
X92350646Y-43289853D01*
X92225147Y-43164354D01*
X92126544Y-43016784D01*
X92058624Y-42852812D01*
X92024000Y-42678741D01*
X92024000Y-42501259D01*
X92058624Y-42327188D01*
X92126544Y-42163216D01*
X92225147Y-42015646D01*
X92350646Y-41890147D01*
X92498216Y-41791544D01*
X92662188Y-41723624D01*
X92813012Y-41693624D01*
X92836258Y-41689000D01*
X93013742Y-41689000D01*
X93036988Y-41693624D01*
G37*
G36*
X95573512Y-41663927D02*
G01*
X95722812Y-41693624D01*
X95886784Y-41761544D01*
X96034354Y-41860147D01*
X96159853Y-41985646D01*
X96258456Y-42133216D01*
X96326376Y-42297188D01*
X96361000Y-42471259D01*
X96361000Y-42648741D01*
X96326376Y-42822812D01*
X96258456Y-42986784D01*
X96159853Y-43134354D01*
X96034354Y-43259853D01*
X95886784Y-43358456D01*
X95722812Y-43426376D01*
X95573512Y-43456073D01*
X95548742Y-43461000D01*
X95371258Y-43461000D01*
X95346488Y-43456073D01*
X95197188Y-43426376D01*
X95033216Y-43358456D01*
X94885646Y-43259853D01*
X94760147Y-43134354D01*
X94661544Y-42986784D01*
X94593624Y-42822812D01*
X94559000Y-42648741D01*
X94559000Y-42471259D01*
X94593624Y-42297188D01*
X94661544Y-42133216D01*
X94760147Y-41985646D01*
X94885646Y-41860147D01*
X95033216Y-41761544D01*
X95197188Y-41693624D01*
X95346488Y-41663927D01*
X95371258Y-41659000D01*
X95548742Y-41659000D01*
X95573512Y-41663927D01*
G37*
G36*
X98113512Y-41663927D02*
G01*
X98262812Y-41693624D01*
X98426784Y-41761544D01*
X98574354Y-41860147D01*
X98699853Y-41985646D01*
X98798456Y-42133216D01*
X98866376Y-42297188D01*
X98901000Y-42471259D01*
X98901000Y-42648741D01*
X98866376Y-42822812D01*
X98798456Y-42986784D01*
X98699853Y-43134354D01*
X98574354Y-43259853D01*
X98426784Y-43358456D01*
X98262812Y-43426376D01*
X98113512Y-43456073D01*
X98088742Y-43461000D01*
X97911258Y-43461000D01*
X97886488Y-43456073D01*
X97737188Y-43426376D01*
X97573216Y-43358456D01*
X97425646Y-43259853D01*
X97300147Y-43134354D01*
X97201544Y-42986784D01*
X97133624Y-42822812D01*
X97099000Y-42648741D01*
X97099000Y-42471259D01*
X97133624Y-42297188D01*
X97201544Y-42133216D01*
X97300147Y-41985646D01*
X97425646Y-41860147D01*
X97573216Y-41761544D01*
X97737188Y-41693624D01*
X97886488Y-41663927D01*
X97911258Y-41659000D01*
X98088742Y-41659000D01*
X98113512Y-41663927D01*
G37*
G36*
X93826000Y-40951000D02*
G01*
X92024000Y-40951000D01*
X92024000Y-39149000D01*
X93826000Y-39149000D01*
X93826000Y-40951000D01*
G37*
G36*
X98113512Y-39123927D02*
G01*
X98262812Y-39153624D01*
X98426784Y-39221544D01*
X98574354Y-39320147D01*
X98699853Y-39445646D01*
X98798456Y-39593216D01*
X98866376Y-39757188D01*
X98901000Y-39931259D01*
X98901000Y-40108741D01*
X98866376Y-40282812D01*
X98798456Y-40446784D01*
X98699853Y-40594354D01*
X98574354Y-40719853D01*
X98426784Y-40818456D01*
X98262812Y-40886376D01*
X98113512Y-40916073D01*
X98088742Y-40921000D01*
X97911258Y-40921000D01*
X97886488Y-40916073D01*
X97737188Y-40886376D01*
X97573216Y-40818456D01*
X97425646Y-40719853D01*
X97300147Y-40594354D01*
X97201544Y-40446784D01*
X97133624Y-40282812D01*
X97099000Y-40108741D01*
X97099000Y-39931259D01*
X97133624Y-39757188D01*
X97201544Y-39593216D01*
X97300147Y-39445646D01*
X97425646Y-39320147D01*
X97573216Y-39221544D01*
X97737188Y-39153624D01*
X97886488Y-39123927D01*
X97911258Y-39119000D01*
X98088742Y-39119000D01*
X98113512Y-39123927D01*
G37*
G36*
X95573512Y-39123927D02*
G01*
X95722812Y-39153624D01*
X95886784Y-39221544D01*
X96034354Y-39320147D01*
X96159853Y-39445646D01*
X96258456Y-39593216D01*
X96326376Y-39757188D01*
X96361000Y-39931259D01*
X96361000Y-40108741D01*
X96326376Y-40282812D01*
X96258456Y-40446784D01*
X96159853Y-40594354D01*
X96034354Y-40719853D01*
X95886784Y-40818456D01*
X95722812Y-40886376D01*
X95573512Y-40916073D01*
X95548742Y-40921000D01*
X95371258Y-40921000D01*
X95346488Y-40916073D01*
X95197188Y-40886376D01*
X95033216Y-40818456D01*
X94885646Y-40719853D01*
X94760147Y-40594354D01*
X94661544Y-40446784D01*
X94593624Y-40282812D01*
X94559000Y-40108741D01*
X94559000Y-39931259D01*
X94593624Y-39757188D01*
X94661544Y-39593216D01*
X94760147Y-39445646D01*
X94885646Y-39320147D01*
X95033216Y-39221544D01*
X95197188Y-39153624D01*
X95346488Y-39123927D01*
X95371258Y-39119000D01*
X95548742Y-39119000D01*
X95573512Y-39123927D01*
G37*
G36*
X98451000Y-35601000D02*
G01*
X92349000Y-35601000D01*
X92349000Y-31999000D01*
X98451000Y-31999000D01*
X98451000Y-35601000D01*
G37*
G36*
X25548156Y-20672794D02*
G01*
X26269140Y-20816206D01*
X27060972Y-21144193D01*
X27773601Y-21620357D01*
X28379643Y-22226399D01*
X28855807Y-22939028D01*
X29183794Y-23730860D01*
X29351000Y-24571464D01*
X29351000Y-25428536D01*
X29183794Y-26269140D01*
X28855807Y-27060972D01*
X28379643Y-27773601D01*
X27773601Y-28379643D01*
X27060972Y-28855807D01*
X26269140Y-29183794D01*
X25548156Y-29327206D01*
X25428537Y-29351000D01*
X24571463Y-29351000D01*
X24451844Y-29327206D01*
X23730860Y-29183794D01*
X22939028Y-28855807D01*
X22226399Y-28379643D01*
X21620357Y-27773601D01*
X21144193Y-27060972D01*
X20816206Y-26269140D01*
X20649000Y-25428536D01*
X20649000Y-24571464D01*
X20816206Y-23730860D01*
X21144193Y-22939028D01*
X21620357Y-22226399D01*
X22226399Y-21620357D01*
X22939028Y-21144193D01*
X23730860Y-20816206D01*
X24451844Y-20672794D01*
X24571463Y-20649000D01*
X25428537Y-20649000D01*
X25548156Y-20672794D01*
G37*
G36*
X95548156Y-20672794D02*
G01*
X96269140Y-20816206D01*
X97060972Y-21144193D01*
X97773601Y-21620357D01*
X98379643Y-22226399D01*
X98855807Y-22939028D01*
X99183794Y-23730860D01*
X99351000Y-24571464D01*
X99351000Y-25428536D01*
X99183794Y-26269140D01*
X98855807Y-27060972D01*
X98379643Y-27773601D01*
X97773601Y-28379643D01*
X97060972Y-28855807D01*
X96269140Y-29183794D01*
X95548156Y-29327206D01*
X95428537Y-29351000D01*
X94571463Y-29351000D01*
X94451844Y-29327206D01*
X93730860Y-29183794D01*
X92939028Y-28855807D01*
X92226399Y-28379643D01*
X91620357Y-27773601D01*
X91144193Y-27060972D01*
X90816206Y-26269140D01*
X90649000Y-25428536D01*
X90649000Y-24571464D01*
X90816206Y-23730860D01*
X91144193Y-22939028D01*
X91620357Y-22226399D01*
X92226399Y-21620357D01*
X92939028Y-21144193D01*
X93730860Y-20816206D01*
X94451844Y-20672794D01*
X94571463Y-20649000D01*
X95428537Y-20649000D01*
X95548156Y-20672794D01*
G37*
G36*
X66620721Y-23270174D02*
G01*
X66720995Y-23311709D01*
X66720996Y-23311710D01*
X66811242Y-23372010D01*
X66887990Y-23448758D01*
X66887991Y-23448760D01*
X66948291Y-23539005D01*
X66979516Y-23614389D01*
X66991067Y-23636000D01*
X67006612Y-23654941D01*
X67025554Y-23670487D01*
X67047165Y-23682038D01*
X67070614Y-23689151D01*
X67095000Y-23691553D01*
X67119386Y-23689151D01*
X67142835Y-23682038D01*
X67164446Y-23670487D01*
X67183387Y-23654942D01*
X67198933Y-23636000D01*
X67210484Y-23614389D01*
X67241709Y-23539005D01*
X67302009Y-23448760D01*
X67302010Y-23448758D01*
X67378758Y-23372010D01*
X67469004Y-23311710D01*
X67469005Y-23311709D01*
X67569279Y-23270174D01*
X67675730Y-23249000D01*
X67784270Y-23249000D01*
X67890721Y-23270174D01*
X67990995Y-23311709D01*
X67990996Y-23311710D01*
X68081242Y-23372010D01*
X68157990Y-23448758D01*
X68157991Y-23448760D01*
X68218291Y-23539005D01*
X68249516Y-23614389D01*
X68261067Y-23636000D01*
X68276612Y-23654941D01*
X68295554Y-23670487D01*
X68317165Y-23682038D01*
X68340614Y-23689151D01*
X68365000Y-23691553D01*
X68389386Y-23689151D01*
X68412835Y-23682038D01*
X68434446Y-23670487D01*
X68453387Y-23654942D01*
X68468933Y-23636000D01*
X68480484Y-23614389D01*
X68511709Y-23539005D01*
X68572009Y-23448760D01*
X68572010Y-23448758D01*
X68648758Y-23372010D01*
X68739004Y-23311710D01*
X68739005Y-23311709D01*
X68839279Y-23270174D01*
X68945730Y-23249000D01*
X69054270Y-23249000D01*
X69160721Y-23270174D01*
X69260995Y-23311709D01*
X69260996Y-23311710D01*
X69351242Y-23372010D01*
X69427990Y-23448758D01*
X69427991Y-23448760D01*
X69488291Y-23539005D01*
X69519516Y-23614389D01*
X69531067Y-23636000D01*
X69546612Y-23654941D01*
X69565554Y-23670487D01*
X69587165Y-23682038D01*
X69610614Y-23689151D01*
X69635000Y-23691553D01*
X69659386Y-23689151D01*
X69682835Y-23682038D01*
X69704446Y-23670487D01*
X69723387Y-23654942D01*
X69738933Y-23636000D01*
X69750484Y-23614389D01*
X69781709Y-23539005D01*
X69842009Y-23448760D01*
X69842010Y-23448758D01*
X69918758Y-23372010D01*
X70009004Y-23311710D01*
X70009005Y-23311709D01*
X70109279Y-23270174D01*
X70215730Y-23249000D01*
X70324270Y-23249000D01*
X70430721Y-23270174D01*
X70530995Y-23311709D01*
X70530996Y-23311710D01*
X70621242Y-23372010D01*
X70697990Y-23448758D01*
X70697991Y-23448760D01*
X70760068Y-23541664D01*
X70775614Y-23560606D01*
X70794556Y-23576151D01*
X70816167Y-23587702D01*
X70839615Y-23594815D01*
X70864002Y-23597217D01*
X70888388Y-23594815D01*
X70911837Y-23587702D01*
X70933447Y-23576151D01*
X70952389Y-23560605D01*
X70967934Y-23541663D01*
X70979485Y-23520052D01*
X70986598Y-23496604D01*
X70989000Y-23472218D01*
X70989000Y-23249000D01*
X72091000Y-23249000D01*
X72091000Y-24351000D01*
X71867782Y-24351000D01*
X71843396Y-24353402D01*
X71819947Y-24360515D01*
X71798336Y-24372066D01*
X71779394Y-24387611D01*
X71763849Y-24406553D01*
X71752298Y-24428164D01*
X71745185Y-24451613D01*
X71742783Y-24475999D01*
X71745185Y-24500385D01*
X71752298Y-24523834D01*
X71763849Y-24545445D01*
X71779394Y-24564387D01*
X71798336Y-24579932D01*
X71859816Y-24621012D01*
X71891242Y-24642010D01*
X71967990Y-24718758D01*
X71967991Y-24718760D01*
X72028291Y-24809005D01*
X72069826Y-24909279D01*
X72091000Y-25015730D01*
X72091000Y-25124270D01*
X72069826Y-25230721D01*
X72028291Y-25330995D01*
X72028290Y-25330996D01*
X71967990Y-25421242D01*
X71891242Y-25497990D01*
X71886737Y-25501000D01*
X71800995Y-25558291D01*
X71700721Y-25599826D01*
X71594270Y-25621000D01*
X71485730Y-25621000D01*
X71379279Y-25599826D01*
X71279005Y-25558291D01*
X71193263Y-25501000D01*
X71188758Y-25497990D01*
X71112010Y-25421242D01*
X71051710Y-25330996D01*
X71051709Y-25330995D01*
X71020484Y-25255611D01*
X71008933Y-25234000D01*
X70993388Y-25215059D01*
X70974446Y-25199513D01*
X70952835Y-25187962D01*
X70929386Y-25180849D01*
X70905000Y-25178447D01*
X70880614Y-25180849D01*
X70857165Y-25187962D01*
X70835554Y-25199513D01*
X70816613Y-25215058D01*
X70801067Y-25234000D01*
X70789516Y-25255611D01*
X70758291Y-25330995D01*
X70758290Y-25330996D01*
X70697990Y-25421242D01*
X70621242Y-25497990D01*
X70616737Y-25501000D01*
X70530995Y-25558291D01*
X70430721Y-25599826D01*
X70324270Y-25621000D01*
X70215730Y-25621000D01*
X70109279Y-25599826D01*
X70009005Y-25558291D01*
X69923263Y-25501000D01*
X69918758Y-25497990D01*
X69842010Y-25421242D01*
X69781710Y-25330996D01*
X69781709Y-25330995D01*
X69750484Y-25255611D01*
X69738933Y-25234000D01*
X69723388Y-25215059D01*
X69704446Y-25199513D01*
X69682835Y-25187962D01*
X69659386Y-25180849D01*
X69635000Y-25178447D01*
X69610614Y-25180849D01*
X69587165Y-25187962D01*
X69565554Y-25199513D01*
X69546613Y-25215058D01*
X69531067Y-25234000D01*
X69519516Y-25255611D01*
X69488291Y-25330995D01*
X69488290Y-25330996D01*
X69427990Y-25421242D01*
X69351242Y-25497990D01*
X69346737Y-25501000D01*
X69260995Y-25558291D01*
X69160721Y-25599826D01*
X69054270Y-25621000D01*
X68945730Y-25621000D01*
X68839279Y-25599826D01*
X68739005Y-25558291D01*
X68653263Y-25501000D01*
X68648758Y-25497990D01*
X68572010Y-25421242D01*
X68511710Y-25330996D01*
X68511709Y-25330995D01*
X68480484Y-25255611D01*
X68468933Y-25234000D01*
X68453388Y-25215059D01*
X68434446Y-25199513D01*
X68412835Y-25187962D01*
X68389386Y-25180849D01*
X68365000Y-25178447D01*
X68340614Y-25180849D01*
X68317165Y-25187962D01*
X68295554Y-25199513D01*
X68276613Y-25215058D01*
X68261067Y-25234000D01*
X68249516Y-25255611D01*
X68218291Y-25330995D01*
X68218290Y-25330996D01*
X68157990Y-25421242D01*
X68081242Y-25497990D01*
X68076737Y-25501000D01*
X67990995Y-25558291D01*
X67890721Y-25599826D01*
X67784270Y-25621000D01*
X67675730Y-25621000D01*
X67569279Y-25599826D01*
X67469005Y-25558291D01*
X67383263Y-25501000D01*
X67378758Y-25497990D01*
X67302010Y-25421242D01*
X67241710Y-25330996D01*
X67241709Y-25330995D01*
X67210484Y-25255611D01*
X67198933Y-25234000D01*
X67183388Y-25215059D01*
X67164446Y-25199513D01*
X67142835Y-25187962D01*
X67119386Y-25180849D01*
X67095000Y-25178447D01*
X67070614Y-25180849D01*
X67047165Y-25187962D01*
X67025554Y-25199513D01*
X67006613Y-25215058D01*
X66991067Y-25234000D01*
X66979516Y-25255611D01*
X66948291Y-25330995D01*
X66948290Y-25330996D01*
X66887990Y-25421242D01*
X66811242Y-25497990D01*
X66806737Y-25501000D01*
X66720995Y-25558291D01*
X66620721Y-25599826D01*
X66514270Y-25621000D01*
X66405730Y-25621000D01*
X66299279Y-25599826D01*
X66199005Y-25558291D01*
X66113263Y-25501000D01*
X66108758Y-25497990D01*
X66032010Y-25421242D01*
X65971710Y-25330996D01*
X65971709Y-25330995D01*
X65930174Y-25230721D01*
X65909000Y-25124270D01*
X65909000Y-25015730D01*
X65930174Y-24909279D01*
X65971709Y-24809005D01*
X66032009Y-24718760D01*
X66032010Y-24718758D01*
X66108758Y-24642010D01*
X66199004Y-24581710D01*
X66199005Y-24581709D01*
X66274389Y-24550484D01*
X66296000Y-24538933D01*
X66314941Y-24523388D01*
X66330487Y-24504446D01*
X66342038Y-24482835D01*
X66349151Y-24459386D01*
X66351553Y-24435000D01*
X66568447Y-24435000D01*
X66570849Y-24459386D01*
X66577962Y-24482835D01*
X66589513Y-24504446D01*
X66605058Y-24523387D01*
X66624000Y-24538933D01*
X66645611Y-24550484D01*
X66720995Y-24581709D01*
X66720996Y-24581710D01*
X66811242Y-24642010D01*
X66887990Y-24718758D01*
X66887991Y-24718760D01*
X66948291Y-24809005D01*
X66979516Y-24884389D01*
X66991067Y-24906000D01*
X67006612Y-24924941D01*
X67025554Y-24940487D01*
X67047165Y-24952038D01*
X67070614Y-24959151D01*
X67095000Y-24961553D01*
X67119386Y-24959151D01*
X67142835Y-24952038D01*
X67164446Y-24940487D01*
X67183387Y-24924942D01*
X67198933Y-24906000D01*
X67210484Y-24884389D01*
X67241709Y-24809005D01*
X67302009Y-24718760D01*
X67302010Y-24718758D01*
X67378758Y-24642010D01*
X67469004Y-24581710D01*
X67469005Y-24581709D01*
X67544389Y-24550484D01*
X67566000Y-24538933D01*
X67584941Y-24523388D01*
X67600487Y-24504446D01*
X67612038Y-24482835D01*
X67619151Y-24459386D01*
X67621553Y-24435000D01*
X67838447Y-24435000D01*
X67840849Y-24459386D01*
X67847962Y-24482835D01*
X67859513Y-24504446D01*
X67875058Y-24523387D01*
X67894000Y-24538933D01*
X67915611Y-24550484D01*
X67990995Y-24581709D01*
X67990996Y-24581710D01*
X68081242Y-24642010D01*
X68157990Y-24718758D01*
X68157991Y-24718760D01*
X68218291Y-24809005D01*
X68249516Y-24884389D01*
X68261067Y-24906000D01*
X68276612Y-24924941D01*
X68295554Y-24940487D01*
X68317165Y-24952038D01*
X68340614Y-24959151D01*
X68365000Y-24961553D01*
X68389386Y-24959151D01*
X68412835Y-24952038D01*
X68434446Y-24940487D01*
X68453387Y-24924942D01*
X68468933Y-24906000D01*
X68480484Y-24884389D01*
X68511709Y-24809005D01*
X68572009Y-24718760D01*
X68572010Y-24718758D01*
X68648758Y-24642010D01*
X68739004Y-24581710D01*
X68739005Y-24581709D01*
X68814389Y-24550484D01*
X68836000Y-24538933D01*
X68854941Y-24523388D01*
X68870487Y-24504446D01*
X68882038Y-24482835D01*
X68889151Y-24459386D01*
X68891553Y-24435000D01*
X69108447Y-24435000D01*
X69110849Y-24459386D01*
X69117962Y-24482835D01*
X69129513Y-24504446D01*
X69145058Y-24523387D01*
X69164000Y-24538933D01*
X69185611Y-24550484D01*
X69260995Y-24581709D01*
X69260996Y-24581710D01*
X69351242Y-24642010D01*
X69427990Y-24718758D01*
X69427991Y-24718760D01*
X69488291Y-24809005D01*
X69519516Y-24884389D01*
X69531067Y-24906000D01*
X69546612Y-24924941D01*
X69565554Y-24940487D01*
X69587165Y-24952038D01*
X69610614Y-24959151D01*
X69635000Y-24961553D01*
X69659386Y-24959151D01*
X69682835Y-24952038D01*
X69704446Y-24940487D01*
X69723387Y-24924942D01*
X69738933Y-24906000D01*
X69750484Y-24884389D01*
X69781709Y-24809005D01*
X69842009Y-24718760D01*
X69842010Y-24718758D01*
X69918758Y-24642010D01*
X70009004Y-24581710D01*
X70009005Y-24581709D01*
X70084389Y-24550484D01*
X70106000Y-24538933D01*
X70124941Y-24523388D01*
X70140487Y-24504446D01*
X70152038Y-24482835D01*
X70159151Y-24459386D01*
X70161553Y-24435000D01*
X70378447Y-24435000D01*
X70380849Y-24459386D01*
X70387962Y-24482835D01*
X70399513Y-24504446D01*
X70415058Y-24523387D01*
X70434000Y-24538933D01*
X70455611Y-24550484D01*
X70530995Y-24581709D01*
X70530996Y-24581710D01*
X70621242Y-24642010D01*
X70697990Y-24718758D01*
X70697991Y-24718760D01*
X70758291Y-24809005D01*
X70789516Y-24884389D01*
X70801067Y-24906000D01*
X70816612Y-24924941D01*
X70835554Y-24940487D01*
X70857165Y-24952038D01*
X70880614Y-24959151D01*
X70905000Y-24961553D01*
X70929386Y-24959151D01*
X70952835Y-24952038D01*
X70974446Y-24940487D01*
X70993387Y-24924942D01*
X71008933Y-24906000D01*
X71020484Y-24884389D01*
X71051709Y-24809005D01*
X71112009Y-24718760D01*
X71112010Y-24718758D01*
X71188758Y-24642010D01*
X71220184Y-24621012D01*
X71281664Y-24579932D01*
X71300606Y-24564386D01*
X71316151Y-24545444D01*
X71327702Y-24523833D01*
X71334815Y-24500385D01*
X71337217Y-24475998D01*
X71334815Y-24451612D01*
X71327702Y-24428163D01*
X71316151Y-24406553D01*
X71300605Y-24387611D01*
X71281663Y-24372066D01*
X71260052Y-24360515D01*
X71236604Y-24353402D01*
X71212218Y-24351000D01*
X70989000Y-24351000D01*
X70989000Y-24127782D01*
X70986598Y-24103396D01*
X70979485Y-24079947D01*
X70967934Y-24058336D01*
X70952389Y-24039394D01*
X70933447Y-24023849D01*
X70911836Y-24012298D01*
X70888387Y-24005185D01*
X70864001Y-24002783D01*
X70839615Y-24005185D01*
X70816166Y-24012298D01*
X70794555Y-24023849D01*
X70775613Y-24039394D01*
X70760068Y-24058336D01*
X70718988Y-24119816D01*
X70697990Y-24151242D01*
X70621242Y-24227990D01*
X70575812Y-24258345D01*
X70530995Y-24288291D01*
X70455611Y-24319516D01*
X70434000Y-24331067D01*
X70415059Y-24346612D01*
X70399513Y-24365554D01*
X70387962Y-24387165D01*
X70380849Y-24410614D01*
X70378447Y-24435000D01*
X70161553Y-24435000D01*
X70159151Y-24410614D01*
X70152038Y-24387165D01*
X70140487Y-24365554D01*
X70124942Y-24346613D01*
X70106000Y-24331067D01*
X70084389Y-24319516D01*
X70009005Y-24288291D01*
X69964188Y-24258345D01*
X69918758Y-24227990D01*
X69842010Y-24151242D01*
X69810041Y-24103396D01*
X69781709Y-24060995D01*
X69750484Y-23985611D01*
X69738933Y-23964000D01*
X69723388Y-23945059D01*
X69704446Y-23929513D01*
X69682835Y-23917962D01*
X69659386Y-23910849D01*
X69635000Y-23908447D01*
X69610614Y-23910849D01*
X69587165Y-23917962D01*
X69565554Y-23929513D01*
X69546613Y-23945058D01*
X69531067Y-23964000D01*
X69519516Y-23985611D01*
X69488291Y-24060995D01*
X69459959Y-24103396D01*
X69427990Y-24151242D01*
X69351242Y-24227990D01*
X69305812Y-24258345D01*
X69260995Y-24288291D01*
X69185611Y-24319516D01*
X69164000Y-24331067D01*
X69145059Y-24346612D01*
X69129513Y-24365554D01*
X69117962Y-24387165D01*
X69110849Y-24410614D01*
X69108447Y-24435000D01*
X68891553Y-24435000D01*
X68889151Y-24410614D01*
X68882038Y-24387165D01*
X68870487Y-24365554D01*
X68854942Y-24346613D01*
X68836000Y-24331067D01*
X68814389Y-24319516D01*
X68739005Y-24288291D01*
X68694188Y-24258345D01*
X68648758Y-24227990D01*
X68572010Y-24151242D01*
X68540041Y-24103396D01*
X68511709Y-24060995D01*
X68480484Y-23985611D01*
X68468933Y-23964000D01*
X68453388Y-23945059D01*
X68434446Y-23929513D01*
X68412835Y-23917962D01*
X68389386Y-23910849D01*
X68365000Y-23908447D01*
X68340614Y-23910849D01*
X68317165Y-23917962D01*
X68295554Y-23929513D01*
X68276613Y-23945058D01*
X68261067Y-23964000D01*
X68249516Y-23985611D01*
X68218291Y-24060995D01*
X68189959Y-24103396D01*
X68157990Y-24151242D01*
X68081242Y-24227990D01*
X68035812Y-24258345D01*
X67990995Y-24288291D01*
X67915611Y-24319516D01*
X67894000Y-24331067D01*
X67875059Y-24346612D01*
X67859513Y-24365554D01*
X67847962Y-24387165D01*
X67840849Y-24410614D01*
X67838447Y-24435000D01*
X67621553Y-24435000D01*
X67619151Y-24410614D01*
X67612038Y-24387165D01*
X67600487Y-24365554D01*
X67584942Y-24346613D01*
X67566000Y-24331067D01*
X67544389Y-24319516D01*
X67469005Y-24288291D01*
X67424188Y-24258345D01*
X67378758Y-24227990D01*
X67302010Y-24151242D01*
X67270041Y-24103396D01*
X67241709Y-24060995D01*
X67210484Y-23985611D01*
X67198933Y-23964000D01*
X67183388Y-23945059D01*
X67164446Y-23929513D01*
X67142835Y-23917962D01*
X67119386Y-23910849D01*
X67095000Y-23908447D01*
X67070614Y-23910849D01*
X67047165Y-23917962D01*
X67025554Y-23929513D01*
X67006613Y-23945058D01*
X66991067Y-23964000D01*
X66979516Y-23985611D01*
X66948291Y-24060995D01*
X66919959Y-24103396D01*
X66887990Y-24151242D01*
X66811242Y-24227990D01*
X66765812Y-24258345D01*
X66720995Y-24288291D01*
X66645611Y-24319516D01*
X66624000Y-24331067D01*
X66605059Y-24346612D01*
X66589513Y-24365554D01*
X66577962Y-24387165D01*
X66570849Y-24410614D01*
X66568447Y-24435000D01*
X66351553Y-24435000D01*
X66349151Y-24410614D01*
X66342038Y-24387165D01*
X66330487Y-24365554D01*
X66314942Y-24346613D01*
X66296000Y-24331067D01*
X66274389Y-24319516D01*
X66199005Y-24288291D01*
X66154188Y-24258345D01*
X66108758Y-24227990D01*
X66032010Y-24151242D01*
X66000041Y-24103396D01*
X65971709Y-24060995D01*
X65930174Y-23960721D01*
X65909000Y-23854270D01*
X65909000Y-23745730D01*
X65930174Y-23639279D01*
X65971709Y-23539005D01*
X66032009Y-23448760D01*
X66032010Y-23448758D01*
X66108758Y-23372010D01*
X66199004Y-23311710D01*
X66199005Y-23311709D01*
X66299279Y-23270174D01*
X66405730Y-23249000D01*
X66514270Y-23249000D01*
X66620721Y-23270174D01*
G37*
G36*
X56580508Y-22584606D02*
G01*
X56630734Y-22605411D01*
X56675937Y-22635615D01*
X56714385Y-22674063D01*
X56744589Y-22719266D01*
X56765394Y-22769492D01*
X56776000Y-22822815D01*
X56776000Y-22877185D01*
X56765394Y-22930508D01*
X56744589Y-22980734D01*
X56714385Y-23025937D01*
X56675937Y-23064385D01*
X56630734Y-23094589D01*
X56580508Y-23115394D01*
X56527185Y-23126000D01*
X56472815Y-23126000D01*
X56419492Y-23115394D01*
X56369266Y-23094589D01*
X56324063Y-23064385D01*
X56285615Y-23025937D01*
X56255411Y-22980734D01*
X56234606Y-22930508D01*
X56224000Y-22877185D01*
X56224000Y-22822815D01*
X56234606Y-22769492D01*
X56255411Y-22719266D01*
X56285615Y-22674063D01*
X56324063Y-22635615D01*
X56369266Y-22605411D01*
X56419492Y-22584606D01*
X56472815Y-22574000D01*
X56527185Y-22574000D01*
X56580508Y-22584606D01*
G37*
G36*
X59580508Y-22584606D02*
G01*
X59630734Y-22605411D01*
X59675937Y-22635615D01*
X59714385Y-22674063D01*
X59744589Y-22719266D01*
X59765394Y-22769492D01*
X59776000Y-22822815D01*
X59776000Y-22877185D01*
X59765394Y-22930508D01*
X59744589Y-22980734D01*
X59714385Y-23025937D01*
X59675937Y-23064385D01*
X59630734Y-23094589D01*
X59580508Y-23115394D01*
X59527185Y-23126000D01*
X59472815Y-23126000D01*
X59419492Y-23115394D01*
X59369266Y-23094589D01*
X59324063Y-23064385D01*
X59285615Y-23025937D01*
X59255411Y-22980734D01*
X59234606Y-22930508D01*
X59224000Y-22877185D01*
X59224000Y-22822815D01*
X59234606Y-22769492D01*
X59255411Y-22719266D01*
X59285615Y-22674063D01*
X59324063Y-22635615D01*
X59369266Y-22605411D01*
X59419492Y-22584606D01*
X59472815Y-22574000D01*
X59527185Y-22574000D01*
X59580508Y-22584606D01*
G37*
G36*
X77847222Y-20734867D02*
G01*
X77988786Y-20777810D01*
X78119252Y-20847546D01*
X78149040Y-20871992D01*
X78233607Y-20941393D01*
X78303008Y-21025960D01*
X78327454Y-21055748D01*
X78397190Y-21186214D01*
X78440133Y-21327778D01*
X78451000Y-21438114D01*
X78451000Y-21911887D01*
X78440133Y-22022222D01*
X78397190Y-22163786D01*
X78327454Y-22294252D01*
X78297764Y-22330429D01*
X78233607Y-22408606D01*
X78169415Y-22461286D01*
X78119251Y-22502454D01*
X77988785Y-22572190D01*
X77847221Y-22615133D01*
X77700000Y-22629633D01*
X77552778Y-22615133D01*
X77411214Y-22572190D01*
X77280748Y-22502454D01*
X77236066Y-22465784D01*
X77166394Y-22408607D01*
X77072547Y-22294252D01*
X77072546Y-22294251D01*
X77002810Y-22163785D01*
X76959867Y-22022221D01*
X76949000Y-21911886D01*
X76949000Y-21438113D01*
X76959867Y-21327778D01*
X77002810Y-21186214D01*
X77072546Y-21055748D01*
X77166394Y-20941394D01*
X77280749Y-20847546D01*
X77411215Y-20777810D01*
X77552779Y-20734867D01*
X77700000Y-20720367D01*
X77847222Y-20734867D01*
G37*
G36*
X84447222Y-20734867D02*
G01*
X84588786Y-20777810D01*
X84719252Y-20847546D01*
X84749040Y-20871992D01*
X84833607Y-20941393D01*
X84903008Y-21025960D01*
X84927454Y-21055748D01*
X84997190Y-21186214D01*
X85040133Y-21327778D01*
X85051000Y-21438114D01*
X85051000Y-21911887D01*
X85040133Y-22022222D01*
X84997190Y-22163786D01*
X84927454Y-22294252D01*
X84897764Y-22330429D01*
X84833607Y-22408606D01*
X84769415Y-22461286D01*
X84719251Y-22502454D01*
X84588785Y-22572190D01*
X84447221Y-22615133D01*
X84300000Y-22629633D01*
X84152778Y-22615133D01*
X84011214Y-22572190D01*
X83880748Y-22502454D01*
X83836066Y-22465784D01*
X83766394Y-22408607D01*
X83672547Y-22294252D01*
X83672546Y-22294251D01*
X83602810Y-22163785D01*
X83559867Y-22022221D01*
X83549000Y-21911886D01*
X83549000Y-21438113D01*
X83559867Y-21327778D01*
X83602810Y-21186214D01*
X83672546Y-21055748D01*
X83766394Y-20941394D01*
X83880749Y-20847546D01*
X84011215Y-20777810D01*
X84152779Y-20734867D01*
X84300000Y-20720367D01*
X84447222Y-20734867D01*
G37*
M02*
