G04 #@! TF.GenerationSoftware,KiCad,Pcbnew,(5.1.5)-3*
G04 #@! TF.CreationDate,2020-07-07T14:13:24+02:00*
G04 #@! TF.ProjectId,HadesNT,48616465-734e-4542-9e6b-696361645f70,rev?*
G04 #@! TF.SameCoordinates,Original*
G04 #@! TF.FileFunction,Copper,L4,Bot*
G04 #@! TF.FilePolarity,Positive*
%FSLAX46Y46*%
G04 Gerber Fmt 4.6, Leading zero omitted, Abs format (unit mm)*
G04 Created by KiCad (PCBNEW (5.1.5)-3) date 2020-07-07 14:13:24*
%MOMM*%
%LPD*%
G04 APERTURE LIST*
%ADD10R,6.000000X3.500000*%
%ADD11O,1.400000X1.800000*%
%ADD12C,0.900000*%
%ADD13C,8.600000*%
%ADD14R,1.000000X1.000000*%
%ADD15O,1.000000X1.000000*%
%ADD16R,1.700000X1.700000*%
%ADD17O,1.700000X1.700000*%
%ADD18C,0.450000*%
%ADD19C,0.800000*%
%ADD20C,1.000000*%
%ADD21C,0.300000*%
%ADD22C,2.000000*%
%ADD23C,0.500000*%
%ADD24C,1.000000*%
%ADD25C,0.293370*%
G04 APERTURE END LIST*
D10*
X95400000Y-33800000D03*
D11*
X84300000Y-21675000D03*
X77700000Y-21675000D03*
D12*
X27280419Y-22719581D03*
X25000000Y-21775000D03*
X22719581Y-22719581D03*
X21775000Y-25000000D03*
X22719581Y-27280419D03*
X25000000Y-28225000D03*
X27280419Y-27280419D03*
X28225000Y-25000000D03*
D13*
X25000000Y-25000000D03*
X25000000Y-65000000D03*
D12*
X28225000Y-65000000D03*
X27280419Y-67280419D03*
X25000000Y-68225000D03*
X22719581Y-67280419D03*
X21775000Y-65000000D03*
X22719581Y-62719581D03*
X25000000Y-61775000D03*
X27280419Y-62719581D03*
X97280419Y-62719581D03*
X95000000Y-61775000D03*
X92719581Y-62719581D03*
X91775000Y-65000000D03*
X92719581Y-67280419D03*
X95000000Y-68225000D03*
X97280419Y-67280419D03*
X98225000Y-65000000D03*
D13*
X95000000Y-65000000D03*
X95000000Y-25000000D03*
D12*
X98225000Y-25000000D03*
X97280419Y-27280419D03*
X95000000Y-28225000D03*
X92719581Y-27280419D03*
X91775000Y-25000000D03*
X92719581Y-22719581D03*
X95000000Y-21775000D03*
X97280419Y-22719581D03*
D14*
X71540000Y-23800000D03*
D15*
X71540000Y-25070000D03*
X70270000Y-23800000D03*
X70270000Y-25070000D03*
X69000000Y-23800000D03*
X69000000Y-25070000D03*
X67730000Y-23800000D03*
X67730000Y-25070000D03*
X66460000Y-23800000D03*
X66460000Y-25070000D03*
D16*
X98000000Y-57800000D03*
D17*
X95460000Y-57800000D03*
X98000000Y-55260000D03*
X95460000Y-55260000D03*
X98000000Y-52720000D03*
X95460000Y-52720000D03*
X98000000Y-50180000D03*
X95460000Y-50180000D03*
X98000000Y-47640000D03*
X95460000Y-47640000D03*
X98000000Y-45100000D03*
X95460000Y-45100000D03*
X98000000Y-42560000D03*
X95460000Y-42560000D03*
X98000000Y-40020000D03*
X95460000Y-40020000D03*
D16*
X92925000Y-40050000D03*
D17*
X92925000Y-42590000D03*
X92925000Y-45130000D03*
X92925000Y-47670000D03*
X92925000Y-50210000D03*
X92925000Y-52750000D03*
X92925000Y-55290000D03*
X92925000Y-57830000D03*
D18*
X59500000Y-22850000D03*
X56500000Y-22850000D03*
D19*
X41250000Y-34400000D03*
X40300000Y-43200000D03*
X74000000Y-60450000D03*
X81350000Y-28300000D03*
X78750000Y-26000000D03*
X77750000Y-26000000D03*
X76750000Y-26000000D03*
X76750000Y-27000000D03*
X77750000Y-27000000D03*
X78750000Y-27000000D03*
X26000000Y-33500000D03*
X27000000Y-33500000D03*
X28000000Y-33500000D03*
X26000000Y-32500000D03*
X27000000Y-32500000D03*
X28000000Y-32500000D03*
X26000000Y-31500000D03*
X27000000Y-31500000D03*
X28000000Y-31500000D03*
X81300000Y-53650000D03*
X82500000Y-51900000D03*
X83440000Y-51030000D03*
X85390000Y-35210000D03*
X83670000Y-34000000D03*
X82770000Y-33070000D03*
X69490000Y-32810000D03*
X69470000Y-31800000D03*
X65280000Y-30850000D03*
X66420000Y-30860000D03*
X68558191Y-41107102D03*
X67990000Y-45040000D03*
X67990000Y-44120000D03*
X66450000Y-52800000D03*
X66450000Y-51800000D03*
X62600000Y-58975000D03*
X62000000Y-55600000D03*
X77950000Y-55050000D03*
X77025000Y-55050000D03*
X64450000Y-32070000D03*
X69500000Y-41107102D03*
X62250000Y-39350000D03*
X59475000Y-44850000D03*
X52300000Y-40600000D03*
X51300000Y-47600000D03*
D20*
X34720000Y-66470000D03*
X45080000Y-66470000D03*
X78880000Y-66470000D03*
D19*
X41700000Y-57700000D03*
X48650000Y-57700000D03*
X57750000Y-39750000D03*
X57750000Y-40750000D03*
X57750000Y-41750000D03*
X57750000Y-42750000D03*
X57750000Y-43750000D03*
X57750000Y-44750000D03*
X57750000Y-45750000D03*
X57750000Y-46750000D03*
X58750000Y-46750000D03*
X59750000Y-46750000D03*
X60750000Y-46750000D03*
X38525000Y-26260000D03*
X42720000Y-26260000D03*
X46920000Y-26260000D03*
X51130000Y-26260000D03*
D20*
X30450000Y-24680000D03*
D19*
X49660000Y-46150000D03*
X54870000Y-25070000D03*
X53500000Y-40600000D03*
X87200000Y-30400000D03*
X60800000Y-29500000D03*
X23800000Y-47600000D03*
X32180000Y-39460000D03*
X40150000Y-35950000D03*
X45125000Y-34275000D03*
D20*
X33000000Y-46250000D03*
X34250000Y-46250000D03*
X35500000Y-46250000D03*
X36750000Y-46250000D03*
X29750000Y-41000000D03*
X29750000Y-42250000D03*
X29750000Y-43500000D03*
X36750000Y-55450000D03*
X36750000Y-56700000D03*
X36750000Y-57950000D03*
X38800000Y-54100000D03*
X38800000Y-55250000D03*
D19*
X42650000Y-57100000D03*
X43700000Y-57100000D03*
D20*
X42250000Y-49350000D03*
X43100000Y-45650000D03*
X40700000Y-45650000D03*
X41900000Y-45650000D03*
X65930000Y-66480000D03*
X55450000Y-66480000D03*
X56700000Y-66470000D03*
X67180000Y-66470000D03*
X34500000Y-54750000D03*
D19*
X41225000Y-38325000D03*
X60750000Y-47750000D03*
X61750000Y-47750000D03*
X67610000Y-30880000D03*
X64450000Y-33100000D03*
X67990000Y-41930000D03*
X68120000Y-38550000D03*
X83440000Y-50000000D03*
X84350000Y-50000000D03*
X68320000Y-53720000D03*
X67350000Y-53720000D03*
X76200000Y-53700000D03*
X63475000Y-33100000D03*
X65400000Y-58975000D03*
X61050000Y-57475000D03*
X71200000Y-60450000D03*
X53200000Y-41900000D03*
X54100000Y-47600000D03*
D20*
X35980000Y-66470000D03*
X46330000Y-66480000D03*
X80130000Y-66480000D03*
D19*
X39180000Y-57700000D03*
X46250000Y-57700000D03*
D20*
X34500000Y-23125000D03*
X30450000Y-23125000D03*
X38725000Y-23125000D03*
X42925000Y-23125000D03*
X47125000Y-23125000D03*
D19*
X69060000Y-42130000D03*
X81800000Y-33070000D03*
X59370000Y-25070000D03*
X23800000Y-48825000D03*
X43275000Y-39350000D03*
X46525000Y-34175000D03*
X42650000Y-51800000D03*
X43700000Y-51800000D03*
D20*
X34500000Y-53500000D03*
X34500000Y-52250000D03*
X33000000Y-52000000D03*
X31500000Y-52000000D03*
X30500000Y-53500000D03*
X30500000Y-54750000D03*
X33700000Y-56850000D03*
D19*
X41250000Y-35450000D03*
X38550000Y-43450000D03*
X81350000Y-30500000D03*
X83500000Y-30400000D03*
X72775000Y-40900000D03*
D20*
X86750000Y-28325000D03*
X87925000Y-26500000D03*
X86750000Y-26500000D03*
X35730000Y-35350000D03*
X35730000Y-36700000D03*
X35730000Y-37950000D03*
D19*
X82600000Y-58550000D03*
X89000000Y-55750000D03*
X83800000Y-58560839D03*
X88350000Y-56950000D03*
X77225000Y-59675000D03*
X77775000Y-48600000D03*
X76150000Y-58625000D03*
X78350000Y-47575000D03*
X71700000Y-28800000D03*
X77700000Y-36400000D03*
X72800000Y-29900000D03*
X77200000Y-37400000D03*
X57250000Y-27750000D03*
X71600000Y-36175000D03*
X73750000Y-55750000D03*
X75250000Y-48000000D03*
X66500000Y-57000000D03*
X68550000Y-57350000D03*
X71300000Y-47700000D03*
X52200000Y-45200000D03*
X67800000Y-37500000D03*
X56250000Y-49350000D03*
X64877987Y-37422013D03*
X57500000Y-38146685D03*
X55575000Y-40625000D03*
X69225000Y-38950000D03*
X64200000Y-36600000D03*
X56350000Y-38850000D03*
X59825000Y-48925000D03*
X70575000Y-39825000D03*
X69100000Y-35899502D03*
X55450000Y-45975000D03*
X58900000Y-49800000D03*
X68400000Y-47000000D03*
X32000000Y-64800000D03*
X77050000Y-47500000D03*
X32000000Y-63450000D03*
X76200000Y-46600000D03*
X32000000Y-62300000D03*
X72450000Y-53100000D03*
X32000000Y-61050000D03*
X71400000Y-53100000D03*
X32000000Y-59800000D03*
X73850000Y-36800000D03*
X32000000Y-58650000D03*
X74300000Y-38000000D03*
X87500000Y-45150000D03*
X73300000Y-65750000D03*
X87500000Y-46350000D03*
X70900000Y-66550000D03*
D21*
X41250000Y-34400000D02*
X42100000Y-35250000D01*
X42100000Y-35250000D02*
X42100000Y-36100000D01*
X42100000Y-36100000D02*
X39200000Y-39000000D01*
X39200000Y-39000000D02*
X39200000Y-40150000D01*
X39200000Y-40150000D02*
X39200000Y-42100000D01*
X39200000Y-42100000D02*
X40300000Y-43200000D01*
D22*
X98000000Y-57800000D02*
X98000000Y-40020000D01*
X98000000Y-36400000D02*
X95400000Y-33800000D01*
X98000000Y-40020000D02*
X98000000Y-36400000D01*
D21*
X41250000Y-35450000D02*
X41250000Y-36050000D01*
X41250000Y-36050000D02*
X38550000Y-38750000D01*
X38550000Y-38750000D02*
X38550000Y-43450000D01*
D23*
X83400000Y-30500000D02*
X83500000Y-30400000D01*
X81350000Y-30500000D02*
X83400000Y-30500000D01*
X66460000Y-26185000D02*
X66460000Y-25070000D01*
X68625000Y-26950000D02*
X67225000Y-26950000D01*
X72775000Y-36200000D02*
X72775000Y-31100000D01*
X67225000Y-26950000D02*
X66460000Y-26185000D01*
X72775000Y-31100000D02*
X68625000Y-26950000D01*
X72775000Y-36200000D02*
X72775000Y-40900000D01*
D24*
X86750000Y-28325000D02*
X86750000Y-26500000D01*
X87925000Y-26500000D02*
X86750000Y-26500000D01*
X87925000Y-27150000D02*
X86750000Y-28325000D01*
X87925000Y-26500000D02*
X87925000Y-27150000D01*
X86750000Y-27675000D02*
X87925000Y-26500000D01*
X86750000Y-28325000D02*
X86750000Y-27675000D01*
X35730000Y-35350000D02*
X35730000Y-37950000D01*
X75715000Y-24475000D02*
X84725000Y-24475000D01*
X84725000Y-24475000D02*
X86750000Y-26500000D01*
X72640000Y-21400000D02*
X75715000Y-24475000D01*
X54500000Y-21400000D02*
X72640000Y-21400000D01*
X35730000Y-33690000D02*
X37660000Y-31760000D01*
X35730000Y-35350000D02*
X35730000Y-33690000D01*
X53100000Y-22800000D02*
X54500000Y-21400000D01*
X50970000Y-31760000D02*
X53100000Y-29630000D01*
X37660000Y-31760000D02*
X50970000Y-31760000D01*
X53100000Y-29630000D02*
X53100000Y-22800000D01*
D21*
X82999999Y-58150001D02*
X82600000Y-58550000D01*
X89000000Y-55750000D02*
X85400000Y-55750000D01*
X85400000Y-55750000D02*
X82999999Y-58150001D01*
X85410839Y-56950000D02*
X83800000Y-58560839D01*
X88350000Y-56950000D02*
X85410839Y-56950000D01*
X77790685Y-59675000D02*
X79000000Y-58465685D01*
X77225000Y-59675000D02*
X77790685Y-59675000D01*
X79000000Y-49825000D02*
X77775000Y-48600000D01*
X79000000Y-58465685D02*
X79000000Y-49825000D01*
X76150000Y-58625000D02*
X76150000Y-60200000D01*
X76150000Y-60200000D02*
X76750000Y-60800000D01*
X76750000Y-60800000D02*
X78000000Y-60800000D01*
X78000000Y-60800000D02*
X79900000Y-58900000D01*
X79900000Y-49125000D02*
X78350000Y-47575000D01*
X79900000Y-58900000D02*
X79900000Y-49125000D01*
D22*
X95460000Y-57800000D02*
X95460000Y-55260000D01*
X95460000Y-55260000D02*
X95460000Y-52720000D01*
X95460000Y-52720000D02*
X95460000Y-50180000D01*
X95460000Y-50180000D02*
X95460000Y-47640000D01*
X95460000Y-47640000D02*
X95460000Y-45100000D01*
X95460000Y-45100000D02*
X95460000Y-42560000D01*
X95460000Y-42560000D02*
X95460000Y-40020000D01*
D21*
X71700000Y-28800000D02*
X73300000Y-28800000D01*
X73300000Y-28800000D02*
X77700000Y-33200000D01*
X77700000Y-33200000D02*
X77700000Y-36400000D01*
X76500000Y-36700000D02*
X77200000Y-37400000D01*
X76500000Y-33034315D02*
X76500000Y-36700000D01*
X72800000Y-29900000D02*
X73365685Y-29900000D01*
X73365685Y-29900000D02*
X76500000Y-33034315D01*
D23*
X71600000Y-31150000D02*
X71600000Y-36175000D01*
X68200000Y-27750000D02*
X71600000Y-31150000D01*
X57250000Y-27750000D02*
X68200000Y-27750000D01*
D25*
X73350001Y-55350001D02*
X73750000Y-55750000D01*
X73350000Y-49400000D02*
X73350001Y-55350001D01*
X75250000Y-48000000D02*
X74750000Y-48000000D01*
X74750000Y-48000000D02*
X73350000Y-49400000D01*
X67250000Y-57000000D02*
X66500000Y-57000000D01*
X68250000Y-57000000D02*
X67250000Y-57000000D01*
X68550000Y-57300000D02*
X68250000Y-57000000D01*
D21*
X68300000Y-50100000D02*
X70700000Y-47700000D01*
X52200000Y-49200000D02*
X54600000Y-51600000D01*
X70700000Y-47700000D02*
X71300000Y-47700000D01*
X52200000Y-45200000D02*
X52200000Y-49200000D01*
X60800000Y-50100000D02*
X68300000Y-50100000D01*
X54600000Y-51600000D02*
X59300000Y-51600000D01*
X59300000Y-51600000D02*
X60800000Y-50100000D01*
X57675000Y-50775000D02*
X56250000Y-49350000D01*
X59250000Y-50775000D02*
X57675000Y-50775000D01*
X60525000Y-49500000D02*
X59250000Y-50775000D01*
X69600000Y-37500000D02*
X71600000Y-39500000D01*
X67800000Y-37500000D02*
X69600000Y-37500000D01*
X71600000Y-39500000D02*
X71600000Y-45800000D01*
X71600000Y-45800000D02*
X67900000Y-49500000D01*
X67900000Y-49500000D02*
X60525000Y-49500000D01*
X58224672Y-37422013D02*
X57500000Y-38146685D01*
X64877987Y-37422013D02*
X58224672Y-37422013D01*
X57127001Y-39072999D02*
X57602001Y-39072999D01*
X55575000Y-40625000D02*
X57127001Y-39072999D01*
X57602001Y-39072999D02*
X58750000Y-37925000D01*
X58750000Y-37925000D02*
X64150000Y-37925000D01*
X64150000Y-37925000D02*
X65550000Y-39325000D01*
X65550000Y-39325000D02*
X68850000Y-39325000D01*
X68850000Y-39325000D02*
X69225000Y-38950000D01*
X57675000Y-36600000D02*
X64200000Y-36600000D01*
X56350000Y-38850000D02*
X56350000Y-37925000D01*
X56350000Y-37925000D02*
X57675000Y-36600000D01*
X59825000Y-48925000D02*
X67700000Y-48925000D01*
X67700000Y-48925000D02*
X71050000Y-45575000D01*
X71050000Y-45575000D02*
X71050000Y-40475000D01*
X71050000Y-40475000D02*
X70575000Y-40000000D01*
X70575000Y-40000000D02*
X70575000Y-39825000D01*
X54884315Y-45975000D02*
X54675000Y-45765685D01*
X55450000Y-45975000D02*
X54884315Y-45975000D01*
X54675000Y-45765685D02*
X54675000Y-38675000D01*
X54675000Y-38675000D02*
X57325000Y-36025000D01*
X63898536Y-35899502D02*
X68534315Y-35899502D01*
X57325000Y-36025000D02*
X63773038Y-36025000D01*
X68534315Y-35899502D02*
X69100000Y-35899502D01*
X63773038Y-36025000D02*
X63898536Y-35899502D01*
X68400000Y-47500000D02*
X68400000Y-47000000D01*
X67525000Y-48375000D02*
X68400000Y-47500000D01*
X58900000Y-48450000D02*
X59200000Y-48150000D01*
X62126962Y-48375000D02*
X67525000Y-48375000D01*
X60125000Y-48150000D02*
X60402001Y-48427001D01*
X58900000Y-49800000D02*
X58900000Y-48450000D01*
X59200000Y-48150000D02*
X60125000Y-48150000D01*
X62074961Y-48427001D02*
X62126962Y-48375000D01*
X60402001Y-48427001D02*
X62074961Y-48427001D01*
X32000000Y-64800000D02*
X64850000Y-64800000D01*
X64850000Y-64800000D02*
X70600000Y-59050000D01*
X70600000Y-59050000D02*
X73900000Y-59050000D01*
X73900000Y-59050000D02*
X75350000Y-57600000D01*
X75350000Y-57600000D02*
X75350000Y-53150000D01*
X75350000Y-53150000D02*
X77050000Y-51450000D01*
X77050000Y-51450000D02*
X77050000Y-47500000D01*
X32000000Y-63450000D02*
X64500000Y-63450000D01*
X64500000Y-63450000D02*
X69950000Y-58000000D01*
X69950000Y-58000000D02*
X73600000Y-58000000D01*
X73600000Y-58000000D02*
X74550000Y-57050000D01*
X74550000Y-57050000D02*
X74550000Y-52850000D01*
X74550000Y-52850000D02*
X76200000Y-51200000D01*
X76200000Y-51200000D02*
X76200000Y-46600000D01*
X32000000Y-62300000D02*
X64750000Y-62300000D01*
X64750000Y-62300000D02*
X72450000Y-54600000D01*
X72450000Y-54600000D02*
X72450000Y-53100000D01*
X32000000Y-61050000D02*
X62800000Y-61050000D01*
X62800000Y-61050000D02*
X64100000Y-59750000D01*
X64100000Y-59750000D02*
X64100000Y-57650000D01*
X64100000Y-57650000D02*
X65600000Y-56150000D01*
X65600000Y-56150000D02*
X69650000Y-56150000D01*
X69650000Y-56150000D02*
X71400000Y-54400000D01*
X71400000Y-54400000D02*
X71400000Y-53100000D01*
X74900000Y-36800000D02*
X73850000Y-36800000D01*
X76900000Y-38800000D02*
X74900000Y-36800000D01*
X70550000Y-51050000D02*
X76900000Y-44700000D01*
X70550000Y-54050000D02*
X70550000Y-51050000D01*
X69150000Y-55450000D02*
X70550000Y-54050000D01*
X55850000Y-59800000D02*
X61050000Y-54600000D01*
X32000000Y-59800000D02*
X55850000Y-59800000D01*
X76900000Y-44700000D02*
X76900000Y-38800000D01*
X65050000Y-55450000D02*
X69150000Y-55450000D01*
X61050000Y-54600000D02*
X64200000Y-54600000D01*
X64200000Y-54600000D02*
X65050000Y-55450000D01*
X32000000Y-58650000D02*
X35550000Y-58650000D01*
X35550000Y-58650000D02*
X36000000Y-59100000D01*
X36000000Y-59100000D02*
X37550000Y-59100000D01*
X37550000Y-59100000D02*
X37950000Y-58700000D01*
X37950000Y-58700000D02*
X55200000Y-58700000D01*
X55200000Y-58700000D02*
X60250000Y-53650000D01*
X60250000Y-53650000D02*
X64600000Y-53650000D01*
X64600000Y-53650000D02*
X65600000Y-54650000D01*
X65600000Y-54650000D02*
X68700000Y-54650000D01*
X68700000Y-54650000D02*
X69550000Y-53800000D01*
X69550000Y-53800000D02*
X69550000Y-50750000D01*
X69550000Y-50750000D02*
X75900000Y-44400000D01*
X75900000Y-44400000D02*
X75900000Y-39900000D01*
X75900000Y-39900000D02*
X75900000Y-39600000D01*
X75900000Y-39600000D02*
X74300000Y-38000000D01*
X90250000Y-47900000D02*
X87500000Y-45150000D01*
X90250000Y-57250000D02*
X90250000Y-47900000D01*
X87600000Y-59900000D02*
X90250000Y-57250000D01*
X73300000Y-63750000D02*
X73900000Y-63150000D01*
X73900000Y-63150000D02*
X79000000Y-63150000D01*
X79000000Y-63150000D02*
X82250000Y-59900000D01*
X73300000Y-65750000D02*
X73300000Y-63750000D01*
X82250000Y-59900000D02*
X87600000Y-59900000D01*
X70900000Y-66550000D02*
X70900000Y-64600000D01*
X70900000Y-64600000D02*
X73250000Y-62250000D01*
X73250000Y-62250000D02*
X78400000Y-62250000D01*
X78400000Y-62250000D02*
X81200000Y-59450000D01*
X81200000Y-59450000D02*
X81200000Y-57900000D01*
X87500000Y-51600000D02*
X87500000Y-46350000D01*
X81200000Y-57900000D02*
X87500000Y-51600000D01*
M02*
