G04 #@! TF.GenerationSoftware,KiCad,Pcbnew,(5.1.5)-3*
G04 #@! TF.CreationDate,2020-06-26T03:51:20+02:00*
G04 #@! TF.ProjectId,HadesNT,48616465-734e-4542-9e6b-696361645f70,rev?*
G04 #@! TF.SameCoordinates,Original*
G04 #@! TF.FileFunction,Copper,L2,Inr*
G04 #@! TF.FilePolarity,Positive*
%FSLAX46Y46*%
G04 Gerber Fmt 4.6, Leading zero omitted, Abs format (unit mm)*
G04 Created by KiCad (PCBNEW (5.1.5)-3) date 2020-06-26 03:51:20*
%MOMM*%
%LPD*%
G04 APERTURE LIST*
%ADD10O,1.400000X1.800000*%
%ADD11C,2.400000*%
%ADD12R,2.400000X2.400000*%
%ADD13C,0.900000*%
%ADD14C,8.600000*%
%ADD15R,1.000000X1.000000*%
%ADD16O,1.000000X1.000000*%
%ADD17R,1.700000X1.700000*%
%ADD18O,1.700000X1.700000*%
%ADD19C,0.450000*%
%ADD20C,1.000000*%
%ADD21C,0.800000*%
%ADD22C,0.500000*%
%ADD23C,0.254000*%
G04 APERTURE END LIST*
D10*
X84300000Y-21675000D03*
X77700000Y-21675000D03*
D11*
X94725000Y-31975000D03*
D12*
X94725000Y-35475000D03*
D13*
X27280419Y-22719581D03*
X25000000Y-21775000D03*
X22719581Y-22719581D03*
X21775000Y-25000000D03*
X22719581Y-27280419D03*
X25000000Y-28225000D03*
X27280419Y-27280419D03*
X28225000Y-25000000D03*
D14*
X25000000Y-25000000D03*
X25000000Y-65000000D03*
D13*
X28225000Y-65000000D03*
X27280419Y-67280419D03*
X25000000Y-68225000D03*
X22719581Y-67280419D03*
X21775000Y-65000000D03*
X22719581Y-62719581D03*
X25000000Y-61775000D03*
X27280419Y-62719581D03*
X97280419Y-62719581D03*
X95000000Y-61775000D03*
X92719581Y-62719581D03*
X91775000Y-65000000D03*
X92719581Y-67280419D03*
X95000000Y-68225000D03*
X97280419Y-67280419D03*
X98225000Y-65000000D03*
D14*
X95000000Y-65000000D03*
X95000000Y-25000000D03*
D13*
X98225000Y-25000000D03*
X97280419Y-27280419D03*
X95000000Y-28225000D03*
X92719581Y-27280419D03*
X91775000Y-25000000D03*
X92719581Y-22719581D03*
X95000000Y-21775000D03*
X97280419Y-22719581D03*
D15*
X71540000Y-23800000D03*
D16*
X71540000Y-25070000D03*
X70270000Y-23800000D03*
X70270000Y-25070000D03*
X69000000Y-23800000D03*
X69000000Y-25070000D03*
X67730000Y-23800000D03*
X67730000Y-25070000D03*
X66460000Y-23800000D03*
X66460000Y-25070000D03*
D17*
X98000000Y-57800000D03*
D18*
X95460000Y-57800000D03*
X98000000Y-55260000D03*
X95460000Y-55260000D03*
X98000000Y-52720000D03*
X95460000Y-52720000D03*
X98000000Y-50180000D03*
X95460000Y-50180000D03*
X98000000Y-47640000D03*
X95460000Y-47640000D03*
X98000000Y-45100000D03*
X95460000Y-45100000D03*
X98000000Y-42560000D03*
X95460000Y-42560000D03*
X98000000Y-40020000D03*
X95460000Y-40020000D03*
D17*
X92925000Y-40050000D03*
D18*
X92925000Y-42590000D03*
X92925000Y-45130000D03*
X92925000Y-47670000D03*
X92925000Y-50210000D03*
X92925000Y-52750000D03*
X92925000Y-55290000D03*
X92925000Y-57830000D03*
D19*
X59500000Y-22250000D03*
X56500000Y-22250000D03*
D20*
X40800000Y-48800000D03*
D21*
X74000000Y-60450000D03*
X81350000Y-28300000D03*
X78750000Y-26000000D03*
X77750000Y-26000000D03*
X76750000Y-26000000D03*
X76750000Y-27000000D03*
X77750000Y-27000000D03*
X78750000Y-27000000D03*
X26000000Y-33500000D03*
X27000000Y-33500000D03*
X28000000Y-33500000D03*
X26000000Y-32500000D03*
X27000000Y-32500000D03*
X28000000Y-32500000D03*
X26000000Y-31500000D03*
X27000000Y-31500000D03*
X28000000Y-31500000D03*
X81300000Y-53650000D03*
X82500000Y-51900000D03*
X83440000Y-51030000D03*
X85390000Y-35210000D03*
X83670000Y-34000000D03*
X82770000Y-33070000D03*
X69490000Y-32810000D03*
X69470000Y-31800000D03*
X65280000Y-30850000D03*
X66420000Y-30860000D03*
X68558191Y-41107102D03*
X67990000Y-45040000D03*
X67990000Y-44120000D03*
X66450000Y-52800000D03*
X66450000Y-51800000D03*
X28700000Y-39400000D03*
X27700000Y-39400000D03*
D20*
X42000000Y-48800000D03*
X43200000Y-48800000D03*
X43200000Y-50000000D03*
X39700000Y-48800000D03*
X23800000Y-56700000D03*
X25200000Y-56700000D03*
X26900000Y-56700000D03*
X28200000Y-56700000D03*
X29800000Y-56700000D03*
X31200000Y-56700000D03*
X30800000Y-50300000D03*
X32200000Y-50300000D03*
X33100000Y-48900000D03*
X38250000Y-40725000D03*
D21*
X32450000Y-42700000D03*
X62600000Y-58975000D03*
X62000000Y-55600000D03*
X77950000Y-55050000D03*
X77025000Y-55050000D03*
X64450000Y-32070000D03*
X69500000Y-41107102D03*
X62250000Y-39350000D03*
X59475000Y-44850000D03*
X52300000Y-40600000D03*
X51300000Y-47600000D03*
D20*
X35120000Y-66470000D03*
X46120000Y-66470000D03*
X57120000Y-66470000D03*
X68130000Y-66470000D03*
X78880000Y-66470000D03*
D21*
X49100000Y-54120000D03*
X55100000Y-54120000D03*
X57750000Y-39750000D03*
X57750000Y-40750000D03*
X57750000Y-41750000D03*
X57750000Y-42750000D03*
X57750000Y-43750000D03*
X57750000Y-44750000D03*
X57750000Y-45750000D03*
X57750000Y-46750000D03*
X58750000Y-46750000D03*
X59750000Y-46750000D03*
X60750000Y-46750000D03*
X38525000Y-26260000D03*
X42720000Y-26260000D03*
X46920000Y-26260000D03*
X51130000Y-26260000D03*
D20*
X30450000Y-24680000D03*
X38580000Y-45640000D03*
X38580000Y-46850000D03*
D21*
X49660000Y-46150000D03*
X54870000Y-24470000D03*
X22500000Y-60000000D03*
X27500000Y-60000000D03*
X32500000Y-60000000D03*
X37500000Y-60000000D03*
X48000000Y-60000000D03*
X52000000Y-60000000D03*
X60000000Y-60000000D03*
X65000000Y-60000000D03*
X70000000Y-60000000D03*
X70000000Y-57500000D03*
X42500000Y-57500000D03*
X37500000Y-57500000D03*
X32500000Y-57500000D03*
X22500000Y-57500000D03*
X35000000Y-67500000D03*
X37500000Y-67500000D03*
X50000000Y-67500000D03*
X57500000Y-67500000D03*
X60000000Y-67500000D03*
X67500000Y-67500000D03*
X70000000Y-67500000D03*
X72500000Y-67500000D03*
X82500000Y-67500000D03*
X85000000Y-67500000D03*
X90000000Y-62500000D03*
X90000000Y-60000000D03*
X90000000Y-65000000D03*
X97500000Y-60000000D03*
X95000000Y-60000000D03*
X92500000Y-60000000D03*
X75000000Y-45000000D03*
X75000000Y-42500000D03*
X75000000Y-40000000D03*
X75000000Y-37500000D03*
X77500000Y-37500000D03*
X77500000Y-40000000D03*
X77500000Y-42500000D03*
X77500000Y-45000000D03*
X40000000Y-40000000D03*
X45000000Y-40000000D03*
X40000000Y-45000000D03*
X45000000Y-50000000D03*
X50000000Y-50000000D03*
X55000000Y-50000000D03*
X35000000Y-32500000D03*
X30000000Y-32500000D03*
X32500000Y-35000000D03*
X32500000Y-27500000D03*
X55000000Y-30000000D03*
X60000000Y-30000000D03*
X62500000Y-25000000D03*
X75000000Y-27500000D03*
X75000000Y-25000000D03*
X77500000Y-30000000D03*
X90000000Y-25000000D03*
X87500000Y-25000000D03*
X90000000Y-22500000D03*
X87500000Y-40000000D03*
X85000000Y-40000000D03*
X90000000Y-37500000D03*
X87500000Y-32500000D03*
X64500000Y-67500000D03*
X64500000Y-65000000D03*
X75500000Y-65000000D03*
X75500000Y-67500000D03*
X42500000Y-67500000D03*
X42500000Y-65000000D03*
X27500000Y-57500000D03*
X81300000Y-56000000D03*
X21000000Y-30000000D03*
X21000000Y-49000000D03*
X21000000Y-56000000D03*
X62000000Y-51500000D03*
X60500000Y-53000000D03*
X59000000Y-54500000D03*
X57500000Y-56000000D03*
X57500000Y-58500000D03*
X56000000Y-60000000D03*
X54000000Y-61500000D03*
X50000000Y-61500000D03*
X55000000Y-35000000D03*
X60000000Y-35000000D03*
X38000000Y-35000000D03*
X42500000Y-42500000D03*
X47500000Y-42500000D03*
X47500000Y-52500000D03*
X53500000Y-65000000D03*
X53500000Y-67500000D03*
X88500000Y-56000000D03*
X88500000Y-60000000D03*
X88500000Y-51500000D03*
X88500000Y-37500000D03*
X39750000Y-31750000D03*
X44250000Y-31500000D03*
X74500000Y-59000000D03*
X32500000Y-62500000D03*
D20*
X28750000Y-47500000D03*
X31500000Y-47500000D03*
D21*
X52000000Y-21000000D03*
X29000000Y-21000000D03*
X76000000Y-21000000D03*
X97000000Y-31000000D03*
X97000000Y-33000000D03*
X97000000Y-35000000D03*
X53500000Y-40600000D03*
D20*
X39600000Y-51100000D03*
D21*
X60750000Y-47750000D03*
X61750000Y-47750000D03*
X67610000Y-30880000D03*
X64450000Y-33100000D03*
X67990000Y-41930000D03*
X68120000Y-38550000D03*
X83440000Y-50000000D03*
X84350000Y-50000000D03*
X68320000Y-53720000D03*
X67350000Y-53720000D03*
X76200000Y-53700000D03*
X31700000Y-44700000D03*
X31700000Y-43800000D03*
D20*
X38400000Y-51100000D03*
X37200000Y-51100000D03*
X37200000Y-54900000D03*
X38400000Y-54900000D03*
X39600000Y-54900000D03*
X40800000Y-54900000D03*
X42000000Y-54900000D03*
X43200000Y-54900000D03*
X43200000Y-53700000D03*
X43200000Y-52500000D03*
X35200000Y-40700000D03*
D21*
X32700000Y-38325000D03*
X63475000Y-33100000D03*
X65400000Y-58975000D03*
X61050000Y-57475000D03*
X71200000Y-60450000D03*
X53200000Y-41900000D03*
X54100000Y-47600000D03*
D20*
X36380000Y-66470000D03*
X47370000Y-66480000D03*
X58380000Y-66480000D03*
X69370000Y-66480000D03*
X80130000Y-66480000D03*
D21*
X45630000Y-54390000D03*
X51620000Y-54390000D03*
D20*
X34500000Y-23125000D03*
X30450000Y-23125000D03*
X38725000Y-23125000D03*
X42925000Y-23125000D03*
X47125000Y-23125000D03*
D21*
X69060000Y-42130000D03*
X81800000Y-33070000D03*
X59370000Y-24470000D03*
X47500000Y-67500000D03*
X80000000Y-67500000D03*
X81350000Y-30500000D03*
X83500000Y-30400000D03*
X72775000Y-40900000D03*
D20*
X86750000Y-28325000D03*
X23360000Y-48470000D03*
X24540000Y-48470000D03*
X22160000Y-48470000D03*
X87925000Y-26500000D03*
X86750000Y-26500000D03*
D21*
X82600000Y-58550000D03*
X85100000Y-45275000D03*
X83614489Y-58560839D03*
X86150000Y-46300000D03*
X77225000Y-59675000D03*
X77775000Y-48600000D03*
X76150000Y-58625000D03*
X78350000Y-47575000D03*
X71700000Y-28800000D03*
X77700000Y-36400000D03*
X72800000Y-29900000D03*
X76500000Y-36400000D03*
X57250000Y-27750000D03*
X71600000Y-36175000D03*
X73750000Y-55750000D03*
X75250000Y-48000000D03*
X66500000Y-57000000D03*
X70846685Y-52250000D03*
X71800000Y-51400000D03*
X52200000Y-45200000D03*
X67800000Y-37500000D03*
X57925000Y-50775000D03*
X64877987Y-37422013D03*
X57500000Y-38146685D03*
X55575000Y-40625000D03*
X69225000Y-38950000D03*
X64200000Y-36600000D03*
X56350000Y-38850000D03*
X59825000Y-48925000D03*
X70575000Y-39825000D03*
X69100000Y-35899502D03*
X55450000Y-45975000D03*
X58900000Y-49800000D03*
X68400000Y-47000000D03*
D22*
X62250000Y-39350000D02*
X63650000Y-39350000D01*
D23*
G36*
X62623000Y-41750000D02*
G01*
X62625440Y-41774776D01*
X62632667Y-41798601D01*
X62644403Y-41820557D01*
X62660197Y-41839803D01*
X62679443Y-41855597D01*
X62701399Y-41867333D01*
X62725224Y-41874560D01*
X62750000Y-41877000D01*
X64750000Y-41877000D01*
X64774776Y-41874560D01*
X64798601Y-41867333D01*
X64820557Y-41855597D01*
X64839803Y-41839803D01*
X64855597Y-41820557D01*
X64867333Y-41798601D01*
X64874560Y-41774776D01*
X64877000Y-41750000D01*
X64877000Y-41627000D01*
X66995230Y-41627000D01*
X66994774Y-41628102D01*
X66955000Y-41828061D01*
X66955000Y-42031939D01*
X66994774Y-42231898D01*
X67053221Y-42373000D01*
X65325000Y-42373000D01*
X65300224Y-42375440D01*
X65276399Y-42382667D01*
X65254443Y-42394403D01*
X65235197Y-42410197D01*
X65219403Y-42429443D01*
X65207667Y-42451399D01*
X65200440Y-42475224D01*
X65198000Y-42500000D01*
X65198000Y-43873000D01*
X62750000Y-43873000D01*
X62725224Y-43875440D01*
X62701399Y-43882667D01*
X62679443Y-43894403D01*
X62660197Y-43910197D01*
X62644403Y-43929443D01*
X62632667Y-43951399D01*
X62625440Y-43975224D01*
X62623000Y-44000000D01*
X62623000Y-45373000D01*
X59127000Y-45373000D01*
X59127000Y-38877000D01*
X62623000Y-38877000D01*
X62623000Y-41750000D01*
G37*
X62623000Y-41750000D02*
X62625440Y-41774776D01*
X62632667Y-41798601D01*
X62644403Y-41820557D01*
X62660197Y-41839803D01*
X62679443Y-41855597D01*
X62701399Y-41867333D01*
X62725224Y-41874560D01*
X62750000Y-41877000D01*
X64750000Y-41877000D01*
X64774776Y-41874560D01*
X64798601Y-41867333D01*
X64820557Y-41855597D01*
X64839803Y-41839803D01*
X64855597Y-41820557D01*
X64867333Y-41798601D01*
X64874560Y-41774776D01*
X64877000Y-41750000D01*
X64877000Y-41627000D01*
X66995230Y-41627000D01*
X66994774Y-41628102D01*
X66955000Y-41828061D01*
X66955000Y-42031939D01*
X66994774Y-42231898D01*
X67053221Y-42373000D01*
X65325000Y-42373000D01*
X65300224Y-42375440D01*
X65276399Y-42382667D01*
X65254443Y-42394403D01*
X65235197Y-42410197D01*
X65219403Y-42429443D01*
X65207667Y-42451399D01*
X65200440Y-42475224D01*
X65198000Y-42500000D01*
X65198000Y-43873000D01*
X62750000Y-43873000D01*
X62725224Y-43875440D01*
X62701399Y-43882667D01*
X62679443Y-43894403D01*
X62660197Y-43910197D01*
X62644403Y-43929443D01*
X62632667Y-43951399D01*
X62625440Y-43975224D01*
X62623000Y-44000000D01*
X62623000Y-45373000D01*
X59127000Y-45373000D01*
X59127000Y-38877000D01*
X62623000Y-38877000D01*
X62623000Y-41750000D01*
G36*
X76584618Y-20729725D02*
G01*
X76460653Y-20961646D01*
X76384317Y-21213294D01*
X76365000Y-21409421D01*
X76365000Y-21940578D01*
X76384317Y-22136705D01*
X76460653Y-22388353D01*
X76584618Y-22620274D01*
X76751445Y-22823555D01*
X76954725Y-22990382D01*
X77186646Y-23114347D01*
X77438294Y-23190683D01*
X77700000Y-23216459D01*
X77961705Y-23190683D01*
X78213353Y-23114347D01*
X78445274Y-22990382D01*
X78648555Y-22823555D01*
X78815382Y-22620275D01*
X78939347Y-22388354D01*
X79015683Y-22136706D01*
X79035000Y-21940579D01*
X79035000Y-21409422D01*
X79015683Y-21213295D01*
X78939347Y-20961647D01*
X78815382Y-20729725D01*
X78758160Y-20660000D01*
X83241840Y-20660000D01*
X83184618Y-20729725D01*
X83060653Y-20961646D01*
X82984317Y-21213294D01*
X82965000Y-21409421D01*
X82965000Y-21940578D01*
X82984317Y-22136705D01*
X83060653Y-22388353D01*
X83184618Y-22620274D01*
X83351445Y-22823555D01*
X83554725Y-22990382D01*
X83786646Y-23114347D01*
X84038294Y-23190683D01*
X84300000Y-23216459D01*
X84561705Y-23190683D01*
X84813353Y-23114347D01*
X85045274Y-22990382D01*
X85248555Y-22823555D01*
X85415382Y-22620275D01*
X85539347Y-22388354D01*
X85615683Y-22136706D01*
X85635000Y-21940579D01*
X85635000Y-21409422D01*
X85615683Y-21213295D01*
X85539347Y-20961647D01*
X85415382Y-20729725D01*
X85358160Y-20660000D01*
X92648907Y-20660000D01*
X92301560Y-20839606D01*
X92188946Y-20914851D01*
X91696787Y-21517182D01*
X95000000Y-24820395D01*
X95014143Y-24806253D01*
X95193748Y-24985858D01*
X95179605Y-25000000D01*
X98482818Y-28303213D01*
X99085149Y-27811054D01*
X99340000Y-27349534D01*
X99340000Y-39396599D01*
X99271641Y-39253080D01*
X99097588Y-39019731D01*
X98881355Y-38824822D01*
X98631252Y-38675843D01*
X98356891Y-38578519D01*
X98127000Y-38699186D01*
X98127000Y-39893000D01*
X98147000Y-39893000D01*
X98147000Y-40147000D01*
X98127000Y-40147000D01*
X98127000Y-42433000D01*
X98147000Y-42433000D01*
X98147000Y-42687000D01*
X98127000Y-42687000D01*
X98127000Y-44973000D01*
X98147000Y-44973000D01*
X98147000Y-45227000D01*
X98127000Y-45227000D01*
X98127000Y-47513000D01*
X98147000Y-47513000D01*
X98147000Y-47767000D01*
X98127000Y-47767000D01*
X98127000Y-50053000D01*
X98147000Y-50053000D01*
X98147000Y-50307000D01*
X98127000Y-50307000D01*
X98127000Y-52593000D01*
X98147000Y-52593000D01*
X98147000Y-52847000D01*
X98127000Y-52847000D01*
X98127000Y-55133000D01*
X98147000Y-55133000D01*
X98147000Y-55387000D01*
X98127000Y-55387000D01*
X98127000Y-57673000D01*
X98147000Y-57673000D01*
X98147000Y-57927000D01*
X98127000Y-57927000D01*
X98127000Y-59126250D01*
X98285750Y-59285000D01*
X98850000Y-59288072D01*
X98974482Y-59275812D01*
X99094180Y-59239502D01*
X99204494Y-59180537D01*
X99301185Y-59101185D01*
X99340001Y-59053888D01*
X99340001Y-62648909D01*
X99160394Y-62301560D01*
X99085149Y-62188946D01*
X98482818Y-61696787D01*
X95179605Y-65000000D01*
X95193748Y-65014143D01*
X95014143Y-65193748D01*
X95000000Y-65179605D01*
X91696787Y-68482818D01*
X92188946Y-69085149D01*
X92650466Y-69340000D01*
X27351093Y-69340000D01*
X27698440Y-69160394D01*
X27811054Y-69085149D01*
X28303213Y-68482818D01*
X25000000Y-65179605D01*
X24985858Y-65193748D01*
X24806253Y-65014143D01*
X24820395Y-65000000D01*
X25179605Y-65000000D01*
X28482818Y-68303213D01*
X28854102Y-67999840D01*
X28892307Y-68092074D01*
X29029099Y-68296798D01*
X29203202Y-68470901D01*
X29407926Y-68607693D01*
X29635402Y-68701917D01*
X29876890Y-68749952D01*
X30123110Y-68749952D01*
X30364598Y-68701917D01*
X30592074Y-68607693D01*
X30796798Y-68470901D01*
X30970901Y-68296798D01*
X31107693Y-68092074D01*
X31201917Y-67864598D01*
X31249952Y-67623110D01*
X31249952Y-67376890D01*
X31201917Y-67135402D01*
X31107693Y-66907926D01*
X30970901Y-66703202D01*
X30796798Y-66529099D01*
X30592074Y-66392307D01*
X30509762Y-66358212D01*
X35245000Y-66358212D01*
X35245000Y-66581788D01*
X35288617Y-66801067D01*
X35374176Y-67007624D01*
X35498388Y-67193520D01*
X35656480Y-67351612D01*
X35842376Y-67475824D01*
X36048933Y-67561383D01*
X36268212Y-67605000D01*
X36491788Y-67605000D01*
X36711067Y-67561383D01*
X36917624Y-67475824D01*
X37103520Y-67351612D01*
X37261612Y-67193520D01*
X37385824Y-67007624D01*
X37471383Y-66801067D01*
X37515000Y-66581788D01*
X37515000Y-66368212D01*
X46235000Y-66368212D01*
X46235000Y-66591788D01*
X46278617Y-66811067D01*
X46364176Y-67017624D01*
X46488388Y-67203520D01*
X46501157Y-67216289D01*
X46465000Y-67398061D01*
X46465000Y-67601939D01*
X46504774Y-67801898D01*
X46582795Y-67990256D01*
X46696063Y-68159774D01*
X46840226Y-68303937D01*
X47009744Y-68417205D01*
X47198102Y-68495226D01*
X47398061Y-68535000D01*
X47601939Y-68535000D01*
X47801898Y-68495226D01*
X47990256Y-68417205D01*
X48159774Y-68303937D01*
X48303937Y-68159774D01*
X48417205Y-67990256D01*
X48495226Y-67801898D01*
X48535000Y-67601939D01*
X48535000Y-67398061D01*
X48495226Y-67198102D01*
X48417205Y-67009744D01*
X48393675Y-66974528D01*
X48461383Y-66811067D01*
X48505000Y-66591788D01*
X48505000Y-66368212D01*
X57245000Y-66368212D01*
X57245000Y-66591788D01*
X57288617Y-66811067D01*
X57374176Y-67017624D01*
X57498388Y-67203520D01*
X57656480Y-67361612D01*
X57842376Y-67485824D01*
X58048933Y-67571383D01*
X58268212Y-67615000D01*
X58491788Y-67615000D01*
X58711067Y-67571383D01*
X58917624Y-67485824D01*
X59103520Y-67361612D01*
X59261612Y-67203520D01*
X59385824Y-67017624D01*
X59471383Y-66811067D01*
X59515000Y-66591788D01*
X59515000Y-66368212D01*
X68235000Y-66368212D01*
X68235000Y-66591788D01*
X68278617Y-66811067D01*
X68364176Y-67017624D01*
X68488388Y-67203520D01*
X68646480Y-67361612D01*
X68832376Y-67485824D01*
X69038933Y-67571383D01*
X69258212Y-67615000D01*
X69481788Y-67615000D01*
X69701067Y-67571383D01*
X69907624Y-67485824D01*
X70038970Y-67398061D01*
X78965000Y-67398061D01*
X78965000Y-67601939D01*
X79004774Y-67801898D01*
X79082795Y-67990256D01*
X79196063Y-68159774D01*
X79340226Y-68303937D01*
X79509744Y-68417205D01*
X79698102Y-68495226D01*
X79898061Y-68535000D01*
X80101939Y-68535000D01*
X80301898Y-68495226D01*
X80490256Y-68417205D01*
X80659774Y-68303937D01*
X80803937Y-68159774D01*
X80917205Y-67990256D01*
X80995226Y-67801898D01*
X81035000Y-67601939D01*
X81035000Y-67398061D01*
X81030789Y-67376890D01*
X88750048Y-67376890D01*
X88750048Y-67623110D01*
X88798083Y-67864598D01*
X88892307Y-68092074D01*
X89029099Y-68296798D01*
X89203202Y-68470901D01*
X89407926Y-68607693D01*
X89635402Y-68701917D01*
X89876890Y-68749952D01*
X90123110Y-68749952D01*
X90364598Y-68701917D01*
X90592074Y-68607693D01*
X90796798Y-68470901D01*
X90970901Y-68296798D01*
X91107693Y-68092074D01*
X91145898Y-67999840D01*
X91517182Y-68303213D01*
X94820395Y-65000000D01*
X91517182Y-61696787D01*
X90914851Y-62188946D01*
X90444937Y-63039933D01*
X90150071Y-63966243D01*
X90041586Y-64932281D01*
X90123649Y-65900921D01*
X90230534Y-66271416D01*
X90123110Y-66250048D01*
X89876890Y-66250048D01*
X89635402Y-66298083D01*
X89407926Y-66392307D01*
X89203202Y-66529099D01*
X89029099Y-66703202D01*
X88892307Y-66907926D01*
X88798083Y-67135402D01*
X88750048Y-67376890D01*
X81030789Y-67376890D01*
X80998843Y-67216289D01*
X81011612Y-67203520D01*
X81135824Y-67017624D01*
X81221383Y-66811067D01*
X81265000Y-66591788D01*
X81265000Y-66368212D01*
X81221383Y-66148933D01*
X81135824Y-65942376D01*
X81011612Y-65756480D01*
X80853520Y-65598388D01*
X80667624Y-65474176D01*
X80461067Y-65388617D01*
X80241788Y-65345000D01*
X80018212Y-65345000D01*
X79798933Y-65388617D01*
X79592376Y-65474176D01*
X79406480Y-65598388D01*
X79248388Y-65756480D01*
X79124176Y-65942376D01*
X79038617Y-66148933D01*
X78995000Y-66368212D01*
X78995000Y-66591788D01*
X79038617Y-66811067D01*
X79106325Y-66974528D01*
X79082795Y-67009744D01*
X79004774Y-67198102D01*
X78965000Y-67398061D01*
X70038970Y-67398061D01*
X70093520Y-67361612D01*
X70251612Y-67203520D01*
X70375824Y-67017624D01*
X70461383Y-66811067D01*
X70505000Y-66591788D01*
X70505000Y-66368212D01*
X70461383Y-66148933D01*
X70375824Y-65942376D01*
X70251612Y-65756480D01*
X70093520Y-65598388D01*
X69907624Y-65474176D01*
X69701067Y-65388617D01*
X69481788Y-65345000D01*
X69258212Y-65345000D01*
X69038933Y-65388617D01*
X68832376Y-65474176D01*
X68646480Y-65598388D01*
X68488388Y-65756480D01*
X68364176Y-65942376D01*
X68278617Y-66148933D01*
X68235000Y-66368212D01*
X59515000Y-66368212D01*
X59471383Y-66148933D01*
X59385824Y-65942376D01*
X59261612Y-65756480D01*
X59103520Y-65598388D01*
X58917624Y-65474176D01*
X58711067Y-65388617D01*
X58491788Y-65345000D01*
X58268212Y-65345000D01*
X58048933Y-65388617D01*
X57842376Y-65474176D01*
X57656480Y-65598388D01*
X57498388Y-65756480D01*
X57374176Y-65942376D01*
X57288617Y-66148933D01*
X57245000Y-66368212D01*
X48505000Y-66368212D01*
X48461383Y-66148933D01*
X48375824Y-65942376D01*
X48251612Y-65756480D01*
X48093520Y-65598388D01*
X47907624Y-65474176D01*
X47701067Y-65388617D01*
X47481788Y-65345000D01*
X47258212Y-65345000D01*
X47038933Y-65388617D01*
X46832376Y-65474176D01*
X46646480Y-65598388D01*
X46488388Y-65756480D01*
X46364176Y-65942376D01*
X46278617Y-66148933D01*
X46235000Y-66368212D01*
X37515000Y-66368212D01*
X37515000Y-66358212D01*
X37471383Y-66138933D01*
X37385824Y-65932376D01*
X37261612Y-65746480D01*
X37103520Y-65588388D01*
X36917624Y-65464176D01*
X36711067Y-65378617D01*
X36491788Y-65335000D01*
X36268212Y-65335000D01*
X36048933Y-65378617D01*
X35842376Y-65464176D01*
X35656480Y-65588388D01*
X35498388Y-65746480D01*
X35374176Y-65932376D01*
X35288617Y-66138933D01*
X35245000Y-66358212D01*
X30509762Y-66358212D01*
X30364598Y-66298083D01*
X30123110Y-66250048D01*
X29876890Y-66250048D01*
X29774602Y-66270394D01*
X29849929Y-66033757D01*
X29958414Y-65067719D01*
X29876351Y-64099079D01*
X29606893Y-63165062D01*
X29160394Y-62301560D01*
X29085149Y-62188946D01*
X28482818Y-61696787D01*
X25179605Y-65000000D01*
X24820395Y-65000000D01*
X21517182Y-61696787D01*
X20914851Y-62188946D01*
X20660000Y-62650466D01*
X20660000Y-61517182D01*
X21696787Y-61517182D01*
X25000000Y-64820395D01*
X28303213Y-61517182D01*
X91696787Y-61517182D01*
X95000000Y-64820395D01*
X98303213Y-61517182D01*
X97811054Y-60914851D01*
X96960067Y-60444937D01*
X96033757Y-60150071D01*
X95067719Y-60041586D01*
X94099079Y-60123649D01*
X93165062Y-60393107D01*
X92301560Y-60839606D01*
X92188946Y-60914851D01*
X91696787Y-61517182D01*
X28303213Y-61517182D01*
X27811054Y-60914851D01*
X26960067Y-60444937D01*
X26655735Y-60348061D01*
X70165000Y-60348061D01*
X70165000Y-60551939D01*
X70204774Y-60751898D01*
X70282795Y-60940256D01*
X70396063Y-61109774D01*
X70540226Y-61253937D01*
X70709744Y-61367205D01*
X70898102Y-61445226D01*
X71098061Y-61485000D01*
X71301939Y-61485000D01*
X71501898Y-61445226D01*
X71690256Y-61367205D01*
X71859774Y-61253937D01*
X72003937Y-61109774D01*
X72117205Y-60940256D01*
X72195226Y-60751898D01*
X72235000Y-60551939D01*
X72235000Y-60348061D01*
X72195226Y-60148102D01*
X72117205Y-59959744D01*
X72003937Y-59790226D01*
X71859774Y-59646063D01*
X71690256Y-59532795D01*
X71501898Y-59454774D01*
X71301939Y-59415000D01*
X71098061Y-59415000D01*
X70898102Y-59454774D01*
X70709744Y-59532795D01*
X70540226Y-59646063D01*
X70396063Y-59790226D01*
X70282795Y-59959744D01*
X70204774Y-60148102D01*
X70165000Y-60348061D01*
X26655735Y-60348061D01*
X26033757Y-60150071D01*
X25067719Y-60041586D01*
X24099079Y-60123649D01*
X23165062Y-60393107D01*
X22301560Y-60839606D01*
X22188946Y-60914851D01*
X21696787Y-61517182D01*
X20660000Y-61517182D01*
X20660000Y-58873061D01*
X64365000Y-58873061D01*
X64365000Y-59076939D01*
X64404774Y-59276898D01*
X64482795Y-59465256D01*
X64596063Y-59634774D01*
X64740226Y-59778937D01*
X64909744Y-59892205D01*
X65098102Y-59970226D01*
X65298061Y-60010000D01*
X65501939Y-60010000D01*
X65701898Y-59970226D01*
X65890256Y-59892205D01*
X66059774Y-59778937D01*
X66203937Y-59634774D01*
X66317205Y-59465256D01*
X66395226Y-59276898D01*
X66435000Y-59076939D01*
X66435000Y-58873061D01*
X66395226Y-58673102D01*
X66333077Y-58523061D01*
X75115000Y-58523061D01*
X75115000Y-58726939D01*
X75154774Y-58926898D01*
X75232795Y-59115256D01*
X75346063Y-59284774D01*
X75490226Y-59428937D01*
X75659744Y-59542205D01*
X75848102Y-59620226D01*
X76048061Y-59660000D01*
X76190000Y-59660000D01*
X76190000Y-59776939D01*
X76229774Y-59976898D01*
X76307795Y-60165256D01*
X76421063Y-60334774D01*
X76565226Y-60478937D01*
X76734744Y-60592205D01*
X76923102Y-60670226D01*
X77123061Y-60710000D01*
X77326939Y-60710000D01*
X77526898Y-60670226D01*
X77715256Y-60592205D01*
X77884774Y-60478937D01*
X78028937Y-60334774D01*
X78142205Y-60165256D01*
X78220226Y-59976898D01*
X78260000Y-59776939D01*
X78260000Y-59573061D01*
X78220226Y-59373102D01*
X78142205Y-59184744D01*
X78028937Y-59015226D01*
X77884774Y-58871063D01*
X77715256Y-58757795D01*
X77526898Y-58679774D01*
X77326939Y-58640000D01*
X77185000Y-58640000D01*
X77185000Y-58523061D01*
X77170082Y-58448061D01*
X81565000Y-58448061D01*
X81565000Y-58651939D01*
X81604774Y-58851898D01*
X81682795Y-59040256D01*
X81796063Y-59209774D01*
X81940226Y-59353937D01*
X82109744Y-59467205D01*
X82298102Y-59545226D01*
X82498061Y-59585000D01*
X82701939Y-59585000D01*
X82901898Y-59545226D01*
X83090256Y-59467205D01*
X83099134Y-59461273D01*
X83124233Y-59478044D01*
X83312591Y-59556065D01*
X83512550Y-59595839D01*
X83716428Y-59595839D01*
X83916387Y-59556065D01*
X84104745Y-59478044D01*
X84274263Y-59364776D01*
X84418426Y-59220613D01*
X84531694Y-59051095D01*
X84609715Y-58862737D01*
X84649489Y-58662778D01*
X84649489Y-58458900D01*
X84609715Y-58258941D01*
X84531694Y-58070583D01*
X84418426Y-57901065D01*
X84274263Y-57756902D01*
X84104745Y-57643634D01*
X83916387Y-57565613D01*
X83716428Y-57525839D01*
X83512550Y-57525839D01*
X83312591Y-57565613D01*
X83124233Y-57643634D01*
X83115355Y-57649566D01*
X83090256Y-57632795D01*
X82901898Y-57554774D01*
X82701939Y-57515000D01*
X82498061Y-57515000D01*
X82298102Y-57554774D01*
X82109744Y-57632795D01*
X81940226Y-57746063D01*
X81796063Y-57890226D01*
X81682795Y-58059744D01*
X81604774Y-58248102D01*
X81565000Y-58448061D01*
X77170082Y-58448061D01*
X77145226Y-58323102D01*
X77067205Y-58134744D01*
X76953937Y-57965226D01*
X76809774Y-57821063D01*
X76640256Y-57707795D01*
X76451898Y-57629774D01*
X76251939Y-57590000D01*
X76048061Y-57590000D01*
X75848102Y-57629774D01*
X75659744Y-57707795D01*
X75490226Y-57821063D01*
X75346063Y-57965226D01*
X75232795Y-58134744D01*
X75154774Y-58323102D01*
X75115000Y-58523061D01*
X66333077Y-58523061D01*
X66317205Y-58484744D01*
X66203937Y-58315226D01*
X66059774Y-58171063D01*
X65890256Y-58057795D01*
X65701898Y-57979774D01*
X65501939Y-57940000D01*
X65298061Y-57940000D01*
X65098102Y-57979774D01*
X64909744Y-58057795D01*
X64740226Y-58171063D01*
X64596063Y-58315226D01*
X64482795Y-58484744D01*
X64404774Y-58673102D01*
X64365000Y-58873061D01*
X20660000Y-58873061D01*
X20660000Y-57373061D01*
X60015000Y-57373061D01*
X60015000Y-57576939D01*
X60054774Y-57776898D01*
X60132795Y-57965256D01*
X60246063Y-58134774D01*
X60390226Y-58278937D01*
X60559744Y-58392205D01*
X60748102Y-58470226D01*
X60948061Y-58510000D01*
X61151939Y-58510000D01*
X61351898Y-58470226D01*
X61540256Y-58392205D01*
X61709774Y-58278937D01*
X61853937Y-58134774D01*
X61967205Y-57965256D01*
X62045226Y-57776898D01*
X62085000Y-57576939D01*
X62085000Y-57373061D01*
X62045226Y-57173102D01*
X61967205Y-56984744D01*
X61909286Y-56898061D01*
X65465000Y-56898061D01*
X65465000Y-57101939D01*
X65504774Y-57301898D01*
X65582795Y-57490256D01*
X65696063Y-57659774D01*
X65840226Y-57803937D01*
X66009744Y-57917205D01*
X66198102Y-57995226D01*
X66398061Y-58035000D01*
X66601939Y-58035000D01*
X66801898Y-57995226D01*
X66990256Y-57917205D01*
X67159774Y-57803937D01*
X67303937Y-57659774D01*
X67417205Y-57490256D01*
X67495226Y-57301898D01*
X67535000Y-57101939D01*
X67535000Y-56898061D01*
X67495226Y-56698102D01*
X67417205Y-56509744D01*
X67303937Y-56340226D01*
X67159774Y-56196063D01*
X66990256Y-56082795D01*
X66801898Y-56004774D01*
X66601939Y-55965000D01*
X66398061Y-55965000D01*
X66198102Y-56004774D01*
X66009744Y-56082795D01*
X65840226Y-56196063D01*
X65696063Y-56340226D01*
X65582795Y-56509744D01*
X65504774Y-56698102D01*
X65465000Y-56898061D01*
X61909286Y-56898061D01*
X61853937Y-56815226D01*
X61709774Y-56671063D01*
X61540256Y-56557795D01*
X61351898Y-56479774D01*
X61151939Y-56440000D01*
X60948061Y-56440000D01*
X60748102Y-56479774D01*
X60559744Y-56557795D01*
X60390226Y-56671063D01*
X60246063Y-56815226D01*
X60132795Y-56984744D01*
X60054774Y-57173102D01*
X60015000Y-57373061D01*
X20660000Y-57373061D01*
X20660000Y-54788212D01*
X36065000Y-54788212D01*
X36065000Y-55011788D01*
X36108617Y-55231067D01*
X36194176Y-55437624D01*
X36318388Y-55623520D01*
X36476480Y-55781612D01*
X36662376Y-55905824D01*
X36868933Y-55991383D01*
X37088212Y-56035000D01*
X37311788Y-56035000D01*
X37531067Y-55991383D01*
X37737624Y-55905824D01*
X37800000Y-55864146D01*
X37862376Y-55905824D01*
X38068933Y-55991383D01*
X38288212Y-56035000D01*
X38511788Y-56035000D01*
X38731067Y-55991383D01*
X38937624Y-55905824D01*
X39000000Y-55864146D01*
X39062376Y-55905824D01*
X39268933Y-55991383D01*
X39488212Y-56035000D01*
X39711788Y-56035000D01*
X39931067Y-55991383D01*
X40137624Y-55905824D01*
X40200000Y-55864146D01*
X40262376Y-55905824D01*
X40468933Y-55991383D01*
X40688212Y-56035000D01*
X40911788Y-56035000D01*
X41131067Y-55991383D01*
X41337624Y-55905824D01*
X41400000Y-55864146D01*
X41462376Y-55905824D01*
X41668933Y-55991383D01*
X41888212Y-56035000D01*
X42111788Y-56035000D01*
X42331067Y-55991383D01*
X42537624Y-55905824D01*
X42600000Y-55864146D01*
X42662376Y-55905824D01*
X42868933Y-55991383D01*
X43088212Y-56035000D01*
X43311788Y-56035000D01*
X43531067Y-55991383D01*
X43737624Y-55905824D01*
X43923520Y-55781612D01*
X44057071Y-55648061D01*
X72715000Y-55648061D01*
X72715000Y-55851939D01*
X72754774Y-56051898D01*
X72832795Y-56240256D01*
X72946063Y-56409774D01*
X73090226Y-56553937D01*
X73259744Y-56667205D01*
X73448102Y-56745226D01*
X73648061Y-56785000D01*
X73851939Y-56785000D01*
X74051898Y-56745226D01*
X74240256Y-56667205D01*
X74409774Y-56553937D01*
X74553937Y-56409774D01*
X74667205Y-56240256D01*
X74745226Y-56051898D01*
X74785000Y-55851939D01*
X74785000Y-55648061D01*
X74745226Y-55448102D01*
X74667205Y-55259744D01*
X74553937Y-55090226D01*
X74409774Y-54946063D01*
X74240256Y-54832795D01*
X74051898Y-54754774D01*
X73851939Y-54715000D01*
X73648061Y-54715000D01*
X73448102Y-54754774D01*
X73259744Y-54832795D01*
X73090226Y-54946063D01*
X72946063Y-55090226D01*
X72832795Y-55259744D01*
X72754774Y-55448102D01*
X72715000Y-55648061D01*
X44057071Y-55648061D01*
X44081612Y-55623520D01*
X44205824Y-55437624D01*
X44291383Y-55231067D01*
X44335000Y-55011788D01*
X44335000Y-54788212D01*
X44291383Y-54568933D01*
X44205824Y-54362376D01*
X44164146Y-54300000D01*
X44172123Y-54288061D01*
X44595000Y-54288061D01*
X44595000Y-54491939D01*
X44634774Y-54691898D01*
X44712795Y-54880256D01*
X44826063Y-55049774D01*
X44970226Y-55193937D01*
X45139744Y-55307205D01*
X45328102Y-55385226D01*
X45528061Y-55425000D01*
X45731939Y-55425000D01*
X45931898Y-55385226D01*
X46120256Y-55307205D01*
X46289774Y-55193937D01*
X46433937Y-55049774D01*
X46547205Y-54880256D01*
X46625226Y-54691898D01*
X46665000Y-54491939D01*
X46665000Y-54288061D01*
X50585000Y-54288061D01*
X50585000Y-54491939D01*
X50624774Y-54691898D01*
X50702795Y-54880256D01*
X50816063Y-55049774D01*
X50960226Y-55193937D01*
X51129744Y-55307205D01*
X51318102Y-55385226D01*
X51518061Y-55425000D01*
X51721939Y-55425000D01*
X51921898Y-55385226D01*
X52110256Y-55307205D01*
X52279774Y-55193937D01*
X52423937Y-55049774D01*
X52537205Y-54880256D01*
X52615226Y-54691898D01*
X52655000Y-54491939D01*
X52655000Y-54288061D01*
X52615226Y-54088102D01*
X52537205Y-53899744D01*
X52423937Y-53730226D01*
X52311772Y-53618061D01*
X66315000Y-53618061D01*
X66315000Y-53821939D01*
X66354774Y-54021898D01*
X66432795Y-54210256D01*
X66546063Y-54379774D01*
X66690226Y-54523937D01*
X66859744Y-54637205D01*
X67048102Y-54715226D01*
X67248061Y-54755000D01*
X67451939Y-54755000D01*
X67651898Y-54715226D01*
X67835000Y-54639382D01*
X68018102Y-54715226D01*
X68218061Y-54755000D01*
X68421939Y-54755000D01*
X68621898Y-54715226D01*
X68810256Y-54637205D01*
X68979774Y-54523937D01*
X69123937Y-54379774D01*
X69237205Y-54210256D01*
X69315226Y-54021898D01*
X69355000Y-53821939D01*
X69355000Y-53618061D01*
X69351022Y-53598061D01*
X75165000Y-53598061D01*
X75165000Y-53801939D01*
X75204774Y-54001898D01*
X75282795Y-54190256D01*
X75396063Y-54359774D01*
X75540226Y-54503937D01*
X75709744Y-54617205D01*
X75898102Y-54695226D01*
X76098061Y-54735000D01*
X76301939Y-54735000D01*
X76501898Y-54695226D01*
X76690256Y-54617205D01*
X76859774Y-54503937D01*
X77003937Y-54359774D01*
X77117205Y-54190256D01*
X77195226Y-54001898D01*
X77235000Y-53801939D01*
X77235000Y-53598061D01*
X77195226Y-53398102D01*
X77117205Y-53209744D01*
X77003937Y-53040226D01*
X76859774Y-52896063D01*
X76690256Y-52782795D01*
X76501898Y-52704774D01*
X76301939Y-52665000D01*
X76098061Y-52665000D01*
X75898102Y-52704774D01*
X75709744Y-52782795D01*
X75540226Y-52896063D01*
X75396063Y-53040226D01*
X75282795Y-53209744D01*
X75204774Y-53398102D01*
X75165000Y-53598061D01*
X69351022Y-53598061D01*
X69315226Y-53418102D01*
X69237205Y-53229744D01*
X69123937Y-53060226D01*
X68979774Y-52916063D01*
X68810256Y-52802795D01*
X68621898Y-52724774D01*
X68421939Y-52685000D01*
X68218061Y-52685000D01*
X68018102Y-52724774D01*
X67835000Y-52800618D01*
X67651898Y-52724774D01*
X67451939Y-52685000D01*
X67248061Y-52685000D01*
X67048102Y-52724774D01*
X66859744Y-52802795D01*
X66690226Y-52916063D01*
X66546063Y-53060226D01*
X66432795Y-53229744D01*
X66354774Y-53418102D01*
X66315000Y-53618061D01*
X52311772Y-53618061D01*
X52279774Y-53586063D01*
X52110256Y-53472795D01*
X51921898Y-53394774D01*
X51721939Y-53355000D01*
X51518061Y-53355000D01*
X51318102Y-53394774D01*
X51129744Y-53472795D01*
X50960226Y-53586063D01*
X50816063Y-53730226D01*
X50702795Y-53899744D01*
X50624774Y-54088102D01*
X50585000Y-54288061D01*
X46665000Y-54288061D01*
X46625226Y-54088102D01*
X46547205Y-53899744D01*
X46433937Y-53730226D01*
X46289774Y-53586063D01*
X46120256Y-53472795D01*
X45931898Y-53394774D01*
X45731939Y-53355000D01*
X45528061Y-53355000D01*
X45328102Y-53394774D01*
X45139744Y-53472795D01*
X44970226Y-53586063D01*
X44826063Y-53730226D01*
X44712795Y-53899744D01*
X44634774Y-54088102D01*
X44595000Y-54288061D01*
X44172123Y-54288061D01*
X44205824Y-54237624D01*
X44291383Y-54031067D01*
X44335000Y-53811788D01*
X44335000Y-53588212D01*
X44291383Y-53368933D01*
X44205824Y-53162376D01*
X44164146Y-53100000D01*
X44205824Y-53037624D01*
X44291383Y-52831067D01*
X44335000Y-52611788D01*
X44335000Y-52388212D01*
X44291383Y-52168933D01*
X44282738Y-52148061D01*
X69811685Y-52148061D01*
X69811685Y-52351939D01*
X69851459Y-52551898D01*
X69929480Y-52740256D01*
X70042748Y-52909774D01*
X70186911Y-53053937D01*
X70356429Y-53167205D01*
X70544787Y-53245226D01*
X70744746Y-53285000D01*
X70948624Y-53285000D01*
X71148583Y-53245226D01*
X71336941Y-53167205D01*
X71506459Y-53053937D01*
X71650622Y-52909774D01*
X71763890Y-52740256D01*
X71841911Y-52551898D01*
X71865163Y-52435000D01*
X71901939Y-52435000D01*
X72101898Y-52395226D01*
X72290256Y-52317205D01*
X72459774Y-52203937D01*
X72603937Y-52059774D01*
X72717205Y-51890256D01*
X72795226Y-51701898D01*
X72835000Y-51501939D01*
X72835000Y-51298061D01*
X72795226Y-51098102D01*
X72717205Y-50909744D01*
X72603937Y-50740226D01*
X72459774Y-50596063D01*
X72290256Y-50482795D01*
X72101898Y-50404774D01*
X71901939Y-50365000D01*
X71698061Y-50365000D01*
X71498102Y-50404774D01*
X71309744Y-50482795D01*
X71140226Y-50596063D01*
X70996063Y-50740226D01*
X70882795Y-50909744D01*
X70804774Y-51098102D01*
X70781522Y-51215000D01*
X70744746Y-51215000D01*
X70544787Y-51254774D01*
X70356429Y-51332795D01*
X70186911Y-51446063D01*
X70042748Y-51590226D01*
X69929480Y-51759744D01*
X69851459Y-51948102D01*
X69811685Y-52148061D01*
X44282738Y-52148061D01*
X44205824Y-51962376D01*
X44081612Y-51776480D01*
X43923520Y-51618388D01*
X43737624Y-51494176D01*
X43531067Y-51408617D01*
X43311788Y-51365000D01*
X43088212Y-51365000D01*
X42868933Y-51408617D01*
X42662376Y-51494176D01*
X42476480Y-51618388D01*
X42318388Y-51776480D01*
X42194176Y-51962376D01*
X42108617Y-52168933D01*
X42065000Y-52388212D01*
X42065000Y-52611788D01*
X42108617Y-52831067D01*
X42194176Y-53037624D01*
X42235854Y-53100000D01*
X42194176Y-53162376D01*
X42108617Y-53368933D01*
X42065000Y-53588212D01*
X42065000Y-53765000D01*
X41888212Y-53765000D01*
X41668933Y-53808617D01*
X41462376Y-53894176D01*
X41400000Y-53935854D01*
X41337624Y-53894176D01*
X41131067Y-53808617D01*
X40911788Y-53765000D01*
X40688212Y-53765000D01*
X40468933Y-53808617D01*
X40262376Y-53894176D01*
X40200000Y-53935854D01*
X40137624Y-53894176D01*
X39931067Y-53808617D01*
X39711788Y-53765000D01*
X39488212Y-53765000D01*
X39268933Y-53808617D01*
X39062376Y-53894176D01*
X39000000Y-53935854D01*
X38937624Y-53894176D01*
X38731067Y-53808617D01*
X38511788Y-53765000D01*
X38288212Y-53765000D01*
X38068933Y-53808617D01*
X37862376Y-53894176D01*
X37800000Y-53935854D01*
X37737624Y-53894176D01*
X37531067Y-53808617D01*
X37311788Y-53765000D01*
X37088212Y-53765000D01*
X36868933Y-53808617D01*
X36662376Y-53894176D01*
X36476480Y-54018388D01*
X36318388Y-54176480D01*
X36194176Y-54362376D01*
X36108617Y-54568933D01*
X36065000Y-54788212D01*
X20660000Y-54788212D01*
X20660000Y-50988212D01*
X36065000Y-50988212D01*
X36065000Y-51211788D01*
X36108617Y-51431067D01*
X36194176Y-51637624D01*
X36318388Y-51823520D01*
X36476480Y-51981612D01*
X36662376Y-52105824D01*
X36868933Y-52191383D01*
X37088212Y-52235000D01*
X37311788Y-52235000D01*
X37531067Y-52191383D01*
X37737624Y-52105824D01*
X37800000Y-52064146D01*
X37862376Y-52105824D01*
X38068933Y-52191383D01*
X38288212Y-52235000D01*
X38511788Y-52235000D01*
X38731067Y-52191383D01*
X38937624Y-52105824D01*
X39000000Y-52064146D01*
X39062376Y-52105824D01*
X39268933Y-52191383D01*
X39488212Y-52235000D01*
X39711788Y-52235000D01*
X39931067Y-52191383D01*
X40137624Y-52105824D01*
X40323520Y-51981612D01*
X40481612Y-51823520D01*
X40605824Y-51637624D01*
X40691383Y-51431067D01*
X40735000Y-51211788D01*
X40735000Y-50988212D01*
X40691383Y-50768933D01*
X40651672Y-50673061D01*
X56890000Y-50673061D01*
X56890000Y-50876939D01*
X56929774Y-51076898D01*
X57007795Y-51265256D01*
X57121063Y-51434774D01*
X57265226Y-51578937D01*
X57434744Y-51692205D01*
X57623102Y-51770226D01*
X57823061Y-51810000D01*
X58026939Y-51810000D01*
X58226898Y-51770226D01*
X58415256Y-51692205D01*
X58584774Y-51578937D01*
X58728937Y-51434774D01*
X58842205Y-51265256D01*
X58920226Y-51076898D01*
X58960000Y-50876939D01*
X58960000Y-50835000D01*
X59001939Y-50835000D01*
X59201898Y-50795226D01*
X59390256Y-50717205D01*
X59559774Y-50603937D01*
X59703937Y-50459774D01*
X59817205Y-50290256D01*
X59895226Y-50101898D01*
X59923451Y-49960000D01*
X59926939Y-49960000D01*
X60126898Y-49920226D01*
X60180408Y-49898061D01*
X82405000Y-49898061D01*
X82405000Y-50101939D01*
X82444774Y-50301898D01*
X82522795Y-50490256D01*
X82636063Y-50659774D01*
X82780226Y-50803937D01*
X82949744Y-50917205D01*
X83138102Y-50995226D01*
X83338061Y-51035000D01*
X83541939Y-51035000D01*
X83741898Y-50995226D01*
X83895000Y-50931809D01*
X84048102Y-50995226D01*
X84248061Y-51035000D01*
X84451939Y-51035000D01*
X84651898Y-50995226D01*
X84840256Y-50917205D01*
X85009774Y-50803937D01*
X85153937Y-50659774D01*
X85267205Y-50490256D01*
X85345226Y-50301898D01*
X85385000Y-50101939D01*
X85385000Y-49898061D01*
X85345226Y-49698102D01*
X85267205Y-49509744D01*
X85153937Y-49340226D01*
X85009774Y-49196063D01*
X84840256Y-49082795D01*
X84651898Y-49004774D01*
X84451939Y-48965000D01*
X84248061Y-48965000D01*
X84048102Y-49004774D01*
X83895000Y-49068191D01*
X83741898Y-49004774D01*
X83541939Y-48965000D01*
X83338061Y-48965000D01*
X83138102Y-49004774D01*
X82949744Y-49082795D01*
X82780226Y-49196063D01*
X82636063Y-49340226D01*
X82522795Y-49509744D01*
X82444774Y-49698102D01*
X82405000Y-49898061D01*
X60180408Y-49898061D01*
X60315256Y-49842205D01*
X60484774Y-49728937D01*
X60628937Y-49584774D01*
X60742205Y-49415256D01*
X60820226Y-49226898D01*
X60860000Y-49026939D01*
X60860000Y-48823061D01*
X60852411Y-48784906D01*
X61051898Y-48745226D01*
X61240256Y-48667205D01*
X61250000Y-48660694D01*
X61259744Y-48667205D01*
X61448102Y-48745226D01*
X61648061Y-48785000D01*
X61851939Y-48785000D01*
X62051898Y-48745226D01*
X62240256Y-48667205D01*
X62409774Y-48553937D01*
X62553937Y-48409774D01*
X62667205Y-48240256D01*
X62745226Y-48051898D01*
X62785000Y-47851939D01*
X62785000Y-47648061D01*
X62745226Y-47448102D01*
X62667205Y-47259744D01*
X62553937Y-47090226D01*
X62409774Y-46946063D01*
X62337934Y-46898061D01*
X67365000Y-46898061D01*
X67365000Y-47101939D01*
X67404774Y-47301898D01*
X67482795Y-47490256D01*
X67596063Y-47659774D01*
X67740226Y-47803937D01*
X67909744Y-47917205D01*
X68098102Y-47995226D01*
X68298061Y-48035000D01*
X68501939Y-48035000D01*
X68701898Y-47995226D01*
X68890256Y-47917205D01*
X68918907Y-47898061D01*
X74215000Y-47898061D01*
X74215000Y-48101939D01*
X74254774Y-48301898D01*
X74332795Y-48490256D01*
X74446063Y-48659774D01*
X74590226Y-48803937D01*
X74759744Y-48917205D01*
X74948102Y-48995226D01*
X75148061Y-49035000D01*
X75351939Y-49035000D01*
X75551898Y-48995226D01*
X75740256Y-48917205D01*
X75909774Y-48803937D01*
X76053937Y-48659774D01*
X76161989Y-48498061D01*
X76740000Y-48498061D01*
X76740000Y-48701939D01*
X76779774Y-48901898D01*
X76857795Y-49090256D01*
X76971063Y-49259774D01*
X77115226Y-49403937D01*
X77284744Y-49517205D01*
X77473102Y-49595226D01*
X77673061Y-49635000D01*
X77876939Y-49635000D01*
X78076898Y-49595226D01*
X78265256Y-49517205D01*
X78434774Y-49403937D01*
X78578937Y-49259774D01*
X78692205Y-49090256D01*
X78770226Y-48901898D01*
X78810000Y-48701939D01*
X78810000Y-48504738D01*
X78840256Y-48492205D01*
X79009774Y-48378937D01*
X79153937Y-48234774D01*
X79267205Y-48065256D01*
X79345226Y-47876898D01*
X79385000Y-47676939D01*
X79385000Y-47473061D01*
X79345226Y-47273102D01*
X79267205Y-47084744D01*
X79153937Y-46915226D01*
X79009774Y-46771063D01*
X78840256Y-46657795D01*
X78651898Y-46579774D01*
X78451939Y-46540000D01*
X78248061Y-46540000D01*
X78048102Y-46579774D01*
X77859744Y-46657795D01*
X77690226Y-46771063D01*
X77546063Y-46915226D01*
X77432795Y-47084744D01*
X77354774Y-47273102D01*
X77315000Y-47473061D01*
X77315000Y-47670262D01*
X77284744Y-47682795D01*
X77115226Y-47796063D01*
X76971063Y-47940226D01*
X76857795Y-48109744D01*
X76779774Y-48298102D01*
X76740000Y-48498061D01*
X76161989Y-48498061D01*
X76167205Y-48490256D01*
X76245226Y-48301898D01*
X76285000Y-48101939D01*
X76285000Y-47898061D01*
X76245226Y-47698102D01*
X76167205Y-47509744D01*
X76053937Y-47340226D01*
X75909774Y-47196063D01*
X75740256Y-47082795D01*
X75551898Y-47004774D01*
X75351939Y-46965000D01*
X75148061Y-46965000D01*
X74948102Y-47004774D01*
X74759744Y-47082795D01*
X74590226Y-47196063D01*
X74446063Y-47340226D01*
X74332795Y-47509744D01*
X74254774Y-47698102D01*
X74215000Y-47898061D01*
X68918907Y-47898061D01*
X69059774Y-47803937D01*
X69203937Y-47659774D01*
X69317205Y-47490256D01*
X69395226Y-47301898D01*
X69435000Y-47101939D01*
X69435000Y-46898061D01*
X69395226Y-46698102D01*
X69317205Y-46509744D01*
X69203937Y-46340226D01*
X69059774Y-46196063D01*
X68890256Y-46082795D01*
X68701898Y-46004774D01*
X68501939Y-45965000D01*
X68298061Y-45965000D01*
X68098102Y-46004774D01*
X67909744Y-46082795D01*
X67740226Y-46196063D01*
X67596063Y-46340226D01*
X67482795Y-46509744D01*
X67404774Y-46698102D01*
X67365000Y-46898061D01*
X62337934Y-46898061D01*
X62240256Y-46832795D01*
X62051898Y-46754774D01*
X61851939Y-46715000D01*
X61648061Y-46715000D01*
X61448102Y-46754774D01*
X61259744Y-46832795D01*
X61250000Y-46839306D01*
X61240256Y-46832795D01*
X61051898Y-46754774D01*
X60851939Y-46715000D01*
X60648061Y-46715000D01*
X60448102Y-46754774D01*
X60259744Y-46832795D01*
X60090226Y-46946063D01*
X59946063Y-47090226D01*
X59832795Y-47259744D01*
X59754774Y-47448102D01*
X59715000Y-47648061D01*
X59715000Y-47851939D01*
X59722589Y-47890094D01*
X59523102Y-47929774D01*
X59334744Y-48007795D01*
X59165226Y-48121063D01*
X59021063Y-48265226D01*
X58907795Y-48434744D01*
X58829774Y-48623102D01*
X58801549Y-48765000D01*
X58798061Y-48765000D01*
X58598102Y-48804774D01*
X58409744Y-48882795D01*
X58240226Y-48996063D01*
X58096063Y-49140226D01*
X57982795Y-49309744D01*
X57904774Y-49498102D01*
X57865000Y-49698061D01*
X57865000Y-49740000D01*
X57823061Y-49740000D01*
X57623102Y-49779774D01*
X57434744Y-49857795D01*
X57265226Y-49971063D01*
X57121063Y-50115226D01*
X57007795Y-50284744D01*
X56929774Y-50473102D01*
X56890000Y-50673061D01*
X40651672Y-50673061D01*
X40605824Y-50562376D01*
X40481612Y-50376480D01*
X40323520Y-50218388D01*
X40137624Y-50094176D01*
X39931067Y-50008617D01*
X39711788Y-49965000D01*
X39488212Y-49965000D01*
X39268933Y-50008617D01*
X39062376Y-50094176D01*
X39000000Y-50135854D01*
X38937624Y-50094176D01*
X38731067Y-50008617D01*
X38511788Y-49965000D01*
X38288212Y-49965000D01*
X38068933Y-50008617D01*
X37862376Y-50094176D01*
X37800000Y-50135854D01*
X37737624Y-50094176D01*
X37531067Y-50008617D01*
X37311788Y-49965000D01*
X37088212Y-49965000D01*
X36868933Y-50008617D01*
X36662376Y-50094176D01*
X36476480Y-50218388D01*
X36318388Y-50376480D01*
X36194176Y-50562376D01*
X36108617Y-50768933D01*
X36065000Y-50988212D01*
X20660000Y-50988212D01*
X20660000Y-48358212D01*
X21025000Y-48358212D01*
X21025000Y-48581788D01*
X21068617Y-48801067D01*
X21154176Y-49007624D01*
X21278388Y-49193520D01*
X21436480Y-49351612D01*
X21622376Y-49475824D01*
X21828933Y-49561383D01*
X22048212Y-49605000D01*
X22271788Y-49605000D01*
X22491067Y-49561383D01*
X22697624Y-49475824D01*
X22760000Y-49434146D01*
X22822376Y-49475824D01*
X23028933Y-49561383D01*
X23248212Y-49605000D01*
X23471788Y-49605000D01*
X23691067Y-49561383D01*
X23897624Y-49475824D01*
X23950000Y-49440827D01*
X24002376Y-49475824D01*
X24208933Y-49561383D01*
X24428212Y-49605000D01*
X24651788Y-49605000D01*
X24871067Y-49561383D01*
X25077624Y-49475824D01*
X25263520Y-49351612D01*
X25421612Y-49193520D01*
X25545824Y-49007624D01*
X25631383Y-48801067D01*
X25675000Y-48581788D01*
X25675000Y-48358212D01*
X25631383Y-48138933D01*
X25545824Y-47932376D01*
X25421612Y-47746480D01*
X25263520Y-47588388D01*
X25128337Y-47498061D01*
X53065000Y-47498061D01*
X53065000Y-47701939D01*
X53104774Y-47901898D01*
X53182795Y-48090256D01*
X53296063Y-48259774D01*
X53440226Y-48403937D01*
X53609744Y-48517205D01*
X53798102Y-48595226D01*
X53998061Y-48635000D01*
X54201939Y-48635000D01*
X54401898Y-48595226D01*
X54590256Y-48517205D01*
X54759774Y-48403937D01*
X54903937Y-48259774D01*
X55017205Y-48090256D01*
X55095226Y-47901898D01*
X55135000Y-47701939D01*
X55135000Y-47498061D01*
X55095226Y-47298102D01*
X55017205Y-47109744D01*
X54903937Y-46940226D01*
X54759774Y-46796063D01*
X54590256Y-46682795D01*
X54401898Y-46604774D01*
X54201939Y-46565000D01*
X53998061Y-46565000D01*
X53798102Y-46604774D01*
X53609744Y-46682795D01*
X53440226Y-46796063D01*
X53296063Y-46940226D01*
X53182795Y-47109744D01*
X53104774Y-47298102D01*
X53065000Y-47498061D01*
X25128337Y-47498061D01*
X25077624Y-47464176D01*
X24871067Y-47378617D01*
X24651788Y-47335000D01*
X24428212Y-47335000D01*
X24208933Y-47378617D01*
X24002376Y-47464176D01*
X23950000Y-47499173D01*
X23897624Y-47464176D01*
X23691067Y-47378617D01*
X23471788Y-47335000D01*
X23248212Y-47335000D01*
X23028933Y-47378617D01*
X22822376Y-47464176D01*
X22760000Y-47505854D01*
X22697624Y-47464176D01*
X22491067Y-47378617D01*
X22271788Y-47335000D01*
X22048212Y-47335000D01*
X21828933Y-47378617D01*
X21622376Y-47464176D01*
X21436480Y-47588388D01*
X21278388Y-47746480D01*
X21154176Y-47932376D01*
X21068617Y-48138933D01*
X21025000Y-48358212D01*
X20660000Y-48358212D01*
X20660000Y-43698061D01*
X30665000Y-43698061D01*
X30665000Y-43901939D01*
X30704774Y-44101898D01*
X30766120Y-44250000D01*
X30704774Y-44398102D01*
X30665000Y-44598061D01*
X30665000Y-44801939D01*
X30704774Y-45001898D01*
X30782795Y-45190256D01*
X30896063Y-45359774D01*
X31040226Y-45503937D01*
X31209744Y-45617205D01*
X31398102Y-45695226D01*
X31598061Y-45735000D01*
X31801939Y-45735000D01*
X32001898Y-45695226D01*
X32190256Y-45617205D01*
X32359774Y-45503937D01*
X32503937Y-45359774D01*
X32617205Y-45190256D01*
X32655393Y-45098061D01*
X51165000Y-45098061D01*
X51165000Y-45301939D01*
X51204774Y-45501898D01*
X51282795Y-45690256D01*
X51396063Y-45859774D01*
X51540226Y-46003937D01*
X51709744Y-46117205D01*
X51898102Y-46195226D01*
X52098061Y-46235000D01*
X52301939Y-46235000D01*
X52501898Y-46195226D01*
X52690256Y-46117205D01*
X52859774Y-46003937D01*
X52990650Y-45873061D01*
X54415000Y-45873061D01*
X54415000Y-46076939D01*
X54454774Y-46276898D01*
X54532795Y-46465256D01*
X54646063Y-46634774D01*
X54790226Y-46778937D01*
X54959744Y-46892205D01*
X55148102Y-46970226D01*
X55348061Y-47010000D01*
X55551939Y-47010000D01*
X55751898Y-46970226D01*
X55940256Y-46892205D01*
X56109774Y-46778937D01*
X56253937Y-46634774D01*
X56367205Y-46465256D01*
X56445226Y-46276898D01*
X56485000Y-46076939D01*
X56485000Y-45873061D01*
X56445226Y-45673102D01*
X56367205Y-45484744D01*
X56253937Y-45315226D01*
X56109774Y-45171063D01*
X55940256Y-45057795D01*
X55751898Y-44979774D01*
X55551939Y-44940000D01*
X55348061Y-44940000D01*
X55148102Y-44979774D01*
X54959744Y-45057795D01*
X54790226Y-45171063D01*
X54646063Y-45315226D01*
X54532795Y-45484744D01*
X54454774Y-45673102D01*
X54415000Y-45873061D01*
X52990650Y-45873061D01*
X53003937Y-45859774D01*
X53117205Y-45690256D01*
X53195226Y-45501898D01*
X53235000Y-45301939D01*
X53235000Y-45098061D01*
X53195226Y-44898102D01*
X53117205Y-44709744D01*
X53003937Y-44540226D01*
X52859774Y-44396063D01*
X52690256Y-44282795D01*
X52501898Y-44204774D01*
X52301939Y-44165000D01*
X52098061Y-44165000D01*
X51898102Y-44204774D01*
X51709744Y-44282795D01*
X51540226Y-44396063D01*
X51396063Y-44540226D01*
X51282795Y-44709744D01*
X51204774Y-44898102D01*
X51165000Y-45098061D01*
X32655393Y-45098061D01*
X32695226Y-45001898D01*
X32735000Y-44801939D01*
X32735000Y-44598061D01*
X32695226Y-44398102D01*
X32633880Y-44250000D01*
X32695226Y-44101898D01*
X32735000Y-43901939D01*
X32735000Y-43698061D01*
X32695226Y-43498102D01*
X32617205Y-43309744D01*
X32503937Y-43140226D01*
X32359774Y-42996063D01*
X32190256Y-42882795D01*
X32001898Y-42804774D01*
X31801939Y-42765000D01*
X31598061Y-42765000D01*
X31398102Y-42804774D01*
X31209744Y-42882795D01*
X31040226Y-42996063D01*
X30896063Y-43140226D01*
X30782795Y-43309744D01*
X30704774Y-43498102D01*
X30665000Y-43698061D01*
X20660000Y-43698061D01*
X20660000Y-40588212D01*
X34065000Y-40588212D01*
X34065000Y-40811788D01*
X34108617Y-41031067D01*
X34194176Y-41237624D01*
X34318388Y-41423520D01*
X34476480Y-41581612D01*
X34662376Y-41705824D01*
X34868933Y-41791383D01*
X35088212Y-41835000D01*
X35311788Y-41835000D01*
X35497494Y-41798061D01*
X52165000Y-41798061D01*
X52165000Y-42001939D01*
X52204774Y-42201898D01*
X52282795Y-42390256D01*
X52396063Y-42559774D01*
X52540226Y-42703937D01*
X52709744Y-42817205D01*
X52898102Y-42895226D01*
X53098061Y-42935000D01*
X53301939Y-42935000D01*
X53501898Y-42895226D01*
X53690256Y-42817205D01*
X53859774Y-42703937D01*
X54003937Y-42559774D01*
X54117205Y-42390256D01*
X54195226Y-42201898D01*
X54235000Y-42001939D01*
X54235000Y-41798061D01*
X54195226Y-41598102D01*
X54117205Y-41409744D01*
X54003937Y-41240226D01*
X53859774Y-41096063D01*
X53690256Y-40982795D01*
X53501898Y-40904774D01*
X53301939Y-40865000D01*
X53098061Y-40865000D01*
X52898102Y-40904774D01*
X52709744Y-40982795D01*
X52540226Y-41096063D01*
X52396063Y-41240226D01*
X52282795Y-41409744D01*
X52204774Y-41598102D01*
X52165000Y-41798061D01*
X35497494Y-41798061D01*
X35531067Y-41791383D01*
X35737624Y-41705824D01*
X35923520Y-41581612D01*
X36081612Y-41423520D01*
X36205824Y-41237624D01*
X36291383Y-41031067D01*
X36335000Y-40811788D01*
X36335000Y-40588212D01*
X36322041Y-40523061D01*
X54540000Y-40523061D01*
X54540000Y-40726939D01*
X54579774Y-40926898D01*
X54657795Y-41115256D01*
X54771063Y-41284774D01*
X54915226Y-41428937D01*
X55084744Y-41542205D01*
X55273102Y-41620226D01*
X55473061Y-41660000D01*
X55676939Y-41660000D01*
X55876898Y-41620226D01*
X56065256Y-41542205D01*
X56234774Y-41428937D01*
X56378937Y-41284774D01*
X56492205Y-41115256D01*
X56570226Y-40926898D01*
X56610000Y-40726939D01*
X56610000Y-40523061D01*
X56570226Y-40323102D01*
X56492205Y-40134744D01*
X56378937Y-39965226D01*
X56298711Y-39885000D01*
X56451939Y-39885000D01*
X56651898Y-39845226D01*
X56840256Y-39767205D01*
X57009774Y-39653937D01*
X57153937Y-39509774D01*
X57267205Y-39340256D01*
X57337849Y-39169708D01*
X57398061Y-39181685D01*
X57601939Y-39181685D01*
X57801898Y-39141911D01*
X57990256Y-39063890D01*
X58159774Y-38950622D01*
X58273000Y-38837396D01*
X58273000Y-46000000D01*
X58275440Y-46024776D01*
X58282667Y-46048601D01*
X58294403Y-46070557D01*
X58310197Y-46089803D01*
X58329443Y-46105597D01*
X58351399Y-46117333D01*
X58375224Y-46124560D01*
X58400000Y-46127000D01*
X63250000Y-46127000D01*
X63274776Y-46124560D01*
X63298601Y-46117333D01*
X63320557Y-46105597D01*
X63339803Y-46089803D01*
X63355597Y-46070557D01*
X63367333Y-46048601D01*
X63374560Y-46024776D01*
X63377000Y-46000000D01*
X63377000Y-45173061D01*
X84065000Y-45173061D01*
X84065000Y-45376939D01*
X84104774Y-45576898D01*
X84182795Y-45765256D01*
X84296063Y-45934774D01*
X84440226Y-46078937D01*
X84609744Y-46192205D01*
X84798102Y-46270226D01*
X84998061Y-46310000D01*
X85115000Y-46310000D01*
X85115000Y-46401939D01*
X85154774Y-46601898D01*
X85232795Y-46790256D01*
X85346063Y-46959774D01*
X85490226Y-47103937D01*
X85659744Y-47217205D01*
X85848102Y-47295226D01*
X86048061Y-47335000D01*
X86251939Y-47335000D01*
X86451898Y-47295226D01*
X86640256Y-47217205D01*
X86809774Y-47103937D01*
X86953937Y-46959774D01*
X87067205Y-46790256D01*
X87145226Y-46601898D01*
X87185000Y-46401939D01*
X87185000Y-46198061D01*
X87145226Y-45998102D01*
X87067205Y-45809744D01*
X86953937Y-45640226D01*
X86809774Y-45496063D01*
X86640256Y-45382795D01*
X86451898Y-45304774D01*
X86251939Y-45265000D01*
X86135000Y-45265000D01*
X86135000Y-45173061D01*
X86095226Y-44973102D01*
X86017205Y-44784744D01*
X85903937Y-44615226D01*
X85759774Y-44471063D01*
X85590256Y-44357795D01*
X85401898Y-44279774D01*
X85201939Y-44240000D01*
X84998061Y-44240000D01*
X84798102Y-44279774D01*
X84609744Y-44357795D01*
X84440226Y-44471063D01*
X84296063Y-44615226D01*
X84182795Y-44784744D01*
X84104774Y-44973102D01*
X84065000Y-45173061D01*
X63377000Y-45173061D01*
X63377000Y-44627000D01*
X65750000Y-44627000D01*
X65774776Y-44624560D01*
X65798601Y-44617333D01*
X65820557Y-44605597D01*
X65839803Y-44589803D01*
X65855597Y-44570557D01*
X65867333Y-44548601D01*
X65874560Y-44524776D01*
X65877000Y-44500000D01*
X65877000Y-43027000D01*
X67600000Y-43027000D01*
X67624776Y-43024560D01*
X67648601Y-43017333D01*
X67670557Y-43005597D01*
X67689803Y-42989803D01*
X67705597Y-42970557D01*
X67717333Y-42948601D01*
X67722357Y-42932040D01*
X67888061Y-42965000D01*
X68091939Y-42965000D01*
X68291898Y-42925226D01*
X68362338Y-42896049D01*
X68400226Y-42933937D01*
X68569744Y-43047205D01*
X68758102Y-43125226D01*
X68958061Y-43165000D01*
X69161939Y-43165000D01*
X69361898Y-43125226D01*
X69550256Y-43047205D01*
X69719774Y-42933937D01*
X69863937Y-42789774D01*
X69977205Y-42620256D01*
X70055226Y-42431898D01*
X70095000Y-42231939D01*
X70095000Y-42028061D01*
X70055226Y-41828102D01*
X69977205Y-41639744D01*
X69863937Y-41470226D01*
X69719774Y-41326063D01*
X69550256Y-41212795D01*
X69361898Y-41134774D01*
X69161939Y-41095000D01*
X68958061Y-41095000D01*
X68758102Y-41134774D01*
X68687662Y-41163951D01*
X68649774Y-41126063D01*
X68480256Y-41012795D01*
X68291898Y-40934774D01*
X68091939Y-40895000D01*
X67888061Y-40895000D01*
X67688102Y-40934774D01*
X67499744Y-41012795D01*
X67409641Y-41073000D01*
X63427000Y-41073000D01*
X63427000Y-38200000D01*
X63424560Y-38175224D01*
X63417333Y-38151399D01*
X63405597Y-38129443D01*
X63389803Y-38110197D01*
X63370557Y-38094403D01*
X63348601Y-38082667D01*
X63324776Y-38075440D01*
X63300000Y-38073000D01*
X58535000Y-38073000D01*
X58535000Y-38044746D01*
X58495226Y-37844787D01*
X58417205Y-37656429D01*
X58303937Y-37486911D01*
X58159774Y-37342748D01*
X57990256Y-37229480D01*
X57801898Y-37151459D01*
X57601939Y-37111685D01*
X57398061Y-37111685D01*
X57198102Y-37151459D01*
X57009744Y-37229480D01*
X56840226Y-37342748D01*
X56696063Y-37486911D01*
X56582795Y-37656429D01*
X56512151Y-37826977D01*
X56451939Y-37815000D01*
X56248061Y-37815000D01*
X56048102Y-37854774D01*
X55859744Y-37932795D01*
X55690226Y-38046063D01*
X55546063Y-38190226D01*
X55432795Y-38359744D01*
X55354774Y-38548102D01*
X55315000Y-38748061D01*
X55315000Y-38951939D01*
X55354774Y-39151898D01*
X55432795Y-39340256D01*
X55546063Y-39509774D01*
X55626289Y-39590000D01*
X55473061Y-39590000D01*
X55273102Y-39629774D01*
X55084744Y-39707795D01*
X54915226Y-39821063D01*
X54771063Y-39965226D01*
X54657795Y-40134744D01*
X54579774Y-40323102D01*
X54540000Y-40523061D01*
X36322041Y-40523061D01*
X36291383Y-40368933D01*
X36205824Y-40162376D01*
X36081612Y-39976480D01*
X35923520Y-39818388D01*
X35737624Y-39694176D01*
X35531067Y-39608617D01*
X35311788Y-39565000D01*
X35088212Y-39565000D01*
X34868933Y-39608617D01*
X34662376Y-39694176D01*
X34476480Y-39818388D01*
X34318388Y-39976480D01*
X34194176Y-40162376D01*
X34108617Y-40368933D01*
X34065000Y-40588212D01*
X20660000Y-40588212D01*
X20660000Y-38223061D01*
X31665000Y-38223061D01*
X31665000Y-38426939D01*
X31704774Y-38626898D01*
X31782795Y-38815256D01*
X31896063Y-38984774D01*
X32040226Y-39128937D01*
X32209744Y-39242205D01*
X32398102Y-39320226D01*
X32598061Y-39360000D01*
X32801939Y-39360000D01*
X33001898Y-39320226D01*
X33190256Y-39242205D01*
X33359774Y-39128937D01*
X33503937Y-38984774D01*
X33617205Y-38815256D01*
X33695226Y-38626898D01*
X33735000Y-38426939D01*
X33735000Y-38223061D01*
X33695226Y-38023102D01*
X33617205Y-37834744D01*
X33503937Y-37665226D01*
X33359774Y-37521063D01*
X33190256Y-37407795D01*
X33001898Y-37329774D01*
X32801939Y-37290000D01*
X32598061Y-37290000D01*
X32398102Y-37329774D01*
X32209744Y-37407795D01*
X32040226Y-37521063D01*
X31896063Y-37665226D01*
X31782795Y-37834744D01*
X31704774Y-38023102D01*
X31665000Y-38223061D01*
X20660000Y-38223061D01*
X20660000Y-36498061D01*
X63165000Y-36498061D01*
X63165000Y-36701939D01*
X63204774Y-36901898D01*
X63282795Y-37090256D01*
X63396063Y-37259774D01*
X63540226Y-37403937D01*
X63709744Y-37517205D01*
X63853488Y-37576746D01*
X63882761Y-37723911D01*
X63960782Y-37912269D01*
X64074050Y-38081787D01*
X64218213Y-38225950D01*
X64387731Y-38339218D01*
X64576089Y-38417239D01*
X64776048Y-38457013D01*
X64979926Y-38457013D01*
X65179885Y-38417239D01*
X65368243Y-38339218D01*
X65537761Y-38225950D01*
X65681924Y-38081787D01*
X65795192Y-37912269D01*
X65873213Y-37723911D01*
X65912987Y-37523952D01*
X65912987Y-37398061D01*
X66765000Y-37398061D01*
X66765000Y-37601939D01*
X66804774Y-37801898D01*
X66882795Y-37990256D01*
X66996063Y-38159774D01*
X67118074Y-38281785D01*
X67085000Y-38448061D01*
X67085000Y-38651939D01*
X67124774Y-38851898D01*
X67202795Y-39040256D01*
X67316063Y-39209774D01*
X67460226Y-39353937D01*
X67629744Y-39467205D01*
X67818102Y-39545226D01*
X68018061Y-39585000D01*
X68221939Y-39585000D01*
X68383091Y-39552945D01*
X68421063Y-39609774D01*
X68565226Y-39753937D01*
X68734744Y-39867205D01*
X68923102Y-39945226D01*
X69123061Y-39985000D01*
X69326939Y-39985000D01*
X69526898Y-39945226D01*
X69542363Y-39938820D01*
X69579774Y-40126898D01*
X69657795Y-40315256D01*
X69771063Y-40484774D01*
X69915226Y-40628937D01*
X70084744Y-40742205D01*
X70273102Y-40820226D01*
X70473061Y-40860000D01*
X70676939Y-40860000D01*
X70876898Y-40820226D01*
X70930408Y-40798061D01*
X71740000Y-40798061D01*
X71740000Y-41001939D01*
X71779774Y-41201898D01*
X71857795Y-41390256D01*
X71971063Y-41559774D01*
X72115226Y-41703937D01*
X72284744Y-41817205D01*
X72473102Y-41895226D01*
X72673061Y-41935000D01*
X72876939Y-41935000D01*
X73076898Y-41895226D01*
X73265256Y-41817205D01*
X73434774Y-41703937D01*
X73578937Y-41559774D01*
X73692205Y-41390256D01*
X73770226Y-41201898D01*
X73810000Y-41001939D01*
X73810000Y-40798061D01*
X73770226Y-40598102D01*
X73692205Y-40409744D01*
X73578937Y-40240226D01*
X73434774Y-40096063D01*
X73265256Y-39982795D01*
X73076898Y-39904774D01*
X72876939Y-39865000D01*
X72673061Y-39865000D01*
X72473102Y-39904774D01*
X72284744Y-39982795D01*
X72115226Y-40096063D01*
X71971063Y-40240226D01*
X71857795Y-40409744D01*
X71779774Y-40598102D01*
X71740000Y-40798061D01*
X70930408Y-40798061D01*
X71065256Y-40742205D01*
X71234774Y-40628937D01*
X71378937Y-40484774D01*
X71492205Y-40315256D01*
X71570226Y-40126898D01*
X71610000Y-39926939D01*
X71610000Y-39723061D01*
X71570226Y-39523102D01*
X71492205Y-39334744D01*
X71402173Y-39200000D01*
X91436928Y-39200000D01*
X91436928Y-40900000D01*
X91449188Y-41024482D01*
X91485498Y-41144180D01*
X91544463Y-41254494D01*
X91623815Y-41351185D01*
X91720506Y-41430537D01*
X91830820Y-41489502D01*
X91903380Y-41511513D01*
X91771525Y-41643368D01*
X91609010Y-41886589D01*
X91497068Y-42156842D01*
X91440000Y-42443740D01*
X91440000Y-42736260D01*
X91497068Y-43023158D01*
X91609010Y-43293411D01*
X91771525Y-43536632D01*
X91978368Y-43743475D01*
X92152760Y-43860000D01*
X91978368Y-43976525D01*
X91771525Y-44183368D01*
X91609010Y-44426589D01*
X91497068Y-44696842D01*
X91440000Y-44983740D01*
X91440000Y-45276260D01*
X91497068Y-45563158D01*
X91609010Y-45833411D01*
X91771525Y-46076632D01*
X91978368Y-46283475D01*
X92152760Y-46400000D01*
X91978368Y-46516525D01*
X91771525Y-46723368D01*
X91609010Y-46966589D01*
X91497068Y-47236842D01*
X91440000Y-47523740D01*
X91440000Y-47816260D01*
X91497068Y-48103158D01*
X91609010Y-48373411D01*
X91771525Y-48616632D01*
X91978368Y-48823475D01*
X92152760Y-48940000D01*
X91978368Y-49056525D01*
X91771525Y-49263368D01*
X91609010Y-49506589D01*
X91497068Y-49776842D01*
X91440000Y-50063740D01*
X91440000Y-50356260D01*
X91497068Y-50643158D01*
X91609010Y-50913411D01*
X91771525Y-51156632D01*
X91978368Y-51363475D01*
X92152760Y-51480000D01*
X91978368Y-51596525D01*
X91771525Y-51803368D01*
X91609010Y-52046589D01*
X91497068Y-52316842D01*
X91440000Y-52603740D01*
X91440000Y-52896260D01*
X91497068Y-53183158D01*
X91609010Y-53453411D01*
X91771525Y-53696632D01*
X91978368Y-53903475D01*
X92152760Y-54020000D01*
X91978368Y-54136525D01*
X91771525Y-54343368D01*
X91609010Y-54586589D01*
X91497068Y-54856842D01*
X91440000Y-55143740D01*
X91440000Y-55436260D01*
X91497068Y-55723158D01*
X91609010Y-55993411D01*
X91771525Y-56236632D01*
X91978368Y-56443475D01*
X92152760Y-56560000D01*
X91978368Y-56676525D01*
X91771525Y-56883368D01*
X91609010Y-57126589D01*
X91497068Y-57396842D01*
X91440000Y-57683740D01*
X91440000Y-57976260D01*
X91497068Y-58263158D01*
X91609010Y-58533411D01*
X91771525Y-58776632D01*
X91978368Y-58983475D01*
X92221589Y-59145990D01*
X92491842Y-59257932D01*
X92778740Y-59315000D01*
X93071260Y-59315000D01*
X93358158Y-59257932D01*
X93628411Y-59145990D01*
X93871632Y-58983475D01*
X94078475Y-58776632D01*
X94202523Y-58590981D01*
X94306525Y-58746632D01*
X94513368Y-58953475D01*
X94756589Y-59115990D01*
X95026842Y-59227932D01*
X95313740Y-59285000D01*
X95606260Y-59285000D01*
X95893158Y-59227932D01*
X96163411Y-59115990D01*
X96406632Y-58953475D01*
X96538487Y-58821620D01*
X96560498Y-58894180D01*
X96619463Y-59004494D01*
X96698815Y-59101185D01*
X96795506Y-59180537D01*
X96905820Y-59239502D01*
X97025518Y-59275812D01*
X97150000Y-59288072D01*
X97714250Y-59285000D01*
X97873000Y-59126250D01*
X97873000Y-57927000D01*
X97853000Y-57927000D01*
X97853000Y-57673000D01*
X97873000Y-57673000D01*
X97873000Y-55387000D01*
X97853000Y-55387000D01*
X97853000Y-55133000D01*
X97873000Y-55133000D01*
X97873000Y-52847000D01*
X97853000Y-52847000D01*
X97853000Y-52593000D01*
X97873000Y-52593000D01*
X97873000Y-50307000D01*
X97853000Y-50307000D01*
X97853000Y-50053000D01*
X97873000Y-50053000D01*
X97873000Y-47767000D01*
X97853000Y-47767000D01*
X97853000Y-47513000D01*
X97873000Y-47513000D01*
X97873000Y-45227000D01*
X97853000Y-45227000D01*
X97853000Y-44973000D01*
X97873000Y-44973000D01*
X97873000Y-42687000D01*
X97853000Y-42687000D01*
X97853000Y-42433000D01*
X97873000Y-42433000D01*
X97873000Y-40147000D01*
X97853000Y-40147000D01*
X97853000Y-39893000D01*
X97873000Y-39893000D01*
X97873000Y-38699186D01*
X97643109Y-38578519D01*
X97368748Y-38675843D01*
X97118645Y-38824822D01*
X96902412Y-39019731D01*
X96731100Y-39249406D01*
X96613475Y-39073368D01*
X96406632Y-38866525D01*
X96163411Y-38704010D01*
X95893158Y-38592068D01*
X95606260Y-38535000D01*
X95313740Y-38535000D01*
X95026842Y-38592068D01*
X94756589Y-38704010D01*
X94513368Y-38866525D01*
X94378367Y-39001526D01*
X94364502Y-38955820D01*
X94305537Y-38845506D01*
X94226185Y-38748815D01*
X94129494Y-38669463D01*
X94019180Y-38610498D01*
X93899482Y-38574188D01*
X93775000Y-38561928D01*
X92075000Y-38561928D01*
X91950518Y-38574188D01*
X91830820Y-38610498D01*
X91720506Y-38669463D01*
X91623815Y-38748815D01*
X91544463Y-38845506D01*
X91485498Y-38955820D01*
X91449188Y-39075518D01*
X91436928Y-39200000D01*
X71402173Y-39200000D01*
X71378937Y-39165226D01*
X71234774Y-39021063D01*
X71065256Y-38907795D01*
X70876898Y-38829774D01*
X70676939Y-38790000D01*
X70473061Y-38790000D01*
X70273102Y-38829774D01*
X70257637Y-38836180D01*
X70220226Y-38648102D01*
X70142205Y-38459744D01*
X70028937Y-38290226D01*
X69884774Y-38146063D01*
X69715256Y-38032795D01*
X69526898Y-37954774D01*
X69326939Y-37915000D01*
X69123061Y-37915000D01*
X68961909Y-37947055D01*
X68923937Y-37890226D01*
X68801926Y-37768215D01*
X68835000Y-37601939D01*
X68835000Y-37398061D01*
X68795226Y-37198102D01*
X68717205Y-37009744D01*
X68603937Y-36840226D01*
X68521366Y-36757655D01*
X68609744Y-36816707D01*
X68798102Y-36894728D01*
X68998061Y-36934502D01*
X69201939Y-36934502D01*
X69401898Y-36894728D01*
X69590256Y-36816707D01*
X69759774Y-36703439D01*
X69903937Y-36559276D01*
X70017205Y-36389758D01*
X70095226Y-36201400D01*
X70120754Y-36073061D01*
X70565000Y-36073061D01*
X70565000Y-36276939D01*
X70604774Y-36476898D01*
X70682795Y-36665256D01*
X70796063Y-36834774D01*
X70940226Y-36978937D01*
X71109744Y-37092205D01*
X71298102Y-37170226D01*
X71498061Y-37210000D01*
X71701939Y-37210000D01*
X71901898Y-37170226D01*
X72090256Y-37092205D01*
X72259774Y-36978937D01*
X72403937Y-36834774D01*
X72517205Y-36665256D01*
X72595226Y-36476898D01*
X72630798Y-36298061D01*
X75465000Y-36298061D01*
X75465000Y-36501939D01*
X75504774Y-36701898D01*
X75582795Y-36890256D01*
X75696063Y-37059774D01*
X75840226Y-37203937D01*
X76009744Y-37317205D01*
X76198102Y-37395226D01*
X76398061Y-37435000D01*
X76601939Y-37435000D01*
X76801898Y-37395226D01*
X76990256Y-37317205D01*
X77100000Y-37243877D01*
X77209744Y-37317205D01*
X77398102Y-37395226D01*
X77598061Y-37435000D01*
X77801939Y-37435000D01*
X78001898Y-37395226D01*
X78190256Y-37317205D01*
X78359774Y-37203937D01*
X78503937Y-37059774D01*
X78617205Y-36890256D01*
X78695226Y-36701898D01*
X78735000Y-36501939D01*
X78735000Y-36298061D01*
X78695226Y-36098102D01*
X78617205Y-35909744D01*
X78503937Y-35740226D01*
X78359774Y-35596063D01*
X78190256Y-35482795D01*
X78001898Y-35404774D01*
X77801939Y-35365000D01*
X77598061Y-35365000D01*
X77398102Y-35404774D01*
X77209744Y-35482795D01*
X77100000Y-35556123D01*
X76990256Y-35482795D01*
X76801898Y-35404774D01*
X76601939Y-35365000D01*
X76398061Y-35365000D01*
X76198102Y-35404774D01*
X76009744Y-35482795D01*
X75840226Y-35596063D01*
X75696063Y-35740226D01*
X75582795Y-35909744D01*
X75504774Y-36098102D01*
X75465000Y-36298061D01*
X72630798Y-36298061D01*
X72635000Y-36276939D01*
X72635000Y-36073061D01*
X72595226Y-35873102D01*
X72517205Y-35684744D01*
X72403937Y-35515226D01*
X72259774Y-35371063D01*
X72090256Y-35257795D01*
X71901898Y-35179774D01*
X71701939Y-35140000D01*
X71498061Y-35140000D01*
X71298102Y-35179774D01*
X71109744Y-35257795D01*
X70940226Y-35371063D01*
X70796063Y-35515226D01*
X70682795Y-35684744D01*
X70604774Y-35873102D01*
X70565000Y-36073061D01*
X70120754Y-36073061D01*
X70135000Y-36001441D01*
X70135000Y-35797563D01*
X70095226Y-35597604D01*
X70017205Y-35409246D01*
X69903937Y-35239728D01*
X69759774Y-35095565D01*
X69590256Y-34982297D01*
X69401898Y-34904276D01*
X69201939Y-34864502D01*
X68998061Y-34864502D01*
X68798102Y-34904276D01*
X68609744Y-34982297D01*
X68440226Y-35095565D01*
X68296063Y-35239728D01*
X68182795Y-35409246D01*
X68104774Y-35597604D01*
X68065000Y-35797563D01*
X68065000Y-36001441D01*
X68104774Y-36201400D01*
X68182795Y-36389758D01*
X68296063Y-36559276D01*
X68378634Y-36641847D01*
X68290256Y-36582795D01*
X68101898Y-36504774D01*
X67901939Y-36465000D01*
X67698061Y-36465000D01*
X67498102Y-36504774D01*
X67309744Y-36582795D01*
X67140226Y-36696063D01*
X66996063Y-36840226D01*
X66882795Y-37009744D01*
X66804774Y-37198102D01*
X66765000Y-37398061D01*
X65912987Y-37398061D01*
X65912987Y-37320074D01*
X65873213Y-37120115D01*
X65795192Y-36931757D01*
X65681924Y-36762239D01*
X65537761Y-36618076D01*
X65368243Y-36504808D01*
X65224499Y-36445267D01*
X65195226Y-36298102D01*
X65117205Y-36109744D01*
X65003937Y-35940226D01*
X64859774Y-35796063D01*
X64690256Y-35682795D01*
X64501898Y-35604774D01*
X64301939Y-35565000D01*
X64098061Y-35565000D01*
X63898102Y-35604774D01*
X63709744Y-35682795D01*
X63540226Y-35796063D01*
X63396063Y-35940226D01*
X63282795Y-36109744D01*
X63204774Y-36298102D01*
X63165000Y-36498061D01*
X20660000Y-36498061D01*
X20660000Y-34275000D01*
X92886928Y-34275000D01*
X92886928Y-36675000D01*
X92899188Y-36799482D01*
X92935498Y-36919180D01*
X92994463Y-37029494D01*
X93073815Y-37126185D01*
X93170506Y-37205537D01*
X93280820Y-37264502D01*
X93400518Y-37300812D01*
X93525000Y-37313072D01*
X95925000Y-37313072D01*
X96049482Y-37300812D01*
X96169180Y-37264502D01*
X96279494Y-37205537D01*
X96376185Y-37126185D01*
X96455537Y-37029494D01*
X96514502Y-36919180D01*
X96550812Y-36799482D01*
X96563072Y-36675000D01*
X96563072Y-34275000D01*
X96550812Y-34150518D01*
X96514502Y-34030820D01*
X96455537Y-33920506D01*
X96376185Y-33823815D01*
X96279494Y-33744463D01*
X96169180Y-33685498D01*
X96049482Y-33649188D01*
X95925000Y-33636928D01*
X95518097Y-33636928D01*
X95703486Y-33537836D01*
X95823374Y-33252980D01*
X94725000Y-32154605D01*
X93626626Y-33252980D01*
X93746514Y-33537836D01*
X93945912Y-33636928D01*
X93525000Y-33636928D01*
X93400518Y-33649188D01*
X93280820Y-33685498D01*
X93170506Y-33744463D01*
X93073815Y-33823815D01*
X92994463Y-33920506D01*
X92935498Y-34030820D01*
X92899188Y-34150518D01*
X92886928Y-34275000D01*
X20660000Y-34275000D01*
X20660000Y-32998061D01*
X62440000Y-32998061D01*
X62440000Y-33201939D01*
X62479774Y-33401898D01*
X62557795Y-33590256D01*
X62671063Y-33759774D01*
X62815226Y-33903937D01*
X62984744Y-34017205D01*
X63173102Y-34095226D01*
X63373061Y-34135000D01*
X63576939Y-34135000D01*
X63776898Y-34095226D01*
X63962500Y-34018347D01*
X64148102Y-34095226D01*
X64348061Y-34135000D01*
X64551939Y-34135000D01*
X64751898Y-34095226D01*
X64940256Y-34017205D01*
X65109774Y-33903937D01*
X65253937Y-33759774D01*
X65367205Y-33590256D01*
X65445226Y-33401898D01*
X65485000Y-33201939D01*
X65485000Y-32998061D01*
X65479033Y-32968061D01*
X80765000Y-32968061D01*
X80765000Y-33171939D01*
X80804774Y-33371898D01*
X80882795Y-33560256D01*
X80996063Y-33729774D01*
X81140226Y-33873937D01*
X81309744Y-33987205D01*
X81498102Y-34065226D01*
X81698061Y-34105000D01*
X81901939Y-34105000D01*
X82101898Y-34065226D01*
X82290256Y-33987205D01*
X82459774Y-33873937D01*
X82603937Y-33729774D01*
X82717205Y-33560256D01*
X82795226Y-33371898D01*
X82835000Y-33171939D01*
X82835000Y-32968061D01*
X82795226Y-32768102D01*
X82717205Y-32579744D01*
X82603937Y-32410226D01*
X82459774Y-32266063D01*
X82290256Y-32152795D01*
X82101898Y-32074774D01*
X81901939Y-32035000D01*
X81698061Y-32035000D01*
X81498102Y-32074774D01*
X81309744Y-32152795D01*
X81140226Y-32266063D01*
X80996063Y-32410226D01*
X80882795Y-32579744D01*
X80804774Y-32768102D01*
X80765000Y-32968061D01*
X65479033Y-32968061D01*
X65445226Y-32798102D01*
X65367205Y-32609744D01*
X65253937Y-32440226D01*
X65109774Y-32296063D01*
X64940256Y-32182795D01*
X64751898Y-32104774D01*
X64551939Y-32065000D01*
X64348061Y-32065000D01*
X64148102Y-32104774D01*
X63962500Y-32181653D01*
X63776898Y-32104774D01*
X63576939Y-32065000D01*
X63373061Y-32065000D01*
X63173102Y-32104774D01*
X62984744Y-32182795D01*
X62815226Y-32296063D01*
X62671063Y-32440226D01*
X62557795Y-32609744D01*
X62479774Y-32798102D01*
X62440000Y-32998061D01*
X20660000Y-32998061D01*
X20660000Y-32029684D01*
X92881933Y-32029684D01*
X92928015Y-32388198D01*
X93043154Y-32730833D01*
X93162164Y-32953486D01*
X93447020Y-33073374D01*
X94545395Y-31975000D01*
X94904605Y-31975000D01*
X96002980Y-33073374D01*
X96287836Y-32953486D01*
X96448699Y-32629790D01*
X96543322Y-32280931D01*
X96568067Y-31920316D01*
X96521985Y-31561802D01*
X96406846Y-31219167D01*
X96287836Y-30996514D01*
X96002980Y-30876626D01*
X94904605Y-31975000D01*
X94545395Y-31975000D01*
X93447020Y-30876626D01*
X93162164Y-30996514D01*
X93001301Y-31320210D01*
X92906678Y-31669069D01*
X92881933Y-32029684D01*
X20660000Y-32029684D01*
X20660000Y-30778061D01*
X66575000Y-30778061D01*
X66575000Y-30981939D01*
X66614774Y-31181898D01*
X66692795Y-31370256D01*
X66806063Y-31539774D01*
X66950226Y-31683937D01*
X67119744Y-31797205D01*
X67308102Y-31875226D01*
X67508061Y-31915000D01*
X67711939Y-31915000D01*
X67911898Y-31875226D01*
X68100256Y-31797205D01*
X68269774Y-31683937D01*
X68413937Y-31539774D01*
X68527205Y-31370256D01*
X68605226Y-31181898D01*
X68645000Y-30981939D01*
X68645000Y-30778061D01*
X68605226Y-30578102D01*
X68527205Y-30389744D01*
X68413937Y-30220226D01*
X68269774Y-30076063D01*
X68100256Y-29962795D01*
X67911898Y-29884774D01*
X67711939Y-29845000D01*
X67508061Y-29845000D01*
X67308102Y-29884774D01*
X67119744Y-29962795D01*
X66950226Y-30076063D01*
X66806063Y-30220226D01*
X66692795Y-30389744D01*
X66614774Y-30578102D01*
X66575000Y-30778061D01*
X20660000Y-30778061D01*
X20660000Y-28482818D01*
X21696787Y-28482818D01*
X22188946Y-29085149D01*
X23039933Y-29555063D01*
X23966243Y-29849929D01*
X24932281Y-29958414D01*
X25900921Y-29876351D01*
X26834938Y-29606893D01*
X27698440Y-29160394D01*
X27811054Y-29085149D01*
X28303213Y-28482818D01*
X25000000Y-25179605D01*
X21696787Y-28482818D01*
X20660000Y-28482818D01*
X20660000Y-27351093D01*
X20839606Y-27698440D01*
X20914851Y-27811054D01*
X21517182Y-28303213D01*
X24820395Y-25000000D01*
X25179605Y-25000000D01*
X28482818Y-28303213D01*
X28854102Y-27999840D01*
X28892307Y-28092074D01*
X29029099Y-28296798D01*
X29203202Y-28470901D01*
X29407926Y-28607693D01*
X29635402Y-28701917D01*
X29876890Y-28749952D01*
X30123110Y-28749952D01*
X30364598Y-28701917D01*
X30592074Y-28607693D01*
X30796798Y-28470901D01*
X30970901Y-28296798D01*
X31107693Y-28092074D01*
X31201917Y-27864598D01*
X31244988Y-27648061D01*
X56215000Y-27648061D01*
X56215000Y-27851939D01*
X56254774Y-28051898D01*
X56332795Y-28240256D01*
X56446063Y-28409774D01*
X56590226Y-28553937D01*
X56759744Y-28667205D01*
X56948102Y-28745226D01*
X57148061Y-28785000D01*
X57351939Y-28785000D01*
X57551898Y-28745226D01*
X57665763Y-28698061D01*
X70665000Y-28698061D01*
X70665000Y-28901939D01*
X70704774Y-29101898D01*
X70782795Y-29290256D01*
X70896063Y-29459774D01*
X71040226Y-29603937D01*
X71209744Y-29717205D01*
X71398102Y-29795226D01*
X71598061Y-29835000D01*
X71765000Y-29835000D01*
X71765000Y-30001939D01*
X71804774Y-30201898D01*
X71882795Y-30390256D01*
X71996063Y-30559774D01*
X72140226Y-30703937D01*
X72309744Y-30817205D01*
X72498102Y-30895226D01*
X72698061Y-30935000D01*
X72901939Y-30935000D01*
X73101898Y-30895226D01*
X73290256Y-30817205D01*
X73459774Y-30703937D01*
X73603937Y-30559774D01*
X73711989Y-30398061D01*
X80315000Y-30398061D01*
X80315000Y-30601939D01*
X80354774Y-30801898D01*
X80432795Y-30990256D01*
X80546063Y-31159774D01*
X80690226Y-31303937D01*
X80859744Y-31417205D01*
X81048102Y-31495226D01*
X81248061Y-31535000D01*
X81451939Y-31535000D01*
X81651898Y-31495226D01*
X81840256Y-31417205D01*
X82009774Y-31303937D01*
X82153937Y-31159774D01*
X82267205Y-30990256D01*
X82345226Y-30801898D01*
X82385000Y-30601939D01*
X82385000Y-30398061D01*
X82365109Y-30298061D01*
X82465000Y-30298061D01*
X82465000Y-30501939D01*
X82504774Y-30701898D01*
X82582795Y-30890256D01*
X82696063Y-31059774D01*
X82840226Y-31203937D01*
X83009744Y-31317205D01*
X83198102Y-31395226D01*
X83398061Y-31435000D01*
X83601939Y-31435000D01*
X83801898Y-31395226D01*
X83990256Y-31317205D01*
X84159774Y-31203937D01*
X84303937Y-31059774D01*
X84417205Y-30890256D01*
X84495226Y-30701898D01*
X84496196Y-30697020D01*
X93626626Y-30697020D01*
X94725000Y-31795395D01*
X95823374Y-30697020D01*
X95703486Y-30412164D01*
X95379790Y-30251301D01*
X95030931Y-30156678D01*
X94670316Y-30131933D01*
X94311802Y-30178015D01*
X93969167Y-30293154D01*
X93746514Y-30412164D01*
X93626626Y-30697020D01*
X84496196Y-30697020D01*
X84535000Y-30501939D01*
X84535000Y-30298061D01*
X84495226Y-30098102D01*
X84417205Y-29909744D01*
X84303937Y-29740226D01*
X84159774Y-29596063D01*
X83990256Y-29482795D01*
X83801898Y-29404774D01*
X83601939Y-29365000D01*
X83398061Y-29365000D01*
X83198102Y-29404774D01*
X83009744Y-29482795D01*
X82840226Y-29596063D01*
X82696063Y-29740226D01*
X82582795Y-29909744D01*
X82504774Y-30098102D01*
X82465000Y-30298061D01*
X82365109Y-30298061D01*
X82345226Y-30198102D01*
X82267205Y-30009744D01*
X82153937Y-29840226D01*
X82009774Y-29696063D01*
X81840256Y-29582795D01*
X81651898Y-29504774D01*
X81451939Y-29465000D01*
X81248061Y-29465000D01*
X81048102Y-29504774D01*
X80859744Y-29582795D01*
X80690226Y-29696063D01*
X80546063Y-29840226D01*
X80432795Y-30009744D01*
X80354774Y-30198102D01*
X80315000Y-30398061D01*
X73711989Y-30398061D01*
X73717205Y-30390256D01*
X73795226Y-30201898D01*
X73835000Y-30001939D01*
X73835000Y-29798061D01*
X73795226Y-29598102D01*
X73717205Y-29409744D01*
X73603937Y-29240226D01*
X73459774Y-29096063D01*
X73290256Y-28982795D01*
X73101898Y-28904774D01*
X72901939Y-28865000D01*
X72735000Y-28865000D01*
X72735000Y-28698061D01*
X72695226Y-28498102D01*
X72617205Y-28309744D01*
X72503937Y-28140226D01*
X72359774Y-27996063D01*
X72190256Y-27882795D01*
X72001898Y-27804774D01*
X71801939Y-27765000D01*
X71598061Y-27765000D01*
X71398102Y-27804774D01*
X71209744Y-27882795D01*
X71040226Y-27996063D01*
X70896063Y-28140226D01*
X70782795Y-28309744D01*
X70704774Y-28498102D01*
X70665000Y-28698061D01*
X57665763Y-28698061D01*
X57740256Y-28667205D01*
X57909774Y-28553937D01*
X58053937Y-28409774D01*
X58167205Y-28240256D01*
X58245226Y-28051898D01*
X58285000Y-27851939D01*
X58285000Y-27648061D01*
X58245226Y-27448102D01*
X58167205Y-27259744D01*
X58053937Y-27090226D01*
X57909774Y-26946063D01*
X57740256Y-26832795D01*
X57551898Y-26754774D01*
X57351939Y-26715000D01*
X57148061Y-26715000D01*
X56948102Y-26754774D01*
X56759744Y-26832795D01*
X56590226Y-26946063D01*
X56446063Y-27090226D01*
X56332795Y-27259744D01*
X56254774Y-27448102D01*
X56215000Y-27648061D01*
X31244988Y-27648061D01*
X31249952Y-27623110D01*
X31249952Y-27376890D01*
X31201917Y-27135402D01*
X31107693Y-26907926D01*
X30970901Y-26703202D01*
X30796798Y-26529099D01*
X30592074Y-26392307D01*
X30582188Y-26388212D01*
X85615000Y-26388212D01*
X85615000Y-26611788D01*
X85658617Y-26831067D01*
X85744176Y-27037624D01*
X85868388Y-27223520D01*
X86026480Y-27381612D01*
X86072707Y-27412500D01*
X86026480Y-27443388D01*
X85868388Y-27601480D01*
X85744176Y-27787376D01*
X85658617Y-27993933D01*
X85615000Y-28213212D01*
X85615000Y-28436788D01*
X85658617Y-28656067D01*
X85744176Y-28862624D01*
X85868388Y-29048520D01*
X86026480Y-29206612D01*
X86212376Y-29330824D01*
X86418933Y-29416383D01*
X86638212Y-29460000D01*
X86861788Y-29460000D01*
X87081067Y-29416383D01*
X87287624Y-29330824D01*
X87473520Y-29206612D01*
X87631612Y-29048520D01*
X87755824Y-28862624D01*
X87841383Y-28656067D01*
X87875844Y-28482818D01*
X91696787Y-28482818D01*
X92188946Y-29085149D01*
X93039933Y-29555063D01*
X93966243Y-29849929D01*
X94932281Y-29958414D01*
X95900921Y-29876351D01*
X96834938Y-29606893D01*
X97698440Y-29160394D01*
X97811054Y-29085149D01*
X98303213Y-28482818D01*
X95000000Y-25179605D01*
X91696787Y-28482818D01*
X87875844Y-28482818D01*
X87885000Y-28436788D01*
X87885000Y-28213212D01*
X87841383Y-27993933D01*
X87755824Y-27787376D01*
X87631612Y-27601480D01*
X87628364Y-27598232D01*
X87813212Y-27635000D01*
X88036788Y-27635000D01*
X88256067Y-27591383D01*
X88462624Y-27505824D01*
X88648520Y-27381612D01*
X88806612Y-27223520D01*
X88930824Y-27037624D01*
X89016383Y-26831067D01*
X89060000Y-26611788D01*
X89060000Y-26388212D01*
X89016383Y-26168933D01*
X88930824Y-25962376D01*
X88806612Y-25776480D01*
X88648520Y-25618388D01*
X88462624Y-25494176D01*
X88256067Y-25408617D01*
X88036788Y-25365000D01*
X87813212Y-25365000D01*
X87593933Y-25408617D01*
X87387376Y-25494176D01*
X87337500Y-25527502D01*
X87287624Y-25494176D01*
X87081067Y-25408617D01*
X86861788Y-25365000D01*
X86638212Y-25365000D01*
X86418933Y-25408617D01*
X86212376Y-25494176D01*
X86026480Y-25618388D01*
X85868388Y-25776480D01*
X85744176Y-25962376D01*
X85658617Y-26168933D01*
X85615000Y-26388212D01*
X30582188Y-26388212D01*
X30364598Y-26298083D01*
X30123110Y-26250048D01*
X29876890Y-26250048D01*
X29774602Y-26270394D01*
X29849929Y-26033757D01*
X29958414Y-25067719D01*
X29899140Y-24368061D01*
X58335000Y-24368061D01*
X58335000Y-24571939D01*
X58374774Y-24771898D01*
X58452795Y-24960256D01*
X58566063Y-25129774D01*
X58710226Y-25273937D01*
X58879744Y-25387205D01*
X59068102Y-25465226D01*
X59268061Y-25505000D01*
X59471939Y-25505000D01*
X59671898Y-25465226D01*
X59860256Y-25387205D01*
X60029774Y-25273937D01*
X60173937Y-25129774D01*
X60287205Y-24960256D01*
X60288051Y-24958212D01*
X65325000Y-24958212D01*
X65325000Y-25181788D01*
X65368617Y-25401067D01*
X65454176Y-25607624D01*
X65578388Y-25793520D01*
X65736480Y-25951612D01*
X65922376Y-26075824D01*
X66128933Y-26161383D01*
X66348212Y-26205000D01*
X66571788Y-26205000D01*
X66791067Y-26161383D01*
X66997624Y-26075824D01*
X67095000Y-26010759D01*
X67192376Y-26075824D01*
X67398933Y-26161383D01*
X67618212Y-26205000D01*
X67841788Y-26205000D01*
X68061067Y-26161383D01*
X68267624Y-26075824D01*
X68365000Y-26010759D01*
X68462376Y-26075824D01*
X68668933Y-26161383D01*
X68888212Y-26205000D01*
X69111788Y-26205000D01*
X69331067Y-26161383D01*
X69537624Y-26075824D01*
X69635000Y-26010759D01*
X69732376Y-26075824D01*
X69938933Y-26161383D01*
X70158212Y-26205000D01*
X70381788Y-26205000D01*
X70601067Y-26161383D01*
X70807624Y-26075824D01*
X70905000Y-26010759D01*
X71002376Y-26075824D01*
X71208933Y-26161383D01*
X71428212Y-26205000D01*
X71651788Y-26205000D01*
X71871067Y-26161383D01*
X72077624Y-26075824D01*
X72263520Y-25951612D01*
X72421612Y-25793520D01*
X72545824Y-25607624D01*
X72631383Y-25401067D01*
X72675000Y-25181788D01*
X72675000Y-24958212D01*
X72669843Y-24932281D01*
X90041586Y-24932281D01*
X90123649Y-25900921D01*
X90393107Y-26834938D01*
X90839606Y-27698440D01*
X90914851Y-27811054D01*
X91517182Y-28303213D01*
X94820395Y-25000000D01*
X91517182Y-21696787D01*
X90914851Y-22188946D01*
X90444937Y-23039933D01*
X90150071Y-23966243D01*
X90041586Y-24932281D01*
X72669843Y-24932281D01*
X72631383Y-24738933D01*
X72585112Y-24627226D01*
X72629502Y-24544180D01*
X72665812Y-24424482D01*
X72678072Y-24300000D01*
X72678072Y-23300000D01*
X72665812Y-23175518D01*
X72629502Y-23055820D01*
X72570537Y-22945506D01*
X72491185Y-22848815D01*
X72394494Y-22769463D01*
X72284180Y-22710498D01*
X72164482Y-22674188D01*
X72040000Y-22661928D01*
X71040000Y-22661928D01*
X70915518Y-22674188D01*
X70795820Y-22710498D01*
X70706820Y-22758070D01*
X70626864Y-22722554D01*
X70571874Y-22705881D01*
X70397000Y-22832046D01*
X70397000Y-23673000D01*
X70401928Y-23673000D01*
X70401928Y-23927000D01*
X70397000Y-23927000D01*
X70397000Y-23938026D01*
X70381788Y-23935000D01*
X70158212Y-23935000D01*
X70143000Y-23938026D01*
X70143000Y-23927000D01*
X69127000Y-23927000D01*
X69127000Y-23938026D01*
X69111788Y-23935000D01*
X68888212Y-23935000D01*
X68873000Y-23938026D01*
X68873000Y-23927000D01*
X68861974Y-23927000D01*
X68865000Y-23911788D01*
X68865000Y-23688212D01*
X68861974Y-23673000D01*
X68873000Y-23673000D01*
X68873000Y-22832046D01*
X69127000Y-22832046D01*
X69127000Y-23673000D01*
X70143000Y-23673000D01*
X70143000Y-22832046D01*
X69968126Y-22705881D01*
X69913136Y-22722554D01*
X69709794Y-22812877D01*
X69635000Y-22865639D01*
X69560206Y-22812877D01*
X69356864Y-22722554D01*
X69301874Y-22705881D01*
X69127000Y-22832046D01*
X68873000Y-22832046D01*
X68698126Y-22705881D01*
X68643136Y-22722554D01*
X68439794Y-22812877D01*
X68369658Y-22862353D01*
X68267624Y-22794176D01*
X68061067Y-22708617D01*
X67841788Y-22665000D01*
X67618212Y-22665000D01*
X67398933Y-22708617D01*
X67192376Y-22794176D01*
X67090342Y-22862353D01*
X67020206Y-22812877D01*
X66816864Y-22722554D01*
X66761874Y-22705881D01*
X66587000Y-22832046D01*
X66587000Y-23673000D01*
X66598026Y-23673000D01*
X66595000Y-23688212D01*
X66595000Y-23911788D01*
X66598026Y-23927000D01*
X66587000Y-23927000D01*
X66587000Y-23938026D01*
X66571788Y-23935000D01*
X66348212Y-23935000D01*
X66333000Y-23938026D01*
X66333000Y-23927000D01*
X65490871Y-23927000D01*
X65365874Y-24101876D01*
X65445790Y-24309529D01*
X65522256Y-24430488D01*
X65454176Y-24532376D01*
X65368617Y-24738933D01*
X65325000Y-24958212D01*
X60288051Y-24958212D01*
X60365226Y-24771898D01*
X60405000Y-24571939D01*
X60405000Y-24368061D01*
X60365226Y-24168102D01*
X60287205Y-23979744D01*
X60173937Y-23810226D01*
X60029774Y-23666063D01*
X59860256Y-23552795D01*
X59728270Y-23498124D01*
X65365874Y-23498124D01*
X65490871Y-23673000D01*
X66333000Y-23673000D01*
X66333000Y-22832046D01*
X66158126Y-22705881D01*
X66103136Y-22722554D01*
X65899794Y-22812877D01*
X65717980Y-22941135D01*
X65564682Y-23102399D01*
X65445790Y-23290471D01*
X65365874Y-23498124D01*
X59728270Y-23498124D01*
X59671898Y-23474774D01*
X59471939Y-23435000D01*
X59268061Y-23435000D01*
X59068102Y-23474774D01*
X58879744Y-23552795D01*
X58710226Y-23666063D01*
X58566063Y-23810226D01*
X58452795Y-23979744D01*
X58374774Y-24168102D01*
X58335000Y-24368061D01*
X29899140Y-24368061D01*
X29877040Y-24107213D01*
X29912376Y-24130824D01*
X30118933Y-24216383D01*
X30338212Y-24260000D01*
X30561788Y-24260000D01*
X30781067Y-24216383D01*
X30987624Y-24130824D01*
X31173520Y-24006612D01*
X31331612Y-23848520D01*
X31455824Y-23662624D01*
X31541383Y-23456067D01*
X31585000Y-23236788D01*
X31585000Y-23013212D01*
X33365000Y-23013212D01*
X33365000Y-23236788D01*
X33408617Y-23456067D01*
X33494176Y-23662624D01*
X33618388Y-23848520D01*
X33776480Y-24006612D01*
X33962376Y-24130824D01*
X34168933Y-24216383D01*
X34388212Y-24260000D01*
X34611788Y-24260000D01*
X34831067Y-24216383D01*
X35037624Y-24130824D01*
X35223520Y-24006612D01*
X35381612Y-23848520D01*
X35505824Y-23662624D01*
X35591383Y-23456067D01*
X35635000Y-23236788D01*
X35635000Y-23013212D01*
X37590000Y-23013212D01*
X37590000Y-23236788D01*
X37633617Y-23456067D01*
X37719176Y-23662624D01*
X37843388Y-23848520D01*
X38001480Y-24006612D01*
X38187376Y-24130824D01*
X38393933Y-24216383D01*
X38613212Y-24260000D01*
X38836788Y-24260000D01*
X39056067Y-24216383D01*
X39262624Y-24130824D01*
X39448520Y-24006612D01*
X39606612Y-23848520D01*
X39730824Y-23662624D01*
X39816383Y-23456067D01*
X39860000Y-23236788D01*
X39860000Y-23013212D01*
X41790000Y-23013212D01*
X41790000Y-23236788D01*
X41833617Y-23456067D01*
X41919176Y-23662624D01*
X42043388Y-23848520D01*
X42201480Y-24006612D01*
X42387376Y-24130824D01*
X42593933Y-24216383D01*
X42813212Y-24260000D01*
X43036788Y-24260000D01*
X43256067Y-24216383D01*
X43462624Y-24130824D01*
X43648520Y-24006612D01*
X43806612Y-23848520D01*
X43930824Y-23662624D01*
X44016383Y-23456067D01*
X44060000Y-23236788D01*
X44060000Y-23013212D01*
X45990000Y-23013212D01*
X45990000Y-23236788D01*
X46033617Y-23456067D01*
X46119176Y-23662624D01*
X46243388Y-23848520D01*
X46401480Y-24006612D01*
X46587376Y-24130824D01*
X46793933Y-24216383D01*
X47013212Y-24260000D01*
X47236788Y-24260000D01*
X47456067Y-24216383D01*
X47662624Y-24130824D01*
X47848520Y-24006612D01*
X48006612Y-23848520D01*
X48130824Y-23662624D01*
X48216383Y-23456067D01*
X48260000Y-23236788D01*
X48260000Y-23013212D01*
X48216383Y-22793933D01*
X48130824Y-22587376D01*
X48006612Y-22401480D01*
X47848520Y-22243388D01*
X47731649Y-22165297D01*
X55640000Y-22165297D01*
X55640000Y-22334703D01*
X55673049Y-22500853D01*
X55737878Y-22657363D01*
X55831995Y-22798218D01*
X55951782Y-22918005D01*
X56092637Y-23012122D01*
X56249147Y-23076951D01*
X56415297Y-23110000D01*
X56584703Y-23110000D01*
X56750853Y-23076951D01*
X56907363Y-23012122D01*
X57048218Y-22918005D01*
X57168005Y-22798218D01*
X57262122Y-22657363D01*
X57326951Y-22500853D01*
X57360000Y-22334703D01*
X57360000Y-22165297D01*
X58640000Y-22165297D01*
X58640000Y-22334703D01*
X58673049Y-22500853D01*
X58737878Y-22657363D01*
X58831995Y-22798218D01*
X58951782Y-22918005D01*
X59092637Y-23012122D01*
X59249147Y-23076951D01*
X59415297Y-23110000D01*
X59584703Y-23110000D01*
X59750853Y-23076951D01*
X59907363Y-23012122D01*
X60048218Y-22918005D01*
X60168005Y-22798218D01*
X60262122Y-22657363D01*
X60326951Y-22500853D01*
X60360000Y-22334703D01*
X60360000Y-22165297D01*
X60326951Y-21999147D01*
X60262122Y-21842637D01*
X60168005Y-21701782D01*
X60048218Y-21581995D01*
X59907363Y-21487878D01*
X59750853Y-21423049D01*
X59584703Y-21390000D01*
X59415297Y-21390000D01*
X59249147Y-21423049D01*
X59092637Y-21487878D01*
X58951782Y-21581995D01*
X58831995Y-21701782D01*
X58737878Y-21842637D01*
X58673049Y-21999147D01*
X58640000Y-22165297D01*
X57360000Y-22165297D01*
X57326951Y-21999147D01*
X57262122Y-21842637D01*
X57168005Y-21701782D01*
X57048218Y-21581995D01*
X56907363Y-21487878D01*
X56750853Y-21423049D01*
X56584703Y-21390000D01*
X56415297Y-21390000D01*
X56249147Y-21423049D01*
X56092637Y-21487878D01*
X55951782Y-21581995D01*
X55831995Y-21701782D01*
X55737878Y-21842637D01*
X55673049Y-21999147D01*
X55640000Y-22165297D01*
X47731649Y-22165297D01*
X47662624Y-22119176D01*
X47456067Y-22033617D01*
X47236788Y-21990000D01*
X47013212Y-21990000D01*
X46793933Y-22033617D01*
X46587376Y-22119176D01*
X46401480Y-22243388D01*
X46243388Y-22401480D01*
X46119176Y-22587376D01*
X46033617Y-22793933D01*
X45990000Y-23013212D01*
X44060000Y-23013212D01*
X44016383Y-22793933D01*
X43930824Y-22587376D01*
X43806612Y-22401480D01*
X43648520Y-22243388D01*
X43462624Y-22119176D01*
X43256067Y-22033617D01*
X43036788Y-21990000D01*
X42813212Y-21990000D01*
X42593933Y-22033617D01*
X42387376Y-22119176D01*
X42201480Y-22243388D01*
X42043388Y-22401480D01*
X41919176Y-22587376D01*
X41833617Y-22793933D01*
X41790000Y-23013212D01*
X39860000Y-23013212D01*
X39816383Y-22793933D01*
X39730824Y-22587376D01*
X39606612Y-22401480D01*
X39448520Y-22243388D01*
X39262624Y-22119176D01*
X39056067Y-22033617D01*
X38836788Y-21990000D01*
X38613212Y-21990000D01*
X38393933Y-22033617D01*
X38187376Y-22119176D01*
X38001480Y-22243388D01*
X37843388Y-22401480D01*
X37719176Y-22587376D01*
X37633617Y-22793933D01*
X37590000Y-23013212D01*
X35635000Y-23013212D01*
X35591383Y-22793933D01*
X35505824Y-22587376D01*
X35381612Y-22401480D01*
X35223520Y-22243388D01*
X35037624Y-22119176D01*
X34831067Y-22033617D01*
X34611788Y-21990000D01*
X34388212Y-21990000D01*
X34168933Y-22033617D01*
X33962376Y-22119176D01*
X33776480Y-22243388D01*
X33618388Y-22401480D01*
X33494176Y-22587376D01*
X33408617Y-22793933D01*
X33365000Y-23013212D01*
X31585000Y-23013212D01*
X31541383Y-22793933D01*
X31455824Y-22587376D01*
X31331612Y-22401480D01*
X31173520Y-22243388D01*
X30987624Y-22119176D01*
X30781067Y-22033617D01*
X30561788Y-21990000D01*
X30338212Y-21990000D01*
X30118933Y-22033617D01*
X29912376Y-22119176D01*
X29726480Y-22243388D01*
X29568388Y-22401480D01*
X29444176Y-22587376D01*
X29383690Y-22733401D01*
X29160394Y-22301560D01*
X29085149Y-22188946D01*
X28482818Y-21696787D01*
X25179605Y-25000000D01*
X24820395Y-25000000D01*
X24806253Y-24985858D01*
X24985858Y-24806253D01*
X25000000Y-24820395D01*
X28303213Y-21517182D01*
X27811054Y-20914851D01*
X27349534Y-20660000D01*
X76641840Y-20660000D01*
X76584618Y-20729725D01*
G37*
X76584618Y-20729725D02*
X76460653Y-20961646D01*
X76384317Y-21213294D01*
X76365000Y-21409421D01*
X76365000Y-21940578D01*
X76384317Y-22136705D01*
X76460653Y-22388353D01*
X76584618Y-22620274D01*
X76751445Y-22823555D01*
X76954725Y-22990382D01*
X77186646Y-23114347D01*
X77438294Y-23190683D01*
X77700000Y-23216459D01*
X77961705Y-23190683D01*
X78213353Y-23114347D01*
X78445274Y-22990382D01*
X78648555Y-22823555D01*
X78815382Y-22620275D01*
X78939347Y-22388354D01*
X79015683Y-22136706D01*
X79035000Y-21940579D01*
X79035000Y-21409422D01*
X79015683Y-21213295D01*
X78939347Y-20961647D01*
X78815382Y-20729725D01*
X78758160Y-20660000D01*
X83241840Y-20660000D01*
X83184618Y-20729725D01*
X83060653Y-20961646D01*
X82984317Y-21213294D01*
X82965000Y-21409421D01*
X82965000Y-21940578D01*
X82984317Y-22136705D01*
X83060653Y-22388353D01*
X83184618Y-22620274D01*
X83351445Y-22823555D01*
X83554725Y-22990382D01*
X83786646Y-23114347D01*
X84038294Y-23190683D01*
X84300000Y-23216459D01*
X84561705Y-23190683D01*
X84813353Y-23114347D01*
X85045274Y-22990382D01*
X85248555Y-22823555D01*
X85415382Y-22620275D01*
X85539347Y-22388354D01*
X85615683Y-22136706D01*
X85635000Y-21940579D01*
X85635000Y-21409422D01*
X85615683Y-21213295D01*
X85539347Y-20961647D01*
X85415382Y-20729725D01*
X85358160Y-20660000D01*
X92648907Y-20660000D01*
X92301560Y-20839606D01*
X92188946Y-20914851D01*
X91696787Y-21517182D01*
X95000000Y-24820395D01*
X95014143Y-24806253D01*
X95193748Y-24985858D01*
X95179605Y-25000000D01*
X98482818Y-28303213D01*
X99085149Y-27811054D01*
X99340000Y-27349534D01*
X99340000Y-39396599D01*
X99271641Y-39253080D01*
X99097588Y-39019731D01*
X98881355Y-38824822D01*
X98631252Y-38675843D01*
X98356891Y-38578519D01*
X98127000Y-38699186D01*
X98127000Y-39893000D01*
X98147000Y-39893000D01*
X98147000Y-40147000D01*
X98127000Y-40147000D01*
X98127000Y-42433000D01*
X98147000Y-42433000D01*
X98147000Y-42687000D01*
X98127000Y-42687000D01*
X98127000Y-44973000D01*
X98147000Y-44973000D01*
X98147000Y-45227000D01*
X98127000Y-45227000D01*
X98127000Y-47513000D01*
X98147000Y-47513000D01*
X98147000Y-47767000D01*
X98127000Y-47767000D01*
X98127000Y-50053000D01*
X98147000Y-50053000D01*
X98147000Y-50307000D01*
X98127000Y-50307000D01*
X98127000Y-52593000D01*
X98147000Y-52593000D01*
X98147000Y-52847000D01*
X98127000Y-52847000D01*
X98127000Y-55133000D01*
X98147000Y-55133000D01*
X98147000Y-55387000D01*
X98127000Y-55387000D01*
X98127000Y-57673000D01*
X98147000Y-57673000D01*
X98147000Y-57927000D01*
X98127000Y-57927000D01*
X98127000Y-59126250D01*
X98285750Y-59285000D01*
X98850000Y-59288072D01*
X98974482Y-59275812D01*
X99094180Y-59239502D01*
X99204494Y-59180537D01*
X99301185Y-59101185D01*
X99340001Y-59053888D01*
X99340001Y-62648909D01*
X99160394Y-62301560D01*
X99085149Y-62188946D01*
X98482818Y-61696787D01*
X95179605Y-65000000D01*
X95193748Y-65014143D01*
X95014143Y-65193748D01*
X95000000Y-65179605D01*
X91696787Y-68482818D01*
X92188946Y-69085149D01*
X92650466Y-69340000D01*
X27351093Y-69340000D01*
X27698440Y-69160394D01*
X27811054Y-69085149D01*
X28303213Y-68482818D01*
X25000000Y-65179605D01*
X24985858Y-65193748D01*
X24806253Y-65014143D01*
X24820395Y-65000000D01*
X25179605Y-65000000D01*
X28482818Y-68303213D01*
X28854102Y-67999840D01*
X28892307Y-68092074D01*
X29029099Y-68296798D01*
X29203202Y-68470901D01*
X29407926Y-68607693D01*
X29635402Y-68701917D01*
X29876890Y-68749952D01*
X30123110Y-68749952D01*
X30364598Y-68701917D01*
X30592074Y-68607693D01*
X30796798Y-68470901D01*
X30970901Y-68296798D01*
X31107693Y-68092074D01*
X31201917Y-67864598D01*
X31249952Y-67623110D01*
X31249952Y-67376890D01*
X31201917Y-67135402D01*
X31107693Y-66907926D01*
X30970901Y-66703202D01*
X30796798Y-66529099D01*
X30592074Y-66392307D01*
X30509762Y-66358212D01*
X35245000Y-66358212D01*
X35245000Y-66581788D01*
X35288617Y-66801067D01*
X35374176Y-67007624D01*
X35498388Y-67193520D01*
X35656480Y-67351612D01*
X35842376Y-67475824D01*
X36048933Y-67561383D01*
X36268212Y-67605000D01*
X36491788Y-67605000D01*
X36711067Y-67561383D01*
X36917624Y-67475824D01*
X37103520Y-67351612D01*
X37261612Y-67193520D01*
X37385824Y-67007624D01*
X37471383Y-66801067D01*
X37515000Y-66581788D01*
X37515000Y-66368212D01*
X46235000Y-66368212D01*
X46235000Y-66591788D01*
X46278617Y-66811067D01*
X46364176Y-67017624D01*
X46488388Y-67203520D01*
X46501157Y-67216289D01*
X46465000Y-67398061D01*
X46465000Y-67601939D01*
X46504774Y-67801898D01*
X46582795Y-67990256D01*
X46696063Y-68159774D01*
X46840226Y-68303937D01*
X47009744Y-68417205D01*
X47198102Y-68495226D01*
X47398061Y-68535000D01*
X47601939Y-68535000D01*
X47801898Y-68495226D01*
X47990256Y-68417205D01*
X48159774Y-68303937D01*
X48303937Y-68159774D01*
X48417205Y-67990256D01*
X48495226Y-67801898D01*
X48535000Y-67601939D01*
X48535000Y-67398061D01*
X48495226Y-67198102D01*
X48417205Y-67009744D01*
X48393675Y-66974528D01*
X48461383Y-66811067D01*
X48505000Y-66591788D01*
X48505000Y-66368212D01*
X57245000Y-66368212D01*
X57245000Y-66591788D01*
X57288617Y-66811067D01*
X57374176Y-67017624D01*
X57498388Y-67203520D01*
X57656480Y-67361612D01*
X57842376Y-67485824D01*
X58048933Y-67571383D01*
X58268212Y-67615000D01*
X58491788Y-67615000D01*
X58711067Y-67571383D01*
X58917624Y-67485824D01*
X59103520Y-67361612D01*
X59261612Y-67203520D01*
X59385824Y-67017624D01*
X59471383Y-66811067D01*
X59515000Y-66591788D01*
X59515000Y-66368212D01*
X68235000Y-66368212D01*
X68235000Y-66591788D01*
X68278617Y-66811067D01*
X68364176Y-67017624D01*
X68488388Y-67203520D01*
X68646480Y-67361612D01*
X68832376Y-67485824D01*
X69038933Y-67571383D01*
X69258212Y-67615000D01*
X69481788Y-67615000D01*
X69701067Y-67571383D01*
X69907624Y-67485824D01*
X70038970Y-67398061D01*
X78965000Y-67398061D01*
X78965000Y-67601939D01*
X79004774Y-67801898D01*
X79082795Y-67990256D01*
X79196063Y-68159774D01*
X79340226Y-68303937D01*
X79509744Y-68417205D01*
X79698102Y-68495226D01*
X79898061Y-68535000D01*
X80101939Y-68535000D01*
X80301898Y-68495226D01*
X80490256Y-68417205D01*
X80659774Y-68303937D01*
X80803937Y-68159774D01*
X80917205Y-67990256D01*
X80995226Y-67801898D01*
X81035000Y-67601939D01*
X81035000Y-67398061D01*
X81030789Y-67376890D01*
X88750048Y-67376890D01*
X88750048Y-67623110D01*
X88798083Y-67864598D01*
X88892307Y-68092074D01*
X89029099Y-68296798D01*
X89203202Y-68470901D01*
X89407926Y-68607693D01*
X89635402Y-68701917D01*
X89876890Y-68749952D01*
X90123110Y-68749952D01*
X90364598Y-68701917D01*
X90592074Y-68607693D01*
X90796798Y-68470901D01*
X90970901Y-68296798D01*
X91107693Y-68092074D01*
X91145898Y-67999840D01*
X91517182Y-68303213D01*
X94820395Y-65000000D01*
X91517182Y-61696787D01*
X90914851Y-62188946D01*
X90444937Y-63039933D01*
X90150071Y-63966243D01*
X90041586Y-64932281D01*
X90123649Y-65900921D01*
X90230534Y-66271416D01*
X90123110Y-66250048D01*
X89876890Y-66250048D01*
X89635402Y-66298083D01*
X89407926Y-66392307D01*
X89203202Y-66529099D01*
X89029099Y-66703202D01*
X88892307Y-66907926D01*
X88798083Y-67135402D01*
X88750048Y-67376890D01*
X81030789Y-67376890D01*
X80998843Y-67216289D01*
X81011612Y-67203520D01*
X81135824Y-67017624D01*
X81221383Y-66811067D01*
X81265000Y-66591788D01*
X81265000Y-66368212D01*
X81221383Y-66148933D01*
X81135824Y-65942376D01*
X81011612Y-65756480D01*
X80853520Y-65598388D01*
X80667624Y-65474176D01*
X80461067Y-65388617D01*
X80241788Y-65345000D01*
X80018212Y-65345000D01*
X79798933Y-65388617D01*
X79592376Y-65474176D01*
X79406480Y-65598388D01*
X79248388Y-65756480D01*
X79124176Y-65942376D01*
X79038617Y-66148933D01*
X78995000Y-66368212D01*
X78995000Y-66591788D01*
X79038617Y-66811067D01*
X79106325Y-66974528D01*
X79082795Y-67009744D01*
X79004774Y-67198102D01*
X78965000Y-67398061D01*
X70038970Y-67398061D01*
X70093520Y-67361612D01*
X70251612Y-67203520D01*
X70375824Y-67017624D01*
X70461383Y-66811067D01*
X70505000Y-66591788D01*
X70505000Y-66368212D01*
X70461383Y-66148933D01*
X70375824Y-65942376D01*
X70251612Y-65756480D01*
X70093520Y-65598388D01*
X69907624Y-65474176D01*
X69701067Y-65388617D01*
X69481788Y-65345000D01*
X69258212Y-65345000D01*
X69038933Y-65388617D01*
X68832376Y-65474176D01*
X68646480Y-65598388D01*
X68488388Y-65756480D01*
X68364176Y-65942376D01*
X68278617Y-66148933D01*
X68235000Y-66368212D01*
X59515000Y-66368212D01*
X59471383Y-66148933D01*
X59385824Y-65942376D01*
X59261612Y-65756480D01*
X59103520Y-65598388D01*
X58917624Y-65474176D01*
X58711067Y-65388617D01*
X58491788Y-65345000D01*
X58268212Y-65345000D01*
X58048933Y-65388617D01*
X57842376Y-65474176D01*
X57656480Y-65598388D01*
X57498388Y-65756480D01*
X57374176Y-65942376D01*
X57288617Y-66148933D01*
X57245000Y-66368212D01*
X48505000Y-66368212D01*
X48461383Y-66148933D01*
X48375824Y-65942376D01*
X48251612Y-65756480D01*
X48093520Y-65598388D01*
X47907624Y-65474176D01*
X47701067Y-65388617D01*
X47481788Y-65345000D01*
X47258212Y-65345000D01*
X47038933Y-65388617D01*
X46832376Y-65474176D01*
X46646480Y-65598388D01*
X46488388Y-65756480D01*
X46364176Y-65942376D01*
X46278617Y-66148933D01*
X46235000Y-66368212D01*
X37515000Y-66368212D01*
X37515000Y-66358212D01*
X37471383Y-66138933D01*
X37385824Y-65932376D01*
X37261612Y-65746480D01*
X37103520Y-65588388D01*
X36917624Y-65464176D01*
X36711067Y-65378617D01*
X36491788Y-65335000D01*
X36268212Y-65335000D01*
X36048933Y-65378617D01*
X35842376Y-65464176D01*
X35656480Y-65588388D01*
X35498388Y-65746480D01*
X35374176Y-65932376D01*
X35288617Y-66138933D01*
X35245000Y-66358212D01*
X30509762Y-66358212D01*
X30364598Y-66298083D01*
X30123110Y-66250048D01*
X29876890Y-66250048D01*
X29774602Y-66270394D01*
X29849929Y-66033757D01*
X29958414Y-65067719D01*
X29876351Y-64099079D01*
X29606893Y-63165062D01*
X29160394Y-62301560D01*
X29085149Y-62188946D01*
X28482818Y-61696787D01*
X25179605Y-65000000D01*
X24820395Y-65000000D01*
X21517182Y-61696787D01*
X20914851Y-62188946D01*
X20660000Y-62650466D01*
X20660000Y-61517182D01*
X21696787Y-61517182D01*
X25000000Y-64820395D01*
X28303213Y-61517182D01*
X91696787Y-61517182D01*
X95000000Y-64820395D01*
X98303213Y-61517182D01*
X97811054Y-60914851D01*
X96960067Y-60444937D01*
X96033757Y-60150071D01*
X95067719Y-60041586D01*
X94099079Y-60123649D01*
X93165062Y-60393107D01*
X92301560Y-60839606D01*
X92188946Y-60914851D01*
X91696787Y-61517182D01*
X28303213Y-61517182D01*
X27811054Y-60914851D01*
X26960067Y-60444937D01*
X26655735Y-60348061D01*
X70165000Y-60348061D01*
X70165000Y-60551939D01*
X70204774Y-60751898D01*
X70282795Y-60940256D01*
X70396063Y-61109774D01*
X70540226Y-61253937D01*
X70709744Y-61367205D01*
X70898102Y-61445226D01*
X71098061Y-61485000D01*
X71301939Y-61485000D01*
X71501898Y-61445226D01*
X71690256Y-61367205D01*
X71859774Y-61253937D01*
X72003937Y-61109774D01*
X72117205Y-60940256D01*
X72195226Y-60751898D01*
X72235000Y-60551939D01*
X72235000Y-60348061D01*
X72195226Y-60148102D01*
X72117205Y-59959744D01*
X72003937Y-59790226D01*
X71859774Y-59646063D01*
X71690256Y-59532795D01*
X71501898Y-59454774D01*
X71301939Y-59415000D01*
X71098061Y-59415000D01*
X70898102Y-59454774D01*
X70709744Y-59532795D01*
X70540226Y-59646063D01*
X70396063Y-59790226D01*
X70282795Y-59959744D01*
X70204774Y-60148102D01*
X70165000Y-60348061D01*
X26655735Y-60348061D01*
X26033757Y-60150071D01*
X25067719Y-60041586D01*
X24099079Y-60123649D01*
X23165062Y-60393107D01*
X22301560Y-60839606D01*
X22188946Y-60914851D01*
X21696787Y-61517182D01*
X20660000Y-61517182D01*
X20660000Y-58873061D01*
X64365000Y-58873061D01*
X64365000Y-59076939D01*
X64404774Y-59276898D01*
X64482795Y-59465256D01*
X64596063Y-59634774D01*
X64740226Y-59778937D01*
X64909744Y-59892205D01*
X65098102Y-59970226D01*
X65298061Y-60010000D01*
X65501939Y-60010000D01*
X65701898Y-59970226D01*
X65890256Y-59892205D01*
X66059774Y-59778937D01*
X66203937Y-59634774D01*
X66317205Y-59465256D01*
X66395226Y-59276898D01*
X66435000Y-59076939D01*
X66435000Y-58873061D01*
X66395226Y-58673102D01*
X66333077Y-58523061D01*
X75115000Y-58523061D01*
X75115000Y-58726939D01*
X75154774Y-58926898D01*
X75232795Y-59115256D01*
X75346063Y-59284774D01*
X75490226Y-59428937D01*
X75659744Y-59542205D01*
X75848102Y-59620226D01*
X76048061Y-59660000D01*
X76190000Y-59660000D01*
X76190000Y-59776939D01*
X76229774Y-59976898D01*
X76307795Y-60165256D01*
X76421063Y-60334774D01*
X76565226Y-60478937D01*
X76734744Y-60592205D01*
X76923102Y-60670226D01*
X77123061Y-60710000D01*
X77326939Y-60710000D01*
X77526898Y-60670226D01*
X77715256Y-60592205D01*
X77884774Y-60478937D01*
X78028937Y-60334774D01*
X78142205Y-60165256D01*
X78220226Y-59976898D01*
X78260000Y-59776939D01*
X78260000Y-59573061D01*
X78220226Y-59373102D01*
X78142205Y-59184744D01*
X78028937Y-59015226D01*
X77884774Y-58871063D01*
X77715256Y-58757795D01*
X77526898Y-58679774D01*
X77326939Y-58640000D01*
X77185000Y-58640000D01*
X77185000Y-58523061D01*
X77170082Y-58448061D01*
X81565000Y-58448061D01*
X81565000Y-58651939D01*
X81604774Y-58851898D01*
X81682795Y-59040256D01*
X81796063Y-59209774D01*
X81940226Y-59353937D01*
X82109744Y-59467205D01*
X82298102Y-59545226D01*
X82498061Y-59585000D01*
X82701939Y-59585000D01*
X82901898Y-59545226D01*
X83090256Y-59467205D01*
X83099134Y-59461273D01*
X83124233Y-59478044D01*
X83312591Y-59556065D01*
X83512550Y-59595839D01*
X83716428Y-59595839D01*
X83916387Y-59556065D01*
X84104745Y-59478044D01*
X84274263Y-59364776D01*
X84418426Y-59220613D01*
X84531694Y-59051095D01*
X84609715Y-58862737D01*
X84649489Y-58662778D01*
X84649489Y-58458900D01*
X84609715Y-58258941D01*
X84531694Y-58070583D01*
X84418426Y-57901065D01*
X84274263Y-57756902D01*
X84104745Y-57643634D01*
X83916387Y-57565613D01*
X83716428Y-57525839D01*
X83512550Y-57525839D01*
X83312591Y-57565613D01*
X83124233Y-57643634D01*
X83115355Y-57649566D01*
X83090256Y-57632795D01*
X82901898Y-57554774D01*
X82701939Y-57515000D01*
X82498061Y-57515000D01*
X82298102Y-57554774D01*
X82109744Y-57632795D01*
X81940226Y-57746063D01*
X81796063Y-57890226D01*
X81682795Y-58059744D01*
X81604774Y-58248102D01*
X81565000Y-58448061D01*
X77170082Y-58448061D01*
X77145226Y-58323102D01*
X77067205Y-58134744D01*
X76953937Y-57965226D01*
X76809774Y-57821063D01*
X76640256Y-57707795D01*
X76451898Y-57629774D01*
X76251939Y-57590000D01*
X76048061Y-57590000D01*
X75848102Y-57629774D01*
X75659744Y-57707795D01*
X75490226Y-57821063D01*
X75346063Y-57965226D01*
X75232795Y-58134744D01*
X75154774Y-58323102D01*
X75115000Y-58523061D01*
X66333077Y-58523061D01*
X66317205Y-58484744D01*
X66203937Y-58315226D01*
X66059774Y-58171063D01*
X65890256Y-58057795D01*
X65701898Y-57979774D01*
X65501939Y-57940000D01*
X65298061Y-57940000D01*
X65098102Y-57979774D01*
X64909744Y-58057795D01*
X64740226Y-58171063D01*
X64596063Y-58315226D01*
X64482795Y-58484744D01*
X64404774Y-58673102D01*
X64365000Y-58873061D01*
X20660000Y-58873061D01*
X20660000Y-57373061D01*
X60015000Y-57373061D01*
X60015000Y-57576939D01*
X60054774Y-57776898D01*
X60132795Y-57965256D01*
X60246063Y-58134774D01*
X60390226Y-58278937D01*
X60559744Y-58392205D01*
X60748102Y-58470226D01*
X60948061Y-58510000D01*
X61151939Y-58510000D01*
X61351898Y-58470226D01*
X61540256Y-58392205D01*
X61709774Y-58278937D01*
X61853937Y-58134774D01*
X61967205Y-57965256D01*
X62045226Y-57776898D01*
X62085000Y-57576939D01*
X62085000Y-57373061D01*
X62045226Y-57173102D01*
X61967205Y-56984744D01*
X61909286Y-56898061D01*
X65465000Y-56898061D01*
X65465000Y-57101939D01*
X65504774Y-57301898D01*
X65582795Y-57490256D01*
X65696063Y-57659774D01*
X65840226Y-57803937D01*
X66009744Y-57917205D01*
X66198102Y-57995226D01*
X66398061Y-58035000D01*
X66601939Y-58035000D01*
X66801898Y-57995226D01*
X66990256Y-57917205D01*
X67159774Y-57803937D01*
X67303937Y-57659774D01*
X67417205Y-57490256D01*
X67495226Y-57301898D01*
X67535000Y-57101939D01*
X67535000Y-56898061D01*
X67495226Y-56698102D01*
X67417205Y-56509744D01*
X67303937Y-56340226D01*
X67159774Y-56196063D01*
X66990256Y-56082795D01*
X66801898Y-56004774D01*
X66601939Y-55965000D01*
X66398061Y-55965000D01*
X66198102Y-56004774D01*
X66009744Y-56082795D01*
X65840226Y-56196063D01*
X65696063Y-56340226D01*
X65582795Y-56509744D01*
X65504774Y-56698102D01*
X65465000Y-56898061D01*
X61909286Y-56898061D01*
X61853937Y-56815226D01*
X61709774Y-56671063D01*
X61540256Y-56557795D01*
X61351898Y-56479774D01*
X61151939Y-56440000D01*
X60948061Y-56440000D01*
X60748102Y-56479774D01*
X60559744Y-56557795D01*
X60390226Y-56671063D01*
X60246063Y-56815226D01*
X60132795Y-56984744D01*
X60054774Y-57173102D01*
X60015000Y-57373061D01*
X20660000Y-57373061D01*
X20660000Y-54788212D01*
X36065000Y-54788212D01*
X36065000Y-55011788D01*
X36108617Y-55231067D01*
X36194176Y-55437624D01*
X36318388Y-55623520D01*
X36476480Y-55781612D01*
X36662376Y-55905824D01*
X36868933Y-55991383D01*
X37088212Y-56035000D01*
X37311788Y-56035000D01*
X37531067Y-55991383D01*
X37737624Y-55905824D01*
X37800000Y-55864146D01*
X37862376Y-55905824D01*
X38068933Y-55991383D01*
X38288212Y-56035000D01*
X38511788Y-56035000D01*
X38731067Y-55991383D01*
X38937624Y-55905824D01*
X39000000Y-55864146D01*
X39062376Y-55905824D01*
X39268933Y-55991383D01*
X39488212Y-56035000D01*
X39711788Y-56035000D01*
X39931067Y-55991383D01*
X40137624Y-55905824D01*
X40200000Y-55864146D01*
X40262376Y-55905824D01*
X40468933Y-55991383D01*
X40688212Y-56035000D01*
X40911788Y-56035000D01*
X41131067Y-55991383D01*
X41337624Y-55905824D01*
X41400000Y-55864146D01*
X41462376Y-55905824D01*
X41668933Y-55991383D01*
X41888212Y-56035000D01*
X42111788Y-56035000D01*
X42331067Y-55991383D01*
X42537624Y-55905824D01*
X42600000Y-55864146D01*
X42662376Y-55905824D01*
X42868933Y-55991383D01*
X43088212Y-56035000D01*
X43311788Y-56035000D01*
X43531067Y-55991383D01*
X43737624Y-55905824D01*
X43923520Y-55781612D01*
X44057071Y-55648061D01*
X72715000Y-55648061D01*
X72715000Y-55851939D01*
X72754774Y-56051898D01*
X72832795Y-56240256D01*
X72946063Y-56409774D01*
X73090226Y-56553937D01*
X73259744Y-56667205D01*
X73448102Y-56745226D01*
X73648061Y-56785000D01*
X73851939Y-56785000D01*
X74051898Y-56745226D01*
X74240256Y-56667205D01*
X74409774Y-56553937D01*
X74553937Y-56409774D01*
X74667205Y-56240256D01*
X74745226Y-56051898D01*
X74785000Y-55851939D01*
X74785000Y-55648061D01*
X74745226Y-55448102D01*
X74667205Y-55259744D01*
X74553937Y-55090226D01*
X74409774Y-54946063D01*
X74240256Y-54832795D01*
X74051898Y-54754774D01*
X73851939Y-54715000D01*
X73648061Y-54715000D01*
X73448102Y-54754774D01*
X73259744Y-54832795D01*
X73090226Y-54946063D01*
X72946063Y-55090226D01*
X72832795Y-55259744D01*
X72754774Y-55448102D01*
X72715000Y-55648061D01*
X44057071Y-55648061D01*
X44081612Y-55623520D01*
X44205824Y-55437624D01*
X44291383Y-55231067D01*
X44335000Y-55011788D01*
X44335000Y-54788212D01*
X44291383Y-54568933D01*
X44205824Y-54362376D01*
X44164146Y-54300000D01*
X44172123Y-54288061D01*
X44595000Y-54288061D01*
X44595000Y-54491939D01*
X44634774Y-54691898D01*
X44712795Y-54880256D01*
X44826063Y-55049774D01*
X44970226Y-55193937D01*
X45139744Y-55307205D01*
X45328102Y-55385226D01*
X45528061Y-55425000D01*
X45731939Y-55425000D01*
X45931898Y-55385226D01*
X46120256Y-55307205D01*
X46289774Y-55193937D01*
X46433937Y-55049774D01*
X46547205Y-54880256D01*
X46625226Y-54691898D01*
X46665000Y-54491939D01*
X46665000Y-54288061D01*
X50585000Y-54288061D01*
X50585000Y-54491939D01*
X50624774Y-54691898D01*
X50702795Y-54880256D01*
X50816063Y-55049774D01*
X50960226Y-55193937D01*
X51129744Y-55307205D01*
X51318102Y-55385226D01*
X51518061Y-55425000D01*
X51721939Y-55425000D01*
X51921898Y-55385226D01*
X52110256Y-55307205D01*
X52279774Y-55193937D01*
X52423937Y-55049774D01*
X52537205Y-54880256D01*
X52615226Y-54691898D01*
X52655000Y-54491939D01*
X52655000Y-54288061D01*
X52615226Y-54088102D01*
X52537205Y-53899744D01*
X52423937Y-53730226D01*
X52311772Y-53618061D01*
X66315000Y-53618061D01*
X66315000Y-53821939D01*
X66354774Y-54021898D01*
X66432795Y-54210256D01*
X66546063Y-54379774D01*
X66690226Y-54523937D01*
X66859744Y-54637205D01*
X67048102Y-54715226D01*
X67248061Y-54755000D01*
X67451939Y-54755000D01*
X67651898Y-54715226D01*
X67835000Y-54639382D01*
X68018102Y-54715226D01*
X68218061Y-54755000D01*
X68421939Y-54755000D01*
X68621898Y-54715226D01*
X68810256Y-54637205D01*
X68979774Y-54523937D01*
X69123937Y-54379774D01*
X69237205Y-54210256D01*
X69315226Y-54021898D01*
X69355000Y-53821939D01*
X69355000Y-53618061D01*
X69351022Y-53598061D01*
X75165000Y-53598061D01*
X75165000Y-53801939D01*
X75204774Y-54001898D01*
X75282795Y-54190256D01*
X75396063Y-54359774D01*
X75540226Y-54503937D01*
X75709744Y-54617205D01*
X75898102Y-54695226D01*
X76098061Y-54735000D01*
X76301939Y-54735000D01*
X76501898Y-54695226D01*
X76690256Y-54617205D01*
X76859774Y-54503937D01*
X77003937Y-54359774D01*
X77117205Y-54190256D01*
X77195226Y-54001898D01*
X77235000Y-53801939D01*
X77235000Y-53598061D01*
X77195226Y-53398102D01*
X77117205Y-53209744D01*
X77003937Y-53040226D01*
X76859774Y-52896063D01*
X76690256Y-52782795D01*
X76501898Y-52704774D01*
X76301939Y-52665000D01*
X76098061Y-52665000D01*
X75898102Y-52704774D01*
X75709744Y-52782795D01*
X75540226Y-52896063D01*
X75396063Y-53040226D01*
X75282795Y-53209744D01*
X75204774Y-53398102D01*
X75165000Y-53598061D01*
X69351022Y-53598061D01*
X69315226Y-53418102D01*
X69237205Y-53229744D01*
X69123937Y-53060226D01*
X68979774Y-52916063D01*
X68810256Y-52802795D01*
X68621898Y-52724774D01*
X68421939Y-52685000D01*
X68218061Y-52685000D01*
X68018102Y-52724774D01*
X67835000Y-52800618D01*
X67651898Y-52724774D01*
X67451939Y-52685000D01*
X67248061Y-52685000D01*
X67048102Y-52724774D01*
X66859744Y-52802795D01*
X66690226Y-52916063D01*
X66546063Y-53060226D01*
X66432795Y-53229744D01*
X66354774Y-53418102D01*
X66315000Y-53618061D01*
X52311772Y-53618061D01*
X52279774Y-53586063D01*
X52110256Y-53472795D01*
X51921898Y-53394774D01*
X51721939Y-53355000D01*
X51518061Y-53355000D01*
X51318102Y-53394774D01*
X51129744Y-53472795D01*
X50960226Y-53586063D01*
X50816063Y-53730226D01*
X50702795Y-53899744D01*
X50624774Y-54088102D01*
X50585000Y-54288061D01*
X46665000Y-54288061D01*
X46625226Y-54088102D01*
X46547205Y-53899744D01*
X46433937Y-53730226D01*
X46289774Y-53586063D01*
X46120256Y-53472795D01*
X45931898Y-53394774D01*
X45731939Y-53355000D01*
X45528061Y-53355000D01*
X45328102Y-53394774D01*
X45139744Y-53472795D01*
X44970226Y-53586063D01*
X44826063Y-53730226D01*
X44712795Y-53899744D01*
X44634774Y-54088102D01*
X44595000Y-54288061D01*
X44172123Y-54288061D01*
X44205824Y-54237624D01*
X44291383Y-54031067D01*
X44335000Y-53811788D01*
X44335000Y-53588212D01*
X44291383Y-53368933D01*
X44205824Y-53162376D01*
X44164146Y-53100000D01*
X44205824Y-53037624D01*
X44291383Y-52831067D01*
X44335000Y-52611788D01*
X44335000Y-52388212D01*
X44291383Y-52168933D01*
X44282738Y-52148061D01*
X69811685Y-52148061D01*
X69811685Y-52351939D01*
X69851459Y-52551898D01*
X69929480Y-52740256D01*
X70042748Y-52909774D01*
X70186911Y-53053937D01*
X70356429Y-53167205D01*
X70544787Y-53245226D01*
X70744746Y-53285000D01*
X70948624Y-53285000D01*
X71148583Y-53245226D01*
X71336941Y-53167205D01*
X71506459Y-53053937D01*
X71650622Y-52909774D01*
X71763890Y-52740256D01*
X71841911Y-52551898D01*
X71865163Y-52435000D01*
X71901939Y-52435000D01*
X72101898Y-52395226D01*
X72290256Y-52317205D01*
X72459774Y-52203937D01*
X72603937Y-52059774D01*
X72717205Y-51890256D01*
X72795226Y-51701898D01*
X72835000Y-51501939D01*
X72835000Y-51298061D01*
X72795226Y-51098102D01*
X72717205Y-50909744D01*
X72603937Y-50740226D01*
X72459774Y-50596063D01*
X72290256Y-50482795D01*
X72101898Y-50404774D01*
X71901939Y-50365000D01*
X71698061Y-50365000D01*
X71498102Y-50404774D01*
X71309744Y-50482795D01*
X71140226Y-50596063D01*
X70996063Y-50740226D01*
X70882795Y-50909744D01*
X70804774Y-51098102D01*
X70781522Y-51215000D01*
X70744746Y-51215000D01*
X70544787Y-51254774D01*
X70356429Y-51332795D01*
X70186911Y-51446063D01*
X70042748Y-51590226D01*
X69929480Y-51759744D01*
X69851459Y-51948102D01*
X69811685Y-52148061D01*
X44282738Y-52148061D01*
X44205824Y-51962376D01*
X44081612Y-51776480D01*
X43923520Y-51618388D01*
X43737624Y-51494176D01*
X43531067Y-51408617D01*
X43311788Y-51365000D01*
X43088212Y-51365000D01*
X42868933Y-51408617D01*
X42662376Y-51494176D01*
X42476480Y-51618388D01*
X42318388Y-51776480D01*
X42194176Y-51962376D01*
X42108617Y-52168933D01*
X42065000Y-52388212D01*
X42065000Y-52611788D01*
X42108617Y-52831067D01*
X42194176Y-53037624D01*
X42235854Y-53100000D01*
X42194176Y-53162376D01*
X42108617Y-53368933D01*
X42065000Y-53588212D01*
X42065000Y-53765000D01*
X41888212Y-53765000D01*
X41668933Y-53808617D01*
X41462376Y-53894176D01*
X41400000Y-53935854D01*
X41337624Y-53894176D01*
X41131067Y-53808617D01*
X40911788Y-53765000D01*
X40688212Y-53765000D01*
X40468933Y-53808617D01*
X40262376Y-53894176D01*
X40200000Y-53935854D01*
X40137624Y-53894176D01*
X39931067Y-53808617D01*
X39711788Y-53765000D01*
X39488212Y-53765000D01*
X39268933Y-53808617D01*
X39062376Y-53894176D01*
X39000000Y-53935854D01*
X38937624Y-53894176D01*
X38731067Y-53808617D01*
X38511788Y-53765000D01*
X38288212Y-53765000D01*
X38068933Y-53808617D01*
X37862376Y-53894176D01*
X37800000Y-53935854D01*
X37737624Y-53894176D01*
X37531067Y-53808617D01*
X37311788Y-53765000D01*
X37088212Y-53765000D01*
X36868933Y-53808617D01*
X36662376Y-53894176D01*
X36476480Y-54018388D01*
X36318388Y-54176480D01*
X36194176Y-54362376D01*
X36108617Y-54568933D01*
X36065000Y-54788212D01*
X20660000Y-54788212D01*
X20660000Y-50988212D01*
X36065000Y-50988212D01*
X36065000Y-51211788D01*
X36108617Y-51431067D01*
X36194176Y-51637624D01*
X36318388Y-51823520D01*
X36476480Y-51981612D01*
X36662376Y-52105824D01*
X36868933Y-52191383D01*
X37088212Y-52235000D01*
X37311788Y-52235000D01*
X37531067Y-52191383D01*
X37737624Y-52105824D01*
X37800000Y-52064146D01*
X37862376Y-52105824D01*
X38068933Y-52191383D01*
X38288212Y-52235000D01*
X38511788Y-52235000D01*
X38731067Y-52191383D01*
X38937624Y-52105824D01*
X39000000Y-52064146D01*
X39062376Y-52105824D01*
X39268933Y-52191383D01*
X39488212Y-52235000D01*
X39711788Y-52235000D01*
X39931067Y-52191383D01*
X40137624Y-52105824D01*
X40323520Y-51981612D01*
X40481612Y-51823520D01*
X40605824Y-51637624D01*
X40691383Y-51431067D01*
X40735000Y-51211788D01*
X40735000Y-50988212D01*
X40691383Y-50768933D01*
X40651672Y-50673061D01*
X56890000Y-50673061D01*
X56890000Y-50876939D01*
X56929774Y-51076898D01*
X57007795Y-51265256D01*
X57121063Y-51434774D01*
X57265226Y-51578937D01*
X57434744Y-51692205D01*
X57623102Y-51770226D01*
X57823061Y-51810000D01*
X58026939Y-51810000D01*
X58226898Y-51770226D01*
X58415256Y-51692205D01*
X58584774Y-51578937D01*
X58728937Y-51434774D01*
X58842205Y-51265256D01*
X58920226Y-51076898D01*
X58960000Y-50876939D01*
X58960000Y-50835000D01*
X59001939Y-50835000D01*
X59201898Y-50795226D01*
X59390256Y-50717205D01*
X59559774Y-50603937D01*
X59703937Y-50459774D01*
X59817205Y-50290256D01*
X59895226Y-50101898D01*
X59923451Y-49960000D01*
X59926939Y-49960000D01*
X60126898Y-49920226D01*
X60180408Y-49898061D01*
X82405000Y-49898061D01*
X82405000Y-50101939D01*
X82444774Y-50301898D01*
X82522795Y-50490256D01*
X82636063Y-50659774D01*
X82780226Y-50803937D01*
X82949744Y-50917205D01*
X83138102Y-50995226D01*
X83338061Y-51035000D01*
X83541939Y-51035000D01*
X83741898Y-50995226D01*
X83895000Y-50931809D01*
X84048102Y-50995226D01*
X84248061Y-51035000D01*
X84451939Y-51035000D01*
X84651898Y-50995226D01*
X84840256Y-50917205D01*
X85009774Y-50803937D01*
X85153937Y-50659774D01*
X85267205Y-50490256D01*
X85345226Y-50301898D01*
X85385000Y-50101939D01*
X85385000Y-49898061D01*
X85345226Y-49698102D01*
X85267205Y-49509744D01*
X85153937Y-49340226D01*
X85009774Y-49196063D01*
X84840256Y-49082795D01*
X84651898Y-49004774D01*
X84451939Y-48965000D01*
X84248061Y-48965000D01*
X84048102Y-49004774D01*
X83895000Y-49068191D01*
X83741898Y-49004774D01*
X83541939Y-48965000D01*
X83338061Y-48965000D01*
X83138102Y-49004774D01*
X82949744Y-49082795D01*
X82780226Y-49196063D01*
X82636063Y-49340226D01*
X82522795Y-49509744D01*
X82444774Y-49698102D01*
X82405000Y-49898061D01*
X60180408Y-49898061D01*
X60315256Y-49842205D01*
X60484774Y-49728937D01*
X60628937Y-49584774D01*
X60742205Y-49415256D01*
X60820226Y-49226898D01*
X60860000Y-49026939D01*
X60860000Y-48823061D01*
X60852411Y-48784906D01*
X61051898Y-48745226D01*
X61240256Y-48667205D01*
X61250000Y-48660694D01*
X61259744Y-48667205D01*
X61448102Y-48745226D01*
X61648061Y-48785000D01*
X61851939Y-48785000D01*
X62051898Y-48745226D01*
X62240256Y-48667205D01*
X62409774Y-48553937D01*
X62553937Y-48409774D01*
X62667205Y-48240256D01*
X62745226Y-48051898D01*
X62785000Y-47851939D01*
X62785000Y-47648061D01*
X62745226Y-47448102D01*
X62667205Y-47259744D01*
X62553937Y-47090226D01*
X62409774Y-46946063D01*
X62337934Y-46898061D01*
X67365000Y-46898061D01*
X67365000Y-47101939D01*
X67404774Y-47301898D01*
X67482795Y-47490256D01*
X67596063Y-47659774D01*
X67740226Y-47803937D01*
X67909744Y-47917205D01*
X68098102Y-47995226D01*
X68298061Y-48035000D01*
X68501939Y-48035000D01*
X68701898Y-47995226D01*
X68890256Y-47917205D01*
X68918907Y-47898061D01*
X74215000Y-47898061D01*
X74215000Y-48101939D01*
X74254774Y-48301898D01*
X74332795Y-48490256D01*
X74446063Y-48659774D01*
X74590226Y-48803937D01*
X74759744Y-48917205D01*
X74948102Y-48995226D01*
X75148061Y-49035000D01*
X75351939Y-49035000D01*
X75551898Y-48995226D01*
X75740256Y-48917205D01*
X75909774Y-48803937D01*
X76053937Y-48659774D01*
X76161989Y-48498061D01*
X76740000Y-48498061D01*
X76740000Y-48701939D01*
X76779774Y-48901898D01*
X76857795Y-49090256D01*
X76971063Y-49259774D01*
X77115226Y-49403937D01*
X77284744Y-49517205D01*
X77473102Y-49595226D01*
X77673061Y-49635000D01*
X77876939Y-49635000D01*
X78076898Y-49595226D01*
X78265256Y-49517205D01*
X78434774Y-49403937D01*
X78578937Y-49259774D01*
X78692205Y-49090256D01*
X78770226Y-48901898D01*
X78810000Y-48701939D01*
X78810000Y-48504738D01*
X78840256Y-48492205D01*
X79009774Y-48378937D01*
X79153937Y-48234774D01*
X79267205Y-48065256D01*
X79345226Y-47876898D01*
X79385000Y-47676939D01*
X79385000Y-47473061D01*
X79345226Y-47273102D01*
X79267205Y-47084744D01*
X79153937Y-46915226D01*
X79009774Y-46771063D01*
X78840256Y-46657795D01*
X78651898Y-46579774D01*
X78451939Y-46540000D01*
X78248061Y-46540000D01*
X78048102Y-46579774D01*
X77859744Y-46657795D01*
X77690226Y-46771063D01*
X77546063Y-46915226D01*
X77432795Y-47084744D01*
X77354774Y-47273102D01*
X77315000Y-47473061D01*
X77315000Y-47670262D01*
X77284744Y-47682795D01*
X77115226Y-47796063D01*
X76971063Y-47940226D01*
X76857795Y-48109744D01*
X76779774Y-48298102D01*
X76740000Y-48498061D01*
X76161989Y-48498061D01*
X76167205Y-48490256D01*
X76245226Y-48301898D01*
X76285000Y-48101939D01*
X76285000Y-47898061D01*
X76245226Y-47698102D01*
X76167205Y-47509744D01*
X76053937Y-47340226D01*
X75909774Y-47196063D01*
X75740256Y-47082795D01*
X75551898Y-47004774D01*
X75351939Y-46965000D01*
X75148061Y-46965000D01*
X74948102Y-47004774D01*
X74759744Y-47082795D01*
X74590226Y-47196063D01*
X74446063Y-47340226D01*
X74332795Y-47509744D01*
X74254774Y-47698102D01*
X74215000Y-47898061D01*
X68918907Y-47898061D01*
X69059774Y-47803937D01*
X69203937Y-47659774D01*
X69317205Y-47490256D01*
X69395226Y-47301898D01*
X69435000Y-47101939D01*
X69435000Y-46898061D01*
X69395226Y-46698102D01*
X69317205Y-46509744D01*
X69203937Y-46340226D01*
X69059774Y-46196063D01*
X68890256Y-46082795D01*
X68701898Y-46004774D01*
X68501939Y-45965000D01*
X68298061Y-45965000D01*
X68098102Y-46004774D01*
X67909744Y-46082795D01*
X67740226Y-46196063D01*
X67596063Y-46340226D01*
X67482795Y-46509744D01*
X67404774Y-46698102D01*
X67365000Y-46898061D01*
X62337934Y-46898061D01*
X62240256Y-46832795D01*
X62051898Y-46754774D01*
X61851939Y-46715000D01*
X61648061Y-46715000D01*
X61448102Y-46754774D01*
X61259744Y-46832795D01*
X61250000Y-46839306D01*
X61240256Y-46832795D01*
X61051898Y-46754774D01*
X60851939Y-46715000D01*
X60648061Y-46715000D01*
X60448102Y-46754774D01*
X60259744Y-46832795D01*
X60090226Y-46946063D01*
X59946063Y-47090226D01*
X59832795Y-47259744D01*
X59754774Y-47448102D01*
X59715000Y-47648061D01*
X59715000Y-47851939D01*
X59722589Y-47890094D01*
X59523102Y-47929774D01*
X59334744Y-48007795D01*
X59165226Y-48121063D01*
X59021063Y-48265226D01*
X58907795Y-48434744D01*
X58829774Y-48623102D01*
X58801549Y-48765000D01*
X58798061Y-48765000D01*
X58598102Y-48804774D01*
X58409744Y-48882795D01*
X58240226Y-48996063D01*
X58096063Y-49140226D01*
X57982795Y-49309744D01*
X57904774Y-49498102D01*
X57865000Y-49698061D01*
X57865000Y-49740000D01*
X57823061Y-49740000D01*
X57623102Y-49779774D01*
X57434744Y-49857795D01*
X57265226Y-49971063D01*
X57121063Y-50115226D01*
X57007795Y-50284744D01*
X56929774Y-50473102D01*
X56890000Y-50673061D01*
X40651672Y-50673061D01*
X40605824Y-50562376D01*
X40481612Y-50376480D01*
X40323520Y-50218388D01*
X40137624Y-50094176D01*
X39931067Y-50008617D01*
X39711788Y-49965000D01*
X39488212Y-49965000D01*
X39268933Y-50008617D01*
X39062376Y-50094176D01*
X39000000Y-50135854D01*
X38937624Y-50094176D01*
X38731067Y-50008617D01*
X38511788Y-49965000D01*
X38288212Y-49965000D01*
X38068933Y-50008617D01*
X37862376Y-50094176D01*
X37800000Y-50135854D01*
X37737624Y-50094176D01*
X37531067Y-50008617D01*
X37311788Y-49965000D01*
X37088212Y-49965000D01*
X36868933Y-50008617D01*
X36662376Y-50094176D01*
X36476480Y-50218388D01*
X36318388Y-50376480D01*
X36194176Y-50562376D01*
X36108617Y-50768933D01*
X36065000Y-50988212D01*
X20660000Y-50988212D01*
X20660000Y-48358212D01*
X21025000Y-48358212D01*
X21025000Y-48581788D01*
X21068617Y-48801067D01*
X21154176Y-49007624D01*
X21278388Y-49193520D01*
X21436480Y-49351612D01*
X21622376Y-49475824D01*
X21828933Y-49561383D01*
X22048212Y-49605000D01*
X22271788Y-49605000D01*
X22491067Y-49561383D01*
X22697624Y-49475824D01*
X22760000Y-49434146D01*
X22822376Y-49475824D01*
X23028933Y-49561383D01*
X23248212Y-49605000D01*
X23471788Y-49605000D01*
X23691067Y-49561383D01*
X23897624Y-49475824D01*
X23950000Y-49440827D01*
X24002376Y-49475824D01*
X24208933Y-49561383D01*
X24428212Y-49605000D01*
X24651788Y-49605000D01*
X24871067Y-49561383D01*
X25077624Y-49475824D01*
X25263520Y-49351612D01*
X25421612Y-49193520D01*
X25545824Y-49007624D01*
X25631383Y-48801067D01*
X25675000Y-48581788D01*
X25675000Y-48358212D01*
X25631383Y-48138933D01*
X25545824Y-47932376D01*
X25421612Y-47746480D01*
X25263520Y-47588388D01*
X25128337Y-47498061D01*
X53065000Y-47498061D01*
X53065000Y-47701939D01*
X53104774Y-47901898D01*
X53182795Y-48090256D01*
X53296063Y-48259774D01*
X53440226Y-48403937D01*
X53609744Y-48517205D01*
X53798102Y-48595226D01*
X53998061Y-48635000D01*
X54201939Y-48635000D01*
X54401898Y-48595226D01*
X54590256Y-48517205D01*
X54759774Y-48403937D01*
X54903937Y-48259774D01*
X55017205Y-48090256D01*
X55095226Y-47901898D01*
X55135000Y-47701939D01*
X55135000Y-47498061D01*
X55095226Y-47298102D01*
X55017205Y-47109744D01*
X54903937Y-46940226D01*
X54759774Y-46796063D01*
X54590256Y-46682795D01*
X54401898Y-46604774D01*
X54201939Y-46565000D01*
X53998061Y-46565000D01*
X53798102Y-46604774D01*
X53609744Y-46682795D01*
X53440226Y-46796063D01*
X53296063Y-46940226D01*
X53182795Y-47109744D01*
X53104774Y-47298102D01*
X53065000Y-47498061D01*
X25128337Y-47498061D01*
X25077624Y-47464176D01*
X24871067Y-47378617D01*
X24651788Y-47335000D01*
X24428212Y-47335000D01*
X24208933Y-47378617D01*
X24002376Y-47464176D01*
X23950000Y-47499173D01*
X23897624Y-47464176D01*
X23691067Y-47378617D01*
X23471788Y-47335000D01*
X23248212Y-47335000D01*
X23028933Y-47378617D01*
X22822376Y-47464176D01*
X22760000Y-47505854D01*
X22697624Y-47464176D01*
X22491067Y-47378617D01*
X22271788Y-47335000D01*
X22048212Y-47335000D01*
X21828933Y-47378617D01*
X21622376Y-47464176D01*
X21436480Y-47588388D01*
X21278388Y-47746480D01*
X21154176Y-47932376D01*
X21068617Y-48138933D01*
X21025000Y-48358212D01*
X20660000Y-48358212D01*
X20660000Y-43698061D01*
X30665000Y-43698061D01*
X30665000Y-43901939D01*
X30704774Y-44101898D01*
X30766120Y-44250000D01*
X30704774Y-44398102D01*
X30665000Y-44598061D01*
X30665000Y-44801939D01*
X30704774Y-45001898D01*
X30782795Y-45190256D01*
X30896063Y-45359774D01*
X31040226Y-45503937D01*
X31209744Y-45617205D01*
X31398102Y-45695226D01*
X31598061Y-45735000D01*
X31801939Y-45735000D01*
X32001898Y-45695226D01*
X32190256Y-45617205D01*
X32359774Y-45503937D01*
X32503937Y-45359774D01*
X32617205Y-45190256D01*
X32655393Y-45098061D01*
X51165000Y-45098061D01*
X51165000Y-45301939D01*
X51204774Y-45501898D01*
X51282795Y-45690256D01*
X51396063Y-45859774D01*
X51540226Y-46003937D01*
X51709744Y-46117205D01*
X51898102Y-46195226D01*
X52098061Y-46235000D01*
X52301939Y-46235000D01*
X52501898Y-46195226D01*
X52690256Y-46117205D01*
X52859774Y-46003937D01*
X52990650Y-45873061D01*
X54415000Y-45873061D01*
X54415000Y-46076939D01*
X54454774Y-46276898D01*
X54532795Y-46465256D01*
X54646063Y-46634774D01*
X54790226Y-46778937D01*
X54959744Y-46892205D01*
X55148102Y-46970226D01*
X55348061Y-47010000D01*
X55551939Y-47010000D01*
X55751898Y-46970226D01*
X55940256Y-46892205D01*
X56109774Y-46778937D01*
X56253937Y-46634774D01*
X56367205Y-46465256D01*
X56445226Y-46276898D01*
X56485000Y-46076939D01*
X56485000Y-45873061D01*
X56445226Y-45673102D01*
X56367205Y-45484744D01*
X56253937Y-45315226D01*
X56109774Y-45171063D01*
X55940256Y-45057795D01*
X55751898Y-44979774D01*
X55551939Y-44940000D01*
X55348061Y-44940000D01*
X55148102Y-44979774D01*
X54959744Y-45057795D01*
X54790226Y-45171063D01*
X54646063Y-45315226D01*
X54532795Y-45484744D01*
X54454774Y-45673102D01*
X54415000Y-45873061D01*
X52990650Y-45873061D01*
X53003937Y-45859774D01*
X53117205Y-45690256D01*
X53195226Y-45501898D01*
X53235000Y-45301939D01*
X53235000Y-45098061D01*
X53195226Y-44898102D01*
X53117205Y-44709744D01*
X53003937Y-44540226D01*
X52859774Y-44396063D01*
X52690256Y-44282795D01*
X52501898Y-44204774D01*
X52301939Y-44165000D01*
X52098061Y-44165000D01*
X51898102Y-44204774D01*
X51709744Y-44282795D01*
X51540226Y-44396063D01*
X51396063Y-44540226D01*
X51282795Y-44709744D01*
X51204774Y-44898102D01*
X51165000Y-45098061D01*
X32655393Y-45098061D01*
X32695226Y-45001898D01*
X32735000Y-44801939D01*
X32735000Y-44598061D01*
X32695226Y-44398102D01*
X32633880Y-44250000D01*
X32695226Y-44101898D01*
X32735000Y-43901939D01*
X32735000Y-43698061D01*
X32695226Y-43498102D01*
X32617205Y-43309744D01*
X32503937Y-43140226D01*
X32359774Y-42996063D01*
X32190256Y-42882795D01*
X32001898Y-42804774D01*
X31801939Y-42765000D01*
X31598061Y-42765000D01*
X31398102Y-42804774D01*
X31209744Y-42882795D01*
X31040226Y-42996063D01*
X30896063Y-43140226D01*
X30782795Y-43309744D01*
X30704774Y-43498102D01*
X30665000Y-43698061D01*
X20660000Y-43698061D01*
X20660000Y-40588212D01*
X34065000Y-40588212D01*
X34065000Y-40811788D01*
X34108617Y-41031067D01*
X34194176Y-41237624D01*
X34318388Y-41423520D01*
X34476480Y-41581612D01*
X34662376Y-41705824D01*
X34868933Y-41791383D01*
X35088212Y-41835000D01*
X35311788Y-41835000D01*
X35497494Y-41798061D01*
X52165000Y-41798061D01*
X52165000Y-42001939D01*
X52204774Y-42201898D01*
X52282795Y-42390256D01*
X52396063Y-42559774D01*
X52540226Y-42703937D01*
X52709744Y-42817205D01*
X52898102Y-42895226D01*
X53098061Y-42935000D01*
X53301939Y-42935000D01*
X53501898Y-42895226D01*
X53690256Y-42817205D01*
X53859774Y-42703937D01*
X54003937Y-42559774D01*
X54117205Y-42390256D01*
X54195226Y-42201898D01*
X54235000Y-42001939D01*
X54235000Y-41798061D01*
X54195226Y-41598102D01*
X54117205Y-41409744D01*
X54003937Y-41240226D01*
X53859774Y-41096063D01*
X53690256Y-40982795D01*
X53501898Y-40904774D01*
X53301939Y-40865000D01*
X53098061Y-40865000D01*
X52898102Y-40904774D01*
X52709744Y-40982795D01*
X52540226Y-41096063D01*
X52396063Y-41240226D01*
X52282795Y-41409744D01*
X52204774Y-41598102D01*
X52165000Y-41798061D01*
X35497494Y-41798061D01*
X35531067Y-41791383D01*
X35737624Y-41705824D01*
X35923520Y-41581612D01*
X36081612Y-41423520D01*
X36205824Y-41237624D01*
X36291383Y-41031067D01*
X36335000Y-40811788D01*
X36335000Y-40588212D01*
X36322041Y-40523061D01*
X54540000Y-40523061D01*
X54540000Y-40726939D01*
X54579774Y-40926898D01*
X54657795Y-41115256D01*
X54771063Y-41284774D01*
X54915226Y-41428937D01*
X55084744Y-41542205D01*
X55273102Y-41620226D01*
X55473061Y-41660000D01*
X55676939Y-41660000D01*
X55876898Y-41620226D01*
X56065256Y-41542205D01*
X56234774Y-41428937D01*
X56378937Y-41284774D01*
X56492205Y-41115256D01*
X56570226Y-40926898D01*
X56610000Y-40726939D01*
X56610000Y-40523061D01*
X56570226Y-40323102D01*
X56492205Y-40134744D01*
X56378937Y-39965226D01*
X56298711Y-39885000D01*
X56451939Y-39885000D01*
X56651898Y-39845226D01*
X56840256Y-39767205D01*
X57009774Y-39653937D01*
X57153937Y-39509774D01*
X57267205Y-39340256D01*
X57337849Y-39169708D01*
X57398061Y-39181685D01*
X57601939Y-39181685D01*
X57801898Y-39141911D01*
X57990256Y-39063890D01*
X58159774Y-38950622D01*
X58273000Y-38837396D01*
X58273000Y-46000000D01*
X58275440Y-46024776D01*
X58282667Y-46048601D01*
X58294403Y-46070557D01*
X58310197Y-46089803D01*
X58329443Y-46105597D01*
X58351399Y-46117333D01*
X58375224Y-46124560D01*
X58400000Y-46127000D01*
X63250000Y-46127000D01*
X63274776Y-46124560D01*
X63298601Y-46117333D01*
X63320557Y-46105597D01*
X63339803Y-46089803D01*
X63355597Y-46070557D01*
X63367333Y-46048601D01*
X63374560Y-46024776D01*
X63377000Y-46000000D01*
X63377000Y-45173061D01*
X84065000Y-45173061D01*
X84065000Y-45376939D01*
X84104774Y-45576898D01*
X84182795Y-45765256D01*
X84296063Y-45934774D01*
X84440226Y-46078937D01*
X84609744Y-46192205D01*
X84798102Y-46270226D01*
X84998061Y-46310000D01*
X85115000Y-46310000D01*
X85115000Y-46401939D01*
X85154774Y-46601898D01*
X85232795Y-46790256D01*
X85346063Y-46959774D01*
X85490226Y-47103937D01*
X85659744Y-47217205D01*
X85848102Y-47295226D01*
X86048061Y-47335000D01*
X86251939Y-47335000D01*
X86451898Y-47295226D01*
X86640256Y-47217205D01*
X86809774Y-47103937D01*
X86953937Y-46959774D01*
X87067205Y-46790256D01*
X87145226Y-46601898D01*
X87185000Y-46401939D01*
X87185000Y-46198061D01*
X87145226Y-45998102D01*
X87067205Y-45809744D01*
X86953937Y-45640226D01*
X86809774Y-45496063D01*
X86640256Y-45382795D01*
X86451898Y-45304774D01*
X86251939Y-45265000D01*
X86135000Y-45265000D01*
X86135000Y-45173061D01*
X86095226Y-44973102D01*
X86017205Y-44784744D01*
X85903937Y-44615226D01*
X85759774Y-44471063D01*
X85590256Y-44357795D01*
X85401898Y-44279774D01*
X85201939Y-44240000D01*
X84998061Y-44240000D01*
X84798102Y-44279774D01*
X84609744Y-44357795D01*
X84440226Y-44471063D01*
X84296063Y-44615226D01*
X84182795Y-44784744D01*
X84104774Y-44973102D01*
X84065000Y-45173061D01*
X63377000Y-45173061D01*
X63377000Y-44627000D01*
X65750000Y-44627000D01*
X65774776Y-44624560D01*
X65798601Y-44617333D01*
X65820557Y-44605597D01*
X65839803Y-44589803D01*
X65855597Y-44570557D01*
X65867333Y-44548601D01*
X65874560Y-44524776D01*
X65877000Y-44500000D01*
X65877000Y-43027000D01*
X67600000Y-43027000D01*
X67624776Y-43024560D01*
X67648601Y-43017333D01*
X67670557Y-43005597D01*
X67689803Y-42989803D01*
X67705597Y-42970557D01*
X67717333Y-42948601D01*
X67722357Y-42932040D01*
X67888061Y-42965000D01*
X68091939Y-42965000D01*
X68291898Y-42925226D01*
X68362338Y-42896049D01*
X68400226Y-42933937D01*
X68569744Y-43047205D01*
X68758102Y-43125226D01*
X68958061Y-43165000D01*
X69161939Y-43165000D01*
X69361898Y-43125226D01*
X69550256Y-43047205D01*
X69719774Y-42933937D01*
X69863937Y-42789774D01*
X69977205Y-42620256D01*
X70055226Y-42431898D01*
X70095000Y-42231939D01*
X70095000Y-42028061D01*
X70055226Y-41828102D01*
X69977205Y-41639744D01*
X69863937Y-41470226D01*
X69719774Y-41326063D01*
X69550256Y-41212795D01*
X69361898Y-41134774D01*
X69161939Y-41095000D01*
X68958061Y-41095000D01*
X68758102Y-41134774D01*
X68687662Y-41163951D01*
X68649774Y-41126063D01*
X68480256Y-41012795D01*
X68291898Y-40934774D01*
X68091939Y-40895000D01*
X67888061Y-40895000D01*
X67688102Y-40934774D01*
X67499744Y-41012795D01*
X67409641Y-41073000D01*
X63427000Y-41073000D01*
X63427000Y-38200000D01*
X63424560Y-38175224D01*
X63417333Y-38151399D01*
X63405597Y-38129443D01*
X63389803Y-38110197D01*
X63370557Y-38094403D01*
X63348601Y-38082667D01*
X63324776Y-38075440D01*
X63300000Y-38073000D01*
X58535000Y-38073000D01*
X58535000Y-38044746D01*
X58495226Y-37844787D01*
X58417205Y-37656429D01*
X58303937Y-37486911D01*
X58159774Y-37342748D01*
X57990256Y-37229480D01*
X57801898Y-37151459D01*
X57601939Y-37111685D01*
X57398061Y-37111685D01*
X57198102Y-37151459D01*
X57009744Y-37229480D01*
X56840226Y-37342748D01*
X56696063Y-37486911D01*
X56582795Y-37656429D01*
X56512151Y-37826977D01*
X56451939Y-37815000D01*
X56248061Y-37815000D01*
X56048102Y-37854774D01*
X55859744Y-37932795D01*
X55690226Y-38046063D01*
X55546063Y-38190226D01*
X55432795Y-38359744D01*
X55354774Y-38548102D01*
X55315000Y-38748061D01*
X55315000Y-38951939D01*
X55354774Y-39151898D01*
X55432795Y-39340256D01*
X55546063Y-39509774D01*
X55626289Y-39590000D01*
X55473061Y-39590000D01*
X55273102Y-39629774D01*
X55084744Y-39707795D01*
X54915226Y-39821063D01*
X54771063Y-39965226D01*
X54657795Y-40134744D01*
X54579774Y-40323102D01*
X54540000Y-40523061D01*
X36322041Y-40523061D01*
X36291383Y-40368933D01*
X36205824Y-40162376D01*
X36081612Y-39976480D01*
X35923520Y-39818388D01*
X35737624Y-39694176D01*
X35531067Y-39608617D01*
X35311788Y-39565000D01*
X35088212Y-39565000D01*
X34868933Y-39608617D01*
X34662376Y-39694176D01*
X34476480Y-39818388D01*
X34318388Y-39976480D01*
X34194176Y-40162376D01*
X34108617Y-40368933D01*
X34065000Y-40588212D01*
X20660000Y-40588212D01*
X20660000Y-38223061D01*
X31665000Y-38223061D01*
X31665000Y-38426939D01*
X31704774Y-38626898D01*
X31782795Y-38815256D01*
X31896063Y-38984774D01*
X32040226Y-39128937D01*
X32209744Y-39242205D01*
X32398102Y-39320226D01*
X32598061Y-39360000D01*
X32801939Y-39360000D01*
X33001898Y-39320226D01*
X33190256Y-39242205D01*
X33359774Y-39128937D01*
X33503937Y-38984774D01*
X33617205Y-38815256D01*
X33695226Y-38626898D01*
X33735000Y-38426939D01*
X33735000Y-38223061D01*
X33695226Y-38023102D01*
X33617205Y-37834744D01*
X33503937Y-37665226D01*
X33359774Y-37521063D01*
X33190256Y-37407795D01*
X33001898Y-37329774D01*
X32801939Y-37290000D01*
X32598061Y-37290000D01*
X32398102Y-37329774D01*
X32209744Y-37407795D01*
X32040226Y-37521063D01*
X31896063Y-37665226D01*
X31782795Y-37834744D01*
X31704774Y-38023102D01*
X31665000Y-38223061D01*
X20660000Y-38223061D01*
X20660000Y-36498061D01*
X63165000Y-36498061D01*
X63165000Y-36701939D01*
X63204774Y-36901898D01*
X63282795Y-37090256D01*
X63396063Y-37259774D01*
X63540226Y-37403937D01*
X63709744Y-37517205D01*
X63853488Y-37576746D01*
X63882761Y-37723911D01*
X63960782Y-37912269D01*
X64074050Y-38081787D01*
X64218213Y-38225950D01*
X64387731Y-38339218D01*
X64576089Y-38417239D01*
X64776048Y-38457013D01*
X64979926Y-38457013D01*
X65179885Y-38417239D01*
X65368243Y-38339218D01*
X65537761Y-38225950D01*
X65681924Y-38081787D01*
X65795192Y-37912269D01*
X65873213Y-37723911D01*
X65912987Y-37523952D01*
X65912987Y-37398061D01*
X66765000Y-37398061D01*
X66765000Y-37601939D01*
X66804774Y-37801898D01*
X66882795Y-37990256D01*
X66996063Y-38159774D01*
X67118074Y-38281785D01*
X67085000Y-38448061D01*
X67085000Y-38651939D01*
X67124774Y-38851898D01*
X67202795Y-39040256D01*
X67316063Y-39209774D01*
X67460226Y-39353937D01*
X67629744Y-39467205D01*
X67818102Y-39545226D01*
X68018061Y-39585000D01*
X68221939Y-39585000D01*
X68383091Y-39552945D01*
X68421063Y-39609774D01*
X68565226Y-39753937D01*
X68734744Y-39867205D01*
X68923102Y-39945226D01*
X69123061Y-39985000D01*
X69326939Y-39985000D01*
X69526898Y-39945226D01*
X69542363Y-39938820D01*
X69579774Y-40126898D01*
X69657795Y-40315256D01*
X69771063Y-40484774D01*
X69915226Y-40628937D01*
X70084744Y-40742205D01*
X70273102Y-40820226D01*
X70473061Y-40860000D01*
X70676939Y-40860000D01*
X70876898Y-40820226D01*
X70930408Y-40798061D01*
X71740000Y-40798061D01*
X71740000Y-41001939D01*
X71779774Y-41201898D01*
X71857795Y-41390256D01*
X71971063Y-41559774D01*
X72115226Y-41703937D01*
X72284744Y-41817205D01*
X72473102Y-41895226D01*
X72673061Y-41935000D01*
X72876939Y-41935000D01*
X73076898Y-41895226D01*
X73265256Y-41817205D01*
X73434774Y-41703937D01*
X73578937Y-41559774D01*
X73692205Y-41390256D01*
X73770226Y-41201898D01*
X73810000Y-41001939D01*
X73810000Y-40798061D01*
X73770226Y-40598102D01*
X73692205Y-40409744D01*
X73578937Y-40240226D01*
X73434774Y-40096063D01*
X73265256Y-39982795D01*
X73076898Y-39904774D01*
X72876939Y-39865000D01*
X72673061Y-39865000D01*
X72473102Y-39904774D01*
X72284744Y-39982795D01*
X72115226Y-40096063D01*
X71971063Y-40240226D01*
X71857795Y-40409744D01*
X71779774Y-40598102D01*
X71740000Y-40798061D01*
X70930408Y-40798061D01*
X71065256Y-40742205D01*
X71234774Y-40628937D01*
X71378937Y-40484774D01*
X71492205Y-40315256D01*
X71570226Y-40126898D01*
X71610000Y-39926939D01*
X71610000Y-39723061D01*
X71570226Y-39523102D01*
X71492205Y-39334744D01*
X71402173Y-39200000D01*
X91436928Y-39200000D01*
X91436928Y-40900000D01*
X91449188Y-41024482D01*
X91485498Y-41144180D01*
X91544463Y-41254494D01*
X91623815Y-41351185D01*
X91720506Y-41430537D01*
X91830820Y-41489502D01*
X91903380Y-41511513D01*
X91771525Y-41643368D01*
X91609010Y-41886589D01*
X91497068Y-42156842D01*
X91440000Y-42443740D01*
X91440000Y-42736260D01*
X91497068Y-43023158D01*
X91609010Y-43293411D01*
X91771525Y-43536632D01*
X91978368Y-43743475D01*
X92152760Y-43860000D01*
X91978368Y-43976525D01*
X91771525Y-44183368D01*
X91609010Y-44426589D01*
X91497068Y-44696842D01*
X91440000Y-44983740D01*
X91440000Y-45276260D01*
X91497068Y-45563158D01*
X91609010Y-45833411D01*
X91771525Y-46076632D01*
X91978368Y-46283475D01*
X92152760Y-46400000D01*
X91978368Y-46516525D01*
X91771525Y-46723368D01*
X91609010Y-46966589D01*
X91497068Y-47236842D01*
X91440000Y-47523740D01*
X91440000Y-47816260D01*
X91497068Y-48103158D01*
X91609010Y-48373411D01*
X91771525Y-48616632D01*
X91978368Y-48823475D01*
X92152760Y-48940000D01*
X91978368Y-49056525D01*
X91771525Y-49263368D01*
X91609010Y-49506589D01*
X91497068Y-49776842D01*
X91440000Y-50063740D01*
X91440000Y-50356260D01*
X91497068Y-50643158D01*
X91609010Y-50913411D01*
X91771525Y-51156632D01*
X91978368Y-51363475D01*
X92152760Y-51480000D01*
X91978368Y-51596525D01*
X91771525Y-51803368D01*
X91609010Y-52046589D01*
X91497068Y-52316842D01*
X91440000Y-52603740D01*
X91440000Y-52896260D01*
X91497068Y-53183158D01*
X91609010Y-53453411D01*
X91771525Y-53696632D01*
X91978368Y-53903475D01*
X92152760Y-54020000D01*
X91978368Y-54136525D01*
X91771525Y-54343368D01*
X91609010Y-54586589D01*
X91497068Y-54856842D01*
X91440000Y-55143740D01*
X91440000Y-55436260D01*
X91497068Y-55723158D01*
X91609010Y-55993411D01*
X91771525Y-56236632D01*
X91978368Y-56443475D01*
X92152760Y-56560000D01*
X91978368Y-56676525D01*
X91771525Y-56883368D01*
X91609010Y-57126589D01*
X91497068Y-57396842D01*
X91440000Y-57683740D01*
X91440000Y-57976260D01*
X91497068Y-58263158D01*
X91609010Y-58533411D01*
X91771525Y-58776632D01*
X91978368Y-58983475D01*
X92221589Y-59145990D01*
X92491842Y-59257932D01*
X92778740Y-59315000D01*
X93071260Y-59315000D01*
X93358158Y-59257932D01*
X93628411Y-59145990D01*
X93871632Y-58983475D01*
X94078475Y-58776632D01*
X94202523Y-58590981D01*
X94306525Y-58746632D01*
X94513368Y-58953475D01*
X94756589Y-59115990D01*
X95026842Y-59227932D01*
X95313740Y-59285000D01*
X95606260Y-59285000D01*
X95893158Y-59227932D01*
X96163411Y-59115990D01*
X96406632Y-58953475D01*
X96538487Y-58821620D01*
X96560498Y-58894180D01*
X96619463Y-59004494D01*
X96698815Y-59101185D01*
X96795506Y-59180537D01*
X96905820Y-59239502D01*
X97025518Y-59275812D01*
X97150000Y-59288072D01*
X97714250Y-59285000D01*
X97873000Y-59126250D01*
X97873000Y-57927000D01*
X97853000Y-57927000D01*
X97853000Y-57673000D01*
X97873000Y-57673000D01*
X97873000Y-55387000D01*
X97853000Y-55387000D01*
X97853000Y-55133000D01*
X97873000Y-55133000D01*
X97873000Y-52847000D01*
X97853000Y-52847000D01*
X97853000Y-52593000D01*
X97873000Y-52593000D01*
X97873000Y-50307000D01*
X97853000Y-50307000D01*
X97853000Y-50053000D01*
X97873000Y-50053000D01*
X97873000Y-47767000D01*
X97853000Y-47767000D01*
X97853000Y-47513000D01*
X97873000Y-47513000D01*
X97873000Y-45227000D01*
X97853000Y-45227000D01*
X97853000Y-44973000D01*
X97873000Y-44973000D01*
X97873000Y-42687000D01*
X97853000Y-42687000D01*
X97853000Y-42433000D01*
X97873000Y-42433000D01*
X97873000Y-40147000D01*
X97853000Y-40147000D01*
X97853000Y-39893000D01*
X97873000Y-39893000D01*
X97873000Y-38699186D01*
X97643109Y-38578519D01*
X97368748Y-38675843D01*
X97118645Y-38824822D01*
X96902412Y-39019731D01*
X96731100Y-39249406D01*
X96613475Y-39073368D01*
X96406632Y-38866525D01*
X96163411Y-38704010D01*
X95893158Y-38592068D01*
X95606260Y-38535000D01*
X95313740Y-38535000D01*
X95026842Y-38592068D01*
X94756589Y-38704010D01*
X94513368Y-38866525D01*
X94378367Y-39001526D01*
X94364502Y-38955820D01*
X94305537Y-38845506D01*
X94226185Y-38748815D01*
X94129494Y-38669463D01*
X94019180Y-38610498D01*
X93899482Y-38574188D01*
X93775000Y-38561928D01*
X92075000Y-38561928D01*
X91950518Y-38574188D01*
X91830820Y-38610498D01*
X91720506Y-38669463D01*
X91623815Y-38748815D01*
X91544463Y-38845506D01*
X91485498Y-38955820D01*
X91449188Y-39075518D01*
X91436928Y-39200000D01*
X71402173Y-39200000D01*
X71378937Y-39165226D01*
X71234774Y-39021063D01*
X71065256Y-38907795D01*
X70876898Y-38829774D01*
X70676939Y-38790000D01*
X70473061Y-38790000D01*
X70273102Y-38829774D01*
X70257637Y-38836180D01*
X70220226Y-38648102D01*
X70142205Y-38459744D01*
X70028937Y-38290226D01*
X69884774Y-38146063D01*
X69715256Y-38032795D01*
X69526898Y-37954774D01*
X69326939Y-37915000D01*
X69123061Y-37915000D01*
X68961909Y-37947055D01*
X68923937Y-37890226D01*
X68801926Y-37768215D01*
X68835000Y-37601939D01*
X68835000Y-37398061D01*
X68795226Y-37198102D01*
X68717205Y-37009744D01*
X68603937Y-36840226D01*
X68521366Y-36757655D01*
X68609744Y-36816707D01*
X68798102Y-36894728D01*
X68998061Y-36934502D01*
X69201939Y-36934502D01*
X69401898Y-36894728D01*
X69590256Y-36816707D01*
X69759774Y-36703439D01*
X69903937Y-36559276D01*
X70017205Y-36389758D01*
X70095226Y-36201400D01*
X70120754Y-36073061D01*
X70565000Y-36073061D01*
X70565000Y-36276939D01*
X70604774Y-36476898D01*
X70682795Y-36665256D01*
X70796063Y-36834774D01*
X70940226Y-36978937D01*
X71109744Y-37092205D01*
X71298102Y-37170226D01*
X71498061Y-37210000D01*
X71701939Y-37210000D01*
X71901898Y-37170226D01*
X72090256Y-37092205D01*
X72259774Y-36978937D01*
X72403937Y-36834774D01*
X72517205Y-36665256D01*
X72595226Y-36476898D01*
X72630798Y-36298061D01*
X75465000Y-36298061D01*
X75465000Y-36501939D01*
X75504774Y-36701898D01*
X75582795Y-36890256D01*
X75696063Y-37059774D01*
X75840226Y-37203937D01*
X76009744Y-37317205D01*
X76198102Y-37395226D01*
X76398061Y-37435000D01*
X76601939Y-37435000D01*
X76801898Y-37395226D01*
X76990256Y-37317205D01*
X77100000Y-37243877D01*
X77209744Y-37317205D01*
X77398102Y-37395226D01*
X77598061Y-37435000D01*
X77801939Y-37435000D01*
X78001898Y-37395226D01*
X78190256Y-37317205D01*
X78359774Y-37203937D01*
X78503937Y-37059774D01*
X78617205Y-36890256D01*
X78695226Y-36701898D01*
X78735000Y-36501939D01*
X78735000Y-36298061D01*
X78695226Y-36098102D01*
X78617205Y-35909744D01*
X78503937Y-35740226D01*
X78359774Y-35596063D01*
X78190256Y-35482795D01*
X78001898Y-35404774D01*
X77801939Y-35365000D01*
X77598061Y-35365000D01*
X77398102Y-35404774D01*
X77209744Y-35482795D01*
X77100000Y-35556123D01*
X76990256Y-35482795D01*
X76801898Y-35404774D01*
X76601939Y-35365000D01*
X76398061Y-35365000D01*
X76198102Y-35404774D01*
X76009744Y-35482795D01*
X75840226Y-35596063D01*
X75696063Y-35740226D01*
X75582795Y-35909744D01*
X75504774Y-36098102D01*
X75465000Y-36298061D01*
X72630798Y-36298061D01*
X72635000Y-36276939D01*
X72635000Y-36073061D01*
X72595226Y-35873102D01*
X72517205Y-35684744D01*
X72403937Y-35515226D01*
X72259774Y-35371063D01*
X72090256Y-35257795D01*
X71901898Y-35179774D01*
X71701939Y-35140000D01*
X71498061Y-35140000D01*
X71298102Y-35179774D01*
X71109744Y-35257795D01*
X70940226Y-35371063D01*
X70796063Y-35515226D01*
X70682795Y-35684744D01*
X70604774Y-35873102D01*
X70565000Y-36073061D01*
X70120754Y-36073061D01*
X70135000Y-36001441D01*
X70135000Y-35797563D01*
X70095226Y-35597604D01*
X70017205Y-35409246D01*
X69903937Y-35239728D01*
X69759774Y-35095565D01*
X69590256Y-34982297D01*
X69401898Y-34904276D01*
X69201939Y-34864502D01*
X68998061Y-34864502D01*
X68798102Y-34904276D01*
X68609744Y-34982297D01*
X68440226Y-35095565D01*
X68296063Y-35239728D01*
X68182795Y-35409246D01*
X68104774Y-35597604D01*
X68065000Y-35797563D01*
X68065000Y-36001441D01*
X68104774Y-36201400D01*
X68182795Y-36389758D01*
X68296063Y-36559276D01*
X68378634Y-36641847D01*
X68290256Y-36582795D01*
X68101898Y-36504774D01*
X67901939Y-36465000D01*
X67698061Y-36465000D01*
X67498102Y-36504774D01*
X67309744Y-36582795D01*
X67140226Y-36696063D01*
X66996063Y-36840226D01*
X66882795Y-37009744D01*
X66804774Y-37198102D01*
X66765000Y-37398061D01*
X65912987Y-37398061D01*
X65912987Y-37320074D01*
X65873213Y-37120115D01*
X65795192Y-36931757D01*
X65681924Y-36762239D01*
X65537761Y-36618076D01*
X65368243Y-36504808D01*
X65224499Y-36445267D01*
X65195226Y-36298102D01*
X65117205Y-36109744D01*
X65003937Y-35940226D01*
X64859774Y-35796063D01*
X64690256Y-35682795D01*
X64501898Y-35604774D01*
X64301939Y-35565000D01*
X64098061Y-35565000D01*
X63898102Y-35604774D01*
X63709744Y-35682795D01*
X63540226Y-35796063D01*
X63396063Y-35940226D01*
X63282795Y-36109744D01*
X63204774Y-36298102D01*
X63165000Y-36498061D01*
X20660000Y-36498061D01*
X20660000Y-34275000D01*
X92886928Y-34275000D01*
X92886928Y-36675000D01*
X92899188Y-36799482D01*
X92935498Y-36919180D01*
X92994463Y-37029494D01*
X93073815Y-37126185D01*
X93170506Y-37205537D01*
X93280820Y-37264502D01*
X93400518Y-37300812D01*
X93525000Y-37313072D01*
X95925000Y-37313072D01*
X96049482Y-37300812D01*
X96169180Y-37264502D01*
X96279494Y-37205537D01*
X96376185Y-37126185D01*
X96455537Y-37029494D01*
X96514502Y-36919180D01*
X96550812Y-36799482D01*
X96563072Y-36675000D01*
X96563072Y-34275000D01*
X96550812Y-34150518D01*
X96514502Y-34030820D01*
X96455537Y-33920506D01*
X96376185Y-33823815D01*
X96279494Y-33744463D01*
X96169180Y-33685498D01*
X96049482Y-33649188D01*
X95925000Y-33636928D01*
X95518097Y-33636928D01*
X95703486Y-33537836D01*
X95823374Y-33252980D01*
X94725000Y-32154605D01*
X93626626Y-33252980D01*
X93746514Y-33537836D01*
X93945912Y-33636928D01*
X93525000Y-33636928D01*
X93400518Y-33649188D01*
X93280820Y-33685498D01*
X93170506Y-33744463D01*
X93073815Y-33823815D01*
X92994463Y-33920506D01*
X92935498Y-34030820D01*
X92899188Y-34150518D01*
X92886928Y-34275000D01*
X20660000Y-34275000D01*
X20660000Y-32998061D01*
X62440000Y-32998061D01*
X62440000Y-33201939D01*
X62479774Y-33401898D01*
X62557795Y-33590256D01*
X62671063Y-33759774D01*
X62815226Y-33903937D01*
X62984744Y-34017205D01*
X63173102Y-34095226D01*
X63373061Y-34135000D01*
X63576939Y-34135000D01*
X63776898Y-34095226D01*
X63962500Y-34018347D01*
X64148102Y-34095226D01*
X64348061Y-34135000D01*
X64551939Y-34135000D01*
X64751898Y-34095226D01*
X64940256Y-34017205D01*
X65109774Y-33903937D01*
X65253937Y-33759774D01*
X65367205Y-33590256D01*
X65445226Y-33401898D01*
X65485000Y-33201939D01*
X65485000Y-32998061D01*
X65479033Y-32968061D01*
X80765000Y-32968061D01*
X80765000Y-33171939D01*
X80804774Y-33371898D01*
X80882795Y-33560256D01*
X80996063Y-33729774D01*
X81140226Y-33873937D01*
X81309744Y-33987205D01*
X81498102Y-34065226D01*
X81698061Y-34105000D01*
X81901939Y-34105000D01*
X82101898Y-34065226D01*
X82290256Y-33987205D01*
X82459774Y-33873937D01*
X82603937Y-33729774D01*
X82717205Y-33560256D01*
X82795226Y-33371898D01*
X82835000Y-33171939D01*
X82835000Y-32968061D01*
X82795226Y-32768102D01*
X82717205Y-32579744D01*
X82603937Y-32410226D01*
X82459774Y-32266063D01*
X82290256Y-32152795D01*
X82101898Y-32074774D01*
X81901939Y-32035000D01*
X81698061Y-32035000D01*
X81498102Y-32074774D01*
X81309744Y-32152795D01*
X81140226Y-32266063D01*
X80996063Y-32410226D01*
X80882795Y-32579744D01*
X80804774Y-32768102D01*
X80765000Y-32968061D01*
X65479033Y-32968061D01*
X65445226Y-32798102D01*
X65367205Y-32609744D01*
X65253937Y-32440226D01*
X65109774Y-32296063D01*
X64940256Y-32182795D01*
X64751898Y-32104774D01*
X64551939Y-32065000D01*
X64348061Y-32065000D01*
X64148102Y-32104774D01*
X63962500Y-32181653D01*
X63776898Y-32104774D01*
X63576939Y-32065000D01*
X63373061Y-32065000D01*
X63173102Y-32104774D01*
X62984744Y-32182795D01*
X62815226Y-32296063D01*
X62671063Y-32440226D01*
X62557795Y-32609744D01*
X62479774Y-32798102D01*
X62440000Y-32998061D01*
X20660000Y-32998061D01*
X20660000Y-32029684D01*
X92881933Y-32029684D01*
X92928015Y-32388198D01*
X93043154Y-32730833D01*
X93162164Y-32953486D01*
X93447020Y-33073374D01*
X94545395Y-31975000D01*
X94904605Y-31975000D01*
X96002980Y-33073374D01*
X96287836Y-32953486D01*
X96448699Y-32629790D01*
X96543322Y-32280931D01*
X96568067Y-31920316D01*
X96521985Y-31561802D01*
X96406846Y-31219167D01*
X96287836Y-30996514D01*
X96002980Y-30876626D01*
X94904605Y-31975000D01*
X94545395Y-31975000D01*
X93447020Y-30876626D01*
X93162164Y-30996514D01*
X93001301Y-31320210D01*
X92906678Y-31669069D01*
X92881933Y-32029684D01*
X20660000Y-32029684D01*
X20660000Y-30778061D01*
X66575000Y-30778061D01*
X66575000Y-30981939D01*
X66614774Y-31181898D01*
X66692795Y-31370256D01*
X66806063Y-31539774D01*
X66950226Y-31683937D01*
X67119744Y-31797205D01*
X67308102Y-31875226D01*
X67508061Y-31915000D01*
X67711939Y-31915000D01*
X67911898Y-31875226D01*
X68100256Y-31797205D01*
X68269774Y-31683937D01*
X68413937Y-31539774D01*
X68527205Y-31370256D01*
X68605226Y-31181898D01*
X68645000Y-30981939D01*
X68645000Y-30778061D01*
X68605226Y-30578102D01*
X68527205Y-30389744D01*
X68413937Y-30220226D01*
X68269774Y-30076063D01*
X68100256Y-29962795D01*
X67911898Y-29884774D01*
X67711939Y-29845000D01*
X67508061Y-29845000D01*
X67308102Y-29884774D01*
X67119744Y-29962795D01*
X66950226Y-30076063D01*
X66806063Y-30220226D01*
X66692795Y-30389744D01*
X66614774Y-30578102D01*
X66575000Y-30778061D01*
X20660000Y-30778061D01*
X20660000Y-28482818D01*
X21696787Y-28482818D01*
X22188946Y-29085149D01*
X23039933Y-29555063D01*
X23966243Y-29849929D01*
X24932281Y-29958414D01*
X25900921Y-29876351D01*
X26834938Y-29606893D01*
X27698440Y-29160394D01*
X27811054Y-29085149D01*
X28303213Y-28482818D01*
X25000000Y-25179605D01*
X21696787Y-28482818D01*
X20660000Y-28482818D01*
X20660000Y-27351093D01*
X20839606Y-27698440D01*
X20914851Y-27811054D01*
X21517182Y-28303213D01*
X24820395Y-25000000D01*
X25179605Y-25000000D01*
X28482818Y-28303213D01*
X28854102Y-27999840D01*
X28892307Y-28092074D01*
X29029099Y-28296798D01*
X29203202Y-28470901D01*
X29407926Y-28607693D01*
X29635402Y-28701917D01*
X29876890Y-28749952D01*
X30123110Y-28749952D01*
X30364598Y-28701917D01*
X30592074Y-28607693D01*
X30796798Y-28470901D01*
X30970901Y-28296798D01*
X31107693Y-28092074D01*
X31201917Y-27864598D01*
X31244988Y-27648061D01*
X56215000Y-27648061D01*
X56215000Y-27851939D01*
X56254774Y-28051898D01*
X56332795Y-28240256D01*
X56446063Y-28409774D01*
X56590226Y-28553937D01*
X56759744Y-28667205D01*
X56948102Y-28745226D01*
X57148061Y-28785000D01*
X57351939Y-28785000D01*
X57551898Y-28745226D01*
X57665763Y-28698061D01*
X70665000Y-28698061D01*
X70665000Y-28901939D01*
X70704774Y-29101898D01*
X70782795Y-29290256D01*
X70896063Y-29459774D01*
X71040226Y-29603937D01*
X71209744Y-29717205D01*
X71398102Y-29795226D01*
X71598061Y-29835000D01*
X71765000Y-29835000D01*
X71765000Y-30001939D01*
X71804774Y-30201898D01*
X71882795Y-30390256D01*
X71996063Y-30559774D01*
X72140226Y-30703937D01*
X72309744Y-30817205D01*
X72498102Y-30895226D01*
X72698061Y-30935000D01*
X72901939Y-30935000D01*
X73101898Y-30895226D01*
X73290256Y-30817205D01*
X73459774Y-30703937D01*
X73603937Y-30559774D01*
X73711989Y-30398061D01*
X80315000Y-30398061D01*
X80315000Y-30601939D01*
X80354774Y-30801898D01*
X80432795Y-30990256D01*
X80546063Y-31159774D01*
X80690226Y-31303937D01*
X80859744Y-31417205D01*
X81048102Y-31495226D01*
X81248061Y-31535000D01*
X81451939Y-31535000D01*
X81651898Y-31495226D01*
X81840256Y-31417205D01*
X82009774Y-31303937D01*
X82153937Y-31159774D01*
X82267205Y-30990256D01*
X82345226Y-30801898D01*
X82385000Y-30601939D01*
X82385000Y-30398061D01*
X82365109Y-30298061D01*
X82465000Y-30298061D01*
X82465000Y-30501939D01*
X82504774Y-30701898D01*
X82582795Y-30890256D01*
X82696063Y-31059774D01*
X82840226Y-31203937D01*
X83009744Y-31317205D01*
X83198102Y-31395226D01*
X83398061Y-31435000D01*
X83601939Y-31435000D01*
X83801898Y-31395226D01*
X83990256Y-31317205D01*
X84159774Y-31203937D01*
X84303937Y-31059774D01*
X84417205Y-30890256D01*
X84495226Y-30701898D01*
X84496196Y-30697020D01*
X93626626Y-30697020D01*
X94725000Y-31795395D01*
X95823374Y-30697020D01*
X95703486Y-30412164D01*
X95379790Y-30251301D01*
X95030931Y-30156678D01*
X94670316Y-30131933D01*
X94311802Y-30178015D01*
X93969167Y-30293154D01*
X93746514Y-30412164D01*
X93626626Y-30697020D01*
X84496196Y-30697020D01*
X84535000Y-30501939D01*
X84535000Y-30298061D01*
X84495226Y-30098102D01*
X84417205Y-29909744D01*
X84303937Y-29740226D01*
X84159774Y-29596063D01*
X83990256Y-29482795D01*
X83801898Y-29404774D01*
X83601939Y-29365000D01*
X83398061Y-29365000D01*
X83198102Y-29404774D01*
X83009744Y-29482795D01*
X82840226Y-29596063D01*
X82696063Y-29740226D01*
X82582795Y-29909744D01*
X82504774Y-30098102D01*
X82465000Y-30298061D01*
X82365109Y-30298061D01*
X82345226Y-30198102D01*
X82267205Y-30009744D01*
X82153937Y-29840226D01*
X82009774Y-29696063D01*
X81840256Y-29582795D01*
X81651898Y-29504774D01*
X81451939Y-29465000D01*
X81248061Y-29465000D01*
X81048102Y-29504774D01*
X80859744Y-29582795D01*
X80690226Y-29696063D01*
X80546063Y-29840226D01*
X80432795Y-30009744D01*
X80354774Y-30198102D01*
X80315000Y-30398061D01*
X73711989Y-30398061D01*
X73717205Y-30390256D01*
X73795226Y-30201898D01*
X73835000Y-30001939D01*
X73835000Y-29798061D01*
X73795226Y-29598102D01*
X73717205Y-29409744D01*
X73603937Y-29240226D01*
X73459774Y-29096063D01*
X73290256Y-28982795D01*
X73101898Y-28904774D01*
X72901939Y-28865000D01*
X72735000Y-28865000D01*
X72735000Y-28698061D01*
X72695226Y-28498102D01*
X72617205Y-28309744D01*
X72503937Y-28140226D01*
X72359774Y-27996063D01*
X72190256Y-27882795D01*
X72001898Y-27804774D01*
X71801939Y-27765000D01*
X71598061Y-27765000D01*
X71398102Y-27804774D01*
X71209744Y-27882795D01*
X71040226Y-27996063D01*
X70896063Y-28140226D01*
X70782795Y-28309744D01*
X70704774Y-28498102D01*
X70665000Y-28698061D01*
X57665763Y-28698061D01*
X57740256Y-28667205D01*
X57909774Y-28553937D01*
X58053937Y-28409774D01*
X58167205Y-28240256D01*
X58245226Y-28051898D01*
X58285000Y-27851939D01*
X58285000Y-27648061D01*
X58245226Y-27448102D01*
X58167205Y-27259744D01*
X58053937Y-27090226D01*
X57909774Y-26946063D01*
X57740256Y-26832795D01*
X57551898Y-26754774D01*
X57351939Y-26715000D01*
X57148061Y-26715000D01*
X56948102Y-26754774D01*
X56759744Y-26832795D01*
X56590226Y-26946063D01*
X56446063Y-27090226D01*
X56332795Y-27259744D01*
X56254774Y-27448102D01*
X56215000Y-27648061D01*
X31244988Y-27648061D01*
X31249952Y-27623110D01*
X31249952Y-27376890D01*
X31201917Y-27135402D01*
X31107693Y-26907926D01*
X30970901Y-26703202D01*
X30796798Y-26529099D01*
X30592074Y-26392307D01*
X30582188Y-26388212D01*
X85615000Y-26388212D01*
X85615000Y-26611788D01*
X85658617Y-26831067D01*
X85744176Y-27037624D01*
X85868388Y-27223520D01*
X86026480Y-27381612D01*
X86072707Y-27412500D01*
X86026480Y-27443388D01*
X85868388Y-27601480D01*
X85744176Y-27787376D01*
X85658617Y-27993933D01*
X85615000Y-28213212D01*
X85615000Y-28436788D01*
X85658617Y-28656067D01*
X85744176Y-28862624D01*
X85868388Y-29048520D01*
X86026480Y-29206612D01*
X86212376Y-29330824D01*
X86418933Y-29416383D01*
X86638212Y-29460000D01*
X86861788Y-29460000D01*
X87081067Y-29416383D01*
X87287624Y-29330824D01*
X87473520Y-29206612D01*
X87631612Y-29048520D01*
X87755824Y-28862624D01*
X87841383Y-28656067D01*
X87875844Y-28482818D01*
X91696787Y-28482818D01*
X92188946Y-29085149D01*
X93039933Y-29555063D01*
X93966243Y-29849929D01*
X94932281Y-29958414D01*
X95900921Y-29876351D01*
X96834938Y-29606893D01*
X97698440Y-29160394D01*
X97811054Y-29085149D01*
X98303213Y-28482818D01*
X95000000Y-25179605D01*
X91696787Y-28482818D01*
X87875844Y-28482818D01*
X87885000Y-28436788D01*
X87885000Y-28213212D01*
X87841383Y-27993933D01*
X87755824Y-27787376D01*
X87631612Y-27601480D01*
X87628364Y-27598232D01*
X87813212Y-27635000D01*
X88036788Y-27635000D01*
X88256067Y-27591383D01*
X88462624Y-27505824D01*
X88648520Y-27381612D01*
X88806612Y-27223520D01*
X88930824Y-27037624D01*
X89016383Y-26831067D01*
X89060000Y-26611788D01*
X89060000Y-26388212D01*
X89016383Y-26168933D01*
X88930824Y-25962376D01*
X88806612Y-25776480D01*
X88648520Y-25618388D01*
X88462624Y-25494176D01*
X88256067Y-25408617D01*
X88036788Y-25365000D01*
X87813212Y-25365000D01*
X87593933Y-25408617D01*
X87387376Y-25494176D01*
X87337500Y-25527502D01*
X87287624Y-25494176D01*
X87081067Y-25408617D01*
X86861788Y-25365000D01*
X86638212Y-25365000D01*
X86418933Y-25408617D01*
X86212376Y-25494176D01*
X86026480Y-25618388D01*
X85868388Y-25776480D01*
X85744176Y-25962376D01*
X85658617Y-26168933D01*
X85615000Y-26388212D01*
X30582188Y-26388212D01*
X30364598Y-26298083D01*
X30123110Y-26250048D01*
X29876890Y-26250048D01*
X29774602Y-26270394D01*
X29849929Y-26033757D01*
X29958414Y-25067719D01*
X29899140Y-24368061D01*
X58335000Y-24368061D01*
X58335000Y-24571939D01*
X58374774Y-24771898D01*
X58452795Y-24960256D01*
X58566063Y-25129774D01*
X58710226Y-25273937D01*
X58879744Y-25387205D01*
X59068102Y-25465226D01*
X59268061Y-25505000D01*
X59471939Y-25505000D01*
X59671898Y-25465226D01*
X59860256Y-25387205D01*
X60029774Y-25273937D01*
X60173937Y-25129774D01*
X60287205Y-24960256D01*
X60288051Y-24958212D01*
X65325000Y-24958212D01*
X65325000Y-25181788D01*
X65368617Y-25401067D01*
X65454176Y-25607624D01*
X65578388Y-25793520D01*
X65736480Y-25951612D01*
X65922376Y-26075824D01*
X66128933Y-26161383D01*
X66348212Y-26205000D01*
X66571788Y-26205000D01*
X66791067Y-26161383D01*
X66997624Y-26075824D01*
X67095000Y-26010759D01*
X67192376Y-26075824D01*
X67398933Y-26161383D01*
X67618212Y-26205000D01*
X67841788Y-26205000D01*
X68061067Y-26161383D01*
X68267624Y-26075824D01*
X68365000Y-26010759D01*
X68462376Y-26075824D01*
X68668933Y-26161383D01*
X68888212Y-26205000D01*
X69111788Y-26205000D01*
X69331067Y-26161383D01*
X69537624Y-26075824D01*
X69635000Y-26010759D01*
X69732376Y-26075824D01*
X69938933Y-26161383D01*
X70158212Y-26205000D01*
X70381788Y-26205000D01*
X70601067Y-26161383D01*
X70807624Y-26075824D01*
X70905000Y-26010759D01*
X71002376Y-26075824D01*
X71208933Y-26161383D01*
X71428212Y-26205000D01*
X71651788Y-26205000D01*
X71871067Y-26161383D01*
X72077624Y-26075824D01*
X72263520Y-25951612D01*
X72421612Y-25793520D01*
X72545824Y-25607624D01*
X72631383Y-25401067D01*
X72675000Y-25181788D01*
X72675000Y-24958212D01*
X72669843Y-24932281D01*
X90041586Y-24932281D01*
X90123649Y-25900921D01*
X90393107Y-26834938D01*
X90839606Y-27698440D01*
X90914851Y-27811054D01*
X91517182Y-28303213D01*
X94820395Y-25000000D01*
X91517182Y-21696787D01*
X90914851Y-22188946D01*
X90444937Y-23039933D01*
X90150071Y-23966243D01*
X90041586Y-24932281D01*
X72669843Y-24932281D01*
X72631383Y-24738933D01*
X72585112Y-24627226D01*
X72629502Y-24544180D01*
X72665812Y-24424482D01*
X72678072Y-24300000D01*
X72678072Y-23300000D01*
X72665812Y-23175518D01*
X72629502Y-23055820D01*
X72570537Y-22945506D01*
X72491185Y-22848815D01*
X72394494Y-22769463D01*
X72284180Y-22710498D01*
X72164482Y-22674188D01*
X72040000Y-22661928D01*
X71040000Y-22661928D01*
X70915518Y-22674188D01*
X70795820Y-22710498D01*
X70706820Y-22758070D01*
X70626864Y-22722554D01*
X70571874Y-22705881D01*
X70397000Y-22832046D01*
X70397000Y-23673000D01*
X70401928Y-23673000D01*
X70401928Y-23927000D01*
X70397000Y-23927000D01*
X70397000Y-23938026D01*
X70381788Y-23935000D01*
X70158212Y-23935000D01*
X70143000Y-23938026D01*
X70143000Y-23927000D01*
X69127000Y-23927000D01*
X69127000Y-23938026D01*
X69111788Y-23935000D01*
X68888212Y-23935000D01*
X68873000Y-23938026D01*
X68873000Y-23927000D01*
X68861974Y-23927000D01*
X68865000Y-23911788D01*
X68865000Y-23688212D01*
X68861974Y-23673000D01*
X68873000Y-23673000D01*
X68873000Y-22832046D01*
X69127000Y-22832046D01*
X69127000Y-23673000D01*
X70143000Y-23673000D01*
X70143000Y-22832046D01*
X69968126Y-22705881D01*
X69913136Y-22722554D01*
X69709794Y-22812877D01*
X69635000Y-22865639D01*
X69560206Y-22812877D01*
X69356864Y-22722554D01*
X69301874Y-22705881D01*
X69127000Y-22832046D01*
X68873000Y-22832046D01*
X68698126Y-22705881D01*
X68643136Y-22722554D01*
X68439794Y-22812877D01*
X68369658Y-22862353D01*
X68267624Y-22794176D01*
X68061067Y-22708617D01*
X67841788Y-22665000D01*
X67618212Y-22665000D01*
X67398933Y-22708617D01*
X67192376Y-22794176D01*
X67090342Y-22862353D01*
X67020206Y-22812877D01*
X66816864Y-22722554D01*
X66761874Y-22705881D01*
X66587000Y-22832046D01*
X66587000Y-23673000D01*
X66598026Y-23673000D01*
X66595000Y-23688212D01*
X66595000Y-23911788D01*
X66598026Y-23927000D01*
X66587000Y-23927000D01*
X66587000Y-23938026D01*
X66571788Y-23935000D01*
X66348212Y-23935000D01*
X66333000Y-23938026D01*
X66333000Y-23927000D01*
X65490871Y-23927000D01*
X65365874Y-24101876D01*
X65445790Y-24309529D01*
X65522256Y-24430488D01*
X65454176Y-24532376D01*
X65368617Y-24738933D01*
X65325000Y-24958212D01*
X60288051Y-24958212D01*
X60365226Y-24771898D01*
X60405000Y-24571939D01*
X60405000Y-24368061D01*
X60365226Y-24168102D01*
X60287205Y-23979744D01*
X60173937Y-23810226D01*
X60029774Y-23666063D01*
X59860256Y-23552795D01*
X59728270Y-23498124D01*
X65365874Y-23498124D01*
X65490871Y-23673000D01*
X66333000Y-23673000D01*
X66333000Y-22832046D01*
X66158126Y-22705881D01*
X66103136Y-22722554D01*
X65899794Y-22812877D01*
X65717980Y-22941135D01*
X65564682Y-23102399D01*
X65445790Y-23290471D01*
X65365874Y-23498124D01*
X59728270Y-23498124D01*
X59671898Y-23474774D01*
X59471939Y-23435000D01*
X59268061Y-23435000D01*
X59068102Y-23474774D01*
X58879744Y-23552795D01*
X58710226Y-23666063D01*
X58566063Y-23810226D01*
X58452795Y-23979744D01*
X58374774Y-24168102D01*
X58335000Y-24368061D01*
X29899140Y-24368061D01*
X29877040Y-24107213D01*
X29912376Y-24130824D01*
X30118933Y-24216383D01*
X30338212Y-24260000D01*
X30561788Y-24260000D01*
X30781067Y-24216383D01*
X30987624Y-24130824D01*
X31173520Y-24006612D01*
X31331612Y-23848520D01*
X31455824Y-23662624D01*
X31541383Y-23456067D01*
X31585000Y-23236788D01*
X31585000Y-23013212D01*
X33365000Y-23013212D01*
X33365000Y-23236788D01*
X33408617Y-23456067D01*
X33494176Y-23662624D01*
X33618388Y-23848520D01*
X33776480Y-24006612D01*
X33962376Y-24130824D01*
X34168933Y-24216383D01*
X34388212Y-24260000D01*
X34611788Y-24260000D01*
X34831067Y-24216383D01*
X35037624Y-24130824D01*
X35223520Y-24006612D01*
X35381612Y-23848520D01*
X35505824Y-23662624D01*
X35591383Y-23456067D01*
X35635000Y-23236788D01*
X35635000Y-23013212D01*
X37590000Y-23013212D01*
X37590000Y-23236788D01*
X37633617Y-23456067D01*
X37719176Y-23662624D01*
X37843388Y-23848520D01*
X38001480Y-24006612D01*
X38187376Y-24130824D01*
X38393933Y-24216383D01*
X38613212Y-24260000D01*
X38836788Y-24260000D01*
X39056067Y-24216383D01*
X39262624Y-24130824D01*
X39448520Y-24006612D01*
X39606612Y-23848520D01*
X39730824Y-23662624D01*
X39816383Y-23456067D01*
X39860000Y-23236788D01*
X39860000Y-23013212D01*
X41790000Y-23013212D01*
X41790000Y-23236788D01*
X41833617Y-23456067D01*
X41919176Y-23662624D01*
X42043388Y-23848520D01*
X42201480Y-24006612D01*
X42387376Y-24130824D01*
X42593933Y-24216383D01*
X42813212Y-24260000D01*
X43036788Y-24260000D01*
X43256067Y-24216383D01*
X43462624Y-24130824D01*
X43648520Y-24006612D01*
X43806612Y-23848520D01*
X43930824Y-23662624D01*
X44016383Y-23456067D01*
X44060000Y-23236788D01*
X44060000Y-23013212D01*
X45990000Y-23013212D01*
X45990000Y-23236788D01*
X46033617Y-23456067D01*
X46119176Y-23662624D01*
X46243388Y-23848520D01*
X46401480Y-24006612D01*
X46587376Y-24130824D01*
X46793933Y-24216383D01*
X47013212Y-24260000D01*
X47236788Y-24260000D01*
X47456067Y-24216383D01*
X47662624Y-24130824D01*
X47848520Y-24006612D01*
X48006612Y-23848520D01*
X48130824Y-23662624D01*
X48216383Y-23456067D01*
X48260000Y-23236788D01*
X48260000Y-23013212D01*
X48216383Y-22793933D01*
X48130824Y-22587376D01*
X48006612Y-22401480D01*
X47848520Y-22243388D01*
X47731649Y-22165297D01*
X55640000Y-22165297D01*
X55640000Y-22334703D01*
X55673049Y-22500853D01*
X55737878Y-22657363D01*
X55831995Y-22798218D01*
X55951782Y-22918005D01*
X56092637Y-23012122D01*
X56249147Y-23076951D01*
X56415297Y-23110000D01*
X56584703Y-23110000D01*
X56750853Y-23076951D01*
X56907363Y-23012122D01*
X57048218Y-22918005D01*
X57168005Y-22798218D01*
X57262122Y-22657363D01*
X57326951Y-22500853D01*
X57360000Y-22334703D01*
X57360000Y-22165297D01*
X58640000Y-22165297D01*
X58640000Y-22334703D01*
X58673049Y-22500853D01*
X58737878Y-22657363D01*
X58831995Y-22798218D01*
X58951782Y-22918005D01*
X59092637Y-23012122D01*
X59249147Y-23076951D01*
X59415297Y-23110000D01*
X59584703Y-23110000D01*
X59750853Y-23076951D01*
X59907363Y-23012122D01*
X60048218Y-22918005D01*
X60168005Y-22798218D01*
X60262122Y-22657363D01*
X60326951Y-22500853D01*
X60360000Y-22334703D01*
X60360000Y-22165297D01*
X60326951Y-21999147D01*
X60262122Y-21842637D01*
X60168005Y-21701782D01*
X60048218Y-21581995D01*
X59907363Y-21487878D01*
X59750853Y-21423049D01*
X59584703Y-21390000D01*
X59415297Y-21390000D01*
X59249147Y-21423049D01*
X59092637Y-21487878D01*
X58951782Y-21581995D01*
X58831995Y-21701782D01*
X58737878Y-21842637D01*
X58673049Y-21999147D01*
X58640000Y-22165297D01*
X57360000Y-22165297D01*
X57326951Y-21999147D01*
X57262122Y-21842637D01*
X57168005Y-21701782D01*
X57048218Y-21581995D01*
X56907363Y-21487878D01*
X56750853Y-21423049D01*
X56584703Y-21390000D01*
X56415297Y-21390000D01*
X56249147Y-21423049D01*
X56092637Y-21487878D01*
X55951782Y-21581995D01*
X55831995Y-21701782D01*
X55737878Y-21842637D01*
X55673049Y-21999147D01*
X55640000Y-22165297D01*
X47731649Y-22165297D01*
X47662624Y-22119176D01*
X47456067Y-22033617D01*
X47236788Y-21990000D01*
X47013212Y-21990000D01*
X46793933Y-22033617D01*
X46587376Y-22119176D01*
X46401480Y-22243388D01*
X46243388Y-22401480D01*
X46119176Y-22587376D01*
X46033617Y-22793933D01*
X45990000Y-23013212D01*
X44060000Y-23013212D01*
X44016383Y-22793933D01*
X43930824Y-22587376D01*
X43806612Y-22401480D01*
X43648520Y-22243388D01*
X43462624Y-22119176D01*
X43256067Y-22033617D01*
X43036788Y-21990000D01*
X42813212Y-21990000D01*
X42593933Y-22033617D01*
X42387376Y-22119176D01*
X42201480Y-22243388D01*
X42043388Y-22401480D01*
X41919176Y-22587376D01*
X41833617Y-22793933D01*
X41790000Y-23013212D01*
X39860000Y-23013212D01*
X39816383Y-22793933D01*
X39730824Y-22587376D01*
X39606612Y-22401480D01*
X39448520Y-22243388D01*
X39262624Y-22119176D01*
X39056067Y-22033617D01*
X38836788Y-21990000D01*
X38613212Y-21990000D01*
X38393933Y-22033617D01*
X38187376Y-22119176D01*
X38001480Y-22243388D01*
X37843388Y-22401480D01*
X37719176Y-22587376D01*
X37633617Y-22793933D01*
X37590000Y-23013212D01*
X35635000Y-23013212D01*
X35591383Y-22793933D01*
X35505824Y-22587376D01*
X35381612Y-22401480D01*
X35223520Y-22243388D01*
X35037624Y-22119176D01*
X34831067Y-22033617D01*
X34611788Y-21990000D01*
X34388212Y-21990000D01*
X34168933Y-22033617D01*
X33962376Y-22119176D01*
X33776480Y-22243388D01*
X33618388Y-22401480D01*
X33494176Y-22587376D01*
X33408617Y-22793933D01*
X33365000Y-23013212D01*
X31585000Y-23013212D01*
X31541383Y-22793933D01*
X31455824Y-22587376D01*
X31331612Y-22401480D01*
X31173520Y-22243388D01*
X30987624Y-22119176D01*
X30781067Y-22033617D01*
X30561788Y-21990000D01*
X30338212Y-21990000D01*
X30118933Y-22033617D01*
X29912376Y-22119176D01*
X29726480Y-22243388D01*
X29568388Y-22401480D01*
X29444176Y-22587376D01*
X29383690Y-22733401D01*
X29160394Y-22301560D01*
X29085149Y-22188946D01*
X28482818Y-21696787D01*
X25179605Y-25000000D01*
X24820395Y-25000000D01*
X24806253Y-24985858D01*
X24985858Y-24806253D01*
X25000000Y-24820395D01*
X28303213Y-21517182D01*
X27811054Y-20914851D01*
X27349534Y-20660000D01*
X76641840Y-20660000D01*
X76584618Y-20729725D01*
M02*
