G04 #@! TF.GenerationSoftware,KiCad,Pcbnew,(5.1.5)-3*
G04 #@! TF.CreationDate,2020-06-26T03:51:20+02:00*
G04 #@! TF.ProjectId,HadesNT,48616465-734e-4542-9e6b-696361645f70,rev?*
G04 #@! TF.SameCoordinates,Original*
G04 #@! TF.FileFunction,Legend,Bot*
G04 #@! TF.FilePolarity,Positive*
%FSLAX46Y46*%
G04 Gerber Fmt 4.6, Leading zero omitted, Abs format (unit mm)*
G04 Created by KiCad (PCBNEW (5.1.5)-3) date 2020-06-26 03:51:20*
%MOMM*%
%LPD*%
G04 APERTURE LIST*
%ADD10C,0.150000*%
G04 APERTURE END LIST*
D10*
X37235714Y-64452380D02*
X36902380Y-65452380D01*
X36569047Y-64452380D01*
X36235714Y-65452380D02*
X36235714Y-64452380D01*
X35759523Y-65071428D02*
X34997619Y-65071428D01*
X34521428Y-65452380D02*
X34521428Y-64452380D01*
X34188095Y-65166666D01*
X33854761Y-64452380D01*
X33854761Y-65452380D01*
X33378571Y-65452380D02*
X33378571Y-64452380D01*
X33045238Y-65166666D01*
X32711904Y-64452380D01*
X32711904Y-65452380D01*
X32330952Y-64452380D02*
X31664285Y-65452380D01*
X31664285Y-64452380D02*
X32330952Y-65452380D01*
X31378571Y-64452380D02*
X30711904Y-65452380D01*
X30711904Y-64452380D02*
X31378571Y-65452380D01*
X88530952Y-65502380D02*
X88864285Y-65026190D01*
X89102380Y-65502380D02*
X89102380Y-64502380D01*
X88721428Y-64502380D01*
X88626190Y-64550000D01*
X88578571Y-64597619D01*
X88530952Y-64692857D01*
X88530952Y-64835714D01*
X88578571Y-64930952D01*
X88626190Y-64978571D01*
X88721428Y-65026190D01*
X89102380Y-65026190D01*
X88102380Y-64978571D02*
X87769047Y-64978571D01*
X87626190Y-65502380D02*
X88102380Y-65502380D01*
X88102380Y-64502380D01*
X87626190Y-64502380D01*
X87340476Y-64502380D02*
X87007142Y-65502380D01*
X86673809Y-64502380D01*
X85626190Y-65216666D02*
X85150000Y-65216666D01*
X85721428Y-65502380D02*
X85388095Y-64502380D01*
X85054761Y-65502380D01*
X22147619Y-41919047D02*
X21433333Y-41919047D01*
X21290476Y-41966666D01*
X21195238Y-42061904D01*
X21147619Y-42204761D01*
X21147619Y-42300000D01*
X21147619Y-40966666D02*
X21147619Y-41442857D01*
X22147619Y-41442857D01*
X21242857Y-40061904D02*
X21195238Y-40109523D01*
X21147619Y-40252380D01*
X21147619Y-40347619D01*
X21195238Y-40490476D01*
X21290476Y-40585714D01*
X21385714Y-40633333D01*
X21576190Y-40680952D01*
X21719047Y-40680952D01*
X21909523Y-40633333D01*
X22004761Y-40585714D01*
X22100000Y-40490476D01*
X22147619Y-40347619D01*
X22147619Y-40252380D01*
X22100000Y-40109523D01*
X22052380Y-40061904D01*
X22147619Y-39347619D02*
X21433333Y-39347619D01*
X21290476Y-39395238D01*
X21195238Y-39490476D01*
X21147619Y-39633333D01*
X21147619Y-39728571D01*
X21147619Y-38395238D02*
X21147619Y-38871428D01*
X22147619Y-38871428D01*
X21242857Y-37490476D02*
X21195238Y-37538095D01*
X21147619Y-37680952D01*
X21147619Y-37776190D01*
X21195238Y-37919047D01*
X21290476Y-38014285D01*
X21385714Y-38061904D01*
X21576190Y-38109523D01*
X21719047Y-38109523D01*
X21909523Y-38061904D01*
X22004761Y-38014285D01*
X22100000Y-37919047D01*
X22147619Y-37776190D01*
X22147619Y-37680952D01*
X22100000Y-37538095D01*
X22052380Y-37490476D01*
X22147619Y-36776190D02*
X21433333Y-36776190D01*
X21290476Y-36823809D01*
X21195238Y-36919047D01*
X21147619Y-37061904D01*
X21147619Y-37157142D01*
X21147619Y-35823809D02*
X21147619Y-36300000D01*
X22147619Y-36300000D01*
X21242857Y-34919047D02*
X21195238Y-34966666D01*
X21147619Y-35109523D01*
X21147619Y-35204761D01*
X21195238Y-35347619D01*
X21290476Y-35442857D01*
X21385714Y-35490476D01*
X21576190Y-35538095D01*
X21719047Y-35538095D01*
X21909523Y-35490476D01*
X22004761Y-35442857D01*
X22100000Y-35347619D01*
X22147619Y-35204761D01*
X22147619Y-35109523D01*
X22100000Y-34966666D01*
X22052380Y-34919047D01*
X22147619Y-34204761D02*
X21433333Y-34204761D01*
X21290476Y-34252380D01*
X21195238Y-34347619D01*
X21147619Y-34490476D01*
X21147619Y-34585714D01*
X21147619Y-33252380D02*
X21147619Y-33728571D01*
X22147619Y-33728571D01*
X21242857Y-32347619D02*
X21195238Y-32395238D01*
X21147619Y-32538095D01*
X21147619Y-32633333D01*
X21195238Y-32776190D01*
X21290476Y-32871428D01*
X21385714Y-32919047D01*
X21576190Y-32966666D01*
X21719047Y-32966666D01*
X21909523Y-32919047D01*
X22004761Y-32871428D01*
X22100000Y-32776190D01*
X22147619Y-32633333D01*
X22147619Y-32538095D01*
X22100000Y-32395238D01*
X22052380Y-32347619D01*
X72900000Y-20785714D02*
X72900000Y-21785714D01*
X72900000Y-20833333D02*
X72804761Y-20785714D01*
X72614285Y-20785714D01*
X72519047Y-20833333D01*
X72471428Y-20880952D01*
X72423809Y-20976190D01*
X72423809Y-21261904D01*
X72471428Y-21357142D01*
X72519047Y-21404761D01*
X72614285Y-21452380D01*
X72804761Y-21452380D01*
X72900000Y-21404761D01*
X71995238Y-21452380D02*
X71995238Y-20452380D01*
X71566666Y-21452380D02*
X71566666Y-20928571D01*
X71614285Y-20833333D01*
X71709523Y-20785714D01*
X71852380Y-20785714D01*
X71947619Y-20833333D01*
X71995238Y-20880952D01*
X71090476Y-21452380D02*
X71090476Y-20785714D01*
X71090476Y-20452380D02*
X71138095Y-20500000D01*
X71090476Y-20547619D01*
X71042857Y-20500000D01*
X71090476Y-20452380D01*
X71090476Y-20547619D01*
X70471428Y-21452380D02*
X70566666Y-21404761D01*
X70614285Y-21309523D01*
X70614285Y-20452380D01*
X70138095Y-21404761D02*
X70042857Y-21452380D01*
X69852380Y-21452380D01*
X69757142Y-21404761D01*
X69709523Y-21309523D01*
X69709523Y-21261904D01*
X69757142Y-21166666D01*
X69852380Y-21119047D01*
X69995238Y-21119047D01*
X70090476Y-21071428D01*
X70138095Y-20976190D01*
X70138095Y-20928571D01*
X70090476Y-20833333D01*
X69995238Y-20785714D01*
X69852380Y-20785714D01*
X69757142Y-20833333D01*
X68852380Y-21452380D02*
X68852380Y-20928571D01*
X68900000Y-20833333D01*
X68995238Y-20785714D01*
X69185714Y-20785714D01*
X69280952Y-20833333D01*
X68852380Y-21404761D02*
X68947619Y-21452380D01*
X69185714Y-21452380D01*
X69280952Y-21404761D01*
X69328571Y-21309523D01*
X69328571Y-21214285D01*
X69280952Y-21119047D01*
X69185714Y-21071428D01*
X68947619Y-21071428D01*
X68852380Y-21023809D01*
X68233333Y-21452380D02*
X68328571Y-21404761D01*
X68376190Y-21309523D01*
X68376190Y-20452380D01*
X67852380Y-21357142D02*
X67804761Y-21404761D01*
X67852380Y-21452380D01*
X67900000Y-21404761D01*
X67852380Y-21357142D01*
X67852380Y-21452380D01*
X66947619Y-21404761D02*
X67042857Y-21452380D01*
X67233333Y-21452380D01*
X67328571Y-21404761D01*
X67376190Y-21357142D01*
X67423809Y-21261904D01*
X67423809Y-20976190D01*
X67376190Y-20880952D01*
X67328571Y-20833333D01*
X67233333Y-20785714D01*
X67042857Y-20785714D01*
X66947619Y-20833333D01*
X66376190Y-21452380D02*
X66471428Y-21404761D01*
X66519047Y-21357142D01*
X66566666Y-21261904D01*
X66566666Y-20976190D01*
X66519047Y-20880952D01*
X66471428Y-20833333D01*
X66376190Y-20785714D01*
X66233333Y-20785714D01*
X66138095Y-20833333D01*
X66090476Y-20880952D01*
X66042857Y-20976190D01*
X66042857Y-21261904D01*
X66090476Y-21357142D01*
X66138095Y-21404761D01*
X66233333Y-21452380D01*
X66376190Y-21452380D01*
X65614285Y-21357142D02*
X65566666Y-21404761D01*
X65614285Y-21452380D01*
X65661904Y-21404761D01*
X65614285Y-21357142D01*
X65614285Y-21452380D01*
X64709523Y-20785714D02*
X64709523Y-21452380D01*
X65138095Y-20785714D02*
X65138095Y-21309523D01*
X65090476Y-21404761D01*
X64995238Y-21452380D01*
X64852380Y-21452380D01*
X64757142Y-21404761D01*
X64709523Y-21357142D01*
X64233333Y-21452380D02*
X64233333Y-20452380D01*
X64138095Y-21071428D02*
X63852380Y-21452380D01*
X63852380Y-20785714D02*
X64233333Y-21166666D01*
M02*
