G04 #@! TF.GenerationSoftware,KiCad,Pcbnew,(5.1.2)-2*
G04 #@! TF.CreationDate,2019-10-30T16:09:12+01:00*
G04 #@! TF.ProjectId,Hades,48616465-732e-46b6-9963-61645f706362,rev?*
G04 #@! TF.SameCoordinates,Original*
G04 #@! TF.FileFunction,Legend,Top*
G04 #@! TF.FilePolarity,Positive*
%FSLAX46Y46*%
G04 Gerber Fmt 4.6, Leading zero omitted, Abs format (unit mm)*
G04 Created by KiCad (PCBNEW (5.1.2)-2) date 2019-10-30 16:09:12*
%MOMM*%
%LPD*%
G04 APERTURE LIST*
%ADD10C,0.150000*%
%ADD11C,0.050000*%
%ADD12C,0.100000*%
%ADD13C,0.200000*%
%ADD14C,0.127000*%
%ADD15C,0.120000*%
%ADD16C,0.300000*%
%ADD17C,0.254000*%
%ADD18C,0.152400*%
G04 APERTURE END LIST*
D10*
X66340442Y-36068000D02*
G75*
G03X66340442Y-36068000I-35921J0D01*
G01*
X85873042Y-54102000D02*
G75*
G03X85873042Y-54102000I-71842J0D01*
G01*
D11*
X69176923Y-71358914D02*
X69557876Y-71358914D01*
X69367400Y-71549390D02*
X69367400Y-71168438D01*
X65493923Y-59954314D02*
X65874876Y-59954314D01*
X65684400Y-60144790D02*
X65684400Y-59763838D01*
X92722723Y-63027714D02*
X93103676Y-63027714D01*
X92913200Y-63218190D02*
X92913200Y-62837238D01*
X94957923Y-44180914D02*
X95338876Y-44180914D01*
X95148400Y-44371390D02*
X95148400Y-43990438D01*
X34277323Y-53223314D02*
X34658276Y-53223314D01*
X34467800Y-53413790D02*
X34467800Y-53032838D01*
X34277323Y-43698314D02*
X34658276Y-43698314D01*
X34467800Y-43888790D02*
X34467800Y-43507838D01*
D10*
X114879842Y-32359600D02*
G75*
G03X114879842Y-32359600I-71842J0D01*
G01*
D11*
X95643723Y-35570314D02*
X96024676Y-35570314D01*
X95834200Y-35760790D02*
X95834200Y-35379838D01*
X106692723Y-35570314D02*
X107073676Y-35570314D01*
X106883200Y-35760790D02*
X106883200Y-35379838D01*
X102679523Y-46060514D02*
X103060476Y-46060514D01*
X102870000Y-46250990D02*
X102870000Y-45870038D01*
X101003123Y-46060514D02*
X101384076Y-46060514D01*
X101193600Y-46250990D02*
X101193600Y-45870038D01*
X99326723Y-46060514D02*
X99707676Y-46060514D01*
X99517200Y-46250990D02*
X99517200Y-45870038D01*
X103339923Y-65186714D02*
X103720876Y-65186714D01*
X103530400Y-65377190D02*
X103530400Y-64996238D01*
X101638123Y-65186714D02*
X102019076Y-65186714D01*
X101828600Y-65377190D02*
X101828600Y-64996238D01*
X99936323Y-65186714D02*
X100317276Y-65186714D01*
X100126800Y-65377190D02*
X100126800Y-64996238D01*
X84416923Y-71714514D02*
X84797876Y-71714514D01*
X84607400Y-71904990D02*
X84607400Y-71524038D01*
X82740523Y-71714514D02*
X83121476Y-71714514D01*
X82931000Y-71904990D02*
X82931000Y-71524038D01*
X81064123Y-71714514D02*
X81445076Y-71714514D01*
X81254600Y-71904990D02*
X81254600Y-71524038D01*
X79387723Y-71714514D02*
X79768676Y-71714514D01*
X79578200Y-71904990D02*
X79578200Y-71524038D01*
X80733923Y-35925914D02*
X81114876Y-35925914D01*
X80924400Y-36116390D02*
X80924400Y-35735438D01*
X91782923Y-35951314D02*
X92163876Y-35951314D01*
X91973400Y-36141790D02*
X91973400Y-35760838D01*
X105956123Y-32674714D02*
X106337076Y-32674714D01*
X106146600Y-32865190D02*
X106146600Y-32484238D01*
X116979723Y-32674714D02*
X117360676Y-32674714D01*
X117170200Y-32865190D02*
X117170200Y-32484238D01*
X28765523Y-64805714D02*
X29146476Y-64805714D01*
X28956000Y-64996190D02*
X28956000Y-64615238D01*
X28765523Y-53985314D02*
X29146476Y-53985314D01*
X28956000Y-54175790D02*
X28956000Y-53794838D01*
D10*
X103830842Y-32359600D02*
G75*
G03X103830842Y-32359600I-71842J0D01*
G01*
X56917042Y-65125600D02*
G75*
G03X56917042Y-65125600I-71842J0D01*
G01*
X56231242Y-57454800D02*
G75*
G03X56231242Y-57454800I-71842J0D01*
G01*
X64181442Y-64236600D02*
G75*
G03X64181442Y-64236600I-71842J0D01*
G01*
X93112042Y-49707800D02*
G75*
G03X93112042Y-49707800I-71842J0D01*
G01*
X51354442Y-65176400D02*
G75*
G03X51354442Y-65176400I-71842J0D01*
G01*
X47341242Y-41833800D02*
G75*
G03X47341242Y-41833800I-71842J0D01*
G01*
X39695842Y-47218600D02*
G75*
G03X39695842Y-47218600I-71842J0D01*
G01*
X52546238Y-34790047D02*
X52641476Y-34837666D01*
X52689095Y-34885285D01*
X52736714Y-34980523D01*
X52736714Y-35028142D01*
X52689095Y-35123380D01*
X52641476Y-35171000D01*
X52546238Y-35218619D01*
X52355761Y-35218619D01*
X52260523Y-35171000D01*
X52212904Y-35123380D01*
X52165285Y-35028142D01*
X52165285Y-34980523D01*
X52212904Y-34885285D01*
X52260523Y-34837666D01*
X52355761Y-34790047D01*
X52546238Y-34790047D01*
X52641476Y-34742428D01*
X52689095Y-34694809D01*
X52736714Y-34599571D01*
X52736714Y-34409095D01*
X52689095Y-34313857D01*
X52641476Y-34266238D01*
X52546238Y-34218619D01*
X52355761Y-34218619D01*
X52260523Y-34266238D01*
X52212904Y-34313857D01*
X52165285Y-34409095D01*
X52165285Y-34599571D01*
X52212904Y-34694809D01*
X52260523Y-34742428D01*
X52355761Y-34790047D01*
X55324333Y-35218619D02*
X54657666Y-35218619D01*
X55086238Y-34218619D01*
X57340523Y-35218619D02*
X57531000Y-35218619D01*
X57626238Y-35171000D01*
X57673857Y-35123380D01*
X57769095Y-34980523D01*
X57816714Y-34790047D01*
X57816714Y-34409095D01*
X57769095Y-34313857D01*
X57721476Y-34266238D01*
X57626238Y-34218619D01*
X57435761Y-34218619D01*
X57340523Y-34266238D01*
X57292904Y-34313857D01*
X57245285Y-34409095D01*
X57245285Y-34647190D01*
X57292904Y-34742428D01*
X57340523Y-34790047D01*
X57435761Y-34837666D01*
X57626238Y-34837666D01*
X57721476Y-34790047D01*
X57769095Y-34742428D01*
X57816714Y-34647190D01*
X59959904Y-35218619D02*
X60436095Y-35218619D01*
X60483714Y-34742428D01*
X60436095Y-34790047D01*
X60340857Y-34837666D01*
X60102761Y-34837666D01*
X60007523Y-34790047D01*
X59959904Y-34742428D01*
X59912285Y-34647190D01*
X59912285Y-34409095D01*
X59959904Y-34313857D01*
X60007523Y-34266238D01*
X60102761Y-34218619D01*
X60340857Y-34218619D01*
X60436095Y-34266238D01*
X60483714Y-34313857D01*
X62420523Y-34885285D02*
X62420523Y-34218619D01*
X62658619Y-35266238D02*
X62896714Y-34551952D01*
X62277666Y-34551952D01*
X65484333Y-35218619D02*
X64865285Y-35218619D01*
X65198619Y-34837666D01*
X65055761Y-34837666D01*
X64960523Y-34790047D01*
X64912904Y-34742428D01*
X64865285Y-34647190D01*
X64865285Y-34409095D01*
X64912904Y-34313857D01*
X64960523Y-34266238D01*
X65055761Y-34218619D01*
X65341476Y-34218619D01*
X65436714Y-34266238D01*
X65484333Y-34313857D01*
X67976714Y-35123380D02*
X67929095Y-35171000D01*
X67833857Y-35218619D01*
X67595761Y-35218619D01*
X67500523Y-35171000D01*
X67452904Y-35123380D01*
X67405285Y-35028142D01*
X67405285Y-34932904D01*
X67452904Y-34790047D01*
X68024333Y-34218619D01*
X67405285Y-34218619D01*
X69945285Y-34218619D02*
X70516714Y-34218619D01*
X70231000Y-34218619D02*
X70231000Y-35218619D01*
X70326238Y-35075761D01*
X70421476Y-34980523D01*
X70516714Y-34932904D01*
D12*
X35953628Y-26460800D02*
X36025057Y-26496514D01*
X36132200Y-26496514D01*
X36239342Y-26460800D01*
X36310771Y-26389371D01*
X36346485Y-26317942D01*
X36382200Y-26175085D01*
X36382200Y-26067942D01*
X36346485Y-25925085D01*
X36310771Y-25853657D01*
X36239342Y-25782228D01*
X36132200Y-25746514D01*
X36060771Y-25746514D01*
X35953628Y-25782228D01*
X35917914Y-25817942D01*
X35917914Y-26067942D01*
X36060771Y-26067942D01*
X35596485Y-25746514D02*
X35596485Y-26496514D01*
X35167914Y-25746514D01*
X35167914Y-26496514D01*
X34810771Y-25746514D02*
X34810771Y-26496514D01*
X34632200Y-26496514D01*
X34525057Y-26460800D01*
X34453628Y-26389371D01*
X34417914Y-26317942D01*
X34382200Y-26175085D01*
X34382200Y-26067942D01*
X34417914Y-25925085D01*
X34453628Y-25853657D01*
X34525057Y-25782228D01*
X34632200Y-25746514D01*
X34810771Y-25746514D01*
D10*
X75819000Y-41910000D02*
X75819000Y-41529000D01*
X75438000Y-41910000D02*
X75819000Y-41910000D01*
X75184000Y-43815000D02*
X75438000Y-44069000D01*
X75692000Y-43815000D02*
X75184000Y-43815000D01*
X75438000Y-44069000D02*
X75692000Y-43815000D01*
X75438000Y-41529000D02*
X75438000Y-44069000D01*
X77724000Y-41783000D02*
X77978000Y-41529000D01*
X77724000Y-41275000D02*
X77724000Y-41783000D01*
X77978000Y-41529000D02*
X77724000Y-41275000D01*
X75438000Y-41529000D02*
X77978000Y-41529000D01*
X78192380Y-41862333D02*
X79192380Y-41195666D01*
X78192380Y-41195666D02*
X79192380Y-41862333D01*
X104743476Y-45156380D02*
X104743476Y-44156380D01*
X105076809Y-44870666D01*
X105410142Y-44156380D01*
X105410142Y-45156380D01*
X106076809Y-44156380D02*
X106267285Y-44156380D01*
X106362523Y-44204000D01*
X106457761Y-44299238D01*
X106505380Y-44489714D01*
X106505380Y-44823047D01*
X106457761Y-45013523D01*
X106362523Y-45108761D01*
X106267285Y-45156380D01*
X106076809Y-45156380D01*
X105981571Y-45108761D01*
X105886333Y-45013523D01*
X105838714Y-44823047D01*
X105838714Y-44489714D01*
X105886333Y-44299238D01*
X105981571Y-44204000D01*
X106076809Y-44156380D01*
X106933952Y-45156380D02*
X106933952Y-44156380D01*
X107172047Y-44156380D01*
X107314904Y-44204000D01*
X107410142Y-44299238D01*
X107457761Y-44394476D01*
X107505380Y-44584952D01*
X107505380Y-44727809D01*
X107457761Y-44918285D01*
X107410142Y-45013523D01*
X107314904Y-45108761D01*
X107172047Y-45156380D01*
X106933952Y-45156380D01*
X107933952Y-44632571D02*
X108267285Y-44632571D01*
X108410142Y-45156380D02*
X107933952Y-45156380D01*
X107933952Y-44156380D01*
X108410142Y-44156380D01*
X84281923Y-71350142D02*
X84234304Y-71397761D01*
X84091447Y-71445380D01*
X83996209Y-71445380D01*
X83853352Y-71397761D01*
X83758114Y-71302523D01*
X83710495Y-71207285D01*
X83662876Y-71016809D01*
X83662876Y-70873952D01*
X83710495Y-70683476D01*
X83758114Y-70588238D01*
X83853352Y-70493000D01*
X83996209Y-70445380D01*
X84091447Y-70445380D01*
X84234304Y-70493000D01*
X84281923Y-70540619D01*
X82557904Y-70493000D02*
X82462666Y-70445380D01*
X82319809Y-70445380D01*
X82176952Y-70493000D01*
X82081714Y-70588238D01*
X82034095Y-70683476D01*
X81986476Y-70873952D01*
X81986476Y-71016809D01*
X82034095Y-71207285D01*
X82081714Y-71302523D01*
X82176952Y-71397761D01*
X82319809Y-71445380D01*
X82415047Y-71445380D01*
X82557904Y-71397761D01*
X82605523Y-71350142D01*
X82605523Y-71016809D01*
X82415047Y-71016809D01*
X80762457Y-70921571D02*
X80429123Y-70921571D01*
X80429123Y-71445380D02*
X80429123Y-70445380D01*
X80905314Y-70445380D01*
X78657485Y-71397761D02*
X78800342Y-71445380D01*
X79038438Y-71445380D01*
X79133676Y-71397761D01*
X79181295Y-71350142D01*
X79228914Y-71254904D01*
X79228914Y-71159666D01*
X79181295Y-71064428D01*
X79133676Y-71016809D01*
X79038438Y-70969190D01*
X78847961Y-70921571D01*
X78752723Y-70873952D01*
X78705104Y-70826333D01*
X78657485Y-70731095D01*
X78657485Y-70635857D01*
X78705104Y-70540619D01*
X78752723Y-70493000D01*
X78847961Y-70445380D01*
X79086057Y-70445380D01*
X79228914Y-70493000D01*
D12*
X107709928Y-84782428D02*
X107817071Y-84818142D01*
X107852785Y-84853857D01*
X107888500Y-84925285D01*
X107888500Y-85032428D01*
X107852785Y-85103857D01*
X107817071Y-85139571D01*
X107745642Y-85175285D01*
X107459928Y-85175285D01*
X107459928Y-84425285D01*
X107709928Y-84425285D01*
X107781357Y-84461000D01*
X107817071Y-84496714D01*
X107852785Y-84568142D01*
X107852785Y-84639571D01*
X107817071Y-84711000D01*
X107781357Y-84746714D01*
X107709928Y-84782428D01*
X107459928Y-84782428D01*
X108352785Y-84425285D02*
X108424214Y-84425285D01*
X108495642Y-84461000D01*
X108531357Y-84496714D01*
X108567071Y-84568142D01*
X108602785Y-84711000D01*
X108602785Y-84889571D01*
X108567071Y-85032428D01*
X108531357Y-85103857D01*
X108495642Y-85139571D01*
X108424214Y-85175285D01*
X108352785Y-85175285D01*
X108281357Y-85139571D01*
X108245642Y-85103857D01*
X108209928Y-85032428D01*
X108174214Y-84889571D01*
X108174214Y-84711000D01*
X108209928Y-84568142D01*
X108245642Y-84496714D01*
X108281357Y-84461000D01*
X108352785Y-84425285D01*
X83960928Y-84782428D02*
X84068071Y-84818142D01*
X84103785Y-84853857D01*
X84139500Y-84925285D01*
X84139500Y-85032428D01*
X84103785Y-85103857D01*
X84068071Y-85139571D01*
X83996642Y-85175285D01*
X83710928Y-85175285D01*
X83710928Y-84425285D01*
X83960928Y-84425285D01*
X84032357Y-84461000D01*
X84068071Y-84496714D01*
X84103785Y-84568142D01*
X84103785Y-84639571D01*
X84068071Y-84711000D01*
X84032357Y-84746714D01*
X83960928Y-84782428D01*
X83710928Y-84782428D01*
X84603785Y-84425285D02*
X84675214Y-84425285D01*
X84746642Y-84461000D01*
X84782357Y-84496714D01*
X84818071Y-84568142D01*
X84853785Y-84711000D01*
X84853785Y-84889571D01*
X84818071Y-85032428D01*
X84782357Y-85103857D01*
X84746642Y-85139571D01*
X84675214Y-85175285D01*
X84603785Y-85175285D01*
X84532357Y-85139571D01*
X84496642Y-85103857D01*
X84460928Y-85032428D01*
X84425214Y-84889571D01*
X84425214Y-84711000D01*
X84460928Y-84568142D01*
X84496642Y-84496714D01*
X84532357Y-84461000D01*
X84603785Y-84425285D01*
X77928428Y-84782428D02*
X78035571Y-84818142D01*
X78071285Y-84853857D01*
X78107000Y-84925285D01*
X78107000Y-85032428D01*
X78071285Y-85103857D01*
X78035571Y-85139571D01*
X77964142Y-85175285D01*
X77678428Y-85175285D01*
X77678428Y-84425285D01*
X77928428Y-84425285D01*
X77999857Y-84461000D01*
X78035571Y-84496714D01*
X78071285Y-84568142D01*
X78071285Y-84639571D01*
X78035571Y-84711000D01*
X77999857Y-84746714D01*
X77928428Y-84782428D01*
X77678428Y-84782428D01*
X78821285Y-85175285D02*
X78392714Y-85175285D01*
X78607000Y-85175285D02*
X78607000Y-84425285D01*
X78535571Y-84532428D01*
X78464142Y-84603857D01*
X78392714Y-84639571D01*
X117810285Y-25695714D02*
X117810285Y-26445714D01*
X117631714Y-26445714D01*
X117524571Y-26410000D01*
X117453142Y-26338571D01*
X117417428Y-26267142D01*
X117381714Y-26124285D01*
X117381714Y-26017142D01*
X117417428Y-25874285D01*
X117453142Y-25802857D01*
X117524571Y-25731428D01*
X117631714Y-25695714D01*
X117810285Y-25695714D01*
X117060285Y-25695714D02*
X117060285Y-26445714D01*
X116631714Y-25695714D01*
X116631714Y-26445714D01*
X106689857Y-25695714D02*
X106689857Y-26445714D01*
X106511285Y-26445714D01*
X106404142Y-26410000D01*
X106332714Y-26338571D01*
X106297000Y-26267142D01*
X106261285Y-26124285D01*
X106261285Y-26017142D01*
X106297000Y-25874285D01*
X106332714Y-25802857D01*
X106404142Y-25731428D01*
X106511285Y-25695714D01*
X106689857Y-25695714D01*
X105689857Y-26088571D02*
X105939857Y-26088571D01*
X105939857Y-25695714D02*
X105939857Y-26445714D01*
X105582714Y-26445714D01*
X95712285Y-25695714D02*
X95712285Y-26445714D01*
X95426571Y-26445714D01*
X95355142Y-26410000D01*
X95319428Y-26374285D01*
X95283714Y-26302857D01*
X95283714Y-26195714D01*
X95319428Y-26124285D01*
X95355142Y-26088571D01*
X95426571Y-26052857D01*
X95712285Y-26052857D01*
X94962285Y-25695714D02*
X94962285Y-26445714D01*
X94533714Y-25695714D01*
X94533714Y-26445714D01*
X84591857Y-25695714D02*
X84591857Y-26445714D01*
X84306142Y-26445714D01*
X84234714Y-26410000D01*
X84199000Y-26374285D01*
X84163285Y-26302857D01*
X84163285Y-26195714D01*
X84199000Y-26124285D01*
X84234714Y-26088571D01*
X84306142Y-26052857D01*
X84591857Y-26052857D01*
X83591857Y-26088571D02*
X83841857Y-26088571D01*
X83841857Y-25695714D02*
X83841857Y-26445714D01*
X83484714Y-26445714D01*
D10*
X73056714Y-32234238D02*
X72913857Y-32186619D01*
X72675761Y-32186619D01*
X72580523Y-32234238D01*
X72532904Y-32281857D01*
X72485285Y-32377095D01*
X72485285Y-32472333D01*
X72532904Y-32567571D01*
X72580523Y-32615190D01*
X72675761Y-32662809D01*
X72866238Y-32710428D01*
X72961476Y-32758047D01*
X73009095Y-32805666D01*
X73056714Y-32900904D01*
X73056714Y-32996142D01*
X73009095Y-33091380D01*
X72961476Y-33139000D01*
X72866238Y-33186619D01*
X72628142Y-33186619D01*
X72485285Y-33139000D01*
X72390047Y-30106928D02*
X73151952Y-30106928D01*
X72771000Y-30487880D02*
X72771000Y-29725976D01*
X72390047Y-27566928D02*
X73151952Y-27566928D01*
D13*
X84117571Y-60856142D02*
X82617571Y-60856142D01*
X83331857Y-60856142D02*
X83331857Y-59427571D01*
X84117571Y-59427571D02*
X82617571Y-59427571D01*
X83689000Y-58356142D02*
X83689000Y-57165666D01*
X84117571Y-58594238D02*
X82617571Y-57760904D01*
X84117571Y-56927571D01*
X84117571Y-56094238D02*
X82617571Y-56094238D01*
X82617571Y-55499000D01*
X82689000Y-55141857D01*
X82831857Y-54903761D01*
X82974714Y-54784714D01*
X83260428Y-54665666D01*
X83474714Y-54665666D01*
X83760428Y-54784714D01*
X83903285Y-54903761D01*
X84046142Y-55141857D01*
X84117571Y-55499000D01*
X84117571Y-56094238D01*
X83331857Y-53594238D02*
X83331857Y-52760904D01*
X84117571Y-52403761D02*
X84117571Y-53594238D01*
X82617571Y-53594238D01*
X82617571Y-52403761D01*
X84046142Y-51451380D02*
X84117571Y-51094238D01*
X84117571Y-50499000D01*
X84046142Y-50260904D01*
X83974714Y-50141857D01*
X83831857Y-50022809D01*
X83689000Y-50022809D01*
X83546142Y-50141857D01*
X83474714Y-50260904D01*
X83403285Y-50499000D01*
X83331857Y-50975190D01*
X83260428Y-51213285D01*
X83189000Y-51332333D01*
X83046142Y-51451380D01*
X82903285Y-51451380D01*
X82760428Y-51332333D01*
X82689000Y-51213285D01*
X82617571Y-50975190D01*
X82617571Y-50379952D01*
X82689000Y-50022809D01*
D10*
X103204923Y-72239142D02*
X103157304Y-72286761D01*
X103014447Y-72334380D01*
X102919209Y-72334380D01*
X102776352Y-72286761D01*
X102681114Y-72191523D01*
X102633495Y-72096285D01*
X102585876Y-71905809D01*
X102585876Y-71762952D01*
X102633495Y-71572476D01*
X102681114Y-71477238D01*
X102776352Y-71382000D01*
X102919209Y-71334380D01*
X103014447Y-71334380D01*
X103157304Y-71382000D01*
X103204923Y-71429619D01*
X101265028Y-71810571D02*
X101407885Y-71858190D01*
X101455504Y-71905809D01*
X101503123Y-72001047D01*
X101503123Y-72143904D01*
X101455504Y-72239142D01*
X101407885Y-72286761D01*
X101312647Y-72334380D01*
X100931695Y-72334380D01*
X100931695Y-71334380D01*
X101265028Y-71334380D01*
X101360266Y-71382000D01*
X101407885Y-71429619D01*
X101455504Y-71524857D01*
X101455504Y-71620095D01*
X101407885Y-71715333D01*
X101360266Y-71762952D01*
X101265028Y-71810571D01*
X100931695Y-71810571D01*
X99206085Y-72286761D02*
X99348942Y-72334380D01*
X99587038Y-72334380D01*
X99682276Y-72286761D01*
X99729895Y-72239142D01*
X99777514Y-72143904D01*
X99777514Y-72048666D01*
X99729895Y-71953428D01*
X99682276Y-71905809D01*
X99587038Y-71858190D01*
X99396561Y-71810571D01*
X99301323Y-71762952D01*
X99253704Y-71715333D01*
X99206085Y-71620095D01*
X99206085Y-71524857D01*
X99253704Y-71429619D01*
X99301323Y-71382000D01*
X99396561Y-71334380D01*
X99634657Y-71334380D01*
X99777514Y-71382000D01*
X75414190Y-44577000D02*
X75890380Y-44577000D01*
X74890380Y-44910333D02*
X75414190Y-44577000D01*
X74890380Y-44243666D01*
D14*
X46983400Y-64335400D02*
X46983400Y-74035400D01*
X36883400Y-74035400D02*
X36883400Y-64335400D01*
D15*
X46388921Y-63368800D02*
G75*
G03X46388921Y-63368800I-35921J0D01*
G01*
X46460763Y-63368800D02*
G75*
G03X46460763Y-63368800I-107763J0D01*
G01*
X68666400Y-58369200D02*
G75*
G03X68666400Y-58369200I-950000J0D01*
G01*
X71308000Y-58369200D02*
G75*
G03X71308000Y-58369200I-950000J0D01*
G01*
X95971400Y-42418000D02*
G75*
G03X95971400Y-42418000I-950000J0D01*
G01*
X98613000Y-42418000D02*
G75*
G03X98613000Y-42418000I-950000J0D01*
G01*
X29529000Y-61442600D02*
G75*
G03X29529000Y-61442600I-700000J0D01*
G01*
X31611800Y-61442600D02*
G75*
G03X31611800Y-61442600I-700000J0D01*
G01*
X33694600Y-61442600D02*
G75*
G03X33694600Y-61442600I-700000J0D01*
G01*
X110875000Y-79241000D02*
X110875000Y-78941000D01*
X110875000Y-78941000D02*
X110375000Y-78941000D01*
X113000000Y-79531000D02*
X110585000Y-79531000D01*
X110585000Y-79531000D02*
X110585000Y-79231000D01*
X110585000Y-79231000D02*
X109515000Y-79231000D01*
X109515000Y-79231000D02*
X109515000Y-84951000D01*
X109515000Y-84951000D02*
X113000000Y-84951000D01*
X113000000Y-79531000D02*
X115415000Y-79531000D01*
X115415000Y-79531000D02*
X115415000Y-79231000D01*
X115415000Y-79231000D02*
X116485000Y-79231000D01*
X116485000Y-79231000D02*
X116485000Y-84951000D01*
X116485000Y-84951000D02*
X113000000Y-84951000D01*
D14*
X37333400Y-77902200D02*
X39933400Y-77902200D01*
X41833400Y-82402200D02*
X41833400Y-79802200D01*
X35433400Y-82402200D02*
X35433400Y-79802200D01*
X39933400Y-84302200D02*
X37333400Y-84302200D01*
X37414000Y-25922000D02*
X49914000Y-25922000D01*
X49914000Y-25922000D02*
X49914000Y-34022000D01*
X49914000Y-34022000D02*
X37414000Y-34022000D01*
X34414000Y-31372000D02*
X34414000Y-28572000D01*
X37414000Y-25922000D02*
X36284000Y-26922000D01*
X34414000Y-28572000D02*
X35434000Y-27672000D01*
X37414000Y-34022000D02*
X36284000Y-33022000D01*
X34414000Y-31372000D02*
X35434000Y-32272000D01*
D16*
X33914000Y-30072000D02*
G75*
G03X33914000Y-30072000I-150000J0D01*
G01*
D15*
X35873563Y-42777500D02*
X36938000Y-41713063D01*
X31182437Y-42777500D02*
X30118000Y-41713063D01*
X31182437Y-42777500D02*
X32468000Y-42777500D01*
X35873563Y-42777500D02*
X34588000Y-42777500D01*
X36938000Y-41713063D02*
X36938000Y-35957500D01*
X30118000Y-41713063D02*
X30118000Y-35957500D01*
X30118000Y-35957500D02*
X32468000Y-35957500D01*
X36938000Y-35957500D02*
X34588000Y-35957500D01*
X29173000Y-39975064D02*
X29173000Y-38770936D01*
X26453000Y-39975064D02*
X26453000Y-38770936D01*
X36938000Y-45485000D02*
X34588000Y-45485000D01*
X30118000Y-45485000D02*
X32468000Y-45485000D01*
X30118000Y-51240563D02*
X30118000Y-45485000D01*
X36938000Y-51240563D02*
X36938000Y-45485000D01*
X35873563Y-52305000D02*
X34588000Y-52305000D01*
X31182437Y-52305000D02*
X32468000Y-52305000D01*
X31182437Y-52305000D02*
X30118000Y-51240563D01*
X35873563Y-52305000D02*
X36938000Y-51240563D01*
X26453000Y-49497064D02*
X26453000Y-48292936D01*
X29173000Y-49497064D02*
X29173000Y-48292936D01*
X34351279Y-55145400D02*
X34025721Y-55145400D01*
X34351279Y-54125400D02*
X34025721Y-54125400D01*
X29919200Y-57596721D02*
X29919200Y-57922279D01*
X30939200Y-57596721D02*
X30939200Y-57922279D01*
X108650721Y-65403000D02*
X108976279Y-65403000D01*
X108650721Y-66423000D02*
X108976279Y-66423000D01*
X111707200Y-49540279D02*
X111707200Y-49214721D01*
X112727200Y-49540279D02*
X112727200Y-49214721D01*
X96357221Y-45315600D02*
X96682779Y-45315600D01*
X96357221Y-44295600D02*
X96682779Y-44295600D01*
X91704279Y-61897800D02*
X91378721Y-61897800D01*
X91704279Y-62917800D02*
X91378721Y-62917800D01*
X75453121Y-76964000D02*
X75778679Y-76964000D01*
X75453121Y-75944000D02*
X75778679Y-75944000D01*
X79017400Y-63561079D02*
X79017400Y-63235521D01*
X80037400Y-63561079D02*
X80037400Y-63235521D01*
X64475479Y-61089000D02*
X64149921Y-61089000D01*
X64475479Y-60069000D02*
X64149921Y-60069000D01*
X75300521Y-50264600D02*
X75626079Y-50264600D01*
X75300521Y-51284600D02*
X75626079Y-51284600D01*
X78636400Y-48097221D02*
X78636400Y-48422779D01*
X79656400Y-48097221D02*
X79656400Y-48422779D01*
X37678579Y-63095600D02*
X37353021Y-63095600D01*
X37678579Y-62075600D02*
X37353021Y-62075600D01*
X40655121Y-63095600D02*
X40980679Y-63095600D01*
X40655121Y-62075600D02*
X40980679Y-62075600D01*
X83986500Y-37235500D02*
X83986500Y-35535500D01*
X83986500Y-35535500D02*
X81436500Y-35535500D01*
X83986500Y-37235500D02*
X81436500Y-37235500D01*
X95035500Y-37235500D02*
X92485500Y-37235500D01*
X95035500Y-35535500D02*
X92485500Y-35535500D01*
X95035500Y-37235500D02*
X95035500Y-35535500D01*
X104839400Y-35739200D02*
X104839400Y-33189200D01*
X106539400Y-35739200D02*
X106539400Y-33189200D01*
X104839400Y-35739200D02*
X106539400Y-35739200D01*
X115888400Y-35747800D02*
X117588400Y-35747800D01*
X117588400Y-35747800D02*
X117588400Y-33197800D01*
X115888400Y-35747800D02*
X115888400Y-33197800D01*
X108391000Y-62812200D02*
X109091000Y-62812200D01*
X109091000Y-62812200D02*
X109091000Y-62112200D01*
X95571000Y-62812200D02*
X94871000Y-62812200D01*
X94871000Y-62812200D02*
X94871000Y-62112200D01*
X108391000Y-48592200D02*
X109091000Y-48592200D01*
X109091000Y-48592200D02*
X109091000Y-49292200D01*
X95571000Y-48592200D02*
X94871000Y-48592200D01*
X94871000Y-48592200D02*
X94871000Y-49292200D01*
X94871000Y-49292200D02*
X93506000Y-49292200D01*
X31782400Y-71530400D02*
X32082400Y-71530400D01*
X32082400Y-71530400D02*
X32082400Y-71030400D01*
X31492400Y-72405400D02*
X31492400Y-71240400D01*
X31492400Y-71240400D02*
X31792400Y-71240400D01*
X31792400Y-71240400D02*
X31792400Y-70170400D01*
X31792400Y-70170400D02*
X26072400Y-70170400D01*
X26072400Y-70170400D02*
X26072400Y-72405400D01*
X31492400Y-72405400D02*
X31492400Y-73570400D01*
X31492400Y-73570400D02*
X31792400Y-73570400D01*
X31792400Y-73570400D02*
X31792400Y-74640400D01*
X31792400Y-74640400D02*
X26072400Y-74640400D01*
X26072400Y-74640400D02*
X26072400Y-72405400D01*
X45546200Y-79241000D02*
X45546200Y-78941000D01*
X45546200Y-78941000D02*
X45046200Y-78941000D01*
X49546200Y-79531000D02*
X45256200Y-79531000D01*
X45256200Y-79531000D02*
X45256200Y-79231000D01*
X45256200Y-79231000D02*
X44186200Y-79231000D01*
X44186200Y-79231000D02*
X44186200Y-84951000D01*
X44186200Y-84951000D02*
X49546200Y-84951000D01*
X49546200Y-79531000D02*
X53836200Y-79531000D01*
X53836200Y-79531000D02*
X53836200Y-79231000D01*
X53836200Y-79231000D02*
X54906200Y-79231000D01*
X54906200Y-79231000D02*
X54906200Y-84951000D01*
X54906200Y-84951000D02*
X49546200Y-84951000D01*
X86437200Y-53194200D02*
X86437200Y-57194200D01*
X89737200Y-53194200D02*
X86437200Y-53194200D01*
X60667800Y-64235400D02*
X57367800Y-64235400D01*
X57367800Y-64235400D02*
X57367800Y-68235400D01*
X119119000Y-40382000D02*
X118819000Y-40382000D01*
X118819000Y-40382000D02*
X118819000Y-40882000D01*
X119409000Y-38257000D02*
X119409000Y-40672000D01*
X119409000Y-40672000D02*
X119109000Y-40672000D01*
X119109000Y-40672000D02*
X119109000Y-41742000D01*
X119109000Y-41742000D02*
X124829000Y-41742000D01*
X124829000Y-41742000D02*
X124829000Y-38257000D01*
X119409000Y-38257000D02*
X119409000Y-35842000D01*
X119409000Y-35842000D02*
X119109000Y-35842000D01*
X119109000Y-35842000D02*
X119109000Y-34772000D01*
X119109000Y-34772000D02*
X124829000Y-34772000D01*
X124829000Y-34772000D02*
X124829000Y-38257000D01*
X65434400Y-79241000D02*
X65434400Y-78941000D01*
X65434400Y-78941000D02*
X64934400Y-78941000D01*
X67559400Y-79531000D02*
X65144400Y-79531000D01*
X65144400Y-79531000D02*
X65144400Y-79231000D01*
X65144400Y-79231000D02*
X64074400Y-79231000D01*
X64074400Y-79231000D02*
X64074400Y-84951000D01*
X64074400Y-84951000D02*
X67559400Y-84951000D01*
X67559400Y-79531000D02*
X69974400Y-79531000D01*
X69974400Y-79531000D02*
X69974400Y-79231000D01*
X69974400Y-79231000D02*
X71044400Y-79231000D01*
X71044400Y-79231000D02*
X71044400Y-84951000D01*
X71044400Y-84951000D02*
X67559400Y-84951000D01*
X81771500Y-33036000D02*
X83171500Y-33036000D01*
X83871500Y-33736000D02*
X83871500Y-34336000D01*
X83171500Y-35036000D02*
X81771500Y-35036000D01*
X81071500Y-34336000D02*
X81071500Y-33736000D01*
X81071500Y-33736000D02*
G75*
G02X81771500Y-33036000I700000J0D01*
G01*
X81771500Y-35036000D02*
G75*
G02X81071500Y-34336000I0J700000D01*
G01*
X83871500Y-34336000D02*
G75*
G02X83171500Y-35036000I-700000J0D01*
G01*
X83171500Y-33036000D02*
G75*
G02X83871500Y-33736000I0J-700000D01*
G01*
X94220500Y-33036000D02*
G75*
G02X94920500Y-33736000I0J-700000D01*
G01*
X94920500Y-34336000D02*
G75*
G02X94220500Y-35036000I-700000J0D01*
G01*
X92820500Y-35036000D02*
G75*
G02X92120500Y-34336000I0J700000D01*
G01*
X92120500Y-33736000D02*
G75*
G02X92820500Y-33036000I700000J0D01*
G01*
X92120500Y-34336000D02*
X92120500Y-33736000D01*
X94220500Y-35036000D02*
X92820500Y-35036000D01*
X94920500Y-33736000D02*
X94920500Y-34336000D01*
X92820500Y-33036000D02*
X94220500Y-33036000D01*
X48442600Y-75735400D02*
G75*
G02X47742600Y-75035400I0J700000D01*
G01*
X49742600Y-75035400D02*
G75*
G02X49042600Y-75735400I-700000J0D01*
G01*
X49042600Y-71635400D02*
G75*
G02X49742600Y-72335400I0J-700000D01*
G01*
X47742600Y-72335400D02*
G75*
G02X48442600Y-71635400I700000J0D01*
G01*
X47742600Y-75085400D02*
X47742600Y-72285400D01*
X48442600Y-71635400D02*
X49042600Y-71635400D01*
X49742600Y-72285400D02*
X49742600Y-75085400D01*
X49042600Y-75735400D02*
X48442600Y-75735400D01*
X49942600Y-74885400D02*
X50242600Y-75185400D01*
X50242600Y-75185400D02*
X50242600Y-74585400D01*
X49942600Y-74885400D02*
X50242600Y-74585400D01*
X29432400Y-65881400D02*
X29132400Y-66181400D01*
X29132400Y-65581400D02*
X29132400Y-66181400D01*
X29432400Y-65881400D02*
X29132400Y-65581400D01*
X30332400Y-65031400D02*
X30932400Y-65031400D01*
X29632400Y-68481400D02*
X29632400Y-65681400D01*
X30932400Y-69131400D02*
X30332400Y-69131400D01*
X31632400Y-65681400D02*
X31632400Y-68481400D01*
X31632400Y-68431400D02*
G75*
G02X30932400Y-69131400I-700000J0D01*
G01*
X30332400Y-69131400D02*
G75*
G02X29632400Y-68431400I0J700000D01*
G01*
X29632400Y-65731400D02*
G75*
G02X30332400Y-65031400I700000J0D01*
G01*
X30932400Y-65031400D02*
G75*
G02X31632400Y-65731400I0J-700000D01*
G01*
D13*
X38462000Y-60733000D02*
X51962000Y-60733000D01*
X51962000Y-48233000D02*
X38462000Y-48233000D01*
D15*
X26073900Y-54075000D02*
X28358900Y-54075000D01*
X26073900Y-52605000D02*
X26073900Y-54075000D01*
X28358900Y-52605000D02*
X26073900Y-52605000D01*
X26048500Y-64870000D02*
X28333500Y-64870000D01*
X26048500Y-63400000D02*
X26048500Y-64870000D01*
X28333500Y-63400000D02*
X26048500Y-63400000D01*
X98756800Y-65748100D02*
X98756800Y-68033100D01*
X98756800Y-68033100D02*
X100226800Y-68033100D01*
X100226800Y-68033100D02*
X100226800Y-65748100D01*
X101928600Y-68033100D02*
X101928600Y-65748100D01*
X100458600Y-68033100D02*
X101928600Y-68033100D01*
X100458600Y-65748100D02*
X100458600Y-68033100D01*
X103630400Y-68033100D02*
X103630400Y-65748100D01*
X102160400Y-68033100D02*
X103630400Y-68033100D01*
X102160400Y-65748100D02*
X102160400Y-68033100D01*
X102770000Y-43218900D02*
X102770000Y-45503900D01*
X104240000Y-43218900D02*
X102770000Y-43218900D01*
X104240000Y-45503900D02*
X104240000Y-43218900D01*
X102563600Y-45504000D02*
X102563600Y-43219000D01*
X102563600Y-43219000D02*
X101093600Y-43219000D01*
X101093600Y-43219000D02*
X101093600Y-45504000D01*
X100887200Y-45504000D02*
X100887200Y-43219000D01*
X100887200Y-43219000D02*
X99417200Y-43219000D01*
X99417200Y-43219000D02*
X99417200Y-45504000D01*
X78208200Y-72301300D02*
X78208200Y-74586300D01*
X78208200Y-74586300D02*
X79678200Y-74586300D01*
X79678200Y-74586300D02*
X79678200Y-72301300D01*
X81354600Y-74586200D02*
X81354600Y-72301200D01*
X79884600Y-74586200D02*
X81354600Y-74586200D01*
X79884600Y-72301200D02*
X79884600Y-74586200D01*
X81561000Y-72301300D02*
X81561000Y-74586300D01*
X81561000Y-74586300D02*
X83031000Y-74586300D01*
X83031000Y-74586300D02*
X83031000Y-72301300D01*
X84707400Y-74586100D02*
X84707400Y-72301100D01*
X83237400Y-74586100D02*
X84707400Y-74586100D01*
X83237400Y-72301100D02*
X83237400Y-74586100D01*
X97191500Y-35001000D02*
X97191500Y-32716000D01*
X97191500Y-32716000D02*
X95721500Y-32716000D01*
X95721500Y-32716000D02*
X95721500Y-35001000D01*
X108240500Y-35001000D02*
X108240500Y-32716000D01*
X108240500Y-32716000D02*
X106770500Y-32716000D01*
X106770500Y-32716000D02*
X106770500Y-35001000D01*
X75178400Y-73105800D02*
X76128400Y-73105800D01*
X76128400Y-73105800D02*
X76128400Y-72155800D01*
X66858400Y-73105800D02*
X65908400Y-73105800D01*
X65908400Y-73105800D02*
X65908400Y-72155800D01*
X75178400Y-62885800D02*
X76128400Y-62885800D01*
X76128400Y-62885800D02*
X76128400Y-63835800D01*
X66858400Y-62885800D02*
X65908400Y-62885800D01*
X65908400Y-62885800D02*
X65908400Y-63835800D01*
X65908400Y-63835800D02*
X64568400Y-63835800D01*
X71561000Y-31429000D02*
X71561000Y-26229000D01*
X53721000Y-31429000D02*
X71561000Y-31429000D01*
X51121000Y-26229000D02*
X71561000Y-26229000D01*
X53721000Y-31429000D02*
X53721000Y-28829000D01*
X53721000Y-28829000D02*
X51121000Y-28829000D01*
X51121000Y-28829000D02*
X51121000Y-26229000D01*
X52451000Y-31429000D02*
X51121000Y-31429000D01*
X51121000Y-31429000D02*
X51121000Y-30099000D01*
X51121000Y-31309000D02*
X51121000Y-33969000D01*
X68961000Y-31309000D02*
X51121000Y-31309000D01*
X68961000Y-33969000D02*
X51121000Y-33969000D01*
X68961000Y-31309000D02*
X68961000Y-33969000D01*
X70231000Y-31309000D02*
X71561000Y-31309000D01*
X71561000Y-31309000D02*
X71561000Y-32639000D01*
X40767936Y-35628000D02*
X44872064Y-35628000D01*
X40767936Y-39048000D02*
X44872064Y-39048000D01*
X27721779Y-54481000D02*
X27396221Y-54481000D01*
X27721779Y-55501000D02*
X27396221Y-55501000D01*
X27696279Y-66296000D02*
X27370721Y-66296000D01*
X27696279Y-65276000D02*
X27370721Y-65276000D01*
X98981800Y-69834979D02*
X98981800Y-69509421D01*
X100001800Y-69834979D02*
X100001800Y-69509421D01*
X101703600Y-69834979D02*
X101703600Y-69509421D01*
X100683600Y-69834979D02*
X100683600Y-69509421D01*
X102385400Y-69835079D02*
X102385400Y-69509521D01*
X103405400Y-69835079D02*
X103405400Y-69509521D01*
X102995000Y-41645521D02*
X102995000Y-41971079D01*
X104015000Y-41645521D02*
X104015000Y-41971079D01*
X101318600Y-41645621D02*
X101318600Y-41971179D01*
X102338600Y-41645621D02*
X102338600Y-41971179D01*
X100662200Y-41645621D02*
X100662200Y-41971179D01*
X99642200Y-41645621D02*
X99642200Y-41971179D01*
X91628079Y-55725600D02*
X91302521Y-55725600D01*
X91628079Y-56745600D02*
X91302521Y-56745600D01*
X62646679Y-66850800D02*
X62321121Y-66850800D01*
X62646679Y-67870800D02*
X62321121Y-67870800D01*
X78433200Y-76413579D02*
X78433200Y-76088021D01*
X79453200Y-76413579D02*
X79453200Y-76088021D01*
X81129600Y-76413579D02*
X81129600Y-76088021D01*
X80109600Y-76413579D02*
X80109600Y-76088021D01*
X82806000Y-76413579D02*
X82806000Y-76088021D01*
X81786000Y-76413579D02*
X81786000Y-76088021D01*
X83462400Y-76413579D02*
X83462400Y-76088021D01*
X84482400Y-76413579D02*
X84482400Y-76088021D01*
X98617500Y-34038221D02*
X98617500Y-34363779D01*
X97597500Y-34038221D02*
X97597500Y-34363779D01*
X109666500Y-34038221D02*
X109666500Y-34363779D01*
X108646500Y-34038221D02*
X108646500Y-34363779D01*
X119119000Y-50923000D02*
X118819000Y-50923000D01*
X118819000Y-50923000D02*
X118819000Y-51423000D01*
X119409000Y-47548000D02*
X119409000Y-51213000D01*
X119409000Y-51213000D02*
X119109000Y-51213000D01*
X119109000Y-51213000D02*
X119109000Y-52283000D01*
X119109000Y-52283000D02*
X124829000Y-52283000D01*
X124829000Y-52283000D02*
X124829000Y-47548000D01*
X119409000Y-47548000D02*
X119409000Y-43883000D01*
X119409000Y-43883000D02*
X119109000Y-43883000D01*
X119109000Y-43883000D02*
X119109000Y-42813000D01*
X119109000Y-42813000D02*
X124829000Y-42813000D01*
X124829000Y-42813000D02*
X124829000Y-47548000D01*
D12*
X44511000Y-46323000D02*
X44911000Y-46323000D01*
X44911000Y-46323000D02*
X44911000Y-45723000D01*
X44911000Y-41923000D02*
X44911000Y-41323000D01*
X44911000Y-41323000D02*
X44511000Y-41323000D01*
X38911000Y-45723000D02*
X38911000Y-46323000D01*
X38911000Y-46323000D02*
X39311000Y-46323000D01*
X38911000Y-41923000D02*
X38911000Y-41323000D01*
X38911000Y-41323000D02*
X39311000Y-41323000D01*
D17*
X31778400Y-55779400D02*
G75*
G03X31778400Y-55779400I-125000J0D01*
G01*
D12*
X85005800Y-47083800D02*
G75*
G03X85005800Y-47183800I0J-50000D01*
G01*
X85005800Y-47183800D02*
G75*
G03X85005800Y-47083800I0J50000D01*
G01*
X85005800Y-47183800D02*
X85005800Y-47183800D01*
X85005800Y-47083800D02*
X85005800Y-47083800D01*
X89905800Y-47683800D02*
X89905800Y-48683800D01*
X85705800Y-47683800D02*
X85705800Y-48683800D01*
X85705800Y-49783800D02*
X89905800Y-49783800D01*
X85705800Y-46583800D02*
X89905800Y-46583800D01*
D13*
X104053600Y-78610200D02*
X105953600Y-78610200D01*
X105953600Y-78610200D02*
X105953600Y-84610200D01*
X105953600Y-84610200D02*
X104053600Y-84610200D01*
X104053600Y-84610200D02*
X104053600Y-78610200D01*
X102303600Y-79210200D02*
X103703600Y-79210200D01*
X78580000Y-79210200D02*
X79980000Y-79210200D01*
X80330000Y-84610200D02*
X80330000Y-78610200D01*
X82230000Y-84610200D02*
X80330000Y-84610200D01*
X82230000Y-78610200D02*
X82230000Y-84610200D01*
X80330000Y-78610200D02*
X82230000Y-78610200D01*
X74291400Y-78610200D02*
X76191400Y-78610200D01*
X76191400Y-78610200D02*
X76191400Y-84610200D01*
X76191400Y-84610200D02*
X74291400Y-84610200D01*
X74291400Y-84610200D02*
X74291400Y-78610200D01*
X72541400Y-79210200D02*
X73941400Y-79210200D01*
D12*
X54981600Y-71569200D02*
X59181600Y-71569200D01*
X54981600Y-74769200D02*
X59181600Y-74769200D01*
X54981600Y-72669200D02*
X54981600Y-73669200D01*
X59181600Y-72669200D02*
X59181600Y-73669200D01*
X54281600Y-72069200D02*
X54281600Y-72069200D01*
X54281600Y-72169200D02*
X54281600Y-72169200D01*
X54281600Y-72169200D02*
G75*
G03X54281600Y-72069200I0J50000D01*
G01*
X54281600Y-72069200D02*
G75*
G03X54281600Y-72169200I0J-50000D01*
G01*
D15*
X99326400Y-84831000D02*
X99326400Y-84896000D01*
X95796400Y-84831000D02*
X95796400Y-84896000D01*
X99326400Y-78426000D02*
X99326400Y-78491000D01*
X95796400Y-78426000D02*
X95796400Y-78491000D01*
X94471400Y-78491000D02*
X95796400Y-78491000D01*
X95796400Y-84896000D02*
X99326400Y-84896000D01*
X95796400Y-78426000D02*
X99326400Y-78426000D01*
X86931800Y-78426000D02*
X90461800Y-78426000D01*
X86931800Y-84896000D02*
X90461800Y-84896000D01*
X85606800Y-78491000D02*
X86931800Y-78491000D01*
X86931800Y-78426000D02*
X86931800Y-78491000D01*
X90461800Y-78426000D02*
X90461800Y-78491000D01*
X86931800Y-84831000D02*
X86931800Y-84896000D01*
X90461800Y-84831000D02*
X90461800Y-84896000D01*
D18*
X50088800Y-41300400D02*
X49961800Y-41300400D01*
X49961800Y-41300400D02*
X49352200Y-41300400D01*
X49352200Y-41300400D02*
X49225200Y-41300400D01*
X49961800Y-41300400D02*
G75*
G02X49352200Y-41300400I-304800J0D01*
G01*
D10*
X66290600Y-36537000D02*
X66065600Y-36537000D01*
X66290600Y-41187000D02*
X65965600Y-41187000D01*
X56340600Y-41187000D02*
X56665600Y-41187000D01*
X56340600Y-36537000D02*
X56665600Y-36537000D01*
X66290600Y-36537000D02*
X66290600Y-41187000D01*
X56340600Y-36537000D02*
X56340600Y-41187000D01*
X66065600Y-36537000D02*
X66065600Y-35462000D01*
D13*
X108842800Y-67232400D02*
X109992800Y-67232400D01*
X110342800Y-70182400D02*
X110342800Y-67282400D01*
X110992800Y-70182400D02*
X110342800Y-70182400D01*
X110992800Y-67282400D02*
X110992800Y-70182400D01*
X110342800Y-67282400D02*
X110992800Y-67282400D01*
D17*
X87266200Y-68947200D02*
G75*
G03X87266200Y-68947200I-125000J0D01*
G01*
D14*
X77718000Y-54999000D02*
X77718000Y-53969000D01*
X77718000Y-53969000D02*
X77438000Y-53969000D01*
X77718000Y-55999000D02*
X77718000Y-57029000D01*
X77718000Y-57029000D02*
X77438000Y-57029000D01*
X73438000Y-57029000D02*
X73158000Y-57029000D01*
X73158000Y-57029000D02*
X73158000Y-55999000D01*
X73158000Y-54999000D02*
X73158000Y-53969000D01*
X73158000Y-53969000D02*
X73438000Y-53969000D01*
D13*
X73909000Y-53399000D02*
G75*
G03X73909000Y-53399000I-100000J0D01*
G01*
D15*
X52414600Y-67751600D02*
X54214600Y-67751600D01*
X54214600Y-64531600D02*
X51764600Y-64531600D01*
D14*
X62835000Y-48300000D02*
X63460000Y-48300000D01*
X63460000Y-48300000D02*
X63460000Y-48925000D01*
X58460000Y-48300000D02*
X59085000Y-48300000D01*
X58460000Y-48300000D02*
X58460000Y-48925000D01*
X58460000Y-53300000D02*
X59085000Y-53300000D01*
X58460000Y-53300000D02*
X58460000Y-52675000D01*
X63460000Y-53300000D02*
X62835000Y-53300000D01*
X63460000Y-53300000D02*
X63460000Y-52675000D01*
D13*
X59660000Y-47900000D02*
G75*
G03X59660000Y-47900000I-100000J0D01*
G01*
D12*
X74138000Y-47510000D02*
X74138000Y-47510000D01*
X74038000Y-47510000D02*
X74038000Y-47510000D01*
X74038000Y-47510000D02*
G75*
G02X74138000Y-47510000I50000J0D01*
G01*
X74138000Y-47510000D02*
G75*
G02X74038000Y-47510000I-50000J0D01*
G01*
D13*
X58095000Y-56944600D02*
X58745000Y-56944600D01*
X58745000Y-56944600D02*
X58745000Y-59844600D01*
X58745000Y-59844600D02*
X58095000Y-59844600D01*
X58095000Y-59844600D02*
X58095000Y-56944600D01*
X56595000Y-56894600D02*
X57745000Y-56894600D01*
D15*
X104489000Y-36322000D02*
X104489000Y-32872000D01*
X104489000Y-36322000D02*
X104489000Y-38272000D01*
X99219000Y-36322000D02*
X99219000Y-34372000D01*
X99219000Y-36322000D02*
X99219000Y-38272000D01*
X110268000Y-36330000D02*
X110268000Y-38280000D01*
X110268000Y-36330000D02*
X110268000Y-34380000D01*
X115538000Y-36330000D02*
X115538000Y-38280000D01*
X115538000Y-36330000D02*
X115538000Y-32880000D01*
X124829000Y-53441000D02*
X124829000Y-56926000D01*
X119109000Y-53441000D02*
X124829000Y-53441000D01*
X119109000Y-54511000D02*
X119109000Y-53441000D01*
X119409000Y-54511000D02*
X119109000Y-54511000D01*
X119409000Y-56926000D02*
X119409000Y-54511000D01*
X124829000Y-60411000D02*
X124829000Y-56926000D01*
X119109000Y-60411000D02*
X124829000Y-60411000D01*
X119109000Y-59341000D02*
X119109000Y-60411000D01*
X119409000Y-59341000D02*
X119109000Y-59341000D01*
X119409000Y-56926000D02*
X119409000Y-59341000D01*
X118819000Y-59051000D02*
X118819000Y-59551000D01*
X119119000Y-59051000D02*
X118819000Y-59051000D01*
X119119000Y-75307000D02*
X118819000Y-75307000D01*
X118819000Y-75307000D02*
X118819000Y-75807000D01*
X119409000Y-73182000D02*
X119409000Y-75597000D01*
X119409000Y-75597000D02*
X119109000Y-75597000D01*
X119109000Y-75597000D02*
X119109000Y-76667000D01*
X119109000Y-76667000D02*
X124829000Y-76667000D01*
X124829000Y-76667000D02*
X124829000Y-73182000D01*
X119409000Y-73182000D02*
X119409000Y-70767000D01*
X119409000Y-70767000D02*
X119109000Y-70767000D01*
X119109000Y-70767000D02*
X119109000Y-69697000D01*
X119109000Y-69697000D02*
X124829000Y-69697000D01*
X124829000Y-69697000D02*
X124829000Y-73182000D01*
X62967200Y-84951000D02*
X59482200Y-84951000D01*
X62967200Y-79231000D02*
X62967200Y-84951000D01*
X61897200Y-79231000D02*
X62967200Y-79231000D01*
X61897200Y-79531000D02*
X61897200Y-79231000D01*
X59482200Y-79531000D02*
X61897200Y-79531000D01*
X55997200Y-84951000D02*
X59482200Y-84951000D01*
X55997200Y-79231000D02*
X55997200Y-84951000D01*
X57067200Y-79231000D02*
X55997200Y-79231000D01*
X57067200Y-79531000D02*
X57067200Y-79231000D01*
X59482200Y-79531000D02*
X57067200Y-79531000D01*
X57357200Y-78941000D02*
X56857200Y-78941000D01*
X57357200Y-79241000D02*
X57357200Y-78941000D01*
X124829000Y-61569000D02*
X124829000Y-65054000D01*
X119109000Y-61569000D02*
X124829000Y-61569000D01*
X119109000Y-62639000D02*
X119109000Y-61569000D01*
X119409000Y-62639000D02*
X119109000Y-62639000D01*
X119409000Y-65054000D02*
X119409000Y-62639000D01*
X124829000Y-68539000D02*
X124829000Y-65054000D01*
X119109000Y-68539000D02*
X124829000Y-68539000D01*
X119109000Y-67469000D02*
X119109000Y-68539000D01*
X119409000Y-67469000D02*
X119109000Y-67469000D01*
X119409000Y-65054000D02*
X119409000Y-67469000D01*
X118819000Y-67179000D02*
X118819000Y-67679000D01*
X119119000Y-67179000D02*
X118819000Y-67179000D01*
D10*
X77067000Y-31610000D02*
X76342000Y-31610000D01*
X80667000Y-31610000D02*
X81392000Y-31610000D01*
X80667000Y-32035000D02*
X80667000Y-31610000D01*
X79942000Y-32035000D02*
X80667000Y-32035000D01*
X74717000Y-28460000D02*
X74717000Y-29860000D01*
X74717000Y-25910000D02*
X74717000Y-26060000D01*
X75017000Y-25910000D02*
X74717000Y-25910000D01*
X75017000Y-25460000D02*
X75017000Y-25910000D01*
X82717000Y-25910000D02*
X82717000Y-25460000D01*
X83017000Y-25910000D02*
X82717000Y-25910000D01*
X83017000Y-26060000D02*
X83017000Y-25910000D01*
X83017000Y-29860000D02*
X83017000Y-28460000D01*
X88116000Y-31610000D02*
X87391000Y-31610000D01*
X91716000Y-31610000D02*
X92441000Y-31610000D01*
X91716000Y-32035000D02*
X91716000Y-31610000D01*
X90991000Y-32035000D02*
X91716000Y-32035000D01*
X85766000Y-28460000D02*
X85766000Y-29860000D01*
X85766000Y-25910000D02*
X85766000Y-26060000D01*
X86066000Y-25910000D02*
X85766000Y-25910000D01*
X86066000Y-25460000D02*
X86066000Y-25910000D01*
X93766000Y-25910000D02*
X93766000Y-25460000D01*
X94066000Y-25910000D02*
X93766000Y-25910000D01*
X94066000Y-26060000D02*
X94066000Y-25910000D01*
X94066000Y-29860000D02*
X94066000Y-28460000D01*
X105115000Y-29860000D02*
X105115000Y-28460000D01*
X105115000Y-26060000D02*
X105115000Y-25910000D01*
X105115000Y-25910000D02*
X104815000Y-25910000D01*
X104815000Y-25910000D02*
X104815000Y-25460000D01*
X97115000Y-25460000D02*
X97115000Y-25910000D01*
X97115000Y-25910000D02*
X96815000Y-25910000D01*
X96815000Y-25910000D02*
X96815000Y-26060000D01*
X96815000Y-28460000D02*
X96815000Y-29860000D01*
X102040000Y-32035000D02*
X102765000Y-32035000D01*
X102765000Y-32035000D02*
X102765000Y-31610000D01*
X102765000Y-31610000D02*
X103490000Y-31610000D01*
X99165000Y-31610000D02*
X98440000Y-31610000D01*
X116164000Y-29860000D02*
X116164000Y-28460000D01*
X116164000Y-26060000D02*
X116164000Y-25910000D01*
X116164000Y-25910000D02*
X115864000Y-25910000D01*
X115864000Y-25910000D02*
X115864000Y-25460000D01*
X108164000Y-25460000D02*
X108164000Y-25910000D01*
X108164000Y-25910000D02*
X107864000Y-25910000D01*
X107864000Y-25910000D02*
X107864000Y-26060000D01*
X107864000Y-28460000D02*
X107864000Y-29860000D01*
X113089000Y-32035000D02*
X113814000Y-32035000D01*
X113814000Y-32035000D02*
X113814000Y-31610000D01*
X113814000Y-31610000D02*
X114539000Y-31610000D01*
X110214000Y-31610000D02*
X109489000Y-31610000D01*
D12*
X28590904Y-62591190D02*
X28638523Y-62591190D01*
X28686142Y-62615000D01*
X28709952Y-62638809D01*
X28733761Y-62686428D01*
X28757571Y-62781666D01*
X28757571Y-62900714D01*
X28733761Y-62995952D01*
X28709952Y-63043571D01*
X28686142Y-63067380D01*
X28638523Y-63091190D01*
X28590904Y-63091190D01*
X28543285Y-63067380D01*
X28519476Y-63043571D01*
X28495666Y-62995952D01*
X28471857Y-62900714D01*
X28471857Y-62781666D01*
X28495666Y-62686428D01*
X28519476Y-62638809D01*
X28543285Y-62615000D01*
X28590904Y-62591190D01*
X28900428Y-62591190D02*
X29067095Y-63091190D01*
X29233761Y-62591190D01*
X30292752Y-62591190D02*
X30602276Y-62591190D01*
X30435609Y-62781666D01*
X30507038Y-62781666D01*
X30554657Y-62805476D01*
X30578466Y-62829285D01*
X30602276Y-62876904D01*
X30602276Y-62995952D01*
X30578466Y-63043571D01*
X30554657Y-63067380D01*
X30507038Y-63091190D01*
X30364180Y-63091190D01*
X30316561Y-63067380D01*
X30292752Y-63043571D01*
X30745133Y-62591190D02*
X30911800Y-63091190D01*
X31078466Y-62591190D01*
X31197514Y-62591190D02*
X31507038Y-62591190D01*
X31340371Y-62781666D01*
X31411800Y-62781666D01*
X31459419Y-62805476D01*
X31483228Y-62829285D01*
X31507038Y-62876904D01*
X31507038Y-62995952D01*
X31483228Y-63043571D01*
X31459419Y-63067380D01*
X31411800Y-63091190D01*
X31268942Y-63091190D01*
X31221323Y-63067380D01*
X31197514Y-63043571D01*
X32924761Y-62591190D02*
X32686666Y-62591190D01*
X32662857Y-62829285D01*
X32686666Y-62805476D01*
X32734285Y-62781666D01*
X32853333Y-62781666D01*
X32900952Y-62805476D01*
X32924761Y-62829285D01*
X32948571Y-62876904D01*
X32948571Y-62995952D01*
X32924761Y-63043571D01*
X32900952Y-63067380D01*
X32853333Y-63091190D01*
X32734285Y-63091190D01*
X32686666Y-63067380D01*
X32662857Y-63043571D01*
X33091428Y-62591190D02*
X33258095Y-63091190D01*
X33424761Y-62591190D01*
D10*
X111766904Y-78398666D02*
X112243095Y-78398666D01*
X111671666Y-78684380D02*
X112005000Y-77684380D01*
X112338333Y-78684380D01*
X112671666Y-78684380D02*
X112671666Y-77684380D01*
X112909761Y-77684380D01*
X113052619Y-77732000D01*
X113147857Y-77827238D01*
X113195476Y-77922476D01*
X113243095Y-78112952D01*
X113243095Y-78255809D01*
X113195476Y-78446285D01*
X113147857Y-78541523D01*
X113052619Y-78636761D01*
X112909761Y-78684380D01*
X112671666Y-78684380D01*
X114243095Y-78589142D02*
X114195476Y-78636761D01*
X114052619Y-78684380D01*
X113957380Y-78684380D01*
X113814523Y-78636761D01*
X113719285Y-78541523D01*
X113671666Y-78446285D01*
X113624047Y-78255809D01*
X113624047Y-78112952D01*
X113671666Y-77922476D01*
X113719285Y-77827238D01*
X113814523Y-77732000D01*
X113957380Y-77684380D01*
X114052619Y-77684380D01*
X114195476Y-77732000D01*
X114243095Y-77779619D01*
X105822857Y-60888571D02*
X105489523Y-60888571D01*
X105489523Y-61412380D02*
X105489523Y-60412380D01*
X105965714Y-60412380D01*
X106918095Y-61317142D02*
X106870476Y-61364761D01*
X106727619Y-61412380D01*
X106632380Y-61412380D01*
X106489523Y-61364761D01*
X106394285Y-61269523D01*
X106346666Y-61174285D01*
X106299047Y-60983809D01*
X106299047Y-60840952D01*
X106346666Y-60650476D01*
X106394285Y-60555238D01*
X106489523Y-60460000D01*
X106632380Y-60412380D01*
X106727619Y-60412380D01*
X106870476Y-60460000D01*
X106918095Y-60507619D01*
X107918095Y-61317142D02*
X107870476Y-61364761D01*
X107727619Y-61412380D01*
X107632380Y-61412380D01*
X107489523Y-61364761D01*
X107394285Y-61269523D01*
X107346666Y-61174285D01*
X107299047Y-60983809D01*
X107299047Y-60840952D01*
X107346666Y-60650476D01*
X107394285Y-60555238D01*
X107489523Y-60460000D01*
X107632380Y-60412380D01*
X107727619Y-60412380D01*
X107870476Y-60460000D01*
X107918095Y-60507619D01*
X32989828Y-71651904D02*
X32942209Y-71794761D01*
X32894590Y-71842380D01*
X32799352Y-71890000D01*
X32656495Y-71890000D01*
X32561257Y-71842380D01*
X32513638Y-71794761D01*
X32466019Y-71699523D01*
X32466019Y-71318571D01*
X33466019Y-71318571D01*
X33466019Y-71651904D01*
X33418400Y-71747142D01*
X33370780Y-71794761D01*
X33275542Y-71842380D01*
X33180304Y-71842380D01*
X33085066Y-71794761D01*
X33037447Y-71747142D01*
X32989828Y-71651904D01*
X32989828Y-71318571D01*
X32751733Y-72270952D02*
X32751733Y-72747142D01*
X32466019Y-72175714D02*
X33466019Y-72509047D01*
X32466019Y-72842380D01*
X33466019Y-73032857D02*
X33466019Y-73604285D01*
X32466019Y-73318571D02*
X33466019Y-73318571D01*
X48826913Y-77646999D02*
X48731675Y-77599379D01*
X48588818Y-77599379D01*
X48445960Y-77646999D01*
X48350722Y-77742237D01*
X48303103Y-77837475D01*
X48255484Y-78027951D01*
X48255484Y-78170808D01*
X48303103Y-78361284D01*
X48350722Y-78456522D01*
X48445960Y-78551760D01*
X48588818Y-78599379D01*
X48684056Y-78599379D01*
X48826913Y-78551760D01*
X48874532Y-78504141D01*
X48874532Y-78170808D01*
X48684056Y-78170808D01*
X49303103Y-78599379D02*
X49303103Y-77599379D01*
X49684056Y-77599379D01*
X49779294Y-77646999D01*
X49826913Y-77694618D01*
X49874532Y-77789856D01*
X49874532Y-77932713D01*
X49826913Y-78027951D01*
X49779294Y-78075570D01*
X49684056Y-78123189D01*
X49303103Y-78123189D01*
X50255484Y-78551760D02*
X50398341Y-78599379D01*
X50636437Y-78599379D01*
X50731675Y-78551760D01*
X50779294Y-78504141D01*
X50826913Y-78408903D01*
X50826913Y-78313665D01*
X50779294Y-78218427D01*
X50731675Y-78170808D01*
X50636437Y-78123189D01*
X50445960Y-78075570D01*
X50350722Y-78027951D01*
X50303103Y-77980332D01*
X50255484Y-77885094D01*
X50255484Y-77789856D01*
X50303103Y-77694618D01*
X50350722Y-77646999D01*
X50445960Y-77599379D01*
X50684056Y-77599379D01*
X50826913Y-77646999D01*
X118460780Y-39177790D02*
X117460780Y-39177790D01*
X117556019Y-38749219D02*
X117508400Y-38701600D01*
X117460780Y-38606361D01*
X117460780Y-38368266D01*
X117508400Y-38273028D01*
X117556019Y-38225409D01*
X117651257Y-38177790D01*
X117746495Y-38177790D01*
X117889352Y-38225409D01*
X118460780Y-38796838D01*
X118460780Y-38177790D01*
X118365542Y-37177790D02*
X118413161Y-37225409D01*
X118460780Y-37368266D01*
X118460780Y-37463504D01*
X118413161Y-37606361D01*
X118317923Y-37701600D01*
X118222685Y-37749219D01*
X118032209Y-37796838D01*
X117889352Y-37796838D01*
X117698876Y-37749219D01*
X117603638Y-37701600D01*
X117508400Y-37606361D01*
X117460780Y-37463504D01*
X117460780Y-37368266D01*
X117508400Y-37225409D01*
X117556019Y-37177790D01*
X66587809Y-78557380D02*
X66587809Y-77557380D01*
X67016380Y-77652619D02*
X67064000Y-77605000D01*
X67159238Y-77557380D01*
X67397333Y-77557380D01*
X67492571Y-77605000D01*
X67540190Y-77652619D01*
X67587809Y-77747857D01*
X67587809Y-77843095D01*
X67540190Y-77985952D01*
X66968761Y-78557380D01*
X67587809Y-78557380D01*
X68587809Y-78462142D02*
X68540190Y-78509761D01*
X68397333Y-78557380D01*
X68302095Y-78557380D01*
X68159238Y-78509761D01*
X68064000Y-78414523D01*
X68016380Y-78319285D01*
X67968761Y-78128809D01*
X67968761Y-77985952D01*
X68016380Y-77795476D01*
X68064000Y-77700238D01*
X68159238Y-77605000D01*
X68302095Y-77557380D01*
X68397333Y-77557380D01*
X68540190Y-77605000D01*
X68587809Y-77652619D01*
X69375542Y-68498980D02*
X69375542Y-67498980D01*
X69946971Y-68498980D01*
X69946971Y-67498980D01*
X70375542Y-68213266D02*
X70851733Y-68213266D01*
X70280304Y-68498980D02*
X70613638Y-67498980D01*
X70946971Y-68498980D01*
X71137447Y-67498980D02*
X71470780Y-68498980D01*
X71804114Y-67498980D01*
X72708876Y-68403742D02*
X72661257Y-68451361D01*
X72518399Y-68498980D01*
X72423161Y-68498980D01*
X72280304Y-68451361D01*
X72185066Y-68356123D01*
X72137447Y-68260885D01*
X72089828Y-68070409D01*
X72089828Y-67927552D01*
X72137447Y-67737076D01*
X72185066Y-67641838D01*
X72280304Y-67546600D01*
X72423161Y-67498980D01*
X72518399Y-67498980D01*
X72661257Y-67546600D01*
X72708876Y-67594219D01*
X118460780Y-47764676D02*
X117984590Y-48098009D01*
X118460780Y-48336104D02*
X117460780Y-48336104D01*
X117460780Y-47955152D01*
X117508400Y-47859914D01*
X117556019Y-47812295D01*
X117651257Y-47764676D01*
X117794114Y-47764676D01*
X117889352Y-47812295D01*
X117936971Y-47859914D01*
X117984590Y-47955152D01*
X117984590Y-48336104D01*
X118365542Y-46764676D02*
X118413161Y-46812295D01*
X118460780Y-46955152D01*
X118460780Y-47050390D01*
X118413161Y-47193247D01*
X118317923Y-47288485D01*
X118222685Y-47336104D01*
X118032209Y-47383723D01*
X117889352Y-47383723D01*
X117698876Y-47336104D01*
X117603638Y-47288485D01*
X117508400Y-47193247D01*
X117460780Y-47050390D01*
X117460780Y-46955152D01*
X117508400Y-46812295D01*
X117556019Y-46764676D01*
X95775685Y-77830761D02*
X95918542Y-77878380D01*
X96156638Y-77878380D01*
X96251876Y-77830761D01*
X96299495Y-77783142D01*
X96347114Y-77687904D01*
X96347114Y-77592666D01*
X96299495Y-77497428D01*
X96251876Y-77449809D01*
X96156638Y-77402190D01*
X95966161Y-77354571D01*
X95870923Y-77306952D01*
X95823304Y-77259333D01*
X95775685Y-77164095D01*
X95775685Y-77068857D01*
X95823304Y-76973619D01*
X95870923Y-76926000D01*
X95966161Y-76878380D01*
X96204257Y-76878380D01*
X96347114Y-76926000D01*
X96680447Y-76878380D02*
X96918542Y-77878380D01*
X97109019Y-77164095D01*
X97299495Y-77878380D01*
X97537590Y-76878380D01*
X97918542Y-77878380D02*
X97918542Y-76878380D01*
X98156638Y-76878380D01*
X98299495Y-76926000D01*
X98394733Y-77021238D01*
X98442352Y-77116476D01*
X98489971Y-77306952D01*
X98489971Y-77449809D01*
X98442352Y-77640285D01*
X98394733Y-77735523D01*
X98299495Y-77830761D01*
X98156638Y-77878380D01*
X97918542Y-77878380D01*
X99251876Y-77354571D02*
X98918542Y-77354571D01*
X98918542Y-77878380D02*
X98918542Y-76878380D01*
X99394733Y-76878380D01*
X86815847Y-77830761D02*
X86958704Y-77878380D01*
X87196800Y-77878380D01*
X87292038Y-77830761D01*
X87339657Y-77783142D01*
X87387276Y-77687904D01*
X87387276Y-77592666D01*
X87339657Y-77497428D01*
X87292038Y-77449809D01*
X87196800Y-77402190D01*
X87006323Y-77354571D01*
X86911085Y-77306952D01*
X86863466Y-77259333D01*
X86815847Y-77164095D01*
X86815847Y-77068857D01*
X86863466Y-76973619D01*
X86911085Y-76926000D01*
X87006323Y-76878380D01*
X87244419Y-76878380D01*
X87387276Y-76926000D01*
X87720609Y-76878380D02*
X87958704Y-77878380D01*
X88149180Y-77164095D01*
X88339657Y-77878380D01*
X88577752Y-76878380D01*
X88958704Y-77878380D02*
X88958704Y-76878380D01*
X89196800Y-76878380D01*
X89339657Y-76926000D01*
X89434895Y-77021238D01*
X89482514Y-77116476D01*
X89530133Y-77306952D01*
X89530133Y-77449809D01*
X89482514Y-77640285D01*
X89434895Y-77735523D01*
X89339657Y-77830761D01*
X89196800Y-77878380D01*
X88958704Y-77878380D01*
X89958704Y-77878380D02*
X89958704Y-76878380D01*
X90530133Y-77878380D01*
X90530133Y-76878380D01*
X117511580Y-59087666D02*
X117511580Y-58516238D01*
X118511580Y-58801952D02*
X117511580Y-58801952D01*
X117987771Y-58182904D02*
X117987771Y-57849571D01*
X118511580Y-57706714D02*
X118511580Y-58182904D01*
X117511580Y-58182904D01*
X117511580Y-57706714D01*
X118511580Y-56801952D02*
X118511580Y-57278142D01*
X117511580Y-57278142D01*
X117987771Y-56468619D02*
X117987771Y-56135285D01*
X118511580Y-55992428D02*
X118511580Y-56468619D01*
X117511580Y-56468619D01*
X117511580Y-55992428D01*
X118511580Y-55563857D02*
X117511580Y-55563857D01*
X118225866Y-55230523D01*
X117511580Y-54897190D01*
X118511580Y-54897190D01*
X117435380Y-74747238D02*
X118244904Y-74747238D01*
X118340142Y-74699619D01*
X118387761Y-74652000D01*
X118435380Y-74556761D01*
X118435380Y-74366285D01*
X118387761Y-74271047D01*
X118340142Y-74223428D01*
X118244904Y-74175809D01*
X117435380Y-74175809D01*
X118149666Y-73747238D02*
X118149666Y-73271047D01*
X118435380Y-73842476D02*
X117435380Y-73509142D01*
X118435380Y-73175809D01*
X118435380Y-72271047D02*
X117959190Y-72604380D01*
X118435380Y-72842476D02*
X117435380Y-72842476D01*
X117435380Y-72461523D01*
X117483000Y-72366285D01*
X117530619Y-72318666D01*
X117625857Y-72271047D01*
X117768714Y-72271047D01*
X117863952Y-72318666D01*
X117911571Y-72366285D01*
X117959190Y-72461523D01*
X117959190Y-72842476D01*
X117435380Y-71985333D02*
X117435380Y-71413904D01*
X118435380Y-71699619D02*
X117435380Y-71699619D01*
X57891561Y-77582780D02*
X57891561Y-78392304D01*
X57939180Y-78487542D01*
X57986800Y-78535161D01*
X58082038Y-78582780D01*
X58272514Y-78582780D01*
X58367752Y-78535161D01*
X58415371Y-78487542D01*
X58462990Y-78392304D01*
X58462990Y-77582780D01*
X58891561Y-78297066D02*
X59367752Y-78297066D01*
X58796323Y-78582780D02*
X59129657Y-77582780D01*
X59462990Y-78582780D01*
X60367752Y-78582780D02*
X60034419Y-78106590D01*
X59796323Y-78582780D02*
X59796323Y-77582780D01*
X60177276Y-77582780D01*
X60272514Y-77630400D01*
X60320133Y-77678019D01*
X60367752Y-77773257D01*
X60367752Y-77916114D01*
X60320133Y-78011352D01*
X60272514Y-78058971D01*
X60177276Y-78106590D01*
X59796323Y-78106590D01*
X60653466Y-77582780D02*
X61224895Y-77582780D01*
X60939180Y-78582780D02*
X60939180Y-77582780D01*
X118413161Y-66809714D02*
X118460780Y-66666857D01*
X118460780Y-66428761D01*
X118413161Y-66333523D01*
X118365542Y-66285904D01*
X118270304Y-66238285D01*
X118175066Y-66238285D01*
X118079828Y-66285904D01*
X118032209Y-66333523D01*
X117984590Y-66428761D01*
X117936971Y-66619238D01*
X117889352Y-66714476D01*
X117841733Y-66762095D01*
X117746495Y-66809714D01*
X117651257Y-66809714D01*
X117556019Y-66762095D01*
X117508400Y-66714476D01*
X117460780Y-66619238D01*
X117460780Y-66381142D01*
X117508400Y-66238285D01*
X117936971Y-65476380D02*
X117984590Y-65333523D01*
X118032209Y-65285904D01*
X118127447Y-65238285D01*
X118270304Y-65238285D01*
X118365542Y-65285904D01*
X118413161Y-65333523D01*
X118460780Y-65428761D01*
X118460780Y-65809714D01*
X117460780Y-65809714D01*
X117460780Y-65476380D01*
X117508400Y-65381142D01*
X117556019Y-65333523D01*
X117651257Y-65285904D01*
X117746495Y-65285904D01*
X117841733Y-65333523D01*
X117889352Y-65381142D01*
X117936971Y-65476380D01*
X117936971Y-65809714D01*
X117460780Y-64809714D02*
X118270304Y-64809714D01*
X118365542Y-64762095D01*
X118413161Y-64714476D01*
X118460780Y-64619238D01*
X118460780Y-64428761D01*
X118413161Y-64333523D01*
X118365542Y-64285904D01*
X118270304Y-64238285D01*
X117460780Y-64238285D01*
X118413161Y-63809714D02*
X118460780Y-63666857D01*
X118460780Y-63428761D01*
X118413161Y-63333523D01*
X118365542Y-63285904D01*
X118270304Y-63238285D01*
X118175066Y-63238285D01*
X118079828Y-63285904D01*
X118032209Y-63333523D01*
X117984590Y-63428761D01*
X117936971Y-63619238D01*
X117889352Y-63714476D01*
X117841733Y-63762095D01*
X117746495Y-63809714D01*
X117651257Y-63809714D01*
X117556019Y-63762095D01*
X117508400Y-63714476D01*
X117460780Y-63619238D01*
X117460780Y-63381142D01*
X117508400Y-63238285D01*
M02*
