M48
METRIC,TZ
T1C0.300
T2C0.400
T3C0.500
T4C1.000
T5C1.200
T6C1.400
T7C1.500
T8C1.600
T9C3.200
T10C4.500
%
G90
G05
T1
X40123Y-40386
X41275Y-40767
X42291Y-38227
X72593Y-66929
X73431Y-66777
T2
X26670Y-33020
X26670Y-34290
X26670Y-35560
X26670Y-44450
X26670Y-45720
X26670Y-52070
X26670Y-59690
X26670Y-60960
X26670Y-62230
X26670Y-67310
X26670Y-68580
X26670Y-71120
X26670Y-72390
X26670Y-73660
X26670Y-76200
X26670Y-77470
X27305Y-56972
X27305Y-57912
X28194Y-56972
X28194Y-57912
X29083Y-56972
X29083Y-57912
X29210Y-34290
X29210Y-45720
X29210Y-76200
X29972Y-54864
X29972Y-55753
X30480Y-59690
X30861Y-54864
X30861Y-55753
X31090Y-44704
X31369Y-59690
X31750Y-34290
X31750Y-54864
X31750Y-76200
X32004Y-46203
X32258Y-59690
X33020Y-26670
X33020Y-83820
X33147Y-59690
X34036Y-59690
X34290Y-68580
X34290Y-71120
X34290Y-73660
X34290Y-76200
X34925Y-59690
X34925Y-60579
X35052Y-47625
X35052Y-48514
X35077Y-63627
X35560Y-62611
X35814Y-59690
X35814Y-60579
X36068Y-47625
X36068Y-48514
X36830Y-76200
X37338Y-42774
X37338Y-43891
X37338Y-44983
X37338Y-46050
X37338Y-47117
X37338Y-48184
X37541Y-66294
X38100Y-59690
X38100Y-68580
X38100Y-71120
X38100Y-83820
X39370Y-49530
X39370Y-50800
X39370Y-83820
X39751Y-66294
X40640Y-49530
X40640Y-50800
X40640Y-59690
X40640Y-71120
X40843Y-75260
X41300Y-71933
X41910Y-49530
X41910Y-50800
X42144Y-47015
X43180Y-49530
X43180Y-50800
X43180Y-52070
X43180Y-53340
X43180Y-54610
X43180Y-55880
X43180Y-59690
X43180Y-62230
X43180Y-83820
X44450Y-68580
X44450Y-71120
X45568Y-43891
X45720Y-59690
X45720Y-62230
X45720Y-83820
X46990Y-83820
X47752Y-64694
X48260Y-59690
X48260Y-62230
X48260Y-71120
X48260Y-83820
X48743Y-76556
X49530Y-83820
X50800Y-59690
X50800Y-62230
X50800Y-64770
X50800Y-67107
X50800Y-83820
X52070Y-83820
X53340Y-62230
X53340Y-83820
X55778Y-67107
X55880Y-38100
X55880Y-43180
X55880Y-52070
X55880Y-54610
X56159Y-64364
X56312Y-50317
X57150Y-83820
X57556Y-69190
X57556Y-70561
X58420Y-38100
X58420Y-43180
X58420Y-45720
X58420Y-54610
X58420Y-83820
X59690Y-54610
X59690Y-83820
X60554Y-63144
X60960Y-38100
X60960Y-43180
X60960Y-45720
X60960Y-83820
X61036Y-59360
X61849Y-49784
X61849Y-63119
X61874Y-64287
X62230Y-83820
X62611Y-71120
X63094Y-54381
X63500Y-38100
X63500Y-45720
X64237Y-43612
X64770Y-83820
X64999Y-76175
X65100Y-59309
X65430Y-75259
X65710Y-43256
X66040Y-38100
X66040Y-45720
X66040Y-57150
X66040Y-83820
X66396Y-59563
X66700Y-55702
X67005Y-36017
X67310Y-71501
X67310Y-83820
X67386Y-65710
X67412Y-64389
X68224Y-41707
X68580Y-38100
X68580Y-40640
X68580Y-45720
X68580Y-48260
X68580Y-53340
X68580Y-83820
X68834Y-68174
X69012Y-75413
X69012Y-76556
X69596Y-64110
X69825Y-60503
X69850Y-83820
X70231Y-75438
X70347Y-70155
X70434Y-66827
X70714Y-63779
X70866Y-71298
X71120Y-38100
X71120Y-40640
X71120Y-45720
X71247Y-65989
X71730Y-70409
X71755Y-75438
X71780Y-59182
X71780Y-71958
X72339Y-66015
X72415Y-58395
X72466Y-64110
X73228Y-65380
X73228Y-80899
X73381Y-52756
X73431Y-70409
X73660Y-38100
X73660Y-40640
X73660Y-45720
X74549Y-60325
X74608Y-68631
X74930Y-83820
X75057Y-69952
X75184Y-66802
X75565Y-72542
X76200Y-38100
X76200Y-40640
X76556Y-61189
X76606Y-52857
X77216Y-58064
X77445Y-36170
X77470Y-26670
X77470Y-83820
X77495Y-50800
X77546Y-53162
X77699Y-46761
X77699Y-49759
X78740Y-26670
X78740Y-38100
X78740Y-40640
X78740Y-45720
X78791Y-56667
X78918Y-36119
X79273Y-80899
X80010Y-26670
X80188Y-36652
X81280Y-26670
X81280Y-38100
X81280Y-40640
X81280Y-45720
X81280Y-48260
X81280Y-50800
X81280Y-53340
X81280Y-83820
X82245Y-68580
X82982Y-38100
X84963Y-79121
X85090Y-53340
X85090Y-54610
X85090Y-55880
X85090Y-57150
X85090Y-58268
X85471Y-75159
X85496Y-63043
X85928Y-70282
X86360Y-45720
X86462Y-76352
X86512Y-58268
X86690Y-63475
X87122Y-75438
X87630Y-26670
X87859Y-67564
X87859Y-68529
X88494Y-35077
X88494Y-38938
X88900Y-26670
X88900Y-45720
X89459Y-61112
X89459Y-62408
X89510Y-51003
X89510Y-52222
X90170Y-26670
X90170Y-74930
X90551Y-61087
X90602Y-59969
X91440Y-26670
X91440Y-40640
X91440Y-45720
X91440Y-54254
X92354Y-67640
X92507Y-51206
X92710Y-74930
X92710Y-77470
X93320Y-67640
X93828Y-79121
X94209Y-48717
X94285Y-67640
X94463Y-45466
X95199Y-48870
X95250Y-74930
X95250Y-77343
X95936Y-51841
X96139Y-54585
X96444Y-57175
X96520Y-38100
X96749Y-68707
X97536Y-53264
X97714Y-57023
X97714Y-60884
X97815Y-49733
X97815Y-50902
X97993Y-46431
X98501Y-53264
X99060Y-26670
X100305Y-59131
X100330Y-26670
X100762Y-29591
X101168Y-59868
X101397Y-49733
X101397Y-50851
X101397Y-51968
X101397Y-53086
X101397Y-54204
X101397Y-55321
X101397Y-56439
X101397Y-57556
X101600Y-26670
X101854Y-29591
X102184Y-35128
X102616Y-28702
X102743Y-60325
X102870Y-26670
X102997Y-80899
X103378Y-61468
X103454Y-35128
X104572Y-37821
X104750Y-57480
X104902Y-60960
X104927Y-41326
X105029Y-77343
X105410Y-69850
X106147Y-60960
X106172Y-67691
X106680Y-50800
X106680Y-51816
X106680Y-52832
X106680Y-53848
X106680Y-55321
X106680Y-56490
X106680Y-83820
X106731Y-59106
X107823Y-59106
X107950Y-40640
X107950Y-69850
X108255Y-46177
X108890Y-47549
X110160Y-62586
X110490Y-26670
X110490Y-83820
X111684Y-51638
X111709Y-40996
X111760Y-26670
X111760Y-45720
X111760Y-63500
X111760Y-66040
X111760Y-73660
X111760Y-83820
X111836Y-29464
X112827Y-29439
X113030Y-26670
X113081Y-41580
X113157Y-83820
X113233Y-35306
X113284Y-68961
X114300Y-26670
X114300Y-43180
X114300Y-45720
X114300Y-48260
X114300Y-57150
X114300Y-59690
X114300Y-63500
X114300Y-66040
X114300Y-68580
X114300Y-73660
X114300Y-83820
X114503Y-35306
X115570Y-83820
X116002Y-62941
X116713Y-73660
X116840Y-66040
X116840Y-68580
X117221Y-53391
X117678Y-52299
X118237Y-26670
X124333Y-33020
X124333Y-35560
X124333Y-38100
X124333Y-40640
X124333Y-44450
X124333Y-46990
X124333Y-49530
T3
X120269Y-55051
X120269Y-56301
X120269Y-57551
X120269Y-58801
X120269Y-71307
X120269Y-72557
X120269Y-73807
X120269Y-75057
X118631Y-29845
X119334Y-28148
X119334Y-31542
X121031Y-27445
X121031Y-32245
X122728Y-28148
X122728Y-31542
X123431Y-29845
X120269Y-44423
X120269Y-45673
X120269Y-46923
X120269Y-48173
X120269Y-49423
X120269Y-50673
X120269Y-63179
X120269Y-64429
X120269Y-65679
X120269Y-66929
X120269Y-36382
X120269Y-37632
X120269Y-38882
X120269Y-40132
X111125Y-80391
X112375Y-80391
X113625Y-80391
X114875Y-80391
X27318Y-29718
X28021Y-28021
X28021Y-31415
X29718Y-27318
X29718Y-32118
X31415Y-28021
X31415Y-31415
X32118Y-29718
X30632Y-71780
X30632Y-73030
X65684Y-80391
X66934Y-80391
X68184Y-80391
X69434Y-80391
X27445Y-81153
X28148Y-79456
X28148Y-82850
X29845Y-78753
X29845Y-83553
X31542Y-79456
X31542Y-82850
X32245Y-81153
X118631Y-81153
X119334Y-79456
X119334Y-82850
X121031Y-78753
X121031Y-83553
X122728Y-79456
X122728Y-82850
X123431Y-81153
X45796Y-80391
X47046Y-80391
X48296Y-80391
X49546Y-80391
X50796Y-80391
X52046Y-80391
X53296Y-80391
X57607Y-80391
X58857Y-80391
X60107Y-80391
X61357Y-80391
T4
X52451Y-32639
X54991Y-32639
X57531Y-32639
X60071Y-32639
X62611Y-32639
X65151Y-32639
X67691Y-32639
X70231Y-32639
X52451Y-27559
X52451Y-30099
X54991Y-27559
X54991Y-30099
X57531Y-27559
X57531Y-30099
X60071Y-27559
X60071Y-30099
X62611Y-27559
X62611Y-30099
X65151Y-27559
X65151Y-30099
X67691Y-27559
X67691Y-30099
X70231Y-27559
X70231Y-30099
T5
X86041Y-27260
X93791Y-27260
X108139Y-27260
X115889Y-27260
X97090Y-27260
X104840Y-27260
X74992Y-27260
X82742Y-27260
T6
X86191Y-31060
X93641Y-31060
X108289Y-31060
X115739Y-31060
X97240Y-31060
X104690Y-31060
X75142Y-31060
X82592Y-31060
T7
X38633Y-81102
T8
X36093Y-78562
X36093Y-83642
X41173Y-78562
X41173Y-83642
T9
X29845Y-81153
X121031Y-81153
X121031Y-29845
X29718Y-29718
T10
X38564Y-29972
X45764Y-29972
T0
M30
