G04 #@! TF.GenerationSoftware,KiCad,Pcbnew,(5.1.2)-2*
G04 #@! TF.CreationDate,2019-10-30T14:31:15+01:00*
G04 #@! TF.ProjectId,Hades,48616465-732e-46b6-9963-61645f706362,rev?*
G04 #@! TF.SameCoordinates,Original*
G04 #@! TF.FileFunction,Soldermask,Bot*
G04 #@! TF.FilePolarity,Negative*
%FSLAX46Y46*%
G04 Gerber Fmt 4.6, Leading zero omitted, Abs format (unit mm)*
G04 Created by KiCad (PCBNEW (5.1.2)-2) date 2019-10-30 14:31:15*
%MOMM*%
%LPD*%
G04 APERTURE LIST*
%ADD10C,6.400000*%
%ADD11C,0.800000*%
%ADD12C,0.100000*%
%ADD13O,0.800000X1.300000*%
%ADD14C,2.250000*%
%ADD15C,2.400000*%
%ADD16R,5.516000X5.516000*%
%ADD17C,5.516000*%
%ADD18C,0.975000*%
%ADD19C,0.875000*%
%ADD20C,0.590000*%
%ADD21R,0.600000X0.450000*%
%ADD22O,1.300000X0.800000*%
%ADD23R,1.700000X1.700000*%
%ADD24O,1.700000X1.700000*%
%ADD25C,1.800000*%
%ADD26C,2.000000*%
G04 APERTURE END LIST*
D10*
X29845000Y-81153000D03*
D11*
X32245000Y-81153000D03*
X31542056Y-82850056D03*
X29845000Y-83553000D03*
X28147944Y-82850056D03*
X27445000Y-81153000D03*
X28147944Y-79455944D03*
X29845000Y-78753000D03*
X31542056Y-79455944D03*
D10*
X29718000Y-29718000D03*
D11*
X32118000Y-29718000D03*
X31415056Y-31415056D03*
X29718000Y-32118000D03*
X28020944Y-31415056D03*
X27318000Y-29718000D03*
X28020944Y-28020944D03*
X29718000Y-27318000D03*
X31415056Y-28020944D03*
X122728056Y-79455944D03*
X121031000Y-78753000D03*
X119333944Y-79455944D03*
X118631000Y-81153000D03*
X119333944Y-82850056D03*
X121031000Y-83553000D03*
X122728056Y-82850056D03*
X123431000Y-81153000D03*
D10*
X121031000Y-81153000D03*
X121031000Y-29845000D03*
D11*
X123431000Y-29845000D03*
X122728056Y-31542056D03*
X121031000Y-32245000D03*
X119333944Y-31542056D03*
X118631000Y-29845000D03*
X119333944Y-28147944D03*
X121031000Y-27445000D03*
X122728056Y-28147944D03*
D12*
G36*
X111344603Y-79741963D02*
G01*
X111364018Y-79744843D01*
X111383057Y-79749612D01*
X111401537Y-79756224D01*
X111419279Y-79764616D01*
X111436114Y-79774706D01*
X111451879Y-79786398D01*
X111466421Y-79799579D01*
X111479602Y-79814121D01*
X111491294Y-79829886D01*
X111501384Y-79846721D01*
X111509776Y-79864463D01*
X111516388Y-79882943D01*
X111521157Y-79901982D01*
X111524037Y-79921397D01*
X111525000Y-79941000D01*
X111525000Y-80841000D01*
X111524037Y-80860603D01*
X111521157Y-80880018D01*
X111516388Y-80899057D01*
X111509776Y-80917537D01*
X111501384Y-80935279D01*
X111491294Y-80952114D01*
X111479602Y-80967879D01*
X111466421Y-80982421D01*
X111451879Y-80995602D01*
X111436114Y-81007294D01*
X111419279Y-81017384D01*
X111401537Y-81025776D01*
X111383057Y-81032388D01*
X111364018Y-81037157D01*
X111344603Y-81040037D01*
X111325000Y-81041000D01*
X110925000Y-81041000D01*
X110905397Y-81040037D01*
X110885982Y-81037157D01*
X110866943Y-81032388D01*
X110848463Y-81025776D01*
X110830721Y-81017384D01*
X110813886Y-81007294D01*
X110798121Y-80995602D01*
X110783579Y-80982421D01*
X110770398Y-80967879D01*
X110758706Y-80952114D01*
X110748616Y-80935279D01*
X110740224Y-80917537D01*
X110733612Y-80899057D01*
X110728843Y-80880018D01*
X110725963Y-80860603D01*
X110725000Y-80841000D01*
X110725000Y-79941000D01*
X110725963Y-79921397D01*
X110728843Y-79901982D01*
X110733612Y-79882943D01*
X110740224Y-79864463D01*
X110748616Y-79846721D01*
X110758706Y-79829886D01*
X110770398Y-79814121D01*
X110783579Y-79799579D01*
X110798121Y-79786398D01*
X110813886Y-79774706D01*
X110830721Y-79764616D01*
X110848463Y-79756224D01*
X110866943Y-79749612D01*
X110885982Y-79744843D01*
X110905397Y-79741963D01*
X110925000Y-79741000D01*
X111325000Y-79741000D01*
X111344603Y-79741963D01*
X111344603Y-79741963D01*
G37*
D11*
X111125000Y-80391000D03*
D13*
X112375000Y-80391000D03*
X113625000Y-80391000D03*
X114875000Y-80391000D03*
D14*
X38633400Y-81102200D03*
D15*
X36093400Y-78562200D03*
X41173400Y-78562200D03*
X41173400Y-83642200D03*
X36093400Y-83642200D03*
D16*
X38564000Y-29972000D03*
D17*
X45764000Y-29972000D03*
D12*
G36*
X38799442Y-46926174D02*
G01*
X38823103Y-46929684D01*
X38846307Y-46935496D01*
X38868829Y-46943554D01*
X38890453Y-46953782D01*
X38910970Y-46966079D01*
X38930183Y-46980329D01*
X38947907Y-46996393D01*
X38963971Y-47014117D01*
X38978221Y-47033330D01*
X38990518Y-47053847D01*
X39000746Y-47075471D01*
X39008804Y-47097993D01*
X39014616Y-47121197D01*
X39018126Y-47144858D01*
X39019300Y-47168750D01*
X39019300Y-48081250D01*
X39018126Y-48105142D01*
X39014616Y-48128803D01*
X39008804Y-48152007D01*
X39000746Y-48174529D01*
X38990518Y-48196153D01*
X38978221Y-48216670D01*
X38963971Y-48235883D01*
X38947907Y-48253607D01*
X38930183Y-48269671D01*
X38910970Y-48283921D01*
X38890453Y-48296218D01*
X38868829Y-48306446D01*
X38846307Y-48314504D01*
X38823103Y-48320316D01*
X38799442Y-48323826D01*
X38775550Y-48325000D01*
X38288050Y-48325000D01*
X38264158Y-48323826D01*
X38240497Y-48320316D01*
X38217293Y-48314504D01*
X38194771Y-48306446D01*
X38173147Y-48296218D01*
X38152630Y-48283921D01*
X38133417Y-48269671D01*
X38115693Y-48253607D01*
X38099629Y-48235883D01*
X38085379Y-48216670D01*
X38073082Y-48196153D01*
X38062854Y-48174529D01*
X38054796Y-48152007D01*
X38048984Y-48128803D01*
X38045474Y-48105142D01*
X38044300Y-48081250D01*
X38044300Y-47168750D01*
X38045474Y-47144858D01*
X38048984Y-47121197D01*
X38054796Y-47097993D01*
X38062854Y-47075471D01*
X38073082Y-47053847D01*
X38085379Y-47033330D01*
X38099629Y-47014117D01*
X38115693Y-46996393D01*
X38133417Y-46980329D01*
X38152630Y-46966079D01*
X38173147Y-46953782D01*
X38194771Y-46943554D01*
X38217293Y-46935496D01*
X38240497Y-46929684D01*
X38264158Y-46926174D01*
X38288050Y-46925000D01*
X38775550Y-46925000D01*
X38799442Y-46926174D01*
X38799442Y-46926174D01*
G37*
D18*
X38531800Y-47625000D03*
D12*
G36*
X40674442Y-46926174D02*
G01*
X40698103Y-46929684D01*
X40721307Y-46935496D01*
X40743829Y-46943554D01*
X40765453Y-46953782D01*
X40785970Y-46966079D01*
X40805183Y-46980329D01*
X40822907Y-46996393D01*
X40838971Y-47014117D01*
X40853221Y-47033330D01*
X40865518Y-47053847D01*
X40875746Y-47075471D01*
X40883804Y-47097993D01*
X40889616Y-47121197D01*
X40893126Y-47144858D01*
X40894300Y-47168750D01*
X40894300Y-48081250D01*
X40893126Y-48105142D01*
X40889616Y-48128803D01*
X40883804Y-48152007D01*
X40875746Y-48174529D01*
X40865518Y-48196153D01*
X40853221Y-48216670D01*
X40838971Y-48235883D01*
X40822907Y-48253607D01*
X40805183Y-48269671D01*
X40785970Y-48283921D01*
X40765453Y-48296218D01*
X40743829Y-48306446D01*
X40721307Y-48314504D01*
X40698103Y-48320316D01*
X40674442Y-48323826D01*
X40650550Y-48325000D01*
X40163050Y-48325000D01*
X40139158Y-48323826D01*
X40115497Y-48320316D01*
X40092293Y-48314504D01*
X40069771Y-48306446D01*
X40048147Y-48296218D01*
X40027630Y-48283921D01*
X40008417Y-48269671D01*
X39990693Y-48253607D01*
X39974629Y-48235883D01*
X39960379Y-48216670D01*
X39948082Y-48196153D01*
X39937854Y-48174529D01*
X39929796Y-48152007D01*
X39923984Y-48128803D01*
X39920474Y-48105142D01*
X39919300Y-48081250D01*
X39919300Y-47168750D01*
X39920474Y-47144858D01*
X39923984Y-47121197D01*
X39929796Y-47097993D01*
X39937854Y-47075471D01*
X39948082Y-47053847D01*
X39960379Y-47033330D01*
X39974629Y-47014117D01*
X39990693Y-46996393D01*
X40008417Y-46980329D01*
X40027630Y-46966079D01*
X40048147Y-46953782D01*
X40069771Y-46943554D01*
X40092293Y-46935496D01*
X40115497Y-46929684D01*
X40139158Y-46926174D01*
X40163050Y-46925000D01*
X40650550Y-46925000D01*
X40674442Y-46926174D01*
X40674442Y-46926174D01*
G37*
D18*
X40406800Y-47625000D03*
D12*
G36*
X40676742Y-44894174D02*
G01*
X40700403Y-44897684D01*
X40723607Y-44903496D01*
X40746129Y-44911554D01*
X40767753Y-44921782D01*
X40788270Y-44934079D01*
X40807483Y-44948329D01*
X40825207Y-44964393D01*
X40841271Y-44982117D01*
X40855521Y-45001330D01*
X40867818Y-45021847D01*
X40878046Y-45043471D01*
X40886104Y-45065993D01*
X40891916Y-45089197D01*
X40895426Y-45112858D01*
X40896600Y-45136750D01*
X40896600Y-46049250D01*
X40895426Y-46073142D01*
X40891916Y-46096803D01*
X40886104Y-46120007D01*
X40878046Y-46142529D01*
X40867818Y-46164153D01*
X40855521Y-46184670D01*
X40841271Y-46203883D01*
X40825207Y-46221607D01*
X40807483Y-46237671D01*
X40788270Y-46251921D01*
X40767753Y-46264218D01*
X40746129Y-46274446D01*
X40723607Y-46282504D01*
X40700403Y-46288316D01*
X40676742Y-46291826D01*
X40652850Y-46293000D01*
X40165350Y-46293000D01*
X40141458Y-46291826D01*
X40117797Y-46288316D01*
X40094593Y-46282504D01*
X40072071Y-46274446D01*
X40050447Y-46264218D01*
X40029930Y-46251921D01*
X40010717Y-46237671D01*
X39992993Y-46221607D01*
X39976929Y-46203883D01*
X39962679Y-46184670D01*
X39950382Y-46164153D01*
X39940154Y-46142529D01*
X39932096Y-46120007D01*
X39926284Y-46096803D01*
X39922774Y-46073142D01*
X39921600Y-46049250D01*
X39921600Y-45136750D01*
X39922774Y-45112858D01*
X39926284Y-45089197D01*
X39932096Y-45065993D01*
X39940154Y-45043471D01*
X39950382Y-45021847D01*
X39962679Y-45001330D01*
X39976929Y-44982117D01*
X39992993Y-44964393D01*
X40010717Y-44948329D01*
X40029930Y-44934079D01*
X40050447Y-44921782D01*
X40072071Y-44911554D01*
X40094593Y-44903496D01*
X40117797Y-44897684D01*
X40141458Y-44894174D01*
X40165350Y-44893000D01*
X40652850Y-44893000D01*
X40676742Y-44894174D01*
X40676742Y-44894174D01*
G37*
D18*
X40409100Y-45593000D03*
D12*
G36*
X38801742Y-44894174D02*
G01*
X38825403Y-44897684D01*
X38848607Y-44903496D01*
X38871129Y-44911554D01*
X38892753Y-44921782D01*
X38913270Y-44934079D01*
X38932483Y-44948329D01*
X38950207Y-44964393D01*
X38966271Y-44982117D01*
X38980521Y-45001330D01*
X38992818Y-45021847D01*
X39003046Y-45043471D01*
X39011104Y-45065993D01*
X39016916Y-45089197D01*
X39020426Y-45112858D01*
X39021600Y-45136750D01*
X39021600Y-46049250D01*
X39020426Y-46073142D01*
X39016916Y-46096803D01*
X39011104Y-46120007D01*
X39003046Y-46142529D01*
X38992818Y-46164153D01*
X38980521Y-46184670D01*
X38966271Y-46203883D01*
X38950207Y-46221607D01*
X38932483Y-46237671D01*
X38913270Y-46251921D01*
X38892753Y-46264218D01*
X38871129Y-46274446D01*
X38848607Y-46282504D01*
X38825403Y-46288316D01*
X38801742Y-46291826D01*
X38777850Y-46293000D01*
X38290350Y-46293000D01*
X38266458Y-46291826D01*
X38242797Y-46288316D01*
X38219593Y-46282504D01*
X38197071Y-46274446D01*
X38175447Y-46264218D01*
X38154930Y-46251921D01*
X38135717Y-46237671D01*
X38117993Y-46221607D01*
X38101929Y-46203883D01*
X38087679Y-46184670D01*
X38075382Y-46164153D01*
X38065154Y-46142529D01*
X38057096Y-46120007D01*
X38051284Y-46096803D01*
X38047774Y-46073142D01*
X38046600Y-46049250D01*
X38046600Y-45136750D01*
X38047774Y-45112858D01*
X38051284Y-45089197D01*
X38057096Y-45065993D01*
X38065154Y-45043471D01*
X38075382Y-45021847D01*
X38087679Y-45001330D01*
X38101929Y-44982117D01*
X38117993Y-44964393D01*
X38135717Y-44948329D01*
X38154930Y-44934079D01*
X38175447Y-44921782D01*
X38197071Y-44911554D01*
X38219593Y-44903496D01*
X38242797Y-44897684D01*
X38266458Y-44894174D01*
X38290350Y-44893000D01*
X38777850Y-44893000D01*
X38801742Y-44894174D01*
X38801742Y-44894174D01*
G37*
D18*
X38534100Y-45593000D03*
D12*
G36*
X41547242Y-38772774D02*
G01*
X41570903Y-38776284D01*
X41594107Y-38782096D01*
X41616629Y-38790154D01*
X41638253Y-38800382D01*
X41658770Y-38812679D01*
X41677983Y-38826929D01*
X41695707Y-38842993D01*
X41711771Y-38860717D01*
X41726021Y-38879930D01*
X41738318Y-38900447D01*
X41748546Y-38922071D01*
X41756604Y-38944593D01*
X41762416Y-38967797D01*
X41765926Y-38991458D01*
X41767100Y-39015350D01*
X41767100Y-39927850D01*
X41765926Y-39951742D01*
X41762416Y-39975403D01*
X41756604Y-39998607D01*
X41748546Y-40021129D01*
X41738318Y-40042753D01*
X41726021Y-40063270D01*
X41711771Y-40082483D01*
X41695707Y-40100207D01*
X41677983Y-40116271D01*
X41658770Y-40130521D01*
X41638253Y-40142818D01*
X41616629Y-40153046D01*
X41594107Y-40161104D01*
X41570903Y-40166916D01*
X41547242Y-40170426D01*
X41523350Y-40171600D01*
X41035850Y-40171600D01*
X41011958Y-40170426D01*
X40988297Y-40166916D01*
X40965093Y-40161104D01*
X40942571Y-40153046D01*
X40920947Y-40142818D01*
X40900430Y-40130521D01*
X40881217Y-40116271D01*
X40863493Y-40100207D01*
X40847429Y-40082483D01*
X40833179Y-40063270D01*
X40820882Y-40042753D01*
X40810654Y-40021129D01*
X40802596Y-39998607D01*
X40796784Y-39975403D01*
X40793274Y-39951742D01*
X40792100Y-39927850D01*
X40792100Y-39015350D01*
X40793274Y-38991458D01*
X40796784Y-38967797D01*
X40802596Y-38944593D01*
X40810654Y-38922071D01*
X40820882Y-38900447D01*
X40833179Y-38879930D01*
X40847429Y-38860717D01*
X40863493Y-38842993D01*
X40881217Y-38826929D01*
X40900430Y-38812679D01*
X40920947Y-38800382D01*
X40942571Y-38790154D01*
X40965093Y-38782096D01*
X40988297Y-38776284D01*
X41011958Y-38772774D01*
X41035850Y-38771600D01*
X41523350Y-38771600D01*
X41547242Y-38772774D01*
X41547242Y-38772774D01*
G37*
D18*
X41279600Y-39471600D03*
D12*
G36*
X43422242Y-38772774D02*
G01*
X43445903Y-38776284D01*
X43469107Y-38782096D01*
X43491629Y-38790154D01*
X43513253Y-38800382D01*
X43533770Y-38812679D01*
X43552983Y-38826929D01*
X43570707Y-38842993D01*
X43586771Y-38860717D01*
X43601021Y-38879930D01*
X43613318Y-38900447D01*
X43623546Y-38922071D01*
X43631604Y-38944593D01*
X43637416Y-38967797D01*
X43640926Y-38991458D01*
X43642100Y-39015350D01*
X43642100Y-39927850D01*
X43640926Y-39951742D01*
X43637416Y-39975403D01*
X43631604Y-39998607D01*
X43623546Y-40021129D01*
X43613318Y-40042753D01*
X43601021Y-40063270D01*
X43586771Y-40082483D01*
X43570707Y-40100207D01*
X43552983Y-40116271D01*
X43533770Y-40130521D01*
X43513253Y-40142818D01*
X43491629Y-40153046D01*
X43469107Y-40161104D01*
X43445903Y-40166916D01*
X43422242Y-40170426D01*
X43398350Y-40171600D01*
X42910850Y-40171600D01*
X42886958Y-40170426D01*
X42863297Y-40166916D01*
X42840093Y-40161104D01*
X42817571Y-40153046D01*
X42795947Y-40142818D01*
X42775430Y-40130521D01*
X42756217Y-40116271D01*
X42738493Y-40100207D01*
X42722429Y-40082483D01*
X42708179Y-40063270D01*
X42695882Y-40042753D01*
X42685654Y-40021129D01*
X42677596Y-39998607D01*
X42671784Y-39975403D01*
X42668274Y-39951742D01*
X42667100Y-39927850D01*
X42667100Y-39015350D01*
X42668274Y-38991458D01*
X42671784Y-38967797D01*
X42677596Y-38944593D01*
X42685654Y-38922071D01*
X42695882Y-38900447D01*
X42708179Y-38879930D01*
X42722429Y-38860717D01*
X42738493Y-38842993D01*
X42756217Y-38826929D01*
X42775430Y-38812679D01*
X42795947Y-38800382D01*
X42817571Y-38790154D01*
X42840093Y-38782096D01*
X42863297Y-38776284D01*
X42886958Y-38772774D01*
X42910850Y-38771600D01*
X43398350Y-38771600D01*
X43422242Y-38772774D01*
X43422242Y-38772774D01*
G37*
D18*
X43154600Y-39471600D03*
D12*
G36*
X44308942Y-42862174D02*
G01*
X44332603Y-42865684D01*
X44355807Y-42871496D01*
X44378329Y-42879554D01*
X44399953Y-42889782D01*
X44420470Y-42902079D01*
X44439683Y-42916329D01*
X44457407Y-42932393D01*
X44473471Y-42950117D01*
X44487721Y-42969330D01*
X44500018Y-42989847D01*
X44510246Y-43011471D01*
X44518304Y-43033993D01*
X44524116Y-43057197D01*
X44527626Y-43080858D01*
X44528800Y-43104750D01*
X44528800Y-44017250D01*
X44527626Y-44041142D01*
X44524116Y-44064803D01*
X44518304Y-44088007D01*
X44510246Y-44110529D01*
X44500018Y-44132153D01*
X44487721Y-44152670D01*
X44473471Y-44171883D01*
X44457407Y-44189607D01*
X44439683Y-44205671D01*
X44420470Y-44219921D01*
X44399953Y-44232218D01*
X44378329Y-44242446D01*
X44355807Y-44250504D01*
X44332603Y-44256316D01*
X44308942Y-44259826D01*
X44285050Y-44261000D01*
X43797550Y-44261000D01*
X43773658Y-44259826D01*
X43749997Y-44256316D01*
X43726793Y-44250504D01*
X43704271Y-44242446D01*
X43682647Y-44232218D01*
X43662130Y-44219921D01*
X43642917Y-44205671D01*
X43625193Y-44189607D01*
X43609129Y-44171883D01*
X43594879Y-44152670D01*
X43582582Y-44132153D01*
X43572354Y-44110529D01*
X43564296Y-44088007D01*
X43558484Y-44064803D01*
X43554974Y-44041142D01*
X43553800Y-44017250D01*
X43553800Y-43104750D01*
X43554974Y-43080858D01*
X43558484Y-43057197D01*
X43564296Y-43033993D01*
X43572354Y-43011471D01*
X43582582Y-42989847D01*
X43594879Y-42969330D01*
X43609129Y-42950117D01*
X43625193Y-42932393D01*
X43642917Y-42916329D01*
X43662130Y-42902079D01*
X43682647Y-42889782D01*
X43704271Y-42879554D01*
X43726793Y-42871496D01*
X43749997Y-42865684D01*
X43773658Y-42862174D01*
X43797550Y-42861000D01*
X44285050Y-42861000D01*
X44308942Y-42862174D01*
X44308942Y-42862174D01*
G37*
D18*
X44041300Y-43561000D03*
D12*
G36*
X42433942Y-42862174D02*
G01*
X42457603Y-42865684D01*
X42480807Y-42871496D01*
X42503329Y-42879554D01*
X42524953Y-42889782D01*
X42545470Y-42902079D01*
X42564683Y-42916329D01*
X42582407Y-42932393D01*
X42598471Y-42950117D01*
X42612721Y-42969330D01*
X42625018Y-42989847D01*
X42635246Y-43011471D01*
X42643304Y-43033993D01*
X42649116Y-43057197D01*
X42652626Y-43080858D01*
X42653800Y-43104750D01*
X42653800Y-44017250D01*
X42652626Y-44041142D01*
X42649116Y-44064803D01*
X42643304Y-44088007D01*
X42635246Y-44110529D01*
X42625018Y-44132153D01*
X42612721Y-44152670D01*
X42598471Y-44171883D01*
X42582407Y-44189607D01*
X42564683Y-44205671D01*
X42545470Y-44219921D01*
X42524953Y-44232218D01*
X42503329Y-44242446D01*
X42480807Y-44250504D01*
X42457603Y-44256316D01*
X42433942Y-44259826D01*
X42410050Y-44261000D01*
X41922550Y-44261000D01*
X41898658Y-44259826D01*
X41874997Y-44256316D01*
X41851793Y-44250504D01*
X41829271Y-44242446D01*
X41807647Y-44232218D01*
X41787130Y-44219921D01*
X41767917Y-44205671D01*
X41750193Y-44189607D01*
X41734129Y-44171883D01*
X41719879Y-44152670D01*
X41707582Y-44132153D01*
X41697354Y-44110529D01*
X41689296Y-44088007D01*
X41683484Y-44064803D01*
X41679974Y-44041142D01*
X41678800Y-44017250D01*
X41678800Y-43104750D01*
X41679974Y-43080858D01*
X41683484Y-43057197D01*
X41689296Y-43033993D01*
X41697354Y-43011471D01*
X41707582Y-42989847D01*
X41719879Y-42969330D01*
X41734129Y-42950117D01*
X41750193Y-42932393D01*
X41767917Y-42916329D01*
X41787130Y-42902079D01*
X41807647Y-42889782D01*
X41829271Y-42879554D01*
X41851793Y-42871496D01*
X41874997Y-42865684D01*
X41898658Y-42862174D01*
X41922550Y-42861000D01*
X42410050Y-42861000D01*
X42433942Y-42862174D01*
X42433942Y-42862174D01*
G37*
D18*
X42166300Y-43561000D03*
D12*
G36*
X34282842Y-42862174D02*
G01*
X34306503Y-42865684D01*
X34329707Y-42871496D01*
X34352229Y-42879554D01*
X34373853Y-42889782D01*
X34394370Y-42902079D01*
X34413583Y-42916329D01*
X34431307Y-42932393D01*
X34447371Y-42950117D01*
X34461621Y-42969330D01*
X34473918Y-42989847D01*
X34484146Y-43011471D01*
X34492204Y-43033993D01*
X34498016Y-43057197D01*
X34501526Y-43080858D01*
X34502700Y-43104750D01*
X34502700Y-44017250D01*
X34501526Y-44041142D01*
X34498016Y-44064803D01*
X34492204Y-44088007D01*
X34484146Y-44110529D01*
X34473918Y-44132153D01*
X34461621Y-44152670D01*
X34447371Y-44171883D01*
X34431307Y-44189607D01*
X34413583Y-44205671D01*
X34394370Y-44219921D01*
X34373853Y-44232218D01*
X34352229Y-44242446D01*
X34329707Y-44250504D01*
X34306503Y-44256316D01*
X34282842Y-44259826D01*
X34258950Y-44261000D01*
X33771450Y-44261000D01*
X33747558Y-44259826D01*
X33723897Y-44256316D01*
X33700693Y-44250504D01*
X33678171Y-44242446D01*
X33656547Y-44232218D01*
X33636030Y-44219921D01*
X33616817Y-44205671D01*
X33599093Y-44189607D01*
X33583029Y-44171883D01*
X33568779Y-44152670D01*
X33556482Y-44132153D01*
X33546254Y-44110529D01*
X33538196Y-44088007D01*
X33532384Y-44064803D01*
X33528874Y-44041142D01*
X33527700Y-44017250D01*
X33527700Y-43104750D01*
X33528874Y-43080858D01*
X33532384Y-43057197D01*
X33538196Y-43033993D01*
X33546254Y-43011471D01*
X33556482Y-42989847D01*
X33568779Y-42969330D01*
X33583029Y-42950117D01*
X33599093Y-42932393D01*
X33616817Y-42916329D01*
X33636030Y-42902079D01*
X33656547Y-42889782D01*
X33678171Y-42879554D01*
X33700693Y-42871496D01*
X33723897Y-42865684D01*
X33747558Y-42862174D01*
X33771450Y-42861000D01*
X34258950Y-42861000D01*
X34282842Y-42862174D01*
X34282842Y-42862174D01*
G37*
D18*
X34015200Y-43561000D03*
D12*
G36*
X36157842Y-42862174D02*
G01*
X36181503Y-42865684D01*
X36204707Y-42871496D01*
X36227229Y-42879554D01*
X36248853Y-42889782D01*
X36269370Y-42902079D01*
X36288583Y-42916329D01*
X36306307Y-42932393D01*
X36322371Y-42950117D01*
X36336621Y-42969330D01*
X36348918Y-42989847D01*
X36359146Y-43011471D01*
X36367204Y-43033993D01*
X36373016Y-43057197D01*
X36376526Y-43080858D01*
X36377700Y-43104750D01*
X36377700Y-44017250D01*
X36376526Y-44041142D01*
X36373016Y-44064803D01*
X36367204Y-44088007D01*
X36359146Y-44110529D01*
X36348918Y-44132153D01*
X36336621Y-44152670D01*
X36322371Y-44171883D01*
X36306307Y-44189607D01*
X36288583Y-44205671D01*
X36269370Y-44219921D01*
X36248853Y-44232218D01*
X36227229Y-44242446D01*
X36204707Y-44250504D01*
X36181503Y-44256316D01*
X36157842Y-44259826D01*
X36133950Y-44261000D01*
X35646450Y-44261000D01*
X35622558Y-44259826D01*
X35598897Y-44256316D01*
X35575693Y-44250504D01*
X35553171Y-44242446D01*
X35531547Y-44232218D01*
X35511030Y-44219921D01*
X35491817Y-44205671D01*
X35474093Y-44189607D01*
X35458029Y-44171883D01*
X35443779Y-44152670D01*
X35431482Y-44132153D01*
X35421254Y-44110529D01*
X35413196Y-44088007D01*
X35407384Y-44064803D01*
X35403874Y-44041142D01*
X35402700Y-44017250D01*
X35402700Y-43104750D01*
X35403874Y-43080858D01*
X35407384Y-43057197D01*
X35413196Y-43033993D01*
X35421254Y-43011471D01*
X35431482Y-42989847D01*
X35443779Y-42969330D01*
X35458029Y-42950117D01*
X35474093Y-42932393D01*
X35491817Y-42916329D01*
X35511030Y-42902079D01*
X35531547Y-42889782D01*
X35553171Y-42879554D01*
X35575693Y-42871496D01*
X35598897Y-42865684D01*
X35622558Y-42862174D01*
X35646450Y-42861000D01*
X36133950Y-42861000D01*
X36157842Y-42862174D01*
X36157842Y-42862174D01*
G37*
D18*
X35890200Y-43561000D03*
D12*
G36*
X97991491Y-59304453D02*
G01*
X98012726Y-59307603D01*
X98033550Y-59312819D01*
X98053762Y-59320051D01*
X98073168Y-59329230D01*
X98091581Y-59340266D01*
X98108824Y-59353054D01*
X98124730Y-59367470D01*
X98139146Y-59383376D01*
X98151934Y-59400619D01*
X98162970Y-59419032D01*
X98172149Y-59438438D01*
X98179381Y-59458650D01*
X98184597Y-59479474D01*
X98187747Y-59500709D01*
X98188800Y-59522150D01*
X98188800Y-59959650D01*
X98187747Y-59981091D01*
X98184597Y-60002326D01*
X98179381Y-60023150D01*
X98172149Y-60043362D01*
X98162970Y-60062768D01*
X98151934Y-60081181D01*
X98139146Y-60098424D01*
X98124730Y-60114330D01*
X98108824Y-60128746D01*
X98091581Y-60141534D01*
X98073168Y-60152570D01*
X98053762Y-60161749D01*
X98033550Y-60168981D01*
X98012726Y-60174197D01*
X97991491Y-60177347D01*
X97970050Y-60178400D01*
X97457550Y-60178400D01*
X97436109Y-60177347D01*
X97414874Y-60174197D01*
X97394050Y-60168981D01*
X97373838Y-60161749D01*
X97354432Y-60152570D01*
X97336019Y-60141534D01*
X97318776Y-60128746D01*
X97302870Y-60114330D01*
X97288454Y-60098424D01*
X97275666Y-60081181D01*
X97264630Y-60062768D01*
X97255451Y-60043362D01*
X97248219Y-60023150D01*
X97243003Y-60002326D01*
X97239853Y-59981091D01*
X97238800Y-59959650D01*
X97238800Y-59522150D01*
X97239853Y-59500709D01*
X97243003Y-59479474D01*
X97248219Y-59458650D01*
X97255451Y-59438438D01*
X97264630Y-59419032D01*
X97275666Y-59400619D01*
X97288454Y-59383376D01*
X97302870Y-59367470D01*
X97318776Y-59353054D01*
X97336019Y-59340266D01*
X97354432Y-59329230D01*
X97373838Y-59320051D01*
X97394050Y-59312819D01*
X97414874Y-59307603D01*
X97436109Y-59304453D01*
X97457550Y-59303400D01*
X97970050Y-59303400D01*
X97991491Y-59304453D01*
X97991491Y-59304453D01*
G37*
D19*
X97713800Y-59740900D03*
D12*
G36*
X97991491Y-57729453D02*
G01*
X98012726Y-57732603D01*
X98033550Y-57737819D01*
X98053762Y-57745051D01*
X98073168Y-57754230D01*
X98091581Y-57765266D01*
X98108824Y-57778054D01*
X98124730Y-57792470D01*
X98139146Y-57808376D01*
X98151934Y-57825619D01*
X98162970Y-57844032D01*
X98172149Y-57863438D01*
X98179381Y-57883650D01*
X98184597Y-57904474D01*
X98187747Y-57925709D01*
X98188800Y-57947150D01*
X98188800Y-58384650D01*
X98187747Y-58406091D01*
X98184597Y-58427326D01*
X98179381Y-58448150D01*
X98172149Y-58468362D01*
X98162970Y-58487768D01*
X98151934Y-58506181D01*
X98139146Y-58523424D01*
X98124730Y-58539330D01*
X98108824Y-58553746D01*
X98091581Y-58566534D01*
X98073168Y-58577570D01*
X98053762Y-58586749D01*
X98033550Y-58593981D01*
X98012726Y-58599197D01*
X97991491Y-58602347D01*
X97970050Y-58603400D01*
X97457550Y-58603400D01*
X97436109Y-58602347D01*
X97414874Y-58599197D01*
X97394050Y-58593981D01*
X97373838Y-58586749D01*
X97354432Y-58577570D01*
X97336019Y-58566534D01*
X97318776Y-58553746D01*
X97302870Y-58539330D01*
X97288454Y-58523424D01*
X97275666Y-58506181D01*
X97264630Y-58487768D01*
X97255451Y-58468362D01*
X97248219Y-58448150D01*
X97243003Y-58427326D01*
X97239853Y-58406091D01*
X97238800Y-58384650D01*
X97238800Y-57947150D01*
X97239853Y-57925709D01*
X97243003Y-57904474D01*
X97248219Y-57883650D01*
X97255451Y-57863438D01*
X97264630Y-57844032D01*
X97275666Y-57825619D01*
X97288454Y-57808376D01*
X97302870Y-57792470D01*
X97318776Y-57778054D01*
X97336019Y-57765266D01*
X97354432Y-57754230D01*
X97373838Y-57745051D01*
X97394050Y-57737819D01*
X97414874Y-57732603D01*
X97436109Y-57729453D01*
X97457550Y-57728400D01*
X97970050Y-57728400D01*
X97991491Y-57729453D01*
X97991491Y-57729453D01*
G37*
D19*
X97713800Y-58165900D03*
D12*
G36*
X96478358Y-58174110D02*
G01*
X96492676Y-58176234D01*
X96506717Y-58179751D01*
X96520346Y-58184628D01*
X96533431Y-58190817D01*
X96545847Y-58198258D01*
X96557473Y-58206881D01*
X96568198Y-58216602D01*
X96577919Y-58227327D01*
X96586542Y-58238953D01*
X96593983Y-58251369D01*
X96600172Y-58264454D01*
X96605049Y-58278083D01*
X96608566Y-58292124D01*
X96610690Y-58306442D01*
X96611400Y-58320900D01*
X96611400Y-58615900D01*
X96610690Y-58630358D01*
X96608566Y-58644676D01*
X96605049Y-58658717D01*
X96600172Y-58672346D01*
X96593983Y-58685431D01*
X96586542Y-58697847D01*
X96577919Y-58709473D01*
X96568198Y-58720198D01*
X96557473Y-58729919D01*
X96545847Y-58738542D01*
X96533431Y-58745983D01*
X96520346Y-58752172D01*
X96506717Y-58757049D01*
X96492676Y-58760566D01*
X96478358Y-58762690D01*
X96463900Y-58763400D01*
X96118900Y-58763400D01*
X96104442Y-58762690D01*
X96090124Y-58760566D01*
X96076083Y-58757049D01*
X96062454Y-58752172D01*
X96049369Y-58745983D01*
X96036953Y-58738542D01*
X96025327Y-58729919D01*
X96014602Y-58720198D01*
X96004881Y-58709473D01*
X95996258Y-58697847D01*
X95988817Y-58685431D01*
X95982628Y-58672346D01*
X95977751Y-58658717D01*
X95974234Y-58644676D01*
X95972110Y-58630358D01*
X95971400Y-58615900D01*
X95971400Y-58320900D01*
X95972110Y-58306442D01*
X95974234Y-58292124D01*
X95977751Y-58278083D01*
X95982628Y-58264454D01*
X95988817Y-58251369D01*
X95996258Y-58238953D01*
X96004881Y-58227327D01*
X96014602Y-58216602D01*
X96025327Y-58206881D01*
X96036953Y-58198258D01*
X96049369Y-58190817D01*
X96062454Y-58184628D01*
X96076083Y-58179751D01*
X96090124Y-58176234D01*
X96104442Y-58174110D01*
X96118900Y-58173400D01*
X96463900Y-58173400D01*
X96478358Y-58174110D01*
X96478358Y-58174110D01*
G37*
D20*
X96291400Y-58468400D03*
D12*
G36*
X96478358Y-59144110D02*
G01*
X96492676Y-59146234D01*
X96506717Y-59149751D01*
X96520346Y-59154628D01*
X96533431Y-59160817D01*
X96545847Y-59168258D01*
X96557473Y-59176881D01*
X96568198Y-59186602D01*
X96577919Y-59197327D01*
X96586542Y-59208953D01*
X96593983Y-59221369D01*
X96600172Y-59234454D01*
X96605049Y-59248083D01*
X96608566Y-59262124D01*
X96610690Y-59276442D01*
X96611400Y-59290900D01*
X96611400Y-59585900D01*
X96610690Y-59600358D01*
X96608566Y-59614676D01*
X96605049Y-59628717D01*
X96600172Y-59642346D01*
X96593983Y-59655431D01*
X96586542Y-59667847D01*
X96577919Y-59679473D01*
X96568198Y-59690198D01*
X96557473Y-59699919D01*
X96545847Y-59708542D01*
X96533431Y-59715983D01*
X96520346Y-59722172D01*
X96506717Y-59727049D01*
X96492676Y-59730566D01*
X96478358Y-59732690D01*
X96463900Y-59733400D01*
X96118900Y-59733400D01*
X96104442Y-59732690D01*
X96090124Y-59730566D01*
X96076083Y-59727049D01*
X96062454Y-59722172D01*
X96049369Y-59715983D01*
X96036953Y-59708542D01*
X96025327Y-59699919D01*
X96014602Y-59690198D01*
X96004881Y-59679473D01*
X95996258Y-59667847D01*
X95988817Y-59655431D01*
X95982628Y-59642346D01*
X95977751Y-59628717D01*
X95974234Y-59614676D01*
X95972110Y-59600358D01*
X95971400Y-59585900D01*
X95971400Y-59290900D01*
X95972110Y-59276442D01*
X95974234Y-59262124D01*
X95977751Y-59248083D01*
X95982628Y-59234454D01*
X95988817Y-59221369D01*
X95996258Y-59208953D01*
X96004881Y-59197327D01*
X96014602Y-59186602D01*
X96025327Y-59176881D01*
X96036953Y-59168258D01*
X96049369Y-59160817D01*
X96062454Y-59154628D01*
X96076083Y-59149751D01*
X96090124Y-59146234D01*
X96104442Y-59144110D01*
X96118900Y-59143400D01*
X96463900Y-59143400D01*
X96478358Y-59144110D01*
X96478358Y-59144110D01*
G37*
D20*
X96291400Y-59438400D03*
D12*
G36*
X69035491Y-68778453D02*
G01*
X69056726Y-68781603D01*
X69077550Y-68786819D01*
X69097762Y-68794051D01*
X69117168Y-68803230D01*
X69135581Y-68814266D01*
X69152824Y-68827054D01*
X69168730Y-68841470D01*
X69183146Y-68857376D01*
X69195934Y-68874619D01*
X69206970Y-68893032D01*
X69216149Y-68912438D01*
X69223381Y-68932650D01*
X69228597Y-68953474D01*
X69231747Y-68974709D01*
X69232800Y-68996150D01*
X69232800Y-69433650D01*
X69231747Y-69455091D01*
X69228597Y-69476326D01*
X69223381Y-69497150D01*
X69216149Y-69517362D01*
X69206970Y-69536768D01*
X69195934Y-69555181D01*
X69183146Y-69572424D01*
X69168730Y-69588330D01*
X69152824Y-69602746D01*
X69135581Y-69615534D01*
X69117168Y-69626570D01*
X69097762Y-69635749D01*
X69077550Y-69642981D01*
X69056726Y-69648197D01*
X69035491Y-69651347D01*
X69014050Y-69652400D01*
X68501550Y-69652400D01*
X68480109Y-69651347D01*
X68458874Y-69648197D01*
X68438050Y-69642981D01*
X68417838Y-69635749D01*
X68398432Y-69626570D01*
X68380019Y-69615534D01*
X68362776Y-69602746D01*
X68346870Y-69588330D01*
X68332454Y-69572424D01*
X68319666Y-69555181D01*
X68308630Y-69536768D01*
X68299451Y-69517362D01*
X68292219Y-69497150D01*
X68287003Y-69476326D01*
X68283853Y-69455091D01*
X68282800Y-69433650D01*
X68282800Y-68996150D01*
X68283853Y-68974709D01*
X68287003Y-68953474D01*
X68292219Y-68932650D01*
X68299451Y-68912438D01*
X68308630Y-68893032D01*
X68319666Y-68874619D01*
X68332454Y-68857376D01*
X68346870Y-68841470D01*
X68362776Y-68827054D01*
X68380019Y-68814266D01*
X68398432Y-68803230D01*
X68417838Y-68794051D01*
X68438050Y-68786819D01*
X68458874Y-68781603D01*
X68480109Y-68778453D01*
X68501550Y-68777400D01*
X69014050Y-68777400D01*
X69035491Y-68778453D01*
X69035491Y-68778453D01*
G37*
D19*
X68757800Y-69214900D03*
D12*
G36*
X69035491Y-70353453D02*
G01*
X69056726Y-70356603D01*
X69077550Y-70361819D01*
X69097762Y-70369051D01*
X69117168Y-70378230D01*
X69135581Y-70389266D01*
X69152824Y-70402054D01*
X69168730Y-70416470D01*
X69183146Y-70432376D01*
X69195934Y-70449619D01*
X69206970Y-70468032D01*
X69216149Y-70487438D01*
X69223381Y-70507650D01*
X69228597Y-70528474D01*
X69231747Y-70549709D01*
X69232800Y-70571150D01*
X69232800Y-71008650D01*
X69231747Y-71030091D01*
X69228597Y-71051326D01*
X69223381Y-71072150D01*
X69216149Y-71092362D01*
X69206970Y-71111768D01*
X69195934Y-71130181D01*
X69183146Y-71147424D01*
X69168730Y-71163330D01*
X69152824Y-71177746D01*
X69135581Y-71190534D01*
X69117168Y-71201570D01*
X69097762Y-71210749D01*
X69077550Y-71217981D01*
X69056726Y-71223197D01*
X69035491Y-71226347D01*
X69014050Y-71227400D01*
X68501550Y-71227400D01*
X68480109Y-71226347D01*
X68458874Y-71223197D01*
X68438050Y-71217981D01*
X68417838Y-71210749D01*
X68398432Y-71201570D01*
X68380019Y-71190534D01*
X68362776Y-71177746D01*
X68346870Y-71163330D01*
X68332454Y-71147424D01*
X68319666Y-71130181D01*
X68308630Y-71111768D01*
X68299451Y-71092362D01*
X68292219Y-71072150D01*
X68287003Y-71051326D01*
X68283853Y-71030091D01*
X68282800Y-71008650D01*
X68282800Y-70571150D01*
X68283853Y-70549709D01*
X68287003Y-70528474D01*
X68292219Y-70507650D01*
X68299451Y-70487438D01*
X68308630Y-70468032D01*
X68319666Y-70449619D01*
X68332454Y-70432376D01*
X68346870Y-70416470D01*
X68362776Y-70402054D01*
X68380019Y-70389266D01*
X68398432Y-70378230D01*
X68417838Y-70369051D01*
X68438050Y-70361819D01*
X68458874Y-70356603D01*
X68480109Y-70353453D01*
X68501550Y-70352400D01*
X69014050Y-70352400D01*
X69035491Y-70353453D01*
X69035491Y-70353453D01*
G37*
D19*
X68757800Y-70789900D03*
D12*
G36*
X67496958Y-70193110D02*
G01*
X67511276Y-70195234D01*
X67525317Y-70198751D01*
X67538946Y-70203628D01*
X67552031Y-70209817D01*
X67564447Y-70217258D01*
X67576073Y-70225881D01*
X67586798Y-70235602D01*
X67596519Y-70246327D01*
X67605142Y-70257953D01*
X67612583Y-70270369D01*
X67618772Y-70283454D01*
X67623649Y-70297083D01*
X67627166Y-70311124D01*
X67629290Y-70325442D01*
X67630000Y-70339900D01*
X67630000Y-70634900D01*
X67629290Y-70649358D01*
X67627166Y-70663676D01*
X67623649Y-70677717D01*
X67618772Y-70691346D01*
X67612583Y-70704431D01*
X67605142Y-70716847D01*
X67596519Y-70728473D01*
X67586798Y-70739198D01*
X67576073Y-70748919D01*
X67564447Y-70757542D01*
X67552031Y-70764983D01*
X67538946Y-70771172D01*
X67525317Y-70776049D01*
X67511276Y-70779566D01*
X67496958Y-70781690D01*
X67482500Y-70782400D01*
X67137500Y-70782400D01*
X67123042Y-70781690D01*
X67108724Y-70779566D01*
X67094683Y-70776049D01*
X67081054Y-70771172D01*
X67067969Y-70764983D01*
X67055553Y-70757542D01*
X67043927Y-70748919D01*
X67033202Y-70739198D01*
X67023481Y-70728473D01*
X67014858Y-70716847D01*
X67007417Y-70704431D01*
X67001228Y-70691346D01*
X66996351Y-70677717D01*
X66992834Y-70663676D01*
X66990710Y-70649358D01*
X66990000Y-70634900D01*
X66990000Y-70339900D01*
X66990710Y-70325442D01*
X66992834Y-70311124D01*
X66996351Y-70297083D01*
X67001228Y-70283454D01*
X67007417Y-70270369D01*
X67014858Y-70257953D01*
X67023481Y-70246327D01*
X67033202Y-70235602D01*
X67043927Y-70225881D01*
X67055553Y-70217258D01*
X67067969Y-70209817D01*
X67081054Y-70203628D01*
X67094683Y-70198751D01*
X67108724Y-70195234D01*
X67123042Y-70193110D01*
X67137500Y-70192400D01*
X67482500Y-70192400D01*
X67496958Y-70193110D01*
X67496958Y-70193110D01*
G37*
D20*
X67310000Y-70487400D03*
D12*
G36*
X67496958Y-69223110D02*
G01*
X67511276Y-69225234D01*
X67525317Y-69228751D01*
X67538946Y-69233628D01*
X67552031Y-69239817D01*
X67564447Y-69247258D01*
X67576073Y-69255881D01*
X67586798Y-69265602D01*
X67596519Y-69276327D01*
X67605142Y-69287953D01*
X67612583Y-69300369D01*
X67618772Y-69313454D01*
X67623649Y-69327083D01*
X67627166Y-69341124D01*
X67629290Y-69355442D01*
X67630000Y-69369900D01*
X67630000Y-69664900D01*
X67629290Y-69679358D01*
X67627166Y-69693676D01*
X67623649Y-69707717D01*
X67618772Y-69721346D01*
X67612583Y-69734431D01*
X67605142Y-69746847D01*
X67596519Y-69758473D01*
X67586798Y-69769198D01*
X67576073Y-69778919D01*
X67564447Y-69787542D01*
X67552031Y-69794983D01*
X67538946Y-69801172D01*
X67525317Y-69806049D01*
X67511276Y-69809566D01*
X67496958Y-69811690D01*
X67482500Y-69812400D01*
X67137500Y-69812400D01*
X67123042Y-69811690D01*
X67108724Y-69809566D01*
X67094683Y-69806049D01*
X67081054Y-69801172D01*
X67067969Y-69794983D01*
X67055553Y-69787542D01*
X67043927Y-69778919D01*
X67033202Y-69769198D01*
X67023481Y-69758473D01*
X67014858Y-69746847D01*
X67007417Y-69734431D01*
X67001228Y-69721346D01*
X66996351Y-69707717D01*
X66992834Y-69693676D01*
X66990710Y-69679358D01*
X66990000Y-69664900D01*
X66990000Y-69369900D01*
X66990710Y-69355442D01*
X66992834Y-69341124D01*
X66996351Y-69327083D01*
X67001228Y-69313454D01*
X67007417Y-69300369D01*
X67014858Y-69287953D01*
X67023481Y-69276327D01*
X67033202Y-69265602D01*
X67043927Y-69255881D01*
X67055553Y-69247258D01*
X67067969Y-69239817D01*
X67081054Y-69233628D01*
X67094683Y-69228751D01*
X67108724Y-69225234D01*
X67123042Y-69223110D01*
X67137500Y-69222400D01*
X67482500Y-69222400D01*
X67496958Y-69223110D01*
X67496958Y-69223110D01*
G37*
D20*
X67310000Y-69517400D03*
D12*
G36*
X39988758Y-75011910D02*
G01*
X40003076Y-75014034D01*
X40017117Y-75017551D01*
X40030746Y-75022428D01*
X40043831Y-75028617D01*
X40056247Y-75036058D01*
X40067873Y-75044681D01*
X40078598Y-75054402D01*
X40088319Y-75065127D01*
X40096942Y-75076753D01*
X40104383Y-75089169D01*
X40110572Y-75102254D01*
X40115449Y-75115883D01*
X40118966Y-75129924D01*
X40121090Y-75144242D01*
X40121800Y-75158700D01*
X40121800Y-75453700D01*
X40121090Y-75468158D01*
X40118966Y-75482476D01*
X40115449Y-75496517D01*
X40110572Y-75510146D01*
X40104383Y-75523231D01*
X40096942Y-75535647D01*
X40088319Y-75547273D01*
X40078598Y-75557998D01*
X40067873Y-75567719D01*
X40056247Y-75576342D01*
X40043831Y-75583783D01*
X40030746Y-75589972D01*
X40017117Y-75594849D01*
X40003076Y-75598366D01*
X39988758Y-75600490D01*
X39974300Y-75601200D01*
X39629300Y-75601200D01*
X39614842Y-75600490D01*
X39600524Y-75598366D01*
X39586483Y-75594849D01*
X39572854Y-75589972D01*
X39559769Y-75583783D01*
X39547353Y-75576342D01*
X39535727Y-75567719D01*
X39525002Y-75557998D01*
X39515281Y-75547273D01*
X39506658Y-75535647D01*
X39499217Y-75523231D01*
X39493028Y-75510146D01*
X39488151Y-75496517D01*
X39484634Y-75482476D01*
X39482510Y-75468158D01*
X39481800Y-75453700D01*
X39481800Y-75158700D01*
X39482510Y-75144242D01*
X39484634Y-75129924D01*
X39488151Y-75115883D01*
X39493028Y-75102254D01*
X39499217Y-75089169D01*
X39506658Y-75076753D01*
X39515281Y-75065127D01*
X39525002Y-75054402D01*
X39535727Y-75044681D01*
X39547353Y-75036058D01*
X39559769Y-75028617D01*
X39572854Y-75022428D01*
X39586483Y-75017551D01*
X39600524Y-75014034D01*
X39614842Y-75011910D01*
X39629300Y-75011200D01*
X39974300Y-75011200D01*
X39988758Y-75011910D01*
X39988758Y-75011910D01*
G37*
D20*
X39801800Y-75306200D03*
D12*
G36*
X39988758Y-75981910D02*
G01*
X40003076Y-75984034D01*
X40017117Y-75987551D01*
X40030746Y-75992428D01*
X40043831Y-75998617D01*
X40056247Y-76006058D01*
X40067873Y-76014681D01*
X40078598Y-76024402D01*
X40088319Y-76035127D01*
X40096942Y-76046753D01*
X40104383Y-76059169D01*
X40110572Y-76072254D01*
X40115449Y-76085883D01*
X40118966Y-76099924D01*
X40121090Y-76114242D01*
X40121800Y-76128700D01*
X40121800Y-76423700D01*
X40121090Y-76438158D01*
X40118966Y-76452476D01*
X40115449Y-76466517D01*
X40110572Y-76480146D01*
X40104383Y-76493231D01*
X40096942Y-76505647D01*
X40088319Y-76517273D01*
X40078598Y-76527998D01*
X40067873Y-76537719D01*
X40056247Y-76546342D01*
X40043831Y-76553783D01*
X40030746Y-76559972D01*
X40017117Y-76564849D01*
X40003076Y-76568366D01*
X39988758Y-76570490D01*
X39974300Y-76571200D01*
X39629300Y-76571200D01*
X39614842Y-76570490D01*
X39600524Y-76568366D01*
X39586483Y-76564849D01*
X39572854Y-76559972D01*
X39559769Y-76553783D01*
X39547353Y-76546342D01*
X39535727Y-76537719D01*
X39525002Y-76527998D01*
X39515281Y-76517273D01*
X39506658Y-76505647D01*
X39499217Y-76493231D01*
X39493028Y-76480146D01*
X39488151Y-76466517D01*
X39484634Y-76452476D01*
X39482510Y-76438158D01*
X39481800Y-76423700D01*
X39481800Y-76128700D01*
X39482510Y-76114242D01*
X39484634Y-76099924D01*
X39488151Y-76085883D01*
X39493028Y-76072254D01*
X39499217Y-76059169D01*
X39506658Y-76046753D01*
X39515281Y-76035127D01*
X39525002Y-76024402D01*
X39535727Y-76014681D01*
X39547353Y-76006058D01*
X39559769Y-75998617D01*
X39572854Y-75992428D01*
X39586483Y-75987551D01*
X39600524Y-75984034D01*
X39614842Y-75981910D01*
X39629300Y-75981200D01*
X39974300Y-75981200D01*
X39988758Y-75981910D01*
X39988758Y-75981910D01*
G37*
D20*
X39801800Y-76276200D03*
D21*
X39946000Y-37566600D03*
X37846000Y-37566600D03*
D12*
G36*
X31102003Y-71381363D02*
G01*
X31121418Y-71384243D01*
X31140457Y-71389012D01*
X31158937Y-71395624D01*
X31176679Y-71404016D01*
X31193514Y-71414106D01*
X31209279Y-71425798D01*
X31223821Y-71438979D01*
X31237002Y-71453521D01*
X31248694Y-71469286D01*
X31258784Y-71486121D01*
X31267176Y-71503863D01*
X31273788Y-71522343D01*
X31278557Y-71541382D01*
X31281437Y-71560797D01*
X31282400Y-71580400D01*
X31282400Y-71980400D01*
X31281437Y-72000003D01*
X31278557Y-72019418D01*
X31273788Y-72038457D01*
X31267176Y-72056937D01*
X31258784Y-72074679D01*
X31248694Y-72091514D01*
X31237002Y-72107279D01*
X31223821Y-72121821D01*
X31209279Y-72135002D01*
X31193514Y-72146694D01*
X31176679Y-72156784D01*
X31158937Y-72165176D01*
X31140457Y-72171788D01*
X31121418Y-72176557D01*
X31102003Y-72179437D01*
X31082400Y-72180400D01*
X30182400Y-72180400D01*
X30162797Y-72179437D01*
X30143382Y-72176557D01*
X30124343Y-72171788D01*
X30105863Y-72165176D01*
X30088121Y-72156784D01*
X30071286Y-72146694D01*
X30055521Y-72135002D01*
X30040979Y-72121821D01*
X30027798Y-72107279D01*
X30016106Y-72091514D01*
X30006016Y-72074679D01*
X29997624Y-72056937D01*
X29991012Y-72038457D01*
X29986243Y-72019418D01*
X29983363Y-72000003D01*
X29982400Y-71980400D01*
X29982400Y-71580400D01*
X29983363Y-71560797D01*
X29986243Y-71541382D01*
X29991012Y-71522343D01*
X29997624Y-71503863D01*
X30006016Y-71486121D01*
X30016106Y-71469286D01*
X30027798Y-71453521D01*
X30040979Y-71438979D01*
X30055521Y-71425798D01*
X30071286Y-71414106D01*
X30088121Y-71404016D01*
X30105863Y-71395624D01*
X30124343Y-71389012D01*
X30143382Y-71384243D01*
X30162797Y-71381363D01*
X30182400Y-71380400D01*
X31082400Y-71380400D01*
X31102003Y-71381363D01*
X31102003Y-71381363D01*
G37*
D11*
X30632400Y-71780400D03*
D22*
X30632400Y-73030400D03*
D12*
G36*
X46015803Y-79741963D02*
G01*
X46035218Y-79744843D01*
X46054257Y-79749612D01*
X46072737Y-79756224D01*
X46090479Y-79764616D01*
X46107314Y-79774706D01*
X46123079Y-79786398D01*
X46137621Y-79799579D01*
X46150802Y-79814121D01*
X46162494Y-79829886D01*
X46172584Y-79846721D01*
X46180976Y-79864463D01*
X46187588Y-79882943D01*
X46192357Y-79901982D01*
X46195237Y-79921397D01*
X46196200Y-79941000D01*
X46196200Y-80841000D01*
X46195237Y-80860603D01*
X46192357Y-80880018D01*
X46187588Y-80899057D01*
X46180976Y-80917537D01*
X46172584Y-80935279D01*
X46162494Y-80952114D01*
X46150802Y-80967879D01*
X46137621Y-80982421D01*
X46123079Y-80995602D01*
X46107314Y-81007294D01*
X46090479Y-81017384D01*
X46072737Y-81025776D01*
X46054257Y-81032388D01*
X46035218Y-81037157D01*
X46015803Y-81040037D01*
X45996200Y-81041000D01*
X45596200Y-81041000D01*
X45576597Y-81040037D01*
X45557182Y-81037157D01*
X45538143Y-81032388D01*
X45519663Y-81025776D01*
X45501921Y-81017384D01*
X45485086Y-81007294D01*
X45469321Y-80995602D01*
X45454779Y-80982421D01*
X45441598Y-80967879D01*
X45429906Y-80952114D01*
X45419816Y-80935279D01*
X45411424Y-80917537D01*
X45404812Y-80899057D01*
X45400043Y-80880018D01*
X45397163Y-80860603D01*
X45396200Y-80841000D01*
X45396200Y-79941000D01*
X45397163Y-79921397D01*
X45400043Y-79901982D01*
X45404812Y-79882943D01*
X45411424Y-79864463D01*
X45419816Y-79846721D01*
X45429906Y-79829886D01*
X45441598Y-79814121D01*
X45454779Y-79799579D01*
X45469321Y-79786398D01*
X45485086Y-79774706D01*
X45501921Y-79764616D01*
X45519663Y-79756224D01*
X45538143Y-79749612D01*
X45557182Y-79744843D01*
X45576597Y-79741963D01*
X45596200Y-79741000D01*
X45996200Y-79741000D01*
X46015803Y-79741963D01*
X46015803Y-79741963D01*
G37*
D11*
X45796200Y-80391000D03*
D13*
X47046200Y-80391000D03*
X48296200Y-80391000D03*
X49546200Y-80391000D03*
X50796200Y-80391000D03*
X52046200Y-80391000D03*
X53296200Y-80391000D03*
D12*
G36*
X120738603Y-39732963D02*
G01*
X120758018Y-39735843D01*
X120777057Y-39740612D01*
X120795537Y-39747224D01*
X120813279Y-39755616D01*
X120830114Y-39765706D01*
X120845879Y-39777398D01*
X120860421Y-39790579D01*
X120873602Y-39805121D01*
X120885294Y-39820886D01*
X120895384Y-39837721D01*
X120903776Y-39855463D01*
X120910388Y-39873943D01*
X120915157Y-39892982D01*
X120918037Y-39912397D01*
X120919000Y-39932000D01*
X120919000Y-40332000D01*
X120918037Y-40351603D01*
X120915157Y-40371018D01*
X120910388Y-40390057D01*
X120903776Y-40408537D01*
X120895384Y-40426279D01*
X120885294Y-40443114D01*
X120873602Y-40458879D01*
X120860421Y-40473421D01*
X120845879Y-40486602D01*
X120830114Y-40498294D01*
X120813279Y-40508384D01*
X120795537Y-40516776D01*
X120777057Y-40523388D01*
X120758018Y-40528157D01*
X120738603Y-40531037D01*
X120719000Y-40532000D01*
X119819000Y-40532000D01*
X119799397Y-40531037D01*
X119779982Y-40528157D01*
X119760943Y-40523388D01*
X119742463Y-40516776D01*
X119724721Y-40508384D01*
X119707886Y-40498294D01*
X119692121Y-40486602D01*
X119677579Y-40473421D01*
X119664398Y-40458879D01*
X119652706Y-40443114D01*
X119642616Y-40426279D01*
X119634224Y-40408537D01*
X119627612Y-40390057D01*
X119622843Y-40371018D01*
X119619963Y-40351603D01*
X119619000Y-40332000D01*
X119619000Y-39932000D01*
X119619963Y-39912397D01*
X119622843Y-39892982D01*
X119627612Y-39873943D01*
X119634224Y-39855463D01*
X119642616Y-39837721D01*
X119652706Y-39820886D01*
X119664398Y-39805121D01*
X119677579Y-39790579D01*
X119692121Y-39777398D01*
X119707886Y-39765706D01*
X119724721Y-39755616D01*
X119742463Y-39747224D01*
X119760943Y-39740612D01*
X119779982Y-39735843D01*
X119799397Y-39732963D01*
X119819000Y-39732000D01*
X120719000Y-39732000D01*
X120738603Y-39732963D01*
X120738603Y-39732963D01*
G37*
D11*
X120269000Y-40132000D03*
D22*
X120269000Y-38882000D03*
X120269000Y-37632000D03*
X120269000Y-36382000D03*
D12*
G36*
X65904003Y-79741963D02*
G01*
X65923418Y-79744843D01*
X65942457Y-79749612D01*
X65960937Y-79756224D01*
X65978679Y-79764616D01*
X65995514Y-79774706D01*
X66011279Y-79786398D01*
X66025821Y-79799579D01*
X66039002Y-79814121D01*
X66050694Y-79829886D01*
X66060784Y-79846721D01*
X66069176Y-79864463D01*
X66075788Y-79882943D01*
X66080557Y-79901982D01*
X66083437Y-79921397D01*
X66084400Y-79941000D01*
X66084400Y-80841000D01*
X66083437Y-80860603D01*
X66080557Y-80880018D01*
X66075788Y-80899057D01*
X66069176Y-80917537D01*
X66060784Y-80935279D01*
X66050694Y-80952114D01*
X66039002Y-80967879D01*
X66025821Y-80982421D01*
X66011279Y-80995602D01*
X65995514Y-81007294D01*
X65978679Y-81017384D01*
X65960937Y-81025776D01*
X65942457Y-81032388D01*
X65923418Y-81037157D01*
X65904003Y-81040037D01*
X65884400Y-81041000D01*
X65484400Y-81041000D01*
X65464797Y-81040037D01*
X65445382Y-81037157D01*
X65426343Y-81032388D01*
X65407863Y-81025776D01*
X65390121Y-81017384D01*
X65373286Y-81007294D01*
X65357521Y-80995602D01*
X65342979Y-80982421D01*
X65329798Y-80967879D01*
X65318106Y-80952114D01*
X65308016Y-80935279D01*
X65299624Y-80917537D01*
X65293012Y-80899057D01*
X65288243Y-80880018D01*
X65285363Y-80860603D01*
X65284400Y-80841000D01*
X65284400Y-79941000D01*
X65285363Y-79921397D01*
X65288243Y-79901982D01*
X65293012Y-79882943D01*
X65299624Y-79864463D01*
X65308016Y-79846721D01*
X65318106Y-79829886D01*
X65329798Y-79814121D01*
X65342979Y-79799579D01*
X65357521Y-79786398D01*
X65373286Y-79774706D01*
X65390121Y-79764616D01*
X65407863Y-79756224D01*
X65426343Y-79749612D01*
X65445382Y-79744843D01*
X65464797Y-79741963D01*
X65484400Y-79741000D01*
X65884400Y-79741000D01*
X65904003Y-79741963D01*
X65904003Y-79741963D01*
G37*
D11*
X65684400Y-80391000D03*
D13*
X66934400Y-80391000D03*
X68184400Y-80391000D03*
X69434400Y-80391000D03*
D23*
X52451000Y-30099000D03*
D24*
X52451000Y-27559000D03*
X54991000Y-30099000D03*
X54991000Y-27559000D03*
X57531000Y-30099000D03*
X57531000Y-27559000D03*
X60071000Y-30099000D03*
X60071000Y-27559000D03*
X62611000Y-30099000D03*
X62611000Y-27559000D03*
X65151000Y-30099000D03*
X65151000Y-27559000D03*
X67691000Y-30099000D03*
X67691000Y-27559000D03*
X70231000Y-30099000D03*
X70231000Y-27559000D03*
D23*
X70231000Y-32639000D03*
D24*
X67691000Y-32639000D03*
X65151000Y-32639000D03*
X62611000Y-32639000D03*
X60071000Y-32639000D03*
X57531000Y-32639000D03*
X54991000Y-32639000D03*
X52451000Y-32639000D03*
D12*
G36*
X34282842Y-44919574D02*
G01*
X34306503Y-44923084D01*
X34329707Y-44928896D01*
X34352229Y-44936954D01*
X34373853Y-44947182D01*
X34394370Y-44959479D01*
X34413583Y-44973729D01*
X34431307Y-44989793D01*
X34447371Y-45007517D01*
X34461621Y-45026730D01*
X34473918Y-45047247D01*
X34484146Y-45068871D01*
X34492204Y-45091393D01*
X34498016Y-45114597D01*
X34501526Y-45138258D01*
X34502700Y-45162150D01*
X34502700Y-46074650D01*
X34501526Y-46098542D01*
X34498016Y-46122203D01*
X34492204Y-46145407D01*
X34484146Y-46167929D01*
X34473918Y-46189553D01*
X34461621Y-46210070D01*
X34447371Y-46229283D01*
X34431307Y-46247007D01*
X34413583Y-46263071D01*
X34394370Y-46277321D01*
X34373853Y-46289618D01*
X34352229Y-46299846D01*
X34329707Y-46307904D01*
X34306503Y-46313716D01*
X34282842Y-46317226D01*
X34258950Y-46318400D01*
X33771450Y-46318400D01*
X33747558Y-46317226D01*
X33723897Y-46313716D01*
X33700693Y-46307904D01*
X33678171Y-46299846D01*
X33656547Y-46289618D01*
X33636030Y-46277321D01*
X33616817Y-46263071D01*
X33599093Y-46247007D01*
X33583029Y-46229283D01*
X33568779Y-46210070D01*
X33556482Y-46189553D01*
X33546254Y-46167929D01*
X33538196Y-46145407D01*
X33532384Y-46122203D01*
X33528874Y-46098542D01*
X33527700Y-46074650D01*
X33527700Y-45162150D01*
X33528874Y-45138258D01*
X33532384Y-45114597D01*
X33538196Y-45091393D01*
X33546254Y-45068871D01*
X33556482Y-45047247D01*
X33568779Y-45026730D01*
X33583029Y-45007517D01*
X33599093Y-44989793D01*
X33616817Y-44973729D01*
X33636030Y-44959479D01*
X33656547Y-44947182D01*
X33678171Y-44936954D01*
X33700693Y-44928896D01*
X33723897Y-44923084D01*
X33747558Y-44919574D01*
X33771450Y-44918400D01*
X34258950Y-44918400D01*
X34282842Y-44919574D01*
X34282842Y-44919574D01*
G37*
D18*
X34015200Y-45618400D03*
D12*
G36*
X36157842Y-44919574D02*
G01*
X36181503Y-44923084D01*
X36204707Y-44928896D01*
X36227229Y-44936954D01*
X36248853Y-44947182D01*
X36269370Y-44959479D01*
X36288583Y-44973729D01*
X36306307Y-44989793D01*
X36322371Y-45007517D01*
X36336621Y-45026730D01*
X36348918Y-45047247D01*
X36359146Y-45068871D01*
X36367204Y-45091393D01*
X36373016Y-45114597D01*
X36376526Y-45138258D01*
X36377700Y-45162150D01*
X36377700Y-46074650D01*
X36376526Y-46098542D01*
X36373016Y-46122203D01*
X36367204Y-46145407D01*
X36359146Y-46167929D01*
X36348918Y-46189553D01*
X36336621Y-46210070D01*
X36322371Y-46229283D01*
X36306307Y-46247007D01*
X36288583Y-46263071D01*
X36269370Y-46277321D01*
X36248853Y-46289618D01*
X36227229Y-46299846D01*
X36204707Y-46307904D01*
X36181503Y-46313716D01*
X36157842Y-46317226D01*
X36133950Y-46318400D01*
X35646450Y-46318400D01*
X35622558Y-46317226D01*
X35598897Y-46313716D01*
X35575693Y-46307904D01*
X35553171Y-46299846D01*
X35531547Y-46289618D01*
X35511030Y-46277321D01*
X35491817Y-46263071D01*
X35474093Y-46247007D01*
X35458029Y-46229283D01*
X35443779Y-46210070D01*
X35431482Y-46189553D01*
X35421254Y-46167929D01*
X35413196Y-46145407D01*
X35407384Y-46122203D01*
X35403874Y-46098542D01*
X35402700Y-46074650D01*
X35402700Y-45162150D01*
X35403874Y-45138258D01*
X35407384Y-45114597D01*
X35413196Y-45091393D01*
X35421254Y-45068871D01*
X35431482Y-45047247D01*
X35443779Y-45026730D01*
X35458029Y-45007517D01*
X35474093Y-44989793D01*
X35491817Y-44973729D01*
X35511030Y-44959479D01*
X35531547Y-44947182D01*
X35553171Y-44936954D01*
X35575693Y-44928896D01*
X35598897Y-44923084D01*
X35622558Y-44919574D01*
X35646450Y-44918400D01*
X36133950Y-44918400D01*
X36157842Y-44919574D01*
X36157842Y-44919574D01*
G37*
D18*
X35890200Y-45618400D03*
D12*
G36*
X40674442Y-42862174D02*
G01*
X40698103Y-42865684D01*
X40721307Y-42871496D01*
X40743829Y-42879554D01*
X40765453Y-42889782D01*
X40785970Y-42902079D01*
X40805183Y-42916329D01*
X40822907Y-42932393D01*
X40838971Y-42950117D01*
X40853221Y-42969330D01*
X40865518Y-42989847D01*
X40875746Y-43011471D01*
X40883804Y-43033993D01*
X40889616Y-43057197D01*
X40893126Y-43080858D01*
X40894300Y-43104750D01*
X40894300Y-44017250D01*
X40893126Y-44041142D01*
X40889616Y-44064803D01*
X40883804Y-44088007D01*
X40875746Y-44110529D01*
X40865518Y-44132153D01*
X40853221Y-44152670D01*
X40838971Y-44171883D01*
X40822907Y-44189607D01*
X40805183Y-44205671D01*
X40785970Y-44219921D01*
X40765453Y-44232218D01*
X40743829Y-44242446D01*
X40721307Y-44250504D01*
X40698103Y-44256316D01*
X40674442Y-44259826D01*
X40650550Y-44261000D01*
X40163050Y-44261000D01*
X40139158Y-44259826D01*
X40115497Y-44256316D01*
X40092293Y-44250504D01*
X40069771Y-44242446D01*
X40048147Y-44232218D01*
X40027630Y-44219921D01*
X40008417Y-44205671D01*
X39990693Y-44189607D01*
X39974629Y-44171883D01*
X39960379Y-44152670D01*
X39948082Y-44132153D01*
X39937854Y-44110529D01*
X39929796Y-44088007D01*
X39923984Y-44064803D01*
X39920474Y-44041142D01*
X39919300Y-44017250D01*
X39919300Y-43104750D01*
X39920474Y-43080858D01*
X39923984Y-43057197D01*
X39929796Y-43033993D01*
X39937854Y-43011471D01*
X39948082Y-42989847D01*
X39960379Y-42969330D01*
X39974629Y-42950117D01*
X39990693Y-42932393D01*
X40008417Y-42916329D01*
X40027630Y-42902079D01*
X40048147Y-42889782D01*
X40069771Y-42879554D01*
X40092293Y-42871496D01*
X40115497Y-42865684D01*
X40139158Y-42862174D01*
X40163050Y-42861000D01*
X40650550Y-42861000D01*
X40674442Y-42862174D01*
X40674442Y-42862174D01*
G37*
D18*
X40406800Y-43561000D03*
D12*
G36*
X38799442Y-42862174D02*
G01*
X38823103Y-42865684D01*
X38846307Y-42871496D01*
X38868829Y-42879554D01*
X38890453Y-42889782D01*
X38910970Y-42902079D01*
X38930183Y-42916329D01*
X38947907Y-42932393D01*
X38963971Y-42950117D01*
X38978221Y-42969330D01*
X38990518Y-42989847D01*
X39000746Y-43011471D01*
X39008804Y-43033993D01*
X39014616Y-43057197D01*
X39018126Y-43080858D01*
X39019300Y-43104750D01*
X39019300Y-44017250D01*
X39018126Y-44041142D01*
X39014616Y-44064803D01*
X39008804Y-44088007D01*
X39000746Y-44110529D01*
X38990518Y-44132153D01*
X38978221Y-44152670D01*
X38963971Y-44171883D01*
X38947907Y-44189607D01*
X38930183Y-44205671D01*
X38910970Y-44219921D01*
X38890453Y-44232218D01*
X38868829Y-44242446D01*
X38846307Y-44250504D01*
X38823103Y-44256316D01*
X38799442Y-44259826D01*
X38775550Y-44261000D01*
X38288050Y-44261000D01*
X38264158Y-44259826D01*
X38240497Y-44256316D01*
X38217293Y-44250504D01*
X38194771Y-44242446D01*
X38173147Y-44232218D01*
X38152630Y-44219921D01*
X38133417Y-44205671D01*
X38115693Y-44189607D01*
X38099629Y-44171883D01*
X38085379Y-44152670D01*
X38073082Y-44132153D01*
X38062854Y-44110529D01*
X38054796Y-44088007D01*
X38048984Y-44064803D01*
X38045474Y-44041142D01*
X38044300Y-44017250D01*
X38044300Y-43104750D01*
X38045474Y-43080858D01*
X38048984Y-43057197D01*
X38054796Y-43033993D01*
X38062854Y-43011471D01*
X38073082Y-42989847D01*
X38085379Y-42969330D01*
X38099629Y-42950117D01*
X38115693Y-42932393D01*
X38133417Y-42916329D01*
X38152630Y-42902079D01*
X38173147Y-42889782D01*
X38194771Y-42879554D01*
X38217293Y-42871496D01*
X38240497Y-42865684D01*
X38264158Y-42862174D01*
X38288050Y-42861000D01*
X38775550Y-42861000D01*
X38799442Y-42862174D01*
X38799442Y-42862174D01*
G37*
D18*
X38531800Y-43561000D03*
D12*
G36*
X38804042Y-40804774D02*
G01*
X38827703Y-40808284D01*
X38850907Y-40814096D01*
X38873429Y-40822154D01*
X38895053Y-40832382D01*
X38915570Y-40844679D01*
X38934783Y-40858929D01*
X38952507Y-40874993D01*
X38968571Y-40892717D01*
X38982821Y-40911930D01*
X38995118Y-40932447D01*
X39005346Y-40954071D01*
X39013404Y-40976593D01*
X39019216Y-40999797D01*
X39022726Y-41023458D01*
X39023900Y-41047350D01*
X39023900Y-41959850D01*
X39022726Y-41983742D01*
X39019216Y-42007403D01*
X39013404Y-42030607D01*
X39005346Y-42053129D01*
X38995118Y-42074753D01*
X38982821Y-42095270D01*
X38968571Y-42114483D01*
X38952507Y-42132207D01*
X38934783Y-42148271D01*
X38915570Y-42162521D01*
X38895053Y-42174818D01*
X38873429Y-42185046D01*
X38850907Y-42193104D01*
X38827703Y-42198916D01*
X38804042Y-42202426D01*
X38780150Y-42203600D01*
X38292650Y-42203600D01*
X38268758Y-42202426D01*
X38245097Y-42198916D01*
X38221893Y-42193104D01*
X38199371Y-42185046D01*
X38177747Y-42174818D01*
X38157230Y-42162521D01*
X38138017Y-42148271D01*
X38120293Y-42132207D01*
X38104229Y-42114483D01*
X38089979Y-42095270D01*
X38077682Y-42074753D01*
X38067454Y-42053129D01*
X38059396Y-42030607D01*
X38053584Y-42007403D01*
X38050074Y-41983742D01*
X38048900Y-41959850D01*
X38048900Y-41047350D01*
X38050074Y-41023458D01*
X38053584Y-40999797D01*
X38059396Y-40976593D01*
X38067454Y-40954071D01*
X38077682Y-40932447D01*
X38089979Y-40911930D01*
X38104229Y-40892717D01*
X38120293Y-40874993D01*
X38138017Y-40858929D01*
X38157230Y-40844679D01*
X38177747Y-40832382D01*
X38199371Y-40822154D01*
X38221893Y-40814096D01*
X38245097Y-40808284D01*
X38268758Y-40804774D01*
X38292650Y-40803600D01*
X38780150Y-40803600D01*
X38804042Y-40804774D01*
X38804042Y-40804774D01*
G37*
D18*
X38536400Y-41503600D03*
D12*
G36*
X40679042Y-40804774D02*
G01*
X40702703Y-40808284D01*
X40725907Y-40814096D01*
X40748429Y-40822154D01*
X40770053Y-40832382D01*
X40790570Y-40844679D01*
X40809783Y-40858929D01*
X40827507Y-40874993D01*
X40843571Y-40892717D01*
X40857821Y-40911930D01*
X40870118Y-40932447D01*
X40880346Y-40954071D01*
X40888404Y-40976593D01*
X40894216Y-40999797D01*
X40897726Y-41023458D01*
X40898900Y-41047350D01*
X40898900Y-41959850D01*
X40897726Y-41983742D01*
X40894216Y-42007403D01*
X40888404Y-42030607D01*
X40880346Y-42053129D01*
X40870118Y-42074753D01*
X40857821Y-42095270D01*
X40843571Y-42114483D01*
X40827507Y-42132207D01*
X40809783Y-42148271D01*
X40790570Y-42162521D01*
X40770053Y-42174818D01*
X40748429Y-42185046D01*
X40725907Y-42193104D01*
X40702703Y-42198916D01*
X40679042Y-42202426D01*
X40655150Y-42203600D01*
X40167650Y-42203600D01*
X40143758Y-42202426D01*
X40120097Y-42198916D01*
X40096893Y-42193104D01*
X40074371Y-42185046D01*
X40052747Y-42174818D01*
X40032230Y-42162521D01*
X40013017Y-42148271D01*
X39995293Y-42132207D01*
X39979229Y-42114483D01*
X39964979Y-42095270D01*
X39952682Y-42074753D01*
X39942454Y-42053129D01*
X39934396Y-42030607D01*
X39928584Y-42007403D01*
X39925074Y-41983742D01*
X39923900Y-41959850D01*
X39923900Y-41047350D01*
X39925074Y-41023458D01*
X39928584Y-40999797D01*
X39934396Y-40976593D01*
X39942454Y-40954071D01*
X39952682Y-40932447D01*
X39964979Y-40911930D01*
X39979229Y-40892717D01*
X39995293Y-40874993D01*
X40013017Y-40858929D01*
X40032230Y-40844679D01*
X40052747Y-40832382D01*
X40074371Y-40822154D01*
X40096893Y-40814096D01*
X40120097Y-40808284D01*
X40143758Y-40804774D01*
X40167650Y-40803600D01*
X40655150Y-40803600D01*
X40679042Y-40804774D01*
X40679042Y-40804774D01*
G37*
D18*
X40411400Y-41503600D03*
D12*
G36*
X34282842Y-40804774D02*
G01*
X34306503Y-40808284D01*
X34329707Y-40814096D01*
X34352229Y-40822154D01*
X34373853Y-40832382D01*
X34394370Y-40844679D01*
X34413583Y-40858929D01*
X34431307Y-40874993D01*
X34447371Y-40892717D01*
X34461621Y-40911930D01*
X34473918Y-40932447D01*
X34484146Y-40954071D01*
X34492204Y-40976593D01*
X34498016Y-40999797D01*
X34501526Y-41023458D01*
X34502700Y-41047350D01*
X34502700Y-41959850D01*
X34501526Y-41983742D01*
X34498016Y-42007403D01*
X34492204Y-42030607D01*
X34484146Y-42053129D01*
X34473918Y-42074753D01*
X34461621Y-42095270D01*
X34447371Y-42114483D01*
X34431307Y-42132207D01*
X34413583Y-42148271D01*
X34394370Y-42162521D01*
X34373853Y-42174818D01*
X34352229Y-42185046D01*
X34329707Y-42193104D01*
X34306503Y-42198916D01*
X34282842Y-42202426D01*
X34258950Y-42203600D01*
X33771450Y-42203600D01*
X33747558Y-42202426D01*
X33723897Y-42198916D01*
X33700693Y-42193104D01*
X33678171Y-42185046D01*
X33656547Y-42174818D01*
X33636030Y-42162521D01*
X33616817Y-42148271D01*
X33599093Y-42132207D01*
X33583029Y-42114483D01*
X33568779Y-42095270D01*
X33556482Y-42074753D01*
X33546254Y-42053129D01*
X33538196Y-42030607D01*
X33532384Y-42007403D01*
X33528874Y-41983742D01*
X33527700Y-41959850D01*
X33527700Y-41047350D01*
X33528874Y-41023458D01*
X33532384Y-40999797D01*
X33538196Y-40976593D01*
X33546254Y-40954071D01*
X33556482Y-40932447D01*
X33568779Y-40911930D01*
X33583029Y-40892717D01*
X33599093Y-40874993D01*
X33616817Y-40858929D01*
X33636030Y-40844679D01*
X33656547Y-40832382D01*
X33678171Y-40822154D01*
X33700693Y-40814096D01*
X33723897Y-40808284D01*
X33747558Y-40804774D01*
X33771450Y-40803600D01*
X34258950Y-40803600D01*
X34282842Y-40804774D01*
X34282842Y-40804774D01*
G37*
D18*
X34015200Y-41503600D03*
D12*
G36*
X36157842Y-40804774D02*
G01*
X36181503Y-40808284D01*
X36204707Y-40814096D01*
X36227229Y-40822154D01*
X36248853Y-40832382D01*
X36269370Y-40844679D01*
X36288583Y-40858929D01*
X36306307Y-40874993D01*
X36322371Y-40892717D01*
X36336621Y-40911930D01*
X36348918Y-40932447D01*
X36359146Y-40954071D01*
X36367204Y-40976593D01*
X36373016Y-40999797D01*
X36376526Y-41023458D01*
X36377700Y-41047350D01*
X36377700Y-41959850D01*
X36376526Y-41983742D01*
X36373016Y-42007403D01*
X36367204Y-42030607D01*
X36359146Y-42053129D01*
X36348918Y-42074753D01*
X36336621Y-42095270D01*
X36322371Y-42114483D01*
X36306307Y-42132207D01*
X36288583Y-42148271D01*
X36269370Y-42162521D01*
X36248853Y-42174818D01*
X36227229Y-42185046D01*
X36204707Y-42193104D01*
X36181503Y-42198916D01*
X36157842Y-42202426D01*
X36133950Y-42203600D01*
X35646450Y-42203600D01*
X35622558Y-42202426D01*
X35598897Y-42198916D01*
X35575693Y-42193104D01*
X35553171Y-42185046D01*
X35531547Y-42174818D01*
X35511030Y-42162521D01*
X35491817Y-42148271D01*
X35474093Y-42132207D01*
X35458029Y-42114483D01*
X35443779Y-42095270D01*
X35431482Y-42074753D01*
X35421254Y-42053129D01*
X35413196Y-42030607D01*
X35407384Y-42007403D01*
X35403874Y-41983742D01*
X35402700Y-41959850D01*
X35402700Y-41047350D01*
X35403874Y-41023458D01*
X35407384Y-40999797D01*
X35413196Y-40976593D01*
X35421254Y-40954071D01*
X35431482Y-40932447D01*
X35443779Y-40911930D01*
X35458029Y-40892717D01*
X35474093Y-40874993D01*
X35491817Y-40858929D01*
X35511030Y-40844679D01*
X35531547Y-40832382D01*
X35553171Y-40822154D01*
X35575693Y-40814096D01*
X35598897Y-40808284D01*
X35622558Y-40804774D01*
X35646450Y-40803600D01*
X36133950Y-40803600D01*
X36157842Y-40804774D01*
X36157842Y-40804774D01*
G37*
D18*
X35890200Y-41503600D03*
D12*
G36*
X34282842Y-38747374D02*
G01*
X34306503Y-38750884D01*
X34329707Y-38756696D01*
X34352229Y-38764754D01*
X34373853Y-38774982D01*
X34394370Y-38787279D01*
X34413583Y-38801529D01*
X34431307Y-38817593D01*
X34447371Y-38835317D01*
X34461621Y-38854530D01*
X34473918Y-38875047D01*
X34484146Y-38896671D01*
X34492204Y-38919193D01*
X34498016Y-38942397D01*
X34501526Y-38966058D01*
X34502700Y-38989950D01*
X34502700Y-39902450D01*
X34501526Y-39926342D01*
X34498016Y-39950003D01*
X34492204Y-39973207D01*
X34484146Y-39995729D01*
X34473918Y-40017353D01*
X34461621Y-40037870D01*
X34447371Y-40057083D01*
X34431307Y-40074807D01*
X34413583Y-40090871D01*
X34394370Y-40105121D01*
X34373853Y-40117418D01*
X34352229Y-40127646D01*
X34329707Y-40135704D01*
X34306503Y-40141516D01*
X34282842Y-40145026D01*
X34258950Y-40146200D01*
X33771450Y-40146200D01*
X33747558Y-40145026D01*
X33723897Y-40141516D01*
X33700693Y-40135704D01*
X33678171Y-40127646D01*
X33656547Y-40117418D01*
X33636030Y-40105121D01*
X33616817Y-40090871D01*
X33599093Y-40074807D01*
X33583029Y-40057083D01*
X33568779Y-40037870D01*
X33556482Y-40017353D01*
X33546254Y-39995729D01*
X33538196Y-39973207D01*
X33532384Y-39950003D01*
X33528874Y-39926342D01*
X33527700Y-39902450D01*
X33527700Y-38989950D01*
X33528874Y-38966058D01*
X33532384Y-38942397D01*
X33538196Y-38919193D01*
X33546254Y-38896671D01*
X33556482Y-38875047D01*
X33568779Y-38854530D01*
X33583029Y-38835317D01*
X33599093Y-38817593D01*
X33616817Y-38801529D01*
X33636030Y-38787279D01*
X33656547Y-38774982D01*
X33678171Y-38764754D01*
X33700693Y-38756696D01*
X33723897Y-38750884D01*
X33747558Y-38747374D01*
X33771450Y-38746200D01*
X34258950Y-38746200D01*
X34282842Y-38747374D01*
X34282842Y-38747374D01*
G37*
D18*
X34015200Y-39446200D03*
D12*
G36*
X36157842Y-38747374D02*
G01*
X36181503Y-38750884D01*
X36204707Y-38756696D01*
X36227229Y-38764754D01*
X36248853Y-38774982D01*
X36269370Y-38787279D01*
X36288583Y-38801529D01*
X36306307Y-38817593D01*
X36322371Y-38835317D01*
X36336621Y-38854530D01*
X36348918Y-38875047D01*
X36359146Y-38896671D01*
X36367204Y-38919193D01*
X36373016Y-38942397D01*
X36376526Y-38966058D01*
X36377700Y-38989950D01*
X36377700Y-39902450D01*
X36376526Y-39926342D01*
X36373016Y-39950003D01*
X36367204Y-39973207D01*
X36359146Y-39995729D01*
X36348918Y-40017353D01*
X36336621Y-40037870D01*
X36322371Y-40057083D01*
X36306307Y-40074807D01*
X36288583Y-40090871D01*
X36269370Y-40105121D01*
X36248853Y-40117418D01*
X36227229Y-40127646D01*
X36204707Y-40135704D01*
X36181503Y-40141516D01*
X36157842Y-40145026D01*
X36133950Y-40146200D01*
X35646450Y-40146200D01*
X35622558Y-40145026D01*
X35598897Y-40141516D01*
X35575693Y-40135704D01*
X35553171Y-40127646D01*
X35531547Y-40117418D01*
X35511030Y-40105121D01*
X35491817Y-40090871D01*
X35474093Y-40074807D01*
X35458029Y-40057083D01*
X35443779Y-40037870D01*
X35431482Y-40017353D01*
X35421254Y-39995729D01*
X35413196Y-39973207D01*
X35407384Y-39950003D01*
X35403874Y-39926342D01*
X35402700Y-39902450D01*
X35402700Y-38989950D01*
X35403874Y-38966058D01*
X35407384Y-38942397D01*
X35413196Y-38919193D01*
X35421254Y-38896671D01*
X35431482Y-38875047D01*
X35443779Y-38854530D01*
X35458029Y-38835317D01*
X35474093Y-38817593D01*
X35491817Y-38801529D01*
X35511030Y-38787279D01*
X35531547Y-38774982D01*
X35553171Y-38764754D01*
X35575693Y-38756696D01*
X35598897Y-38750884D01*
X35622558Y-38747374D01*
X35646450Y-38746200D01*
X36133950Y-38746200D01*
X36157842Y-38747374D01*
X36157842Y-38747374D01*
G37*
D18*
X35890200Y-39446200D03*
D12*
G36*
X97062958Y-50582310D02*
G01*
X97077276Y-50584434D01*
X97091317Y-50587951D01*
X97104946Y-50592828D01*
X97118031Y-50599017D01*
X97130447Y-50606458D01*
X97142073Y-50615081D01*
X97152798Y-50624802D01*
X97162519Y-50635527D01*
X97171142Y-50647153D01*
X97178583Y-50659569D01*
X97184772Y-50672654D01*
X97189649Y-50686283D01*
X97193166Y-50700324D01*
X97195290Y-50714642D01*
X97196000Y-50729100D01*
X97196000Y-51074100D01*
X97195290Y-51088558D01*
X97193166Y-51102876D01*
X97189649Y-51116917D01*
X97184772Y-51130546D01*
X97178583Y-51143631D01*
X97171142Y-51156047D01*
X97162519Y-51167673D01*
X97152798Y-51178398D01*
X97142073Y-51188119D01*
X97130447Y-51196742D01*
X97118031Y-51204183D01*
X97104946Y-51210372D01*
X97091317Y-51215249D01*
X97077276Y-51218766D01*
X97062958Y-51220890D01*
X97048500Y-51221600D01*
X96753500Y-51221600D01*
X96739042Y-51220890D01*
X96724724Y-51218766D01*
X96710683Y-51215249D01*
X96697054Y-51210372D01*
X96683969Y-51204183D01*
X96671553Y-51196742D01*
X96659927Y-51188119D01*
X96649202Y-51178398D01*
X96639481Y-51167673D01*
X96630858Y-51156047D01*
X96623417Y-51143631D01*
X96617228Y-51130546D01*
X96612351Y-51116917D01*
X96608834Y-51102876D01*
X96606710Y-51088558D01*
X96606000Y-51074100D01*
X96606000Y-50729100D01*
X96606710Y-50714642D01*
X96608834Y-50700324D01*
X96612351Y-50686283D01*
X96617228Y-50672654D01*
X96623417Y-50659569D01*
X96630858Y-50647153D01*
X96639481Y-50635527D01*
X96649202Y-50624802D01*
X96659927Y-50615081D01*
X96671553Y-50606458D01*
X96683969Y-50599017D01*
X96697054Y-50592828D01*
X96710683Y-50587951D01*
X96724724Y-50584434D01*
X96739042Y-50582310D01*
X96753500Y-50581600D01*
X97048500Y-50581600D01*
X97062958Y-50582310D01*
X97062958Y-50582310D01*
G37*
D20*
X96901000Y-50901600D03*
D12*
G36*
X96092958Y-50582310D02*
G01*
X96107276Y-50584434D01*
X96121317Y-50587951D01*
X96134946Y-50592828D01*
X96148031Y-50599017D01*
X96160447Y-50606458D01*
X96172073Y-50615081D01*
X96182798Y-50624802D01*
X96192519Y-50635527D01*
X96201142Y-50647153D01*
X96208583Y-50659569D01*
X96214772Y-50672654D01*
X96219649Y-50686283D01*
X96223166Y-50700324D01*
X96225290Y-50714642D01*
X96226000Y-50729100D01*
X96226000Y-51074100D01*
X96225290Y-51088558D01*
X96223166Y-51102876D01*
X96219649Y-51116917D01*
X96214772Y-51130546D01*
X96208583Y-51143631D01*
X96201142Y-51156047D01*
X96192519Y-51167673D01*
X96182798Y-51178398D01*
X96172073Y-51188119D01*
X96160447Y-51196742D01*
X96148031Y-51204183D01*
X96134946Y-51210372D01*
X96121317Y-51215249D01*
X96107276Y-51218766D01*
X96092958Y-51220890D01*
X96078500Y-51221600D01*
X95783500Y-51221600D01*
X95769042Y-51220890D01*
X95754724Y-51218766D01*
X95740683Y-51215249D01*
X95727054Y-51210372D01*
X95713969Y-51204183D01*
X95701553Y-51196742D01*
X95689927Y-51188119D01*
X95679202Y-51178398D01*
X95669481Y-51167673D01*
X95660858Y-51156047D01*
X95653417Y-51143631D01*
X95647228Y-51130546D01*
X95642351Y-51116917D01*
X95638834Y-51102876D01*
X95636710Y-51088558D01*
X95636000Y-51074100D01*
X95636000Y-50729100D01*
X95636710Y-50714642D01*
X95638834Y-50700324D01*
X95642351Y-50686283D01*
X95647228Y-50672654D01*
X95653417Y-50659569D01*
X95660858Y-50647153D01*
X95669481Y-50635527D01*
X95679202Y-50624802D01*
X95689927Y-50615081D01*
X95701553Y-50606458D01*
X95713969Y-50599017D01*
X95727054Y-50592828D01*
X95740683Y-50587951D01*
X95754724Y-50584434D01*
X95769042Y-50582310D01*
X95783500Y-50581600D01*
X96078500Y-50581600D01*
X96092958Y-50582310D01*
X96092958Y-50582310D01*
G37*
D20*
X95931000Y-50901600D03*
D12*
G36*
X96092958Y-49413910D02*
G01*
X96107276Y-49416034D01*
X96121317Y-49419551D01*
X96134946Y-49424428D01*
X96148031Y-49430617D01*
X96160447Y-49438058D01*
X96172073Y-49446681D01*
X96182798Y-49456402D01*
X96192519Y-49467127D01*
X96201142Y-49478753D01*
X96208583Y-49491169D01*
X96214772Y-49504254D01*
X96219649Y-49517883D01*
X96223166Y-49531924D01*
X96225290Y-49546242D01*
X96226000Y-49560700D01*
X96226000Y-49905700D01*
X96225290Y-49920158D01*
X96223166Y-49934476D01*
X96219649Y-49948517D01*
X96214772Y-49962146D01*
X96208583Y-49975231D01*
X96201142Y-49987647D01*
X96192519Y-49999273D01*
X96182798Y-50009998D01*
X96172073Y-50019719D01*
X96160447Y-50028342D01*
X96148031Y-50035783D01*
X96134946Y-50041972D01*
X96121317Y-50046849D01*
X96107276Y-50050366D01*
X96092958Y-50052490D01*
X96078500Y-50053200D01*
X95783500Y-50053200D01*
X95769042Y-50052490D01*
X95754724Y-50050366D01*
X95740683Y-50046849D01*
X95727054Y-50041972D01*
X95713969Y-50035783D01*
X95701553Y-50028342D01*
X95689927Y-50019719D01*
X95679202Y-50009998D01*
X95669481Y-49999273D01*
X95660858Y-49987647D01*
X95653417Y-49975231D01*
X95647228Y-49962146D01*
X95642351Y-49948517D01*
X95638834Y-49934476D01*
X95636710Y-49920158D01*
X95636000Y-49905700D01*
X95636000Y-49560700D01*
X95636710Y-49546242D01*
X95638834Y-49531924D01*
X95642351Y-49517883D01*
X95647228Y-49504254D01*
X95653417Y-49491169D01*
X95660858Y-49478753D01*
X95669481Y-49467127D01*
X95679202Y-49456402D01*
X95689927Y-49446681D01*
X95701553Y-49438058D01*
X95713969Y-49430617D01*
X95727054Y-49424428D01*
X95740683Y-49419551D01*
X95754724Y-49416034D01*
X95769042Y-49413910D01*
X95783500Y-49413200D01*
X96078500Y-49413200D01*
X96092958Y-49413910D01*
X96092958Y-49413910D01*
G37*
D20*
X95931000Y-49733200D03*
D12*
G36*
X97062958Y-49413910D02*
G01*
X97077276Y-49416034D01*
X97091317Y-49419551D01*
X97104946Y-49424428D01*
X97118031Y-49430617D01*
X97130447Y-49438058D01*
X97142073Y-49446681D01*
X97152798Y-49456402D01*
X97162519Y-49467127D01*
X97171142Y-49478753D01*
X97178583Y-49491169D01*
X97184772Y-49504254D01*
X97189649Y-49517883D01*
X97193166Y-49531924D01*
X97195290Y-49546242D01*
X97196000Y-49560700D01*
X97196000Y-49905700D01*
X97195290Y-49920158D01*
X97193166Y-49934476D01*
X97189649Y-49948517D01*
X97184772Y-49962146D01*
X97178583Y-49975231D01*
X97171142Y-49987647D01*
X97162519Y-49999273D01*
X97152798Y-50009998D01*
X97142073Y-50019719D01*
X97130447Y-50028342D01*
X97118031Y-50035783D01*
X97104946Y-50041972D01*
X97091317Y-50046849D01*
X97077276Y-50050366D01*
X97062958Y-50052490D01*
X97048500Y-50053200D01*
X96753500Y-50053200D01*
X96739042Y-50052490D01*
X96724724Y-50050366D01*
X96710683Y-50046849D01*
X96697054Y-50041972D01*
X96683969Y-50035783D01*
X96671553Y-50028342D01*
X96659927Y-50019719D01*
X96649202Y-50009998D01*
X96639481Y-49999273D01*
X96630858Y-49987647D01*
X96623417Y-49975231D01*
X96617228Y-49962146D01*
X96612351Y-49948517D01*
X96608834Y-49934476D01*
X96606710Y-49920158D01*
X96606000Y-49905700D01*
X96606000Y-49560700D01*
X96606710Y-49546242D01*
X96608834Y-49531924D01*
X96612351Y-49517883D01*
X96617228Y-49504254D01*
X96623417Y-49491169D01*
X96630858Y-49478753D01*
X96639481Y-49467127D01*
X96649202Y-49456402D01*
X96659927Y-49446681D01*
X96671553Y-49438058D01*
X96683969Y-49430617D01*
X96697054Y-49424428D01*
X96710683Y-49419551D01*
X96724724Y-49416034D01*
X96739042Y-49413910D01*
X96753500Y-49413200D01*
X97048500Y-49413200D01*
X97062958Y-49413910D01*
X97062958Y-49413910D01*
G37*
D20*
X96901000Y-49733200D03*
D12*
G36*
X104906758Y-55001910D02*
G01*
X104921076Y-55004034D01*
X104935117Y-55007551D01*
X104948746Y-55012428D01*
X104961831Y-55018617D01*
X104974247Y-55026058D01*
X104985873Y-55034681D01*
X104996598Y-55044402D01*
X105006319Y-55055127D01*
X105014942Y-55066753D01*
X105022383Y-55079169D01*
X105028572Y-55092254D01*
X105033449Y-55105883D01*
X105036966Y-55119924D01*
X105039090Y-55134242D01*
X105039800Y-55148700D01*
X105039800Y-55493700D01*
X105039090Y-55508158D01*
X105036966Y-55522476D01*
X105033449Y-55536517D01*
X105028572Y-55550146D01*
X105022383Y-55563231D01*
X105014942Y-55575647D01*
X105006319Y-55587273D01*
X104996598Y-55597998D01*
X104985873Y-55607719D01*
X104974247Y-55616342D01*
X104961831Y-55623783D01*
X104948746Y-55629972D01*
X104935117Y-55634849D01*
X104921076Y-55638366D01*
X104906758Y-55640490D01*
X104892300Y-55641200D01*
X104597300Y-55641200D01*
X104582842Y-55640490D01*
X104568524Y-55638366D01*
X104554483Y-55634849D01*
X104540854Y-55629972D01*
X104527769Y-55623783D01*
X104515353Y-55616342D01*
X104503727Y-55607719D01*
X104493002Y-55597998D01*
X104483281Y-55587273D01*
X104474658Y-55575647D01*
X104467217Y-55563231D01*
X104461028Y-55550146D01*
X104456151Y-55536517D01*
X104452634Y-55522476D01*
X104450510Y-55508158D01*
X104449800Y-55493700D01*
X104449800Y-55148700D01*
X104450510Y-55134242D01*
X104452634Y-55119924D01*
X104456151Y-55105883D01*
X104461028Y-55092254D01*
X104467217Y-55079169D01*
X104474658Y-55066753D01*
X104483281Y-55055127D01*
X104493002Y-55044402D01*
X104503727Y-55034681D01*
X104515353Y-55026058D01*
X104527769Y-55018617D01*
X104540854Y-55012428D01*
X104554483Y-55007551D01*
X104568524Y-55004034D01*
X104582842Y-55001910D01*
X104597300Y-55001200D01*
X104892300Y-55001200D01*
X104906758Y-55001910D01*
X104906758Y-55001910D01*
G37*
D20*
X104744800Y-55321200D03*
D12*
G36*
X105876758Y-55001910D02*
G01*
X105891076Y-55004034D01*
X105905117Y-55007551D01*
X105918746Y-55012428D01*
X105931831Y-55018617D01*
X105944247Y-55026058D01*
X105955873Y-55034681D01*
X105966598Y-55044402D01*
X105976319Y-55055127D01*
X105984942Y-55066753D01*
X105992383Y-55079169D01*
X105998572Y-55092254D01*
X106003449Y-55105883D01*
X106006966Y-55119924D01*
X106009090Y-55134242D01*
X106009800Y-55148700D01*
X106009800Y-55493700D01*
X106009090Y-55508158D01*
X106006966Y-55522476D01*
X106003449Y-55536517D01*
X105998572Y-55550146D01*
X105992383Y-55563231D01*
X105984942Y-55575647D01*
X105976319Y-55587273D01*
X105966598Y-55597998D01*
X105955873Y-55607719D01*
X105944247Y-55616342D01*
X105931831Y-55623783D01*
X105918746Y-55629972D01*
X105905117Y-55634849D01*
X105891076Y-55638366D01*
X105876758Y-55640490D01*
X105862300Y-55641200D01*
X105567300Y-55641200D01*
X105552842Y-55640490D01*
X105538524Y-55638366D01*
X105524483Y-55634849D01*
X105510854Y-55629972D01*
X105497769Y-55623783D01*
X105485353Y-55616342D01*
X105473727Y-55607719D01*
X105463002Y-55597998D01*
X105453281Y-55587273D01*
X105444658Y-55575647D01*
X105437217Y-55563231D01*
X105431028Y-55550146D01*
X105426151Y-55536517D01*
X105422634Y-55522476D01*
X105420510Y-55508158D01*
X105419800Y-55493700D01*
X105419800Y-55148700D01*
X105420510Y-55134242D01*
X105422634Y-55119924D01*
X105426151Y-55105883D01*
X105431028Y-55092254D01*
X105437217Y-55079169D01*
X105444658Y-55066753D01*
X105453281Y-55055127D01*
X105463002Y-55044402D01*
X105473727Y-55034681D01*
X105485353Y-55026058D01*
X105497769Y-55018617D01*
X105510854Y-55012428D01*
X105524483Y-55007551D01*
X105538524Y-55004034D01*
X105552842Y-55001910D01*
X105567300Y-55001200D01*
X105862300Y-55001200D01*
X105876758Y-55001910D01*
X105876758Y-55001910D01*
G37*
D20*
X105714800Y-55321200D03*
D12*
G36*
X105879158Y-56170310D02*
G01*
X105893476Y-56172434D01*
X105907517Y-56175951D01*
X105921146Y-56180828D01*
X105934231Y-56187017D01*
X105946647Y-56194458D01*
X105958273Y-56203081D01*
X105968998Y-56212802D01*
X105978719Y-56223527D01*
X105987342Y-56235153D01*
X105994783Y-56247569D01*
X106000972Y-56260654D01*
X106005849Y-56274283D01*
X106009366Y-56288324D01*
X106011490Y-56302642D01*
X106012200Y-56317100D01*
X106012200Y-56662100D01*
X106011490Y-56676558D01*
X106009366Y-56690876D01*
X106005849Y-56704917D01*
X106000972Y-56718546D01*
X105994783Y-56731631D01*
X105987342Y-56744047D01*
X105978719Y-56755673D01*
X105968998Y-56766398D01*
X105958273Y-56776119D01*
X105946647Y-56784742D01*
X105934231Y-56792183D01*
X105921146Y-56798372D01*
X105907517Y-56803249D01*
X105893476Y-56806766D01*
X105879158Y-56808890D01*
X105864700Y-56809600D01*
X105569700Y-56809600D01*
X105555242Y-56808890D01*
X105540924Y-56806766D01*
X105526883Y-56803249D01*
X105513254Y-56798372D01*
X105500169Y-56792183D01*
X105487753Y-56784742D01*
X105476127Y-56776119D01*
X105465402Y-56766398D01*
X105455681Y-56755673D01*
X105447058Y-56744047D01*
X105439617Y-56731631D01*
X105433428Y-56718546D01*
X105428551Y-56704917D01*
X105425034Y-56690876D01*
X105422910Y-56676558D01*
X105422200Y-56662100D01*
X105422200Y-56317100D01*
X105422910Y-56302642D01*
X105425034Y-56288324D01*
X105428551Y-56274283D01*
X105433428Y-56260654D01*
X105439617Y-56247569D01*
X105447058Y-56235153D01*
X105455681Y-56223527D01*
X105465402Y-56212802D01*
X105476127Y-56203081D01*
X105487753Y-56194458D01*
X105500169Y-56187017D01*
X105513254Y-56180828D01*
X105526883Y-56175951D01*
X105540924Y-56172434D01*
X105555242Y-56170310D01*
X105569700Y-56169600D01*
X105864700Y-56169600D01*
X105879158Y-56170310D01*
X105879158Y-56170310D01*
G37*
D20*
X105717200Y-56489600D03*
D12*
G36*
X104909158Y-56170310D02*
G01*
X104923476Y-56172434D01*
X104937517Y-56175951D01*
X104951146Y-56180828D01*
X104964231Y-56187017D01*
X104976647Y-56194458D01*
X104988273Y-56203081D01*
X104998998Y-56212802D01*
X105008719Y-56223527D01*
X105017342Y-56235153D01*
X105024783Y-56247569D01*
X105030972Y-56260654D01*
X105035849Y-56274283D01*
X105039366Y-56288324D01*
X105041490Y-56302642D01*
X105042200Y-56317100D01*
X105042200Y-56662100D01*
X105041490Y-56676558D01*
X105039366Y-56690876D01*
X105035849Y-56704917D01*
X105030972Y-56718546D01*
X105024783Y-56731631D01*
X105017342Y-56744047D01*
X105008719Y-56755673D01*
X104998998Y-56766398D01*
X104988273Y-56776119D01*
X104976647Y-56784742D01*
X104964231Y-56792183D01*
X104951146Y-56798372D01*
X104937517Y-56803249D01*
X104923476Y-56806766D01*
X104909158Y-56808890D01*
X104894700Y-56809600D01*
X104599700Y-56809600D01*
X104585242Y-56808890D01*
X104570924Y-56806766D01*
X104556883Y-56803249D01*
X104543254Y-56798372D01*
X104530169Y-56792183D01*
X104517753Y-56784742D01*
X104506127Y-56776119D01*
X104495402Y-56766398D01*
X104485681Y-56755673D01*
X104477058Y-56744047D01*
X104469617Y-56731631D01*
X104463428Y-56718546D01*
X104458551Y-56704917D01*
X104455034Y-56690876D01*
X104452910Y-56676558D01*
X104452200Y-56662100D01*
X104452200Y-56317100D01*
X104452910Y-56302642D01*
X104455034Y-56288324D01*
X104458551Y-56274283D01*
X104463428Y-56260654D01*
X104469617Y-56247569D01*
X104477058Y-56235153D01*
X104485681Y-56223527D01*
X104495402Y-56212802D01*
X104506127Y-56203081D01*
X104517753Y-56194458D01*
X104530169Y-56187017D01*
X104543254Y-56180828D01*
X104556883Y-56175951D01*
X104570924Y-56172434D01*
X104585242Y-56170310D01*
X104599700Y-56169600D01*
X104894700Y-56169600D01*
X104909158Y-56170310D01*
X104909158Y-56170310D01*
G37*
D20*
X104747200Y-56489600D03*
D12*
G36*
X99648958Y-57237110D02*
G01*
X99663276Y-57239234D01*
X99677317Y-57242751D01*
X99690946Y-57247628D01*
X99704031Y-57253817D01*
X99716447Y-57261258D01*
X99728073Y-57269881D01*
X99738798Y-57279602D01*
X99748519Y-57290327D01*
X99757142Y-57301953D01*
X99764583Y-57314369D01*
X99770772Y-57327454D01*
X99775649Y-57341083D01*
X99779166Y-57355124D01*
X99781290Y-57369442D01*
X99782000Y-57383900D01*
X99782000Y-57728900D01*
X99781290Y-57743358D01*
X99779166Y-57757676D01*
X99775649Y-57771717D01*
X99770772Y-57785346D01*
X99764583Y-57798431D01*
X99757142Y-57810847D01*
X99748519Y-57822473D01*
X99738798Y-57833198D01*
X99728073Y-57842919D01*
X99716447Y-57851542D01*
X99704031Y-57858983D01*
X99690946Y-57865172D01*
X99677317Y-57870049D01*
X99663276Y-57873566D01*
X99648958Y-57875690D01*
X99634500Y-57876400D01*
X99339500Y-57876400D01*
X99325042Y-57875690D01*
X99310724Y-57873566D01*
X99296683Y-57870049D01*
X99283054Y-57865172D01*
X99269969Y-57858983D01*
X99257553Y-57851542D01*
X99245927Y-57842919D01*
X99235202Y-57833198D01*
X99225481Y-57822473D01*
X99216858Y-57810847D01*
X99209417Y-57798431D01*
X99203228Y-57785346D01*
X99198351Y-57771717D01*
X99194834Y-57757676D01*
X99192710Y-57743358D01*
X99192000Y-57728900D01*
X99192000Y-57383900D01*
X99192710Y-57369442D01*
X99194834Y-57355124D01*
X99198351Y-57341083D01*
X99203228Y-57327454D01*
X99209417Y-57314369D01*
X99216858Y-57301953D01*
X99225481Y-57290327D01*
X99235202Y-57279602D01*
X99245927Y-57269881D01*
X99257553Y-57261258D01*
X99269969Y-57253817D01*
X99283054Y-57247628D01*
X99296683Y-57242751D01*
X99310724Y-57239234D01*
X99325042Y-57237110D01*
X99339500Y-57236400D01*
X99634500Y-57236400D01*
X99648958Y-57237110D01*
X99648958Y-57237110D01*
G37*
D20*
X99487000Y-57556400D03*
D12*
G36*
X100618958Y-57237110D02*
G01*
X100633276Y-57239234D01*
X100647317Y-57242751D01*
X100660946Y-57247628D01*
X100674031Y-57253817D01*
X100686447Y-57261258D01*
X100698073Y-57269881D01*
X100708798Y-57279602D01*
X100718519Y-57290327D01*
X100727142Y-57301953D01*
X100734583Y-57314369D01*
X100740772Y-57327454D01*
X100745649Y-57341083D01*
X100749166Y-57355124D01*
X100751290Y-57369442D01*
X100752000Y-57383900D01*
X100752000Y-57728900D01*
X100751290Y-57743358D01*
X100749166Y-57757676D01*
X100745649Y-57771717D01*
X100740772Y-57785346D01*
X100734583Y-57798431D01*
X100727142Y-57810847D01*
X100718519Y-57822473D01*
X100708798Y-57833198D01*
X100698073Y-57842919D01*
X100686447Y-57851542D01*
X100674031Y-57858983D01*
X100660946Y-57865172D01*
X100647317Y-57870049D01*
X100633276Y-57873566D01*
X100618958Y-57875690D01*
X100604500Y-57876400D01*
X100309500Y-57876400D01*
X100295042Y-57875690D01*
X100280724Y-57873566D01*
X100266683Y-57870049D01*
X100253054Y-57865172D01*
X100239969Y-57858983D01*
X100227553Y-57851542D01*
X100215927Y-57842919D01*
X100205202Y-57833198D01*
X100195481Y-57822473D01*
X100186858Y-57810847D01*
X100179417Y-57798431D01*
X100173228Y-57785346D01*
X100168351Y-57771717D01*
X100164834Y-57757676D01*
X100162710Y-57743358D01*
X100162000Y-57728900D01*
X100162000Y-57383900D01*
X100162710Y-57369442D01*
X100164834Y-57355124D01*
X100168351Y-57341083D01*
X100173228Y-57327454D01*
X100179417Y-57314369D01*
X100186858Y-57301953D01*
X100195481Y-57290327D01*
X100205202Y-57279602D01*
X100215927Y-57269881D01*
X100227553Y-57261258D01*
X100239969Y-57253817D01*
X100253054Y-57247628D01*
X100266683Y-57242751D01*
X100280724Y-57239234D01*
X100295042Y-57237110D01*
X100309500Y-57236400D01*
X100604500Y-57236400D01*
X100618958Y-57237110D01*
X100618958Y-57237110D01*
G37*
D20*
X100457000Y-57556400D03*
D12*
G36*
X100618958Y-56119510D02*
G01*
X100633276Y-56121634D01*
X100647317Y-56125151D01*
X100660946Y-56130028D01*
X100674031Y-56136217D01*
X100686447Y-56143658D01*
X100698073Y-56152281D01*
X100708798Y-56162002D01*
X100718519Y-56172727D01*
X100727142Y-56184353D01*
X100734583Y-56196769D01*
X100740772Y-56209854D01*
X100745649Y-56223483D01*
X100749166Y-56237524D01*
X100751290Y-56251842D01*
X100752000Y-56266300D01*
X100752000Y-56611300D01*
X100751290Y-56625758D01*
X100749166Y-56640076D01*
X100745649Y-56654117D01*
X100740772Y-56667746D01*
X100734583Y-56680831D01*
X100727142Y-56693247D01*
X100718519Y-56704873D01*
X100708798Y-56715598D01*
X100698073Y-56725319D01*
X100686447Y-56733942D01*
X100674031Y-56741383D01*
X100660946Y-56747572D01*
X100647317Y-56752449D01*
X100633276Y-56755966D01*
X100618958Y-56758090D01*
X100604500Y-56758800D01*
X100309500Y-56758800D01*
X100295042Y-56758090D01*
X100280724Y-56755966D01*
X100266683Y-56752449D01*
X100253054Y-56747572D01*
X100239969Y-56741383D01*
X100227553Y-56733942D01*
X100215927Y-56725319D01*
X100205202Y-56715598D01*
X100195481Y-56704873D01*
X100186858Y-56693247D01*
X100179417Y-56680831D01*
X100173228Y-56667746D01*
X100168351Y-56654117D01*
X100164834Y-56640076D01*
X100162710Y-56625758D01*
X100162000Y-56611300D01*
X100162000Y-56266300D01*
X100162710Y-56251842D01*
X100164834Y-56237524D01*
X100168351Y-56223483D01*
X100173228Y-56209854D01*
X100179417Y-56196769D01*
X100186858Y-56184353D01*
X100195481Y-56172727D01*
X100205202Y-56162002D01*
X100215927Y-56152281D01*
X100227553Y-56143658D01*
X100239969Y-56136217D01*
X100253054Y-56130028D01*
X100266683Y-56125151D01*
X100280724Y-56121634D01*
X100295042Y-56119510D01*
X100309500Y-56118800D01*
X100604500Y-56118800D01*
X100618958Y-56119510D01*
X100618958Y-56119510D01*
G37*
D20*
X100457000Y-56438800D03*
D12*
G36*
X99648958Y-56119510D02*
G01*
X99663276Y-56121634D01*
X99677317Y-56125151D01*
X99690946Y-56130028D01*
X99704031Y-56136217D01*
X99716447Y-56143658D01*
X99728073Y-56152281D01*
X99738798Y-56162002D01*
X99748519Y-56172727D01*
X99757142Y-56184353D01*
X99764583Y-56196769D01*
X99770772Y-56209854D01*
X99775649Y-56223483D01*
X99779166Y-56237524D01*
X99781290Y-56251842D01*
X99782000Y-56266300D01*
X99782000Y-56611300D01*
X99781290Y-56625758D01*
X99779166Y-56640076D01*
X99775649Y-56654117D01*
X99770772Y-56667746D01*
X99764583Y-56680831D01*
X99757142Y-56693247D01*
X99748519Y-56704873D01*
X99738798Y-56715598D01*
X99728073Y-56725319D01*
X99716447Y-56733942D01*
X99704031Y-56741383D01*
X99690946Y-56747572D01*
X99677317Y-56752449D01*
X99663276Y-56755966D01*
X99648958Y-56758090D01*
X99634500Y-56758800D01*
X99339500Y-56758800D01*
X99325042Y-56758090D01*
X99310724Y-56755966D01*
X99296683Y-56752449D01*
X99283054Y-56747572D01*
X99269969Y-56741383D01*
X99257553Y-56733942D01*
X99245927Y-56725319D01*
X99235202Y-56715598D01*
X99225481Y-56704873D01*
X99216858Y-56693247D01*
X99209417Y-56680831D01*
X99203228Y-56667746D01*
X99198351Y-56654117D01*
X99194834Y-56640076D01*
X99192710Y-56625758D01*
X99192000Y-56611300D01*
X99192000Y-56266300D01*
X99192710Y-56251842D01*
X99194834Y-56237524D01*
X99198351Y-56223483D01*
X99203228Y-56209854D01*
X99209417Y-56196769D01*
X99216858Y-56184353D01*
X99225481Y-56172727D01*
X99235202Y-56162002D01*
X99245927Y-56152281D01*
X99257553Y-56143658D01*
X99269969Y-56136217D01*
X99283054Y-56130028D01*
X99296683Y-56125151D01*
X99310724Y-56121634D01*
X99325042Y-56119510D01*
X99339500Y-56118800D01*
X99634500Y-56118800D01*
X99648958Y-56119510D01*
X99648958Y-56119510D01*
G37*
D20*
X99487000Y-56438800D03*
D12*
G36*
X99651358Y-55001910D02*
G01*
X99665676Y-55004034D01*
X99679717Y-55007551D01*
X99693346Y-55012428D01*
X99706431Y-55018617D01*
X99718847Y-55026058D01*
X99730473Y-55034681D01*
X99741198Y-55044402D01*
X99750919Y-55055127D01*
X99759542Y-55066753D01*
X99766983Y-55079169D01*
X99773172Y-55092254D01*
X99778049Y-55105883D01*
X99781566Y-55119924D01*
X99783690Y-55134242D01*
X99784400Y-55148700D01*
X99784400Y-55493700D01*
X99783690Y-55508158D01*
X99781566Y-55522476D01*
X99778049Y-55536517D01*
X99773172Y-55550146D01*
X99766983Y-55563231D01*
X99759542Y-55575647D01*
X99750919Y-55587273D01*
X99741198Y-55597998D01*
X99730473Y-55607719D01*
X99718847Y-55616342D01*
X99706431Y-55623783D01*
X99693346Y-55629972D01*
X99679717Y-55634849D01*
X99665676Y-55638366D01*
X99651358Y-55640490D01*
X99636900Y-55641200D01*
X99341900Y-55641200D01*
X99327442Y-55640490D01*
X99313124Y-55638366D01*
X99299083Y-55634849D01*
X99285454Y-55629972D01*
X99272369Y-55623783D01*
X99259953Y-55616342D01*
X99248327Y-55607719D01*
X99237602Y-55597998D01*
X99227881Y-55587273D01*
X99219258Y-55575647D01*
X99211817Y-55563231D01*
X99205628Y-55550146D01*
X99200751Y-55536517D01*
X99197234Y-55522476D01*
X99195110Y-55508158D01*
X99194400Y-55493700D01*
X99194400Y-55148700D01*
X99195110Y-55134242D01*
X99197234Y-55119924D01*
X99200751Y-55105883D01*
X99205628Y-55092254D01*
X99211817Y-55079169D01*
X99219258Y-55066753D01*
X99227881Y-55055127D01*
X99237602Y-55044402D01*
X99248327Y-55034681D01*
X99259953Y-55026058D01*
X99272369Y-55018617D01*
X99285454Y-55012428D01*
X99299083Y-55007551D01*
X99313124Y-55004034D01*
X99327442Y-55001910D01*
X99341900Y-55001200D01*
X99636900Y-55001200D01*
X99651358Y-55001910D01*
X99651358Y-55001910D01*
G37*
D20*
X99489400Y-55321200D03*
D12*
G36*
X100621358Y-55001910D02*
G01*
X100635676Y-55004034D01*
X100649717Y-55007551D01*
X100663346Y-55012428D01*
X100676431Y-55018617D01*
X100688847Y-55026058D01*
X100700473Y-55034681D01*
X100711198Y-55044402D01*
X100720919Y-55055127D01*
X100729542Y-55066753D01*
X100736983Y-55079169D01*
X100743172Y-55092254D01*
X100748049Y-55105883D01*
X100751566Y-55119924D01*
X100753690Y-55134242D01*
X100754400Y-55148700D01*
X100754400Y-55493700D01*
X100753690Y-55508158D01*
X100751566Y-55522476D01*
X100748049Y-55536517D01*
X100743172Y-55550146D01*
X100736983Y-55563231D01*
X100729542Y-55575647D01*
X100720919Y-55587273D01*
X100711198Y-55597998D01*
X100700473Y-55607719D01*
X100688847Y-55616342D01*
X100676431Y-55623783D01*
X100663346Y-55629972D01*
X100649717Y-55634849D01*
X100635676Y-55638366D01*
X100621358Y-55640490D01*
X100606900Y-55641200D01*
X100311900Y-55641200D01*
X100297442Y-55640490D01*
X100283124Y-55638366D01*
X100269083Y-55634849D01*
X100255454Y-55629972D01*
X100242369Y-55623783D01*
X100229953Y-55616342D01*
X100218327Y-55607719D01*
X100207602Y-55597998D01*
X100197881Y-55587273D01*
X100189258Y-55575647D01*
X100181817Y-55563231D01*
X100175628Y-55550146D01*
X100170751Y-55536517D01*
X100167234Y-55522476D01*
X100165110Y-55508158D01*
X100164400Y-55493700D01*
X100164400Y-55148700D01*
X100165110Y-55134242D01*
X100167234Y-55119924D01*
X100170751Y-55105883D01*
X100175628Y-55092254D01*
X100181817Y-55079169D01*
X100189258Y-55066753D01*
X100197881Y-55055127D01*
X100207602Y-55044402D01*
X100218327Y-55034681D01*
X100229953Y-55026058D01*
X100242369Y-55018617D01*
X100255454Y-55012428D01*
X100269083Y-55007551D01*
X100283124Y-55004034D01*
X100297442Y-55001910D01*
X100311900Y-55001200D01*
X100606900Y-55001200D01*
X100621358Y-55001910D01*
X100621358Y-55001910D01*
G37*
D20*
X100459400Y-55321200D03*
D12*
G36*
X99648958Y-53884310D02*
G01*
X99663276Y-53886434D01*
X99677317Y-53889951D01*
X99690946Y-53894828D01*
X99704031Y-53901017D01*
X99716447Y-53908458D01*
X99728073Y-53917081D01*
X99738798Y-53926802D01*
X99748519Y-53937527D01*
X99757142Y-53949153D01*
X99764583Y-53961569D01*
X99770772Y-53974654D01*
X99775649Y-53988283D01*
X99779166Y-54002324D01*
X99781290Y-54016642D01*
X99782000Y-54031100D01*
X99782000Y-54376100D01*
X99781290Y-54390558D01*
X99779166Y-54404876D01*
X99775649Y-54418917D01*
X99770772Y-54432546D01*
X99764583Y-54445631D01*
X99757142Y-54458047D01*
X99748519Y-54469673D01*
X99738798Y-54480398D01*
X99728073Y-54490119D01*
X99716447Y-54498742D01*
X99704031Y-54506183D01*
X99690946Y-54512372D01*
X99677317Y-54517249D01*
X99663276Y-54520766D01*
X99648958Y-54522890D01*
X99634500Y-54523600D01*
X99339500Y-54523600D01*
X99325042Y-54522890D01*
X99310724Y-54520766D01*
X99296683Y-54517249D01*
X99283054Y-54512372D01*
X99269969Y-54506183D01*
X99257553Y-54498742D01*
X99245927Y-54490119D01*
X99235202Y-54480398D01*
X99225481Y-54469673D01*
X99216858Y-54458047D01*
X99209417Y-54445631D01*
X99203228Y-54432546D01*
X99198351Y-54418917D01*
X99194834Y-54404876D01*
X99192710Y-54390558D01*
X99192000Y-54376100D01*
X99192000Y-54031100D01*
X99192710Y-54016642D01*
X99194834Y-54002324D01*
X99198351Y-53988283D01*
X99203228Y-53974654D01*
X99209417Y-53961569D01*
X99216858Y-53949153D01*
X99225481Y-53937527D01*
X99235202Y-53926802D01*
X99245927Y-53917081D01*
X99257553Y-53908458D01*
X99269969Y-53901017D01*
X99283054Y-53894828D01*
X99296683Y-53889951D01*
X99310724Y-53886434D01*
X99325042Y-53884310D01*
X99339500Y-53883600D01*
X99634500Y-53883600D01*
X99648958Y-53884310D01*
X99648958Y-53884310D01*
G37*
D20*
X99487000Y-54203600D03*
D12*
G36*
X100618958Y-53884310D02*
G01*
X100633276Y-53886434D01*
X100647317Y-53889951D01*
X100660946Y-53894828D01*
X100674031Y-53901017D01*
X100686447Y-53908458D01*
X100698073Y-53917081D01*
X100708798Y-53926802D01*
X100718519Y-53937527D01*
X100727142Y-53949153D01*
X100734583Y-53961569D01*
X100740772Y-53974654D01*
X100745649Y-53988283D01*
X100749166Y-54002324D01*
X100751290Y-54016642D01*
X100752000Y-54031100D01*
X100752000Y-54376100D01*
X100751290Y-54390558D01*
X100749166Y-54404876D01*
X100745649Y-54418917D01*
X100740772Y-54432546D01*
X100734583Y-54445631D01*
X100727142Y-54458047D01*
X100718519Y-54469673D01*
X100708798Y-54480398D01*
X100698073Y-54490119D01*
X100686447Y-54498742D01*
X100674031Y-54506183D01*
X100660946Y-54512372D01*
X100647317Y-54517249D01*
X100633276Y-54520766D01*
X100618958Y-54522890D01*
X100604500Y-54523600D01*
X100309500Y-54523600D01*
X100295042Y-54522890D01*
X100280724Y-54520766D01*
X100266683Y-54517249D01*
X100253054Y-54512372D01*
X100239969Y-54506183D01*
X100227553Y-54498742D01*
X100215927Y-54490119D01*
X100205202Y-54480398D01*
X100195481Y-54469673D01*
X100186858Y-54458047D01*
X100179417Y-54445631D01*
X100173228Y-54432546D01*
X100168351Y-54418917D01*
X100164834Y-54404876D01*
X100162710Y-54390558D01*
X100162000Y-54376100D01*
X100162000Y-54031100D01*
X100162710Y-54016642D01*
X100164834Y-54002324D01*
X100168351Y-53988283D01*
X100173228Y-53974654D01*
X100179417Y-53961569D01*
X100186858Y-53949153D01*
X100195481Y-53937527D01*
X100205202Y-53926802D01*
X100215927Y-53917081D01*
X100227553Y-53908458D01*
X100239969Y-53901017D01*
X100253054Y-53894828D01*
X100266683Y-53889951D01*
X100280724Y-53886434D01*
X100295042Y-53884310D01*
X100309500Y-53883600D01*
X100604500Y-53883600D01*
X100618958Y-53884310D01*
X100618958Y-53884310D01*
G37*
D20*
X100457000Y-54203600D03*
D12*
G36*
X100618958Y-52766710D02*
G01*
X100633276Y-52768834D01*
X100647317Y-52772351D01*
X100660946Y-52777228D01*
X100674031Y-52783417D01*
X100686447Y-52790858D01*
X100698073Y-52799481D01*
X100708798Y-52809202D01*
X100718519Y-52819927D01*
X100727142Y-52831553D01*
X100734583Y-52843969D01*
X100740772Y-52857054D01*
X100745649Y-52870683D01*
X100749166Y-52884724D01*
X100751290Y-52899042D01*
X100752000Y-52913500D01*
X100752000Y-53258500D01*
X100751290Y-53272958D01*
X100749166Y-53287276D01*
X100745649Y-53301317D01*
X100740772Y-53314946D01*
X100734583Y-53328031D01*
X100727142Y-53340447D01*
X100718519Y-53352073D01*
X100708798Y-53362798D01*
X100698073Y-53372519D01*
X100686447Y-53381142D01*
X100674031Y-53388583D01*
X100660946Y-53394772D01*
X100647317Y-53399649D01*
X100633276Y-53403166D01*
X100618958Y-53405290D01*
X100604500Y-53406000D01*
X100309500Y-53406000D01*
X100295042Y-53405290D01*
X100280724Y-53403166D01*
X100266683Y-53399649D01*
X100253054Y-53394772D01*
X100239969Y-53388583D01*
X100227553Y-53381142D01*
X100215927Y-53372519D01*
X100205202Y-53362798D01*
X100195481Y-53352073D01*
X100186858Y-53340447D01*
X100179417Y-53328031D01*
X100173228Y-53314946D01*
X100168351Y-53301317D01*
X100164834Y-53287276D01*
X100162710Y-53272958D01*
X100162000Y-53258500D01*
X100162000Y-52913500D01*
X100162710Y-52899042D01*
X100164834Y-52884724D01*
X100168351Y-52870683D01*
X100173228Y-52857054D01*
X100179417Y-52843969D01*
X100186858Y-52831553D01*
X100195481Y-52819927D01*
X100205202Y-52809202D01*
X100215927Y-52799481D01*
X100227553Y-52790858D01*
X100239969Y-52783417D01*
X100253054Y-52777228D01*
X100266683Y-52772351D01*
X100280724Y-52768834D01*
X100295042Y-52766710D01*
X100309500Y-52766000D01*
X100604500Y-52766000D01*
X100618958Y-52766710D01*
X100618958Y-52766710D01*
G37*
D20*
X100457000Y-53086000D03*
D12*
G36*
X99648958Y-52766710D02*
G01*
X99663276Y-52768834D01*
X99677317Y-52772351D01*
X99690946Y-52777228D01*
X99704031Y-52783417D01*
X99716447Y-52790858D01*
X99728073Y-52799481D01*
X99738798Y-52809202D01*
X99748519Y-52819927D01*
X99757142Y-52831553D01*
X99764583Y-52843969D01*
X99770772Y-52857054D01*
X99775649Y-52870683D01*
X99779166Y-52884724D01*
X99781290Y-52899042D01*
X99782000Y-52913500D01*
X99782000Y-53258500D01*
X99781290Y-53272958D01*
X99779166Y-53287276D01*
X99775649Y-53301317D01*
X99770772Y-53314946D01*
X99764583Y-53328031D01*
X99757142Y-53340447D01*
X99748519Y-53352073D01*
X99738798Y-53362798D01*
X99728073Y-53372519D01*
X99716447Y-53381142D01*
X99704031Y-53388583D01*
X99690946Y-53394772D01*
X99677317Y-53399649D01*
X99663276Y-53403166D01*
X99648958Y-53405290D01*
X99634500Y-53406000D01*
X99339500Y-53406000D01*
X99325042Y-53405290D01*
X99310724Y-53403166D01*
X99296683Y-53399649D01*
X99283054Y-53394772D01*
X99269969Y-53388583D01*
X99257553Y-53381142D01*
X99245927Y-53372519D01*
X99235202Y-53362798D01*
X99225481Y-53352073D01*
X99216858Y-53340447D01*
X99209417Y-53328031D01*
X99203228Y-53314946D01*
X99198351Y-53301317D01*
X99194834Y-53287276D01*
X99192710Y-53272958D01*
X99192000Y-53258500D01*
X99192000Y-52913500D01*
X99192710Y-52899042D01*
X99194834Y-52884724D01*
X99198351Y-52870683D01*
X99203228Y-52857054D01*
X99209417Y-52843969D01*
X99216858Y-52831553D01*
X99225481Y-52819927D01*
X99235202Y-52809202D01*
X99245927Y-52799481D01*
X99257553Y-52790858D01*
X99269969Y-52783417D01*
X99283054Y-52777228D01*
X99296683Y-52772351D01*
X99310724Y-52768834D01*
X99325042Y-52766710D01*
X99339500Y-52766000D01*
X99634500Y-52766000D01*
X99648958Y-52766710D01*
X99648958Y-52766710D01*
G37*
D20*
X99487000Y-53086000D03*
D12*
G36*
X99648958Y-51649110D02*
G01*
X99663276Y-51651234D01*
X99677317Y-51654751D01*
X99690946Y-51659628D01*
X99704031Y-51665817D01*
X99716447Y-51673258D01*
X99728073Y-51681881D01*
X99738798Y-51691602D01*
X99748519Y-51702327D01*
X99757142Y-51713953D01*
X99764583Y-51726369D01*
X99770772Y-51739454D01*
X99775649Y-51753083D01*
X99779166Y-51767124D01*
X99781290Y-51781442D01*
X99782000Y-51795900D01*
X99782000Y-52140900D01*
X99781290Y-52155358D01*
X99779166Y-52169676D01*
X99775649Y-52183717D01*
X99770772Y-52197346D01*
X99764583Y-52210431D01*
X99757142Y-52222847D01*
X99748519Y-52234473D01*
X99738798Y-52245198D01*
X99728073Y-52254919D01*
X99716447Y-52263542D01*
X99704031Y-52270983D01*
X99690946Y-52277172D01*
X99677317Y-52282049D01*
X99663276Y-52285566D01*
X99648958Y-52287690D01*
X99634500Y-52288400D01*
X99339500Y-52288400D01*
X99325042Y-52287690D01*
X99310724Y-52285566D01*
X99296683Y-52282049D01*
X99283054Y-52277172D01*
X99269969Y-52270983D01*
X99257553Y-52263542D01*
X99245927Y-52254919D01*
X99235202Y-52245198D01*
X99225481Y-52234473D01*
X99216858Y-52222847D01*
X99209417Y-52210431D01*
X99203228Y-52197346D01*
X99198351Y-52183717D01*
X99194834Y-52169676D01*
X99192710Y-52155358D01*
X99192000Y-52140900D01*
X99192000Y-51795900D01*
X99192710Y-51781442D01*
X99194834Y-51767124D01*
X99198351Y-51753083D01*
X99203228Y-51739454D01*
X99209417Y-51726369D01*
X99216858Y-51713953D01*
X99225481Y-51702327D01*
X99235202Y-51691602D01*
X99245927Y-51681881D01*
X99257553Y-51673258D01*
X99269969Y-51665817D01*
X99283054Y-51659628D01*
X99296683Y-51654751D01*
X99310724Y-51651234D01*
X99325042Y-51649110D01*
X99339500Y-51648400D01*
X99634500Y-51648400D01*
X99648958Y-51649110D01*
X99648958Y-51649110D01*
G37*
D20*
X99487000Y-51968400D03*
D12*
G36*
X100618958Y-51649110D02*
G01*
X100633276Y-51651234D01*
X100647317Y-51654751D01*
X100660946Y-51659628D01*
X100674031Y-51665817D01*
X100686447Y-51673258D01*
X100698073Y-51681881D01*
X100708798Y-51691602D01*
X100718519Y-51702327D01*
X100727142Y-51713953D01*
X100734583Y-51726369D01*
X100740772Y-51739454D01*
X100745649Y-51753083D01*
X100749166Y-51767124D01*
X100751290Y-51781442D01*
X100752000Y-51795900D01*
X100752000Y-52140900D01*
X100751290Y-52155358D01*
X100749166Y-52169676D01*
X100745649Y-52183717D01*
X100740772Y-52197346D01*
X100734583Y-52210431D01*
X100727142Y-52222847D01*
X100718519Y-52234473D01*
X100708798Y-52245198D01*
X100698073Y-52254919D01*
X100686447Y-52263542D01*
X100674031Y-52270983D01*
X100660946Y-52277172D01*
X100647317Y-52282049D01*
X100633276Y-52285566D01*
X100618958Y-52287690D01*
X100604500Y-52288400D01*
X100309500Y-52288400D01*
X100295042Y-52287690D01*
X100280724Y-52285566D01*
X100266683Y-52282049D01*
X100253054Y-52277172D01*
X100239969Y-52270983D01*
X100227553Y-52263542D01*
X100215927Y-52254919D01*
X100205202Y-52245198D01*
X100195481Y-52234473D01*
X100186858Y-52222847D01*
X100179417Y-52210431D01*
X100173228Y-52197346D01*
X100168351Y-52183717D01*
X100164834Y-52169676D01*
X100162710Y-52155358D01*
X100162000Y-52140900D01*
X100162000Y-51795900D01*
X100162710Y-51781442D01*
X100164834Y-51767124D01*
X100168351Y-51753083D01*
X100173228Y-51739454D01*
X100179417Y-51726369D01*
X100186858Y-51713953D01*
X100195481Y-51702327D01*
X100205202Y-51691602D01*
X100215927Y-51681881D01*
X100227553Y-51673258D01*
X100239969Y-51665817D01*
X100253054Y-51659628D01*
X100266683Y-51654751D01*
X100280724Y-51651234D01*
X100295042Y-51649110D01*
X100309500Y-51648400D01*
X100604500Y-51648400D01*
X100618958Y-51649110D01*
X100618958Y-51649110D01*
G37*
D20*
X100457000Y-51968400D03*
D12*
G36*
X100621358Y-50531510D02*
G01*
X100635676Y-50533634D01*
X100649717Y-50537151D01*
X100663346Y-50542028D01*
X100676431Y-50548217D01*
X100688847Y-50555658D01*
X100700473Y-50564281D01*
X100711198Y-50574002D01*
X100720919Y-50584727D01*
X100729542Y-50596353D01*
X100736983Y-50608769D01*
X100743172Y-50621854D01*
X100748049Y-50635483D01*
X100751566Y-50649524D01*
X100753690Y-50663842D01*
X100754400Y-50678300D01*
X100754400Y-51023300D01*
X100753690Y-51037758D01*
X100751566Y-51052076D01*
X100748049Y-51066117D01*
X100743172Y-51079746D01*
X100736983Y-51092831D01*
X100729542Y-51105247D01*
X100720919Y-51116873D01*
X100711198Y-51127598D01*
X100700473Y-51137319D01*
X100688847Y-51145942D01*
X100676431Y-51153383D01*
X100663346Y-51159572D01*
X100649717Y-51164449D01*
X100635676Y-51167966D01*
X100621358Y-51170090D01*
X100606900Y-51170800D01*
X100311900Y-51170800D01*
X100297442Y-51170090D01*
X100283124Y-51167966D01*
X100269083Y-51164449D01*
X100255454Y-51159572D01*
X100242369Y-51153383D01*
X100229953Y-51145942D01*
X100218327Y-51137319D01*
X100207602Y-51127598D01*
X100197881Y-51116873D01*
X100189258Y-51105247D01*
X100181817Y-51092831D01*
X100175628Y-51079746D01*
X100170751Y-51066117D01*
X100167234Y-51052076D01*
X100165110Y-51037758D01*
X100164400Y-51023300D01*
X100164400Y-50678300D01*
X100165110Y-50663842D01*
X100167234Y-50649524D01*
X100170751Y-50635483D01*
X100175628Y-50621854D01*
X100181817Y-50608769D01*
X100189258Y-50596353D01*
X100197881Y-50584727D01*
X100207602Y-50574002D01*
X100218327Y-50564281D01*
X100229953Y-50555658D01*
X100242369Y-50548217D01*
X100255454Y-50542028D01*
X100269083Y-50537151D01*
X100283124Y-50533634D01*
X100297442Y-50531510D01*
X100311900Y-50530800D01*
X100606900Y-50530800D01*
X100621358Y-50531510D01*
X100621358Y-50531510D01*
G37*
D20*
X100459400Y-50850800D03*
D12*
G36*
X99651358Y-50531510D02*
G01*
X99665676Y-50533634D01*
X99679717Y-50537151D01*
X99693346Y-50542028D01*
X99706431Y-50548217D01*
X99718847Y-50555658D01*
X99730473Y-50564281D01*
X99741198Y-50574002D01*
X99750919Y-50584727D01*
X99759542Y-50596353D01*
X99766983Y-50608769D01*
X99773172Y-50621854D01*
X99778049Y-50635483D01*
X99781566Y-50649524D01*
X99783690Y-50663842D01*
X99784400Y-50678300D01*
X99784400Y-51023300D01*
X99783690Y-51037758D01*
X99781566Y-51052076D01*
X99778049Y-51066117D01*
X99773172Y-51079746D01*
X99766983Y-51092831D01*
X99759542Y-51105247D01*
X99750919Y-51116873D01*
X99741198Y-51127598D01*
X99730473Y-51137319D01*
X99718847Y-51145942D01*
X99706431Y-51153383D01*
X99693346Y-51159572D01*
X99679717Y-51164449D01*
X99665676Y-51167966D01*
X99651358Y-51170090D01*
X99636900Y-51170800D01*
X99341900Y-51170800D01*
X99327442Y-51170090D01*
X99313124Y-51167966D01*
X99299083Y-51164449D01*
X99285454Y-51159572D01*
X99272369Y-51153383D01*
X99259953Y-51145942D01*
X99248327Y-51137319D01*
X99237602Y-51127598D01*
X99227881Y-51116873D01*
X99219258Y-51105247D01*
X99211817Y-51092831D01*
X99205628Y-51079746D01*
X99200751Y-51066117D01*
X99197234Y-51052076D01*
X99195110Y-51037758D01*
X99194400Y-51023300D01*
X99194400Y-50678300D01*
X99195110Y-50663842D01*
X99197234Y-50649524D01*
X99200751Y-50635483D01*
X99205628Y-50621854D01*
X99211817Y-50608769D01*
X99219258Y-50596353D01*
X99227881Y-50584727D01*
X99237602Y-50574002D01*
X99248327Y-50564281D01*
X99259953Y-50555658D01*
X99272369Y-50548217D01*
X99285454Y-50542028D01*
X99299083Y-50537151D01*
X99313124Y-50533634D01*
X99327442Y-50531510D01*
X99341900Y-50530800D01*
X99636900Y-50530800D01*
X99651358Y-50531510D01*
X99651358Y-50531510D01*
G37*
D20*
X99489400Y-50850800D03*
D12*
G36*
X99648958Y-49413910D02*
G01*
X99663276Y-49416034D01*
X99677317Y-49419551D01*
X99690946Y-49424428D01*
X99704031Y-49430617D01*
X99716447Y-49438058D01*
X99728073Y-49446681D01*
X99738798Y-49456402D01*
X99748519Y-49467127D01*
X99757142Y-49478753D01*
X99764583Y-49491169D01*
X99770772Y-49504254D01*
X99775649Y-49517883D01*
X99779166Y-49531924D01*
X99781290Y-49546242D01*
X99782000Y-49560700D01*
X99782000Y-49905700D01*
X99781290Y-49920158D01*
X99779166Y-49934476D01*
X99775649Y-49948517D01*
X99770772Y-49962146D01*
X99764583Y-49975231D01*
X99757142Y-49987647D01*
X99748519Y-49999273D01*
X99738798Y-50009998D01*
X99728073Y-50019719D01*
X99716447Y-50028342D01*
X99704031Y-50035783D01*
X99690946Y-50041972D01*
X99677317Y-50046849D01*
X99663276Y-50050366D01*
X99648958Y-50052490D01*
X99634500Y-50053200D01*
X99339500Y-50053200D01*
X99325042Y-50052490D01*
X99310724Y-50050366D01*
X99296683Y-50046849D01*
X99283054Y-50041972D01*
X99269969Y-50035783D01*
X99257553Y-50028342D01*
X99245927Y-50019719D01*
X99235202Y-50009998D01*
X99225481Y-49999273D01*
X99216858Y-49987647D01*
X99209417Y-49975231D01*
X99203228Y-49962146D01*
X99198351Y-49948517D01*
X99194834Y-49934476D01*
X99192710Y-49920158D01*
X99192000Y-49905700D01*
X99192000Y-49560700D01*
X99192710Y-49546242D01*
X99194834Y-49531924D01*
X99198351Y-49517883D01*
X99203228Y-49504254D01*
X99209417Y-49491169D01*
X99216858Y-49478753D01*
X99225481Y-49467127D01*
X99235202Y-49456402D01*
X99245927Y-49446681D01*
X99257553Y-49438058D01*
X99269969Y-49430617D01*
X99283054Y-49424428D01*
X99296683Y-49419551D01*
X99310724Y-49416034D01*
X99325042Y-49413910D01*
X99339500Y-49413200D01*
X99634500Y-49413200D01*
X99648958Y-49413910D01*
X99648958Y-49413910D01*
G37*
D20*
X99487000Y-49733200D03*
D12*
G36*
X100618958Y-49413910D02*
G01*
X100633276Y-49416034D01*
X100647317Y-49419551D01*
X100660946Y-49424428D01*
X100674031Y-49430617D01*
X100686447Y-49438058D01*
X100698073Y-49446681D01*
X100708798Y-49456402D01*
X100718519Y-49467127D01*
X100727142Y-49478753D01*
X100734583Y-49491169D01*
X100740772Y-49504254D01*
X100745649Y-49517883D01*
X100749166Y-49531924D01*
X100751290Y-49546242D01*
X100752000Y-49560700D01*
X100752000Y-49905700D01*
X100751290Y-49920158D01*
X100749166Y-49934476D01*
X100745649Y-49948517D01*
X100740772Y-49962146D01*
X100734583Y-49975231D01*
X100727142Y-49987647D01*
X100718519Y-49999273D01*
X100708798Y-50009998D01*
X100698073Y-50019719D01*
X100686447Y-50028342D01*
X100674031Y-50035783D01*
X100660946Y-50041972D01*
X100647317Y-50046849D01*
X100633276Y-50050366D01*
X100618958Y-50052490D01*
X100604500Y-50053200D01*
X100309500Y-50053200D01*
X100295042Y-50052490D01*
X100280724Y-50050366D01*
X100266683Y-50046849D01*
X100253054Y-50041972D01*
X100239969Y-50035783D01*
X100227553Y-50028342D01*
X100215927Y-50019719D01*
X100205202Y-50009998D01*
X100195481Y-49999273D01*
X100186858Y-49987647D01*
X100179417Y-49975231D01*
X100173228Y-49962146D01*
X100168351Y-49948517D01*
X100164834Y-49934476D01*
X100162710Y-49920158D01*
X100162000Y-49905700D01*
X100162000Y-49560700D01*
X100162710Y-49546242D01*
X100164834Y-49531924D01*
X100168351Y-49517883D01*
X100173228Y-49504254D01*
X100179417Y-49491169D01*
X100186858Y-49478753D01*
X100195481Y-49467127D01*
X100205202Y-49456402D01*
X100215927Y-49446681D01*
X100227553Y-49438058D01*
X100239969Y-49430617D01*
X100253054Y-49424428D01*
X100266683Y-49419551D01*
X100280724Y-49416034D01*
X100295042Y-49413910D01*
X100309500Y-49413200D01*
X100604500Y-49413200D01*
X100618958Y-49413910D01*
X100618958Y-49413910D01*
G37*
D20*
X100457000Y-49733200D03*
D12*
G36*
X72007291Y-68727853D02*
G01*
X72028526Y-68731003D01*
X72049350Y-68736219D01*
X72069562Y-68743451D01*
X72088968Y-68752630D01*
X72107381Y-68763666D01*
X72124624Y-68776454D01*
X72140530Y-68790870D01*
X72154946Y-68806776D01*
X72167734Y-68824019D01*
X72178770Y-68842432D01*
X72187949Y-68861838D01*
X72195181Y-68882050D01*
X72200397Y-68902874D01*
X72203547Y-68924109D01*
X72204600Y-68945550D01*
X72204600Y-69383050D01*
X72203547Y-69404491D01*
X72200397Y-69425726D01*
X72195181Y-69446550D01*
X72187949Y-69466762D01*
X72178770Y-69486168D01*
X72167734Y-69504581D01*
X72154946Y-69521824D01*
X72140530Y-69537730D01*
X72124624Y-69552146D01*
X72107381Y-69564934D01*
X72088968Y-69575970D01*
X72069562Y-69585149D01*
X72049350Y-69592381D01*
X72028526Y-69597597D01*
X72007291Y-69600747D01*
X71985850Y-69601800D01*
X71473350Y-69601800D01*
X71451909Y-69600747D01*
X71430674Y-69597597D01*
X71409850Y-69592381D01*
X71389638Y-69585149D01*
X71370232Y-69575970D01*
X71351819Y-69564934D01*
X71334576Y-69552146D01*
X71318670Y-69537730D01*
X71304254Y-69521824D01*
X71291466Y-69504581D01*
X71280430Y-69486168D01*
X71271251Y-69466762D01*
X71264019Y-69446550D01*
X71258803Y-69425726D01*
X71255653Y-69404491D01*
X71254600Y-69383050D01*
X71254600Y-68945550D01*
X71255653Y-68924109D01*
X71258803Y-68902874D01*
X71264019Y-68882050D01*
X71271251Y-68861838D01*
X71280430Y-68842432D01*
X71291466Y-68824019D01*
X71304254Y-68806776D01*
X71318670Y-68790870D01*
X71334576Y-68776454D01*
X71351819Y-68763666D01*
X71370232Y-68752630D01*
X71389638Y-68743451D01*
X71409850Y-68736219D01*
X71430674Y-68731003D01*
X71451909Y-68727853D01*
X71473350Y-68726800D01*
X71985850Y-68726800D01*
X72007291Y-68727853D01*
X72007291Y-68727853D01*
G37*
D19*
X71729600Y-69164300D03*
D12*
G36*
X72007291Y-67152853D02*
G01*
X72028526Y-67156003D01*
X72049350Y-67161219D01*
X72069562Y-67168451D01*
X72088968Y-67177630D01*
X72107381Y-67188666D01*
X72124624Y-67201454D01*
X72140530Y-67215870D01*
X72154946Y-67231776D01*
X72167734Y-67249019D01*
X72178770Y-67267432D01*
X72187949Y-67286838D01*
X72195181Y-67307050D01*
X72200397Y-67327874D01*
X72203547Y-67349109D01*
X72204600Y-67370550D01*
X72204600Y-67808050D01*
X72203547Y-67829491D01*
X72200397Y-67850726D01*
X72195181Y-67871550D01*
X72187949Y-67891762D01*
X72178770Y-67911168D01*
X72167734Y-67929581D01*
X72154946Y-67946824D01*
X72140530Y-67962730D01*
X72124624Y-67977146D01*
X72107381Y-67989934D01*
X72088968Y-68000970D01*
X72069562Y-68010149D01*
X72049350Y-68017381D01*
X72028526Y-68022597D01*
X72007291Y-68025747D01*
X71985850Y-68026800D01*
X71473350Y-68026800D01*
X71451909Y-68025747D01*
X71430674Y-68022597D01*
X71409850Y-68017381D01*
X71389638Y-68010149D01*
X71370232Y-68000970D01*
X71351819Y-67989934D01*
X71334576Y-67977146D01*
X71318670Y-67962730D01*
X71304254Y-67946824D01*
X71291466Y-67929581D01*
X71280430Y-67911168D01*
X71271251Y-67891762D01*
X71264019Y-67871550D01*
X71258803Y-67850726D01*
X71255653Y-67829491D01*
X71254600Y-67808050D01*
X71254600Y-67370550D01*
X71255653Y-67349109D01*
X71258803Y-67327874D01*
X71264019Y-67307050D01*
X71271251Y-67286838D01*
X71280430Y-67267432D01*
X71291466Y-67249019D01*
X71304254Y-67231776D01*
X71318670Y-67215870D01*
X71334576Y-67201454D01*
X71351819Y-67188666D01*
X71370232Y-67177630D01*
X71389638Y-67168451D01*
X71409850Y-67161219D01*
X71430674Y-67156003D01*
X71451909Y-67152853D01*
X71473350Y-67151800D01*
X71985850Y-67151800D01*
X72007291Y-67152853D01*
X72007291Y-67152853D01*
G37*
D19*
X71729600Y-67589300D03*
D12*
G36*
X73709091Y-67152853D02*
G01*
X73730326Y-67156003D01*
X73751150Y-67161219D01*
X73771362Y-67168451D01*
X73790768Y-67177630D01*
X73809181Y-67188666D01*
X73826424Y-67201454D01*
X73842330Y-67215870D01*
X73856746Y-67231776D01*
X73869534Y-67249019D01*
X73880570Y-67267432D01*
X73889749Y-67286838D01*
X73896981Y-67307050D01*
X73902197Y-67327874D01*
X73905347Y-67349109D01*
X73906400Y-67370550D01*
X73906400Y-67808050D01*
X73905347Y-67829491D01*
X73902197Y-67850726D01*
X73896981Y-67871550D01*
X73889749Y-67891762D01*
X73880570Y-67911168D01*
X73869534Y-67929581D01*
X73856746Y-67946824D01*
X73842330Y-67962730D01*
X73826424Y-67977146D01*
X73809181Y-67989934D01*
X73790768Y-68000970D01*
X73771362Y-68010149D01*
X73751150Y-68017381D01*
X73730326Y-68022597D01*
X73709091Y-68025747D01*
X73687650Y-68026800D01*
X73175150Y-68026800D01*
X73153709Y-68025747D01*
X73132474Y-68022597D01*
X73111650Y-68017381D01*
X73091438Y-68010149D01*
X73072032Y-68000970D01*
X73053619Y-67989934D01*
X73036376Y-67977146D01*
X73020470Y-67962730D01*
X73006054Y-67946824D01*
X72993266Y-67929581D01*
X72982230Y-67911168D01*
X72973051Y-67891762D01*
X72965819Y-67871550D01*
X72960603Y-67850726D01*
X72957453Y-67829491D01*
X72956400Y-67808050D01*
X72956400Y-67370550D01*
X72957453Y-67349109D01*
X72960603Y-67327874D01*
X72965819Y-67307050D01*
X72973051Y-67286838D01*
X72982230Y-67267432D01*
X72993266Y-67249019D01*
X73006054Y-67231776D01*
X73020470Y-67215870D01*
X73036376Y-67201454D01*
X73053619Y-67188666D01*
X73072032Y-67177630D01*
X73091438Y-67168451D01*
X73111650Y-67161219D01*
X73132474Y-67156003D01*
X73153709Y-67152853D01*
X73175150Y-67151800D01*
X73687650Y-67151800D01*
X73709091Y-67152853D01*
X73709091Y-67152853D01*
G37*
D19*
X73431400Y-67589300D03*
D12*
G36*
X73709091Y-68727853D02*
G01*
X73730326Y-68731003D01*
X73751150Y-68736219D01*
X73771362Y-68743451D01*
X73790768Y-68752630D01*
X73809181Y-68763666D01*
X73826424Y-68776454D01*
X73842330Y-68790870D01*
X73856746Y-68806776D01*
X73869534Y-68824019D01*
X73880570Y-68842432D01*
X73889749Y-68861838D01*
X73896981Y-68882050D01*
X73902197Y-68902874D01*
X73905347Y-68924109D01*
X73906400Y-68945550D01*
X73906400Y-69383050D01*
X73905347Y-69404491D01*
X73902197Y-69425726D01*
X73896981Y-69446550D01*
X73889749Y-69466762D01*
X73880570Y-69486168D01*
X73869534Y-69504581D01*
X73856746Y-69521824D01*
X73842330Y-69537730D01*
X73826424Y-69552146D01*
X73809181Y-69564934D01*
X73790768Y-69575970D01*
X73771362Y-69585149D01*
X73751150Y-69592381D01*
X73730326Y-69597597D01*
X73709091Y-69600747D01*
X73687650Y-69601800D01*
X73175150Y-69601800D01*
X73153709Y-69600747D01*
X73132474Y-69597597D01*
X73111650Y-69592381D01*
X73091438Y-69585149D01*
X73072032Y-69575970D01*
X73053619Y-69564934D01*
X73036376Y-69552146D01*
X73020470Y-69537730D01*
X73006054Y-69521824D01*
X72993266Y-69504581D01*
X72982230Y-69486168D01*
X72973051Y-69466762D01*
X72965819Y-69446550D01*
X72960603Y-69425726D01*
X72957453Y-69404491D01*
X72956400Y-69383050D01*
X72956400Y-68945550D01*
X72957453Y-68924109D01*
X72960603Y-68902874D01*
X72965819Y-68882050D01*
X72973051Y-68861838D01*
X72982230Y-68842432D01*
X72993266Y-68824019D01*
X73006054Y-68806776D01*
X73020470Y-68790870D01*
X73036376Y-68776454D01*
X73053619Y-68763666D01*
X73072032Y-68752630D01*
X73091438Y-68743451D01*
X73111650Y-68736219D01*
X73132474Y-68731003D01*
X73153709Y-68727853D01*
X73175150Y-68726800D01*
X73687650Y-68726800D01*
X73709091Y-68727853D01*
X73709091Y-68727853D01*
G37*
D19*
X73431400Y-69164300D03*
D12*
G36*
X120738603Y-50273963D02*
G01*
X120758018Y-50276843D01*
X120777057Y-50281612D01*
X120795537Y-50288224D01*
X120813279Y-50296616D01*
X120830114Y-50306706D01*
X120845879Y-50318398D01*
X120860421Y-50331579D01*
X120873602Y-50346121D01*
X120885294Y-50361886D01*
X120895384Y-50378721D01*
X120903776Y-50396463D01*
X120910388Y-50414943D01*
X120915157Y-50433982D01*
X120918037Y-50453397D01*
X120919000Y-50473000D01*
X120919000Y-50873000D01*
X120918037Y-50892603D01*
X120915157Y-50912018D01*
X120910388Y-50931057D01*
X120903776Y-50949537D01*
X120895384Y-50967279D01*
X120885294Y-50984114D01*
X120873602Y-50999879D01*
X120860421Y-51014421D01*
X120845879Y-51027602D01*
X120830114Y-51039294D01*
X120813279Y-51049384D01*
X120795537Y-51057776D01*
X120777057Y-51064388D01*
X120758018Y-51069157D01*
X120738603Y-51072037D01*
X120719000Y-51073000D01*
X119819000Y-51073000D01*
X119799397Y-51072037D01*
X119779982Y-51069157D01*
X119760943Y-51064388D01*
X119742463Y-51057776D01*
X119724721Y-51049384D01*
X119707886Y-51039294D01*
X119692121Y-51027602D01*
X119677579Y-51014421D01*
X119664398Y-50999879D01*
X119652706Y-50984114D01*
X119642616Y-50967279D01*
X119634224Y-50949537D01*
X119627612Y-50931057D01*
X119622843Y-50912018D01*
X119619963Y-50892603D01*
X119619000Y-50873000D01*
X119619000Y-50473000D01*
X119619963Y-50453397D01*
X119622843Y-50433982D01*
X119627612Y-50414943D01*
X119634224Y-50396463D01*
X119642616Y-50378721D01*
X119652706Y-50361886D01*
X119664398Y-50346121D01*
X119677579Y-50331579D01*
X119692121Y-50318398D01*
X119707886Y-50306706D01*
X119724721Y-50296616D01*
X119742463Y-50288224D01*
X119760943Y-50281612D01*
X119779982Y-50276843D01*
X119799397Y-50273963D01*
X119819000Y-50273000D01*
X120719000Y-50273000D01*
X120738603Y-50273963D01*
X120738603Y-50273963D01*
G37*
D11*
X120269000Y-50673000D03*
D22*
X120269000Y-49423000D03*
X120269000Y-48173000D03*
X120269000Y-46923000D03*
X120269000Y-45673000D03*
X120269000Y-44423000D03*
X120269000Y-55051000D03*
X120269000Y-56301000D03*
X120269000Y-57551000D03*
D12*
G36*
X120738603Y-58401963D02*
G01*
X120758018Y-58404843D01*
X120777057Y-58409612D01*
X120795537Y-58416224D01*
X120813279Y-58424616D01*
X120830114Y-58434706D01*
X120845879Y-58446398D01*
X120860421Y-58459579D01*
X120873602Y-58474121D01*
X120885294Y-58489886D01*
X120895384Y-58506721D01*
X120903776Y-58524463D01*
X120910388Y-58542943D01*
X120915157Y-58561982D01*
X120918037Y-58581397D01*
X120919000Y-58601000D01*
X120919000Y-59001000D01*
X120918037Y-59020603D01*
X120915157Y-59040018D01*
X120910388Y-59059057D01*
X120903776Y-59077537D01*
X120895384Y-59095279D01*
X120885294Y-59112114D01*
X120873602Y-59127879D01*
X120860421Y-59142421D01*
X120845879Y-59155602D01*
X120830114Y-59167294D01*
X120813279Y-59177384D01*
X120795537Y-59185776D01*
X120777057Y-59192388D01*
X120758018Y-59197157D01*
X120738603Y-59200037D01*
X120719000Y-59201000D01*
X119819000Y-59201000D01*
X119799397Y-59200037D01*
X119779982Y-59197157D01*
X119760943Y-59192388D01*
X119742463Y-59185776D01*
X119724721Y-59177384D01*
X119707886Y-59167294D01*
X119692121Y-59155602D01*
X119677579Y-59142421D01*
X119664398Y-59127879D01*
X119652706Y-59112114D01*
X119642616Y-59095279D01*
X119634224Y-59077537D01*
X119627612Y-59059057D01*
X119622843Y-59040018D01*
X119619963Y-59020603D01*
X119619000Y-59001000D01*
X119619000Y-58601000D01*
X119619963Y-58581397D01*
X119622843Y-58561982D01*
X119627612Y-58542943D01*
X119634224Y-58524463D01*
X119642616Y-58506721D01*
X119652706Y-58489886D01*
X119664398Y-58474121D01*
X119677579Y-58459579D01*
X119692121Y-58446398D01*
X119707886Y-58434706D01*
X119724721Y-58424616D01*
X119742463Y-58416224D01*
X119760943Y-58409612D01*
X119779982Y-58404843D01*
X119799397Y-58401963D01*
X119819000Y-58401000D01*
X120719000Y-58401000D01*
X120738603Y-58401963D01*
X120738603Y-58401963D01*
G37*
D11*
X120269000Y-58801000D03*
D12*
G36*
X120738603Y-74657963D02*
G01*
X120758018Y-74660843D01*
X120777057Y-74665612D01*
X120795537Y-74672224D01*
X120813279Y-74680616D01*
X120830114Y-74690706D01*
X120845879Y-74702398D01*
X120860421Y-74715579D01*
X120873602Y-74730121D01*
X120885294Y-74745886D01*
X120895384Y-74762721D01*
X120903776Y-74780463D01*
X120910388Y-74798943D01*
X120915157Y-74817982D01*
X120918037Y-74837397D01*
X120919000Y-74857000D01*
X120919000Y-75257000D01*
X120918037Y-75276603D01*
X120915157Y-75296018D01*
X120910388Y-75315057D01*
X120903776Y-75333537D01*
X120895384Y-75351279D01*
X120885294Y-75368114D01*
X120873602Y-75383879D01*
X120860421Y-75398421D01*
X120845879Y-75411602D01*
X120830114Y-75423294D01*
X120813279Y-75433384D01*
X120795537Y-75441776D01*
X120777057Y-75448388D01*
X120758018Y-75453157D01*
X120738603Y-75456037D01*
X120719000Y-75457000D01*
X119819000Y-75457000D01*
X119799397Y-75456037D01*
X119779982Y-75453157D01*
X119760943Y-75448388D01*
X119742463Y-75441776D01*
X119724721Y-75433384D01*
X119707886Y-75423294D01*
X119692121Y-75411602D01*
X119677579Y-75398421D01*
X119664398Y-75383879D01*
X119652706Y-75368114D01*
X119642616Y-75351279D01*
X119634224Y-75333537D01*
X119627612Y-75315057D01*
X119622843Y-75296018D01*
X119619963Y-75276603D01*
X119619000Y-75257000D01*
X119619000Y-74857000D01*
X119619963Y-74837397D01*
X119622843Y-74817982D01*
X119627612Y-74798943D01*
X119634224Y-74780463D01*
X119642616Y-74762721D01*
X119652706Y-74745886D01*
X119664398Y-74730121D01*
X119677579Y-74715579D01*
X119692121Y-74702398D01*
X119707886Y-74690706D01*
X119724721Y-74680616D01*
X119742463Y-74672224D01*
X119760943Y-74665612D01*
X119779982Y-74660843D01*
X119799397Y-74657963D01*
X119819000Y-74657000D01*
X120719000Y-74657000D01*
X120738603Y-74657963D01*
X120738603Y-74657963D01*
G37*
D11*
X120269000Y-75057000D03*
D22*
X120269000Y-73807000D03*
X120269000Y-72557000D03*
X120269000Y-71307000D03*
D13*
X61357200Y-80391000D03*
X60107200Y-80391000D03*
X58857200Y-80391000D03*
D12*
G36*
X57826803Y-79741963D02*
G01*
X57846218Y-79744843D01*
X57865257Y-79749612D01*
X57883737Y-79756224D01*
X57901479Y-79764616D01*
X57918314Y-79774706D01*
X57934079Y-79786398D01*
X57948621Y-79799579D01*
X57961802Y-79814121D01*
X57973494Y-79829886D01*
X57983584Y-79846721D01*
X57991976Y-79864463D01*
X57998588Y-79882943D01*
X58003357Y-79901982D01*
X58006237Y-79921397D01*
X58007200Y-79941000D01*
X58007200Y-80841000D01*
X58006237Y-80860603D01*
X58003357Y-80880018D01*
X57998588Y-80899057D01*
X57991976Y-80917537D01*
X57983584Y-80935279D01*
X57973494Y-80952114D01*
X57961802Y-80967879D01*
X57948621Y-80982421D01*
X57934079Y-80995602D01*
X57918314Y-81007294D01*
X57901479Y-81017384D01*
X57883737Y-81025776D01*
X57865257Y-81032388D01*
X57846218Y-81037157D01*
X57826803Y-81040037D01*
X57807200Y-81041000D01*
X57407200Y-81041000D01*
X57387597Y-81040037D01*
X57368182Y-81037157D01*
X57349143Y-81032388D01*
X57330663Y-81025776D01*
X57312921Y-81017384D01*
X57296086Y-81007294D01*
X57280321Y-80995602D01*
X57265779Y-80982421D01*
X57252598Y-80967879D01*
X57240906Y-80952114D01*
X57230816Y-80935279D01*
X57222424Y-80917537D01*
X57215812Y-80899057D01*
X57211043Y-80880018D01*
X57208163Y-80860603D01*
X57207200Y-80841000D01*
X57207200Y-79941000D01*
X57208163Y-79921397D01*
X57211043Y-79901982D01*
X57215812Y-79882943D01*
X57222424Y-79864463D01*
X57230816Y-79846721D01*
X57240906Y-79829886D01*
X57252598Y-79814121D01*
X57265779Y-79799579D01*
X57280321Y-79786398D01*
X57296086Y-79774706D01*
X57312921Y-79764616D01*
X57330663Y-79756224D01*
X57349143Y-79749612D01*
X57368182Y-79744843D01*
X57387597Y-79741963D01*
X57407200Y-79741000D01*
X57807200Y-79741000D01*
X57826803Y-79741963D01*
X57826803Y-79741963D01*
G37*
D11*
X57607200Y-80391000D03*
D22*
X120269000Y-63179000D03*
X120269000Y-64429000D03*
X120269000Y-65679000D03*
D12*
G36*
X120738603Y-66529963D02*
G01*
X120758018Y-66532843D01*
X120777057Y-66537612D01*
X120795537Y-66544224D01*
X120813279Y-66552616D01*
X120830114Y-66562706D01*
X120845879Y-66574398D01*
X120860421Y-66587579D01*
X120873602Y-66602121D01*
X120885294Y-66617886D01*
X120895384Y-66634721D01*
X120903776Y-66652463D01*
X120910388Y-66670943D01*
X120915157Y-66689982D01*
X120918037Y-66709397D01*
X120919000Y-66729000D01*
X120919000Y-67129000D01*
X120918037Y-67148603D01*
X120915157Y-67168018D01*
X120910388Y-67187057D01*
X120903776Y-67205537D01*
X120895384Y-67223279D01*
X120885294Y-67240114D01*
X120873602Y-67255879D01*
X120860421Y-67270421D01*
X120845879Y-67283602D01*
X120830114Y-67295294D01*
X120813279Y-67305384D01*
X120795537Y-67313776D01*
X120777057Y-67320388D01*
X120758018Y-67325157D01*
X120738603Y-67328037D01*
X120719000Y-67329000D01*
X119819000Y-67329000D01*
X119799397Y-67328037D01*
X119779982Y-67325157D01*
X119760943Y-67320388D01*
X119742463Y-67313776D01*
X119724721Y-67305384D01*
X119707886Y-67295294D01*
X119692121Y-67283602D01*
X119677579Y-67270421D01*
X119664398Y-67255879D01*
X119652706Y-67240114D01*
X119642616Y-67223279D01*
X119634224Y-67205537D01*
X119627612Y-67187057D01*
X119622843Y-67168018D01*
X119619963Y-67148603D01*
X119619000Y-67129000D01*
X119619000Y-66729000D01*
X119619963Y-66709397D01*
X119622843Y-66689982D01*
X119627612Y-66670943D01*
X119634224Y-66652463D01*
X119642616Y-66634721D01*
X119652706Y-66617886D01*
X119664398Y-66602121D01*
X119677579Y-66587579D01*
X119692121Y-66574398D01*
X119707886Y-66562706D01*
X119724721Y-66552616D01*
X119742463Y-66544224D01*
X119760943Y-66537612D01*
X119779982Y-66532843D01*
X119799397Y-66529963D01*
X119819000Y-66529000D01*
X120719000Y-66529000D01*
X120738603Y-66529963D01*
X120738603Y-66529963D01*
G37*
D11*
X120269000Y-66929000D03*
X76367000Y-30010000D03*
X81367000Y-30010000D03*
D25*
X74992000Y-27260000D03*
X82742000Y-27260000D03*
D26*
X75142000Y-31060000D03*
X82592000Y-31060000D03*
D11*
X87416000Y-30010000D03*
X92416000Y-30010000D03*
D25*
X86041000Y-27260000D03*
X93791000Y-27260000D03*
D26*
X86191000Y-31060000D03*
X93641000Y-31060000D03*
X104690000Y-31060000D03*
X97240000Y-31060000D03*
D25*
X104840000Y-27260000D03*
X97090000Y-27260000D03*
D11*
X103465000Y-30010000D03*
X98465000Y-30010000D03*
D26*
X115739000Y-31060000D03*
X108289000Y-31060000D03*
D25*
X115889000Y-27260000D03*
X108139000Y-27260000D03*
D11*
X114514000Y-30010000D03*
X109514000Y-30010000D03*
M02*
