G04 #@! TF.GenerationSoftware,KiCad,Pcbnew,(5.1.5)-3*
G04 #@! TF.CreationDate,2019-12-17T15:15:26+01:00*
G04 #@! TF.ProjectId,HadesMicroJLCPCB,48616465-734d-4696-9372-6f4a4c435043,rev?*
G04 #@! TF.SameCoordinates,Original*
G04 #@! TF.FileFunction,Legend,Top*
G04 #@! TF.FilePolarity,Positive*
%FSLAX46Y46*%
G04 Gerber Fmt 4.6, Leading zero omitted, Abs format (unit mm)*
G04 Created by KiCad (PCBNEW (5.1.5)-3) date 2019-12-17 15:15:26*
%MOMM*%
%LPD*%
G04 APERTURE LIST*
%ADD10C,0.150000*%
%ADD11C,0.100000*%
%ADD12C,0.093750*%
%ADD13C,0.200000*%
%ADD14C,0.120000*%
%ADD15C,0.254000*%
%ADD16C,0.203200*%
G04 APERTURE END LIST*
D10*
X36835996Y-25095200D02*
G75*
G03X36835996Y-25095200I-56796J0D01*
G01*
X61016796Y-63246000D02*
G75*
G03X61016796Y-63246000I-56796J0D01*
G01*
D11*
X60756847Y-30002990D02*
X61042561Y-30002990D01*
X60899704Y-30502990D02*
X60899704Y-30002990D01*
X61161609Y-30002990D02*
X61494942Y-30502990D01*
X61494942Y-30002990D02*
X61161609Y-30502990D01*
X28773428Y-53339952D02*
X28773428Y-52578047D01*
X29154380Y-52959000D02*
X28392476Y-52959000D01*
X65409047Y-28555190D02*
X65409047Y-28959952D01*
X65432857Y-29007571D01*
X65456666Y-29031380D01*
X65504285Y-29055190D01*
X65599523Y-29055190D01*
X65647142Y-29031380D01*
X65670952Y-29007571D01*
X65694761Y-28959952D01*
X65694761Y-28555190D01*
X65909047Y-29031380D02*
X65980476Y-29055190D01*
X66099523Y-29055190D01*
X66147142Y-29031380D01*
X66170952Y-29007571D01*
X66194761Y-28959952D01*
X66194761Y-28912333D01*
X66170952Y-28864714D01*
X66147142Y-28840904D01*
X66099523Y-28817095D01*
X66004285Y-28793285D01*
X65956666Y-28769476D01*
X65932857Y-28745666D01*
X65909047Y-28698047D01*
X65909047Y-28650428D01*
X65932857Y-28602809D01*
X65956666Y-28579000D01*
X66004285Y-28555190D01*
X66123333Y-28555190D01*
X66194761Y-28579000D01*
X66575714Y-28793285D02*
X66647142Y-28817095D01*
X66670952Y-28840904D01*
X66694761Y-28888523D01*
X66694761Y-28959952D01*
X66670952Y-29007571D01*
X66647142Y-29031380D01*
X66599523Y-29055190D01*
X66409047Y-29055190D01*
X66409047Y-28555190D01*
X66575714Y-28555190D01*
X66623333Y-28579000D01*
X66647142Y-28602809D01*
X66670952Y-28650428D01*
X66670952Y-28698047D01*
X66647142Y-28745666D01*
X66623333Y-28769476D01*
X66575714Y-28793285D01*
X66409047Y-28793285D01*
X22566571Y-61416380D02*
X22638000Y-61440190D01*
X22757047Y-61440190D01*
X22804666Y-61416380D01*
X22828476Y-61392571D01*
X22852285Y-61344952D01*
X22852285Y-61297333D01*
X22828476Y-61249714D01*
X22804666Y-61225904D01*
X22757047Y-61202095D01*
X22661809Y-61178285D01*
X22614190Y-61154476D01*
X22590380Y-61130666D01*
X22566571Y-61083047D01*
X22566571Y-61035428D01*
X22590380Y-60987809D01*
X22614190Y-60964000D01*
X22661809Y-60940190D01*
X22780857Y-60940190D01*
X22852285Y-60964000D01*
X23066571Y-61178285D02*
X23233238Y-61178285D01*
X23304666Y-61440190D02*
X23066571Y-61440190D01*
X23066571Y-60940190D01*
X23304666Y-60940190D01*
X23804666Y-61440190D02*
X23638000Y-61202095D01*
X23518952Y-61440190D02*
X23518952Y-60940190D01*
X23709428Y-60940190D01*
X23757047Y-60964000D01*
X23780857Y-60987809D01*
X23804666Y-61035428D01*
X23804666Y-61106857D01*
X23780857Y-61154476D01*
X23757047Y-61178285D01*
X23709428Y-61202095D01*
X23518952Y-61202095D01*
X23947523Y-60940190D02*
X24114190Y-61440190D01*
X24280857Y-60940190D01*
X24542761Y-60940190D02*
X24638000Y-60940190D01*
X24685619Y-60964000D01*
X24733238Y-61011619D01*
X24757047Y-61106857D01*
X24757047Y-61273523D01*
X24733238Y-61368761D01*
X24685619Y-61416380D01*
X24638000Y-61440190D01*
X24542761Y-61440190D01*
X24495142Y-61416380D01*
X24447523Y-61368761D01*
X24423714Y-61273523D01*
X24423714Y-61106857D01*
X24447523Y-61011619D01*
X24495142Y-60964000D01*
X24542761Y-60940190D01*
X25352285Y-61440190D02*
X25352285Y-60940190D01*
X25542761Y-60940190D01*
X25590380Y-60964000D01*
X25614190Y-60987809D01*
X25638000Y-61035428D01*
X25638000Y-61106857D01*
X25614190Y-61154476D01*
X25590380Y-61178285D01*
X25542761Y-61202095D01*
X25352285Y-61202095D01*
X25804666Y-60940190D02*
X25923714Y-61440190D01*
X26018952Y-61083047D01*
X26114190Y-61440190D01*
X26233238Y-60940190D01*
X26709428Y-61440190D02*
X26542761Y-61202095D01*
X26423714Y-61440190D02*
X26423714Y-60940190D01*
X26614190Y-60940190D01*
X26661809Y-60964000D01*
X26685619Y-60987809D01*
X26709428Y-61035428D01*
X26709428Y-61106857D01*
X26685619Y-61154476D01*
X26661809Y-61178285D01*
X26614190Y-61202095D01*
X26423714Y-61202095D01*
X29714190Y-58265190D02*
X29714190Y-57765190D01*
X29904666Y-57765190D01*
X29952285Y-57789000D01*
X29976095Y-57812809D01*
X29999904Y-57860428D01*
X29999904Y-57931857D01*
X29976095Y-57979476D01*
X29952285Y-58003285D01*
X29904666Y-58027095D01*
X29714190Y-58027095D01*
X30214190Y-58074714D02*
X30595142Y-58074714D01*
X31071333Y-58265190D02*
X30833238Y-58265190D01*
X30833238Y-57765190D01*
X31238000Y-58265190D02*
X31238000Y-57765190D01*
X31476095Y-58265190D02*
X31476095Y-57765190D01*
X31761809Y-58265190D01*
X31761809Y-57765190D01*
X31999904Y-58265190D02*
X31999904Y-57765190D01*
X32285619Y-58265190D02*
X32071333Y-57979476D01*
X32285619Y-57765190D02*
X31999904Y-58050904D01*
X64472428Y-41096380D02*
X64543857Y-41120190D01*
X64662904Y-41120190D01*
X64710523Y-41096380D01*
X64734333Y-41072571D01*
X64758142Y-41024952D01*
X64758142Y-40977333D01*
X64734333Y-40929714D01*
X64710523Y-40905904D01*
X64662904Y-40882095D01*
X64567666Y-40858285D01*
X64520047Y-40834476D01*
X64496238Y-40810666D01*
X64472428Y-40763047D01*
X64472428Y-40715428D01*
X64496238Y-40667809D01*
X64520047Y-40644000D01*
X64567666Y-40620190D01*
X64686714Y-40620190D01*
X64758142Y-40644000D01*
X64924809Y-40620190D02*
X65043857Y-41120190D01*
X65139095Y-40763047D01*
X65234333Y-41120190D01*
X65353380Y-40620190D01*
X65543857Y-41120190D02*
X65543857Y-40620190D01*
X65662904Y-40620190D01*
X65734333Y-40644000D01*
X65781952Y-40691619D01*
X65805761Y-40739238D01*
X65829571Y-40834476D01*
X65829571Y-40905904D01*
X65805761Y-41001142D01*
X65781952Y-41048761D01*
X65734333Y-41096380D01*
X65662904Y-41120190D01*
X65543857Y-41120190D01*
X33817809Y-58646190D02*
X33651142Y-58408095D01*
X33532095Y-58646190D02*
X33532095Y-58146190D01*
X33722571Y-58146190D01*
X33770190Y-58170000D01*
X33794000Y-58193809D01*
X33817809Y-58241428D01*
X33817809Y-58312857D01*
X33794000Y-58360476D01*
X33770190Y-58384285D01*
X33722571Y-58408095D01*
X33532095Y-58408095D01*
X34032095Y-58384285D02*
X34198761Y-58384285D01*
X34270190Y-58646190D02*
X34032095Y-58646190D01*
X34032095Y-58146190D01*
X34270190Y-58146190D01*
X34460666Y-58622380D02*
X34532095Y-58646190D01*
X34651142Y-58646190D01*
X34698761Y-58622380D01*
X34722571Y-58598571D01*
X34746380Y-58550952D01*
X34746380Y-58503333D01*
X34722571Y-58455714D01*
X34698761Y-58431904D01*
X34651142Y-58408095D01*
X34555904Y-58384285D01*
X34508285Y-58360476D01*
X34484476Y-58336666D01*
X34460666Y-58289047D01*
X34460666Y-58241428D01*
X34484476Y-58193809D01*
X34508285Y-58170000D01*
X34555904Y-58146190D01*
X34674952Y-58146190D01*
X34746380Y-58170000D01*
X34960666Y-58384285D02*
X35127333Y-58384285D01*
X35198761Y-58646190D02*
X34960666Y-58646190D01*
X34960666Y-58146190D01*
X35198761Y-58146190D01*
X35341619Y-58146190D02*
X35627333Y-58146190D01*
X35484476Y-58646190D02*
X35484476Y-58146190D01*
X36893523Y-68869714D02*
X37274476Y-68869714D01*
X37084000Y-69060190D02*
X37084000Y-68679238D01*
X29400523Y-68869714D02*
X29781476Y-68869714D01*
X29591000Y-69060190D02*
X29591000Y-68679238D01*
X40993333Y-64734285D02*
X41064761Y-64758095D01*
X41088571Y-64781904D01*
X41112380Y-64829523D01*
X41112380Y-64900952D01*
X41088571Y-64948571D01*
X41064761Y-64972380D01*
X41017142Y-64996190D01*
X40826666Y-64996190D01*
X40826666Y-64496190D01*
X40993333Y-64496190D01*
X41040952Y-64520000D01*
X41064761Y-64543809D01*
X41088571Y-64591428D01*
X41088571Y-64639047D01*
X41064761Y-64686666D01*
X41040952Y-64710476D01*
X40993333Y-64734285D01*
X40826666Y-64734285D01*
X41421904Y-64496190D02*
X41517142Y-64496190D01*
X41564761Y-64520000D01*
X41612380Y-64567619D01*
X41636190Y-64662857D01*
X41636190Y-64829523D01*
X41612380Y-64924761D01*
X41564761Y-64972380D01*
X41517142Y-64996190D01*
X41421904Y-64996190D01*
X41374285Y-64972380D01*
X41326666Y-64924761D01*
X41302857Y-64829523D01*
X41302857Y-64662857D01*
X41326666Y-64567619D01*
X41374285Y-64520000D01*
X41421904Y-64496190D01*
X41945714Y-64496190D02*
X42040952Y-64496190D01*
X42088571Y-64520000D01*
X42136190Y-64567619D01*
X42160000Y-64662857D01*
X42160000Y-64829523D01*
X42136190Y-64924761D01*
X42088571Y-64972380D01*
X42040952Y-64996190D01*
X41945714Y-64996190D01*
X41898095Y-64972380D01*
X41850476Y-64924761D01*
X41826666Y-64829523D01*
X41826666Y-64662857D01*
X41850476Y-64567619D01*
X41898095Y-64520000D01*
X41945714Y-64496190D01*
X42302857Y-64496190D02*
X42588571Y-64496190D01*
X42445714Y-64996190D02*
X42445714Y-64496190D01*
X43017142Y-64996190D02*
X42731428Y-64996190D01*
X42874285Y-64996190D02*
X42874285Y-64496190D01*
X42826666Y-64567619D01*
X42779047Y-64615238D01*
X42731428Y-64639047D01*
X33500333Y-64734285D02*
X33571761Y-64758095D01*
X33595571Y-64781904D01*
X33619380Y-64829523D01*
X33619380Y-64900952D01*
X33595571Y-64948571D01*
X33571761Y-64972380D01*
X33524142Y-64996190D01*
X33333666Y-64996190D01*
X33333666Y-64496190D01*
X33500333Y-64496190D01*
X33547952Y-64520000D01*
X33571761Y-64543809D01*
X33595571Y-64591428D01*
X33595571Y-64639047D01*
X33571761Y-64686666D01*
X33547952Y-64710476D01*
X33500333Y-64734285D01*
X33333666Y-64734285D01*
X33928904Y-64496190D02*
X34024142Y-64496190D01*
X34071761Y-64520000D01*
X34119380Y-64567619D01*
X34143190Y-64662857D01*
X34143190Y-64829523D01*
X34119380Y-64924761D01*
X34071761Y-64972380D01*
X34024142Y-64996190D01*
X33928904Y-64996190D01*
X33881285Y-64972380D01*
X33833666Y-64924761D01*
X33809857Y-64829523D01*
X33809857Y-64662857D01*
X33833666Y-64567619D01*
X33881285Y-64520000D01*
X33928904Y-64496190D01*
X34452714Y-64496190D02*
X34547952Y-64496190D01*
X34595571Y-64520000D01*
X34643190Y-64567619D01*
X34667000Y-64662857D01*
X34667000Y-64829523D01*
X34643190Y-64924761D01*
X34595571Y-64972380D01*
X34547952Y-64996190D01*
X34452714Y-64996190D01*
X34405095Y-64972380D01*
X34357476Y-64924761D01*
X34333666Y-64829523D01*
X34333666Y-64662857D01*
X34357476Y-64567619D01*
X34405095Y-64520000D01*
X34452714Y-64496190D01*
X34809857Y-64496190D02*
X35095571Y-64496190D01*
X34952714Y-64996190D02*
X34952714Y-64496190D01*
X35357476Y-64496190D02*
X35405095Y-64496190D01*
X35452714Y-64520000D01*
X35476523Y-64543809D01*
X35500333Y-64591428D01*
X35524142Y-64686666D01*
X35524142Y-64805714D01*
X35500333Y-64900952D01*
X35476523Y-64948571D01*
X35452714Y-64972380D01*
X35405095Y-64996190D01*
X35357476Y-64996190D01*
X35309857Y-64972380D01*
X35286047Y-64948571D01*
X35262238Y-64900952D01*
X35238428Y-64805714D01*
X35238428Y-64686666D01*
X35262238Y-64591428D01*
X35286047Y-64543809D01*
X35309857Y-64520000D01*
X35357476Y-64496190D01*
D12*
X60550657Y-51889790D02*
X60550657Y-51556457D01*
X60550657Y-51604076D02*
X60598276Y-51580266D01*
X60693514Y-51556457D01*
X60836371Y-51556457D01*
X60931609Y-51580266D01*
X60979228Y-51627885D01*
X60979228Y-51889790D01*
X60979228Y-51627885D02*
X61026847Y-51580266D01*
X61122085Y-51556457D01*
X61264942Y-51556457D01*
X61360180Y-51580266D01*
X61407800Y-51627885D01*
X61407800Y-51889790D01*
X61883990Y-51889790D02*
X61883990Y-51556457D01*
X61883990Y-51389790D02*
X61836371Y-51413600D01*
X61883990Y-51437409D01*
X61931609Y-51413600D01*
X61883990Y-51389790D01*
X61883990Y-51437409D01*
X62788752Y-51865980D02*
X62693514Y-51889790D01*
X62503038Y-51889790D01*
X62407800Y-51865980D01*
X62360180Y-51842171D01*
X62312561Y-51794552D01*
X62312561Y-51651695D01*
X62360180Y-51604076D01*
X62407800Y-51580266D01*
X62503038Y-51556457D01*
X62693514Y-51556457D01*
X62788752Y-51580266D01*
X63217323Y-51889790D02*
X63217323Y-51556457D01*
X63217323Y-51651695D02*
X63264942Y-51604076D01*
X63312561Y-51580266D01*
X63407800Y-51556457D01*
X63503038Y-51556457D01*
X63979228Y-51889790D02*
X63883990Y-51865980D01*
X63836371Y-51842171D01*
X63788752Y-51794552D01*
X63788752Y-51651695D01*
X63836371Y-51604076D01*
X63883990Y-51580266D01*
X63979228Y-51556457D01*
X64122085Y-51556457D01*
X64217323Y-51580266D01*
X64264942Y-51604076D01*
X64312561Y-51651695D01*
X64312561Y-51794552D01*
X64264942Y-51842171D01*
X64217323Y-51865980D01*
X64122085Y-51889790D01*
X63979228Y-51889790D01*
D13*
X55607485Y-50882876D02*
X55607485Y-49632876D01*
X55607485Y-50228114D02*
X56750342Y-50228114D01*
X56750342Y-50882876D02*
X56750342Y-49632876D01*
X57607485Y-50525733D02*
X58559866Y-50525733D01*
X57417009Y-50882876D02*
X58083676Y-49632876D01*
X58750342Y-50882876D01*
X59417009Y-50882876D02*
X59417009Y-49632876D01*
X59893200Y-49632876D01*
X60178914Y-49692400D01*
X60369390Y-49811447D01*
X60464628Y-49930495D01*
X60559866Y-50168590D01*
X60559866Y-50347161D01*
X60464628Y-50585257D01*
X60369390Y-50704304D01*
X60178914Y-50823352D01*
X59893200Y-50882876D01*
X59417009Y-50882876D01*
X61417009Y-50228114D02*
X62083676Y-50228114D01*
X62369390Y-50882876D02*
X61417009Y-50882876D01*
X61417009Y-49632876D01*
X62369390Y-49632876D01*
X63131295Y-50823352D02*
X63417009Y-50882876D01*
X63893200Y-50882876D01*
X64083676Y-50823352D01*
X64178914Y-50763828D01*
X64274152Y-50644780D01*
X64274152Y-50525733D01*
X64178914Y-50406685D01*
X64083676Y-50347161D01*
X63893200Y-50287638D01*
X63512247Y-50228114D01*
X63321771Y-50168590D01*
X63226533Y-50109066D01*
X63131295Y-49990019D01*
X63131295Y-49870971D01*
X63226533Y-49751923D01*
X63321771Y-49692400D01*
X63512247Y-49632876D01*
X63988438Y-49632876D01*
X64274152Y-49692400D01*
D11*
X22044428Y-50742885D02*
X22044428Y-51314314D01*
X24609828Y-50742885D02*
X24609828Y-51314314D01*
X24324114Y-51028600D02*
X24895542Y-51028600D01*
X26849028Y-50814314D02*
X26813314Y-50921457D01*
X26813314Y-51100028D01*
X26849028Y-51171457D01*
X26884742Y-51207171D01*
X26956171Y-51242885D01*
X27027600Y-51242885D01*
X27099028Y-51207171D01*
X27134742Y-51171457D01*
X27170457Y-51100028D01*
X27206171Y-50957171D01*
X27241885Y-50885742D01*
X27277600Y-50850028D01*
X27349028Y-50814314D01*
X27420457Y-50814314D01*
X27491885Y-50850028D01*
X27527600Y-50885742D01*
X27563314Y-50957171D01*
X27563314Y-51135742D01*
X27527600Y-51242885D01*
X28773428Y-60832952D02*
X28773428Y-60071047D01*
X60464723Y-43444314D02*
X60845676Y-43444314D01*
D10*
X58044996Y-33375600D02*
G75*
G03X58044996Y-33375600I-56796J0D01*
G01*
X59721396Y-31724600D02*
G75*
G03X59721396Y-31724600I-56796J0D01*
G01*
X30612996Y-31343600D02*
G75*
G03X30612996Y-31343600I-56796J0D01*
G01*
X61702596Y-41859200D02*
G75*
G03X61702596Y-41859200I-56796J0D01*
G01*
X33178396Y-52959000D02*
G75*
G03X33178396Y-52959000I-56796J0D01*
G01*
X41179396Y-43002200D02*
G75*
G03X41179396Y-43002200I-56796J0D01*
G01*
D11*
X36791923Y-22971914D02*
X37172876Y-22971914D01*
X55079923Y-38186514D02*
X55460876Y-38186514D01*
X62064923Y-27569314D02*
X62445876Y-27569314D01*
X32118323Y-51089714D02*
X32499276Y-51089714D01*
X34251923Y-46263714D02*
X34632876Y-46263714D01*
X30001714Y-45749400D02*
X30001714Y-46249400D01*
X29251714Y-45927971D01*
X30001714Y-43602257D02*
X30001714Y-43459400D01*
X29966000Y-43387971D01*
X29930285Y-43352257D01*
X29823142Y-43280828D01*
X29680285Y-43245114D01*
X29394571Y-43245114D01*
X29323142Y-43280828D01*
X29287428Y-43316542D01*
X29251714Y-43387971D01*
X29251714Y-43530828D01*
X29287428Y-43602257D01*
X29323142Y-43637971D01*
X29394571Y-43673685D01*
X29573142Y-43673685D01*
X29644571Y-43637971D01*
X29680285Y-43602257D01*
X29716000Y-43530828D01*
X29716000Y-43387971D01*
X29680285Y-43316542D01*
X29644571Y-43280828D01*
X29573142Y-43245114D01*
X30001714Y-41097971D02*
X30001714Y-40740828D01*
X29644571Y-40705114D01*
X29680285Y-40740828D01*
X29716000Y-40812257D01*
X29716000Y-40990828D01*
X29680285Y-41062257D01*
X29644571Y-41097971D01*
X29573142Y-41133685D01*
X29394571Y-41133685D01*
X29323142Y-41097971D01*
X29287428Y-41062257D01*
X29251714Y-40990828D01*
X29251714Y-40812257D01*
X29287428Y-40740828D01*
X29323142Y-40705114D01*
X29751714Y-38522257D02*
X29251714Y-38522257D01*
X30037428Y-38343685D02*
X29501714Y-38165114D01*
X29501714Y-38629400D01*
X30001714Y-35589400D02*
X30001714Y-36053685D01*
X29716000Y-35803685D01*
X29716000Y-35910828D01*
X29680285Y-35982257D01*
X29644571Y-36017971D01*
X29573142Y-36053685D01*
X29394571Y-36053685D01*
X29323142Y-36017971D01*
X29287428Y-35982257D01*
X29251714Y-35910828D01*
X29251714Y-35696542D01*
X29287428Y-35625114D01*
X29323142Y-35589400D01*
X29680285Y-48467971D02*
X29716000Y-48396542D01*
X29751714Y-48360828D01*
X29823142Y-48325114D01*
X29858857Y-48325114D01*
X29930285Y-48360828D01*
X29966000Y-48396542D01*
X30001714Y-48467971D01*
X30001714Y-48610828D01*
X29966000Y-48682257D01*
X29930285Y-48717971D01*
X29858857Y-48753685D01*
X29823142Y-48753685D01*
X29751714Y-48717971D01*
X29716000Y-48682257D01*
X29680285Y-48610828D01*
X29680285Y-48467971D01*
X29644571Y-48396542D01*
X29608857Y-48360828D01*
X29537428Y-48325114D01*
X29394571Y-48325114D01*
X29323142Y-48360828D01*
X29287428Y-48396542D01*
X29251714Y-48467971D01*
X29251714Y-48610828D01*
X29287428Y-48682257D01*
X29323142Y-48717971D01*
X29394571Y-48753685D01*
X29537428Y-48753685D01*
X29608857Y-48717971D01*
X29644571Y-48682257D01*
X29680285Y-48610828D01*
X29930285Y-33085114D02*
X29966000Y-33120828D01*
X30001714Y-33192257D01*
X30001714Y-33370828D01*
X29966000Y-33442257D01*
X29930285Y-33477971D01*
X29858857Y-33513685D01*
X29787428Y-33513685D01*
X29680285Y-33477971D01*
X29251714Y-33049400D01*
X29251714Y-33513685D01*
X29251714Y-30973685D02*
X29251714Y-30545114D01*
X29251714Y-30759400D02*
X30001714Y-30759400D01*
X29894571Y-30687971D01*
X29823142Y-30616542D01*
X29787428Y-30545114D01*
X57266057Y-46745085D02*
X57266057Y-45995085D01*
X57516057Y-46530800D01*
X57766057Y-45995085D01*
X57766057Y-46745085D01*
X58266057Y-45995085D02*
X58408914Y-45995085D01*
X58480342Y-46030800D01*
X58551771Y-46102228D01*
X58587485Y-46245085D01*
X58587485Y-46495085D01*
X58551771Y-46637942D01*
X58480342Y-46709371D01*
X58408914Y-46745085D01*
X58266057Y-46745085D01*
X58194628Y-46709371D01*
X58123200Y-46637942D01*
X58087485Y-46495085D01*
X58087485Y-46245085D01*
X58123200Y-46102228D01*
X58194628Y-46030800D01*
X58266057Y-45995085D01*
X58908914Y-46745085D02*
X58908914Y-45995085D01*
X59087485Y-45995085D01*
X59194628Y-46030800D01*
X59266057Y-46102228D01*
X59301771Y-46173657D01*
X59337485Y-46316514D01*
X59337485Y-46423657D01*
X59301771Y-46566514D01*
X59266057Y-46637942D01*
X59194628Y-46709371D01*
X59087485Y-46745085D01*
X58908914Y-46745085D01*
X59658914Y-46352228D02*
X59908914Y-46352228D01*
X60016057Y-46745085D02*
X59658914Y-46745085D01*
X59658914Y-45995085D01*
X60016057Y-45995085D01*
X33406542Y-49171628D02*
X33156542Y-49171628D01*
X33156542Y-49564485D02*
X33156542Y-48814485D01*
X33513685Y-48814485D01*
X31332514Y-49528771D02*
X31439657Y-49564485D01*
X31618228Y-49564485D01*
X31689657Y-49528771D01*
X31725371Y-49493057D01*
X31761085Y-49421628D01*
X31761085Y-49350200D01*
X31725371Y-49278771D01*
X31689657Y-49243057D01*
X31618228Y-49207342D01*
X31475371Y-49171628D01*
X31403942Y-49135914D01*
X31368228Y-49100200D01*
X31332514Y-49028771D01*
X31332514Y-48957342D01*
X31368228Y-48885914D01*
X31403942Y-48850200D01*
X31475371Y-48814485D01*
X31653942Y-48814485D01*
X31761085Y-48850200D01*
D10*
X32092000Y-30585000D02*
X32092000Y-30810000D01*
X36742000Y-30585000D02*
X36742000Y-30910000D01*
X36742000Y-40535000D02*
X36742000Y-40210000D01*
X32092000Y-40535000D02*
X32092000Y-40210000D01*
X32092000Y-30585000D02*
X36742000Y-30585000D01*
X32092000Y-40535000D02*
X36742000Y-40535000D01*
X32092000Y-30810000D02*
X31017000Y-30810000D01*
D11*
X56899400Y-53278400D02*
X56199400Y-53278400D01*
X56199400Y-53278400D02*
X56199400Y-53978400D01*
X56199400Y-57578400D02*
X56199400Y-58278400D01*
X56199400Y-58278400D02*
X56899400Y-58278400D01*
X60499400Y-58278400D02*
X61199400Y-58278400D01*
X61199400Y-58278400D02*
X61199400Y-57578400D01*
X60499400Y-53278400D02*
X61199400Y-53278400D01*
X61199400Y-53278400D02*
X61199400Y-53978400D01*
D13*
X59899400Y-58678400D02*
X59899400Y-58678400D01*
X60099400Y-58678400D02*
X60099400Y-58678400D01*
X60099400Y-58678400D02*
G75*
G02X59899400Y-58678400I-100000J0D01*
G01*
X59899400Y-58678400D02*
G75*
G02X60099400Y-58678400I100000J0D01*
G01*
D14*
X52210800Y-51865400D02*
X53160800Y-51865400D01*
X53160800Y-51865400D02*
X53160800Y-50915400D01*
X43890800Y-51865400D02*
X42940800Y-51865400D01*
X42940800Y-51865400D02*
X42940800Y-50915400D01*
X52210800Y-41645400D02*
X53160800Y-41645400D01*
X53160800Y-41645400D02*
X53160800Y-42595400D01*
X43890800Y-41645400D02*
X42940800Y-41645400D01*
X42940800Y-41645400D02*
X42940800Y-42595400D01*
X42940800Y-42595400D02*
X41600800Y-42595400D01*
X20498400Y-52966400D02*
X20498400Y-53366400D01*
X21138400Y-52966400D02*
X20498400Y-52966400D01*
X24357400Y-57371400D02*
X24229400Y-57242400D01*
X26573400Y-59586400D02*
X26479400Y-59492400D01*
X24117400Y-57541400D02*
X24024400Y-57447400D01*
X26367400Y-59791400D02*
X26239400Y-59662400D01*
X28458400Y-60326400D02*
X20738400Y-60326400D01*
X28458400Y-53206400D02*
X20738400Y-53206400D01*
X20738400Y-53206400D02*
X20738400Y-60326400D01*
X28458400Y-53206400D02*
X28458400Y-60326400D01*
X22298400Y-53206400D02*
X22298400Y-60326400D01*
X21198400Y-53206400D02*
X21198400Y-60326400D01*
X26978400Y-58516400D02*
G75*
G03X26978400Y-58516400I-1680000J0D01*
G01*
X23618301Y-55045074D02*
G75*
G02X23858400Y-54150400I1680099J28674D01*
G01*
X24408506Y-53591042D02*
G75*
G02X26164400Y-53576400I889894J-1425358D01*
G01*
X26723758Y-54126506D02*
G75*
G02X26738400Y-55882400I-1425358J-889894D01*
G01*
X26188593Y-56441905D02*
G75*
G02X24407400Y-56441400I-890193J1425505D01*
G01*
X23873679Y-55906664D02*
G75*
G02X23618400Y-55016400I1424721J890264D01*
G01*
D13*
X30112000Y-69502000D02*
X30112000Y-68102000D01*
X35512000Y-67752000D02*
X29512000Y-67752000D01*
X35512000Y-65852000D02*
X35512000Y-67752000D01*
X29512000Y-65852000D02*
X35512000Y-65852000D01*
X29512000Y-67752000D02*
X29512000Y-65852000D01*
X37000000Y-67752000D02*
X37000000Y-65852000D01*
X37000000Y-65852000D02*
X43000000Y-65852000D01*
X43000000Y-65852000D02*
X43000000Y-67752000D01*
X43000000Y-67752000D02*
X37000000Y-67752000D01*
X37600000Y-69502000D02*
X37600000Y-68102000D01*
D14*
X31863400Y-50612200D02*
X31863400Y-53162200D01*
X30163400Y-50612200D02*
X30163400Y-53162200D01*
X31863400Y-50612200D02*
X30163400Y-50612200D01*
X58520000Y-45021300D02*
X58520000Y-42736300D01*
X58520000Y-42736300D02*
X57050000Y-42736300D01*
X57050000Y-42736300D02*
X57050000Y-45021300D01*
X58751800Y-42736300D02*
X58751800Y-45021300D01*
X60221800Y-42736300D02*
X58751800Y-42736300D01*
X60221800Y-45021300D02*
X60221800Y-42736300D01*
X32564400Y-45555700D02*
X32564400Y-47840700D01*
X34034400Y-45555700D02*
X32564400Y-45555700D01*
X34034400Y-47840700D02*
X34034400Y-45555700D01*
X32281800Y-47840700D02*
X32281800Y-45555700D01*
X32281800Y-45555700D02*
X30811800Y-45555700D01*
X30811800Y-45555700D02*
X30811800Y-47840700D01*
X54828600Y-36157800D02*
X54828600Y-37857800D01*
X54828600Y-37857800D02*
X57378600Y-37857800D01*
X54828600Y-36157800D02*
X57378600Y-36157800D01*
X61872800Y-29146300D02*
X61872800Y-26861300D01*
X61872800Y-26861300D02*
X60402800Y-26861300D01*
X60402800Y-26861300D02*
X60402800Y-29146300D01*
X60729400Y-37958079D02*
X60729400Y-37632521D01*
X61749400Y-37958079D02*
X61749400Y-37632521D01*
D15*
X42790800Y-56348800D02*
G75*
G03X42790800Y-56348800I-125000J0D01*
G01*
D14*
X45750000Y-63850000D02*
X45750000Y-63550000D01*
X45750000Y-63550000D02*
X45250000Y-63550000D01*
X47875000Y-64140000D02*
X45460000Y-64140000D01*
X45460000Y-64140000D02*
X45460000Y-63840000D01*
X45460000Y-63840000D02*
X44390000Y-63840000D01*
X44390000Y-63840000D02*
X44390000Y-69560000D01*
X44390000Y-69560000D02*
X47875000Y-69560000D01*
X47875000Y-64140000D02*
X50290000Y-64140000D01*
X50290000Y-64140000D02*
X50290000Y-63840000D01*
X50290000Y-63840000D02*
X51360000Y-63840000D01*
X51360000Y-63840000D02*
X51360000Y-69560000D01*
X51360000Y-69560000D02*
X47875000Y-69560000D01*
X38392000Y-42493000D02*
X35092000Y-42493000D01*
X35092000Y-42493000D02*
X35092000Y-46493000D01*
X69610800Y-52395400D02*
X69610800Y-55880400D01*
X63890800Y-52395400D02*
X69610800Y-52395400D01*
X63890800Y-53465400D02*
X63890800Y-52395400D01*
X64190800Y-53465400D02*
X63890800Y-53465400D01*
X64190800Y-55880400D02*
X64190800Y-53465400D01*
X69610800Y-59365400D02*
X69610800Y-55880400D01*
X63890800Y-59365400D02*
X69610800Y-59365400D01*
X63890800Y-58295400D02*
X63890800Y-59365400D01*
X64190800Y-58295400D02*
X63890800Y-58295400D01*
X64190800Y-55880400D02*
X64190800Y-58295400D01*
X63600800Y-58005400D02*
X63600800Y-58505400D01*
X63900800Y-58005400D02*
X63600800Y-58005400D01*
D13*
X43050800Y-37314000D02*
X43000800Y-37314000D01*
X43000800Y-37314000D02*
X42800800Y-37114000D01*
X42800800Y-37114000D02*
X42800800Y-36814000D01*
X43050800Y-34314000D02*
X42800800Y-34314000D01*
X42800800Y-34314000D02*
X42800800Y-34814000D01*
X47050800Y-37314000D02*
X47300800Y-37314000D01*
X47300800Y-37314000D02*
X47300800Y-36814000D01*
X47050800Y-34314000D02*
X47300800Y-34314000D01*
X47300800Y-34314000D02*
X47300800Y-34814000D01*
D15*
X43646800Y-33554000D02*
G75*
G03X43646800Y-33554000I-125000J0D01*
G01*
D14*
X32123400Y-54473800D02*
X31320930Y-54473800D01*
X30705870Y-54473800D02*
X29903400Y-54473800D01*
X32123400Y-55678800D02*
X32123400Y-54473800D01*
X29903400Y-55678800D02*
X29903400Y-54473800D01*
X32123400Y-55678800D02*
X31576871Y-55678800D01*
X30449929Y-55678800D02*
X29903400Y-55678800D01*
X32123400Y-56438800D02*
X32123400Y-57198800D01*
X32123400Y-57198800D02*
X31013400Y-57198800D01*
X25968000Y-29404000D02*
X20768000Y-29404000D01*
X25968000Y-47244000D02*
X25968000Y-29404000D01*
X20768000Y-49844000D02*
X20768000Y-29404000D01*
X25968000Y-47244000D02*
X23368000Y-47244000D01*
X23368000Y-47244000D02*
X23368000Y-49844000D01*
X23368000Y-49844000D02*
X20768000Y-49844000D01*
X25968000Y-48514000D02*
X25968000Y-49844000D01*
X25968000Y-49844000D02*
X24638000Y-49844000D01*
X25848000Y-49869400D02*
X28508000Y-49869400D01*
X25848000Y-32029400D02*
X25848000Y-49869400D01*
X28508000Y-32029400D02*
X28508000Y-49869400D01*
X25848000Y-32029400D02*
X28508000Y-32029400D01*
X25848000Y-30759400D02*
X25848000Y-29429400D01*
X25848000Y-29429400D02*
X27178000Y-29429400D01*
X37351500Y-23722000D02*
X39636500Y-23722000D01*
X37351500Y-22252000D02*
X37351500Y-23722000D01*
X39636500Y-22252000D02*
X37351500Y-22252000D01*
X49234000Y-26150000D02*
X49234000Y-26450000D01*
X49234000Y-26450000D02*
X49734000Y-26450000D01*
X47109000Y-25860000D02*
X49524000Y-25860000D01*
X49524000Y-25860000D02*
X49524000Y-26160000D01*
X49524000Y-26160000D02*
X50594000Y-26160000D01*
X50594000Y-26160000D02*
X50594000Y-20440000D01*
X50594000Y-20440000D02*
X47109000Y-20440000D01*
X47109000Y-25860000D02*
X44694000Y-25860000D01*
X44694000Y-25860000D02*
X44694000Y-26160000D01*
X44694000Y-26160000D02*
X43624000Y-26160000D01*
X43624000Y-26160000D02*
X43624000Y-20440000D01*
X43624000Y-20440000D02*
X47109000Y-20440000D01*
D11*
X32442000Y-58979000D02*
X36642000Y-58979000D01*
X32442000Y-62179000D02*
X36642000Y-62179000D01*
X32442000Y-60079000D02*
X32442000Y-61079000D01*
X36642000Y-60079000D02*
X36642000Y-61079000D01*
X31742000Y-59479000D02*
X31742000Y-59479000D01*
X31742000Y-59579000D02*
X31742000Y-59579000D01*
X31742000Y-59579000D02*
G75*
G03X31742000Y-59479000I0J50000D01*
G01*
X31742000Y-59479000D02*
G75*
G03X31742000Y-59579000I0J-50000D01*
G01*
D14*
X54750000Y-63850000D02*
X54750000Y-63550000D01*
X54750000Y-63550000D02*
X54250000Y-63550000D01*
X56875000Y-64140000D02*
X54460000Y-64140000D01*
X54460000Y-64140000D02*
X54460000Y-63840000D01*
X54460000Y-63840000D02*
X53390000Y-63840000D01*
X53390000Y-63840000D02*
X53390000Y-69560000D01*
X53390000Y-69560000D02*
X56875000Y-69560000D01*
X56875000Y-64140000D02*
X59290000Y-64140000D01*
X59290000Y-64140000D02*
X59290000Y-63840000D01*
X59290000Y-63840000D02*
X60360000Y-63840000D01*
X60360000Y-63840000D02*
X60360000Y-69560000D01*
X60360000Y-69560000D02*
X56875000Y-69560000D01*
X63386000Y-41697600D02*
X66916000Y-41697600D01*
X63386000Y-48167600D02*
X66916000Y-48167600D01*
X62061000Y-41762600D02*
X63386000Y-41762600D01*
X63386000Y-41697600D02*
X63386000Y-41762600D01*
X66916000Y-41697600D02*
X66916000Y-41762600D01*
X63386000Y-48102600D02*
X63386000Y-48167600D01*
X66916000Y-48102600D02*
X66916000Y-48167600D01*
X52640000Y-20440000D02*
X56125000Y-20440000D01*
X52640000Y-26160000D02*
X52640000Y-20440000D01*
X53710000Y-26160000D02*
X52640000Y-26160000D01*
X53710000Y-25860000D02*
X53710000Y-26160000D01*
X56125000Y-25860000D02*
X53710000Y-25860000D01*
X59610000Y-20440000D02*
X56125000Y-20440000D01*
X59610000Y-26160000D02*
X59610000Y-20440000D01*
X58540000Y-26160000D02*
X59610000Y-26160000D01*
X58540000Y-25860000D02*
X58540000Y-26160000D01*
X56125000Y-25860000D02*
X58540000Y-25860000D01*
X58250000Y-26450000D02*
X58750000Y-26450000D01*
X58250000Y-26150000D02*
X58250000Y-26450000D01*
X37878000Y-27645000D02*
X39678000Y-27645000D01*
X39678000Y-24425000D02*
X37228000Y-24425000D01*
X36830000Y-57424000D02*
X38780000Y-57424000D01*
X36830000Y-57424000D02*
X34880000Y-57424000D01*
X36830000Y-52304000D02*
X38780000Y-52304000D01*
X36830000Y-52304000D02*
X33380000Y-52304000D01*
X59163200Y-35950800D02*
X60963200Y-35950800D01*
X60963200Y-32730800D02*
X58513200Y-32730800D01*
D13*
X60570000Y-61482000D02*
X60570000Y-61332000D01*
X60570000Y-61332000D02*
X62620000Y-61332000D01*
X62620000Y-61332000D02*
X62620000Y-61482000D01*
X62620000Y-61482000D02*
X60570000Y-61482000D01*
X60495000Y-62882000D02*
X60495000Y-61832000D01*
D16*
X55292800Y-32134000D02*
X55292800Y-29334000D01*
X55292800Y-29334000D02*
X58092800Y-29334000D01*
X58092800Y-29334000D02*
X58092800Y-32134000D01*
X58092800Y-32134000D02*
X55292800Y-32134000D01*
X57792800Y-31534000D02*
G75*
G02X57192800Y-31534000I-300000J0D01*
G01*
X57192800Y-31534000D02*
X57792800Y-31534000D01*
D10*
X65350000Y-38150000D02*
X66750000Y-38150000D01*
X69150000Y-38150000D02*
X69300000Y-38150000D01*
X69300000Y-38150000D02*
X69300000Y-37850000D01*
X69300000Y-37850000D02*
X69750000Y-37850000D01*
X69750000Y-30150000D02*
X69300000Y-30150000D01*
X69300000Y-30150000D02*
X69300000Y-29850000D01*
X69300000Y-29850000D02*
X69150000Y-29850000D01*
X66750000Y-29850000D02*
X65350000Y-29850000D01*
X63175000Y-35075000D02*
X63175000Y-35800000D01*
X63175000Y-35800000D02*
X63600000Y-35800000D01*
X63600000Y-35800000D02*
X63600000Y-36525000D01*
X63600000Y-32200000D02*
X63600000Y-31475000D01*
D14*
X33250000Y-26150000D02*
X33250000Y-26450000D01*
X33250000Y-26450000D02*
X33750000Y-26450000D01*
X32375000Y-25860000D02*
X33540000Y-25860000D01*
X33540000Y-25860000D02*
X33540000Y-26160000D01*
X33540000Y-26160000D02*
X34610000Y-26160000D01*
X34610000Y-26160000D02*
X34610000Y-20440000D01*
X34610000Y-20440000D02*
X32375000Y-20440000D01*
X32375000Y-25860000D02*
X31210000Y-25860000D01*
X31210000Y-25860000D02*
X31210000Y-26160000D01*
X31210000Y-26160000D02*
X30140000Y-26160000D01*
X30140000Y-26160000D02*
X30140000Y-20440000D01*
X30140000Y-20440000D02*
X32375000Y-20440000D01*
D10*
X56848285Y-27449400D02*
X56943523Y-27497019D01*
X57086380Y-27497019D01*
X57229238Y-27449400D01*
X57324476Y-27354161D01*
X57372095Y-27258923D01*
X57419714Y-27068447D01*
X57419714Y-26925590D01*
X57372095Y-26735114D01*
X57324476Y-26639876D01*
X57229238Y-26544638D01*
X57086380Y-26497019D01*
X56991142Y-26497019D01*
X56848285Y-26544638D01*
X56800666Y-26592257D01*
X56800666Y-26925590D01*
X56991142Y-26925590D01*
X56372095Y-26497019D02*
X56372095Y-27497019D01*
X55991142Y-27497019D01*
X55895904Y-27449400D01*
X55848285Y-27401780D01*
X55800666Y-27306542D01*
X55800666Y-27163685D01*
X55848285Y-27068447D01*
X55895904Y-27020828D01*
X55991142Y-26973209D01*
X56372095Y-26973209D01*
X55419714Y-26544638D02*
X55276857Y-26497019D01*
X55038761Y-26497019D01*
X54943523Y-26544638D01*
X54895904Y-26592257D01*
X54848285Y-26687495D01*
X54848285Y-26782733D01*
X54895904Y-26877971D01*
X54943523Y-26925590D01*
X55038761Y-26973209D01*
X55229238Y-27020828D01*
X55324476Y-27068447D01*
X55372095Y-27116066D01*
X55419714Y-27211304D01*
X55419714Y-27306542D01*
X55372095Y-27401780D01*
X55324476Y-27449400D01*
X55229238Y-27497019D01*
X54991142Y-27497019D01*
X54848285Y-27449400D01*
X63553180Y-56851590D02*
X62553180Y-56851590D01*
X62648419Y-56423019D02*
X62600800Y-56375400D01*
X62553180Y-56280161D01*
X62553180Y-56042066D01*
X62600800Y-55946828D01*
X62648419Y-55899209D01*
X62743657Y-55851590D01*
X62838895Y-55851590D01*
X62981752Y-55899209D01*
X63553180Y-56470638D01*
X63553180Y-55851590D01*
X63457942Y-54851590D02*
X63505561Y-54899209D01*
X63553180Y-55042066D01*
X63553180Y-55137304D01*
X63505561Y-55280161D01*
X63410323Y-55375400D01*
X63315085Y-55423019D01*
X63124609Y-55470638D01*
X62981752Y-55470638D01*
X62791276Y-55423019D01*
X62696038Y-55375400D01*
X62600800Y-55280161D01*
X62553180Y-55137304D01*
X62553180Y-55042066D01*
X62600800Y-54899209D01*
X62648419Y-54851590D01*
X47282076Y-26497019D02*
X47615409Y-26973209D01*
X47853504Y-26497019D02*
X47853504Y-27497019D01*
X47472552Y-27497019D01*
X47377314Y-27449400D01*
X47329695Y-27401780D01*
X47282076Y-27306542D01*
X47282076Y-27163685D01*
X47329695Y-27068447D01*
X47377314Y-27020828D01*
X47472552Y-26973209D01*
X47853504Y-26973209D01*
X46282076Y-26592257D02*
X46329695Y-26544638D01*
X46472552Y-26497019D01*
X46567790Y-26497019D01*
X46710647Y-26544638D01*
X46805885Y-26639876D01*
X46853504Y-26735114D01*
X46901123Y-26925590D01*
X46901123Y-27068447D01*
X46853504Y-27258923D01*
X46805885Y-27354161D01*
X46710647Y-27449400D01*
X46567790Y-27497019D01*
X46472552Y-27497019D01*
X46329695Y-27449400D01*
X46282076Y-27401780D01*
X55094285Y-63454761D02*
X55237142Y-63502380D01*
X55475238Y-63502380D01*
X55570476Y-63454761D01*
X55618095Y-63407142D01*
X55665714Y-63311904D01*
X55665714Y-63216666D01*
X55618095Y-63121428D01*
X55570476Y-63073809D01*
X55475238Y-63026190D01*
X55284761Y-62978571D01*
X55189523Y-62930952D01*
X55141904Y-62883333D01*
X55094285Y-62788095D01*
X55094285Y-62692857D01*
X55141904Y-62597619D01*
X55189523Y-62550000D01*
X55284761Y-62502380D01*
X55522857Y-62502380D01*
X55665714Y-62550000D01*
X56427619Y-62978571D02*
X56570476Y-63026190D01*
X56618095Y-63073809D01*
X56665714Y-63169047D01*
X56665714Y-63311904D01*
X56618095Y-63407142D01*
X56570476Y-63454761D01*
X56475238Y-63502380D01*
X56094285Y-63502380D01*
X56094285Y-62502380D01*
X56427619Y-62502380D01*
X56522857Y-62550000D01*
X56570476Y-62597619D01*
X56618095Y-62692857D01*
X56618095Y-62788095D01*
X56570476Y-62883333D01*
X56522857Y-62930952D01*
X56427619Y-62978571D01*
X56094285Y-62978571D01*
X57094285Y-62502380D02*
X57094285Y-63311904D01*
X57141904Y-63407142D01*
X57189523Y-63454761D01*
X57284761Y-63502380D01*
X57475238Y-63502380D01*
X57570476Y-63454761D01*
X57618095Y-63407142D01*
X57665714Y-63311904D01*
X57665714Y-62502380D01*
X58094285Y-63454761D02*
X58237142Y-63502380D01*
X58475238Y-63502380D01*
X58570476Y-63454761D01*
X58618095Y-63407142D01*
X58665714Y-63311904D01*
X58665714Y-63216666D01*
X58618095Y-63121428D01*
X58570476Y-63073809D01*
X58475238Y-63026190D01*
X58284761Y-62978571D01*
X58189523Y-62930952D01*
X58141904Y-62883333D01*
X58094285Y-62788095D01*
X58094285Y-62692857D01*
X58141904Y-62597619D01*
X58189523Y-62550000D01*
X58284761Y-62502380D01*
X58522857Y-62502380D01*
X58665714Y-62550000D01*
X46283761Y-62495180D02*
X46855190Y-62495180D01*
X46569476Y-63495180D02*
X46569476Y-62495180D01*
X47188523Y-62971371D02*
X47521857Y-62971371D01*
X47664714Y-63495180D02*
X47188523Y-63495180D01*
X47188523Y-62495180D01*
X47664714Y-62495180D01*
X48569476Y-63495180D02*
X48093285Y-63495180D01*
X48093285Y-62495180D01*
X48902809Y-62971371D02*
X49236142Y-62971371D01*
X49379000Y-63495180D02*
X48902809Y-63495180D01*
X48902809Y-62495180D01*
X49379000Y-62495180D01*
X33713333Y-26725619D02*
X33713333Y-27725619D01*
X33332380Y-27725619D01*
X33237142Y-27678000D01*
X33189523Y-27630380D01*
X33141904Y-27535142D01*
X33141904Y-27392285D01*
X33189523Y-27297047D01*
X33237142Y-27249428D01*
X33332380Y-27201809D01*
X33713333Y-27201809D01*
X32808571Y-27725619D02*
X32570476Y-26725619D01*
X32380000Y-27439904D01*
X32189523Y-26725619D01*
X31951428Y-27725619D01*
X30999047Y-26725619D02*
X31332380Y-27201809D01*
X31570476Y-26725619D02*
X31570476Y-27725619D01*
X31189523Y-27725619D01*
X31094285Y-27678000D01*
X31046666Y-27630380D01*
X30999047Y-27535142D01*
X30999047Y-27392285D01*
X31046666Y-27297047D01*
X31094285Y-27249428D01*
X31189523Y-27201809D01*
X31570476Y-27201809D01*
M02*
