M48
; DRILL file {KiCad (5.1.5)-3} date 17/12/2019 15:15:25
; FORMAT={3:3/ absolute / metric / suppress leading zeros}
; #@! TF.CreationDate,2019-12-17T15:15:25+01:00
; #@! TF.GenerationSoftware,Kicad,Pcbnew,(5.1.5)-3
FMAT,2
METRIC,TZ
T1C0.400
T2C0.500
T3C0.650
T4C1.000
T5C1.200
T6C1.400
T7C3.200
T8C0.800
%
G90
G05
T1
X21590Y-27940
X21590Y-61976
X22860Y-27940
X22860Y-61976
X24130Y-27940
X24130Y-61976
X25400Y-27940
X26670Y-27940
X26670Y-62230
X27940Y-21590
X27940Y-22860
X27940Y-24130
X27940Y-25400
X27940Y-26670
X27940Y-27940
X27940Y-62230
X27940Y-63500
X27940Y-64770
X27940Y-66040
X27940Y-67310
X27940Y-68580
X29210Y-21590
X29210Y-22860
X29210Y-24130
X29210Y-25400
X29210Y-26670
X29210Y-27940
X29210Y-62230
X29942Y-63327
X30175Y-49759
X30734Y-21590
X30734Y-22606
X30734Y-23622
X31794Y-68802
X32410Y-49835
X32537Y-52959
X32757Y-39785
X33934Y-49835
X34036Y-21590
X34036Y-22606
X34036Y-23622
X35052Y-27051
X35052Y-28067
X35230Y-47828
X35306Y-29693
X35703Y-34585
X35916Y-32258
X36068Y-27051
X36068Y-28067
X36297Y-49225
X37267Y-28758
X37313Y-51410
X37490Y-55499
X37490Y-56769
X38303Y-41199
X39091Y-63348
X39141Y-60477
X39192Y-33401
X39262Y-68802
X39370Y-62230
X39802Y-39370
X39878Y-26035
X40310Y-51410
X40640Y-47244
X40691Y-35357
X40767Y-60554
X40818Y-22022
X40818Y-22962
X40818Y-23901
X41529Y-27051
X41679Y-37539
X41783Y-22022
X41783Y-22962
X41783Y-23901
X41834Y-33045
X41834Y-36449
X41910Y-34900
X41910Y-60884
X42545Y-26035
X42545Y-38252
X43155Y-54102
X43155Y-55169
X43586Y-38329
X43637Y-42316
X43663Y-32258
X44450Y-47549
X44450Y-48616
X44526Y-43231
X44577Y-57252
X44578Y-35941
X44628Y-45060
X44907Y-30505
X45237Y-32182
X45491Y-43231
X45822Y-39370
X46888Y-43739
X46965Y-39370
X47574Y-44475
X48336Y-45085
X48336Y-46101
X48336Y-47066
X48438Y-49835
X48463Y-31725
X48463Y-33274
X49124Y-53883
X49352Y-34620
X49403Y-50546
X49454Y-54915
X49733Y-42697
X51918Y-47142
X51918Y-48108
X51918Y-49098
X52070Y-29210
X52070Y-33020
X53111Y-29693
X53269Y-59761
X53340Y-33020
X53340Y-62230
X53492Y-54635
X53518Y-35585
X53746Y-39700
X53975Y-51740
X54483Y-34392
X54610Y-62230
X55524Y-45187
X56032Y-40767
X56515Y-45999
X57150Y-35535
X57455Y-59893
X58344Y-47320
X59487Y-48082
X59690Y-62230
X60046Y-30734
X60071Y-33401
X60960Y-21590
X60960Y-22860
X60960Y-24130
X61316Y-42393
X61976Y-64770
X61976Y-66040
X61976Y-67310
X61976Y-68580
X62230Y-21590
X62230Y-22860
X62230Y-25400
X62997Y-58704
X63500Y-60706
X63500Y-62357
X64770Y-60706
X64770Y-61976
X65151Y-44933
X65481Y-51359
X65938Y-33538
X66040Y-35560
X66040Y-60706
X66040Y-61976
X67310Y-60706
X67310Y-61976
X68580Y-31750
X68580Y-33020
X68580Y-34290
X68580Y-35560
X68580Y-60706
X68580Y-61976
X68834Y-50394
T2
X63600Y-24000
X64303Y-22303
X64303Y-25697
X66000Y-21600
X66000Y-26400
X67697Y-22303
X67697Y-25697
X68400Y-24000
X21600Y-24000
X22303Y-22303
X22303Y-25697
X24000Y-21600
X24000Y-26400
X25697Y-22303
X25697Y-25697
X26400Y-24000
X65051Y-54005
X65051Y-55255
X65051Y-56505
X65051Y-57755
X21600Y-66000
X22303Y-64303
X22303Y-67697
X24000Y-63600
X24000Y-68400
X25697Y-64303
X25697Y-67697
X26400Y-66000
X46000Y-65000
X47250Y-65000
X48500Y-65000
X49750Y-65000
X55000Y-65000
X56250Y-65000
X57500Y-65000
X58750Y-65000
X54250Y-25000
X55500Y-25000
X56750Y-25000
X58000Y-25000
X63600Y-66000
X64303Y-64303
X64303Y-67697
X66000Y-63600
X66000Y-68400
X67697Y-64303
X67697Y-67697
X68400Y-66000
X31750Y-25000
X33000Y-25000
X45234Y-25000
X46484Y-25000
X47734Y-25000
X48984Y-25000
T3
X31013Y-55169
X31013Y-56439
T4
X22098Y-30734
X22098Y-33274
X22098Y-35814
X22098Y-38354
X22098Y-40894
X22098Y-43434
X22098Y-45974
X22098Y-48514
X24638Y-30734
X24638Y-33274
X24638Y-35814
X24638Y-38354
X24638Y-40894
X24638Y-43434
X24638Y-45974
X24638Y-48514
X27178Y-30759
X27178Y-33299
X27178Y-35839
X27178Y-38379
X27178Y-40919
X27178Y-43459
X27178Y-45999
X27178Y-48539
T5
X67950Y-30125
X67950Y-37875
X25298Y-55016
X25298Y-58516
T6
X64150Y-30275
X64150Y-37725
T7
X66000Y-24000
X24000Y-24000
X24000Y-66000
X66000Y-66000
T8
X65200Y-31500
X65200Y-36500
T0
M30
