G04 #@! TF.GenerationSoftware,KiCad,Pcbnew,(5.1.5)-3*
G04 #@! TF.CreationDate,2019-12-17T15:15:26+01:00*
G04 #@! TF.ProjectId,HadesMicroJLCPCB,48616465-734d-4696-9372-6f4a4c435043,rev?*
G04 #@! TF.SameCoordinates,Original*
G04 #@! TF.FileFunction,Copper,L3,Inr*
G04 #@! TF.FilePolarity,Positive*
%FSLAX46Y46*%
G04 Gerber Fmt 4.6, Leading zero omitted, Abs format (unit mm)*
G04 Created by KiCad (PCBNEW (5.1.5)-3) date 2019-12-17 15:15:26*
%MOMM*%
%LPD*%
G04 APERTURE LIST*
%ADD10C,6.400000*%
%ADD11C,0.800000*%
%ADD12C,2.400000*%
%ADD13R,2.400000X2.400000*%
%ADD14C,0.100000*%
%ADD15O,0.800000X1.300000*%
%ADD16O,1.300000X0.800000*%
%ADD17R,1.000000X1.000000*%
%ADD18O,1.000000X1.000000*%
%ADD19R,1.700000X1.700000*%
%ADD20O,1.700000X1.700000*%
%ADD21C,2.000000*%
%ADD22C,1.800000*%
%ADD23C,0.600000*%
%ADD24C,1.500000*%
%ADD25C,0.254000*%
G04 APERTURE END LIST*
D10*
X66000000Y-66000000D03*
D11*
X68400000Y-66000000D03*
X67697056Y-67697056D03*
X66000000Y-68400000D03*
X64302944Y-67697056D03*
X63600000Y-66000000D03*
X64302944Y-64302944D03*
X66000000Y-63600000D03*
X67697056Y-64302944D03*
X25697056Y-64302944D03*
X24000000Y-63600000D03*
X22302944Y-64302944D03*
X21600000Y-66000000D03*
X22302944Y-67697056D03*
X24000000Y-68400000D03*
X25697056Y-67697056D03*
X26400000Y-66000000D03*
D10*
X24000000Y-66000000D03*
X24000000Y-24000000D03*
D11*
X26400000Y-24000000D03*
X25697056Y-25697056D03*
X24000000Y-26400000D03*
X22302944Y-25697056D03*
X21600000Y-24000000D03*
X22302944Y-22302944D03*
X24000000Y-21600000D03*
X25697056Y-22302944D03*
X67697056Y-22302944D03*
X66000000Y-21600000D03*
X64302944Y-22302944D03*
X63600000Y-24000000D03*
X64302944Y-25697056D03*
X66000000Y-26400000D03*
X67697056Y-25697056D03*
X68400000Y-24000000D03*
D10*
X66000000Y-24000000D03*
D12*
X25298400Y-58516400D03*
D13*
X25298400Y-55016400D03*
G04 #@! TA.AperFunction,ViaPad*
D14*
G36*
X46219603Y-64350963D02*
G01*
X46239018Y-64353843D01*
X46258057Y-64358612D01*
X46276537Y-64365224D01*
X46294279Y-64373616D01*
X46311114Y-64383706D01*
X46326879Y-64395398D01*
X46341421Y-64408579D01*
X46354602Y-64423121D01*
X46366294Y-64438886D01*
X46376384Y-64455721D01*
X46384776Y-64473463D01*
X46391388Y-64491943D01*
X46396157Y-64510982D01*
X46399037Y-64530397D01*
X46400000Y-64550000D01*
X46400000Y-65450000D01*
X46399037Y-65469603D01*
X46396157Y-65489018D01*
X46391388Y-65508057D01*
X46384776Y-65526537D01*
X46376384Y-65544279D01*
X46366294Y-65561114D01*
X46354602Y-65576879D01*
X46341421Y-65591421D01*
X46326879Y-65604602D01*
X46311114Y-65616294D01*
X46294279Y-65626384D01*
X46276537Y-65634776D01*
X46258057Y-65641388D01*
X46239018Y-65646157D01*
X46219603Y-65649037D01*
X46200000Y-65650000D01*
X45800000Y-65650000D01*
X45780397Y-65649037D01*
X45760982Y-65646157D01*
X45741943Y-65641388D01*
X45723463Y-65634776D01*
X45705721Y-65626384D01*
X45688886Y-65616294D01*
X45673121Y-65604602D01*
X45658579Y-65591421D01*
X45645398Y-65576879D01*
X45633706Y-65561114D01*
X45623616Y-65544279D01*
X45615224Y-65526537D01*
X45608612Y-65508057D01*
X45603843Y-65489018D01*
X45600963Y-65469603D01*
X45600000Y-65450000D01*
X45600000Y-64550000D01*
X45600963Y-64530397D01*
X45603843Y-64510982D01*
X45608612Y-64491943D01*
X45615224Y-64473463D01*
X45623616Y-64455721D01*
X45633706Y-64438886D01*
X45645398Y-64423121D01*
X45658579Y-64408579D01*
X45673121Y-64395398D01*
X45688886Y-64383706D01*
X45705721Y-64373616D01*
X45723463Y-64365224D01*
X45741943Y-64358612D01*
X45760982Y-64353843D01*
X45780397Y-64350963D01*
X45800000Y-64350000D01*
X46200000Y-64350000D01*
X46219603Y-64350963D01*
G37*
G04 #@! TD.AperFunction*
D15*
X47250000Y-65000000D03*
X48500000Y-65000000D03*
X49750000Y-65000000D03*
D16*
X65050800Y-54005400D03*
X65050800Y-55255400D03*
X65050800Y-56505400D03*
G04 #@! TA.AperFunction,ViaPad*
D14*
G36*
X65520403Y-57356363D02*
G01*
X65539818Y-57359243D01*
X65558857Y-57364012D01*
X65577337Y-57370624D01*
X65595079Y-57379016D01*
X65611914Y-57389106D01*
X65627679Y-57400798D01*
X65642221Y-57413979D01*
X65655402Y-57428521D01*
X65667094Y-57444286D01*
X65677184Y-57461121D01*
X65685576Y-57478863D01*
X65692188Y-57497343D01*
X65696957Y-57516382D01*
X65699837Y-57535797D01*
X65700800Y-57555400D01*
X65700800Y-57955400D01*
X65699837Y-57975003D01*
X65696957Y-57994418D01*
X65692188Y-58013457D01*
X65685576Y-58031937D01*
X65677184Y-58049679D01*
X65667094Y-58066514D01*
X65655402Y-58082279D01*
X65642221Y-58096821D01*
X65627679Y-58110002D01*
X65611914Y-58121694D01*
X65595079Y-58131784D01*
X65577337Y-58140176D01*
X65558857Y-58146788D01*
X65539818Y-58151557D01*
X65520403Y-58154437D01*
X65500800Y-58155400D01*
X64600800Y-58155400D01*
X64581197Y-58154437D01*
X64561782Y-58151557D01*
X64542743Y-58146788D01*
X64524263Y-58140176D01*
X64506521Y-58131784D01*
X64489686Y-58121694D01*
X64473921Y-58110002D01*
X64459379Y-58096821D01*
X64446198Y-58082279D01*
X64434506Y-58066514D01*
X64424416Y-58049679D01*
X64416024Y-58031937D01*
X64409412Y-58013457D01*
X64404643Y-57994418D01*
X64401763Y-57975003D01*
X64400800Y-57955400D01*
X64400800Y-57555400D01*
X64401763Y-57535797D01*
X64404643Y-57516382D01*
X64409412Y-57497343D01*
X64416024Y-57478863D01*
X64424416Y-57461121D01*
X64434506Y-57444286D01*
X64446198Y-57428521D01*
X64459379Y-57413979D01*
X64473921Y-57400798D01*
X64489686Y-57389106D01*
X64506521Y-57379016D01*
X64524263Y-57370624D01*
X64542743Y-57364012D01*
X64561782Y-57359243D01*
X64581197Y-57356363D01*
X64600800Y-57355400D01*
X65500800Y-57355400D01*
X65520403Y-57356363D01*
G37*
G04 #@! TD.AperFunction*
D17*
X31013400Y-56438800D03*
D18*
X31013400Y-55168800D03*
D19*
X24638000Y-48514000D03*
D20*
X22098000Y-48514000D03*
X24638000Y-45974000D03*
X22098000Y-45974000D03*
X24638000Y-43434000D03*
X22098000Y-43434000D03*
X24638000Y-40894000D03*
X22098000Y-40894000D03*
X24638000Y-38354000D03*
X22098000Y-38354000D03*
X24638000Y-35814000D03*
X22098000Y-35814000D03*
X24638000Y-33274000D03*
X22098000Y-33274000D03*
X24638000Y-30734000D03*
X22098000Y-30734000D03*
D19*
X27178000Y-30759400D03*
D20*
X27178000Y-33299400D03*
X27178000Y-35839400D03*
X27178000Y-38379400D03*
X27178000Y-40919400D03*
X27178000Y-43459400D03*
X27178000Y-45999400D03*
X27178000Y-48539400D03*
G04 #@! TA.AperFunction,ViaPad*
D14*
G36*
X49203603Y-24350963D02*
G01*
X49223018Y-24353843D01*
X49242057Y-24358612D01*
X49260537Y-24365224D01*
X49278279Y-24373616D01*
X49295114Y-24383706D01*
X49310879Y-24395398D01*
X49325421Y-24408579D01*
X49338602Y-24423121D01*
X49350294Y-24438886D01*
X49360384Y-24455721D01*
X49368776Y-24473463D01*
X49375388Y-24491943D01*
X49380157Y-24510982D01*
X49383037Y-24530397D01*
X49384000Y-24550000D01*
X49384000Y-25450000D01*
X49383037Y-25469603D01*
X49380157Y-25489018D01*
X49375388Y-25508057D01*
X49368776Y-25526537D01*
X49360384Y-25544279D01*
X49350294Y-25561114D01*
X49338602Y-25576879D01*
X49325421Y-25591421D01*
X49310879Y-25604602D01*
X49295114Y-25616294D01*
X49278279Y-25626384D01*
X49260537Y-25634776D01*
X49242057Y-25641388D01*
X49223018Y-25646157D01*
X49203603Y-25649037D01*
X49184000Y-25650000D01*
X48784000Y-25650000D01*
X48764397Y-25649037D01*
X48744982Y-25646157D01*
X48725943Y-25641388D01*
X48707463Y-25634776D01*
X48689721Y-25626384D01*
X48672886Y-25616294D01*
X48657121Y-25604602D01*
X48642579Y-25591421D01*
X48629398Y-25576879D01*
X48617706Y-25561114D01*
X48607616Y-25544279D01*
X48599224Y-25526537D01*
X48592612Y-25508057D01*
X48587843Y-25489018D01*
X48584963Y-25469603D01*
X48584000Y-25450000D01*
X48584000Y-24550000D01*
X48584963Y-24530397D01*
X48587843Y-24510982D01*
X48592612Y-24491943D01*
X48599224Y-24473463D01*
X48607616Y-24455721D01*
X48617706Y-24438886D01*
X48629398Y-24423121D01*
X48642579Y-24408579D01*
X48657121Y-24395398D01*
X48672886Y-24383706D01*
X48689721Y-24373616D01*
X48707463Y-24365224D01*
X48725943Y-24358612D01*
X48744982Y-24353843D01*
X48764397Y-24350963D01*
X48784000Y-24350000D01*
X49184000Y-24350000D01*
X49203603Y-24350963D01*
G37*
G04 #@! TD.AperFunction*
D15*
X47734000Y-25000000D03*
X46484000Y-25000000D03*
X45234000Y-25000000D03*
G04 #@! TA.AperFunction,ViaPad*
D14*
G36*
X55219603Y-64350963D02*
G01*
X55239018Y-64353843D01*
X55258057Y-64358612D01*
X55276537Y-64365224D01*
X55294279Y-64373616D01*
X55311114Y-64383706D01*
X55326879Y-64395398D01*
X55341421Y-64408579D01*
X55354602Y-64423121D01*
X55366294Y-64438886D01*
X55376384Y-64455721D01*
X55384776Y-64473463D01*
X55391388Y-64491943D01*
X55396157Y-64510982D01*
X55399037Y-64530397D01*
X55400000Y-64550000D01*
X55400000Y-65450000D01*
X55399037Y-65469603D01*
X55396157Y-65489018D01*
X55391388Y-65508057D01*
X55384776Y-65526537D01*
X55376384Y-65544279D01*
X55366294Y-65561114D01*
X55354602Y-65576879D01*
X55341421Y-65591421D01*
X55326879Y-65604602D01*
X55311114Y-65616294D01*
X55294279Y-65626384D01*
X55276537Y-65634776D01*
X55258057Y-65641388D01*
X55239018Y-65646157D01*
X55219603Y-65649037D01*
X55200000Y-65650000D01*
X54800000Y-65650000D01*
X54780397Y-65649037D01*
X54760982Y-65646157D01*
X54741943Y-65641388D01*
X54723463Y-65634776D01*
X54705721Y-65626384D01*
X54688886Y-65616294D01*
X54673121Y-65604602D01*
X54658579Y-65591421D01*
X54645398Y-65576879D01*
X54633706Y-65561114D01*
X54623616Y-65544279D01*
X54615224Y-65526537D01*
X54608612Y-65508057D01*
X54603843Y-65489018D01*
X54600963Y-65469603D01*
X54600000Y-65450000D01*
X54600000Y-64550000D01*
X54600963Y-64530397D01*
X54603843Y-64510982D01*
X54608612Y-64491943D01*
X54615224Y-64473463D01*
X54623616Y-64455721D01*
X54633706Y-64438886D01*
X54645398Y-64423121D01*
X54658579Y-64408579D01*
X54673121Y-64395398D01*
X54688886Y-64383706D01*
X54705721Y-64373616D01*
X54723463Y-64365224D01*
X54741943Y-64358612D01*
X54760982Y-64353843D01*
X54780397Y-64350963D01*
X54800000Y-64350000D01*
X55200000Y-64350000D01*
X55219603Y-64350963D01*
G37*
G04 #@! TD.AperFunction*
D15*
X56250000Y-65000000D03*
X57500000Y-65000000D03*
X58750000Y-65000000D03*
X54250000Y-25000000D03*
X55500000Y-25000000D03*
X56750000Y-25000000D03*
G04 #@! TA.AperFunction,ViaPad*
D14*
G36*
X58219603Y-24350963D02*
G01*
X58239018Y-24353843D01*
X58258057Y-24358612D01*
X58276537Y-24365224D01*
X58294279Y-24373616D01*
X58311114Y-24383706D01*
X58326879Y-24395398D01*
X58341421Y-24408579D01*
X58354602Y-24423121D01*
X58366294Y-24438886D01*
X58376384Y-24455721D01*
X58384776Y-24473463D01*
X58391388Y-24491943D01*
X58396157Y-24510982D01*
X58399037Y-24530397D01*
X58400000Y-24550000D01*
X58400000Y-25450000D01*
X58399037Y-25469603D01*
X58396157Y-25489018D01*
X58391388Y-25508057D01*
X58384776Y-25526537D01*
X58376384Y-25544279D01*
X58366294Y-25561114D01*
X58354602Y-25576879D01*
X58341421Y-25591421D01*
X58326879Y-25604602D01*
X58311114Y-25616294D01*
X58294279Y-25626384D01*
X58276537Y-25634776D01*
X58258057Y-25641388D01*
X58239018Y-25646157D01*
X58219603Y-25649037D01*
X58200000Y-25650000D01*
X57800000Y-25650000D01*
X57780397Y-25649037D01*
X57760982Y-25646157D01*
X57741943Y-25641388D01*
X57723463Y-25634776D01*
X57705721Y-25626384D01*
X57688886Y-25616294D01*
X57673121Y-25604602D01*
X57658579Y-25591421D01*
X57645398Y-25576879D01*
X57633706Y-25561114D01*
X57623616Y-25544279D01*
X57615224Y-25526537D01*
X57608612Y-25508057D01*
X57603843Y-25489018D01*
X57600963Y-25469603D01*
X57600000Y-25450000D01*
X57600000Y-24550000D01*
X57600963Y-24530397D01*
X57603843Y-24510982D01*
X57608612Y-24491943D01*
X57615224Y-24473463D01*
X57623616Y-24455721D01*
X57633706Y-24438886D01*
X57645398Y-24423121D01*
X57658579Y-24408579D01*
X57673121Y-24395398D01*
X57688886Y-24383706D01*
X57705721Y-24373616D01*
X57723463Y-24365224D01*
X57741943Y-24358612D01*
X57760982Y-24353843D01*
X57780397Y-24350963D01*
X57800000Y-24350000D01*
X58200000Y-24350000D01*
X58219603Y-24350963D01*
G37*
G04 #@! TD.AperFunction*
D21*
X64150000Y-37725000D03*
X64150000Y-30275000D03*
D22*
X67950000Y-37875000D03*
X67950000Y-30125000D03*
G04 #@! TA.AperFunction,ViaPad*
D14*
G36*
X33219603Y-24350963D02*
G01*
X33239018Y-24353843D01*
X33258057Y-24358612D01*
X33276537Y-24365224D01*
X33294279Y-24373616D01*
X33311114Y-24383706D01*
X33326879Y-24395398D01*
X33341421Y-24408579D01*
X33354602Y-24423121D01*
X33366294Y-24438886D01*
X33376384Y-24455721D01*
X33384776Y-24473463D01*
X33391388Y-24491943D01*
X33396157Y-24510982D01*
X33399037Y-24530397D01*
X33400000Y-24550000D01*
X33400000Y-25450000D01*
X33399037Y-25469603D01*
X33396157Y-25489018D01*
X33391388Y-25508057D01*
X33384776Y-25526537D01*
X33376384Y-25544279D01*
X33366294Y-25561114D01*
X33354602Y-25576879D01*
X33341421Y-25591421D01*
X33326879Y-25604602D01*
X33311114Y-25616294D01*
X33294279Y-25626384D01*
X33276537Y-25634776D01*
X33258057Y-25641388D01*
X33239018Y-25646157D01*
X33219603Y-25649037D01*
X33200000Y-25650000D01*
X32800000Y-25650000D01*
X32780397Y-25649037D01*
X32760982Y-25646157D01*
X32741943Y-25641388D01*
X32723463Y-25634776D01*
X32705721Y-25626384D01*
X32688886Y-25616294D01*
X32673121Y-25604602D01*
X32658579Y-25591421D01*
X32645398Y-25576879D01*
X32633706Y-25561114D01*
X32623616Y-25544279D01*
X32615224Y-25526537D01*
X32608612Y-25508057D01*
X32603843Y-25489018D01*
X32600963Y-25469603D01*
X32600000Y-25450000D01*
X32600000Y-24550000D01*
X32600963Y-24530397D01*
X32603843Y-24510982D01*
X32608612Y-24491943D01*
X32615224Y-24473463D01*
X32623616Y-24455721D01*
X32633706Y-24438886D01*
X32645398Y-24423121D01*
X32658579Y-24408579D01*
X32673121Y-24395398D01*
X32688886Y-24383706D01*
X32705721Y-24373616D01*
X32723463Y-24365224D01*
X32741943Y-24358612D01*
X32760982Y-24353843D01*
X32780397Y-24350963D01*
X32800000Y-24350000D01*
X33200000Y-24350000D01*
X33219603Y-24350963D01*
G37*
G04 #@! TD.AperFunction*
D15*
X31750000Y-25000000D03*
D11*
X56032400Y-40767000D03*
X45821600Y-39370000D03*
X43154600Y-54102000D03*
D23*
X60071000Y-33401000D03*
D11*
X63500000Y-62357000D03*
X62996800Y-58704200D03*
X35306000Y-29692600D03*
X30734000Y-21590000D03*
X30734000Y-22606000D03*
X30734000Y-23622000D03*
X34036000Y-23622000D03*
X34036000Y-22606000D03*
X34036000Y-21590000D03*
X36068000Y-27051000D03*
X35052000Y-27051000D03*
X35052000Y-28067000D03*
X36068000Y-28067000D03*
X42545000Y-26035000D03*
X41529000Y-27051000D03*
X35702600Y-34585000D03*
X32757400Y-39785000D03*
D23*
X38303200Y-41198800D03*
X35229800Y-47828200D03*
D11*
X39801800Y-39370000D03*
X40640000Y-47244000D03*
X65938400Y-33538400D03*
X60045600Y-30734000D03*
X53492400Y-54635400D03*
X49453800Y-54914800D03*
X57454800Y-59893200D03*
X43586400Y-38328600D03*
X39141400Y-60477400D03*
X41910000Y-60883800D03*
X44577000Y-57251600D03*
X32537400Y-52959000D03*
X37312600Y-51409600D03*
X45237400Y-32181800D03*
X27940000Y-21590000D03*
X29210000Y-21590000D03*
X27940000Y-22860000D03*
X27940000Y-24130000D03*
X29210000Y-22860000D03*
X29210000Y-24130000D03*
X29210000Y-25400000D03*
X27940000Y-25400000D03*
X27940000Y-26670000D03*
X29210000Y-26670000D03*
X29210000Y-27940000D03*
X27940000Y-27940000D03*
X26670000Y-27940000D03*
X25400000Y-27940000D03*
X24130000Y-27940000D03*
X22860000Y-27940000D03*
X21590000Y-27940000D03*
X52070000Y-29210000D03*
X26670000Y-62230000D03*
X27940000Y-62230000D03*
X29210000Y-62230000D03*
X27940000Y-63500000D03*
X27940000Y-64770000D03*
X27940000Y-66040000D03*
X27940000Y-67310000D03*
X27940000Y-68580000D03*
X21590000Y-61976000D03*
X22860000Y-61976000D03*
X53340000Y-62230000D03*
X54610000Y-62230000D03*
X59690000Y-62230000D03*
X61976000Y-64770000D03*
X61976000Y-66040000D03*
X61976000Y-67310000D03*
X64770000Y-61976000D03*
X67310000Y-61976000D03*
X68580000Y-61976000D03*
X68580000Y-60706000D03*
X67310000Y-60706000D03*
X66040000Y-60706000D03*
X64770000Y-60706000D03*
X63500000Y-60706000D03*
X60960000Y-21590000D03*
X62230000Y-21590000D03*
X62230000Y-22860000D03*
X60960000Y-22860000D03*
X60960000Y-24130000D03*
X62230000Y-25400000D03*
X68580000Y-31750000D03*
X68580000Y-33020000D03*
X68580000Y-34290000D03*
X66040000Y-35560000D03*
X68580000Y-35560000D03*
X52070000Y-33020000D03*
X53340000Y-33020000D03*
X39370000Y-62230000D03*
X66040000Y-61976000D03*
X61976000Y-68580000D03*
X24130000Y-61976000D03*
X53746400Y-39700200D03*
X42545000Y-38252400D03*
X43637200Y-42316400D03*
X43154600Y-55168800D03*
X53975000Y-51739800D03*
X36296600Y-49225200D03*
X40309800Y-51409600D03*
X37266600Y-28757600D03*
X41783000Y-23901400D03*
X40817800Y-22961600D03*
X41783000Y-22961600D03*
X39878000Y-26035000D03*
X40817800Y-22021800D03*
X41783000Y-22021800D03*
X68834000Y-50393600D03*
X61315600Y-42392600D03*
X40767000Y-60553600D03*
X39261800Y-68802000D03*
X31794200Y-68802000D03*
X53111400Y-29692600D03*
X53268600Y-59761400D03*
X43662600Y-32258000D03*
X40817800Y-23901400D03*
X30175200Y-49758600D03*
X57150000Y-35534600D03*
X51917600Y-47142400D03*
X65151000Y-44932600D03*
X51917600Y-48107600D03*
X58343800Y-47320200D03*
X51917600Y-49098200D03*
X59486800Y-48082200D03*
X33934400Y-49834800D03*
X44450000Y-47548800D03*
X32410400Y-49834800D03*
X44450000Y-48615600D03*
X65481200Y-51358800D03*
X49352200Y-34620200D03*
X48336200Y-46101000D03*
X46964600Y-39370000D03*
X49733200Y-42697400D03*
X41833800Y-36449000D03*
X44577800Y-35941000D03*
X40690800Y-35356800D03*
X41679201Y-37539001D03*
X48336200Y-47066200D03*
X48463200Y-31724600D03*
X44907200Y-30505400D03*
X41910000Y-34899600D03*
X48336200Y-45085000D03*
X48463200Y-33274000D03*
X41833800Y-33045400D03*
X48437800Y-49834800D03*
X49403000Y-50546000D03*
X49123600Y-53882600D03*
X39090600Y-63347600D03*
X56515000Y-45999400D03*
X54483000Y-34391600D03*
X55524400Y-45186600D03*
X53517800Y-35585400D03*
X47574200Y-44475400D03*
X46888400Y-43738800D03*
X29941800Y-63327000D03*
X44627800Y-45059600D03*
X45491400Y-43230800D03*
X39192200Y-33401000D03*
X37490400Y-55499000D03*
X37490400Y-56769000D03*
X44526200Y-43230800D03*
X35915600Y-32258000D03*
D24*
X24638000Y-54356000D02*
X25298400Y-55016400D01*
X24638000Y-48514000D02*
X24638000Y-54356000D01*
X24638000Y-48514000D02*
X24638000Y-45974000D01*
X24638000Y-45974000D02*
X24638000Y-43434000D01*
X24638000Y-43434000D02*
X24638000Y-40894000D01*
X24638000Y-40894000D02*
X24638000Y-38354000D01*
X24638000Y-38354000D02*
X24638000Y-35814000D01*
X24638000Y-35814000D02*
X24638000Y-33274000D01*
X24638000Y-33274000D02*
X24638000Y-30734000D01*
D25*
G36*
X60300226Y-20786063D02*
G01*
X60156063Y-20930226D01*
X60042795Y-21099744D01*
X59964774Y-21288102D01*
X59925000Y-21488061D01*
X59925000Y-21691939D01*
X59964774Y-21891898D01*
X60042795Y-22080256D01*
X60139510Y-22225000D01*
X60042795Y-22369744D01*
X59964774Y-22558102D01*
X59925000Y-22758061D01*
X59925000Y-22961939D01*
X59964774Y-23161898D01*
X60042795Y-23350256D01*
X60139510Y-23495000D01*
X60042795Y-23639744D01*
X59964774Y-23828102D01*
X59925000Y-24028061D01*
X59925000Y-24231939D01*
X59964774Y-24431898D01*
X60042795Y-24620256D01*
X60156063Y-24789774D01*
X60300226Y-24933937D01*
X60469744Y-25047205D01*
X60658102Y-25125226D01*
X60858061Y-25165000D01*
X61061939Y-25165000D01*
X61228039Y-25131961D01*
X61195000Y-25298061D01*
X61195000Y-25501939D01*
X61234774Y-25701898D01*
X61312795Y-25890256D01*
X61426063Y-26059774D01*
X61570226Y-26203937D01*
X61739744Y-26317205D01*
X61928102Y-26395226D01*
X62128061Y-26435000D01*
X62331939Y-26435000D01*
X62531898Y-26395226D01*
X62720256Y-26317205D01*
X62869403Y-26217548D01*
X63021161Y-26444670D01*
X63555330Y-26978839D01*
X64183446Y-27398533D01*
X64881372Y-27687623D01*
X65622285Y-27835000D01*
X66377715Y-27835000D01*
X67118628Y-27687623D01*
X67816554Y-27398533D01*
X68444670Y-26978839D01*
X68978839Y-26444670D01*
X69315000Y-25941570D01*
X69315000Y-29409254D01*
X69310299Y-29397905D01*
X69142312Y-29146495D01*
X68928505Y-28932688D01*
X68677095Y-28764701D01*
X68397743Y-28648989D01*
X68101184Y-28590000D01*
X67798816Y-28590000D01*
X67502257Y-28648989D01*
X67222905Y-28764701D01*
X66971495Y-28932688D01*
X66757688Y-29146495D01*
X66589701Y-29397905D01*
X66473989Y-29677257D01*
X66415000Y-29973816D01*
X66415000Y-30276184D01*
X66473989Y-30572743D01*
X66589701Y-30852095D01*
X66757688Y-31103505D01*
X66971495Y-31317312D01*
X67222905Y-31485299D01*
X67502257Y-31601011D01*
X67552376Y-31610980D01*
X67545000Y-31648061D01*
X67545000Y-31851939D01*
X67584774Y-32051898D01*
X67662795Y-32240256D01*
X67759510Y-32385000D01*
X67662795Y-32529744D01*
X67584774Y-32718102D01*
X67545000Y-32918061D01*
X67545000Y-33121939D01*
X67584774Y-33321898D01*
X67662795Y-33510256D01*
X67759510Y-33655000D01*
X67662795Y-33799744D01*
X67584774Y-33988102D01*
X67545000Y-34188061D01*
X67545000Y-34391939D01*
X67584774Y-34591898D01*
X67662795Y-34780256D01*
X67759510Y-34925000D01*
X67662795Y-35069744D01*
X67584774Y-35258102D01*
X67545000Y-35458061D01*
X67545000Y-35661939D01*
X67584774Y-35861898D01*
X67662795Y-36050256D01*
X67776063Y-36219774D01*
X67896289Y-36340000D01*
X67798816Y-36340000D01*
X67502257Y-36398989D01*
X67222905Y-36514701D01*
X66971495Y-36682688D01*
X66757688Y-36896495D01*
X66589701Y-37147905D01*
X66473989Y-37427257D01*
X66415000Y-37723816D01*
X66415000Y-38026184D01*
X66473989Y-38322743D01*
X66589701Y-38602095D01*
X66757688Y-38853505D01*
X66971495Y-39067312D01*
X67222905Y-39235299D01*
X67502257Y-39351011D01*
X67798816Y-39410000D01*
X68101184Y-39410000D01*
X68397743Y-39351011D01*
X68677095Y-39235299D01*
X68928505Y-39067312D01*
X69142312Y-38853505D01*
X69310299Y-38602095D01*
X69315000Y-38590745D01*
X69315001Y-59977290D01*
X69239774Y-59902063D01*
X69070256Y-59788795D01*
X68881898Y-59710774D01*
X68681939Y-59671000D01*
X68478061Y-59671000D01*
X68278102Y-59710774D01*
X68089744Y-59788795D01*
X67945000Y-59885510D01*
X67800256Y-59788795D01*
X67611898Y-59710774D01*
X67411939Y-59671000D01*
X67208061Y-59671000D01*
X67008102Y-59710774D01*
X66819744Y-59788795D01*
X66675000Y-59885510D01*
X66530256Y-59788795D01*
X66341898Y-59710774D01*
X66141939Y-59671000D01*
X65938061Y-59671000D01*
X65738102Y-59710774D01*
X65549744Y-59788795D01*
X65405000Y-59885510D01*
X65260256Y-59788795D01*
X65071898Y-59710774D01*
X64871939Y-59671000D01*
X64668061Y-59671000D01*
X64468102Y-59710774D01*
X64279744Y-59788795D01*
X64135000Y-59885510D01*
X63990256Y-59788795D01*
X63801898Y-59710774D01*
X63601939Y-59671000D01*
X63398061Y-59671000D01*
X63338927Y-59682762D01*
X63487056Y-59621405D01*
X63656574Y-59508137D01*
X63800737Y-59363974D01*
X63914005Y-59194456D01*
X63992026Y-59006098D01*
X64031800Y-58806139D01*
X64031800Y-58674032D01*
X64046306Y-58685937D01*
X64156620Y-58744902D01*
X64276318Y-58781212D01*
X64400800Y-58793472D01*
X64765050Y-58790400D01*
X64923800Y-58631650D01*
X64923800Y-57882400D01*
X65177800Y-57882400D01*
X65177800Y-58631650D01*
X65336550Y-58790400D01*
X65700800Y-58793472D01*
X65825282Y-58781212D01*
X65944980Y-58744902D01*
X66055294Y-58685937D01*
X66151985Y-58606585D01*
X66231337Y-58509894D01*
X66290302Y-58399580D01*
X66326612Y-58279882D01*
X66338872Y-58155400D01*
X66335800Y-58041150D01*
X66177050Y-57882400D01*
X65177800Y-57882400D01*
X64923800Y-57882400D01*
X63924550Y-57882400D01*
X63781631Y-58025320D01*
X63656574Y-57900263D01*
X63487056Y-57786995D01*
X63298698Y-57708974D01*
X63098739Y-57669200D01*
X62894861Y-57669200D01*
X62694902Y-57708974D01*
X62506544Y-57786995D01*
X62337026Y-57900263D01*
X62192863Y-58044426D01*
X62079595Y-58213944D01*
X62001574Y-58402302D01*
X61961800Y-58602261D01*
X61961800Y-58806139D01*
X62001574Y-59006098D01*
X62079595Y-59194456D01*
X62192863Y-59363974D01*
X62337026Y-59508137D01*
X62506544Y-59621405D01*
X62694902Y-59699426D01*
X62894861Y-59739200D01*
X63098739Y-59739200D01*
X63157873Y-59727438D01*
X63009744Y-59788795D01*
X62840226Y-59902063D01*
X62696063Y-60046226D01*
X62582795Y-60215744D01*
X62504774Y-60404102D01*
X62465000Y-60604061D01*
X62465000Y-60807939D01*
X62504774Y-61007898D01*
X62582795Y-61196256D01*
X62696063Y-61365774D01*
X62840226Y-61509937D01*
X62872497Y-61531500D01*
X62840226Y-61553063D01*
X62696063Y-61697226D01*
X62582795Y-61866744D01*
X62504774Y-62055102D01*
X62465000Y-62255061D01*
X62465000Y-62458939D01*
X62504774Y-62658898D01*
X62582795Y-62847256D01*
X62696063Y-63016774D01*
X62840226Y-63160937D01*
X63009744Y-63274205D01*
X63198102Y-63352226D01*
X63219924Y-63356567D01*
X63021161Y-63555330D01*
X62702280Y-64032569D01*
X62635774Y-63966063D01*
X62466256Y-63852795D01*
X62277898Y-63774774D01*
X62077939Y-63735000D01*
X61874061Y-63735000D01*
X61674102Y-63774774D01*
X61485744Y-63852795D01*
X61316226Y-63966063D01*
X61172063Y-64110226D01*
X61058795Y-64279744D01*
X60980774Y-64468102D01*
X60941000Y-64668061D01*
X60941000Y-64871939D01*
X60980774Y-65071898D01*
X61058795Y-65260256D01*
X61155510Y-65405000D01*
X61058795Y-65549744D01*
X60980774Y-65738102D01*
X60941000Y-65938061D01*
X60941000Y-66141939D01*
X60980774Y-66341898D01*
X61058795Y-66530256D01*
X61155510Y-66675000D01*
X61058795Y-66819744D01*
X60980774Y-67008102D01*
X60941000Y-67208061D01*
X60941000Y-67411939D01*
X60980774Y-67611898D01*
X61058795Y-67800256D01*
X61155510Y-67945000D01*
X61058795Y-68089744D01*
X60980774Y-68278102D01*
X60941000Y-68478061D01*
X60941000Y-68681939D01*
X60980774Y-68881898D01*
X61058795Y-69070256D01*
X61172063Y-69239774D01*
X61247289Y-69315000D01*
X28668711Y-69315000D01*
X28743937Y-69239774D01*
X28857205Y-69070256D01*
X28935226Y-68881898D01*
X28975000Y-68681939D01*
X28975000Y-68478061D01*
X28935226Y-68278102D01*
X28857205Y-68089744D01*
X28760490Y-67945000D01*
X28857205Y-67800256D01*
X28935226Y-67611898D01*
X28975000Y-67411939D01*
X28975000Y-67208061D01*
X28935226Y-67008102D01*
X28857205Y-66819744D01*
X28760490Y-66675000D01*
X28857205Y-66530256D01*
X28935226Y-66341898D01*
X28975000Y-66141939D01*
X28975000Y-65938061D01*
X28935226Y-65738102D01*
X28898733Y-65650000D01*
X44961928Y-65650000D01*
X44974188Y-65774482D01*
X45010498Y-65894180D01*
X45069463Y-66004494D01*
X45148815Y-66101185D01*
X45245506Y-66180537D01*
X45355820Y-66239502D01*
X45475518Y-66275812D01*
X45600000Y-66288072D01*
X45714250Y-66285000D01*
X45873000Y-66126250D01*
X45873000Y-65127000D01*
X45123750Y-65127000D01*
X44965000Y-65285750D01*
X44961928Y-65650000D01*
X28898733Y-65650000D01*
X28857205Y-65549744D01*
X28760490Y-65405000D01*
X28857205Y-65260256D01*
X28935226Y-65071898D01*
X28975000Y-64871939D01*
X28975000Y-64668061D01*
X28935226Y-64468102D01*
X28857205Y-64279744D01*
X28760490Y-64135000D01*
X28857205Y-63990256D01*
X28935226Y-63801898D01*
X28962155Y-63666514D01*
X29024595Y-63817256D01*
X29137863Y-63986774D01*
X29282026Y-64130937D01*
X29451544Y-64244205D01*
X29639902Y-64322226D01*
X29839861Y-64362000D01*
X30043739Y-64362000D01*
X30243698Y-64322226D01*
X30432056Y-64244205D01*
X30601574Y-64130937D01*
X30745737Y-63986774D01*
X30859005Y-63817256D01*
X30937026Y-63628898D01*
X30976800Y-63428939D01*
X30976800Y-63245661D01*
X38055600Y-63245661D01*
X38055600Y-63449539D01*
X38095374Y-63649498D01*
X38173395Y-63837856D01*
X38286663Y-64007374D01*
X38430826Y-64151537D01*
X38600344Y-64264805D01*
X38788702Y-64342826D01*
X38988661Y-64382600D01*
X39192539Y-64382600D01*
X39356431Y-64350000D01*
X44961928Y-64350000D01*
X44965000Y-64714250D01*
X45123750Y-64873000D01*
X45873000Y-64873000D01*
X45873000Y-63873750D01*
X46127000Y-63873750D01*
X46127000Y-64873000D01*
X46147000Y-64873000D01*
X46147000Y-65127000D01*
X46127000Y-65127000D01*
X46127000Y-66126250D01*
X46285750Y-66285000D01*
X46400000Y-66288072D01*
X46524482Y-66275812D01*
X46644180Y-66239502D01*
X46754494Y-66180537D01*
X46770594Y-66167324D01*
X46852008Y-66210841D01*
X47047106Y-66270024D01*
X47250000Y-66290007D01*
X47452895Y-66270024D01*
X47647993Y-66210841D01*
X47827797Y-66114734D01*
X47875001Y-66075995D01*
X47922204Y-66114734D01*
X48102008Y-66210841D01*
X48297106Y-66270024D01*
X48500000Y-66290007D01*
X48702895Y-66270024D01*
X48897993Y-66210841D01*
X49077797Y-66114734D01*
X49125001Y-66075995D01*
X49172204Y-66114734D01*
X49352008Y-66210841D01*
X49547106Y-66270024D01*
X49750000Y-66290007D01*
X49952895Y-66270024D01*
X50147993Y-66210841D01*
X50327797Y-66114734D01*
X50485396Y-65985396D01*
X50614734Y-65827797D01*
X50709767Y-65650000D01*
X53961928Y-65650000D01*
X53974188Y-65774482D01*
X54010498Y-65894180D01*
X54069463Y-66004494D01*
X54148815Y-66101185D01*
X54245506Y-66180537D01*
X54355820Y-66239502D01*
X54475518Y-66275812D01*
X54600000Y-66288072D01*
X54714250Y-66285000D01*
X54873000Y-66126250D01*
X54873000Y-65127000D01*
X54123750Y-65127000D01*
X53965000Y-65285750D01*
X53961928Y-65650000D01*
X50709767Y-65650000D01*
X50710841Y-65647992D01*
X50770024Y-65452894D01*
X50785000Y-65300837D01*
X50785000Y-64699162D01*
X50770024Y-64547105D01*
X50710841Y-64352007D01*
X50709769Y-64350000D01*
X53961928Y-64350000D01*
X53965000Y-64714250D01*
X54123750Y-64873000D01*
X54873000Y-64873000D01*
X54873000Y-63873750D01*
X55127000Y-63873750D01*
X55127000Y-64873000D01*
X55147000Y-64873000D01*
X55147000Y-65127000D01*
X55127000Y-65127000D01*
X55127000Y-66126250D01*
X55285750Y-66285000D01*
X55400000Y-66288072D01*
X55524482Y-66275812D01*
X55644180Y-66239502D01*
X55754494Y-66180537D01*
X55770594Y-66167324D01*
X55852008Y-66210841D01*
X56047106Y-66270024D01*
X56250000Y-66290007D01*
X56452895Y-66270024D01*
X56647993Y-66210841D01*
X56827797Y-66114734D01*
X56875001Y-66075995D01*
X56922204Y-66114734D01*
X57102008Y-66210841D01*
X57297106Y-66270024D01*
X57500000Y-66290007D01*
X57702895Y-66270024D01*
X57897993Y-66210841D01*
X58077797Y-66114734D01*
X58125001Y-66075995D01*
X58172204Y-66114734D01*
X58352008Y-66210841D01*
X58547106Y-66270024D01*
X58750000Y-66290007D01*
X58952895Y-66270024D01*
X59147993Y-66210841D01*
X59327797Y-66114734D01*
X59485396Y-65985396D01*
X59614734Y-65827797D01*
X59710841Y-65647992D01*
X59770024Y-65452894D01*
X59785000Y-65300837D01*
X59785000Y-64699162D01*
X59770024Y-64547105D01*
X59710841Y-64352007D01*
X59614734Y-64172203D01*
X59485396Y-64014604D01*
X59327797Y-63885266D01*
X59147992Y-63789159D01*
X58952894Y-63729976D01*
X58750000Y-63709993D01*
X58547105Y-63729976D01*
X58352007Y-63789159D01*
X58172203Y-63885266D01*
X58125000Y-63924004D01*
X58077797Y-63885266D01*
X57897992Y-63789159D01*
X57702894Y-63729976D01*
X57500000Y-63709993D01*
X57297105Y-63729976D01*
X57102007Y-63789159D01*
X56922203Y-63885266D01*
X56875000Y-63924004D01*
X56827797Y-63885266D01*
X56647992Y-63789159D01*
X56452894Y-63729976D01*
X56250000Y-63709993D01*
X56047105Y-63729976D01*
X55852007Y-63789159D01*
X55770593Y-63832675D01*
X55754494Y-63819463D01*
X55644180Y-63760498D01*
X55524482Y-63724188D01*
X55400000Y-63711928D01*
X55285750Y-63715000D01*
X55127000Y-63873750D01*
X54873000Y-63873750D01*
X54714250Y-63715000D01*
X54600000Y-63711928D01*
X54475518Y-63724188D01*
X54355820Y-63760498D01*
X54245506Y-63819463D01*
X54148815Y-63898815D01*
X54069463Y-63995506D01*
X54010498Y-64105820D01*
X53974188Y-64225518D01*
X53961928Y-64350000D01*
X50709769Y-64350000D01*
X50614734Y-64172203D01*
X50485396Y-64014604D01*
X50327797Y-63885266D01*
X50147992Y-63789159D01*
X49952894Y-63729976D01*
X49750000Y-63709993D01*
X49547105Y-63729976D01*
X49352007Y-63789159D01*
X49172203Y-63885266D01*
X49125000Y-63924004D01*
X49077797Y-63885266D01*
X48897992Y-63789159D01*
X48702894Y-63729976D01*
X48500000Y-63709993D01*
X48297105Y-63729976D01*
X48102007Y-63789159D01*
X47922203Y-63885266D01*
X47875000Y-63924004D01*
X47827797Y-63885266D01*
X47647992Y-63789159D01*
X47452894Y-63729976D01*
X47250000Y-63709993D01*
X47047105Y-63729976D01*
X46852007Y-63789159D01*
X46770593Y-63832675D01*
X46754494Y-63819463D01*
X46644180Y-63760498D01*
X46524482Y-63724188D01*
X46400000Y-63711928D01*
X46285750Y-63715000D01*
X46127000Y-63873750D01*
X45873000Y-63873750D01*
X45714250Y-63715000D01*
X45600000Y-63711928D01*
X45475518Y-63724188D01*
X45355820Y-63760498D01*
X45245506Y-63819463D01*
X45148815Y-63898815D01*
X45069463Y-63995506D01*
X45010498Y-64105820D01*
X44974188Y-64225518D01*
X44961928Y-64350000D01*
X39356431Y-64350000D01*
X39392498Y-64342826D01*
X39580856Y-64264805D01*
X39750374Y-64151537D01*
X39894537Y-64007374D01*
X40007805Y-63837856D01*
X40085826Y-63649498D01*
X40125600Y-63449539D01*
X40125600Y-63245661D01*
X40085826Y-63045702D01*
X40065963Y-62997748D01*
X40173937Y-62889774D01*
X40287205Y-62720256D01*
X40365226Y-62531898D01*
X40405000Y-62331939D01*
X40405000Y-62128061D01*
X52305000Y-62128061D01*
X52305000Y-62331939D01*
X52344774Y-62531898D01*
X52422795Y-62720256D01*
X52536063Y-62889774D01*
X52680226Y-63033937D01*
X52849744Y-63147205D01*
X53038102Y-63225226D01*
X53238061Y-63265000D01*
X53441939Y-63265000D01*
X53641898Y-63225226D01*
X53830256Y-63147205D01*
X53975000Y-63050490D01*
X54119744Y-63147205D01*
X54308102Y-63225226D01*
X54508061Y-63265000D01*
X54711939Y-63265000D01*
X54911898Y-63225226D01*
X55100256Y-63147205D01*
X55269774Y-63033937D01*
X55413937Y-62889774D01*
X55527205Y-62720256D01*
X55605226Y-62531898D01*
X55645000Y-62331939D01*
X55645000Y-62128061D01*
X58655000Y-62128061D01*
X58655000Y-62331939D01*
X58694774Y-62531898D01*
X58772795Y-62720256D01*
X58886063Y-62889774D01*
X59030226Y-63033937D01*
X59199744Y-63147205D01*
X59388102Y-63225226D01*
X59588061Y-63265000D01*
X59791939Y-63265000D01*
X59991898Y-63225226D01*
X60180256Y-63147205D01*
X60349774Y-63033937D01*
X60493937Y-62889774D01*
X60607205Y-62720256D01*
X60685226Y-62531898D01*
X60725000Y-62331939D01*
X60725000Y-62128061D01*
X60685226Y-61928102D01*
X60607205Y-61739744D01*
X60493937Y-61570226D01*
X60349774Y-61426063D01*
X60180256Y-61312795D01*
X59991898Y-61234774D01*
X59791939Y-61195000D01*
X59588061Y-61195000D01*
X59388102Y-61234774D01*
X59199744Y-61312795D01*
X59030226Y-61426063D01*
X58886063Y-61570226D01*
X58772795Y-61739744D01*
X58694774Y-61928102D01*
X58655000Y-62128061D01*
X55645000Y-62128061D01*
X55605226Y-61928102D01*
X55527205Y-61739744D01*
X55413937Y-61570226D01*
X55269774Y-61426063D01*
X55100256Y-61312795D01*
X54911898Y-61234774D01*
X54711939Y-61195000D01*
X54508061Y-61195000D01*
X54308102Y-61234774D01*
X54119744Y-61312795D01*
X53975000Y-61409510D01*
X53830256Y-61312795D01*
X53641898Y-61234774D01*
X53441939Y-61195000D01*
X53238061Y-61195000D01*
X53038102Y-61234774D01*
X52849744Y-61312795D01*
X52680226Y-61426063D01*
X52536063Y-61570226D01*
X52422795Y-61739744D01*
X52344774Y-61928102D01*
X52305000Y-62128061D01*
X40405000Y-62128061D01*
X40365226Y-61928102D01*
X40287205Y-61739744D01*
X40173937Y-61570226D01*
X40029774Y-61426063D01*
X39860256Y-61312795D01*
X39794720Y-61285649D01*
X39801174Y-61281337D01*
X39945337Y-61137174D01*
X40058605Y-60967656D01*
X40135564Y-60781861D01*
X40875000Y-60781861D01*
X40875000Y-60985739D01*
X40914774Y-61185698D01*
X40992795Y-61374056D01*
X41106063Y-61543574D01*
X41250226Y-61687737D01*
X41419744Y-61801005D01*
X41608102Y-61879026D01*
X41808061Y-61918800D01*
X42011939Y-61918800D01*
X42211898Y-61879026D01*
X42400256Y-61801005D01*
X42569774Y-61687737D01*
X42713937Y-61543574D01*
X42827205Y-61374056D01*
X42905226Y-61185698D01*
X42945000Y-60985739D01*
X42945000Y-60781861D01*
X42905226Y-60581902D01*
X42827205Y-60393544D01*
X42713937Y-60224026D01*
X42569774Y-60079863D01*
X42400256Y-59966595D01*
X42211898Y-59888574D01*
X42011939Y-59848800D01*
X41808061Y-59848800D01*
X41608102Y-59888574D01*
X41419744Y-59966595D01*
X41250226Y-60079863D01*
X41106063Y-60224026D01*
X40992795Y-60393544D01*
X40914774Y-60581902D01*
X40875000Y-60781861D01*
X40135564Y-60781861D01*
X40136626Y-60779298D01*
X40176400Y-60579339D01*
X40176400Y-60375461D01*
X40136626Y-60175502D01*
X40058605Y-59987144D01*
X39945337Y-59817626D01*
X39918972Y-59791261D01*
X56419800Y-59791261D01*
X56419800Y-59995139D01*
X56459574Y-60195098D01*
X56537595Y-60383456D01*
X56650863Y-60552974D01*
X56795026Y-60697137D01*
X56964544Y-60810405D01*
X57152902Y-60888426D01*
X57352861Y-60928200D01*
X57556739Y-60928200D01*
X57756698Y-60888426D01*
X57945056Y-60810405D01*
X58114574Y-60697137D01*
X58258737Y-60552974D01*
X58372005Y-60383456D01*
X58450026Y-60195098D01*
X58489800Y-59995139D01*
X58489800Y-59791261D01*
X58450026Y-59591302D01*
X58372005Y-59402944D01*
X58258737Y-59233426D01*
X58114574Y-59089263D01*
X57945056Y-58975995D01*
X57756698Y-58897974D01*
X57556739Y-58858200D01*
X57352861Y-58858200D01*
X57152902Y-58897974D01*
X56964544Y-58975995D01*
X56795026Y-59089263D01*
X56650863Y-59233426D01*
X56537595Y-59402944D01*
X56459574Y-59591302D01*
X56419800Y-59791261D01*
X39918972Y-59791261D01*
X39801174Y-59673463D01*
X39631656Y-59560195D01*
X39443298Y-59482174D01*
X39243339Y-59442400D01*
X39039461Y-59442400D01*
X38839502Y-59482174D01*
X38651144Y-59560195D01*
X38481626Y-59673463D01*
X38337463Y-59817626D01*
X38224195Y-59987144D01*
X38146174Y-60175502D01*
X38106400Y-60375461D01*
X38106400Y-60579339D01*
X38146174Y-60779298D01*
X38224195Y-60967656D01*
X38337463Y-61137174D01*
X38481626Y-61281337D01*
X38651144Y-61394605D01*
X38716680Y-61421751D01*
X38710226Y-61426063D01*
X38566063Y-61570226D01*
X38452795Y-61739744D01*
X38374774Y-61928102D01*
X38335000Y-62128061D01*
X38335000Y-62331939D01*
X38374774Y-62531898D01*
X38394637Y-62579852D01*
X38286663Y-62687826D01*
X38173395Y-62857344D01*
X38095374Y-63045702D01*
X38055600Y-63245661D01*
X30976800Y-63245661D01*
X30976800Y-63225061D01*
X30937026Y-63025102D01*
X30859005Y-62836744D01*
X30745737Y-62667226D01*
X30601574Y-62523063D01*
X30432056Y-62409795D01*
X30244931Y-62332285D01*
X30245000Y-62331939D01*
X30245000Y-62128061D01*
X30205226Y-61928102D01*
X30127205Y-61739744D01*
X30013937Y-61570226D01*
X29869774Y-61426063D01*
X29700256Y-61312795D01*
X29511898Y-61234774D01*
X29311939Y-61195000D01*
X29108061Y-61195000D01*
X28908102Y-61234774D01*
X28719744Y-61312795D01*
X28575000Y-61409510D01*
X28430256Y-61312795D01*
X28241898Y-61234774D01*
X28041939Y-61195000D01*
X27838061Y-61195000D01*
X27638102Y-61234774D01*
X27449744Y-61312795D01*
X27305000Y-61409510D01*
X27160256Y-61312795D01*
X26971898Y-61234774D01*
X26771939Y-61195000D01*
X26568061Y-61195000D01*
X26368102Y-61234774D01*
X26179744Y-61312795D01*
X26010226Y-61426063D01*
X25866063Y-61570226D01*
X25752795Y-61739744D01*
X25674774Y-61928102D01*
X25635000Y-62128061D01*
X25635000Y-62331939D01*
X25674774Y-62531898D01*
X25680195Y-62544985D01*
X25118628Y-62312377D01*
X25111529Y-62310965D01*
X25125226Y-62277898D01*
X25165000Y-62077939D01*
X25165000Y-61874061D01*
X25125226Y-61674102D01*
X25047205Y-61485744D01*
X24933937Y-61316226D01*
X24789774Y-61172063D01*
X24620256Y-61058795D01*
X24431898Y-60980774D01*
X24231939Y-60941000D01*
X24028061Y-60941000D01*
X23828102Y-60980774D01*
X23639744Y-61058795D01*
X23495000Y-61155510D01*
X23350256Y-61058795D01*
X23161898Y-60980774D01*
X22961939Y-60941000D01*
X22758061Y-60941000D01*
X22558102Y-60980774D01*
X22369744Y-61058795D01*
X22225000Y-61155510D01*
X22080256Y-61058795D01*
X21891898Y-60980774D01*
X21691939Y-60941000D01*
X21488061Y-60941000D01*
X21288102Y-60980774D01*
X21099744Y-61058795D01*
X20930226Y-61172063D01*
X20786063Y-61316226D01*
X20685000Y-61467478D01*
X20685000Y-48983207D01*
X20782010Y-49217411D01*
X20944525Y-49460632D01*
X21151368Y-49667475D01*
X21394589Y-49829990D01*
X21664842Y-49941932D01*
X21951740Y-49999000D01*
X22244260Y-49999000D01*
X22531158Y-49941932D01*
X22801411Y-49829990D01*
X23044632Y-49667475D01*
X23176487Y-49535620D01*
X23198498Y-49608180D01*
X23253000Y-49710145D01*
X23253001Y-54287961D01*
X23246300Y-54356000D01*
X23273040Y-54627507D01*
X23352236Y-54888580D01*
X23460328Y-55090805D01*
X23460328Y-56216400D01*
X23472588Y-56340882D01*
X23508898Y-56460580D01*
X23567863Y-56570894D01*
X23647215Y-56667585D01*
X23743906Y-56746937D01*
X23854220Y-56805902D01*
X23973918Y-56842212D01*
X24098400Y-56854472D01*
X24515562Y-56854472D01*
X24429201Y-56890244D01*
X24128656Y-57091062D01*
X23873062Y-57346656D01*
X23672244Y-57647201D01*
X23533918Y-57981150D01*
X23463400Y-58335668D01*
X23463400Y-58697132D01*
X23533918Y-59051650D01*
X23672244Y-59385599D01*
X23873062Y-59686144D01*
X24128656Y-59941738D01*
X24429201Y-60142556D01*
X24763150Y-60280882D01*
X25117668Y-60351400D01*
X25479132Y-60351400D01*
X25833650Y-60280882D01*
X26167599Y-60142556D01*
X26468144Y-59941738D01*
X26723738Y-59686144D01*
X26924556Y-59385599D01*
X27062882Y-59051650D01*
X27133400Y-58697132D01*
X27133400Y-58335668D01*
X27062882Y-57981150D01*
X26924556Y-57647201D01*
X26723738Y-57346656D01*
X26468144Y-57091062D01*
X26167599Y-56890244D01*
X26081238Y-56854472D01*
X26498400Y-56854472D01*
X26622882Y-56842212D01*
X26742580Y-56805902D01*
X26852894Y-56746937D01*
X26949585Y-56667585D01*
X27028937Y-56570894D01*
X27087902Y-56460580D01*
X27124212Y-56340882D01*
X27136472Y-56216400D01*
X27136472Y-55938800D01*
X29875328Y-55938800D01*
X29875328Y-56938800D01*
X29887588Y-57063282D01*
X29923898Y-57182980D01*
X29982863Y-57293294D01*
X30062215Y-57389985D01*
X30158906Y-57469337D01*
X30269220Y-57528302D01*
X30388918Y-57564612D01*
X30513400Y-57576872D01*
X31513400Y-57576872D01*
X31637882Y-57564612D01*
X31757580Y-57528302D01*
X31867894Y-57469337D01*
X31964585Y-57389985D01*
X32043937Y-57293294D01*
X32102902Y-57182980D01*
X32139212Y-57063282D01*
X32151472Y-56938800D01*
X32151472Y-55938800D01*
X32139212Y-55814318D01*
X32102902Y-55694620D01*
X32058512Y-55611574D01*
X32104783Y-55499867D01*
X32125232Y-55397061D01*
X36455400Y-55397061D01*
X36455400Y-55600939D01*
X36495174Y-55800898D01*
X36573195Y-55989256D01*
X36669910Y-56134000D01*
X36573195Y-56278744D01*
X36495174Y-56467102D01*
X36455400Y-56667061D01*
X36455400Y-56870939D01*
X36495174Y-57070898D01*
X36573195Y-57259256D01*
X36686463Y-57428774D01*
X36830626Y-57572937D01*
X37000144Y-57686205D01*
X37188502Y-57764226D01*
X37388461Y-57804000D01*
X37592339Y-57804000D01*
X37792298Y-57764226D01*
X37980656Y-57686205D01*
X38150174Y-57572937D01*
X38294337Y-57428774D01*
X38407605Y-57259256D01*
X38453001Y-57149661D01*
X43542000Y-57149661D01*
X43542000Y-57353539D01*
X43581774Y-57553498D01*
X43659795Y-57741856D01*
X43773063Y-57911374D01*
X43917226Y-58055537D01*
X44086744Y-58168805D01*
X44275102Y-58246826D01*
X44475061Y-58286600D01*
X44678939Y-58286600D01*
X44878898Y-58246826D01*
X45067256Y-58168805D01*
X45236774Y-58055537D01*
X45380937Y-57911374D01*
X45494205Y-57741856D01*
X45572226Y-57553498D01*
X45612000Y-57353539D01*
X45612000Y-57149661D01*
X45572226Y-56949702D01*
X45494205Y-56761344D01*
X45380937Y-56591826D01*
X45236774Y-56447663D01*
X45067256Y-56334395D01*
X44878898Y-56256374D01*
X44678939Y-56216600D01*
X44475061Y-56216600D01*
X44275102Y-56256374D01*
X44086744Y-56334395D01*
X43917226Y-56447663D01*
X43773063Y-56591826D01*
X43659795Y-56761344D01*
X43581774Y-56949702D01*
X43542000Y-57149661D01*
X38453001Y-57149661D01*
X38485626Y-57070898D01*
X38525400Y-56870939D01*
X38525400Y-56667061D01*
X38485626Y-56467102D01*
X38407605Y-56278744D01*
X38310890Y-56134000D01*
X38407605Y-55989256D01*
X38485626Y-55800898D01*
X38525400Y-55600939D01*
X38525400Y-55397061D01*
X38485626Y-55197102D01*
X38407605Y-55008744D01*
X38294337Y-54839226D01*
X38150174Y-54695063D01*
X37980656Y-54581795D01*
X37792298Y-54503774D01*
X37592339Y-54464000D01*
X37388461Y-54464000D01*
X37188502Y-54503774D01*
X37000144Y-54581795D01*
X36830626Y-54695063D01*
X36686463Y-54839226D01*
X36573195Y-55008744D01*
X36495174Y-55197102D01*
X36455400Y-55397061D01*
X32125232Y-55397061D01*
X32148400Y-55280588D01*
X32148400Y-55057012D01*
X32104783Y-54837733D01*
X32019224Y-54631176D01*
X31895012Y-54445280D01*
X31736920Y-54287188D01*
X31551024Y-54162976D01*
X31344467Y-54077417D01*
X31125188Y-54033800D01*
X30901612Y-54033800D01*
X30682333Y-54077417D01*
X30475776Y-54162976D01*
X30289880Y-54287188D01*
X30131788Y-54445280D01*
X30007576Y-54631176D01*
X29922017Y-54837733D01*
X29878400Y-55057012D01*
X29878400Y-55280588D01*
X29922017Y-55499867D01*
X29968288Y-55611574D01*
X29923898Y-55694620D01*
X29887588Y-55814318D01*
X29875328Y-55938800D01*
X27136472Y-55938800D01*
X27136472Y-54000061D01*
X42119600Y-54000061D01*
X42119600Y-54203939D01*
X42159374Y-54403898D01*
X42237395Y-54592256D01*
X42350663Y-54761774D01*
X42494826Y-54905937D01*
X42664344Y-55019205D01*
X42852702Y-55097226D01*
X43052661Y-55137000D01*
X43256539Y-55137000D01*
X43456498Y-55097226D01*
X43644856Y-55019205D01*
X43814374Y-54905937D01*
X43958537Y-54761774D01*
X44071805Y-54592256D01*
X44149826Y-54403898D01*
X44189600Y-54203939D01*
X44189600Y-54000061D01*
X44149826Y-53800102D01*
X44141774Y-53780661D01*
X48088600Y-53780661D01*
X48088600Y-53984539D01*
X48128374Y-54184498D01*
X48206395Y-54372856D01*
X48319663Y-54542374D01*
X48447229Y-54669940D01*
X48418800Y-54812861D01*
X48418800Y-55016739D01*
X48458574Y-55216698D01*
X48536595Y-55405056D01*
X48649863Y-55574574D01*
X48794026Y-55718737D01*
X48963544Y-55832005D01*
X49151902Y-55910026D01*
X49351861Y-55949800D01*
X49555739Y-55949800D01*
X49755698Y-55910026D01*
X49944056Y-55832005D01*
X50113574Y-55718737D01*
X50257737Y-55574574D01*
X50371005Y-55405056D01*
X50449026Y-55216698D01*
X50488800Y-55016739D01*
X50488800Y-54812861D01*
X50449026Y-54612902D01*
X50416121Y-54533461D01*
X52457400Y-54533461D01*
X52457400Y-54737339D01*
X52497174Y-54937298D01*
X52575195Y-55125656D01*
X52688463Y-55295174D01*
X52832626Y-55439337D01*
X53002144Y-55552605D01*
X53190502Y-55630626D01*
X53390461Y-55670400D01*
X53594339Y-55670400D01*
X53794298Y-55630626D01*
X53982656Y-55552605D01*
X54152174Y-55439337D01*
X54296337Y-55295174D01*
X54409605Y-55125656D01*
X54487626Y-54937298D01*
X54527400Y-54737339D01*
X54527400Y-54533461D01*
X54487626Y-54333502D01*
X54409605Y-54145144D01*
X54316232Y-54005400D01*
X63760793Y-54005400D01*
X63780776Y-54208295D01*
X63839959Y-54403393D01*
X63936066Y-54583197D01*
X63974804Y-54630400D01*
X63936066Y-54677603D01*
X63839959Y-54857407D01*
X63780776Y-55052505D01*
X63760793Y-55255400D01*
X63780776Y-55458295D01*
X63839959Y-55653393D01*
X63936066Y-55833197D01*
X63974804Y-55880400D01*
X63936066Y-55927603D01*
X63839959Y-56107407D01*
X63780776Y-56302505D01*
X63760793Y-56505400D01*
X63780776Y-56708295D01*
X63839959Y-56903393D01*
X63883475Y-56984807D01*
X63870263Y-57000906D01*
X63811298Y-57111220D01*
X63774988Y-57230918D01*
X63762728Y-57355400D01*
X63765800Y-57469650D01*
X63924550Y-57628400D01*
X64923800Y-57628400D01*
X64923800Y-57608400D01*
X65177800Y-57608400D01*
X65177800Y-57628400D01*
X66177050Y-57628400D01*
X66335800Y-57469650D01*
X66338872Y-57355400D01*
X66326612Y-57230918D01*
X66290302Y-57111220D01*
X66231337Y-57000906D01*
X66218125Y-56984807D01*
X66261641Y-56903393D01*
X66320824Y-56708295D01*
X66340807Y-56505400D01*
X66320824Y-56302505D01*
X66261641Y-56107407D01*
X66165534Y-55927603D01*
X66126796Y-55880400D01*
X66165534Y-55833197D01*
X66261641Y-55653393D01*
X66320824Y-55458295D01*
X66340807Y-55255400D01*
X66320824Y-55052505D01*
X66261641Y-54857407D01*
X66165534Y-54677603D01*
X66126796Y-54630400D01*
X66165534Y-54583197D01*
X66261641Y-54403393D01*
X66320824Y-54208295D01*
X66340807Y-54005400D01*
X66320824Y-53802505D01*
X66261641Y-53607407D01*
X66165534Y-53427603D01*
X66036196Y-53270004D01*
X65878597Y-53140666D01*
X65698793Y-53044559D01*
X65503695Y-52985376D01*
X65351638Y-52970400D01*
X64749962Y-52970400D01*
X64597905Y-52985376D01*
X64402807Y-53044559D01*
X64223003Y-53140666D01*
X64065404Y-53270004D01*
X63936066Y-53427603D01*
X63839959Y-53607407D01*
X63780776Y-53802505D01*
X63760793Y-54005400D01*
X54316232Y-54005400D01*
X54296337Y-53975626D01*
X54152174Y-53831463D01*
X53982656Y-53718195D01*
X53794298Y-53640174D01*
X53594339Y-53600400D01*
X53390461Y-53600400D01*
X53190502Y-53640174D01*
X53002144Y-53718195D01*
X52832626Y-53831463D01*
X52688463Y-53975626D01*
X52575195Y-54145144D01*
X52497174Y-54333502D01*
X52457400Y-54533461D01*
X50416121Y-54533461D01*
X50371005Y-54424544D01*
X50257737Y-54255026D01*
X50130171Y-54127460D01*
X50158600Y-53984539D01*
X50158600Y-53780661D01*
X50118826Y-53580702D01*
X50040805Y-53392344D01*
X49927537Y-53222826D01*
X49783374Y-53078663D01*
X49613856Y-52965395D01*
X49425498Y-52887374D01*
X49225539Y-52847600D01*
X49021661Y-52847600D01*
X48821702Y-52887374D01*
X48633344Y-52965395D01*
X48463826Y-53078663D01*
X48319663Y-53222826D01*
X48206395Y-53392344D01*
X48128374Y-53580702D01*
X48088600Y-53780661D01*
X44141774Y-53780661D01*
X44071805Y-53611744D01*
X43958537Y-53442226D01*
X43814374Y-53298063D01*
X43644856Y-53184795D01*
X43456498Y-53106774D01*
X43256539Y-53067000D01*
X43052661Y-53067000D01*
X42852702Y-53106774D01*
X42664344Y-53184795D01*
X42494826Y-53298063D01*
X42350663Y-53442226D01*
X42237395Y-53611744D01*
X42159374Y-53800102D01*
X42119600Y-54000061D01*
X27136472Y-54000061D01*
X27136472Y-53816400D01*
X27124212Y-53691918D01*
X27087902Y-53572220D01*
X27028937Y-53461906D01*
X26949585Y-53365215D01*
X26852894Y-53285863D01*
X26742580Y-53226898D01*
X26622882Y-53190588D01*
X26498400Y-53178328D01*
X26023000Y-53178328D01*
X26023000Y-52857061D01*
X31502400Y-52857061D01*
X31502400Y-53060939D01*
X31542174Y-53260898D01*
X31620195Y-53449256D01*
X31733463Y-53618774D01*
X31877626Y-53762937D01*
X32047144Y-53876205D01*
X32235502Y-53954226D01*
X32435461Y-53994000D01*
X32639339Y-53994000D01*
X32839298Y-53954226D01*
X33027656Y-53876205D01*
X33197174Y-53762937D01*
X33341337Y-53618774D01*
X33454605Y-53449256D01*
X33532626Y-53260898D01*
X33572400Y-53060939D01*
X33572400Y-52857061D01*
X33532626Y-52657102D01*
X33454605Y-52468744D01*
X33341337Y-52299226D01*
X33197174Y-52155063D01*
X33027656Y-52041795D01*
X32839298Y-51963774D01*
X32639339Y-51924000D01*
X32435461Y-51924000D01*
X32235502Y-51963774D01*
X32047144Y-52041795D01*
X31877626Y-52155063D01*
X31733463Y-52299226D01*
X31620195Y-52468744D01*
X31542174Y-52657102D01*
X31502400Y-52857061D01*
X26023000Y-52857061D01*
X26023000Y-51307661D01*
X36277600Y-51307661D01*
X36277600Y-51511539D01*
X36317374Y-51711498D01*
X36395395Y-51899856D01*
X36508663Y-52069374D01*
X36652826Y-52213537D01*
X36822344Y-52326805D01*
X37010702Y-52404826D01*
X37210661Y-52444600D01*
X37414539Y-52444600D01*
X37614498Y-52404826D01*
X37802856Y-52326805D01*
X37972374Y-52213537D01*
X38116537Y-52069374D01*
X38229805Y-51899856D01*
X38307826Y-51711498D01*
X38347600Y-51511539D01*
X38347600Y-51307661D01*
X38307826Y-51107702D01*
X38229805Y-50919344D01*
X38116537Y-50749826D01*
X37972374Y-50605663D01*
X37802856Y-50492395D01*
X37614498Y-50414374D01*
X37414539Y-50374600D01*
X37210661Y-50374600D01*
X37010702Y-50414374D01*
X36822344Y-50492395D01*
X36652826Y-50605663D01*
X36508663Y-50749826D01*
X36395395Y-50919344D01*
X36317374Y-51107702D01*
X36277600Y-51307661D01*
X26023000Y-51307661D01*
X26023000Y-49710144D01*
X26077502Y-49608180D01*
X26093601Y-49555108D01*
X26231368Y-49692875D01*
X26474589Y-49855390D01*
X26744842Y-49967332D01*
X27031740Y-50024400D01*
X27324260Y-50024400D01*
X27611158Y-49967332D01*
X27881411Y-49855390D01*
X28124632Y-49692875D01*
X28160846Y-49656661D01*
X29140200Y-49656661D01*
X29140200Y-49860539D01*
X29179974Y-50060498D01*
X29257995Y-50248856D01*
X29371263Y-50418374D01*
X29515426Y-50562537D01*
X29684944Y-50675805D01*
X29873302Y-50753826D01*
X30073261Y-50793600D01*
X30277139Y-50793600D01*
X30477098Y-50753826D01*
X30665456Y-50675805D01*
X30834974Y-50562537D01*
X30979137Y-50418374D01*
X31092405Y-50248856D01*
X31170426Y-50060498D01*
X31210200Y-49860539D01*
X31210200Y-49732861D01*
X31375400Y-49732861D01*
X31375400Y-49936739D01*
X31415174Y-50136698D01*
X31493195Y-50325056D01*
X31606463Y-50494574D01*
X31750626Y-50638737D01*
X31920144Y-50752005D01*
X32108502Y-50830026D01*
X32308461Y-50869800D01*
X32512339Y-50869800D01*
X32712298Y-50830026D01*
X32900656Y-50752005D01*
X33070174Y-50638737D01*
X33172400Y-50536511D01*
X33274626Y-50638737D01*
X33444144Y-50752005D01*
X33632502Y-50830026D01*
X33832461Y-50869800D01*
X34036339Y-50869800D01*
X34236298Y-50830026D01*
X34424656Y-50752005D01*
X34594174Y-50638737D01*
X34738337Y-50494574D01*
X34851605Y-50325056D01*
X34929626Y-50136698D01*
X34969400Y-49936739D01*
X34969400Y-49732861D01*
X47402800Y-49732861D01*
X47402800Y-49936739D01*
X47442574Y-50136698D01*
X47520595Y-50325056D01*
X47633863Y-50494574D01*
X47778026Y-50638737D01*
X47947544Y-50752005D01*
X48135902Y-50830026D01*
X48335861Y-50869800D01*
X48416846Y-50869800D01*
X48485795Y-51036256D01*
X48599063Y-51205774D01*
X48743226Y-51349937D01*
X48912744Y-51463205D01*
X49101102Y-51541226D01*
X49301061Y-51581000D01*
X49504939Y-51581000D01*
X49704898Y-51541226D01*
X49893256Y-51463205D01*
X50062774Y-51349937D01*
X50155850Y-51256861D01*
X64446200Y-51256861D01*
X64446200Y-51460739D01*
X64485974Y-51660698D01*
X64563995Y-51849056D01*
X64677263Y-52018574D01*
X64821426Y-52162737D01*
X64990944Y-52276005D01*
X65179302Y-52354026D01*
X65379261Y-52393800D01*
X65583139Y-52393800D01*
X65783098Y-52354026D01*
X65971456Y-52276005D01*
X66140974Y-52162737D01*
X66285137Y-52018574D01*
X66398405Y-51849056D01*
X66476426Y-51660698D01*
X66516200Y-51460739D01*
X66516200Y-51256861D01*
X66476426Y-51056902D01*
X66398405Y-50868544D01*
X66285137Y-50699026D01*
X66140974Y-50554863D01*
X65971456Y-50441595D01*
X65783098Y-50363574D01*
X65583139Y-50323800D01*
X65379261Y-50323800D01*
X65179302Y-50363574D01*
X64990944Y-50441595D01*
X64821426Y-50554863D01*
X64677263Y-50699026D01*
X64563995Y-50868544D01*
X64485974Y-51056902D01*
X64446200Y-51256861D01*
X50155850Y-51256861D01*
X50206937Y-51205774D01*
X50320205Y-51036256D01*
X50398226Y-50847898D01*
X50438000Y-50647939D01*
X50438000Y-50444061D01*
X50398226Y-50244102D01*
X50320205Y-50055744D01*
X50206937Y-49886226D01*
X50062774Y-49742063D01*
X49893256Y-49628795D01*
X49704898Y-49550774D01*
X49504939Y-49511000D01*
X49423954Y-49511000D01*
X49355005Y-49344544D01*
X49241737Y-49175026D01*
X49097574Y-49030863D01*
X48928056Y-48917595D01*
X48739698Y-48839574D01*
X48539739Y-48799800D01*
X48335861Y-48799800D01*
X48135902Y-48839574D01*
X47947544Y-48917595D01*
X47778026Y-49030863D01*
X47633863Y-49175026D01*
X47520595Y-49344544D01*
X47442574Y-49532902D01*
X47402800Y-49732861D01*
X34969400Y-49732861D01*
X34929626Y-49532902D01*
X34851605Y-49344544D01*
X34738337Y-49175026D01*
X34594174Y-49030863D01*
X34424656Y-48917595D01*
X34236298Y-48839574D01*
X34036339Y-48799800D01*
X33832461Y-48799800D01*
X33632502Y-48839574D01*
X33444144Y-48917595D01*
X33274626Y-49030863D01*
X33172400Y-49133089D01*
X33070174Y-49030863D01*
X32900656Y-48917595D01*
X32712298Y-48839574D01*
X32512339Y-48799800D01*
X32308461Y-48799800D01*
X32108502Y-48839574D01*
X31920144Y-48917595D01*
X31750626Y-49030863D01*
X31606463Y-49175026D01*
X31493195Y-49344544D01*
X31415174Y-49532902D01*
X31375400Y-49732861D01*
X31210200Y-49732861D01*
X31210200Y-49656661D01*
X31170426Y-49456702D01*
X31092405Y-49268344D01*
X30979137Y-49098826D01*
X30834974Y-48954663D01*
X30665456Y-48841395D01*
X30477098Y-48763374D01*
X30277139Y-48723600D01*
X30073261Y-48723600D01*
X29873302Y-48763374D01*
X29684944Y-48841395D01*
X29515426Y-48954663D01*
X29371263Y-49098826D01*
X29257995Y-49268344D01*
X29179974Y-49456702D01*
X29140200Y-49656661D01*
X28160846Y-49656661D01*
X28331475Y-49486032D01*
X28493990Y-49242811D01*
X28605932Y-48972558D01*
X28663000Y-48685660D01*
X28663000Y-48393140D01*
X28605932Y-48106242D01*
X28493990Y-47835989D01*
X28427254Y-47736111D01*
X34294800Y-47736111D01*
X34294800Y-47920289D01*
X34330732Y-48100929D01*
X34401214Y-48271089D01*
X34417000Y-48294714D01*
X34417000Y-48514000D01*
X34419440Y-48538776D01*
X34426667Y-48562601D01*
X34438403Y-48584557D01*
X34454197Y-48603803D01*
X34473443Y-48619597D01*
X34495399Y-48631333D01*
X34519224Y-48638560D01*
X34544000Y-48641000D01*
X34763286Y-48641000D01*
X34786911Y-48656786D01*
X34957071Y-48727268D01*
X35137711Y-48763200D01*
X35321889Y-48763200D01*
X35502529Y-48727268D01*
X35672689Y-48656786D01*
X35696314Y-48641000D01*
X38989000Y-48641000D01*
X39013776Y-48638560D01*
X39037601Y-48631333D01*
X39059557Y-48619597D01*
X39078803Y-48603803D01*
X39094597Y-48584557D01*
X39106333Y-48562601D01*
X39113560Y-48538776D01*
X39116000Y-48514000D01*
X39116000Y-46863000D01*
X39677539Y-46863000D01*
X39644774Y-46942102D01*
X39605000Y-47142061D01*
X39605000Y-47345939D01*
X39644774Y-47545898D01*
X39722795Y-47734256D01*
X39836063Y-47903774D01*
X39980226Y-48047937D01*
X40149744Y-48161205D01*
X40338102Y-48239226D01*
X40538061Y-48279000D01*
X40741939Y-48279000D01*
X40941898Y-48239226D01*
X41130256Y-48161205D01*
X41299774Y-48047937D01*
X41443937Y-47903774D01*
X41557205Y-47734256D01*
X41635226Y-47545898D01*
X41675000Y-47345939D01*
X41675000Y-47142061D01*
X41635226Y-46942102D01*
X41602461Y-46863000D01*
X43672089Y-46863000D01*
X43646063Y-46889026D01*
X43532795Y-47058544D01*
X43454774Y-47246902D01*
X43415000Y-47446861D01*
X43415000Y-47650739D01*
X43454774Y-47850698D01*
X43532795Y-48039056D01*
X43561623Y-48082200D01*
X43532795Y-48125344D01*
X43454774Y-48313702D01*
X43415000Y-48513661D01*
X43415000Y-48717539D01*
X43454774Y-48917498D01*
X43532795Y-49105856D01*
X43646063Y-49275374D01*
X43790226Y-49419537D01*
X43959744Y-49532805D01*
X44148102Y-49610826D01*
X44348061Y-49650600D01*
X44551939Y-49650600D01*
X44751898Y-49610826D01*
X44940256Y-49532805D01*
X45109774Y-49419537D01*
X45253937Y-49275374D01*
X45367205Y-49105856D01*
X45445226Y-48917498D01*
X45485000Y-48717539D01*
X45485000Y-48513661D01*
X45445226Y-48313702D01*
X45367205Y-48125344D01*
X45338377Y-48082200D01*
X45367205Y-48039056D01*
X45445226Y-47850698D01*
X45485000Y-47650739D01*
X45485000Y-47446861D01*
X45445226Y-47246902D01*
X45367205Y-47058544D01*
X45253937Y-46889026D01*
X45109774Y-46744863D01*
X44940256Y-46631595D01*
X44751898Y-46553574D01*
X44551939Y-46513800D01*
X44348061Y-46513800D01*
X44148102Y-46553574D01*
X43959744Y-46631595D01*
X43942000Y-46643451D01*
X43942000Y-45837511D01*
X43968026Y-45863537D01*
X44137544Y-45976805D01*
X44325902Y-46054826D01*
X44525861Y-46094600D01*
X44729739Y-46094600D01*
X44929698Y-46054826D01*
X45118056Y-45976805D01*
X45287574Y-45863537D01*
X45431737Y-45719374D01*
X45545005Y-45549856D01*
X45623026Y-45361498D01*
X45662800Y-45161539D01*
X45662800Y-44957661D01*
X45623026Y-44757702D01*
X45545005Y-44569344D01*
X45431737Y-44399826D01*
X45287574Y-44255663D01*
X45265988Y-44241240D01*
X45389461Y-44265800D01*
X45593339Y-44265800D01*
X45793298Y-44226026D01*
X45944071Y-44163573D01*
X45971195Y-44229056D01*
X46084463Y-44398574D01*
X46228626Y-44542737D01*
X46398144Y-44656005D01*
X46568918Y-44726742D01*
X46578974Y-44777298D01*
X46656995Y-44965656D01*
X46770263Y-45135174D01*
X46914426Y-45279337D01*
X47083944Y-45392605D01*
X47272302Y-45470626D01*
X47384936Y-45493030D01*
X47418995Y-45575256D01*
X47430851Y-45593000D01*
X47418995Y-45610744D01*
X47340974Y-45799102D01*
X47301200Y-45999061D01*
X47301200Y-46202939D01*
X47340974Y-46402898D01*
X47415824Y-46583600D01*
X47340974Y-46764302D01*
X47301200Y-46964261D01*
X47301200Y-47168139D01*
X47340974Y-47368098D01*
X47418995Y-47556456D01*
X47532263Y-47725974D01*
X47676426Y-47870137D01*
X47845944Y-47983405D01*
X48034302Y-48061426D01*
X48234261Y-48101200D01*
X48438139Y-48101200D01*
X48638098Y-48061426D01*
X48826456Y-47983405D01*
X48995974Y-47870137D01*
X49140137Y-47725974D01*
X49253405Y-47556456D01*
X49331426Y-47368098D01*
X49371200Y-47168139D01*
X49371200Y-47040461D01*
X50882600Y-47040461D01*
X50882600Y-47244339D01*
X50922374Y-47444298D01*
X50997224Y-47625000D01*
X50922374Y-47805702D01*
X50882600Y-48005661D01*
X50882600Y-48209539D01*
X50922374Y-48409498D01*
X51000395Y-48597856D01*
X51003765Y-48602900D01*
X51000395Y-48607944D01*
X50922374Y-48796302D01*
X50882600Y-48996261D01*
X50882600Y-49200139D01*
X50922374Y-49400098D01*
X51000395Y-49588456D01*
X51113663Y-49757974D01*
X51257826Y-49902137D01*
X51427344Y-50015405D01*
X51615702Y-50093426D01*
X51815661Y-50133200D01*
X52019539Y-50133200D01*
X52219498Y-50093426D01*
X52407856Y-50015405D01*
X52577374Y-49902137D01*
X52721537Y-49757974D01*
X52834805Y-49588456D01*
X52912826Y-49400098D01*
X52952600Y-49200139D01*
X52952600Y-48996261D01*
X52912826Y-48796302D01*
X52834805Y-48607944D01*
X52831435Y-48602900D01*
X52834805Y-48597856D01*
X52912826Y-48409498D01*
X52952600Y-48209539D01*
X52952600Y-48005661D01*
X52912826Y-47805702D01*
X52837976Y-47625000D01*
X52912826Y-47444298D01*
X52952600Y-47244339D01*
X52952600Y-47218261D01*
X57308800Y-47218261D01*
X57308800Y-47422139D01*
X57348574Y-47622098D01*
X57426595Y-47810456D01*
X57539863Y-47979974D01*
X57684026Y-48124137D01*
X57853544Y-48237405D01*
X58041902Y-48315426D01*
X58241861Y-48355200D01*
X58445739Y-48355200D01*
X58484300Y-48347530D01*
X58491574Y-48384098D01*
X58569595Y-48572456D01*
X58682863Y-48741974D01*
X58827026Y-48886137D01*
X58996544Y-48999405D01*
X59184902Y-49077426D01*
X59384861Y-49117200D01*
X59588739Y-49117200D01*
X59788698Y-49077426D01*
X59977056Y-48999405D01*
X60146574Y-48886137D01*
X60290737Y-48741974D01*
X60404005Y-48572456D01*
X60482026Y-48384098D01*
X60521800Y-48184139D01*
X60521800Y-47980261D01*
X60482026Y-47780302D01*
X60404005Y-47591944D01*
X60290737Y-47422426D01*
X60146574Y-47278263D01*
X59977056Y-47164995D01*
X59788698Y-47086974D01*
X59588739Y-47047200D01*
X59384861Y-47047200D01*
X59346300Y-47054870D01*
X59339026Y-47018302D01*
X59261005Y-46829944D01*
X59147737Y-46660426D01*
X59003574Y-46516263D01*
X58834056Y-46402995D01*
X58645698Y-46324974D01*
X58445739Y-46285200D01*
X58241861Y-46285200D01*
X58041902Y-46324974D01*
X57853544Y-46402995D01*
X57684026Y-46516263D01*
X57539863Y-46660426D01*
X57426595Y-46829944D01*
X57348574Y-47018302D01*
X57308800Y-47218261D01*
X52952600Y-47218261D01*
X52952600Y-47040461D01*
X52912826Y-46840502D01*
X52834805Y-46652144D01*
X52721537Y-46482626D01*
X52577374Y-46338463D01*
X52407856Y-46225195D01*
X52219498Y-46147174D01*
X52019539Y-46107400D01*
X51815661Y-46107400D01*
X51615702Y-46147174D01*
X51427344Y-46225195D01*
X51257826Y-46338463D01*
X51113663Y-46482626D01*
X51000395Y-46652144D01*
X50922374Y-46840502D01*
X50882600Y-47040461D01*
X49371200Y-47040461D01*
X49371200Y-46964261D01*
X49331426Y-46764302D01*
X49256576Y-46583600D01*
X49331426Y-46402898D01*
X49371200Y-46202939D01*
X49371200Y-45999061D01*
X49331426Y-45799102D01*
X49253405Y-45610744D01*
X49241549Y-45593000D01*
X49253405Y-45575256D01*
X49331426Y-45386898D01*
X49371200Y-45186939D01*
X49371200Y-45084661D01*
X54489400Y-45084661D01*
X54489400Y-45288539D01*
X54529174Y-45488498D01*
X54607195Y-45676856D01*
X54720463Y-45846374D01*
X54864626Y-45990537D01*
X55034144Y-46103805D01*
X55222502Y-46181826D01*
X55422461Y-46221600D01*
X55503921Y-46221600D01*
X55519774Y-46301298D01*
X55597795Y-46489656D01*
X55711063Y-46659174D01*
X55855226Y-46803337D01*
X56024744Y-46916605D01*
X56213102Y-46994626D01*
X56413061Y-47034400D01*
X56616939Y-47034400D01*
X56816898Y-46994626D01*
X57005256Y-46916605D01*
X57174774Y-46803337D01*
X57318937Y-46659174D01*
X57432205Y-46489656D01*
X57510226Y-46301298D01*
X57550000Y-46101339D01*
X57550000Y-45897461D01*
X57510226Y-45697502D01*
X57432205Y-45509144D01*
X57318937Y-45339626D01*
X57174774Y-45195463D01*
X57005256Y-45082195D01*
X56816898Y-45004174D01*
X56616939Y-44964400D01*
X56535479Y-44964400D01*
X56519626Y-44884702D01*
X56497242Y-44830661D01*
X64116000Y-44830661D01*
X64116000Y-45034539D01*
X64155774Y-45234498D01*
X64233795Y-45422856D01*
X64347063Y-45592374D01*
X64491226Y-45736537D01*
X64660744Y-45849805D01*
X64849102Y-45927826D01*
X65049061Y-45967600D01*
X65252939Y-45967600D01*
X65452898Y-45927826D01*
X65641256Y-45849805D01*
X65810774Y-45736537D01*
X65954937Y-45592374D01*
X66068205Y-45422856D01*
X66146226Y-45234498D01*
X66186000Y-45034539D01*
X66186000Y-44830661D01*
X66146226Y-44630702D01*
X66068205Y-44442344D01*
X65954937Y-44272826D01*
X65810774Y-44128663D01*
X65641256Y-44015395D01*
X65452898Y-43937374D01*
X65252939Y-43897600D01*
X65049061Y-43897600D01*
X64849102Y-43937374D01*
X64660744Y-44015395D01*
X64491226Y-44128663D01*
X64347063Y-44272826D01*
X64233795Y-44442344D01*
X64155774Y-44630702D01*
X64116000Y-44830661D01*
X56497242Y-44830661D01*
X56441605Y-44696344D01*
X56328337Y-44526826D01*
X56184174Y-44382663D01*
X56014656Y-44269395D01*
X55826298Y-44191374D01*
X55626339Y-44151600D01*
X55422461Y-44151600D01*
X55222502Y-44191374D01*
X55034144Y-44269395D01*
X54864626Y-44382663D01*
X54720463Y-44526826D01*
X54607195Y-44696344D01*
X54529174Y-44884702D01*
X54489400Y-45084661D01*
X49371200Y-45084661D01*
X49371200Y-44983061D01*
X49331426Y-44783102D01*
X49253405Y-44594744D01*
X49140137Y-44425226D01*
X48995974Y-44281063D01*
X48826456Y-44167795D01*
X48638098Y-44089774D01*
X48525464Y-44067370D01*
X48491405Y-43985144D01*
X48378137Y-43815626D01*
X48233974Y-43671463D01*
X48064456Y-43558195D01*
X47893682Y-43487458D01*
X47883626Y-43436902D01*
X47805605Y-43248544D01*
X47692337Y-43079026D01*
X47548174Y-42934863D01*
X47378656Y-42821595D01*
X47190298Y-42743574D01*
X46990339Y-42703800D01*
X46786461Y-42703800D01*
X46586502Y-42743574D01*
X46435729Y-42806027D01*
X46408605Y-42740544D01*
X46311664Y-42595461D01*
X48698200Y-42595461D01*
X48698200Y-42799339D01*
X48737974Y-42999298D01*
X48815995Y-43187656D01*
X48929263Y-43357174D01*
X49073426Y-43501337D01*
X49242944Y-43614605D01*
X49431302Y-43692626D01*
X49631261Y-43732400D01*
X49835139Y-43732400D01*
X50035098Y-43692626D01*
X50223456Y-43614605D01*
X50392974Y-43501337D01*
X50537137Y-43357174D01*
X50650405Y-43187656D01*
X50728426Y-42999298D01*
X50768200Y-42799339D01*
X50768200Y-42595461D01*
X50728426Y-42395502D01*
X50650405Y-42207144D01*
X50537137Y-42037626D01*
X50392974Y-41893463D01*
X50223456Y-41780195D01*
X50035098Y-41702174D01*
X49835139Y-41662400D01*
X49631261Y-41662400D01*
X49431302Y-41702174D01*
X49242944Y-41780195D01*
X49073426Y-41893463D01*
X48929263Y-42037626D01*
X48815995Y-42207144D01*
X48737974Y-42395502D01*
X48698200Y-42595461D01*
X46311664Y-42595461D01*
X46295337Y-42571026D01*
X46151174Y-42426863D01*
X45981656Y-42313595D01*
X45793298Y-42235574D01*
X45593339Y-42195800D01*
X45389461Y-42195800D01*
X45189502Y-42235574D01*
X45008800Y-42310424D01*
X44828098Y-42235574D01*
X44628139Y-42195800D01*
X44424261Y-42195800D01*
X44224302Y-42235574D01*
X44035944Y-42313595D01*
X43866426Y-42426863D01*
X43722263Y-42571026D01*
X43608995Y-42740544D01*
X43530974Y-42928902D01*
X43491200Y-43128861D01*
X43491200Y-43332739D01*
X43530974Y-43532698D01*
X43595303Y-43688000D01*
X39116000Y-43688000D01*
X39116000Y-41665314D01*
X39131786Y-41641689D01*
X39202268Y-41471529D01*
X39238200Y-41290889D01*
X39238200Y-41106711D01*
X39202268Y-40926071D01*
X39131786Y-40755911D01*
X39116000Y-40732286D01*
X39116000Y-40665061D01*
X54997400Y-40665061D01*
X54997400Y-40868939D01*
X55037174Y-41068898D01*
X55115195Y-41257256D01*
X55228463Y-41426774D01*
X55372626Y-41570937D01*
X55542144Y-41684205D01*
X55730502Y-41762226D01*
X55930461Y-41802000D01*
X56134339Y-41802000D01*
X56334298Y-41762226D01*
X56522656Y-41684205D01*
X56692174Y-41570937D01*
X56836337Y-41426774D01*
X56949605Y-41257256D01*
X57027626Y-41068898D01*
X57067400Y-40868939D01*
X57067400Y-40665061D01*
X57027626Y-40465102D01*
X56949605Y-40276744D01*
X56836337Y-40107226D01*
X56692174Y-39963063D01*
X56522656Y-39849795D01*
X56334298Y-39771774D01*
X56134339Y-39732000D01*
X55930461Y-39732000D01*
X55730502Y-39771774D01*
X55542144Y-39849795D01*
X55372626Y-39963063D01*
X55228463Y-40107226D01*
X55115195Y-40276744D01*
X55037174Y-40465102D01*
X54997400Y-40665061D01*
X39116000Y-40665061D01*
X39116000Y-40513000D01*
X39113560Y-40488224D01*
X39106333Y-40464399D01*
X39094597Y-40442443D01*
X39078803Y-40423197D01*
X39059557Y-40407403D01*
X39037601Y-40395667D01*
X39013776Y-40388440D01*
X38989000Y-40386000D01*
X38769714Y-40386000D01*
X38746089Y-40370214D01*
X38575929Y-40299732D01*
X38395289Y-40263800D01*
X38211111Y-40263800D01*
X38030471Y-40299732D01*
X37860311Y-40370214D01*
X37836686Y-40386000D01*
X34544000Y-40386000D01*
X34519224Y-40388440D01*
X34495399Y-40395667D01*
X34473443Y-40407403D01*
X34454197Y-40423197D01*
X34438403Y-40442443D01*
X34426667Y-40464399D01*
X34419440Y-40488224D01*
X34417000Y-40513000D01*
X34417000Y-47361686D01*
X34401214Y-47385311D01*
X34330732Y-47555471D01*
X34294800Y-47736111D01*
X28427254Y-47736111D01*
X28331475Y-47592768D01*
X28124632Y-47385925D01*
X27950240Y-47269400D01*
X28124632Y-47152875D01*
X28331475Y-46946032D01*
X28493990Y-46702811D01*
X28605932Y-46432558D01*
X28663000Y-46145660D01*
X28663000Y-45853140D01*
X28605932Y-45566242D01*
X28493990Y-45295989D01*
X28331475Y-45052768D01*
X28124632Y-44845925D01*
X27950240Y-44729400D01*
X28124632Y-44612875D01*
X28331475Y-44406032D01*
X28493990Y-44162811D01*
X28605932Y-43892558D01*
X28663000Y-43605660D01*
X28663000Y-43313140D01*
X28605932Y-43026242D01*
X28493990Y-42755989D01*
X28331475Y-42512768D01*
X28124632Y-42305925D01*
X27950240Y-42189400D01*
X28124632Y-42072875D01*
X28331475Y-41866032D01*
X28493990Y-41622811D01*
X28605932Y-41352558D01*
X28663000Y-41065660D01*
X28663000Y-40773140D01*
X28605932Y-40486242D01*
X28493990Y-40215989D01*
X28331475Y-39972768D01*
X28124632Y-39765925D01*
X28000618Y-39683061D01*
X31722400Y-39683061D01*
X31722400Y-39886939D01*
X31762174Y-40086898D01*
X31840195Y-40275256D01*
X31953463Y-40444774D01*
X32097626Y-40588937D01*
X32267144Y-40702205D01*
X32455502Y-40780226D01*
X32655461Y-40820000D01*
X32859339Y-40820000D01*
X33059298Y-40780226D01*
X33247656Y-40702205D01*
X33417174Y-40588937D01*
X33561337Y-40444774D01*
X33674605Y-40275256D01*
X33752626Y-40086898D01*
X33792400Y-39886939D01*
X33792400Y-39683061D01*
X33752626Y-39483102D01*
X33674605Y-39294744D01*
X33656777Y-39268061D01*
X38766800Y-39268061D01*
X38766800Y-39471939D01*
X38806574Y-39671898D01*
X38884595Y-39860256D01*
X38997863Y-40029774D01*
X39142026Y-40173937D01*
X39311544Y-40287205D01*
X39499902Y-40365226D01*
X39699861Y-40405000D01*
X39903739Y-40405000D01*
X40103698Y-40365226D01*
X40292056Y-40287205D01*
X40461574Y-40173937D01*
X40605737Y-40029774D01*
X40719005Y-39860256D01*
X40797026Y-39671898D01*
X40836800Y-39471939D01*
X40836800Y-39268061D01*
X40797026Y-39068102D01*
X40719005Y-38879744D01*
X40605737Y-38710226D01*
X40461574Y-38566063D01*
X40292056Y-38452795D01*
X40103698Y-38374774D01*
X39903739Y-38335000D01*
X39699861Y-38335000D01*
X39499902Y-38374774D01*
X39311544Y-38452795D01*
X39142026Y-38566063D01*
X38997863Y-38710226D01*
X38884595Y-38879744D01*
X38806574Y-39068102D01*
X38766800Y-39268061D01*
X33656777Y-39268061D01*
X33561337Y-39125226D01*
X33417174Y-38981063D01*
X33247656Y-38867795D01*
X33059298Y-38789774D01*
X32859339Y-38750000D01*
X32655461Y-38750000D01*
X32455502Y-38789774D01*
X32267144Y-38867795D01*
X32097626Y-38981063D01*
X31953463Y-39125226D01*
X31840195Y-39294744D01*
X31762174Y-39483102D01*
X31722400Y-39683061D01*
X28000618Y-39683061D01*
X27950240Y-39649400D01*
X28124632Y-39532875D01*
X28331475Y-39326032D01*
X28493990Y-39082811D01*
X28605932Y-38812558D01*
X28663000Y-38525660D01*
X28663000Y-38233140D01*
X28605932Y-37946242D01*
X28493990Y-37675989D01*
X28331475Y-37432768D01*
X28124632Y-37225925D01*
X27950240Y-37109400D01*
X28124632Y-36992875D01*
X28331475Y-36786032D01*
X28493990Y-36542811D01*
X28605932Y-36272558D01*
X28663000Y-35985660D01*
X28663000Y-35693140D01*
X28605932Y-35406242D01*
X28493990Y-35135989D01*
X28331475Y-34892768D01*
X28124632Y-34685925D01*
X27950240Y-34569400D01*
X28079455Y-34483061D01*
X34667600Y-34483061D01*
X34667600Y-34686939D01*
X34707374Y-34886898D01*
X34785395Y-35075256D01*
X34898663Y-35244774D01*
X35042826Y-35388937D01*
X35212344Y-35502205D01*
X35400702Y-35580226D01*
X35600661Y-35620000D01*
X35804539Y-35620000D01*
X36004498Y-35580226D01*
X36192856Y-35502205D01*
X36362374Y-35388937D01*
X36496450Y-35254861D01*
X39655800Y-35254861D01*
X39655800Y-35458739D01*
X39695574Y-35658698D01*
X39773595Y-35847056D01*
X39886863Y-36016574D01*
X40031026Y-36160737D01*
X40200544Y-36274005D01*
X40388902Y-36352026D01*
X40588861Y-36391800D01*
X40792739Y-36391800D01*
X40798800Y-36390594D01*
X40798800Y-36550939D01*
X40838574Y-36750898D01*
X40886907Y-36867584D01*
X40875264Y-36879227D01*
X40761996Y-37048745D01*
X40683975Y-37237103D01*
X40644201Y-37437062D01*
X40644201Y-37640940D01*
X40683975Y-37840899D01*
X40761996Y-38029257D01*
X40875264Y-38198775D01*
X41019427Y-38342938D01*
X41188945Y-38456206D01*
X41377303Y-38534227D01*
X41577262Y-38574001D01*
X41781140Y-38574001D01*
X41981099Y-38534227D01*
X42169457Y-38456206D01*
X42338975Y-38342938D01*
X42483138Y-38198775D01*
X42588233Y-38041489D01*
X42551400Y-38226661D01*
X42551400Y-38430539D01*
X42591174Y-38630498D01*
X42669195Y-38818856D01*
X42782463Y-38988374D01*
X42926626Y-39132537D01*
X43096144Y-39245805D01*
X43284502Y-39323826D01*
X43484461Y-39363600D01*
X43688339Y-39363600D01*
X43888298Y-39323826D01*
X44022925Y-39268061D01*
X44786600Y-39268061D01*
X44786600Y-39471939D01*
X44826374Y-39671898D01*
X44904395Y-39860256D01*
X45017663Y-40029774D01*
X45161826Y-40173937D01*
X45331344Y-40287205D01*
X45519702Y-40365226D01*
X45719661Y-40405000D01*
X45923539Y-40405000D01*
X46123498Y-40365226D01*
X46311856Y-40287205D01*
X46393100Y-40232920D01*
X46474344Y-40287205D01*
X46662702Y-40365226D01*
X46862661Y-40405000D01*
X47066539Y-40405000D01*
X47266498Y-40365226D01*
X47454856Y-40287205D01*
X47624374Y-40173937D01*
X47768537Y-40029774D01*
X47881805Y-39860256D01*
X47959826Y-39671898D01*
X47999600Y-39471939D01*
X47999600Y-39268061D01*
X47959826Y-39068102D01*
X47881805Y-38879744D01*
X47768537Y-38710226D01*
X47624374Y-38566063D01*
X47454856Y-38452795D01*
X47266498Y-38374774D01*
X47066539Y-38335000D01*
X46862661Y-38335000D01*
X46662702Y-38374774D01*
X46474344Y-38452795D01*
X46393100Y-38507080D01*
X46311856Y-38452795D01*
X46123498Y-38374774D01*
X45923539Y-38335000D01*
X45719661Y-38335000D01*
X45519702Y-38374774D01*
X45331344Y-38452795D01*
X45161826Y-38566063D01*
X45017663Y-38710226D01*
X44904395Y-38879744D01*
X44826374Y-39068102D01*
X44786600Y-39268061D01*
X44022925Y-39268061D01*
X44076656Y-39245805D01*
X44246174Y-39132537D01*
X44390337Y-38988374D01*
X44503605Y-38818856D01*
X44581626Y-38630498D01*
X44621400Y-38430539D01*
X44621400Y-38226661D01*
X44581626Y-38026702D01*
X44503605Y-37838344D01*
X44390337Y-37668826D01*
X44285478Y-37563967D01*
X62515000Y-37563967D01*
X62515000Y-37886033D01*
X62577832Y-38201912D01*
X62701082Y-38499463D01*
X62880013Y-38767252D01*
X63107748Y-38994987D01*
X63375537Y-39173918D01*
X63673088Y-39297168D01*
X63988967Y-39360000D01*
X64311033Y-39360000D01*
X64626912Y-39297168D01*
X64924463Y-39173918D01*
X65192252Y-38994987D01*
X65419987Y-38767252D01*
X65598918Y-38499463D01*
X65722168Y-38201912D01*
X65785000Y-37886033D01*
X65785000Y-37563967D01*
X65748117Y-37378544D01*
X65859774Y-37303937D01*
X66003937Y-37159774D01*
X66117205Y-36990256D01*
X66195226Y-36801898D01*
X66235000Y-36601939D01*
X66235000Y-36576489D01*
X66341898Y-36555226D01*
X66530256Y-36477205D01*
X66699774Y-36363937D01*
X66843937Y-36219774D01*
X66957205Y-36050256D01*
X67035226Y-35861898D01*
X67075000Y-35661939D01*
X67075000Y-35458061D01*
X67035226Y-35258102D01*
X66957205Y-35069744D01*
X66843937Y-34900226D01*
X66699774Y-34756063D01*
X66530256Y-34642795D01*
X66341898Y-34564774D01*
X66212802Y-34539095D01*
X66240298Y-34533626D01*
X66428656Y-34455605D01*
X66598174Y-34342337D01*
X66742337Y-34198174D01*
X66855605Y-34028656D01*
X66933626Y-33840298D01*
X66973400Y-33640339D01*
X66973400Y-33436461D01*
X66933626Y-33236502D01*
X66855605Y-33048144D01*
X66742337Y-32878626D01*
X66598174Y-32734463D01*
X66428656Y-32621195D01*
X66240298Y-32543174D01*
X66040339Y-32503400D01*
X65836461Y-32503400D01*
X65636502Y-32543174D01*
X65448144Y-32621195D01*
X65278626Y-32734463D01*
X65134463Y-32878626D01*
X65021195Y-33048144D01*
X64943174Y-33236502D01*
X64903400Y-33436461D01*
X64903400Y-33640339D01*
X64943174Y-33840298D01*
X65021195Y-34028656D01*
X65134463Y-34198174D01*
X65278626Y-34342337D01*
X65448144Y-34455605D01*
X65636502Y-34533626D01*
X65765598Y-34559305D01*
X65738102Y-34564774D01*
X65549744Y-34642795D01*
X65380226Y-34756063D01*
X65236063Y-34900226D01*
X65122795Y-35069744D01*
X65044774Y-35258102D01*
X65005000Y-35458061D01*
X65005000Y-35483511D01*
X64898102Y-35504774D01*
X64709744Y-35582795D01*
X64540226Y-35696063D01*
X64396063Y-35840226D01*
X64282795Y-36009744D01*
X64249552Y-36090000D01*
X63988967Y-36090000D01*
X63673088Y-36152832D01*
X63375537Y-36276082D01*
X63107748Y-36455013D01*
X62880013Y-36682748D01*
X62701082Y-36950537D01*
X62577832Y-37248088D01*
X62515000Y-37563967D01*
X44285478Y-37563967D01*
X44246174Y-37524663D01*
X44076656Y-37411395D01*
X43888298Y-37333374D01*
X43688339Y-37293600D01*
X43484461Y-37293600D01*
X43284502Y-37333374D01*
X43096144Y-37411395D01*
X42926626Y-37524663D01*
X42782463Y-37668826D01*
X42677368Y-37826112D01*
X42714201Y-37640940D01*
X42714201Y-37437062D01*
X42674427Y-37237103D01*
X42626094Y-37120417D01*
X42637737Y-37108774D01*
X42751005Y-36939256D01*
X42829026Y-36750898D01*
X42868800Y-36550939D01*
X42868800Y-36347061D01*
X42829026Y-36147102D01*
X42751005Y-35958744D01*
X42671036Y-35839061D01*
X43542800Y-35839061D01*
X43542800Y-36042939D01*
X43582574Y-36242898D01*
X43660595Y-36431256D01*
X43773863Y-36600774D01*
X43918026Y-36744937D01*
X44087544Y-36858205D01*
X44275902Y-36936226D01*
X44475861Y-36976000D01*
X44679739Y-36976000D01*
X44879698Y-36936226D01*
X45068056Y-36858205D01*
X45237574Y-36744937D01*
X45381737Y-36600774D01*
X45495005Y-36431256D01*
X45573026Y-36242898D01*
X45612800Y-36042939D01*
X45612800Y-35839061D01*
X45573026Y-35639102D01*
X45495005Y-35450744D01*
X45381737Y-35281226D01*
X45237574Y-35137063D01*
X45068056Y-35023795D01*
X44879698Y-34945774D01*
X44679739Y-34906000D01*
X44475861Y-34906000D01*
X44275902Y-34945774D01*
X44087544Y-35023795D01*
X43918026Y-35137063D01*
X43773863Y-35281226D01*
X43660595Y-35450744D01*
X43582574Y-35639102D01*
X43542800Y-35839061D01*
X42671036Y-35839061D01*
X42637737Y-35789226D01*
X42559148Y-35710637D01*
X42569774Y-35703537D01*
X42713937Y-35559374D01*
X42827205Y-35389856D01*
X42905226Y-35201498D01*
X42945000Y-35001539D01*
X42945000Y-34797661D01*
X42905226Y-34597702D01*
X42827205Y-34409344D01*
X42713937Y-34239826D01*
X42569774Y-34095663D01*
X42400256Y-33982395D01*
X42334933Y-33955337D01*
X42493574Y-33849337D01*
X42637737Y-33705174D01*
X42751005Y-33535656D01*
X42829026Y-33347298D01*
X42868800Y-33147339D01*
X42868800Y-32943461D01*
X42829026Y-32743502D01*
X42751005Y-32555144D01*
X42637737Y-32385626D01*
X42493574Y-32241463D01*
X42324056Y-32128195D01*
X42135698Y-32050174D01*
X41935739Y-32010400D01*
X41731861Y-32010400D01*
X41531902Y-32050174D01*
X41343544Y-32128195D01*
X41174026Y-32241463D01*
X41029863Y-32385626D01*
X40916595Y-32555144D01*
X40838574Y-32743502D01*
X40798800Y-32943461D01*
X40798800Y-33147339D01*
X40838574Y-33347298D01*
X40916595Y-33535656D01*
X41029863Y-33705174D01*
X41174026Y-33849337D01*
X41343544Y-33962605D01*
X41408867Y-33989663D01*
X41250226Y-34095663D01*
X41106063Y-34239826D01*
X41017774Y-34371961D01*
X40992698Y-34361574D01*
X40792739Y-34321800D01*
X40588861Y-34321800D01*
X40388902Y-34361574D01*
X40200544Y-34439595D01*
X40031026Y-34552863D01*
X39886863Y-34697026D01*
X39773595Y-34866544D01*
X39695574Y-35054902D01*
X39655800Y-35254861D01*
X36496450Y-35254861D01*
X36506537Y-35244774D01*
X36619805Y-35075256D01*
X36697826Y-34886898D01*
X36737600Y-34686939D01*
X36737600Y-34483061D01*
X36697826Y-34283102D01*
X36619805Y-34094744D01*
X36506537Y-33925226D01*
X36362374Y-33781063D01*
X36192856Y-33667795D01*
X36004498Y-33589774D01*
X35804539Y-33550000D01*
X35600661Y-33550000D01*
X35400702Y-33589774D01*
X35212344Y-33667795D01*
X35042826Y-33781063D01*
X34898663Y-33925226D01*
X34785395Y-34094744D01*
X34707374Y-34283102D01*
X34667600Y-34483061D01*
X28079455Y-34483061D01*
X28124632Y-34452875D01*
X28331475Y-34246032D01*
X28493990Y-34002811D01*
X28605932Y-33732558D01*
X28663000Y-33445660D01*
X28663000Y-33299061D01*
X38157200Y-33299061D01*
X38157200Y-33502939D01*
X38196974Y-33702898D01*
X38274995Y-33891256D01*
X38388263Y-34060774D01*
X38532426Y-34204937D01*
X38701944Y-34318205D01*
X38890302Y-34396226D01*
X39090261Y-34436000D01*
X39294139Y-34436000D01*
X39494098Y-34396226D01*
X39682456Y-34318205D01*
X39851974Y-34204937D01*
X39996137Y-34060774D01*
X40109405Y-33891256D01*
X40187426Y-33702898D01*
X40227200Y-33502939D01*
X40227200Y-33299061D01*
X40187426Y-33099102D01*
X40109405Y-32910744D01*
X39996137Y-32741226D01*
X39851974Y-32597063D01*
X39682456Y-32483795D01*
X39494098Y-32405774D01*
X39294139Y-32366000D01*
X39090261Y-32366000D01*
X38890302Y-32405774D01*
X38701944Y-32483795D01*
X38532426Y-32597063D01*
X38388263Y-32741226D01*
X38274995Y-32910744D01*
X38196974Y-33099102D01*
X38157200Y-33299061D01*
X28663000Y-33299061D01*
X28663000Y-33153140D01*
X28605932Y-32866242D01*
X28493990Y-32595989D01*
X28331475Y-32352768D01*
X28199620Y-32220913D01*
X28272180Y-32198902D01*
X28352328Y-32156061D01*
X34880600Y-32156061D01*
X34880600Y-32359939D01*
X34920374Y-32559898D01*
X34998395Y-32748256D01*
X35111663Y-32917774D01*
X35255826Y-33061937D01*
X35425344Y-33175205D01*
X35613702Y-33253226D01*
X35813661Y-33293000D01*
X36017539Y-33293000D01*
X36217498Y-33253226D01*
X36405856Y-33175205D01*
X36575374Y-33061937D01*
X36719537Y-32917774D01*
X36832805Y-32748256D01*
X36910826Y-32559898D01*
X36950600Y-32359939D01*
X36950600Y-32156061D01*
X36910826Y-31956102D01*
X36832805Y-31767744D01*
X36719537Y-31598226D01*
X36575374Y-31454063D01*
X36405856Y-31340795D01*
X36217498Y-31262774D01*
X36017539Y-31223000D01*
X35813661Y-31223000D01*
X35613702Y-31262774D01*
X35425344Y-31340795D01*
X35255826Y-31454063D01*
X35111663Y-31598226D01*
X34998395Y-31767744D01*
X34920374Y-31956102D01*
X34880600Y-32156061D01*
X28352328Y-32156061D01*
X28382494Y-32139937D01*
X28479185Y-32060585D01*
X28558537Y-31963894D01*
X28617502Y-31853580D01*
X28653812Y-31733882D01*
X28666072Y-31609400D01*
X28666072Y-29909400D01*
X28653812Y-29784918D01*
X28617502Y-29665220D01*
X28558537Y-29554906D01*
X28479185Y-29458215D01*
X28382494Y-29378863D01*
X28272180Y-29319898D01*
X28152482Y-29283588D01*
X28028000Y-29271328D01*
X26328000Y-29271328D01*
X26203518Y-29283588D01*
X26083820Y-29319898D01*
X25973506Y-29378863D01*
X25876815Y-29458215D01*
X25797463Y-29554906D01*
X25738498Y-29665220D01*
X25722399Y-29718292D01*
X25584632Y-29580525D01*
X25341411Y-29418010D01*
X25071158Y-29306068D01*
X24784260Y-29249000D01*
X24491740Y-29249000D01*
X24204842Y-29306068D01*
X23934589Y-29418010D01*
X23691368Y-29580525D01*
X23484525Y-29787368D01*
X23368000Y-29961760D01*
X23251475Y-29787368D01*
X23044632Y-29580525D01*
X22801411Y-29418010D01*
X22531158Y-29306068D01*
X22244260Y-29249000D01*
X21951740Y-29249000D01*
X21664842Y-29306068D01*
X21394589Y-29418010D01*
X21151368Y-29580525D01*
X20944525Y-29787368D01*
X20782010Y-30030589D01*
X20685000Y-30264793D01*
X20685000Y-28448522D01*
X20786063Y-28599774D01*
X20930226Y-28743937D01*
X21099744Y-28857205D01*
X21288102Y-28935226D01*
X21488061Y-28975000D01*
X21691939Y-28975000D01*
X21891898Y-28935226D01*
X22080256Y-28857205D01*
X22225000Y-28760490D01*
X22369744Y-28857205D01*
X22558102Y-28935226D01*
X22758061Y-28975000D01*
X22961939Y-28975000D01*
X23161898Y-28935226D01*
X23350256Y-28857205D01*
X23495000Y-28760490D01*
X23639744Y-28857205D01*
X23828102Y-28935226D01*
X24028061Y-28975000D01*
X24231939Y-28975000D01*
X24431898Y-28935226D01*
X24620256Y-28857205D01*
X24765000Y-28760490D01*
X24909744Y-28857205D01*
X25098102Y-28935226D01*
X25298061Y-28975000D01*
X25501939Y-28975000D01*
X25701898Y-28935226D01*
X25890256Y-28857205D01*
X26035000Y-28760490D01*
X26179744Y-28857205D01*
X26368102Y-28935226D01*
X26568061Y-28975000D01*
X26771939Y-28975000D01*
X26971898Y-28935226D01*
X27160256Y-28857205D01*
X27305000Y-28760490D01*
X27449744Y-28857205D01*
X27638102Y-28935226D01*
X27838061Y-28975000D01*
X28041939Y-28975000D01*
X28241898Y-28935226D01*
X28430256Y-28857205D01*
X28575000Y-28760490D01*
X28719744Y-28857205D01*
X28908102Y-28935226D01*
X29108061Y-28975000D01*
X29311939Y-28975000D01*
X29511898Y-28935226D01*
X29700256Y-28857205D01*
X29869774Y-28743937D01*
X30013937Y-28599774D01*
X30127205Y-28430256D01*
X30205226Y-28241898D01*
X30245000Y-28041939D01*
X30245000Y-27838061D01*
X30205226Y-27638102D01*
X30127205Y-27449744D01*
X30030490Y-27305000D01*
X30127205Y-27160256D01*
X30205226Y-26971898D01*
X30209768Y-26949061D01*
X34017000Y-26949061D01*
X34017000Y-27152939D01*
X34056774Y-27352898D01*
X34134795Y-27541256D01*
X34146651Y-27559000D01*
X34134795Y-27576744D01*
X34056774Y-27765102D01*
X34017000Y-27965061D01*
X34017000Y-28168939D01*
X34056774Y-28368898D01*
X34134795Y-28557256D01*
X34248063Y-28726774D01*
X34392226Y-28870937D01*
X34555114Y-28979775D01*
X34502063Y-29032826D01*
X34388795Y-29202344D01*
X34310774Y-29390702D01*
X34271000Y-29590661D01*
X34271000Y-29794539D01*
X34310774Y-29994498D01*
X34388795Y-30182856D01*
X34502063Y-30352374D01*
X34646226Y-30496537D01*
X34815744Y-30609805D01*
X35004102Y-30687826D01*
X35204061Y-30727600D01*
X35407939Y-30727600D01*
X35607898Y-30687826D01*
X35796256Y-30609805D01*
X35965774Y-30496537D01*
X36058850Y-30403461D01*
X43872200Y-30403461D01*
X43872200Y-30607339D01*
X43911974Y-30807298D01*
X43989995Y-30995656D01*
X44103263Y-31165174D01*
X44247426Y-31309337D01*
X44416944Y-31422605D01*
X44498926Y-31456563D01*
X44433463Y-31522026D01*
X44320195Y-31691544D01*
X44242174Y-31879902D01*
X44202400Y-32079861D01*
X44202400Y-32283739D01*
X44242174Y-32483698D01*
X44320195Y-32672056D01*
X44433463Y-32841574D01*
X44577626Y-32985737D01*
X44747144Y-33099005D01*
X44935502Y-33177026D01*
X45135461Y-33216800D01*
X45339339Y-33216800D01*
X45539298Y-33177026D01*
X45727656Y-33099005D01*
X45897174Y-32985737D01*
X46041337Y-32841574D01*
X46154605Y-32672056D01*
X46232626Y-32483698D01*
X46272400Y-32283739D01*
X46272400Y-32079861D01*
X46232626Y-31879902D01*
X46154605Y-31691544D01*
X46108579Y-31622661D01*
X47428200Y-31622661D01*
X47428200Y-31826539D01*
X47467974Y-32026498D01*
X47545995Y-32214856D01*
X47659263Y-32384374D01*
X47774189Y-32499300D01*
X47659263Y-32614226D01*
X47545995Y-32783744D01*
X47467974Y-32972102D01*
X47428200Y-33172061D01*
X47428200Y-33375939D01*
X47467974Y-33575898D01*
X47545995Y-33764256D01*
X47659263Y-33933774D01*
X47803426Y-34077937D01*
X47972944Y-34191205D01*
X48161302Y-34269226D01*
X48360860Y-34308920D01*
X48356974Y-34318302D01*
X48317200Y-34518261D01*
X48317200Y-34722139D01*
X48356974Y-34922098D01*
X48434995Y-35110456D01*
X48548263Y-35279974D01*
X48692426Y-35424137D01*
X48861944Y-35537405D01*
X49050302Y-35615426D01*
X49250261Y-35655200D01*
X49454139Y-35655200D01*
X49654098Y-35615426D01*
X49842456Y-35537405D01*
X50011974Y-35424137D01*
X50156137Y-35279974D01*
X50269405Y-35110456D01*
X50347426Y-34922098D01*
X50387200Y-34722139D01*
X50387200Y-34518261D01*
X50347426Y-34318302D01*
X50269405Y-34129944D01*
X50156137Y-33960426D01*
X50011974Y-33816263D01*
X49842456Y-33702995D01*
X49654098Y-33624974D01*
X49454540Y-33585280D01*
X49458426Y-33575898D01*
X49498200Y-33375939D01*
X49498200Y-33172061D01*
X49458426Y-32972102D01*
X49436042Y-32918061D01*
X51035000Y-32918061D01*
X51035000Y-33121939D01*
X51074774Y-33321898D01*
X51152795Y-33510256D01*
X51266063Y-33679774D01*
X51410226Y-33823937D01*
X51579744Y-33937205D01*
X51768102Y-34015226D01*
X51968061Y-34055000D01*
X52171939Y-34055000D01*
X52371898Y-34015226D01*
X52560256Y-33937205D01*
X52705000Y-33840490D01*
X52849744Y-33937205D01*
X53038102Y-34015226D01*
X53238061Y-34055000D01*
X53441939Y-34055000D01*
X53507554Y-34041948D01*
X53487774Y-34089702D01*
X53448000Y-34289661D01*
X53448000Y-34493539D01*
X53459310Y-34550400D01*
X53415861Y-34550400D01*
X53215902Y-34590174D01*
X53027544Y-34668195D01*
X52858026Y-34781463D01*
X52713863Y-34925626D01*
X52600595Y-35095144D01*
X52522574Y-35283502D01*
X52482800Y-35483461D01*
X52482800Y-35687339D01*
X52522574Y-35887298D01*
X52600595Y-36075656D01*
X52713863Y-36245174D01*
X52858026Y-36389337D01*
X53027544Y-36502605D01*
X53215902Y-36580626D01*
X53415861Y-36620400D01*
X53619739Y-36620400D01*
X53819698Y-36580626D01*
X54008056Y-36502605D01*
X54177574Y-36389337D01*
X54321737Y-36245174D01*
X54435005Y-36075656D01*
X54513026Y-35887298D01*
X54552800Y-35687339D01*
X54552800Y-35483461D01*
X54542696Y-35432661D01*
X56115000Y-35432661D01*
X56115000Y-35636539D01*
X56154774Y-35836498D01*
X56232795Y-36024856D01*
X56346063Y-36194374D01*
X56490226Y-36338537D01*
X56659744Y-36451805D01*
X56848102Y-36529826D01*
X57048061Y-36569600D01*
X57251939Y-36569600D01*
X57451898Y-36529826D01*
X57640256Y-36451805D01*
X57809774Y-36338537D01*
X57953937Y-36194374D01*
X58067205Y-36024856D01*
X58145226Y-35836498D01*
X58185000Y-35636539D01*
X58185000Y-35432661D01*
X58145226Y-35232702D01*
X58067205Y-35044344D01*
X57953937Y-34874826D01*
X57809774Y-34730663D01*
X57640256Y-34617395D01*
X57451898Y-34539374D01*
X57251939Y-34499600D01*
X57048061Y-34499600D01*
X56848102Y-34539374D01*
X56659744Y-34617395D01*
X56490226Y-34730663D01*
X56346063Y-34874826D01*
X56232795Y-35044344D01*
X56154774Y-35232702D01*
X56115000Y-35432661D01*
X54542696Y-35432661D01*
X54541490Y-35426600D01*
X54584939Y-35426600D01*
X54784898Y-35386826D01*
X54973256Y-35308805D01*
X55142774Y-35195537D01*
X55286937Y-35051374D01*
X55400205Y-34881856D01*
X55478226Y-34693498D01*
X55518000Y-34493539D01*
X55518000Y-34289661D01*
X55478226Y-34089702D01*
X55400205Y-33901344D01*
X55286937Y-33731826D01*
X55142774Y-33587663D01*
X54973256Y-33474395D01*
X54784898Y-33396374D01*
X54584939Y-33356600D01*
X54381061Y-33356600D01*
X54315446Y-33369652D01*
X54335226Y-33321898D01*
X54337809Y-33308911D01*
X59136000Y-33308911D01*
X59136000Y-33493089D01*
X59171932Y-33673729D01*
X59242414Y-33843889D01*
X59344738Y-33997028D01*
X59474972Y-34127262D01*
X59628111Y-34229586D01*
X59798271Y-34300068D01*
X59978911Y-34336000D01*
X60163089Y-34336000D01*
X60343729Y-34300068D01*
X60513889Y-34229586D01*
X60667028Y-34127262D01*
X60797262Y-33997028D01*
X60899586Y-33843889D01*
X60970068Y-33673729D01*
X61006000Y-33493089D01*
X61006000Y-33308911D01*
X60970068Y-33128271D01*
X60899586Y-32958111D01*
X60797262Y-32804972D01*
X60667028Y-32674738D01*
X60513889Y-32572414D01*
X60343729Y-32501932D01*
X60163089Y-32466000D01*
X59978911Y-32466000D01*
X59798271Y-32501932D01*
X59628111Y-32572414D01*
X59474972Y-32674738D01*
X59344738Y-32804972D01*
X59242414Y-32958111D01*
X59171932Y-33128271D01*
X59136000Y-33308911D01*
X54337809Y-33308911D01*
X54375000Y-33121939D01*
X54375000Y-32918061D01*
X54335226Y-32718102D01*
X54257205Y-32529744D01*
X54143937Y-32360226D01*
X53999774Y-32216063D01*
X53830256Y-32102795D01*
X53641898Y-32024774D01*
X53441939Y-31985000D01*
X53238061Y-31985000D01*
X53038102Y-32024774D01*
X52849744Y-32102795D01*
X52705000Y-32199510D01*
X52560256Y-32102795D01*
X52371898Y-32024774D01*
X52171939Y-31985000D01*
X51968061Y-31985000D01*
X51768102Y-32024774D01*
X51579744Y-32102795D01*
X51410226Y-32216063D01*
X51266063Y-32360226D01*
X51152795Y-32529744D01*
X51074774Y-32718102D01*
X51035000Y-32918061D01*
X49436042Y-32918061D01*
X49380405Y-32783744D01*
X49267137Y-32614226D01*
X49152211Y-32499300D01*
X49267137Y-32384374D01*
X49380405Y-32214856D01*
X49458426Y-32026498D01*
X49498200Y-31826539D01*
X49498200Y-31622661D01*
X49458426Y-31422702D01*
X49380405Y-31234344D01*
X49267137Y-31064826D01*
X49122974Y-30920663D01*
X48953456Y-30807395D01*
X48765098Y-30729374D01*
X48565139Y-30689600D01*
X48361261Y-30689600D01*
X48161302Y-30729374D01*
X47972944Y-30807395D01*
X47803426Y-30920663D01*
X47659263Y-31064826D01*
X47545995Y-31234344D01*
X47467974Y-31422702D01*
X47428200Y-31622661D01*
X46108579Y-31622661D01*
X46041337Y-31522026D01*
X45897174Y-31377863D01*
X45727656Y-31264595D01*
X45645674Y-31230637D01*
X45711137Y-31165174D01*
X45824405Y-30995656D01*
X45902426Y-30807298D01*
X45937282Y-30632061D01*
X59010600Y-30632061D01*
X59010600Y-30835939D01*
X59050374Y-31035898D01*
X59128395Y-31224256D01*
X59241663Y-31393774D01*
X59385826Y-31537937D01*
X59555344Y-31651205D01*
X59743702Y-31729226D01*
X59943661Y-31769000D01*
X60147539Y-31769000D01*
X60347498Y-31729226D01*
X60535856Y-31651205D01*
X60705374Y-31537937D01*
X60849537Y-31393774D01*
X60962805Y-31224256D01*
X61040826Y-31035898D01*
X61080600Y-30835939D01*
X61080600Y-30632061D01*
X61040826Y-30432102D01*
X60962805Y-30243744D01*
X60876092Y-30113967D01*
X62515000Y-30113967D01*
X62515000Y-30436033D01*
X62577832Y-30751912D01*
X62701082Y-31049463D01*
X62880013Y-31317252D01*
X63107748Y-31544987D01*
X63375537Y-31723918D01*
X63673088Y-31847168D01*
X63988967Y-31910000D01*
X64249552Y-31910000D01*
X64282795Y-31990256D01*
X64396063Y-32159774D01*
X64540226Y-32303937D01*
X64709744Y-32417205D01*
X64898102Y-32495226D01*
X65098061Y-32535000D01*
X65301939Y-32535000D01*
X65501898Y-32495226D01*
X65690256Y-32417205D01*
X65859774Y-32303937D01*
X66003937Y-32159774D01*
X66117205Y-31990256D01*
X66195226Y-31801898D01*
X66235000Y-31601939D01*
X66235000Y-31398061D01*
X66195226Y-31198102D01*
X66117205Y-31009744D01*
X66003937Y-30840226D01*
X65859774Y-30696063D01*
X65748117Y-30621456D01*
X65785000Y-30436033D01*
X65785000Y-30113967D01*
X65722168Y-29798088D01*
X65598918Y-29500537D01*
X65419987Y-29232748D01*
X65192252Y-29005013D01*
X64924463Y-28826082D01*
X64626912Y-28702832D01*
X64311033Y-28640000D01*
X63988967Y-28640000D01*
X63673088Y-28702832D01*
X63375537Y-28826082D01*
X63107748Y-29005013D01*
X62880013Y-29232748D01*
X62701082Y-29500537D01*
X62577832Y-29798088D01*
X62515000Y-30113967D01*
X60876092Y-30113967D01*
X60849537Y-30074226D01*
X60705374Y-29930063D01*
X60535856Y-29816795D01*
X60347498Y-29738774D01*
X60147539Y-29699000D01*
X59943661Y-29699000D01*
X59743702Y-29738774D01*
X59555344Y-29816795D01*
X59385826Y-29930063D01*
X59241663Y-30074226D01*
X59128395Y-30243744D01*
X59050374Y-30432102D01*
X59010600Y-30632061D01*
X45937282Y-30632061D01*
X45942200Y-30607339D01*
X45942200Y-30403461D01*
X45902426Y-30203502D01*
X45824405Y-30015144D01*
X45711137Y-29845626D01*
X45566974Y-29701463D01*
X45397456Y-29588195D01*
X45209098Y-29510174D01*
X45009139Y-29470400D01*
X44805261Y-29470400D01*
X44605302Y-29510174D01*
X44416944Y-29588195D01*
X44247426Y-29701463D01*
X44103263Y-29845626D01*
X43989995Y-30015144D01*
X43911974Y-30203502D01*
X43872200Y-30403461D01*
X36058850Y-30403461D01*
X36109937Y-30352374D01*
X36223205Y-30182856D01*
X36301226Y-29994498D01*
X36341000Y-29794539D01*
X36341000Y-29590661D01*
X36301226Y-29390702D01*
X36223205Y-29202344D01*
X36160207Y-29108061D01*
X51035000Y-29108061D01*
X51035000Y-29311939D01*
X51074774Y-29511898D01*
X51152795Y-29700256D01*
X51266063Y-29869774D01*
X51410226Y-30013937D01*
X51579744Y-30127205D01*
X51768102Y-30205226D01*
X51968061Y-30245000D01*
X52171939Y-30245000D01*
X52371898Y-30205226D01*
X52560256Y-30127205D01*
X52729774Y-30013937D01*
X52873937Y-29869774D01*
X52987205Y-29700256D01*
X53065226Y-29511898D01*
X53105000Y-29311939D01*
X53105000Y-29108061D01*
X53065226Y-28908102D01*
X52987205Y-28719744D01*
X52873937Y-28550226D01*
X52729774Y-28406063D01*
X52560256Y-28292795D01*
X52371898Y-28214774D01*
X52171939Y-28175000D01*
X51968061Y-28175000D01*
X51768102Y-28214774D01*
X51579744Y-28292795D01*
X51410226Y-28406063D01*
X51266063Y-28550226D01*
X51152795Y-28719744D01*
X51074774Y-28908102D01*
X51035000Y-29108061D01*
X36160207Y-29108061D01*
X36156157Y-29102000D01*
X36169939Y-29102000D01*
X36369898Y-29062226D01*
X36558256Y-28984205D01*
X36727774Y-28870937D01*
X36871937Y-28726774D01*
X36985205Y-28557256D01*
X37063226Y-28368898D01*
X37103000Y-28168939D01*
X37103000Y-27965061D01*
X37063226Y-27765102D01*
X36985205Y-27576744D01*
X36973349Y-27559000D01*
X36985205Y-27541256D01*
X37063226Y-27352898D01*
X37103000Y-27152939D01*
X37103000Y-26949061D01*
X40494000Y-26949061D01*
X40494000Y-27152939D01*
X40533774Y-27352898D01*
X40611795Y-27541256D01*
X40725063Y-27710774D01*
X40869226Y-27854937D01*
X41038744Y-27968205D01*
X41227102Y-28046226D01*
X41427061Y-28086000D01*
X41630939Y-28086000D01*
X41830898Y-28046226D01*
X42019256Y-27968205D01*
X42188774Y-27854937D01*
X42332937Y-27710774D01*
X42446205Y-27541256D01*
X42524226Y-27352898D01*
X42564000Y-27152939D01*
X42564000Y-27070000D01*
X42646939Y-27070000D01*
X42846898Y-27030226D01*
X43035256Y-26952205D01*
X43204774Y-26838937D01*
X43348937Y-26694774D01*
X43462205Y-26525256D01*
X43540226Y-26336898D01*
X43580000Y-26136939D01*
X43580000Y-25933061D01*
X43540226Y-25733102D01*
X43462205Y-25544744D01*
X43348937Y-25375226D01*
X43204774Y-25231063D01*
X43035256Y-25117795D01*
X42846898Y-25039774D01*
X42646939Y-25000000D01*
X42443061Y-25000000D01*
X42243102Y-25039774D01*
X42054744Y-25117795D01*
X41885226Y-25231063D01*
X41741063Y-25375226D01*
X41627795Y-25544744D01*
X41549774Y-25733102D01*
X41510000Y-25933061D01*
X41510000Y-26016000D01*
X41427061Y-26016000D01*
X41227102Y-26055774D01*
X41038744Y-26133795D01*
X40869226Y-26247063D01*
X40725063Y-26391226D01*
X40611795Y-26560744D01*
X40533774Y-26749102D01*
X40494000Y-26949061D01*
X37103000Y-26949061D01*
X37063226Y-26749102D01*
X36985205Y-26560744D01*
X36871937Y-26391226D01*
X36727774Y-26247063D01*
X36558256Y-26133795D01*
X36369898Y-26055774D01*
X36169939Y-26016000D01*
X35966061Y-26016000D01*
X35766102Y-26055774D01*
X35577744Y-26133795D01*
X35560000Y-26145651D01*
X35542256Y-26133795D01*
X35353898Y-26055774D01*
X35153939Y-26016000D01*
X34950061Y-26016000D01*
X34750102Y-26055774D01*
X34561744Y-26133795D01*
X34392226Y-26247063D01*
X34248063Y-26391226D01*
X34134795Y-26560744D01*
X34056774Y-26749102D01*
X34017000Y-26949061D01*
X30209768Y-26949061D01*
X30245000Y-26771939D01*
X30245000Y-26568061D01*
X30205226Y-26368102D01*
X30127205Y-26179744D01*
X30030490Y-26035000D01*
X30127205Y-25890256D01*
X30205226Y-25701898D01*
X30245000Y-25501939D01*
X30245000Y-25298061D01*
X30205226Y-25098102D01*
X30127205Y-24909744D01*
X30030490Y-24765000D01*
X30127205Y-24620256D01*
X30178763Y-24495786D01*
X30243744Y-24539205D01*
X30432102Y-24617226D01*
X30632061Y-24657000D01*
X30719153Y-24657000D01*
X30715000Y-24699162D01*
X30715000Y-25300837D01*
X30729976Y-25452894D01*
X30789159Y-25647992D01*
X30885266Y-25827797D01*
X31014604Y-25985396D01*
X31172203Y-26114734D01*
X31352007Y-26210841D01*
X31547105Y-26270024D01*
X31750000Y-26290007D01*
X31952894Y-26270024D01*
X32147992Y-26210841D01*
X32308106Y-26125259D01*
X32334392Y-26146831D01*
X32479284Y-26224278D01*
X32636500Y-26271969D01*
X32800000Y-26288072D01*
X33200000Y-26288072D01*
X33363500Y-26271969D01*
X33520716Y-26224278D01*
X33665608Y-26146831D01*
X33792606Y-26042606D01*
X33896831Y-25915608D01*
X33974278Y-25770716D01*
X34021969Y-25613500D01*
X34038072Y-25450000D01*
X34038072Y-24699162D01*
X44199000Y-24699162D01*
X44199000Y-25300837D01*
X44213976Y-25452894D01*
X44273159Y-25647992D01*
X44369266Y-25827797D01*
X44498604Y-25985396D01*
X44656203Y-26114734D01*
X44836007Y-26210841D01*
X45031105Y-26270024D01*
X45234000Y-26290007D01*
X45436894Y-26270024D01*
X45631992Y-26210841D01*
X45811797Y-26114734D01*
X45859000Y-26075996D01*
X45906203Y-26114734D01*
X46086007Y-26210841D01*
X46281105Y-26270024D01*
X46484000Y-26290007D01*
X46686894Y-26270024D01*
X46881992Y-26210841D01*
X47061797Y-26114734D01*
X47109000Y-26075996D01*
X47156203Y-26114734D01*
X47336007Y-26210841D01*
X47531105Y-26270024D01*
X47734000Y-26290007D01*
X47936894Y-26270024D01*
X48131992Y-26210841D01*
X48292106Y-26125259D01*
X48318392Y-26146831D01*
X48463284Y-26224278D01*
X48620500Y-26271969D01*
X48784000Y-26288072D01*
X49184000Y-26288072D01*
X49347500Y-26271969D01*
X49504716Y-26224278D01*
X49649608Y-26146831D01*
X49776606Y-26042606D01*
X49880831Y-25915608D01*
X49958278Y-25770716D01*
X50005969Y-25613500D01*
X50022072Y-25450000D01*
X50022072Y-24699162D01*
X53215000Y-24699162D01*
X53215000Y-25300837D01*
X53229976Y-25452894D01*
X53289159Y-25647992D01*
X53385266Y-25827797D01*
X53514604Y-25985396D01*
X53672203Y-26114734D01*
X53852007Y-26210841D01*
X54047105Y-26270024D01*
X54250000Y-26290007D01*
X54452894Y-26270024D01*
X54647992Y-26210841D01*
X54827797Y-26114734D01*
X54875000Y-26075996D01*
X54922203Y-26114734D01*
X55102007Y-26210841D01*
X55297105Y-26270024D01*
X55500000Y-26290007D01*
X55702894Y-26270024D01*
X55897992Y-26210841D01*
X56077797Y-26114734D01*
X56125000Y-26075996D01*
X56172203Y-26114734D01*
X56352007Y-26210841D01*
X56547105Y-26270024D01*
X56750000Y-26290007D01*
X56952894Y-26270024D01*
X57147992Y-26210841D01*
X57229406Y-26167324D01*
X57245506Y-26180537D01*
X57355820Y-26239502D01*
X57475518Y-26275812D01*
X57600000Y-26288072D01*
X57714250Y-26285000D01*
X57873000Y-26126250D01*
X57873000Y-25127000D01*
X58127000Y-25127000D01*
X58127000Y-26126250D01*
X58285750Y-26285000D01*
X58400000Y-26288072D01*
X58524482Y-26275812D01*
X58644180Y-26239502D01*
X58754494Y-26180537D01*
X58851185Y-26101185D01*
X58930537Y-26004494D01*
X58989502Y-25894180D01*
X59025812Y-25774482D01*
X59038072Y-25650000D01*
X59035000Y-25285750D01*
X58876250Y-25127000D01*
X58127000Y-25127000D01*
X57873000Y-25127000D01*
X57853000Y-25127000D01*
X57853000Y-24873000D01*
X57873000Y-24873000D01*
X57873000Y-23873750D01*
X58127000Y-23873750D01*
X58127000Y-24873000D01*
X58876250Y-24873000D01*
X59035000Y-24714250D01*
X59038072Y-24350000D01*
X59025812Y-24225518D01*
X58989502Y-24105820D01*
X58930537Y-23995506D01*
X58851185Y-23898815D01*
X58754494Y-23819463D01*
X58644180Y-23760498D01*
X58524482Y-23724188D01*
X58400000Y-23711928D01*
X58285750Y-23715000D01*
X58127000Y-23873750D01*
X57873000Y-23873750D01*
X57714250Y-23715000D01*
X57600000Y-23711928D01*
X57475518Y-23724188D01*
X57355820Y-23760498D01*
X57245506Y-23819463D01*
X57229407Y-23832675D01*
X57147993Y-23789159D01*
X56952895Y-23729976D01*
X56750000Y-23709993D01*
X56547106Y-23729976D01*
X56352008Y-23789159D01*
X56172204Y-23885266D01*
X56125001Y-23924005D01*
X56077797Y-23885266D01*
X55897993Y-23789159D01*
X55702895Y-23729976D01*
X55500000Y-23709993D01*
X55297106Y-23729976D01*
X55102008Y-23789159D01*
X54922204Y-23885266D01*
X54875001Y-23924005D01*
X54827797Y-23885266D01*
X54647993Y-23789159D01*
X54452895Y-23729976D01*
X54250000Y-23709993D01*
X54047106Y-23729976D01*
X53852008Y-23789159D01*
X53672204Y-23885266D01*
X53514605Y-24014604D01*
X53385267Y-24172203D01*
X53289159Y-24352007D01*
X53229976Y-24547105D01*
X53215000Y-24699162D01*
X50022072Y-24699162D01*
X50022072Y-24550000D01*
X50005969Y-24386500D01*
X49958278Y-24229284D01*
X49880831Y-24084392D01*
X49776606Y-23957394D01*
X49649608Y-23853169D01*
X49504716Y-23775722D01*
X49347500Y-23728031D01*
X49184000Y-23711928D01*
X48784000Y-23711928D01*
X48620500Y-23728031D01*
X48463284Y-23775722D01*
X48318392Y-23853169D01*
X48292106Y-23874741D01*
X48131993Y-23789159D01*
X47936895Y-23729976D01*
X47734000Y-23709993D01*
X47531106Y-23729976D01*
X47336008Y-23789159D01*
X47156204Y-23885266D01*
X47109001Y-23924005D01*
X47061797Y-23885266D01*
X46881993Y-23789159D01*
X46686895Y-23729976D01*
X46484000Y-23709993D01*
X46281106Y-23729976D01*
X46086008Y-23789159D01*
X45906204Y-23885266D01*
X45859001Y-23924005D01*
X45811797Y-23885266D01*
X45631993Y-23789159D01*
X45436895Y-23729976D01*
X45234000Y-23709993D01*
X45031106Y-23729976D01*
X44836008Y-23789159D01*
X44656204Y-23885266D01*
X44498605Y-24014604D01*
X44369267Y-24172203D01*
X44273159Y-24352007D01*
X44213976Y-24547105D01*
X44199000Y-24699162D01*
X34038072Y-24699162D01*
X34038072Y-24657000D01*
X34137939Y-24657000D01*
X34337898Y-24617226D01*
X34526256Y-24539205D01*
X34695774Y-24425937D01*
X34839937Y-24281774D01*
X34953205Y-24112256D01*
X35031226Y-23923898D01*
X35071000Y-23723939D01*
X35071000Y-23520061D01*
X35031226Y-23320102D01*
X34953205Y-23131744D01*
X34941349Y-23114000D01*
X34953205Y-23096256D01*
X35031226Y-22907898D01*
X35071000Y-22707939D01*
X35071000Y-22504061D01*
X35031226Y-22304102D01*
X34953205Y-22115744D01*
X34941349Y-22098000D01*
X34953205Y-22080256D01*
X35031226Y-21891898D01*
X35071000Y-21691939D01*
X35071000Y-21488061D01*
X35031226Y-21288102D01*
X34953205Y-21099744D01*
X34839937Y-20930226D01*
X34695774Y-20786063D01*
X34544522Y-20685000D01*
X60451478Y-20685000D01*
X60300226Y-20786063D01*
G37*
X60300226Y-20786063D02*
X60156063Y-20930226D01*
X60042795Y-21099744D01*
X59964774Y-21288102D01*
X59925000Y-21488061D01*
X59925000Y-21691939D01*
X59964774Y-21891898D01*
X60042795Y-22080256D01*
X60139510Y-22225000D01*
X60042795Y-22369744D01*
X59964774Y-22558102D01*
X59925000Y-22758061D01*
X59925000Y-22961939D01*
X59964774Y-23161898D01*
X60042795Y-23350256D01*
X60139510Y-23495000D01*
X60042795Y-23639744D01*
X59964774Y-23828102D01*
X59925000Y-24028061D01*
X59925000Y-24231939D01*
X59964774Y-24431898D01*
X60042795Y-24620256D01*
X60156063Y-24789774D01*
X60300226Y-24933937D01*
X60469744Y-25047205D01*
X60658102Y-25125226D01*
X60858061Y-25165000D01*
X61061939Y-25165000D01*
X61228039Y-25131961D01*
X61195000Y-25298061D01*
X61195000Y-25501939D01*
X61234774Y-25701898D01*
X61312795Y-25890256D01*
X61426063Y-26059774D01*
X61570226Y-26203937D01*
X61739744Y-26317205D01*
X61928102Y-26395226D01*
X62128061Y-26435000D01*
X62331939Y-26435000D01*
X62531898Y-26395226D01*
X62720256Y-26317205D01*
X62869403Y-26217548D01*
X63021161Y-26444670D01*
X63555330Y-26978839D01*
X64183446Y-27398533D01*
X64881372Y-27687623D01*
X65622285Y-27835000D01*
X66377715Y-27835000D01*
X67118628Y-27687623D01*
X67816554Y-27398533D01*
X68444670Y-26978839D01*
X68978839Y-26444670D01*
X69315000Y-25941570D01*
X69315000Y-29409254D01*
X69310299Y-29397905D01*
X69142312Y-29146495D01*
X68928505Y-28932688D01*
X68677095Y-28764701D01*
X68397743Y-28648989D01*
X68101184Y-28590000D01*
X67798816Y-28590000D01*
X67502257Y-28648989D01*
X67222905Y-28764701D01*
X66971495Y-28932688D01*
X66757688Y-29146495D01*
X66589701Y-29397905D01*
X66473989Y-29677257D01*
X66415000Y-29973816D01*
X66415000Y-30276184D01*
X66473989Y-30572743D01*
X66589701Y-30852095D01*
X66757688Y-31103505D01*
X66971495Y-31317312D01*
X67222905Y-31485299D01*
X67502257Y-31601011D01*
X67552376Y-31610980D01*
X67545000Y-31648061D01*
X67545000Y-31851939D01*
X67584774Y-32051898D01*
X67662795Y-32240256D01*
X67759510Y-32385000D01*
X67662795Y-32529744D01*
X67584774Y-32718102D01*
X67545000Y-32918061D01*
X67545000Y-33121939D01*
X67584774Y-33321898D01*
X67662795Y-33510256D01*
X67759510Y-33655000D01*
X67662795Y-33799744D01*
X67584774Y-33988102D01*
X67545000Y-34188061D01*
X67545000Y-34391939D01*
X67584774Y-34591898D01*
X67662795Y-34780256D01*
X67759510Y-34925000D01*
X67662795Y-35069744D01*
X67584774Y-35258102D01*
X67545000Y-35458061D01*
X67545000Y-35661939D01*
X67584774Y-35861898D01*
X67662795Y-36050256D01*
X67776063Y-36219774D01*
X67896289Y-36340000D01*
X67798816Y-36340000D01*
X67502257Y-36398989D01*
X67222905Y-36514701D01*
X66971495Y-36682688D01*
X66757688Y-36896495D01*
X66589701Y-37147905D01*
X66473989Y-37427257D01*
X66415000Y-37723816D01*
X66415000Y-38026184D01*
X66473989Y-38322743D01*
X66589701Y-38602095D01*
X66757688Y-38853505D01*
X66971495Y-39067312D01*
X67222905Y-39235299D01*
X67502257Y-39351011D01*
X67798816Y-39410000D01*
X68101184Y-39410000D01*
X68397743Y-39351011D01*
X68677095Y-39235299D01*
X68928505Y-39067312D01*
X69142312Y-38853505D01*
X69310299Y-38602095D01*
X69315000Y-38590745D01*
X69315001Y-59977290D01*
X69239774Y-59902063D01*
X69070256Y-59788795D01*
X68881898Y-59710774D01*
X68681939Y-59671000D01*
X68478061Y-59671000D01*
X68278102Y-59710774D01*
X68089744Y-59788795D01*
X67945000Y-59885510D01*
X67800256Y-59788795D01*
X67611898Y-59710774D01*
X67411939Y-59671000D01*
X67208061Y-59671000D01*
X67008102Y-59710774D01*
X66819744Y-59788795D01*
X66675000Y-59885510D01*
X66530256Y-59788795D01*
X66341898Y-59710774D01*
X66141939Y-59671000D01*
X65938061Y-59671000D01*
X65738102Y-59710774D01*
X65549744Y-59788795D01*
X65405000Y-59885510D01*
X65260256Y-59788795D01*
X65071898Y-59710774D01*
X64871939Y-59671000D01*
X64668061Y-59671000D01*
X64468102Y-59710774D01*
X64279744Y-59788795D01*
X64135000Y-59885510D01*
X63990256Y-59788795D01*
X63801898Y-59710774D01*
X63601939Y-59671000D01*
X63398061Y-59671000D01*
X63338927Y-59682762D01*
X63487056Y-59621405D01*
X63656574Y-59508137D01*
X63800737Y-59363974D01*
X63914005Y-59194456D01*
X63992026Y-59006098D01*
X64031800Y-58806139D01*
X64031800Y-58674032D01*
X64046306Y-58685937D01*
X64156620Y-58744902D01*
X64276318Y-58781212D01*
X64400800Y-58793472D01*
X64765050Y-58790400D01*
X64923800Y-58631650D01*
X64923800Y-57882400D01*
X65177800Y-57882400D01*
X65177800Y-58631650D01*
X65336550Y-58790400D01*
X65700800Y-58793472D01*
X65825282Y-58781212D01*
X65944980Y-58744902D01*
X66055294Y-58685937D01*
X66151985Y-58606585D01*
X66231337Y-58509894D01*
X66290302Y-58399580D01*
X66326612Y-58279882D01*
X66338872Y-58155400D01*
X66335800Y-58041150D01*
X66177050Y-57882400D01*
X65177800Y-57882400D01*
X64923800Y-57882400D01*
X63924550Y-57882400D01*
X63781631Y-58025320D01*
X63656574Y-57900263D01*
X63487056Y-57786995D01*
X63298698Y-57708974D01*
X63098739Y-57669200D01*
X62894861Y-57669200D01*
X62694902Y-57708974D01*
X62506544Y-57786995D01*
X62337026Y-57900263D01*
X62192863Y-58044426D01*
X62079595Y-58213944D01*
X62001574Y-58402302D01*
X61961800Y-58602261D01*
X61961800Y-58806139D01*
X62001574Y-59006098D01*
X62079595Y-59194456D01*
X62192863Y-59363974D01*
X62337026Y-59508137D01*
X62506544Y-59621405D01*
X62694902Y-59699426D01*
X62894861Y-59739200D01*
X63098739Y-59739200D01*
X63157873Y-59727438D01*
X63009744Y-59788795D01*
X62840226Y-59902063D01*
X62696063Y-60046226D01*
X62582795Y-60215744D01*
X62504774Y-60404102D01*
X62465000Y-60604061D01*
X62465000Y-60807939D01*
X62504774Y-61007898D01*
X62582795Y-61196256D01*
X62696063Y-61365774D01*
X62840226Y-61509937D01*
X62872497Y-61531500D01*
X62840226Y-61553063D01*
X62696063Y-61697226D01*
X62582795Y-61866744D01*
X62504774Y-62055102D01*
X62465000Y-62255061D01*
X62465000Y-62458939D01*
X62504774Y-62658898D01*
X62582795Y-62847256D01*
X62696063Y-63016774D01*
X62840226Y-63160937D01*
X63009744Y-63274205D01*
X63198102Y-63352226D01*
X63219924Y-63356567D01*
X63021161Y-63555330D01*
X62702280Y-64032569D01*
X62635774Y-63966063D01*
X62466256Y-63852795D01*
X62277898Y-63774774D01*
X62077939Y-63735000D01*
X61874061Y-63735000D01*
X61674102Y-63774774D01*
X61485744Y-63852795D01*
X61316226Y-63966063D01*
X61172063Y-64110226D01*
X61058795Y-64279744D01*
X60980774Y-64468102D01*
X60941000Y-64668061D01*
X60941000Y-64871939D01*
X60980774Y-65071898D01*
X61058795Y-65260256D01*
X61155510Y-65405000D01*
X61058795Y-65549744D01*
X60980774Y-65738102D01*
X60941000Y-65938061D01*
X60941000Y-66141939D01*
X60980774Y-66341898D01*
X61058795Y-66530256D01*
X61155510Y-66675000D01*
X61058795Y-66819744D01*
X60980774Y-67008102D01*
X60941000Y-67208061D01*
X60941000Y-67411939D01*
X60980774Y-67611898D01*
X61058795Y-67800256D01*
X61155510Y-67945000D01*
X61058795Y-68089744D01*
X60980774Y-68278102D01*
X60941000Y-68478061D01*
X60941000Y-68681939D01*
X60980774Y-68881898D01*
X61058795Y-69070256D01*
X61172063Y-69239774D01*
X61247289Y-69315000D01*
X28668711Y-69315000D01*
X28743937Y-69239774D01*
X28857205Y-69070256D01*
X28935226Y-68881898D01*
X28975000Y-68681939D01*
X28975000Y-68478061D01*
X28935226Y-68278102D01*
X28857205Y-68089744D01*
X28760490Y-67945000D01*
X28857205Y-67800256D01*
X28935226Y-67611898D01*
X28975000Y-67411939D01*
X28975000Y-67208061D01*
X28935226Y-67008102D01*
X28857205Y-66819744D01*
X28760490Y-66675000D01*
X28857205Y-66530256D01*
X28935226Y-66341898D01*
X28975000Y-66141939D01*
X28975000Y-65938061D01*
X28935226Y-65738102D01*
X28898733Y-65650000D01*
X44961928Y-65650000D01*
X44974188Y-65774482D01*
X45010498Y-65894180D01*
X45069463Y-66004494D01*
X45148815Y-66101185D01*
X45245506Y-66180537D01*
X45355820Y-66239502D01*
X45475518Y-66275812D01*
X45600000Y-66288072D01*
X45714250Y-66285000D01*
X45873000Y-66126250D01*
X45873000Y-65127000D01*
X45123750Y-65127000D01*
X44965000Y-65285750D01*
X44961928Y-65650000D01*
X28898733Y-65650000D01*
X28857205Y-65549744D01*
X28760490Y-65405000D01*
X28857205Y-65260256D01*
X28935226Y-65071898D01*
X28975000Y-64871939D01*
X28975000Y-64668061D01*
X28935226Y-64468102D01*
X28857205Y-64279744D01*
X28760490Y-64135000D01*
X28857205Y-63990256D01*
X28935226Y-63801898D01*
X28962155Y-63666514D01*
X29024595Y-63817256D01*
X29137863Y-63986774D01*
X29282026Y-64130937D01*
X29451544Y-64244205D01*
X29639902Y-64322226D01*
X29839861Y-64362000D01*
X30043739Y-64362000D01*
X30243698Y-64322226D01*
X30432056Y-64244205D01*
X30601574Y-64130937D01*
X30745737Y-63986774D01*
X30859005Y-63817256D01*
X30937026Y-63628898D01*
X30976800Y-63428939D01*
X30976800Y-63245661D01*
X38055600Y-63245661D01*
X38055600Y-63449539D01*
X38095374Y-63649498D01*
X38173395Y-63837856D01*
X38286663Y-64007374D01*
X38430826Y-64151537D01*
X38600344Y-64264805D01*
X38788702Y-64342826D01*
X38988661Y-64382600D01*
X39192539Y-64382600D01*
X39356431Y-64350000D01*
X44961928Y-64350000D01*
X44965000Y-64714250D01*
X45123750Y-64873000D01*
X45873000Y-64873000D01*
X45873000Y-63873750D01*
X46127000Y-63873750D01*
X46127000Y-64873000D01*
X46147000Y-64873000D01*
X46147000Y-65127000D01*
X46127000Y-65127000D01*
X46127000Y-66126250D01*
X46285750Y-66285000D01*
X46400000Y-66288072D01*
X46524482Y-66275812D01*
X46644180Y-66239502D01*
X46754494Y-66180537D01*
X46770594Y-66167324D01*
X46852008Y-66210841D01*
X47047106Y-66270024D01*
X47250000Y-66290007D01*
X47452895Y-66270024D01*
X47647993Y-66210841D01*
X47827797Y-66114734D01*
X47875001Y-66075995D01*
X47922204Y-66114734D01*
X48102008Y-66210841D01*
X48297106Y-66270024D01*
X48500000Y-66290007D01*
X48702895Y-66270024D01*
X48897993Y-66210841D01*
X49077797Y-66114734D01*
X49125001Y-66075995D01*
X49172204Y-66114734D01*
X49352008Y-66210841D01*
X49547106Y-66270024D01*
X49750000Y-66290007D01*
X49952895Y-66270024D01*
X50147993Y-66210841D01*
X50327797Y-66114734D01*
X50485396Y-65985396D01*
X50614734Y-65827797D01*
X50709767Y-65650000D01*
X53961928Y-65650000D01*
X53974188Y-65774482D01*
X54010498Y-65894180D01*
X54069463Y-66004494D01*
X54148815Y-66101185D01*
X54245506Y-66180537D01*
X54355820Y-66239502D01*
X54475518Y-66275812D01*
X54600000Y-66288072D01*
X54714250Y-66285000D01*
X54873000Y-66126250D01*
X54873000Y-65127000D01*
X54123750Y-65127000D01*
X53965000Y-65285750D01*
X53961928Y-65650000D01*
X50709767Y-65650000D01*
X50710841Y-65647992D01*
X50770024Y-65452894D01*
X50785000Y-65300837D01*
X50785000Y-64699162D01*
X50770024Y-64547105D01*
X50710841Y-64352007D01*
X50709769Y-64350000D01*
X53961928Y-64350000D01*
X53965000Y-64714250D01*
X54123750Y-64873000D01*
X54873000Y-64873000D01*
X54873000Y-63873750D01*
X55127000Y-63873750D01*
X55127000Y-64873000D01*
X55147000Y-64873000D01*
X55147000Y-65127000D01*
X55127000Y-65127000D01*
X55127000Y-66126250D01*
X55285750Y-66285000D01*
X55400000Y-66288072D01*
X55524482Y-66275812D01*
X55644180Y-66239502D01*
X55754494Y-66180537D01*
X55770594Y-66167324D01*
X55852008Y-66210841D01*
X56047106Y-66270024D01*
X56250000Y-66290007D01*
X56452895Y-66270024D01*
X56647993Y-66210841D01*
X56827797Y-66114734D01*
X56875001Y-66075995D01*
X56922204Y-66114734D01*
X57102008Y-66210841D01*
X57297106Y-66270024D01*
X57500000Y-66290007D01*
X57702895Y-66270024D01*
X57897993Y-66210841D01*
X58077797Y-66114734D01*
X58125001Y-66075995D01*
X58172204Y-66114734D01*
X58352008Y-66210841D01*
X58547106Y-66270024D01*
X58750000Y-66290007D01*
X58952895Y-66270024D01*
X59147993Y-66210841D01*
X59327797Y-66114734D01*
X59485396Y-65985396D01*
X59614734Y-65827797D01*
X59710841Y-65647992D01*
X59770024Y-65452894D01*
X59785000Y-65300837D01*
X59785000Y-64699162D01*
X59770024Y-64547105D01*
X59710841Y-64352007D01*
X59614734Y-64172203D01*
X59485396Y-64014604D01*
X59327797Y-63885266D01*
X59147992Y-63789159D01*
X58952894Y-63729976D01*
X58750000Y-63709993D01*
X58547105Y-63729976D01*
X58352007Y-63789159D01*
X58172203Y-63885266D01*
X58125000Y-63924004D01*
X58077797Y-63885266D01*
X57897992Y-63789159D01*
X57702894Y-63729976D01*
X57500000Y-63709993D01*
X57297105Y-63729976D01*
X57102007Y-63789159D01*
X56922203Y-63885266D01*
X56875000Y-63924004D01*
X56827797Y-63885266D01*
X56647992Y-63789159D01*
X56452894Y-63729976D01*
X56250000Y-63709993D01*
X56047105Y-63729976D01*
X55852007Y-63789159D01*
X55770593Y-63832675D01*
X55754494Y-63819463D01*
X55644180Y-63760498D01*
X55524482Y-63724188D01*
X55400000Y-63711928D01*
X55285750Y-63715000D01*
X55127000Y-63873750D01*
X54873000Y-63873750D01*
X54714250Y-63715000D01*
X54600000Y-63711928D01*
X54475518Y-63724188D01*
X54355820Y-63760498D01*
X54245506Y-63819463D01*
X54148815Y-63898815D01*
X54069463Y-63995506D01*
X54010498Y-64105820D01*
X53974188Y-64225518D01*
X53961928Y-64350000D01*
X50709769Y-64350000D01*
X50614734Y-64172203D01*
X50485396Y-64014604D01*
X50327797Y-63885266D01*
X50147992Y-63789159D01*
X49952894Y-63729976D01*
X49750000Y-63709993D01*
X49547105Y-63729976D01*
X49352007Y-63789159D01*
X49172203Y-63885266D01*
X49125000Y-63924004D01*
X49077797Y-63885266D01*
X48897992Y-63789159D01*
X48702894Y-63729976D01*
X48500000Y-63709993D01*
X48297105Y-63729976D01*
X48102007Y-63789159D01*
X47922203Y-63885266D01*
X47875000Y-63924004D01*
X47827797Y-63885266D01*
X47647992Y-63789159D01*
X47452894Y-63729976D01*
X47250000Y-63709993D01*
X47047105Y-63729976D01*
X46852007Y-63789159D01*
X46770593Y-63832675D01*
X46754494Y-63819463D01*
X46644180Y-63760498D01*
X46524482Y-63724188D01*
X46400000Y-63711928D01*
X46285750Y-63715000D01*
X46127000Y-63873750D01*
X45873000Y-63873750D01*
X45714250Y-63715000D01*
X45600000Y-63711928D01*
X45475518Y-63724188D01*
X45355820Y-63760498D01*
X45245506Y-63819463D01*
X45148815Y-63898815D01*
X45069463Y-63995506D01*
X45010498Y-64105820D01*
X44974188Y-64225518D01*
X44961928Y-64350000D01*
X39356431Y-64350000D01*
X39392498Y-64342826D01*
X39580856Y-64264805D01*
X39750374Y-64151537D01*
X39894537Y-64007374D01*
X40007805Y-63837856D01*
X40085826Y-63649498D01*
X40125600Y-63449539D01*
X40125600Y-63245661D01*
X40085826Y-63045702D01*
X40065963Y-62997748D01*
X40173937Y-62889774D01*
X40287205Y-62720256D01*
X40365226Y-62531898D01*
X40405000Y-62331939D01*
X40405000Y-62128061D01*
X52305000Y-62128061D01*
X52305000Y-62331939D01*
X52344774Y-62531898D01*
X52422795Y-62720256D01*
X52536063Y-62889774D01*
X52680226Y-63033937D01*
X52849744Y-63147205D01*
X53038102Y-63225226D01*
X53238061Y-63265000D01*
X53441939Y-63265000D01*
X53641898Y-63225226D01*
X53830256Y-63147205D01*
X53975000Y-63050490D01*
X54119744Y-63147205D01*
X54308102Y-63225226D01*
X54508061Y-63265000D01*
X54711939Y-63265000D01*
X54911898Y-63225226D01*
X55100256Y-63147205D01*
X55269774Y-63033937D01*
X55413937Y-62889774D01*
X55527205Y-62720256D01*
X55605226Y-62531898D01*
X55645000Y-62331939D01*
X55645000Y-62128061D01*
X58655000Y-62128061D01*
X58655000Y-62331939D01*
X58694774Y-62531898D01*
X58772795Y-62720256D01*
X58886063Y-62889774D01*
X59030226Y-63033937D01*
X59199744Y-63147205D01*
X59388102Y-63225226D01*
X59588061Y-63265000D01*
X59791939Y-63265000D01*
X59991898Y-63225226D01*
X60180256Y-63147205D01*
X60349774Y-63033937D01*
X60493937Y-62889774D01*
X60607205Y-62720256D01*
X60685226Y-62531898D01*
X60725000Y-62331939D01*
X60725000Y-62128061D01*
X60685226Y-61928102D01*
X60607205Y-61739744D01*
X60493937Y-61570226D01*
X60349774Y-61426063D01*
X60180256Y-61312795D01*
X59991898Y-61234774D01*
X59791939Y-61195000D01*
X59588061Y-61195000D01*
X59388102Y-61234774D01*
X59199744Y-61312795D01*
X59030226Y-61426063D01*
X58886063Y-61570226D01*
X58772795Y-61739744D01*
X58694774Y-61928102D01*
X58655000Y-62128061D01*
X55645000Y-62128061D01*
X55605226Y-61928102D01*
X55527205Y-61739744D01*
X55413937Y-61570226D01*
X55269774Y-61426063D01*
X55100256Y-61312795D01*
X54911898Y-61234774D01*
X54711939Y-61195000D01*
X54508061Y-61195000D01*
X54308102Y-61234774D01*
X54119744Y-61312795D01*
X53975000Y-61409510D01*
X53830256Y-61312795D01*
X53641898Y-61234774D01*
X53441939Y-61195000D01*
X53238061Y-61195000D01*
X53038102Y-61234774D01*
X52849744Y-61312795D01*
X52680226Y-61426063D01*
X52536063Y-61570226D01*
X52422795Y-61739744D01*
X52344774Y-61928102D01*
X52305000Y-62128061D01*
X40405000Y-62128061D01*
X40365226Y-61928102D01*
X40287205Y-61739744D01*
X40173937Y-61570226D01*
X40029774Y-61426063D01*
X39860256Y-61312795D01*
X39794720Y-61285649D01*
X39801174Y-61281337D01*
X39945337Y-61137174D01*
X40058605Y-60967656D01*
X40135564Y-60781861D01*
X40875000Y-60781861D01*
X40875000Y-60985739D01*
X40914774Y-61185698D01*
X40992795Y-61374056D01*
X41106063Y-61543574D01*
X41250226Y-61687737D01*
X41419744Y-61801005D01*
X41608102Y-61879026D01*
X41808061Y-61918800D01*
X42011939Y-61918800D01*
X42211898Y-61879026D01*
X42400256Y-61801005D01*
X42569774Y-61687737D01*
X42713937Y-61543574D01*
X42827205Y-61374056D01*
X42905226Y-61185698D01*
X42945000Y-60985739D01*
X42945000Y-60781861D01*
X42905226Y-60581902D01*
X42827205Y-60393544D01*
X42713937Y-60224026D01*
X42569774Y-60079863D01*
X42400256Y-59966595D01*
X42211898Y-59888574D01*
X42011939Y-59848800D01*
X41808061Y-59848800D01*
X41608102Y-59888574D01*
X41419744Y-59966595D01*
X41250226Y-60079863D01*
X41106063Y-60224026D01*
X40992795Y-60393544D01*
X40914774Y-60581902D01*
X40875000Y-60781861D01*
X40135564Y-60781861D01*
X40136626Y-60779298D01*
X40176400Y-60579339D01*
X40176400Y-60375461D01*
X40136626Y-60175502D01*
X40058605Y-59987144D01*
X39945337Y-59817626D01*
X39918972Y-59791261D01*
X56419800Y-59791261D01*
X56419800Y-59995139D01*
X56459574Y-60195098D01*
X56537595Y-60383456D01*
X56650863Y-60552974D01*
X56795026Y-60697137D01*
X56964544Y-60810405D01*
X57152902Y-60888426D01*
X57352861Y-60928200D01*
X57556739Y-60928200D01*
X57756698Y-60888426D01*
X57945056Y-60810405D01*
X58114574Y-60697137D01*
X58258737Y-60552974D01*
X58372005Y-60383456D01*
X58450026Y-60195098D01*
X58489800Y-59995139D01*
X58489800Y-59791261D01*
X58450026Y-59591302D01*
X58372005Y-59402944D01*
X58258737Y-59233426D01*
X58114574Y-59089263D01*
X57945056Y-58975995D01*
X57756698Y-58897974D01*
X57556739Y-58858200D01*
X57352861Y-58858200D01*
X57152902Y-58897974D01*
X56964544Y-58975995D01*
X56795026Y-59089263D01*
X56650863Y-59233426D01*
X56537595Y-59402944D01*
X56459574Y-59591302D01*
X56419800Y-59791261D01*
X39918972Y-59791261D01*
X39801174Y-59673463D01*
X39631656Y-59560195D01*
X39443298Y-59482174D01*
X39243339Y-59442400D01*
X39039461Y-59442400D01*
X38839502Y-59482174D01*
X38651144Y-59560195D01*
X38481626Y-59673463D01*
X38337463Y-59817626D01*
X38224195Y-59987144D01*
X38146174Y-60175502D01*
X38106400Y-60375461D01*
X38106400Y-60579339D01*
X38146174Y-60779298D01*
X38224195Y-60967656D01*
X38337463Y-61137174D01*
X38481626Y-61281337D01*
X38651144Y-61394605D01*
X38716680Y-61421751D01*
X38710226Y-61426063D01*
X38566063Y-61570226D01*
X38452795Y-61739744D01*
X38374774Y-61928102D01*
X38335000Y-62128061D01*
X38335000Y-62331939D01*
X38374774Y-62531898D01*
X38394637Y-62579852D01*
X38286663Y-62687826D01*
X38173395Y-62857344D01*
X38095374Y-63045702D01*
X38055600Y-63245661D01*
X30976800Y-63245661D01*
X30976800Y-63225061D01*
X30937026Y-63025102D01*
X30859005Y-62836744D01*
X30745737Y-62667226D01*
X30601574Y-62523063D01*
X30432056Y-62409795D01*
X30244931Y-62332285D01*
X30245000Y-62331939D01*
X30245000Y-62128061D01*
X30205226Y-61928102D01*
X30127205Y-61739744D01*
X30013937Y-61570226D01*
X29869774Y-61426063D01*
X29700256Y-61312795D01*
X29511898Y-61234774D01*
X29311939Y-61195000D01*
X29108061Y-61195000D01*
X28908102Y-61234774D01*
X28719744Y-61312795D01*
X28575000Y-61409510D01*
X28430256Y-61312795D01*
X28241898Y-61234774D01*
X28041939Y-61195000D01*
X27838061Y-61195000D01*
X27638102Y-61234774D01*
X27449744Y-61312795D01*
X27305000Y-61409510D01*
X27160256Y-61312795D01*
X26971898Y-61234774D01*
X26771939Y-61195000D01*
X26568061Y-61195000D01*
X26368102Y-61234774D01*
X26179744Y-61312795D01*
X26010226Y-61426063D01*
X25866063Y-61570226D01*
X25752795Y-61739744D01*
X25674774Y-61928102D01*
X25635000Y-62128061D01*
X25635000Y-62331939D01*
X25674774Y-62531898D01*
X25680195Y-62544985D01*
X25118628Y-62312377D01*
X25111529Y-62310965D01*
X25125226Y-62277898D01*
X25165000Y-62077939D01*
X25165000Y-61874061D01*
X25125226Y-61674102D01*
X25047205Y-61485744D01*
X24933937Y-61316226D01*
X24789774Y-61172063D01*
X24620256Y-61058795D01*
X24431898Y-60980774D01*
X24231939Y-60941000D01*
X24028061Y-60941000D01*
X23828102Y-60980774D01*
X23639744Y-61058795D01*
X23495000Y-61155510D01*
X23350256Y-61058795D01*
X23161898Y-60980774D01*
X22961939Y-60941000D01*
X22758061Y-60941000D01*
X22558102Y-60980774D01*
X22369744Y-61058795D01*
X22225000Y-61155510D01*
X22080256Y-61058795D01*
X21891898Y-60980774D01*
X21691939Y-60941000D01*
X21488061Y-60941000D01*
X21288102Y-60980774D01*
X21099744Y-61058795D01*
X20930226Y-61172063D01*
X20786063Y-61316226D01*
X20685000Y-61467478D01*
X20685000Y-48983207D01*
X20782010Y-49217411D01*
X20944525Y-49460632D01*
X21151368Y-49667475D01*
X21394589Y-49829990D01*
X21664842Y-49941932D01*
X21951740Y-49999000D01*
X22244260Y-49999000D01*
X22531158Y-49941932D01*
X22801411Y-49829990D01*
X23044632Y-49667475D01*
X23176487Y-49535620D01*
X23198498Y-49608180D01*
X23253000Y-49710145D01*
X23253001Y-54287961D01*
X23246300Y-54356000D01*
X23273040Y-54627507D01*
X23352236Y-54888580D01*
X23460328Y-55090805D01*
X23460328Y-56216400D01*
X23472588Y-56340882D01*
X23508898Y-56460580D01*
X23567863Y-56570894D01*
X23647215Y-56667585D01*
X23743906Y-56746937D01*
X23854220Y-56805902D01*
X23973918Y-56842212D01*
X24098400Y-56854472D01*
X24515562Y-56854472D01*
X24429201Y-56890244D01*
X24128656Y-57091062D01*
X23873062Y-57346656D01*
X23672244Y-57647201D01*
X23533918Y-57981150D01*
X23463400Y-58335668D01*
X23463400Y-58697132D01*
X23533918Y-59051650D01*
X23672244Y-59385599D01*
X23873062Y-59686144D01*
X24128656Y-59941738D01*
X24429201Y-60142556D01*
X24763150Y-60280882D01*
X25117668Y-60351400D01*
X25479132Y-60351400D01*
X25833650Y-60280882D01*
X26167599Y-60142556D01*
X26468144Y-59941738D01*
X26723738Y-59686144D01*
X26924556Y-59385599D01*
X27062882Y-59051650D01*
X27133400Y-58697132D01*
X27133400Y-58335668D01*
X27062882Y-57981150D01*
X26924556Y-57647201D01*
X26723738Y-57346656D01*
X26468144Y-57091062D01*
X26167599Y-56890244D01*
X26081238Y-56854472D01*
X26498400Y-56854472D01*
X26622882Y-56842212D01*
X26742580Y-56805902D01*
X26852894Y-56746937D01*
X26949585Y-56667585D01*
X27028937Y-56570894D01*
X27087902Y-56460580D01*
X27124212Y-56340882D01*
X27136472Y-56216400D01*
X27136472Y-55938800D01*
X29875328Y-55938800D01*
X29875328Y-56938800D01*
X29887588Y-57063282D01*
X29923898Y-57182980D01*
X29982863Y-57293294D01*
X30062215Y-57389985D01*
X30158906Y-57469337D01*
X30269220Y-57528302D01*
X30388918Y-57564612D01*
X30513400Y-57576872D01*
X31513400Y-57576872D01*
X31637882Y-57564612D01*
X31757580Y-57528302D01*
X31867894Y-57469337D01*
X31964585Y-57389985D01*
X32043937Y-57293294D01*
X32102902Y-57182980D01*
X32139212Y-57063282D01*
X32151472Y-56938800D01*
X32151472Y-55938800D01*
X32139212Y-55814318D01*
X32102902Y-55694620D01*
X32058512Y-55611574D01*
X32104783Y-55499867D01*
X32125232Y-55397061D01*
X36455400Y-55397061D01*
X36455400Y-55600939D01*
X36495174Y-55800898D01*
X36573195Y-55989256D01*
X36669910Y-56134000D01*
X36573195Y-56278744D01*
X36495174Y-56467102D01*
X36455400Y-56667061D01*
X36455400Y-56870939D01*
X36495174Y-57070898D01*
X36573195Y-57259256D01*
X36686463Y-57428774D01*
X36830626Y-57572937D01*
X37000144Y-57686205D01*
X37188502Y-57764226D01*
X37388461Y-57804000D01*
X37592339Y-57804000D01*
X37792298Y-57764226D01*
X37980656Y-57686205D01*
X38150174Y-57572937D01*
X38294337Y-57428774D01*
X38407605Y-57259256D01*
X38453001Y-57149661D01*
X43542000Y-57149661D01*
X43542000Y-57353539D01*
X43581774Y-57553498D01*
X43659795Y-57741856D01*
X43773063Y-57911374D01*
X43917226Y-58055537D01*
X44086744Y-58168805D01*
X44275102Y-58246826D01*
X44475061Y-58286600D01*
X44678939Y-58286600D01*
X44878898Y-58246826D01*
X45067256Y-58168805D01*
X45236774Y-58055537D01*
X45380937Y-57911374D01*
X45494205Y-57741856D01*
X45572226Y-57553498D01*
X45612000Y-57353539D01*
X45612000Y-57149661D01*
X45572226Y-56949702D01*
X45494205Y-56761344D01*
X45380937Y-56591826D01*
X45236774Y-56447663D01*
X45067256Y-56334395D01*
X44878898Y-56256374D01*
X44678939Y-56216600D01*
X44475061Y-56216600D01*
X44275102Y-56256374D01*
X44086744Y-56334395D01*
X43917226Y-56447663D01*
X43773063Y-56591826D01*
X43659795Y-56761344D01*
X43581774Y-56949702D01*
X43542000Y-57149661D01*
X38453001Y-57149661D01*
X38485626Y-57070898D01*
X38525400Y-56870939D01*
X38525400Y-56667061D01*
X38485626Y-56467102D01*
X38407605Y-56278744D01*
X38310890Y-56134000D01*
X38407605Y-55989256D01*
X38485626Y-55800898D01*
X38525400Y-55600939D01*
X38525400Y-55397061D01*
X38485626Y-55197102D01*
X38407605Y-55008744D01*
X38294337Y-54839226D01*
X38150174Y-54695063D01*
X37980656Y-54581795D01*
X37792298Y-54503774D01*
X37592339Y-54464000D01*
X37388461Y-54464000D01*
X37188502Y-54503774D01*
X37000144Y-54581795D01*
X36830626Y-54695063D01*
X36686463Y-54839226D01*
X36573195Y-55008744D01*
X36495174Y-55197102D01*
X36455400Y-55397061D01*
X32125232Y-55397061D01*
X32148400Y-55280588D01*
X32148400Y-55057012D01*
X32104783Y-54837733D01*
X32019224Y-54631176D01*
X31895012Y-54445280D01*
X31736920Y-54287188D01*
X31551024Y-54162976D01*
X31344467Y-54077417D01*
X31125188Y-54033800D01*
X30901612Y-54033800D01*
X30682333Y-54077417D01*
X30475776Y-54162976D01*
X30289880Y-54287188D01*
X30131788Y-54445280D01*
X30007576Y-54631176D01*
X29922017Y-54837733D01*
X29878400Y-55057012D01*
X29878400Y-55280588D01*
X29922017Y-55499867D01*
X29968288Y-55611574D01*
X29923898Y-55694620D01*
X29887588Y-55814318D01*
X29875328Y-55938800D01*
X27136472Y-55938800D01*
X27136472Y-54000061D01*
X42119600Y-54000061D01*
X42119600Y-54203939D01*
X42159374Y-54403898D01*
X42237395Y-54592256D01*
X42350663Y-54761774D01*
X42494826Y-54905937D01*
X42664344Y-55019205D01*
X42852702Y-55097226D01*
X43052661Y-55137000D01*
X43256539Y-55137000D01*
X43456498Y-55097226D01*
X43644856Y-55019205D01*
X43814374Y-54905937D01*
X43958537Y-54761774D01*
X44071805Y-54592256D01*
X44149826Y-54403898D01*
X44189600Y-54203939D01*
X44189600Y-54000061D01*
X44149826Y-53800102D01*
X44141774Y-53780661D01*
X48088600Y-53780661D01*
X48088600Y-53984539D01*
X48128374Y-54184498D01*
X48206395Y-54372856D01*
X48319663Y-54542374D01*
X48447229Y-54669940D01*
X48418800Y-54812861D01*
X48418800Y-55016739D01*
X48458574Y-55216698D01*
X48536595Y-55405056D01*
X48649863Y-55574574D01*
X48794026Y-55718737D01*
X48963544Y-55832005D01*
X49151902Y-55910026D01*
X49351861Y-55949800D01*
X49555739Y-55949800D01*
X49755698Y-55910026D01*
X49944056Y-55832005D01*
X50113574Y-55718737D01*
X50257737Y-55574574D01*
X50371005Y-55405056D01*
X50449026Y-55216698D01*
X50488800Y-55016739D01*
X50488800Y-54812861D01*
X50449026Y-54612902D01*
X50416121Y-54533461D01*
X52457400Y-54533461D01*
X52457400Y-54737339D01*
X52497174Y-54937298D01*
X52575195Y-55125656D01*
X52688463Y-55295174D01*
X52832626Y-55439337D01*
X53002144Y-55552605D01*
X53190502Y-55630626D01*
X53390461Y-55670400D01*
X53594339Y-55670400D01*
X53794298Y-55630626D01*
X53982656Y-55552605D01*
X54152174Y-55439337D01*
X54296337Y-55295174D01*
X54409605Y-55125656D01*
X54487626Y-54937298D01*
X54527400Y-54737339D01*
X54527400Y-54533461D01*
X54487626Y-54333502D01*
X54409605Y-54145144D01*
X54316232Y-54005400D01*
X63760793Y-54005400D01*
X63780776Y-54208295D01*
X63839959Y-54403393D01*
X63936066Y-54583197D01*
X63974804Y-54630400D01*
X63936066Y-54677603D01*
X63839959Y-54857407D01*
X63780776Y-55052505D01*
X63760793Y-55255400D01*
X63780776Y-55458295D01*
X63839959Y-55653393D01*
X63936066Y-55833197D01*
X63974804Y-55880400D01*
X63936066Y-55927603D01*
X63839959Y-56107407D01*
X63780776Y-56302505D01*
X63760793Y-56505400D01*
X63780776Y-56708295D01*
X63839959Y-56903393D01*
X63883475Y-56984807D01*
X63870263Y-57000906D01*
X63811298Y-57111220D01*
X63774988Y-57230918D01*
X63762728Y-57355400D01*
X63765800Y-57469650D01*
X63924550Y-57628400D01*
X64923800Y-57628400D01*
X64923800Y-57608400D01*
X65177800Y-57608400D01*
X65177800Y-57628400D01*
X66177050Y-57628400D01*
X66335800Y-57469650D01*
X66338872Y-57355400D01*
X66326612Y-57230918D01*
X66290302Y-57111220D01*
X66231337Y-57000906D01*
X66218125Y-56984807D01*
X66261641Y-56903393D01*
X66320824Y-56708295D01*
X66340807Y-56505400D01*
X66320824Y-56302505D01*
X66261641Y-56107407D01*
X66165534Y-55927603D01*
X66126796Y-55880400D01*
X66165534Y-55833197D01*
X66261641Y-55653393D01*
X66320824Y-55458295D01*
X66340807Y-55255400D01*
X66320824Y-55052505D01*
X66261641Y-54857407D01*
X66165534Y-54677603D01*
X66126796Y-54630400D01*
X66165534Y-54583197D01*
X66261641Y-54403393D01*
X66320824Y-54208295D01*
X66340807Y-54005400D01*
X66320824Y-53802505D01*
X66261641Y-53607407D01*
X66165534Y-53427603D01*
X66036196Y-53270004D01*
X65878597Y-53140666D01*
X65698793Y-53044559D01*
X65503695Y-52985376D01*
X65351638Y-52970400D01*
X64749962Y-52970400D01*
X64597905Y-52985376D01*
X64402807Y-53044559D01*
X64223003Y-53140666D01*
X64065404Y-53270004D01*
X63936066Y-53427603D01*
X63839959Y-53607407D01*
X63780776Y-53802505D01*
X63760793Y-54005400D01*
X54316232Y-54005400D01*
X54296337Y-53975626D01*
X54152174Y-53831463D01*
X53982656Y-53718195D01*
X53794298Y-53640174D01*
X53594339Y-53600400D01*
X53390461Y-53600400D01*
X53190502Y-53640174D01*
X53002144Y-53718195D01*
X52832626Y-53831463D01*
X52688463Y-53975626D01*
X52575195Y-54145144D01*
X52497174Y-54333502D01*
X52457400Y-54533461D01*
X50416121Y-54533461D01*
X50371005Y-54424544D01*
X50257737Y-54255026D01*
X50130171Y-54127460D01*
X50158600Y-53984539D01*
X50158600Y-53780661D01*
X50118826Y-53580702D01*
X50040805Y-53392344D01*
X49927537Y-53222826D01*
X49783374Y-53078663D01*
X49613856Y-52965395D01*
X49425498Y-52887374D01*
X49225539Y-52847600D01*
X49021661Y-52847600D01*
X48821702Y-52887374D01*
X48633344Y-52965395D01*
X48463826Y-53078663D01*
X48319663Y-53222826D01*
X48206395Y-53392344D01*
X48128374Y-53580702D01*
X48088600Y-53780661D01*
X44141774Y-53780661D01*
X44071805Y-53611744D01*
X43958537Y-53442226D01*
X43814374Y-53298063D01*
X43644856Y-53184795D01*
X43456498Y-53106774D01*
X43256539Y-53067000D01*
X43052661Y-53067000D01*
X42852702Y-53106774D01*
X42664344Y-53184795D01*
X42494826Y-53298063D01*
X42350663Y-53442226D01*
X42237395Y-53611744D01*
X42159374Y-53800102D01*
X42119600Y-54000061D01*
X27136472Y-54000061D01*
X27136472Y-53816400D01*
X27124212Y-53691918D01*
X27087902Y-53572220D01*
X27028937Y-53461906D01*
X26949585Y-53365215D01*
X26852894Y-53285863D01*
X26742580Y-53226898D01*
X26622882Y-53190588D01*
X26498400Y-53178328D01*
X26023000Y-53178328D01*
X26023000Y-52857061D01*
X31502400Y-52857061D01*
X31502400Y-53060939D01*
X31542174Y-53260898D01*
X31620195Y-53449256D01*
X31733463Y-53618774D01*
X31877626Y-53762937D01*
X32047144Y-53876205D01*
X32235502Y-53954226D01*
X32435461Y-53994000D01*
X32639339Y-53994000D01*
X32839298Y-53954226D01*
X33027656Y-53876205D01*
X33197174Y-53762937D01*
X33341337Y-53618774D01*
X33454605Y-53449256D01*
X33532626Y-53260898D01*
X33572400Y-53060939D01*
X33572400Y-52857061D01*
X33532626Y-52657102D01*
X33454605Y-52468744D01*
X33341337Y-52299226D01*
X33197174Y-52155063D01*
X33027656Y-52041795D01*
X32839298Y-51963774D01*
X32639339Y-51924000D01*
X32435461Y-51924000D01*
X32235502Y-51963774D01*
X32047144Y-52041795D01*
X31877626Y-52155063D01*
X31733463Y-52299226D01*
X31620195Y-52468744D01*
X31542174Y-52657102D01*
X31502400Y-52857061D01*
X26023000Y-52857061D01*
X26023000Y-51307661D01*
X36277600Y-51307661D01*
X36277600Y-51511539D01*
X36317374Y-51711498D01*
X36395395Y-51899856D01*
X36508663Y-52069374D01*
X36652826Y-52213537D01*
X36822344Y-52326805D01*
X37010702Y-52404826D01*
X37210661Y-52444600D01*
X37414539Y-52444600D01*
X37614498Y-52404826D01*
X37802856Y-52326805D01*
X37972374Y-52213537D01*
X38116537Y-52069374D01*
X38229805Y-51899856D01*
X38307826Y-51711498D01*
X38347600Y-51511539D01*
X38347600Y-51307661D01*
X38307826Y-51107702D01*
X38229805Y-50919344D01*
X38116537Y-50749826D01*
X37972374Y-50605663D01*
X37802856Y-50492395D01*
X37614498Y-50414374D01*
X37414539Y-50374600D01*
X37210661Y-50374600D01*
X37010702Y-50414374D01*
X36822344Y-50492395D01*
X36652826Y-50605663D01*
X36508663Y-50749826D01*
X36395395Y-50919344D01*
X36317374Y-51107702D01*
X36277600Y-51307661D01*
X26023000Y-51307661D01*
X26023000Y-49710144D01*
X26077502Y-49608180D01*
X26093601Y-49555108D01*
X26231368Y-49692875D01*
X26474589Y-49855390D01*
X26744842Y-49967332D01*
X27031740Y-50024400D01*
X27324260Y-50024400D01*
X27611158Y-49967332D01*
X27881411Y-49855390D01*
X28124632Y-49692875D01*
X28160846Y-49656661D01*
X29140200Y-49656661D01*
X29140200Y-49860539D01*
X29179974Y-50060498D01*
X29257995Y-50248856D01*
X29371263Y-50418374D01*
X29515426Y-50562537D01*
X29684944Y-50675805D01*
X29873302Y-50753826D01*
X30073261Y-50793600D01*
X30277139Y-50793600D01*
X30477098Y-50753826D01*
X30665456Y-50675805D01*
X30834974Y-50562537D01*
X30979137Y-50418374D01*
X31092405Y-50248856D01*
X31170426Y-50060498D01*
X31210200Y-49860539D01*
X31210200Y-49732861D01*
X31375400Y-49732861D01*
X31375400Y-49936739D01*
X31415174Y-50136698D01*
X31493195Y-50325056D01*
X31606463Y-50494574D01*
X31750626Y-50638737D01*
X31920144Y-50752005D01*
X32108502Y-50830026D01*
X32308461Y-50869800D01*
X32512339Y-50869800D01*
X32712298Y-50830026D01*
X32900656Y-50752005D01*
X33070174Y-50638737D01*
X33172400Y-50536511D01*
X33274626Y-50638737D01*
X33444144Y-50752005D01*
X33632502Y-50830026D01*
X33832461Y-50869800D01*
X34036339Y-50869800D01*
X34236298Y-50830026D01*
X34424656Y-50752005D01*
X34594174Y-50638737D01*
X34738337Y-50494574D01*
X34851605Y-50325056D01*
X34929626Y-50136698D01*
X34969400Y-49936739D01*
X34969400Y-49732861D01*
X47402800Y-49732861D01*
X47402800Y-49936739D01*
X47442574Y-50136698D01*
X47520595Y-50325056D01*
X47633863Y-50494574D01*
X47778026Y-50638737D01*
X47947544Y-50752005D01*
X48135902Y-50830026D01*
X48335861Y-50869800D01*
X48416846Y-50869800D01*
X48485795Y-51036256D01*
X48599063Y-51205774D01*
X48743226Y-51349937D01*
X48912744Y-51463205D01*
X49101102Y-51541226D01*
X49301061Y-51581000D01*
X49504939Y-51581000D01*
X49704898Y-51541226D01*
X49893256Y-51463205D01*
X50062774Y-51349937D01*
X50155850Y-51256861D01*
X64446200Y-51256861D01*
X64446200Y-51460739D01*
X64485974Y-51660698D01*
X64563995Y-51849056D01*
X64677263Y-52018574D01*
X64821426Y-52162737D01*
X64990944Y-52276005D01*
X65179302Y-52354026D01*
X65379261Y-52393800D01*
X65583139Y-52393800D01*
X65783098Y-52354026D01*
X65971456Y-52276005D01*
X66140974Y-52162737D01*
X66285137Y-52018574D01*
X66398405Y-51849056D01*
X66476426Y-51660698D01*
X66516200Y-51460739D01*
X66516200Y-51256861D01*
X66476426Y-51056902D01*
X66398405Y-50868544D01*
X66285137Y-50699026D01*
X66140974Y-50554863D01*
X65971456Y-50441595D01*
X65783098Y-50363574D01*
X65583139Y-50323800D01*
X65379261Y-50323800D01*
X65179302Y-50363574D01*
X64990944Y-50441595D01*
X64821426Y-50554863D01*
X64677263Y-50699026D01*
X64563995Y-50868544D01*
X64485974Y-51056902D01*
X64446200Y-51256861D01*
X50155850Y-51256861D01*
X50206937Y-51205774D01*
X50320205Y-51036256D01*
X50398226Y-50847898D01*
X50438000Y-50647939D01*
X50438000Y-50444061D01*
X50398226Y-50244102D01*
X50320205Y-50055744D01*
X50206937Y-49886226D01*
X50062774Y-49742063D01*
X49893256Y-49628795D01*
X49704898Y-49550774D01*
X49504939Y-49511000D01*
X49423954Y-49511000D01*
X49355005Y-49344544D01*
X49241737Y-49175026D01*
X49097574Y-49030863D01*
X48928056Y-48917595D01*
X48739698Y-48839574D01*
X48539739Y-48799800D01*
X48335861Y-48799800D01*
X48135902Y-48839574D01*
X47947544Y-48917595D01*
X47778026Y-49030863D01*
X47633863Y-49175026D01*
X47520595Y-49344544D01*
X47442574Y-49532902D01*
X47402800Y-49732861D01*
X34969400Y-49732861D01*
X34929626Y-49532902D01*
X34851605Y-49344544D01*
X34738337Y-49175026D01*
X34594174Y-49030863D01*
X34424656Y-48917595D01*
X34236298Y-48839574D01*
X34036339Y-48799800D01*
X33832461Y-48799800D01*
X33632502Y-48839574D01*
X33444144Y-48917595D01*
X33274626Y-49030863D01*
X33172400Y-49133089D01*
X33070174Y-49030863D01*
X32900656Y-48917595D01*
X32712298Y-48839574D01*
X32512339Y-48799800D01*
X32308461Y-48799800D01*
X32108502Y-48839574D01*
X31920144Y-48917595D01*
X31750626Y-49030863D01*
X31606463Y-49175026D01*
X31493195Y-49344544D01*
X31415174Y-49532902D01*
X31375400Y-49732861D01*
X31210200Y-49732861D01*
X31210200Y-49656661D01*
X31170426Y-49456702D01*
X31092405Y-49268344D01*
X30979137Y-49098826D01*
X30834974Y-48954663D01*
X30665456Y-48841395D01*
X30477098Y-48763374D01*
X30277139Y-48723600D01*
X30073261Y-48723600D01*
X29873302Y-48763374D01*
X29684944Y-48841395D01*
X29515426Y-48954663D01*
X29371263Y-49098826D01*
X29257995Y-49268344D01*
X29179974Y-49456702D01*
X29140200Y-49656661D01*
X28160846Y-49656661D01*
X28331475Y-49486032D01*
X28493990Y-49242811D01*
X28605932Y-48972558D01*
X28663000Y-48685660D01*
X28663000Y-48393140D01*
X28605932Y-48106242D01*
X28493990Y-47835989D01*
X28427254Y-47736111D01*
X34294800Y-47736111D01*
X34294800Y-47920289D01*
X34330732Y-48100929D01*
X34401214Y-48271089D01*
X34417000Y-48294714D01*
X34417000Y-48514000D01*
X34419440Y-48538776D01*
X34426667Y-48562601D01*
X34438403Y-48584557D01*
X34454197Y-48603803D01*
X34473443Y-48619597D01*
X34495399Y-48631333D01*
X34519224Y-48638560D01*
X34544000Y-48641000D01*
X34763286Y-48641000D01*
X34786911Y-48656786D01*
X34957071Y-48727268D01*
X35137711Y-48763200D01*
X35321889Y-48763200D01*
X35502529Y-48727268D01*
X35672689Y-48656786D01*
X35696314Y-48641000D01*
X38989000Y-48641000D01*
X39013776Y-48638560D01*
X39037601Y-48631333D01*
X39059557Y-48619597D01*
X39078803Y-48603803D01*
X39094597Y-48584557D01*
X39106333Y-48562601D01*
X39113560Y-48538776D01*
X39116000Y-48514000D01*
X39116000Y-46863000D01*
X39677539Y-46863000D01*
X39644774Y-46942102D01*
X39605000Y-47142061D01*
X39605000Y-47345939D01*
X39644774Y-47545898D01*
X39722795Y-47734256D01*
X39836063Y-47903774D01*
X39980226Y-48047937D01*
X40149744Y-48161205D01*
X40338102Y-48239226D01*
X40538061Y-48279000D01*
X40741939Y-48279000D01*
X40941898Y-48239226D01*
X41130256Y-48161205D01*
X41299774Y-48047937D01*
X41443937Y-47903774D01*
X41557205Y-47734256D01*
X41635226Y-47545898D01*
X41675000Y-47345939D01*
X41675000Y-47142061D01*
X41635226Y-46942102D01*
X41602461Y-46863000D01*
X43672089Y-46863000D01*
X43646063Y-46889026D01*
X43532795Y-47058544D01*
X43454774Y-47246902D01*
X43415000Y-47446861D01*
X43415000Y-47650739D01*
X43454774Y-47850698D01*
X43532795Y-48039056D01*
X43561623Y-48082200D01*
X43532795Y-48125344D01*
X43454774Y-48313702D01*
X43415000Y-48513661D01*
X43415000Y-48717539D01*
X43454774Y-48917498D01*
X43532795Y-49105856D01*
X43646063Y-49275374D01*
X43790226Y-49419537D01*
X43959744Y-49532805D01*
X44148102Y-49610826D01*
X44348061Y-49650600D01*
X44551939Y-49650600D01*
X44751898Y-49610826D01*
X44940256Y-49532805D01*
X45109774Y-49419537D01*
X45253937Y-49275374D01*
X45367205Y-49105856D01*
X45445226Y-48917498D01*
X45485000Y-48717539D01*
X45485000Y-48513661D01*
X45445226Y-48313702D01*
X45367205Y-48125344D01*
X45338377Y-48082200D01*
X45367205Y-48039056D01*
X45445226Y-47850698D01*
X45485000Y-47650739D01*
X45485000Y-47446861D01*
X45445226Y-47246902D01*
X45367205Y-47058544D01*
X45253937Y-46889026D01*
X45109774Y-46744863D01*
X44940256Y-46631595D01*
X44751898Y-46553574D01*
X44551939Y-46513800D01*
X44348061Y-46513800D01*
X44148102Y-46553574D01*
X43959744Y-46631595D01*
X43942000Y-46643451D01*
X43942000Y-45837511D01*
X43968026Y-45863537D01*
X44137544Y-45976805D01*
X44325902Y-46054826D01*
X44525861Y-46094600D01*
X44729739Y-46094600D01*
X44929698Y-46054826D01*
X45118056Y-45976805D01*
X45287574Y-45863537D01*
X45431737Y-45719374D01*
X45545005Y-45549856D01*
X45623026Y-45361498D01*
X45662800Y-45161539D01*
X45662800Y-44957661D01*
X45623026Y-44757702D01*
X45545005Y-44569344D01*
X45431737Y-44399826D01*
X45287574Y-44255663D01*
X45265988Y-44241240D01*
X45389461Y-44265800D01*
X45593339Y-44265800D01*
X45793298Y-44226026D01*
X45944071Y-44163573D01*
X45971195Y-44229056D01*
X46084463Y-44398574D01*
X46228626Y-44542737D01*
X46398144Y-44656005D01*
X46568918Y-44726742D01*
X46578974Y-44777298D01*
X46656995Y-44965656D01*
X46770263Y-45135174D01*
X46914426Y-45279337D01*
X47083944Y-45392605D01*
X47272302Y-45470626D01*
X47384936Y-45493030D01*
X47418995Y-45575256D01*
X47430851Y-45593000D01*
X47418995Y-45610744D01*
X47340974Y-45799102D01*
X47301200Y-45999061D01*
X47301200Y-46202939D01*
X47340974Y-46402898D01*
X47415824Y-46583600D01*
X47340974Y-46764302D01*
X47301200Y-46964261D01*
X47301200Y-47168139D01*
X47340974Y-47368098D01*
X47418995Y-47556456D01*
X47532263Y-47725974D01*
X47676426Y-47870137D01*
X47845944Y-47983405D01*
X48034302Y-48061426D01*
X48234261Y-48101200D01*
X48438139Y-48101200D01*
X48638098Y-48061426D01*
X48826456Y-47983405D01*
X48995974Y-47870137D01*
X49140137Y-47725974D01*
X49253405Y-47556456D01*
X49331426Y-47368098D01*
X49371200Y-47168139D01*
X49371200Y-47040461D01*
X50882600Y-47040461D01*
X50882600Y-47244339D01*
X50922374Y-47444298D01*
X50997224Y-47625000D01*
X50922374Y-47805702D01*
X50882600Y-48005661D01*
X50882600Y-48209539D01*
X50922374Y-48409498D01*
X51000395Y-48597856D01*
X51003765Y-48602900D01*
X51000395Y-48607944D01*
X50922374Y-48796302D01*
X50882600Y-48996261D01*
X50882600Y-49200139D01*
X50922374Y-49400098D01*
X51000395Y-49588456D01*
X51113663Y-49757974D01*
X51257826Y-49902137D01*
X51427344Y-50015405D01*
X51615702Y-50093426D01*
X51815661Y-50133200D01*
X52019539Y-50133200D01*
X52219498Y-50093426D01*
X52407856Y-50015405D01*
X52577374Y-49902137D01*
X52721537Y-49757974D01*
X52834805Y-49588456D01*
X52912826Y-49400098D01*
X52952600Y-49200139D01*
X52952600Y-48996261D01*
X52912826Y-48796302D01*
X52834805Y-48607944D01*
X52831435Y-48602900D01*
X52834805Y-48597856D01*
X52912826Y-48409498D01*
X52952600Y-48209539D01*
X52952600Y-48005661D01*
X52912826Y-47805702D01*
X52837976Y-47625000D01*
X52912826Y-47444298D01*
X52952600Y-47244339D01*
X52952600Y-47218261D01*
X57308800Y-47218261D01*
X57308800Y-47422139D01*
X57348574Y-47622098D01*
X57426595Y-47810456D01*
X57539863Y-47979974D01*
X57684026Y-48124137D01*
X57853544Y-48237405D01*
X58041902Y-48315426D01*
X58241861Y-48355200D01*
X58445739Y-48355200D01*
X58484300Y-48347530D01*
X58491574Y-48384098D01*
X58569595Y-48572456D01*
X58682863Y-48741974D01*
X58827026Y-48886137D01*
X58996544Y-48999405D01*
X59184902Y-49077426D01*
X59384861Y-49117200D01*
X59588739Y-49117200D01*
X59788698Y-49077426D01*
X59977056Y-48999405D01*
X60146574Y-48886137D01*
X60290737Y-48741974D01*
X60404005Y-48572456D01*
X60482026Y-48384098D01*
X60521800Y-48184139D01*
X60521800Y-47980261D01*
X60482026Y-47780302D01*
X60404005Y-47591944D01*
X60290737Y-47422426D01*
X60146574Y-47278263D01*
X59977056Y-47164995D01*
X59788698Y-47086974D01*
X59588739Y-47047200D01*
X59384861Y-47047200D01*
X59346300Y-47054870D01*
X59339026Y-47018302D01*
X59261005Y-46829944D01*
X59147737Y-46660426D01*
X59003574Y-46516263D01*
X58834056Y-46402995D01*
X58645698Y-46324974D01*
X58445739Y-46285200D01*
X58241861Y-46285200D01*
X58041902Y-46324974D01*
X57853544Y-46402995D01*
X57684026Y-46516263D01*
X57539863Y-46660426D01*
X57426595Y-46829944D01*
X57348574Y-47018302D01*
X57308800Y-47218261D01*
X52952600Y-47218261D01*
X52952600Y-47040461D01*
X52912826Y-46840502D01*
X52834805Y-46652144D01*
X52721537Y-46482626D01*
X52577374Y-46338463D01*
X52407856Y-46225195D01*
X52219498Y-46147174D01*
X52019539Y-46107400D01*
X51815661Y-46107400D01*
X51615702Y-46147174D01*
X51427344Y-46225195D01*
X51257826Y-46338463D01*
X51113663Y-46482626D01*
X51000395Y-46652144D01*
X50922374Y-46840502D01*
X50882600Y-47040461D01*
X49371200Y-47040461D01*
X49371200Y-46964261D01*
X49331426Y-46764302D01*
X49256576Y-46583600D01*
X49331426Y-46402898D01*
X49371200Y-46202939D01*
X49371200Y-45999061D01*
X49331426Y-45799102D01*
X49253405Y-45610744D01*
X49241549Y-45593000D01*
X49253405Y-45575256D01*
X49331426Y-45386898D01*
X49371200Y-45186939D01*
X49371200Y-45084661D01*
X54489400Y-45084661D01*
X54489400Y-45288539D01*
X54529174Y-45488498D01*
X54607195Y-45676856D01*
X54720463Y-45846374D01*
X54864626Y-45990537D01*
X55034144Y-46103805D01*
X55222502Y-46181826D01*
X55422461Y-46221600D01*
X55503921Y-46221600D01*
X55519774Y-46301298D01*
X55597795Y-46489656D01*
X55711063Y-46659174D01*
X55855226Y-46803337D01*
X56024744Y-46916605D01*
X56213102Y-46994626D01*
X56413061Y-47034400D01*
X56616939Y-47034400D01*
X56816898Y-46994626D01*
X57005256Y-46916605D01*
X57174774Y-46803337D01*
X57318937Y-46659174D01*
X57432205Y-46489656D01*
X57510226Y-46301298D01*
X57550000Y-46101339D01*
X57550000Y-45897461D01*
X57510226Y-45697502D01*
X57432205Y-45509144D01*
X57318937Y-45339626D01*
X57174774Y-45195463D01*
X57005256Y-45082195D01*
X56816898Y-45004174D01*
X56616939Y-44964400D01*
X56535479Y-44964400D01*
X56519626Y-44884702D01*
X56497242Y-44830661D01*
X64116000Y-44830661D01*
X64116000Y-45034539D01*
X64155774Y-45234498D01*
X64233795Y-45422856D01*
X64347063Y-45592374D01*
X64491226Y-45736537D01*
X64660744Y-45849805D01*
X64849102Y-45927826D01*
X65049061Y-45967600D01*
X65252939Y-45967600D01*
X65452898Y-45927826D01*
X65641256Y-45849805D01*
X65810774Y-45736537D01*
X65954937Y-45592374D01*
X66068205Y-45422856D01*
X66146226Y-45234498D01*
X66186000Y-45034539D01*
X66186000Y-44830661D01*
X66146226Y-44630702D01*
X66068205Y-44442344D01*
X65954937Y-44272826D01*
X65810774Y-44128663D01*
X65641256Y-44015395D01*
X65452898Y-43937374D01*
X65252939Y-43897600D01*
X65049061Y-43897600D01*
X64849102Y-43937374D01*
X64660744Y-44015395D01*
X64491226Y-44128663D01*
X64347063Y-44272826D01*
X64233795Y-44442344D01*
X64155774Y-44630702D01*
X64116000Y-44830661D01*
X56497242Y-44830661D01*
X56441605Y-44696344D01*
X56328337Y-44526826D01*
X56184174Y-44382663D01*
X56014656Y-44269395D01*
X55826298Y-44191374D01*
X55626339Y-44151600D01*
X55422461Y-44151600D01*
X55222502Y-44191374D01*
X55034144Y-44269395D01*
X54864626Y-44382663D01*
X54720463Y-44526826D01*
X54607195Y-44696344D01*
X54529174Y-44884702D01*
X54489400Y-45084661D01*
X49371200Y-45084661D01*
X49371200Y-44983061D01*
X49331426Y-44783102D01*
X49253405Y-44594744D01*
X49140137Y-44425226D01*
X48995974Y-44281063D01*
X48826456Y-44167795D01*
X48638098Y-44089774D01*
X48525464Y-44067370D01*
X48491405Y-43985144D01*
X48378137Y-43815626D01*
X48233974Y-43671463D01*
X48064456Y-43558195D01*
X47893682Y-43487458D01*
X47883626Y-43436902D01*
X47805605Y-43248544D01*
X47692337Y-43079026D01*
X47548174Y-42934863D01*
X47378656Y-42821595D01*
X47190298Y-42743574D01*
X46990339Y-42703800D01*
X46786461Y-42703800D01*
X46586502Y-42743574D01*
X46435729Y-42806027D01*
X46408605Y-42740544D01*
X46311664Y-42595461D01*
X48698200Y-42595461D01*
X48698200Y-42799339D01*
X48737974Y-42999298D01*
X48815995Y-43187656D01*
X48929263Y-43357174D01*
X49073426Y-43501337D01*
X49242944Y-43614605D01*
X49431302Y-43692626D01*
X49631261Y-43732400D01*
X49835139Y-43732400D01*
X50035098Y-43692626D01*
X50223456Y-43614605D01*
X50392974Y-43501337D01*
X50537137Y-43357174D01*
X50650405Y-43187656D01*
X50728426Y-42999298D01*
X50768200Y-42799339D01*
X50768200Y-42595461D01*
X50728426Y-42395502D01*
X50650405Y-42207144D01*
X50537137Y-42037626D01*
X50392974Y-41893463D01*
X50223456Y-41780195D01*
X50035098Y-41702174D01*
X49835139Y-41662400D01*
X49631261Y-41662400D01*
X49431302Y-41702174D01*
X49242944Y-41780195D01*
X49073426Y-41893463D01*
X48929263Y-42037626D01*
X48815995Y-42207144D01*
X48737974Y-42395502D01*
X48698200Y-42595461D01*
X46311664Y-42595461D01*
X46295337Y-42571026D01*
X46151174Y-42426863D01*
X45981656Y-42313595D01*
X45793298Y-42235574D01*
X45593339Y-42195800D01*
X45389461Y-42195800D01*
X45189502Y-42235574D01*
X45008800Y-42310424D01*
X44828098Y-42235574D01*
X44628139Y-42195800D01*
X44424261Y-42195800D01*
X44224302Y-42235574D01*
X44035944Y-42313595D01*
X43866426Y-42426863D01*
X43722263Y-42571026D01*
X43608995Y-42740544D01*
X43530974Y-42928902D01*
X43491200Y-43128861D01*
X43491200Y-43332739D01*
X43530974Y-43532698D01*
X43595303Y-43688000D01*
X39116000Y-43688000D01*
X39116000Y-41665314D01*
X39131786Y-41641689D01*
X39202268Y-41471529D01*
X39238200Y-41290889D01*
X39238200Y-41106711D01*
X39202268Y-40926071D01*
X39131786Y-40755911D01*
X39116000Y-40732286D01*
X39116000Y-40665061D01*
X54997400Y-40665061D01*
X54997400Y-40868939D01*
X55037174Y-41068898D01*
X55115195Y-41257256D01*
X55228463Y-41426774D01*
X55372626Y-41570937D01*
X55542144Y-41684205D01*
X55730502Y-41762226D01*
X55930461Y-41802000D01*
X56134339Y-41802000D01*
X56334298Y-41762226D01*
X56522656Y-41684205D01*
X56692174Y-41570937D01*
X56836337Y-41426774D01*
X56949605Y-41257256D01*
X57027626Y-41068898D01*
X57067400Y-40868939D01*
X57067400Y-40665061D01*
X57027626Y-40465102D01*
X56949605Y-40276744D01*
X56836337Y-40107226D01*
X56692174Y-39963063D01*
X56522656Y-39849795D01*
X56334298Y-39771774D01*
X56134339Y-39732000D01*
X55930461Y-39732000D01*
X55730502Y-39771774D01*
X55542144Y-39849795D01*
X55372626Y-39963063D01*
X55228463Y-40107226D01*
X55115195Y-40276744D01*
X55037174Y-40465102D01*
X54997400Y-40665061D01*
X39116000Y-40665061D01*
X39116000Y-40513000D01*
X39113560Y-40488224D01*
X39106333Y-40464399D01*
X39094597Y-40442443D01*
X39078803Y-40423197D01*
X39059557Y-40407403D01*
X39037601Y-40395667D01*
X39013776Y-40388440D01*
X38989000Y-40386000D01*
X38769714Y-40386000D01*
X38746089Y-40370214D01*
X38575929Y-40299732D01*
X38395289Y-40263800D01*
X38211111Y-40263800D01*
X38030471Y-40299732D01*
X37860311Y-40370214D01*
X37836686Y-40386000D01*
X34544000Y-40386000D01*
X34519224Y-40388440D01*
X34495399Y-40395667D01*
X34473443Y-40407403D01*
X34454197Y-40423197D01*
X34438403Y-40442443D01*
X34426667Y-40464399D01*
X34419440Y-40488224D01*
X34417000Y-40513000D01*
X34417000Y-47361686D01*
X34401214Y-47385311D01*
X34330732Y-47555471D01*
X34294800Y-47736111D01*
X28427254Y-47736111D01*
X28331475Y-47592768D01*
X28124632Y-47385925D01*
X27950240Y-47269400D01*
X28124632Y-47152875D01*
X28331475Y-46946032D01*
X28493990Y-46702811D01*
X28605932Y-46432558D01*
X28663000Y-46145660D01*
X28663000Y-45853140D01*
X28605932Y-45566242D01*
X28493990Y-45295989D01*
X28331475Y-45052768D01*
X28124632Y-44845925D01*
X27950240Y-44729400D01*
X28124632Y-44612875D01*
X28331475Y-44406032D01*
X28493990Y-44162811D01*
X28605932Y-43892558D01*
X28663000Y-43605660D01*
X28663000Y-43313140D01*
X28605932Y-43026242D01*
X28493990Y-42755989D01*
X28331475Y-42512768D01*
X28124632Y-42305925D01*
X27950240Y-42189400D01*
X28124632Y-42072875D01*
X28331475Y-41866032D01*
X28493990Y-41622811D01*
X28605932Y-41352558D01*
X28663000Y-41065660D01*
X28663000Y-40773140D01*
X28605932Y-40486242D01*
X28493990Y-40215989D01*
X28331475Y-39972768D01*
X28124632Y-39765925D01*
X28000618Y-39683061D01*
X31722400Y-39683061D01*
X31722400Y-39886939D01*
X31762174Y-40086898D01*
X31840195Y-40275256D01*
X31953463Y-40444774D01*
X32097626Y-40588937D01*
X32267144Y-40702205D01*
X32455502Y-40780226D01*
X32655461Y-40820000D01*
X32859339Y-40820000D01*
X33059298Y-40780226D01*
X33247656Y-40702205D01*
X33417174Y-40588937D01*
X33561337Y-40444774D01*
X33674605Y-40275256D01*
X33752626Y-40086898D01*
X33792400Y-39886939D01*
X33792400Y-39683061D01*
X33752626Y-39483102D01*
X33674605Y-39294744D01*
X33656777Y-39268061D01*
X38766800Y-39268061D01*
X38766800Y-39471939D01*
X38806574Y-39671898D01*
X38884595Y-39860256D01*
X38997863Y-40029774D01*
X39142026Y-40173937D01*
X39311544Y-40287205D01*
X39499902Y-40365226D01*
X39699861Y-40405000D01*
X39903739Y-40405000D01*
X40103698Y-40365226D01*
X40292056Y-40287205D01*
X40461574Y-40173937D01*
X40605737Y-40029774D01*
X40719005Y-39860256D01*
X40797026Y-39671898D01*
X40836800Y-39471939D01*
X40836800Y-39268061D01*
X40797026Y-39068102D01*
X40719005Y-38879744D01*
X40605737Y-38710226D01*
X40461574Y-38566063D01*
X40292056Y-38452795D01*
X40103698Y-38374774D01*
X39903739Y-38335000D01*
X39699861Y-38335000D01*
X39499902Y-38374774D01*
X39311544Y-38452795D01*
X39142026Y-38566063D01*
X38997863Y-38710226D01*
X38884595Y-38879744D01*
X38806574Y-39068102D01*
X38766800Y-39268061D01*
X33656777Y-39268061D01*
X33561337Y-39125226D01*
X33417174Y-38981063D01*
X33247656Y-38867795D01*
X33059298Y-38789774D01*
X32859339Y-38750000D01*
X32655461Y-38750000D01*
X32455502Y-38789774D01*
X32267144Y-38867795D01*
X32097626Y-38981063D01*
X31953463Y-39125226D01*
X31840195Y-39294744D01*
X31762174Y-39483102D01*
X31722400Y-39683061D01*
X28000618Y-39683061D01*
X27950240Y-39649400D01*
X28124632Y-39532875D01*
X28331475Y-39326032D01*
X28493990Y-39082811D01*
X28605932Y-38812558D01*
X28663000Y-38525660D01*
X28663000Y-38233140D01*
X28605932Y-37946242D01*
X28493990Y-37675989D01*
X28331475Y-37432768D01*
X28124632Y-37225925D01*
X27950240Y-37109400D01*
X28124632Y-36992875D01*
X28331475Y-36786032D01*
X28493990Y-36542811D01*
X28605932Y-36272558D01*
X28663000Y-35985660D01*
X28663000Y-35693140D01*
X28605932Y-35406242D01*
X28493990Y-35135989D01*
X28331475Y-34892768D01*
X28124632Y-34685925D01*
X27950240Y-34569400D01*
X28079455Y-34483061D01*
X34667600Y-34483061D01*
X34667600Y-34686939D01*
X34707374Y-34886898D01*
X34785395Y-35075256D01*
X34898663Y-35244774D01*
X35042826Y-35388937D01*
X35212344Y-35502205D01*
X35400702Y-35580226D01*
X35600661Y-35620000D01*
X35804539Y-35620000D01*
X36004498Y-35580226D01*
X36192856Y-35502205D01*
X36362374Y-35388937D01*
X36496450Y-35254861D01*
X39655800Y-35254861D01*
X39655800Y-35458739D01*
X39695574Y-35658698D01*
X39773595Y-35847056D01*
X39886863Y-36016574D01*
X40031026Y-36160737D01*
X40200544Y-36274005D01*
X40388902Y-36352026D01*
X40588861Y-36391800D01*
X40792739Y-36391800D01*
X40798800Y-36390594D01*
X40798800Y-36550939D01*
X40838574Y-36750898D01*
X40886907Y-36867584D01*
X40875264Y-36879227D01*
X40761996Y-37048745D01*
X40683975Y-37237103D01*
X40644201Y-37437062D01*
X40644201Y-37640940D01*
X40683975Y-37840899D01*
X40761996Y-38029257D01*
X40875264Y-38198775D01*
X41019427Y-38342938D01*
X41188945Y-38456206D01*
X41377303Y-38534227D01*
X41577262Y-38574001D01*
X41781140Y-38574001D01*
X41981099Y-38534227D01*
X42169457Y-38456206D01*
X42338975Y-38342938D01*
X42483138Y-38198775D01*
X42588233Y-38041489D01*
X42551400Y-38226661D01*
X42551400Y-38430539D01*
X42591174Y-38630498D01*
X42669195Y-38818856D01*
X42782463Y-38988374D01*
X42926626Y-39132537D01*
X43096144Y-39245805D01*
X43284502Y-39323826D01*
X43484461Y-39363600D01*
X43688339Y-39363600D01*
X43888298Y-39323826D01*
X44022925Y-39268061D01*
X44786600Y-39268061D01*
X44786600Y-39471939D01*
X44826374Y-39671898D01*
X44904395Y-39860256D01*
X45017663Y-40029774D01*
X45161826Y-40173937D01*
X45331344Y-40287205D01*
X45519702Y-40365226D01*
X45719661Y-40405000D01*
X45923539Y-40405000D01*
X46123498Y-40365226D01*
X46311856Y-40287205D01*
X46393100Y-40232920D01*
X46474344Y-40287205D01*
X46662702Y-40365226D01*
X46862661Y-40405000D01*
X47066539Y-40405000D01*
X47266498Y-40365226D01*
X47454856Y-40287205D01*
X47624374Y-40173937D01*
X47768537Y-40029774D01*
X47881805Y-39860256D01*
X47959826Y-39671898D01*
X47999600Y-39471939D01*
X47999600Y-39268061D01*
X47959826Y-39068102D01*
X47881805Y-38879744D01*
X47768537Y-38710226D01*
X47624374Y-38566063D01*
X47454856Y-38452795D01*
X47266498Y-38374774D01*
X47066539Y-38335000D01*
X46862661Y-38335000D01*
X46662702Y-38374774D01*
X46474344Y-38452795D01*
X46393100Y-38507080D01*
X46311856Y-38452795D01*
X46123498Y-38374774D01*
X45923539Y-38335000D01*
X45719661Y-38335000D01*
X45519702Y-38374774D01*
X45331344Y-38452795D01*
X45161826Y-38566063D01*
X45017663Y-38710226D01*
X44904395Y-38879744D01*
X44826374Y-39068102D01*
X44786600Y-39268061D01*
X44022925Y-39268061D01*
X44076656Y-39245805D01*
X44246174Y-39132537D01*
X44390337Y-38988374D01*
X44503605Y-38818856D01*
X44581626Y-38630498D01*
X44621400Y-38430539D01*
X44621400Y-38226661D01*
X44581626Y-38026702D01*
X44503605Y-37838344D01*
X44390337Y-37668826D01*
X44285478Y-37563967D01*
X62515000Y-37563967D01*
X62515000Y-37886033D01*
X62577832Y-38201912D01*
X62701082Y-38499463D01*
X62880013Y-38767252D01*
X63107748Y-38994987D01*
X63375537Y-39173918D01*
X63673088Y-39297168D01*
X63988967Y-39360000D01*
X64311033Y-39360000D01*
X64626912Y-39297168D01*
X64924463Y-39173918D01*
X65192252Y-38994987D01*
X65419987Y-38767252D01*
X65598918Y-38499463D01*
X65722168Y-38201912D01*
X65785000Y-37886033D01*
X65785000Y-37563967D01*
X65748117Y-37378544D01*
X65859774Y-37303937D01*
X66003937Y-37159774D01*
X66117205Y-36990256D01*
X66195226Y-36801898D01*
X66235000Y-36601939D01*
X66235000Y-36576489D01*
X66341898Y-36555226D01*
X66530256Y-36477205D01*
X66699774Y-36363937D01*
X66843937Y-36219774D01*
X66957205Y-36050256D01*
X67035226Y-35861898D01*
X67075000Y-35661939D01*
X67075000Y-35458061D01*
X67035226Y-35258102D01*
X66957205Y-35069744D01*
X66843937Y-34900226D01*
X66699774Y-34756063D01*
X66530256Y-34642795D01*
X66341898Y-34564774D01*
X66212802Y-34539095D01*
X66240298Y-34533626D01*
X66428656Y-34455605D01*
X66598174Y-34342337D01*
X66742337Y-34198174D01*
X66855605Y-34028656D01*
X66933626Y-33840298D01*
X66973400Y-33640339D01*
X66973400Y-33436461D01*
X66933626Y-33236502D01*
X66855605Y-33048144D01*
X66742337Y-32878626D01*
X66598174Y-32734463D01*
X66428656Y-32621195D01*
X66240298Y-32543174D01*
X66040339Y-32503400D01*
X65836461Y-32503400D01*
X65636502Y-32543174D01*
X65448144Y-32621195D01*
X65278626Y-32734463D01*
X65134463Y-32878626D01*
X65021195Y-33048144D01*
X64943174Y-33236502D01*
X64903400Y-33436461D01*
X64903400Y-33640339D01*
X64943174Y-33840298D01*
X65021195Y-34028656D01*
X65134463Y-34198174D01*
X65278626Y-34342337D01*
X65448144Y-34455605D01*
X65636502Y-34533626D01*
X65765598Y-34559305D01*
X65738102Y-34564774D01*
X65549744Y-34642795D01*
X65380226Y-34756063D01*
X65236063Y-34900226D01*
X65122795Y-35069744D01*
X65044774Y-35258102D01*
X65005000Y-35458061D01*
X65005000Y-35483511D01*
X64898102Y-35504774D01*
X64709744Y-35582795D01*
X64540226Y-35696063D01*
X64396063Y-35840226D01*
X64282795Y-36009744D01*
X64249552Y-36090000D01*
X63988967Y-36090000D01*
X63673088Y-36152832D01*
X63375537Y-36276082D01*
X63107748Y-36455013D01*
X62880013Y-36682748D01*
X62701082Y-36950537D01*
X62577832Y-37248088D01*
X62515000Y-37563967D01*
X44285478Y-37563967D01*
X44246174Y-37524663D01*
X44076656Y-37411395D01*
X43888298Y-37333374D01*
X43688339Y-37293600D01*
X43484461Y-37293600D01*
X43284502Y-37333374D01*
X43096144Y-37411395D01*
X42926626Y-37524663D01*
X42782463Y-37668826D01*
X42677368Y-37826112D01*
X42714201Y-37640940D01*
X42714201Y-37437062D01*
X42674427Y-37237103D01*
X42626094Y-37120417D01*
X42637737Y-37108774D01*
X42751005Y-36939256D01*
X42829026Y-36750898D01*
X42868800Y-36550939D01*
X42868800Y-36347061D01*
X42829026Y-36147102D01*
X42751005Y-35958744D01*
X42671036Y-35839061D01*
X43542800Y-35839061D01*
X43542800Y-36042939D01*
X43582574Y-36242898D01*
X43660595Y-36431256D01*
X43773863Y-36600774D01*
X43918026Y-36744937D01*
X44087544Y-36858205D01*
X44275902Y-36936226D01*
X44475861Y-36976000D01*
X44679739Y-36976000D01*
X44879698Y-36936226D01*
X45068056Y-36858205D01*
X45237574Y-36744937D01*
X45381737Y-36600774D01*
X45495005Y-36431256D01*
X45573026Y-36242898D01*
X45612800Y-36042939D01*
X45612800Y-35839061D01*
X45573026Y-35639102D01*
X45495005Y-35450744D01*
X45381737Y-35281226D01*
X45237574Y-35137063D01*
X45068056Y-35023795D01*
X44879698Y-34945774D01*
X44679739Y-34906000D01*
X44475861Y-34906000D01*
X44275902Y-34945774D01*
X44087544Y-35023795D01*
X43918026Y-35137063D01*
X43773863Y-35281226D01*
X43660595Y-35450744D01*
X43582574Y-35639102D01*
X43542800Y-35839061D01*
X42671036Y-35839061D01*
X42637737Y-35789226D01*
X42559148Y-35710637D01*
X42569774Y-35703537D01*
X42713937Y-35559374D01*
X42827205Y-35389856D01*
X42905226Y-35201498D01*
X42945000Y-35001539D01*
X42945000Y-34797661D01*
X42905226Y-34597702D01*
X42827205Y-34409344D01*
X42713937Y-34239826D01*
X42569774Y-34095663D01*
X42400256Y-33982395D01*
X42334933Y-33955337D01*
X42493574Y-33849337D01*
X42637737Y-33705174D01*
X42751005Y-33535656D01*
X42829026Y-33347298D01*
X42868800Y-33147339D01*
X42868800Y-32943461D01*
X42829026Y-32743502D01*
X42751005Y-32555144D01*
X42637737Y-32385626D01*
X42493574Y-32241463D01*
X42324056Y-32128195D01*
X42135698Y-32050174D01*
X41935739Y-32010400D01*
X41731861Y-32010400D01*
X41531902Y-32050174D01*
X41343544Y-32128195D01*
X41174026Y-32241463D01*
X41029863Y-32385626D01*
X40916595Y-32555144D01*
X40838574Y-32743502D01*
X40798800Y-32943461D01*
X40798800Y-33147339D01*
X40838574Y-33347298D01*
X40916595Y-33535656D01*
X41029863Y-33705174D01*
X41174026Y-33849337D01*
X41343544Y-33962605D01*
X41408867Y-33989663D01*
X41250226Y-34095663D01*
X41106063Y-34239826D01*
X41017774Y-34371961D01*
X40992698Y-34361574D01*
X40792739Y-34321800D01*
X40588861Y-34321800D01*
X40388902Y-34361574D01*
X40200544Y-34439595D01*
X40031026Y-34552863D01*
X39886863Y-34697026D01*
X39773595Y-34866544D01*
X39695574Y-35054902D01*
X39655800Y-35254861D01*
X36496450Y-35254861D01*
X36506537Y-35244774D01*
X36619805Y-35075256D01*
X36697826Y-34886898D01*
X36737600Y-34686939D01*
X36737600Y-34483061D01*
X36697826Y-34283102D01*
X36619805Y-34094744D01*
X36506537Y-33925226D01*
X36362374Y-33781063D01*
X36192856Y-33667795D01*
X36004498Y-33589774D01*
X35804539Y-33550000D01*
X35600661Y-33550000D01*
X35400702Y-33589774D01*
X35212344Y-33667795D01*
X35042826Y-33781063D01*
X34898663Y-33925226D01*
X34785395Y-34094744D01*
X34707374Y-34283102D01*
X34667600Y-34483061D01*
X28079455Y-34483061D01*
X28124632Y-34452875D01*
X28331475Y-34246032D01*
X28493990Y-34002811D01*
X28605932Y-33732558D01*
X28663000Y-33445660D01*
X28663000Y-33299061D01*
X38157200Y-33299061D01*
X38157200Y-33502939D01*
X38196974Y-33702898D01*
X38274995Y-33891256D01*
X38388263Y-34060774D01*
X38532426Y-34204937D01*
X38701944Y-34318205D01*
X38890302Y-34396226D01*
X39090261Y-34436000D01*
X39294139Y-34436000D01*
X39494098Y-34396226D01*
X39682456Y-34318205D01*
X39851974Y-34204937D01*
X39996137Y-34060774D01*
X40109405Y-33891256D01*
X40187426Y-33702898D01*
X40227200Y-33502939D01*
X40227200Y-33299061D01*
X40187426Y-33099102D01*
X40109405Y-32910744D01*
X39996137Y-32741226D01*
X39851974Y-32597063D01*
X39682456Y-32483795D01*
X39494098Y-32405774D01*
X39294139Y-32366000D01*
X39090261Y-32366000D01*
X38890302Y-32405774D01*
X38701944Y-32483795D01*
X38532426Y-32597063D01*
X38388263Y-32741226D01*
X38274995Y-32910744D01*
X38196974Y-33099102D01*
X38157200Y-33299061D01*
X28663000Y-33299061D01*
X28663000Y-33153140D01*
X28605932Y-32866242D01*
X28493990Y-32595989D01*
X28331475Y-32352768D01*
X28199620Y-32220913D01*
X28272180Y-32198902D01*
X28352328Y-32156061D01*
X34880600Y-32156061D01*
X34880600Y-32359939D01*
X34920374Y-32559898D01*
X34998395Y-32748256D01*
X35111663Y-32917774D01*
X35255826Y-33061937D01*
X35425344Y-33175205D01*
X35613702Y-33253226D01*
X35813661Y-33293000D01*
X36017539Y-33293000D01*
X36217498Y-33253226D01*
X36405856Y-33175205D01*
X36575374Y-33061937D01*
X36719537Y-32917774D01*
X36832805Y-32748256D01*
X36910826Y-32559898D01*
X36950600Y-32359939D01*
X36950600Y-32156061D01*
X36910826Y-31956102D01*
X36832805Y-31767744D01*
X36719537Y-31598226D01*
X36575374Y-31454063D01*
X36405856Y-31340795D01*
X36217498Y-31262774D01*
X36017539Y-31223000D01*
X35813661Y-31223000D01*
X35613702Y-31262774D01*
X35425344Y-31340795D01*
X35255826Y-31454063D01*
X35111663Y-31598226D01*
X34998395Y-31767744D01*
X34920374Y-31956102D01*
X34880600Y-32156061D01*
X28352328Y-32156061D01*
X28382494Y-32139937D01*
X28479185Y-32060585D01*
X28558537Y-31963894D01*
X28617502Y-31853580D01*
X28653812Y-31733882D01*
X28666072Y-31609400D01*
X28666072Y-29909400D01*
X28653812Y-29784918D01*
X28617502Y-29665220D01*
X28558537Y-29554906D01*
X28479185Y-29458215D01*
X28382494Y-29378863D01*
X28272180Y-29319898D01*
X28152482Y-29283588D01*
X28028000Y-29271328D01*
X26328000Y-29271328D01*
X26203518Y-29283588D01*
X26083820Y-29319898D01*
X25973506Y-29378863D01*
X25876815Y-29458215D01*
X25797463Y-29554906D01*
X25738498Y-29665220D01*
X25722399Y-29718292D01*
X25584632Y-29580525D01*
X25341411Y-29418010D01*
X25071158Y-29306068D01*
X24784260Y-29249000D01*
X24491740Y-29249000D01*
X24204842Y-29306068D01*
X23934589Y-29418010D01*
X23691368Y-29580525D01*
X23484525Y-29787368D01*
X23368000Y-29961760D01*
X23251475Y-29787368D01*
X23044632Y-29580525D01*
X22801411Y-29418010D01*
X22531158Y-29306068D01*
X22244260Y-29249000D01*
X21951740Y-29249000D01*
X21664842Y-29306068D01*
X21394589Y-29418010D01*
X21151368Y-29580525D01*
X20944525Y-29787368D01*
X20782010Y-30030589D01*
X20685000Y-30264793D01*
X20685000Y-28448522D01*
X20786063Y-28599774D01*
X20930226Y-28743937D01*
X21099744Y-28857205D01*
X21288102Y-28935226D01*
X21488061Y-28975000D01*
X21691939Y-28975000D01*
X21891898Y-28935226D01*
X22080256Y-28857205D01*
X22225000Y-28760490D01*
X22369744Y-28857205D01*
X22558102Y-28935226D01*
X22758061Y-28975000D01*
X22961939Y-28975000D01*
X23161898Y-28935226D01*
X23350256Y-28857205D01*
X23495000Y-28760490D01*
X23639744Y-28857205D01*
X23828102Y-28935226D01*
X24028061Y-28975000D01*
X24231939Y-28975000D01*
X24431898Y-28935226D01*
X24620256Y-28857205D01*
X24765000Y-28760490D01*
X24909744Y-28857205D01*
X25098102Y-28935226D01*
X25298061Y-28975000D01*
X25501939Y-28975000D01*
X25701898Y-28935226D01*
X25890256Y-28857205D01*
X26035000Y-28760490D01*
X26179744Y-28857205D01*
X26368102Y-28935226D01*
X26568061Y-28975000D01*
X26771939Y-28975000D01*
X26971898Y-28935226D01*
X27160256Y-28857205D01*
X27305000Y-28760490D01*
X27449744Y-28857205D01*
X27638102Y-28935226D01*
X27838061Y-28975000D01*
X28041939Y-28975000D01*
X28241898Y-28935226D01*
X28430256Y-28857205D01*
X28575000Y-28760490D01*
X28719744Y-28857205D01*
X28908102Y-28935226D01*
X29108061Y-28975000D01*
X29311939Y-28975000D01*
X29511898Y-28935226D01*
X29700256Y-28857205D01*
X29869774Y-28743937D01*
X30013937Y-28599774D01*
X30127205Y-28430256D01*
X30205226Y-28241898D01*
X30245000Y-28041939D01*
X30245000Y-27838061D01*
X30205226Y-27638102D01*
X30127205Y-27449744D01*
X30030490Y-27305000D01*
X30127205Y-27160256D01*
X30205226Y-26971898D01*
X30209768Y-26949061D01*
X34017000Y-26949061D01*
X34017000Y-27152939D01*
X34056774Y-27352898D01*
X34134795Y-27541256D01*
X34146651Y-27559000D01*
X34134795Y-27576744D01*
X34056774Y-27765102D01*
X34017000Y-27965061D01*
X34017000Y-28168939D01*
X34056774Y-28368898D01*
X34134795Y-28557256D01*
X34248063Y-28726774D01*
X34392226Y-28870937D01*
X34555114Y-28979775D01*
X34502063Y-29032826D01*
X34388795Y-29202344D01*
X34310774Y-29390702D01*
X34271000Y-29590661D01*
X34271000Y-29794539D01*
X34310774Y-29994498D01*
X34388795Y-30182856D01*
X34502063Y-30352374D01*
X34646226Y-30496537D01*
X34815744Y-30609805D01*
X35004102Y-30687826D01*
X35204061Y-30727600D01*
X35407939Y-30727600D01*
X35607898Y-30687826D01*
X35796256Y-30609805D01*
X35965774Y-30496537D01*
X36058850Y-30403461D01*
X43872200Y-30403461D01*
X43872200Y-30607339D01*
X43911974Y-30807298D01*
X43989995Y-30995656D01*
X44103263Y-31165174D01*
X44247426Y-31309337D01*
X44416944Y-31422605D01*
X44498926Y-31456563D01*
X44433463Y-31522026D01*
X44320195Y-31691544D01*
X44242174Y-31879902D01*
X44202400Y-32079861D01*
X44202400Y-32283739D01*
X44242174Y-32483698D01*
X44320195Y-32672056D01*
X44433463Y-32841574D01*
X44577626Y-32985737D01*
X44747144Y-33099005D01*
X44935502Y-33177026D01*
X45135461Y-33216800D01*
X45339339Y-33216800D01*
X45539298Y-33177026D01*
X45727656Y-33099005D01*
X45897174Y-32985737D01*
X46041337Y-32841574D01*
X46154605Y-32672056D01*
X46232626Y-32483698D01*
X46272400Y-32283739D01*
X46272400Y-32079861D01*
X46232626Y-31879902D01*
X46154605Y-31691544D01*
X46108579Y-31622661D01*
X47428200Y-31622661D01*
X47428200Y-31826539D01*
X47467974Y-32026498D01*
X47545995Y-32214856D01*
X47659263Y-32384374D01*
X47774189Y-32499300D01*
X47659263Y-32614226D01*
X47545995Y-32783744D01*
X47467974Y-32972102D01*
X47428200Y-33172061D01*
X47428200Y-33375939D01*
X47467974Y-33575898D01*
X47545995Y-33764256D01*
X47659263Y-33933774D01*
X47803426Y-34077937D01*
X47972944Y-34191205D01*
X48161302Y-34269226D01*
X48360860Y-34308920D01*
X48356974Y-34318302D01*
X48317200Y-34518261D01*
X48317200Y-34722139D01*
X48356974Y-34922098D01*
X48434995Y-35110456D01*
X48548263Y-35279974D01*
X48692426Y-35424137D01*
X48861944Y-35537405D01*
X49050302Y-35615426D01*
X49250261Y-35655200D01*
X49454139Y-35655200D01*
X49654098Y-35615426D01*
X49842456Y-35537405D01*
X50011974Y-35424137D01*
X50156137Y-35279974D01*
X50269405Y-35110456D01*
X50347426Y-34922098D01*
X50387200Y-34722139D01*
X50387200Y-34518261D01*
X50347426Y-34318302D01*
X50269405Y-34129944D01*
X50156137Y-33960426D01*
X50011974Y-33816263D01*
X49842456Y-33702995D01*
X49654098Y-33624974D01*
X49454540Y-33585280D01*
X49458426Y-33575898D01*
X49498200Y-33375939D01*
X49498200Y-33172061D01*
X49458426Y-32972102D01*
X49436042Y-32918061D01*
X51035000Y-32918061D01*
X51035000Y-33121939D01*
X51074774Y-33321898D01*
X51152795Y-33510256D01*
X51266063Y-33679774D01*
X51410226Y-33823937D01*
X51579744Y-33937205D01*
X51768102Y-34015226D01*
X51968061Y-34055000D01*
X52171939Y-34055000D01*
X52371898Y-34015226D01*
X52560256Y-33937205D01*
X52705000Y-33840490D01*
X52849744Y-33937205D01*
X53038102Y-34015226D01*
X53238061Y-34055000D01*
X53441939Y-34055000D01*
X53507554Y-34041948D01*
X53487774Y-34089702D01*
X53448000Y-34289661D01*
X53448000Y-34493539D01*
X53459310Y-34550400D01*
X53415861Y-34550400D01*
X53215902Y-34590174D01*
X53027544Y-34668195D01*
X52858026Y-34781463D01*
X52713863Y-34925626D01*
X52600595Y-35095144D01*
X52522574Y-35283502D01*
X52482800Y-35483461D01*
X52482800Y-35687339D01*
X52522574Y-35887298D01*
X52600595Y-36075656D01*
X52713863Y-36245174D01*
X52858026Y-36389337D01*
X53027544Y-36502605D01*
X53215902Y-36580626D01*
X53415861Y-36620400D01*
X53619739Y-36620400D01*
X53819698Y-36580626D01*
X54008056Y-36502605D01*
X54177574Y-36389337D01*
X54321737Y-36245174D01*
X54435005Y-36075656D01*
X54513026Y-35887298D01*
X54552800Y-35687339D01*
X54552800Y-35483461D01*
X54542696Y-35432661D01*
X56115000Y-35432661D01*
X56115000Y-35636539D01*
X56154774Y-35836498D01*
X56232795Y-36024856D01*
X56346063Y-36194374D01*
X56490226Y-36338537D01*
X56659744Y-36451805D01*
X56848102Y-36529826D01*
X57048061Y-36569600D01*
X57251939Y-36569600D01*
X57451898Y-36529826D01*
X57640256Y-36451805D01*
X57809774Y-36338537D01*
X57953937Y-36194374D01*
X58067205Y-36024856D01*
X58145226Y-35836498D01*
X58185000Y-35636539D01*
X58185000Y-35432661D01*
X58145226Y-35232702D01*
X58067205Y-35044344D01*
X57953937Y-34874826D01*
X57809774Y-34730663D01*
X57640256Y-34617395D01*
X57451898Y-34539374D01*
X57251939Y-34499600D01*
X57048061Y-34499600D01*
X56848102Y-34539374D01*
X56659744Y-34617395D01*
X56490226Y-34730663D01*
X56346063Y-34874826D01*
X56232795Y-35044344D01*
X56154774Y-35232702D01*
X56115000Y-35432661D01*
X54542696Y-35432661D01*
X54541490Y-35426600D01*
X54584939Y-35426600D01*
X54784898Y-35386826D01*
X54973256Y-35308805D01*
X55142774Y-35195537D01*
X55286937Y-35051374D01*
X55400205Y-34881856D01*
X55478226Y-34693498D01*
X55518000Y-34493539D01*
X55518000Y-34289661D01*
X55478226Y-34089702D01*
X55400205Y-33901344D01*
X55286937Y-33731826D01*
X55142774Y-33587663D01*
X54973256Y-33474395D01*
X54784898Y-33396374D01*
X54584939Y-33356600D01*
X54381061Y-33356600D01*
X54315446Y-33369652D01*
X54335226Y-33321898D01*
X54337809Y-33308911D01*
X59136000Y-33308911D01*
X59136000Y-33493089D01*
X59171932Y-33673729D01*
X59242414Y-33843889D01*
X59344738Y-33997028D01*
X59474972Y-34127262D01*
X59628111Y-34229586D01*
X59798271Y-34300068D01*
X59978911Y-34336000D01*
X60163089Y-34336000D01*
X60343729Y-34300068D01*
X60513889Y-34229586D01*
X60667028Y-34127262D01*
X60797262Y-33997028D01*
X60899586Y-33843889D01*
X60970068Y-33673729D01*
X61006000Y-33493089D01*
X61006000Y-33308911D01*
X60970068Y-33128271D01*
X60899586Y-32958111D01*
X60797262Y-32804972D01*
X60667028Y-32674738D01*
X60513889Y-32572414D01*
X60343729Y-32501932D01*
X60163089Y-32466000D01*
X59978911Y-32466000D01*
X59798271Y-32501932D01*
X59628111Y-32572414D01*
X59474972Y-32674738D01*
X59344738Y-32804972D01*
X59242414Y-32958111D01*
X59171932Y-33128271D01*
X59136000Y-33308911D01*
X54337809Y-33308911D01*
X54375000Y-33121939D01*
X54375000Y-32918061D01*
X54335226Y-32718102D01*
X54257205Y-32529744D01*
X54143937Y-32360226D01*
X53999774Y-32216063D01*
X53830256Y-32102795D01*
X53641898Y-32024774D01*
X53441939Y-31985000D01*
X53238061Y-31985000D01*
X53038102Y-32024774D01*
X52849744Y-32102795D01*
X52705000Y-32199510D01*
X52560256Y-32102795D01*
X52371898Y-32024774D01*
X52171939Y-31985000D01*
X51968061Y-31985000D01*
X51768102Y-32024774D01*
X51579744Y-32102795D01*
X51410226Y-32216063D01*
X51266063Y-32360226D01*
X51152795Y-32529744D01*
X51074774Y-32718102D01*
X51035000Y-32918061D01*
X49436042Y-32918061D01*
X49380405Y-32783744D01*
X49267137Y-32614226D01*
X49152211Y-32499300D01*
X49267137Y-32384374D01*
X49380405Y-32214856D01*
X49458426Y-32026498D01*
X49498200Y-31826539D01*
X49498200Y-31622661D01*
X49458426Y-31422702D01*
X49380405Y-31234344D01*
X49267137Y-31064826D01*
X49122974Y-30920663D01*
X48953456Y-30807395D01*
X48765098Y-30729374D01*
X48565139Y-30689600D01*
X48361261Y-30689600D01*
X48161302Y-30729374D01*
X47972944Y-30807395D01*
X47803426Y-30920663D01*
X47659263Y-31064826D01*
X47545995Y-31234344D01*
X47467974Y-31422702D01*
X47428200Y-31622661D01*
X46108579Y-31622661D01*
X46041337Y-31522026D01*
X45897174Y-31377863D01*
X45727656Y-31264595D01*
X45645674Y-31230637D01*
X45711137Y-31165174D01*
X45824405Y-30995656D01*
X45902426Y-30807298D01*
X45937282Y-30632061D01*
X59010600Y-30632061D01*
X59010600Y-30835939D01*
X59050374Y-31035898D01*
X59128395Y-31224256D01*
X59241663Y-31393774D01*
X59385826Y-31537937D01*
X59555344Y-31651205D01*
X59743702Y-31729226D01*
X59943661Y-31769000D01*
X60147539Y-31769000D01*
X60347498Y-31729226D01*
X60535856Y-31651205D01*
X60705374Y-31537937D01*
X60849537Y-31393774D01*
X60962805Y-31224256D01*
X61040826Y-31035898D01*
X61080600Y-30835939D01*
X61080600Y-30632061D01*
X61040826Y-30432102D01*
X60962805Y-30243744D01*
X60876092Y-30113967D01*
X62515000Y-30113967D01*
X62515000Y-30436033D01*
X62577832Y-30751912D01*
X62701082Y-31049463D01*
X62880013Y-31317252D01*
X63107748Y-31544987D01*
X63375537Y-31723918D01*
X63673088Y-31847168D01*
X63988967Y-31910000D01*
X64249552Y-31910000D01*
X64282795Y-31990256D01*
X64396063Y-32159774D01*
X64540226Y-32303937D01*
X64709744Y-32417205D01*
X64898102Y-32495226D01*
X65098061Y-32535000D01*
X65301939Y-32535000D01*
X65501898Y-32495226D01*
X65690256Y-32417205D01*
X65859774Y-32303937D01*
X66003937Y-32159774D01*
X66117205Y-31990256D01*
X66195226Y-31801898D01*
X66235000Y-31601939D01*
X66235000Y-31398061D01*
X66195226Y-31198102D01*
X66117205Y-31009744D01*
X66003937Y-30840226D01*
X65859774Y-30696063D01*
X65748117Y-30621456D01*
X65785000Y-30436033D01*
X65785000Y-30113967D01*
X65722168Y-29798088D01*
X65598918Y-29500537D01*
X65419987Y-29232748D01*
X65192252Y-29005013D01*
X64924463Y-28826082D01*
X64626912Y-28702832D01*
X64311033Y-28640000D01*
X63988967Y-28640000D01*
X63673088Y-28702832D01*
X63375537Y-28826082D01*
X63107748Y-29005013D01*
X62880013Y-29232748D01*
X62701082Y-29500537D01*
X62577832Y-29798088D01*
X62515000Y-30113967D01*
X60876092Y-30113967D01*
X60849537Y-30074226D01*
X60705374Y-29930063D01*
X60535856Y-29816795D01*
X60347498Y-29738774D01*
X60147539Y-29699000D01*
X59943661Y-29699000D01*
X59743702Y-29738774D01*
X59555344Y-29816795D01*
X59385826Y-29930063D01*
X59241663Y-30074226D01*
X59128395Y-30243744D01*
X59050374Y-30432102D01*
X59010600Y-30632061D01*
X45937282Y-30632061D01*
X45942200Y-30607339D01*
X45942200Y-30403461D01*
X45902426Y-30203502D01*
X45824405Y-30015144D01*
X45711137Y-29845626D01*
X45566974Y-29701463D01*
X45397456Y-29588195D01*
X45209098Y-29510174D01*
X45009139Y-29470400D01*
X44805261Y-29470400D01*
X44605302Y-29510174D01*
X44416944Y-29588195D01*
X44247426Y-29701463D01*
X44103263Y-29845626D01*
X43989995Y-30015144D01*
X43911974Y-30203502D01*
X43872200Y-30403461D01*
X36058850Y-30403461D01*
X36109937Y-30352374D01*
X36223205Y-30182856D01*
X36301226Y-29994498D01*
X36341000Y-29794539D01*
X36341000Y-29590661D01*
X36301226Y-29390702D01*
X36223205Y-29202344D01*
X36160207Y-29108061D01*
X51035000Y-29108061D01*
X51035000Y-29311939D01*
X51074774Y-29511898D01*
X51152795Y-29700256D01*
X51266063Y-29869774D01*
X51410226Y-30013937D01*
X51579744Y-30127205D01*
X51768102Y-30205226D01*
X51968061Y-30245000D01*
X52171939Y-30245000D01*
X52371898Y-30205226D01*
X52560256Y-30127205D01*
X52729774Y-30013937D01*
X52873937Y-29869774D01*
X52987205Y-29700256D01*
X53065226Y-29511898D01*
X53105000Y-29311939D01*
X53105000Y-29108061D01*
X53065226Y-28908102D01*
X52987205Y-28719744D01*
X52873937Y-28550226D01*
X52729774Y-28406063D01*
X52560256Y-28292795D01*
X52371898Y-28214774D01*
X52171939Y-28175000D01*
X51968061Y-28175000D01*
X51768102Y-28214774D01*
X51579744Y-28292795D01*
X51410226Y-28406063D01*
X51266063Y-28550226D01*
X51152795Y-28719744D01*
X51074774Y-28908102D01*
X51035000Y-29108061D01*
X36160207Y-29108061D01*
X36156157Y-29102000D01*
X36169939Y-29102000D01*
X36369898Y-29062226D01*
X36558256Y-28984205D01*
X36727774Y-28870937D01*
X36871937Y-28726774D01*
X36985205Y-28557256D01*
X37063226Y-28368898D01*
X37103000Y-28168939D01*
X37103000Y-27965061D01*
X37063226Y-27765102D01*
X36985205Y-27576744D01*
X36973349Y-27559000D01*
X36985205Y-27541256D01*
X37063226Y-27352898D01*
X37103000Y-27152939D01*
X37103000Y-26949061D01*
X40494000Y-26949061D01*
X40494000Y-27152939D01*
X40533774Y-27352898D01*
X40611795Y-27541256D01*
X40725063Y-27710774D01*
X40869226Y-27854937D01*
X41038744Y-27968205D01*
X41227102Y-28046226D01*
X41427061Y-28086000D01*
X41630939Y-28086000D01*
X41830898Y-28046226D01*
X42019256Y-27968205D01*
X42188774Y-27854937D01*
X42332937Y-27710774D01*
X42446205Y-27541256D01*
X42524226Y-27352898D01*
X42564000Y-27152939D01*
X42564000Y-27070000D01*
X42646939Y-27070000D01*
X42846898Y-27030226D01*
X43035256Y-26952205D01*
X43204774Y-26838937D01*
X43348937Y-26694774D01*
X43462205Y-26525256D01*
X43540226Y-26336898D01*
X43580000Y-26136939D01*
X43580000Y-25933061D01*
X43540226Y-25733102D01*
X43462205Y-25544744D01*
X43348937Y-25375226D01*
X43204774Y-25231063D01*
X43035256Y-25117795D01*
X42846898Y-25039774D01*
X42646939Y-25000000D01*
X42443061Y-25000000D01*
X42243102Y-25039774D01*
X42054744Y-25117795D01*
X41885226Y-25231063D01*
X41741063Y-25375226D01*
X41627795Y-25544744D01*
X41549774Y-25733102D01*
X41510000Y-25933061D01*
X41510000Y-26016000D01*
X41427061Y-26016000D01*
X41227102Y-26055774D01*
X41038744Y-26133795D01*
X40869226Y-26247063D01*
X40725063Y-26391226D01*
X40611795Y-26560744D01*
X40533774Y-26749102D01*
X40494000Y-26949061D01*
X37103000Y-26949061D01*
X37063226Y-26749102D01*
X36985205Y-26560744D01*
X36871937Y-26391226D01*
X36727774Y-26247063D01*
X36558256Y-26133795D01*
X36369898Y-26055774D01*
X36169939Y-26016000D01*
X35966061Y-26016000D01*
X35766102Y-26055774D01*
X35577744Y-26133795D01*
X35560000Y-26145651D01*
X35542256Y-26133795D01*
X35353898Y-26055774D01*
X35153939Y-26016000D01*
X34950061Y-26016000D01*
X34750102Y-26055774D01*
X34561744Y-26133795D01*
X34392226Y-26247063D01*
X34248063Y-26391226D01*
X34134795Y-26560744D01*
X34056774Y-26749102D01*
X34017000Y-26949061D01*
X30209768Y-26949061D01*
X30245000Y-26771939D01*
X30245000Y-26568061D01*
X30205226Y-26368102D01*
X30127205Y-26179744D01*
X30030490Y-26035000D01*
X30127205Y-25890256D01*
X30205226Y-25701898D01*
X30245000Y-25501939D01*
X30245000Y-25298061D01*
X30205226Y-25098102D01*
X30127205Y-24909744D01*
X30030490Y-24765000D01*
X30127205Y-24620256D01*
X30178763Y-24495786D01*
X30243744Y-24539205D01*
X30432102Y-24617226D01*
X30632061Y-24657000D01*
X30719153Y-24657000D01*
X30715000Y-24699162D01*
X30715000Y-25300837D01*
X30729976Y-25452894D01*
X30789159Y-25647992D01*
X30885266Y-25827797D01*
X31014604Y-25985396D01*
X31172203Y-26114734D01*
X31352007Y-26210841D01*
X31547105Y-26270024D01*
X31750000Y-26290007D01*
X31952894Y-26270024D01*
X32147992Y-26210841D01*
X32308106Y-26125259D01*
X32334392Y-26146831D01*
X32479284Y-26224278D01*
X32636500Y-26271969D01*
X32800000Y-26288072D01*
X33200000Y-26288072D01*
X33363500Y-26271969D01*
X33520716Y-26224278D01*
X33665608Y-26146831D01*
X33792606Y-26042606D01*
X33896831Y-25915608D01*
X33974278Y-25770716D01*
X34021969Y-25613500D01*
X34038072Y-25450000D01*
X34038072Y-24699162D01*
X44199000Y-24699162D01*
X44199000Y-25300837D01*
X44213976Y-25452894D01*
X44273159Y-25647992D01*
X44369266Y-25827797D01*
X44498604Y-25985396D01*
X44656203Y-26114734D01*
X44836007Y-26210841D01*
X45031105Y-26270024D01*
X45234000Y-26290007D01*
X45436894Y-26270024D01*
X45631992Y-26210841D01*
X45811797Y-26114734D01*
X45859000Y-26075996D01*
X45906203Y-26114734D01*
X46086007Y-26210841D01*
X46281105Y-26270024D01*
X46484000Y-26290007D01*
X46686894Y-26270024D01*
X46881992Y-26210841D01*
X47061797Y-26114734D01*
X47109000Y-26075996D01*
X47156203Y-26114734D01*
X47336007Y-26210841D01*
X47531105Y-26270024D01*
X47734000Y-26290007D01*
X47936894Y-26270024D01*
X48131992Y-26210841D01*
X48292106Y-26125259D01*
X48318392Y-26146831D01*
X48463284Y-26224278D01*
X48620500Y-26271969D01*
X48784000Y-26288072D01*
X49184000Y-26288072D01*
X49347500Y-26271969D01*
X49504716Y-26224278D01*
X49649608Y-26146831D01*
X49776606Y-26042606D01*
X49880831Y-25915608D01*
X49958278Y-25770716D01*
X50005969Y-25613500D01*
X50022072Y-25450000D01*
X50022072Y-24699162D01*
X53215000Y-24699162D01*
X53215000Y-25300837D01*
X53229976Y-25452894D01*
X53289159Y-25647992D01*
X53385266Y-25827797D01*
X53514604Y-25985396D01*
X53672203Y-26114734D01*
X53852007Y-26210841D01*
X54047105Y-26270024D01*
X54250000Y-26290007D01*
X54452894Y-26270024D01*
X54647992Y-26210841D01*
X54827797Y-26114734D01*
X54875000Y-26075996D01*
X54922203Y-26114734D01*
X55102007Y-26210841D01*
X55297105Y-26270024D01*
X55500000Y-26290007D01*
X55702894Y-26270024D01*
X55897992Y-26210841D01*
X56077797Y-26114734D01*
X56125000Y-26075996D01*
X56172203Y-26114734D01*
X56352007Y-26210841D01*
X56547105Y-26270024D01*
X56750000Y-26290007D01*
X56952894Y-26270024D01*
X57147992Y-26210841D01*
X57229406Y-26167324D01*
X57245506Y-26180537D01*
X57355820Y-26239502D01*
X57475518Y-26275812D01*
X57600000Y-26288072D01*
X57714250Y-26285000D01*
X57873000Y-26126250D01*
X57873000Y-25127000D01*
X58127000Y-25127000D01*
X58127000Y-26126250D01*
X58285750Y-26285000D01*
X58400000Y-26288072D01*
X58524482Y-26275812D01*
X58644180Y-26239502D01*
X58754494Y-26180537D01*
X58851185Y-26101185D01*
X58930537Y-26004494D01*
X58989502Y-25894180D01*
X59025812Y-25774482D01*
X59038072Y-25650000D01*
X59035000Y-25285750D01*
X58876250Y-25127000D01*
X58127000Y-25127000D01*
X57873000Y-25127000D01*
X57853000Y-25127000D01*
X57853000Y-24873000D01*
X57873000Y-24873000D01*
X57873000Y-23873750D01*
X58127000Y-23873750D01*
X58127000Y-24873000D01*
X58876250Y-24873000D01*
X59035000Y-24714250D01*
X59038072Y-24350000D01*
X59025812Y-24225518D01*
X58989502Y-24105820D01*
X58930537Y-23995506D01*
X58851185Y-23898815D01*
X58754494Y-23819463D01*
X58644180Y-23760498D01*
X58524482Y-23724188D01*
X58400000Y-23711928D01*
X58285750Y-23715000D01*
X58127000Y-23873750D01*
X57873000Y-23873750D01*
X57714250Y-23715000D01*
X57600000Y-23711928D01*
X57475518Y-23724188D01*
X57355820Y-23760498D01*
X57245506Y-23819463D01*
X57229407Y-23832675D01*
X57147993Y-23789159D01*
X56952895Y-23729976D01*
X56750000Y-23709993D01*
X56547106Y-23729976D01*
X56352008Y-23789159D01*
X56172204Y-23885266D01*
X56125001Y-23924005D01*
X56077797Y-23885266D01*
X55897993Y-23789159D01*
X55702895Y-23729976D01*
X55500000Y-23709993D01*
X55297106Y-23729976D01*
X55102008Y-23789159D01*
X54922204Y-23885266D01*
X54875001Y-23924005D01*
X54827797Y-23885266D01*
X54647993Y-23789159D01*
X54452895Y-23729976D01*
X54250000Y-23709993D01*
X54047106Y-23729976D01*
X53852008Y-23789159D01*
X53672204Y-23885266D01*
X53514605Y-24014604D01*
X53385267Y-24172203D01*
X53289159Y-24352007D01*
X53229976Y-24547105D01*
X53215000Y-24699162D01*
X50022072Y-24699162D01*
X50022072Y-24550000D01*
X50005969Y-24386500D01*
X49958278Y-24229284D01*
X49880831Y-24084392D01*
X49776606Y-23957394D01*
X49649608Y-23853169D01*
X49504716Y-23775722D01*
X49347500Y-23728031D01*
X49184000Y-23711928D01*
X48784000Y-23711928D01*
X48620500Y-23728031D01*
X48463284Y-23775722D01*
X48318392Y-23853169D01*
X48292106Y-23874741D01*
X48131993Y-23789159D01*
X47936895Y-23729976D01*
X47734000Y-23709993D01*
X47531106Y-23729976D01*
X47336008Y-23789159D01*
X47156204Y-23885266D01*
X47109001Y-23924005D01*
X47061797Y-23885266D01*
X46881993Y-23789159D01*
X46686895Y-23729976D01*
X46484000Y-23709993D01*
X46281106Y-23729976D01*
X46086008Y-23789159D01*
X45906204Y-23885266D01*
X45859001Y-23924005D01*
X45811797Y-23885266D01*
X45631993Y-23789159D01*
X45436895Y-23729976D01*
X45234000Y-23709993D01*
X45031106Y-23729976D01*
X44836008Y-23789159D01*
X44656204Y-23885266D01*
X44498605Y-24014604D01*
X44369267Y-24172203D01*
X44273159Y-24352007D01*
X44213976Y-24547105D01*
X44199000Y-24699162D01*
X34038072Y-24699162D01*
X34038072Y-24657000D01*
X34137939Y-24657000D01*
X34337898Y-24617226D01*
X34526256Y-24539205D01*
X34695774Y-24425937D01*
X34839937Y-24281774D01*
X34953205Y-24112256D01*
X35031226Y-23923898D01*
X35071000Y-23723939D01*
X35071000Y-23520061D01*
X35031226Y-23320102D01*
X34953205Y-23131744D01*
X34941349Y-23114000D01*
X34953205Y-23096256D01*
X35031226Y-22907898D01*
X35071000Y-22707939D01*
X35071000Y-22504061D01*
X35031226Y-22304102D01*
X34953205Y-22115744D01*
X34941349Y-22098000D01*
X34953205Y-22080256D01*
X35031226Y-21891898D01*
X35071000Y-21691939D01*
X35071000Y-21488061D01*
X35031226Y-21288102D01*
X34953205Y-21099744D01*
X34839937Y-20930226D01*
X34695774Y-20786063D01*
X34544522Y-20685000D01*
X60451478Y-20685000D01*
X60300226Y-20786063D01*
M02*
