G04 #@! TF.GenerationSoftware,KiCad,Pcbnew,(5.1.5)-3*
G04 #@! TF.CreationDate,2019-12-17T15:15:26+01:00*
G04 #@! TF.ProjectId,HadesMicroJLCPCB,48616465-734d-4696-9372-6f4a4c435043,rev?*
G04 #@! TF.SameCoordinates,Original*
G04 #@! TF.FileFunction,Copper,L4,Bot*
G04 #@! TF.FilePolarity,Positive*
%FSLAX46Y46*%
G04 Gerber Fmt 4.6, Leading zero omitted, Abs format (unit mm)*
G04 Created by KiCad (PCBNEW (5.1.5)-3) date 2019-12-17 15:15:26*
%MOMM*%
%LPD*%
G04 APERTURE LIST*
%ADD10C,6.400000*%
%ADD11C,0.800000*%
%ADD12C,2.400000*%
%ADD13R,2.400000X2.400000*%
%ADD14C,0.100000*%
%ADD15O,0.800000X1.300000*%
%ADD16O,1.300000X0.800000*%
%ADD17R,1.000000X1.000000*%
%ADD18O,1.000000X1.000000*%
%ADD19R,1.700000X1.700000*%
%ADD20O,1.700000X1.700000*%
%ADD21C,2.000000*%
%ADD22C,1.800000*%
%ADD23C,0.600000*%
%ADD24C,1.500000*%
%ADD25C,0.350000*%
%ADD26C,0.500000*%
%ADD27C,0.250000*%
%ADD28C,0.254000*%
G04 APERTURE END LIST*
D10*
X66000000Y-66000000D03*
D11*
X68400000Y-66000000D03*
X67697056Y-67697056D03*
X66000000Y-68400000D03*
X64302944Y-67697056D03*
X63600000Y-66000000D03*
X64302944Y-64302944D03*
X66000000Y-63600000D03*
X67697056Y-64302944D03*
X25697056Y-64302944D03*
X24000000Y-63600000D03*
X22302944Y-64302944D03*
X21600000Y-66000000D03*
X22302944Y-67697056D03*
X24000000Y-68400000D03*
X25697056Y-67697056D03*
X26400000Y-66000000D03*
D10*
X24000000Y-66000000D03*
X24000000Y-24000000D03*
D11*
X26400000Y-24000000D03*
X25697056Y-25697056D03*
X24000000Y-26400000D03*
X22302944Y-25697056D03*
X21600000Y-24000000D03*
X22302944Y-22302944D03*
X24000000Y-21600000D03*
X25697056Y-22302944D03*
X67697056Y-22302944D03*
X66000000Y-21600000D03*
X64302944Y-22302944D03*
X63600000Y-24000000D03*
X64302944Y-25697056D03*
X66000000Y-26400000D03*
X67697056Y-25697056D03*
X68400000Y-24000000D03*
D10*
X66000000Y-24000000D03*
D12*
X25298400Y-58516400D03*
D13*
X25298400Y-55016400D03*
G04 #@! TA.AperFunction,ComponentPad*
D14*
G36*
X46219603Y-64350963D02*
G01*
X46239018Y-64353843D01*
X46258057Y-64358612D01*
X46276537Y-64365224D01*
X46294279Y-64373616D01*
X46311114Y-64383706D01*
X46326879Y-64395398D01*
X46341421Y-64408579D01*
X46354602Y-64423121D01*
X46366294Y-64438886D01*
X46376384Y-64455721D01*
X46384776Y-64473463D01*
X46391388Y-64491943D01*
X46396157Y-64510982D01*
X46399037Y-64530397D01*
X46400000Y-64550000D01*
X46400000Y-65450000D01*
X46399037Y-65469603D01*
X46396157Y-65489018D01*
X46391388Y-65508057D01*
X46384776Y-65526537D01*
X46376384Y-65544279D01*
X46366294Y-65561114D01*
X46354602Y-65576879D01*
X46341421Y-65591421D01*
X46326879Y-65604602D01*
X46311114Y-65616294D01*
X46294279Y-65626384D01*
X46276537Y-65634776D01*
X46258057Y-65641388D01*
X46239018Y-65646157D01*
X46219603Y-65649037D01*
X46200000Y-65650000D01*
X45800000Y-65650000D01*
X45780397Y-65649037D01*
X45760982Y-65646157D01*
X45741943Y-65641388D01*
X45723463Y-65634776D01*
X45705721Y-65626384D01*
X45688886Y-65616294D01*
X45673121Y-65604602D01*
X45658579Y-65591421D01*
X45645398Y-65576879D01*
X45633706Y-65561114D01*
X45623616Y-65544279D01*
X45615224Y-65526537D01*
X45608612Y-65508057D01*
X45603843Y-65489018D01*
X45600963Y-65469603D01*
X45600000Y-65450000D01*
X45600000Y-64550000D01*
X45600963Y-64530397D01*
X45603843Y-64510982D01*
X45608612Y-64491943D01*
X45615224Y-64473463D01*
X45623616Y-64455721D01*
X45633706Y-64438886D01*
X45645398Y-64423121D01*
X45658579Y-64408579D01*
X45673121Y-64395398D01*
X45688886Y-64383706D01*
X45705721Y-64373616D01*
X45723463Y-64365224D01*
X45741943Y-64358612D01*
X45760982Y-64353843D01*
X45780397Y-64350963D01*
X45800000Y-64350000D01*
X46200000Y-64350000D01*
X46219603Y-64350963D01*
G37*
G04 #@! TD.AperFunction*
D15*
X47250000Y-65000000D03*
X48500000Y-65000000D03*
X49750000Y-65000000D03*
D16*
X65050800Y-54005400D03*
X65050800Y-55255400D03*
X65050800Y-56505400D03*
G04 #@! TA.AperFunction,ComponentPad*
D14*
G36*
X65520403Y-57356363D02*
G01*
X65539818Y-57359243D01*
X65558857Y-57364012D01*
X65577337Y-57370624D01*
X65595079Y-57379016D01*
X65611914Y-57389106D01*
X65627679Y-57400798D01*
X65642221Y-57413979D01*
X65655402Y-57428521D01*
X65667094Y-57444286D01*
X65677184Y-57461121D01*
X65685576Y-57478863D01*
X65692188Y-57497343D01*
X65696957Y-57516382D01*
X65699837Y-57535797D01*
X65700800Y-57555400D01*
X65700800Y-57955400D01*
X65699837Y-57975003D01*
X65696957Y-57994418D01*
X65692188Y-58013457D01*
X65685576Y-58031937D01*
X65677184Y-58049679D01*
X65667094Y-58066514D01*
X65655402Y-58082279D01*
X65642221Y-58096821D01*
X65627679Y-58110002D01*
X65611914Y-58121694D01*
X65595079Y-58131784D01*
X65577337Y-58140176D01*
X65558857Y-58146788D01*
X65539818Y-58151557D01*
X65520403Y-58154437D01*
X65500800Y-58155400D01*
X64600800Y-58155400D01*
X64581197Y-58154437D01*
X64561782Y-58151557D01*
X64542743Y-58146788D01*
X64524263Y-58140176D01*
X64506521Y-58131784D01*
X64489686Y-58121694D01*
X64473921Y-58110002D01*
X64459379Y-58096821D01*
X64446198Y-58082279D01*
X64434506Y-58066514D01*
X64424416Y-58049679D01*
X64416024Y-58031937D01*
X64409412Y-58013457D01*
X64404643Y-57994418D01*
X64401763Y-57975003D01*
X64400800Y-57955400D01*
X64400800Y-57555400D01*
X64401763Y-57535797D01*
X64404643Y-57516382D01*
X64409412Y-57497343D01*
X64416024Y-57478863D01*
X64424416Y-57461121D01*
X64434506Y-57444286D01*
X64446198Y-57428521D01*
X64459379Y-57413979D01*
X64473921Y-57400798D01*
X64489686Y-57389106D01*
X64506521Y-57379016D01*
X64524263Y-57370624D01*
X64542743Y-57364012D01*
X64561782Y-57359243D01*
X64581197Y-57356363D01*
X64600800Y-57355400D01*
X65500800Y-57355400D01*
X65520403Y-57356363D01*
G37*
G04 #@! TD.AperFunction*
D17*
X31013400Y-56438800D03*
D18*
X31013400Y-55168800D03*
D19*
X24638000Y-48514000D03*
D20*
X22098000Y-48514000D03*
X24638000Y-45974000D03*
X22098000Y-45974000D03*
X24638000Y-43434000D03*
X22098000Y-43434000D03*
X24638000Y-40894000D03*
X22098000Y-40894000D03*
X24638000Y-38354000D03*
X22098000Y-38354000D03*
X24638000Y-35814000D03*
X22098000Y-35814000D03*
X24638000Y-33274000D03*
X22098000Y-33274000D03*
X24638000Y-30734000D03*
X22098000Y-30734000D03*
D19*
X27178000Y-30759400D03*
D20*
X27178000Y-33299400D03*
X27178000Y-35839400D03*
X27178000Y-38379400D03*
X27178000Y-40919400D03*
X27178000Y-43459400D03*
X27178000Y-45999400D03*
X27178000Y-48539400D03*
G04 #@! TA.AperFunction,ComponentPad*
D14*
G36*
X49203603Y-24350963D02*
G01*
X49223018Y-24353843D01*
X49242057Y-24358612D01*
X49260537Y-24365224D01*
X49278279Y-24373616D01*
X49295114Y-24383706D01*
X49310879Y-24395398D01*
X49325421Y-24408579D01*
X49338602Y-24423121D01*
X49350294Y-24438886D01*
X49360384Y-24455721D01*
X49368776Y-24473463D01*
X49375388Y-24491943D01*
X49380157Y-24510982D01*
X49383037Y-24530397D01*
X49384000Y-24550000D01*
X49384000Y-25450000D01*
X49383037Y-25469603D01*
X49380157Y-25489018D01*
X49375388Y-25508057D01*
X49368776Y-25526537D01*
X49360384Y-25544279D01*
X49350294Y-25561114D01*
X49338602Y-25576879D01*
X49325421Y-25591421D01*
X49310879Y-25604602D01*
X49295114Y-25616294D01*
X49278279Y-25626384D01*
X49260537Y-25634776D01*
X49242057Y-25641388D01*
X49223018Y-25646157D01*
X49203603Y-25649037D01*
X49184000Y-25650000D01*
X48784000Y-25650000D01*
X48764397Y-25649037D01*
X48744982Y-25646157D01*
X48725943Y-25641388D01*
X48707463Y-25634776D01*
X48689721Y-25626384D01*
X48672886Y-25616294D01*
X48657121Y-25604602D01*
X48642579Y-25591421D01*
X48629398Y-25576879D01*
X48617706Y-25561114D01*
X48607616Y-25544279D01*
X48599224Y-25526537D01*
X48592612Y-25508057D01*
X48587843Y-25489018D01*
X48584963Y-25469603D01*
X48584000Y-25450000D01*
X48584000Y-24550000D01*
X48584963Y-24530397D01*
X48587843Y-24510982D01*
X48592612Y-24491943D01*
X48599224Y-24473463D01*
X48607616Y-24455721D01*
X48617706Y-24438886D01*
X48629398Y-24423121D01*
X48642579Y-24408579D01*
X48657121Y-24395398D01*
X48672886Y-24383706D01*
X48689721Y-24373616D01*
X48707463Y-24365224D01*
X48725943Y-24358612D01*
X48744982Y-24353843D01*
X48764397Y-24350963D01*
X48784000Y-24350000D01*
X49184000Y-24350000D01*
X49203603Y-24350963D01*
G37*
G04 #@! TD.AperFunction*
D15*
X47734000Y-25000000D03*
X46484000Y-25000000D03*
X45234000Y-25000000D03*
G04 #@! TA.AperFunction,ComponentPad*
D14*
G36*
X55219603Y-64350963D02*
G01*
X55239018Y-64353843D01*
X55258057Y-64358612D01*
X55276537Y-64365224D01*
X55294279Y-64373616D01*
X55311114Y-64383706D01*
X55326879Y-64395398D01*
X55341421Y-64408579D01*
X55354602Y-64423121D01*
X55366294Y-64438886D01*
X55376384Y-64455721D01*
X55384776Y-64473463D01*
X55391388Y-64491943D01*
X55396157Y-64510982D01*
X55399037Y-64530397D01*
X55400000Y-64550000D01*
X55400000Y-65450000D01*
X55399037Y-65469603D01*
X55396157Y-65489018D01*
X55391388Y-65508057D01*
X55384776Y-65526537D01*
X55376384Y-65544279D01*
X55366294Y-65561114D01*
X55354602Y-65576879D01*
X55341421Y-65591421D01*
X55326879Y-65604602D01*
X55311114Y-65616294D01*
X55294279Y-65626384D01*
X55276537Y-65634776D01*
X55258057Y-65641388D01*
X55239018Y-65646157D01*
X55219603Y-65649037D01*
X55200000Y-65650000D01*
X54800000Y-65650000D01*
X54780397Y-65649037D01*
X54760982Y-65646157D01*
X54741943Y-65641388D01*
X54723463Y-65634776D01*
X54705721Y-65626384D01*
X54688886Y-65616294D01*
X54673121Y-65604602D01*
X54658579Y-65591421D01*
X54645398Y-65576879D01*
X54633706Y-65561114D01*
X54623616Y-65544279D01*
X54615224Y-65526537D01*
X54608612Y-65508057D01*
X54603843Y-65489018D01*
X54600963Y-65469603D01*
X54600000Y-65450000D01*
X54600000Y-64550000D01*
X54600963Y-64530397D01*
X54603843Y-64510982D01*
X54608612Y-64491943D01*
X54615224Y-64473463D01*
X54623616Y-64455721D01*
X54633706Y-64438886D01*
X54645398Y-64423121D01*
X54658579Y-64408579D01*
X54673121Y-64395398D01*
X54688886Y-64383706D01*
X54705721Y-64373616D01*
X54723463Y-64365224D01*
X54741943Y-64358612D01*
X54760982Y-64353843D01*
X54780397Y-64350963D01*
X54800000Y-64350000D01*
X55200000Y-64350000D01*
X55219603Y-64350963D01*
G37*
G04 #@! TD.AperFunction*
D15*
X56250000Y-65000000D03*
X57500000Y-65000000D03*
X58750000Y-65000000D03*
X54250000Y-25000000D03*
X55500000Y-25000000D03*
X56750000Y-25000000D03*
G04 #@! TA.AperFunction,ComponentPad*
D14*
G36*
X58219603Y-24350963D02*
G01*
X58239018Y-24353843D01*
X58258057Y-24358612D01*
X58276537Y-24365224D01*
X58294279Y-24373616D01*
X58311114Y-24383706D01*
X58326879Y-24395398D01*
X58341421Y-24408579D01*
X58354602Y-24423121D01*
X58366294Y-24438886D01*
X58376384Y-24455721D01*
X58384776Y-24473463D01*
X58391388Y-24491943D01*
X58396157Y-24510982D01*
X58399037Y-24530397D01*
X58400000Y-24550000D01*
X58400000Y-25450000D01*
X58399037Y-25469603D01*
X58396157Y-25489018D01*
X58391388Y-25508057D01*
X58384776Y-25526537D01*
X58376384Y-25544279D01*
X58366294Y-25561114D01*
X58354602Y-25576879D01*
X58341421Y-25591421D01*
X58326879Y-25604602D01*
X58311114Y-25616294D01*
X58294279Y-25626384D01*
X58276537Y-25634776D01*
X58258057Y-25641388D01*
X58239018Y-25646157D01*
X58219603Y-25649037D01*
X58200000Y-25650000D01*
X57800000Y-25650000D01*
X57780397Y-25649037D01*
X57760982Y-25646157D01*
X57741943Y-25641388D01*
X57723463Y-25634776D01*
X57705721Y-25626384D01*
X57688886Y-25616294D01*
X57673121Y-25604602D01*
X57658579Y-25591421D01*
X57645398Y-25576879D01*
X57633706Y-25561114D01*
X57623616Y-25544279D01*
X57615224Y-25526537D01*
X57608612Y-25508057D01*
X57603843Y-25489018D01*
X57600963Y-25469603D01*
X57600000Y-25450000D01*
X57600000Y-24550000D01*
X57600963Y-24530397D01*
X57603843Y-24510982D01*
X57608612Y-24491943D01*
X57615224Y-24473463D01*
X57623616Y-24455721D01*
X57633706Y-24438886D01*
X57645398Y-24423121D01*
X57658579Y-24408579D01*
X57673121Y-24395398D01*
X57688886Y-24383706D01*
X57705721Y-24373616D01*
X57723463Y-24365224D01*
X57741943Y-24358612D01*
X57760982Y-24353843D01*
X57780397Y-24350963D01*
X57800000Y-24350000D01*
X58200000Y-24350000D01*
X58219603Y-24350963D01*
G37*
G04 #@! TD.AperFunction*
D21*
X64150000Y-37725000D03*
X64150000Y-30275000D03*
D22*
X67950000Y-37875000D03*
X67950000Y-30125000D03*
G04 #@! TA.AperFunction,ComponentPad*
D14*
G36*
X33219603Y-24350963D02*
G01*
X33239018Y-24353843D01*
X33258057Y-24358612D01*
X33276537Y-24365224D01*
X33294279Y-24373616D01*
X33311114Y-24383706D01*
X33326879Y-24395398D01*
X33341421Y-24408579D01*
X33354602Y-24423121D01*
X33366294Y-24438886D01*
X33376384Y-24455721D01*
X33384776Y-24473463D01*
X33391388Y-24491943D01*
X33396157Y-24510982D01*
X33399037Y-24530397D01*
X33400000Y-24550000D01*
X33400000Y-25450000D01*
X33399037Y-25469603D01*
X33396157Y-25489018D01*
X33391388Y-25508057D01*
X33384776Y-25526537D01*
X33376384Y-25544279D01*
X33366294Y-25561114D01*
X33354602Y-25576879D01*
X33341421Y-25591421D01*
X33326879Y-25604602D01*
X33311114Y-25616294D01*
X33294279Y-25626384D01*
X33276537Y-25634776D01*
X33258057Y-25641388D01*
X33239018Y-25646157D01*
X33219603Y-25649037D01*
X33200000Y-25650000D01*
X32800000Y-25650000D01*
X32780397Y-25649037D01*
X32760982Y-25646157D01*
X32741943Y-25641388D01*
X32723463Y-25634776D01*
X32705721Y-25626384D01*
X32688886Y-25616294D01*
X32673121Y-25604602D01*
X32658579Y-25591421D01*
X32645398Y-25576879D01*
X32633706Y-25561114D01*
X32623616Y-25544279D01*
X32615224Y-25526537D01*
X32608612Y-25508057D01*
X32603843Y-25489018D01*
X32600963Y-25469603D01*
X32600000Y-25450000D01*
X32600000Y-24550000D01*
X32600963Y-24530397D01*
X32603843Y-24510982D01*
X32608612Y-24491943D01*
X32615224Y-24473463D01*
X32623616Y-24455721D01*
X32633706Y-24438886D01*
X32645398Y-24423121D01*
X32658579Y-24408579D01*
X32673121Y-24395398D01*
X32688886Y-24383706D01*
X32705721Y-24373616D01*
X32723463Y-24365224D01*
X32741943Y-24358612D01*
X32760982Y-24353843D01*
X32780397Y-24350963D01*
X32800000Y-24350000D01*
X33200000Y-24350000D01*
X33219603Y-24350963D01*
G37*
G04 #@! TD.AperFunction*
D15*
X31750000Y-25000000D03*
D11*
X56032400Y-40767000D03*
X45821600Y-39370000D03*
X43154600Y-54102000D03*
D23*
X60071000Y-33401000D03*
D11*
X63500000Y-62357000D03*
X62996800Y-58704200D03*
X35306000Y-29692600D03*
X30734000Y-21590000D03*
X30734000Y-22606000D03*
X30734000Y-23622000D03*
X34036000Y-23622000D03*
X34036000Y-22606000D03*
X34036000Y-21590000D03*
X36068000Y-27051000D03*
X35052000Y-27051000D03*
X35052000Y-28067000D03*
X36068000Y-28067000D03*
X42545000Y-26035000D03*
X41529000Y-27051000D03*
X35702600Y-34585000D03*
X32757400Y-39785000D03*
D23*
X38303200Y-41198800D03*
X35229800Y-47828200D03*
D11*
X39801800Y-39370000D03*
X40640000Y-47244000D03*
X65938400Y-33538400D03*
X60045600Y-30734000D03*
X53492400Y-54635400D03*
X49453800Y-54914800D03*
X57454800Y-59893200D03*
X43586400Y-38328600D03*
X39141400Y-60477400D03*
X41910000Y-60883800D03*
X44577000Y-57251600D03*
X32537400Y-52959000D03*
X37312600Y-51409600D03*
X45237400Y-32181800D03*
X27940000Y-21590000D03*
X29210000Y-21590000D03*
X27940000Y-22860000D03*
X27940000Y-24130000D03*
X29210000Y-22860000D03*
X29210000Y-24130000D03*
X29210000Y-25400000D03*
X27940000Y-25400000D03*
X27940000Y-26670000D03*
X29210000Y-26670000D03*
X29210000Y-27940000D03*
X27940000Y-27940000D03*
X26670000Y-27940000D03*
X25400000Y-27940000D03*
X24130000Y-27940000D03*
X22860000Y-27940000D03*
X21590000Y-27940000D03*
X52070000Y-29210000D03*
X26670000Y-62230000D03*
X27940000Y-62230000D03*
X29210000Y-62230000D03*
X27940000Y-63500000D03*
X27940000Y-64770000D03*
X27940000Y-66040000D03*
X27940000Y-67310000D03*
X27940000Y-68580000D03*
X21590000Y-61976000D03*
X22860000Y-61976000D03*
X53340000Y-62230000D03*
X54610000Y-62230000D03*
X59690000Y-62230000D03*
X61976000Y-64770000D03*
X61976000Y-66040000D03*
X61976000Y-67310000D03*
X64770000Y-61976000D03*
X67310000Y-61976000D03*
X68580000Y-61976000D03*
X68580000Y-60706000D03*
X67310000Y-60706000D03*
X66040000Y-60706000D03*
X64770000Y-60706000D03*
X63500000Y-60706000D03*
X60960000Y-21590000D03*
X62230000Y-21590000D03*
X62230000Y-22860000D03*
X60960000Y-22860000D03*
X60960000Y-24130000D03*
X62230000Y-25400000D03*
X68580000Y-31750000D03*
X68580000Y-33020000D03*
X68580000Y-34290000D03*
X66040000Y-35560000D03*
X68580000Y-35560000D03*
X52070000Y-33020000D03*
X53340000Y-33020000D03*
X39370000Y-62230000D03*
X66040000Y-61976000D03*
X61976000Y-68580000D03*
X24130000Y-61976000D03*
X53746400Y-39700200D03*
X42545000Y-38252400D03*
X43637200Y-42316400D03*
X43154600Y-55168800D03*
X53975000Y-51739800D03*
X36296600Y-49225200D03*
X40309800Y-51409600D03*
X37266600Y-28757600D03*
X41783000Y-23901400D03*
X40817800Y-22961600D03*
X41783000Y-22961600D03*
X39878000Y-26035000D03*
X40817800Y-22021800D03*
X41783000Y-22021800D03*
X68834000Y-50393600D03*
X61315600Y-42392600D03*
X40767000Y-60553600D03*
X39261800Y-68802000D03*
X31794200Y-68802000D03*
X53111400Y-29692600D03*
X53268600Y-59761400D03*
X43662600Y-32258000D03*
X40817800Y-23901400D03*
X30175200Y-49758600D03*
X57150000Y-35534600D03*
X51917600Y-47142400D03*
X65151000Y-44932600D03*
X51917600Y-48107600D03*
X58343800Y-47320200D03*
X51917600Y-49098200D03*
X59486800Y-48082200D03*
X33934400Y-49834800D03*
X44450000Y-47548800D03*
X32410400Y-49834800D03*
X44450000Y-48615600D03*
X65481200Y-51358800D03*
X49352200Y-34620200D03*
X48336200Y-46101000D03*
X46964600Y-39370000D03*
X49733200Y-42697400D03*
X41833800Y-36449000D03*
X44577800Y-35941000D03*
X40690800Y-35356800D03*
X41679201Y-37539001D03*
X48336200Y-47066200D03*
X48463200Y-31724600D03*
X44907200Y-30505400D03*
X41910000Y-34899600D03*
X48336200Y-45085000D03*
X48463200Y-33274000D03*
X41833800Y-33045400D03*
X48437800Y-49834800D03*
X49403000Y-50546000D03*
X49123600Y-53882600D03*
X39090600Y-63347600D03*
X56515000Y-45999400D03*
X54483000Y-34391600D03*
X55524400Y-45186600D03*
X53517800Y-35585400D03*
X47574200Y-44475400D03*
X46888400Y-43738800D03*
X29941800Y-63327000D03*
X44627800Y-45059600D03*
X45491400Y-43230800D03*
X39192200Y-33401000D03*
X37490400Y-55499000D03*
X37490400Y-56769000D03*
X44526200Y-43230800D03*
X35915600Y-32258000D03*
D24*
X23601344Y-58516400D02*
X25298400Y-58516400D01*
X22098000Y-48514000D02*
X22098000Y-57013056D01*
X22098000Y-57013056D02*
X23601344Y-58516400D01*
X22098000Y-48514000D02*
X22098000Y-45974000D01*
X22098000Y-45974000D02*
X22098000Y-43434000D01*
X22098000Y-43434000D02*
X22098000Y-40894000D01*
X22098000Y-40894000D02*
X22098000Y-38354000D01*
X22098000Y-38354000D02*
X22098000Y-35814000D01*
X22098000Y-35814000D02*
X22098000Y-33274000D01*
X22098000Y-33274000D02*
X22098000Y-30734000D01*
D25*
X39801800Y-39700200D02*
X38303200Y-41198800D01*
X39801800Y-39370000D02*
X39801800Y-39700200D01*
D26*
X30175200Y-49758600D02*
X30175200Y-28879800D01*
X33000000Y-26055000D02*
X33000000Y-25000000D01*
X30175200Y-28879800D02*
X33000000Y-26055000D01*
X59182000Y-32936915D02*
X57150000Y-34968915D01*
X33000000Y-25000000D02*
X33842002Y-25000000D01*
X57150000Y-34968915D02*
X57150000Y-35534600D01*
X56337200Y-21082000D02*
X59182000Y-23926800D01*
X37760002Y-21082000D02*
X56337200Y-21082000D01*
X33842002Y-25000000D02*
X37760002Y-21082000D01*
X59182000Y-23926800D02*
X59182000Y-32936915D01*
D25*
X51917600Y-47142400D02*
X57448598Y-47142400D01*
X59658398Y-44932600D02*
X65151000Y-44932600D01*
X57448598Y-47142400D02*
X59658398Y-44932600D01*
X57556400Y-48107600D02*
X58343800Y-47320200D01*
X51917600Y-48107600D02*
X57556400Y-48107600D01*
X58470800Y-49098200D02*
X59486800Y-48082200D01*
X51917600Y-49098200D02*
X58470800Y-49098200D01*
X44450000Y-47548800D02*
X44450000Y-47548800D01*
X41986200Y-50012600D02*
X44450000Y-47548800D01*
X33934400Y-49834800D02*
X34112200Y-50012600D01*
X34112200Y-50012600D02*
X41986200Y-50012600D01*
X32810399Y-50234799D02*
X32410400Y-49834800D01*
X33135401Y-50559801D02*
X32810399Y-50234799D01*
X42505799Y-50559801D02*
X33135401Y-50559801D01*
X44450000Y-48615600D02*
X42505799Y-50559801D01*
D27*
X65050800Y-51789200D02*
X65050800Y-54005400D01*
X65481200Y-51358800D02*
X65050800Y-51789200D01*
D25*
X49523962Y-46101000D02*
X48336200Y-46101000D01*
X51958231Y-43666731D02*
X49523962Y-46101000D01*
X49352200Y-36588240D02*
X51015639Y-38251679D01*
X49352200Y-34620200D02*
X49352200Y-36588240D01*
X51958231Y-41734271D02*
X51958231Y-43666731D01*
X51015639Y-40791679D02*
X51958231Y-41734271D01*
X51015639Y-38251679D02*
X51015639Y-40791679D01*
D27*
X49720602Y-42684802D02*
X49733200Y-42697400D01*
D25*
X45198199Y-37603599D02*
X46964600Y-39370000D01*
X41833800Y-36449000D02*
X42988399Y-37603599D01*
X42988399Y-37603599D02*
X45198199Y-37603599D01*
X46964600Y-39370000D02*
X46964600Y-41808400D01*
X47853600Y-42697400D02*
X49733200Y-42697400D01*
X46964600Y-41808400D02*
X47853600Y-42697400D01*
X43795114Y-35723999D02*
X44012115Y-35941000D01*
X40690800Y-35356800D02*
X41057999Y-35723999D01*
X44012115Y-35941000D02*
X44577800Y-35941000D01*
X41057999Y-35723999D02*
X43795114Y-35723999D01*
X52458241Y-43873841D02*
X52458241Y-41527161D01*
X48336200Y-47066200D02*
X49265882Y-47066200D01*
X49265882Y-47066200D02*
X52458241Y-43873841D01*
X51630040Y-40698960D02*
X51515649Y-40584569D01*
X51515649Y-38044569D02*
X51515643Y-38044563D01*
X51515649Y-40584569D02*
X51515649Y-38044569D01*
X51515643Y-38044563D02*
X50791840Y-37320760D01*
X52458241Y-41527161D02*
X51630040Y-40698960D01*
X50791840Y-37320760D02*
X50165000Y-36693920D01*
X50165000Y-36693920D02*
X50165000Y-33426400D01*
X50165000Y-33426400D02*
X48463200Y-31724600D01*
X48463200Y-31724600D02*
X48463200Y-31724600D01*
X39965799Y-35825599D02*
X39965799Y-33211601D01*
X41679201Y-37539001D02*
X39965799Y-35825599D01*
X39965799Y-33211601D02*
X42672000Y-30505400D01*
X42672000Y-30505400D02*
X44907200Y-30505400D01*
X44907200Y-30505400D02*
X44907200Y-30505400D01*
X49832842Y-45085000D02*
X51458221Y-43459621D01*
X48336200Y-45085000D02*
X49832842Y-45085000D01*
X51458221Y-41941381D02*
X51458219Y-41941379D01*
X51458221Y-43459621D02*
X51458221Y-41941381D01*
X49030620Y-36973780D02*
X48463200Y-36406360D01*
X48463200Y-36406360D02*
X48463200Y-33274000D01*
X48463200Y-33274000D02*
X48463200Y-33274000D01*
X50515629Y-38458789D02*
X50515627Y-38458787D01*
X50515627Y-38458787D02*
X49030620Y-36973780D01*
X50515629Y-39522400D02*
X50515629Y-38458789D01*
X50515629Y-40998789D02*
X50515629Y-39522400D01*
X51458219Y-41941379D02*
X50515629Y-40998789D01*
X41833800Y-34823400D02*
X41910000Y-34899600D01*
X41833800Y-33045400D02*
X41833800Y-34823400D01*
D24*
X24638000Y-54356000D02*
X25298400Y-55016400D01*
X24638000Y-48514000D02*
X24638000Y-54356000D01*
X24638000Y-48514000D02*
X24638000Y-45974000D01*
X24638000Y-45974000D02*
X24638000Y-43434000D01*
X24638000Y-43434000D02*
X24638000Y-40894000D01*
X24638000Y-40894000D02*
X24638000Y-38354000D01*
X24638000Y-38354000D02*
X24638000Y-35814000D01*
X24638000Y-35814000D02*
X24638000Y-33274000D01*
X24638000Y-33274000D02*
X24638000Y-30734000D01*
D25*
X52015659Y-37837459D02*
X50665010Y-36486810D01*
X48437800Y-48601402D02*
X52958251Y-44080951D01*
X48437800Y-49834800D02*
X48437800Y-48601402D01*
X50665010Y-36486810D02*
X50665010Y-33219290D01*
X52015659Y-40377459D02*
X52015659Y-37837459D01*
X52958251Y-44080951D02*
X52958251Y-41320051D01*
X50665010Y-33219290D02*
X50000000Y-32554280D01*
X52958251Y-41320051D02*
X52015659Y-40377459D01*
X50000000Y-32554280D02*
X50000000Y-27775000D01*
X48984000Y-26759000D02*
X48984000Y-25000000D01*
X50000000Y-27775000D02*
X48984000Y-26759000D01*
X48112000Y-23622000D02*
X47734000Y-24000000D01*
X53458261Y-41112941D02*
X52515669Y-40170349D01*
X53458261Y-44288061D02*
X53458261Y-41112941D01*
X51165020Y-36279700D02*
X51165020Y-33012180D01*
X52515669Y-40170349D02*
X52515669Y-37630349D01*
X50500010Y-24719010D02*
X49403000Y-23622000D01*
X49403000Y-48343322D02*
X53458261Y-44288061D01*
X49403000Y-50546000D02*
X49403000Y-48343322D01*
X50500010Y-32347170D02*
X50500010Y-24719010D01*
X47734000Y-24000000D02*
X47734000Y-25000000D01*
X52515669Y-37630349D02*
X51165020Y-36279700D01*
X51165020Y-33012180D02*
X50500010Y-32347170D01*
X49403000Y-23622000D02*
X48112000Y-23622000D01*
X40519202Y-63347600D02*
X48539400Y-55327402D01*
X39090600Y-63347600D02*
X40519202Y-63347600D01*
X48539400Y-54466800D02*
X49123600Y-53882600D01*
X48539400Y-55327402D02*
X48539400Y-54466800D01*
X54483000Y-34391600D02*
X54483000Y-34391600D01*
X55500000Y-26000000D02*
X55500000Y-25000000D01*
X55500000Y-32808915D02*
X55500000Y-26000000D01*
X54483000Y-34391600D02*
X54483000Y-33825915D01*
X54483000Y-33825915D02*
X55500000Y-32808915D01*
X55067200Y-40874802D02*
X56515000Y-42322602D01*
X56515000Y-42322602D02*
X56515000Y-45999400D01*
X54483000Y-34391600D02*
X55067200Y-34975800D01*
X55067200Y-34975800D02*
X55067200Y-40874802D01*
X54250000Y-26000000D02*
X54250000Y-25000000D01*
X53517800Y-35585400D02*
X53517800Y-34083995D01*
X54250000Y-33351795D02*
X54250000Y-26000000D01*
X53517800Y-34083995D02*
X54250000Y-33351795D01*
X54567190Y-36634790D02*
X53517800Y-35585400D01*
X55524400Y-45186600D02*
X55524400Y-42039122D01*
X54567190Y-41081912D02*
X54567190Y-36634790D01*
X55524400Y-42039122D02*
X54567190Y-41081912D01*
X50015619Y-38665899D02*
X46750010Y-35400290D01*
X46750010Y-26266010D02*
X46484000Y-26000000D01*
X50015619Y-41205899D02*
X50015619Y-38665899D01*
X50958211Y-42148491D02*
X50015619Y-41205899D01*
X47689601Y-44359999D02*
X49850723Y-44359999D01*
X46484000Y-26000000D02*
X46484000Y-25000000D01*
X46750010Y-35400290D02*
X46750010Y-26266010D01*
X49850723Y-44359999D02*
X50958211Y-43252511D01*
X47574200Y-44475400D02*
X47689601Y-44359999D01*
X50958211Y-43252511D02*
X50958211Y-42148491D01*
X45234000Y-26184000D02*
X45234000Y-25000000D01*
X46250000Y-27200000D02*
X45234000Y-26184000D01*
X46250000Y-35607400D02*
X46250000Y-27200000D01*
X49515609Y-38873009D02*
X46250000Y-35607400D01*
X49764802Y-43738800D02*
X50458201Y-43045401D01*
X46888400Y-43738800D02*
X49764802Y-43738800D01*
X50458201Y-42355601D02*
X49515609Y-41413009D01*
X50458201Y-43045401D02*
X50458201Y-42355601D01*
X49515609Y-41413009D02*
X49515609Y-38873009D01*
X44627800Y-45059600D02*
X44627800Y-45059600D01*
X29941800Y-63327000D02*
X31838401Y-61430399D01*
X31838401Y-61430399D02*
X31838401Y-55029599D01*
X34733399Y-52134601D02*
X42302599Y-52134601D01*
X31838401Y-55029599D02*
X34733399Y-52134601D01*
X45027799Y-45459599D02*
X44627800Y-45059600D01*
X45175001Y-45606801D02*
X45027799Y-45459599D01*
X42302599Y-52134601D02*
X45175001Y-49262199D01*
X45175001Y-49262199D02*
X45175001Y-45606801D01*
X45491400Y-43230800D02*
X45491400Y-42424202D01*
X39192200Y-33966685D02*
X39192200Y-33401000D01*
X39192200Y-36125002D02*
X39192200Y-33966685D01*
X45491400Y-42424202D02*
X39192200Y-36125002D01*
X37490400Y-55499000D02*
X37490400Y-53843920D01*
X37490400Y-53843920D02*
X38199699Y-53134621D01*
X38199699Y-53134621D02*
X42716819Y-53134621D01*
X42716819Y-53134621D02*
X46175021Y-49676419D01*
X46175021Y-43914421D02*
X45491400Y-43230800D01*
X46175021Y-49676419D02*
X46175021Y-43914421D01*
X44526200Y-42166122D02*
X35915600Y-33555522D01*
X44526200Y-43230800D02*
X44526200Y-42166122D01*
X37090401Y-56369001D02*
X37490400Y-56769000D01*
X36765399Y-53861801D02*
X36765399Y-56043999D01*
X37992589Y-52634611D02*
X36765399Y-53861801D01*
X44526200Y-43230800D02*
X44526200Y-43884998D01*
X45675011Y-49469309D02*
X42509709Y-52634611D01*
X36765399Y-56043999D02*
X37090401Y-56369001D01*
X44526200Y-43884998D02*
X45675011Y-45033809D01*
X45675011Y-45033809D02*
X45675011Y-49469309D01*
X42509709Y-52634611D02*
X37992589Y-52634611D01*
X35915600Y-33555522D02*
X35915600Y-32258000D01*
D28*
G36*
X33704960Y-23885464D02*
G01*
X33665608Y-23853169D01*
X33520716Y-23775722D01*
X33363500Y-23728031D01*
X33200000Y-23711928D01*
X32800000Y-23711928D01*
X32636500Y-23728031D01*
X32479284Y-23775722D01*
X32334392Y-23853169D01*
X32316015Y-23868251D01*
X32298160Y-23854745D01*
X32112972Y-23765006D01*
X32036123Y-23755334D01*
X31877000Y-23883002D01*
X31877000Y-24873000D01*
X31897000Y-24873000D01*
X31897000Y-25127000D01*
X31877000Y-25127000D01*
X31877000Y-25147000D01*
X31623000Y-25147000D01*
X31623000Y-25127000D01*
X30866238Y-25127000D01*
X30701082Y-25291599D01*
X30729352Y-25495433D01*
X30796845Y-25689836D01*
X30900967Y-25867336D01*
X31037717Y-26021112D01*
X31201840Y-26145255D01*
X31387028Y-26234994D01*
X31463877Y-26244666D01*
X31622998Y-26117000D01*
X31622998Y-26180423D01*
X29580151Y-28223271D01*
X29546384Y-28250983D01*
X29518671Y-28284751D01*
X29518668Y-28284754D01*
X29435790Y-28385741D01*
X29353612Y-28539487D01*
X29303005Y-28706310D01*
X29285919Y-28879800D01*
X29290201Y-28923279D01*
X29290200Y-49220146D01*
X29257995Y-49268344D01*
X29179974Y-49456702D01*
X29140200Y-49656661D01*
X29140200Y-49860539D01*
X29179974Y-50060498D01*
X29257995Y-50248856D01*
X29371263Y-50418374D01*
X29515426Y-50562537D01*
X29684944Y-50675805D01*
X29873302Y-50753826D01*
X30073261Y-50793600D01*
X30277139Y-50793600D01*
X30477098Y-50753826D01*
X30665456Y-50675805D01*
X30834974Y-50562537D01*
X30979137Y-50418374D01*
X31092405Y-50248856D01*
X31170426Y-50060498D01*
X31210200Y-49860539D01*
X31210200Y-49656661D01*
X31170426Y-49456702D01*
X31092405Y-49268344D01*
X31060200Y-49220146D01*
X31060200Y-29246378D01*
X31650917Y-28655661D01*
X36231600Y-28655661D01*
X36231600Y-28859539D01*
X36271374Y-29059498D01*
X36349395Y-29247856D01*
X36462663Y-29417374D01*
X36606826Y-29561537D01*
X36776344Y-29674805D01*
X36964702Y-29752826D01*
X37164661Y-29792600D01*
X37368539Y-29792600D01*
X37568498Y-29752826D01*
X37756856Y-29674805D01*
X37926374Y-29561537D01*
X38070537Y-29417374D01*
X38183805Y-29247856D01*
X38261826Y-29059498D01*
X38301600Y-28859539D01*
X38301600Y-28655661D01*
X38261826Y-28455702D01*
X38183805Y-28267344D01*
X38070537Y-28097826D01*
X37926374Y-27953663D01*
X37756856Y-27840395D01*
X37568498Y-27762374D01*
X37368539Y-27722600D01*
X37164661Y-27722600D01*
X36964702Y-27762374D01*
X36776344Y-27840395D01*
X36606826Y-27953663D01*
X36462663Y-28097826D01*
X36349395Y-28267344D01*
X36271374Y-28455702D01*
X36231600Y-28655661D01*
X31650917Y-28655661D01*
X33595050Y-26711529D01*
X33628817Y-26683817D01*
X33667906Y-26636188D01*
X33739410Y-26549060D01*
X33739411Y-26549059D01*
X33821589Y-26395313D01*
X33872195Y-26228490D01*
X33885000Y-26098477D01*
X33885000Y-26098467D01*
X33889281Y-26055001D01*
X33885000Y-26011535D01*
X33885000Y-25933061D01*
X38843000Y-25933061D01*
X38843000Y-26136939D01*
X38882774Y-26336898D01*
X38960795Y-26525256D01*
X39074063Y-26694774D01*
X39218226Y-26838937D01*
X39387744Y-26952205D01*
X39576102Y-27030226D01*
X39776061Y-27070000D01*
X39979939Y-27070000D01*
X40179898Y-27030226D01*
X40368256Y-26952205D01*
X40537774Y-26838937D01*
X40681937Y-26694774D01*
X40795205Y-26525256D01*
X40873226Y-26336898D01*
X40913000Y-26136939D01*
X40913000Y-25933061D01*
X40873226Y-25733102D01*
X40795205Y-25544744D01*
X40681937Y-25375226D01*
X40537774Y-25231063D01*
X40368256Y-25117795D01*
X40179898Y-25039774D01*
X39979939Y-25000000D01*
X39776061Y-25000000D01*
X39576102Y-25039774D01*
X39387744Y-25117795D01*
X39218226Y-25231063D01*
X39074063Y-25375226D01*
X38960795Y-25544744D01*
X38882774Y-25733102D01*
X38843000Y-25933061D01*
X33885000Y-25933061D01*
X33885000Y-25930024D01*
X33896831Y-25915608D01*
X33914731Y-25882119D01*
X34015492Y-25872195D01*
X34182315Y-25821589D01*
X34336061Y-25739411D01*
X34470819Y-25628817D01*
X34498536Y-25595044D01*
X38126581Y-21967000D01*
X39782800Y-21967000D01*
X39782800Y-22123739D01*
X39822574Y-22323698D01*
X39892163Y-22491700D01*
X39822574Y-22659702D01*
X39782800Y-22859661D01*
X39782800Y-23063539D01*
X39822574Y-23263498D01*
X39892163Y-23431500D01*
X39822574Y-23599502D01*
X39782800Y-23799461D01*
X39782800Y-24003339D01*
X39822574Y-24203298D01*
X39900595Y-24391656D01*
X40013863Y-24561174D01*
X40158026Y-24705337D01*
X40327544Y-24818605D01*
X40515902Y-24896626D01*
X40715861Y-24936400D01*
X40919739Y-24936400D01*
X41119698Y-24896626D01*
X41300400Y-24821776D01*
X41481102Y-24896626D01*
X41681061Y-24936400D01*
X41884939Y-24936400D01*
X42084898Y-24896626D01*
X42273256Y-24818605D01*
X42442774Y-24705337D01*
X42586937Y-24561174D01*
X42700205Y-24391656D01*
X42778226Y-24203298D01*
X42818000Y-24003339D01*
X42818000Y-23799461D01*
X42778226Y-23599502D01*
X42708637Y-23431500D01*
X42778226Y-23263498D01*
X42818000Y-23063539D01*
X42818000Y-22859661D01*
X42778226Y-22659702D01*
X42708637Y-22491700D01*
X42778226Y-22323698D01*
X42818000Y-22123739D01*
X42818000Y-21967000D01*
X55970622Y-21967000D01*
X57723121Y-23719500D01*
X57636500Y-23728031D01*
X57479284Y-23775722D01*
X57334392Y-23853169D01*
X57316015Y-23868251D01*
X57298160Y-23854745D01*
X57112972Y-23765006D01*
X57036123Y-23755334D01*
X56877000Y-23883002D01*
X56877000Y-24873000D01*
X56897000Y-24873000D01*
X56897000Y-25127000D01*
X56877000Y-25127000D01*
X56877000Y-26116998D01*
X57036123Y-26244666D01*
X57112972Y-26234994D01*
X57298160Y-26145255D01*
X57316015Y-26131749D01*
X57334392Y-26146831D01*
X57479284Y-26224278D01*
X57636500Y-26271969D01*
X57800000Y-26288072D01*
X58200000Y-26288072D01*
X58297000Y-26278519D01*
X58297001Y-32570335D01*
X56554956Y-34312381D01*
X56521183Y-34340098D01*
X56410589Y-34474857D01*
X56328411Y-34628603D01*
X56297451Y-34730663D01*
X56282041Y-34781463D01*
X56277805Y-34795426D01*
X56265000Y-34925439D01*
X56265000Y-34925446D01*
X56260719Y-34968915D01*
X56263606Y-34998232D01*
X56232795Y-35044344D01*
X56154774Y-35232702D01*
X56115000Y-35432661D01*
X56115000Y-35636539D01*
X56154774Y-35836498D01*
X56232795Y-36024856D01*
X56346063Y-36194374D01*
X56490226Y-36338537D01*
X56659744Y-36451805D01*
X56848102Y-36529826D01*
X57048061Y-36569600D01*
X57251939Y-36569600D01*
X57451898Y-36529826D01*
X57640256Y-36451805D01*
X57809774Y-36338537D01*
X57953937Y-36194374D01*
X58067205Y-36024856D01*
X58145226Y-35836498D01*
X58185000Y-35636539D01*
X58185000Y-35432661D01*
X58145226Y-35232702D01*
X58143048Y-35227445D01*
X59777049Y-33593445D01*
X59810817Y-33565732D01*
X59862351Y-33502939D01*
X59921410Y-33430975D01*
X59921411Y-33430974D01*
X60003589Y-33277228D01*
X60048309Y-33129808D01*
X60054195Y-33110406D01*
X60057785Y-33073952D01*
X60067000Y-32980392D01*
X60067000Y-32980384D01*
X60071281Y-32936915D01*
X60067000Y-32893446D01*
X60067000Y-31410413D01*
X63194192Y-31410413D01*
X63289956Y-31674814D01*
X63579571Y-31815704D01*
X63891108Y-31897384D01*
X64212595Y-31916718D01*
X64250198Y-31911561D01*
X64282795Y-31990256D01*
X64396063Y-32159774D01*
X64540226Y-32303937D01*
X64709744Y-32417205D01*
X64898102Y-32495226D01*
X65098061Y-32535000D01*
X65301939Y-32535000D01*
X65501898Y-32495226D01*
X65690256Y-32417205D01*
X65859774Y-32303937D01*
X66003937Y-32159774D01*
X66117205Y-31990256D01*
X66195226Y-31801898D01*
X66235000Y-31601939D01*
X66235000Y-31398061D01*
X66195226Y-31198102D01*
X66191489Y-31189080D01*
X67065525Y-31189080D01*
X67149208Y-31443261D01*
X67421775Y-31574158D01*
X67714642Y-31649365D01*
X68016553Y-31665991D01*
X68315907Y-31623397D01*
X68601199Y-31523222D01*
X68750792Y-31443261D01*
X68834475Y-31189080D01*
X67950000Y-30304605D01*
X67065525Y-31189080D01*
X66191489Y-31189080D01*
X66117205Y-31009744D01*
X66003937Y-30840226D01*
X65859774Y-30696063D01*
X65749231Y-30622201D01*
X65772384Y-30533892D01*
X65791718Y-30212405D01*
X65788859Y-30191553D01*
X66409009Y-30191553D01*
X66451603Y-30490907D01*
X66551778Y-30776199D01*
X66631739Y-30925792D01*
X66885920Y-31009475D01*
X67770395Y-30125000D01*
X66885920Y-29240525D01*
X66631739Y-29324208D01*
X66500842Y-29596775D01*
X66425635Y-29889642D01*
X66409009Y-30191553D01*
X65788859Y-30191553D01*
X65747961Y-29893325D01*
X65642795Y-29588912D01*
X65549814Y-29414956D01*
X65285413Y-29319192D01*
X64329605Y-30275000D01*
X64343748Y-30289143D01*
X64164143Y-30468748D01*
X64150000Y-30454605D01*
X63194192Y-31410413D01*
X60067000Y-31410413D01*
X60067000Y-30337595D01*
X62508282Y-30337595D01*
X62552039Y-30656675D01*
X62657205Y-30961088D01*
X62750186Y-31135044D01*
X63014587Y-31230808D01*
X63970395Y-30275000D01*
X63014587Y-29319192D01*
X62750186Y-29414956D01*
X62609296Y-29704571D01*
X62527616Y-30016108D01*
X62508282Y-30337595D01*
X60067000Y-30337595D01*
X60067000Y-29139587D01*
X63194192Y-29139587D01*
X64150000Y-30095395D01*
X65105808Y-29139587D01*
X65077316Y-29060920D01*
X67065525Y-29060920D01*
X67950000Y-29945395D01*
X68834475Y-29060920D01*
X68750792Y-28806739D01*
X68478225Y-28675842D01*
X68185358Y-28600635D01*
X67883447Y-28584009D01*
X67584093Y-28626603D01*
X67298801Y-28726778D01*
X67149208Y-28806739D01*
X67065525Y-29060920D01*
X65077316Y-29060920D01*
X65010044Y-28875186D01*
X64720429Y-28734296D01*
X64408892Y-28652616D01*
X64087405Y-28633282D01*
X63768325Y-28677039D01*
X63463912Y-28782205D01*
X63289956Y-28875186D01*
X63194192Y-29139587D01*
X60067000Y-29139587D01*
X60067000Y-23970269D01*
X60071281Y-23926800D01*
X60067000Y-23883331D01*
X60067000Y-23883323D01*
X60054195Y-23753310D01*
X60003589Y-23586487D01*
X59921411Y-23432741D01*
X59865063Y-23364081D01*
X59838532Y-23331753D01*
X59838530Y-23331751D01*
X59810817Y-23297983D01*
X59777050Y-23270271D01*
X57191778Y-20685000D01*
X64064436Y-20685000D01*
X63879330Y-20782445D01*
X63838912Y-20809452D01*
X63478724Y-21299119D01*
X63664416Y-21484811D01*
X63643170Y-21499007D01*
X63499007Y-21643170D01*
X63484811Y-21664416D01*
X63299119Y-21478724D01*
X62809452Y-21838912D01*
X62449151Y-22502882D01*
X62225306Y-23224385D01*
X62146520Y-23975695D01*
X62215822Y-24727938D01*
X62430548Y-25452208D01*
X62782445Y-26120670D01*
X62809452Y-26161088D01*
X63299119Y-26521276D01*
X63484811Y-26335584D01*
X63499007Y-26356830D01*
X63643170Y-26500993D01*
X63664416Y-26515189D01*
X63478724Y-26700881D01*
X63838912Y-27190548D01*
X64502882Y-27550849D01*
X65224385Y-27774694D01*
X65975695Y-27853480D01*
X66727938Y-27784178D01*
X67452208Y-27569452D01*
X68120670Y-27217555D01*
X68161088Y-27190548D01*
X68521276Y-26700881D01*
X66000000Y-24179605D01*
X65121077Y-25058528D01*
X65106881Y-25037282D01*
X64962718Y-24893119D01*
X64941472Y-24878923D01*
X65820395Y-24000000D01*
X64941472Y-23121077D01*
X64962718Y-23106881D01*
X65106881Y-22962718D01*
X65121077Y-22941472D01*
X66000000Y-23820395D01*
X66014143Y-23806253D01*
X66193748Y-23985858D01*
X66179605Y-24000000D01*
X68700881Y-26521276D01*
X69190548Y-26161088D01*
X69315000Y-25931745D01*
X69315000Y-29411649D01*
X69268261Y-29324208D01*
X69014080Y-29240525D01*
X68129605Y-30125000D01*
X69014080Y-31009475D01*
X69268261Y-30925792D01*
X69315000Y-30828467D01*
X69315000Y-37161649D01*
X69268261Y-37074208D01*
X69014080Y-36990525D01*
X68129605Y-37875000D01*
X69014080Y-38759475D01*
X69268261Y-38675792D01*
X69315000Y-38578467D01*
X69315001Y-49472561D01*
X69135898Y-49398374D01*
X68935939Y-49358600D01*
X68732061Y-49358600D01*
X68532102Y-49398374D01*
X68343744Y-49476395D01*
X68174226Y-49589663D01*
X68030063Y-49733826D01*
X67916795Y-49903344D01*
X67838774Y-50091702D01*
X67799000Y-50291661D01*
X67799000Y-50495539D01*
X67838774Y-50695498D01*
X67916795Y-50883856D01*
X68030063Y-51053374D01*
X68174226Y-51197537D01*
X68343744Y-51310805D01*
X68532102Y-51388826D01*
X68732061Y-51428600D01*
X68935939Y-51428600D01*
X69135898Y-51388826D01*
X69315001Y-51314639D01*
X69315001Y-64064438D01*
X69217555Y-63879330D01*
X69190548Y-63838912D01*
X68700881Y-63478724D01*
X66179605Y-66000000D01*
X66193748Y-66014143D01*
X66014143Y-66193748D01*
X66000000Y-66179605D01*
X65121077Y-67058528D01*
X65106881Y-67037282D01*
X64962718Y-66893119D01*
X64941472Y-66878923D01*
X65820395Y-66000000D01*
X64941472Y-65121077D01*
X64962718Y-65106881D01*
X65106881Y-64962718D01*
X65121077Y-64941472D01*
X66000000Y-65820395D01*
X68521276Y-63299119D01*
X68161088Y-62809452D01*
X67497118Y-62449151D01*
X66775615Y-62225306D01*
X66024305Y-62146520D01*
X65272062Y-62215822D01*
X64547792Y-62430548D01*
X63879330Y-62782445D01*
X63838912Y-62809452D01*
X63478724Y-63299119D01*
X63664416Y-63484811D01*
X63643170Y-63499007D01*
X63499007Y-63643170D01*
X63484811Y-63664416D01*
X63299119Y-63478724D01*
X62809452Y-63838912D01*
X62449151Y-64502882D01*
X62225306Y-65224385D01*
X62146520Y-65975695D01*
X62215822Y-66727938D01*
X62430548Y-67452208D01*
X62782445Y-68120670D01*
X62809452Y-68161088D01*
X63299119Y-68521276D01*
X63484811Y-68335584D01*
X63499007Y-68356830D01*
X63643170Y-68500993D01*
X63664416Y-68515189D01*
X63478724Y-68700881D01*
X63838912Y-69190548D01*
X64068255Y-69315000D01*
X40163808Y-69315000D01*
X40179005Y-69292256D01*
X40257026Y-69103898D01*
X40296800Y-68903939D01*
X40296800Y-68700061D01*
X40257026Y-68500102D01*
X40179005Y-68311744D01*
X40065737Y-68142226D01*
X39921574Y-67998063D01*
X39752056Y-67884795D01*
X39563698Y-67806774D01*
X39363739Y-67767000D01*
X39159861Y-67767000D01*
X38959902Y-67806774D01*
X38771544Y-67884795D01*
X38602026Y-67998063D01*
X38457863Y-68142226D01*
X38344595Y-68311744D01*
X38266574Y-68500102D01*
X38226800Y-68700061D01*
X38226800Y-68903939D01*
X38266574Y-69103898D01*
X38344595Y-69292256D01*
X38359792Y-69315000D01*
X32696208Y-69315000D01*
X32711405Y-69292256D01*
X32789426Y-69103898D01*
X32829200Y-68903939D01*
X32829200Y-68700061D01*
X32789426Y-68500102D01*
X32711405Y-68311744D01*
X32598137Y-68142226D01*
X32453974Y-67998063D01*
X32284456Y-67884795D01*
X32096098Y-67806774D01*
X31896139Y-67767000D01*
X31692261Y-67767000D01*
X31492302Y-67806774D01*
X31303944Y-67884795D01*
X31134426Y-67998063D01*
X30990263Y-68142226D01*
X30876995Y-68311744D01*
X30798974Y-68500102D01*
X30759200Y-68700061D01*
X30759200Y-68903939D01*
X30798974Y-69103898D01*
X30876995Y-69292256D01*
X30892192Y-69315000D01*
X25935564Y-69315000D01*
X26120670Y-69217555D01*
X26161088Y-69190548D01*
X26521276Y-68700881D01*
X26335584Y-68515189D01*
X26356830Y-68500993D01*
X26500993Y-68356830D01*
X26515189Y-68335584D01*
X26700881Y-68521276D01*
X27190548Y-68161088D01*
X27550849Y-67497118D01*
X27774694Y-66775615D01*
X27853480Y-66024305D01*
X27784178Y-65272062D01*
X27570107Y-64550000D01*
X44961928Y-64550000D01*
X44961928Y-65450000D01*
X44978031Y-65613500D01*
X45025722Y-65770716D01*
X45103169Y-65915608D01*
X45207394Y-66042606D01*
X45334392Y-66146831D01*
X45479284Y-66224278D01*
X45636500Y-66271969D01*
X45800000Y-66288072D01*
X46200000Y-66288072D01*
X46363500Y-66271969D01*
X46520716Y-66224278D01*
X46665608Y-66146831D01*
X46683985Y-66131749D01*
X46701840Y-66145255D01*
X46887028Y-66234994D01*
X46963877Y-66244666D01*
X47123000Y-66116998D01*
X47123000Y-65127000D01*
X47103000Y-65127000D01*
X47103000Y-64873000D01*
X47123000Y-64873000D01*
X47123000Y-63883002D01*
X47377000Y-63883002D01*
X47377000Y-64873000D01*
X47397000Y-64873000D01*
X47397000Y-65127000D01*
X47377000Y-65127000D01*
X47377000Y-66116998D01*
X47536123Y-66244666D01*
X47612972Y-66234994D01*
X47798160Y-66145255D01*
X47882063Y-66081791D01*
X47922204Y-66114734D01*
X48102008Y-66210841D01*
X48297106Y-66270024D01*
X48500000Y-66290007D01*
X48702895Y-66270024D01*
X48897993Y-66210841D01*
X49077797Y-66114734D01*
X49125001Y-66075995D01*
X49172204Y-66114734D01*
X49352008Y-66210841D01*
X49547106Y-66270024D01*
X49750000Y-66290007D01*
X49952895Y-66270024D01*
X50147993Y-66210841D01*
X50327797Y-66114734D01*
X50485396Y-65985396D01*
X50614734Y-65827797D01*
X50710841Y-65647992D01*
X50770024Y-65452894D01*
X50785000Y-65300837D01*
X50785000Y-64699162D01*
X50770310Y-64550000D01*
X53961928Y-64550000D01*
X53961928Y-65450000D01*
X53978031Y-65613500D01*
X54025722Y-65770716D01*
X54103169Y-65915608D01*
X54207394Y-66042606D01*
X54334392Y-66146831D01*
X54479284Y-66224278D01*
X54636500Y-66271969D01*
X54800000Y-66288072D01*
X55200000Y-66288072D01*
X55363500Y-66271969D01*
X55520716Y-66224278D01*
X55665608Y-66146831D01*
X55683985Y-66131749D01*
X55701840Y-66145255D01*
X55887028Y-66234994D01*
X55963877Y-66244666D01*
X56123000Y-66116998D01*
X56123000Y-65127000D01*
X56103000Y-65127000D01*
X56103000Y-64873000D01*
X56123000Y-64873000D01*
X56123000Y-63883002D01*
X56377000Y-63883002D01*
X56377000Y-64873000D01*
X56397000Y-64873000D01*
X56397000Y-65127000D01*
X56377000Y-65127000D01*
X56377000Y-66116998D01*
X56536123Y-66244666D01*
X56612972Y-66234994D01*
X56798160Y-66145255D01*
X56882063Y-66081791D01*
X56922204Y-66114734D01*
X57102008Y-66210841D01*
X57297106Y-66270024D01*
X57500000Y-66290007D01*
X57702895Y-66270024D01*
X57897993Y-66210841D01*
X58077797Y-66114734D01*
X58125001Y-66075995D01*
X58172204Y-66114734D01*
X58352008Y-66210841D01*
X58547106Y-66270024D01*
X58750000Y-66290007D01*
X58952895Y-66270024D01*
X59147993Y-66210841D01*
X59327797Y-66114734D01*
X59485396Y-65985396D01*
X59614734Y-65827797D01*
X59710841Y-65647992D01*
X59770024Y-65452894D01*
X59785000Y-65300837D01*
X59785000Y-64699162D01*
X59770024Y-64547105D01*
X59710841Y-64352007D01*
X59614734Y-64172203D01*
X59485396Y-64014604D01*
X59327797Y-63885266D01*
X59147992Y-63789159D01*
X58952894Y-63729976D01*
X58750000Y-63709993D01*
X58547105Y-63729976D01*
X58352007Y-63789159D01*
X58172203Y-63885266D01*
X58125000Y-63924004D01*
X58077797Y-63885266D01*
X57897992Y-63789159D01*
X57702894Y-63729976D01*
X57500000Y-63709993D01*
X57297105Y-63729976D01*
X57102007Y-63789159D01*
X56922203Y-63885266D01*
X56882062Y-63918209D01*
X56798160Y-63854745D01*
X56612972Y-63765006D01*
X56536123Y-63755334D01*
X56377000Y-63883002D01*
X56123000Y-63883002D01*
X55963877Y-63755334D01*
X55887028Y-63765006D01*
X55701840Y-63854745D01*
X55683985Y-63868251D01*
X55665608Y-63853169D01*
X55520716Y-63775722D01*
X55363500Y-63728031D01*
X55200000Y-63711928D01*
X54800000Y-63711928D01*
X54636500Y-63728031D01*
X54479284Y-63775722D01*
X54334392Y-63853169D01*
X54207394Y-63957394D01*
X54103169Y-64084392D01*
X54025722Y-64229284D01*
X53978031Y-64386500D01*
X53961928Y-64550000D01*
X50770310Y-64550000D01*
X50770024Y-64547105D01*
X50710841Y-64352007D01*
X50614734Y-64172203D01*
X50485396Y-64014604D01*
X50327797Y-63885266D01*
X50147992Y-63789159D01*
X49952894Y-63729976D01*
X49750000Y-63709993D01*
X49547105Y-63729976D01*
X49352007Y-63789159D01*
X49172203Y-63885266D01*
X49125000Y-63924004D01*
X49077797Y-63885266D01*
X48897992Y-63789159D01*
X48702894Y-63729976D01*
X48500000Y-63709993D01*
X48297105Y-63729976D01*
X48102007Y-63789159D01*
X47922203Y-63885266D01*
X47882062Y-63918209D01*
X47798160Y-63854745D01*
X47612972Y-63765006D01*
X47536123Y-63755334D01*
X47377000Y-63883002D01*
X47123000Y-63883002D01*
X46963877Y-63755334D01*
X46887028Y-63765006D01*
X46701840Y-63854745D01*
X46683985Y-63868251D01*
X46665608Y-63853169D01*
X46520716Y-63775722D01*
X46363500Y-63728031D01*
X46200000Y-63711928D01*
X45800000Y-63711928D01*
X45636500Y-63728031D01*
X45479284Y-63775722D01*
X45334392Y-63853169D01*
X45207394Y-63957394D01*
X45103169Y-64084392D01*
X45025722Y-64229284D01*
X44978031Y-64386500D01*
X44961928Y-64550000D01*
X27570107Y-64550000D01*
X27569452Y-64547792D01*
X27217555Y-63879330D01*
X27190548Y-63838912D01*
X26700881Y-63478724D01*
X26515189Y-63664416D01*
X26500993Y-63643170D01*
X26356830Y-63499007D01*
X26335584Y-63484811D01*
X26521276Y-63299119D01*
X26466801Y-63225061D01*
X28906800Y-63225061D01*
X28906800Y-63428939D01*
X28946574Y-63628898D01*
X29024595Y-63817256D01*
X29137863Y-63986774D01*
X29282026Y-64130937D01*
X29451544Y-64244205D01*
X29639902Y-64322226D01*
X29839861Y-64362000D01*
X30043739Y-64362000D01*
X30243698Y-64322226D01*
X30432056Y-64244205D01*
X30601574Y-64130937D01*
X30745737Y-63986774D01*
X30859005Y-63817256D01*
X30937026Y-63628898D01*
X30974671Y-63439641D01*
X31168651Y-63245661D01*
X38055600Y-63245661D01*
X38055600Y-63449539D01*
X38095374Y-63649498D01*
X38173395Y-63837856D01*
X38286663Y-64007374D01*
X38430826Y-64151537D01*
X38600344Y-64264805D01*
X38788702Y-64342826D01*
X38988661Y-64382600D01*
X39192539Y-64382600D01*
X39392498Y-64342826D01*
X39580856Y-64264805D01*
X39741300Y-64157600D01*
X40479414Y-64157600D01*
X40519202Y-64161519D01*
X40558990Y-64157600D01*
X40558993Y-64157600D01*
X40677990Y-64145880D01*
X40830675Y-64099563D01*
X40971391Y-64024349D01*
X41094730Y-63923128D01*
X41120102Y-63892212D01*
X45352853Y-59659461D01*
X52233600Y-59659461D01*
X52233600Y-59863339D01*
X52273374Y-60063298D01*
X52351395Y-60251656D01*
X52464663Y-60421174D01*
X52608826Y-60565337D01*
X52778344Y-60678605D01*
X52966702Y-60756626D01*
X53166661Y-60796400D01*
X53370539Y-60796400D01*
X53570498Y-60756626D01*
X53758856Y-60678605D01*
X53928374Y-60565337D01*
X54072537Y-60421174D01*
X54185805Y-60251656D01*
X54263826Y-60063298D01*
X54303600Y-59863339D01*
X54303600Y-59659461D01*
X54263826Y-59459502D01*
X54185805Y-59271144D01*
X54072537Y-59101626D01*
X53928374Y-58957463D01*
X53758856Y-58844195D01*
X53570498Y-58766174D01*
X53370539Y-58726400D01*
X53166661Y-58726400D01*
X52966702Y-58766174D01*
X52778344Y-58844195D01*
X52608826Y-58957463D01*
X52464663Y-59101626D01*
X52351395Y-59271144D01*
X52273374Y-59459502D01*
X52233600Y-59659461D01*
X45352853Y-59659461D01*
X47456914Y-57555400D01*
X63762728Y-57555400D01*
X63762728Y-57955400D01*
X63778831Y-58118900D01*
X63826522Y-58276116D01*
X63903969Y-58421008D01*
X64008194Y-58548006D01*
X64135192Y-58652231D01*
X64280084Y-58729678D01*
X64437300Y-58777369D01*
X64600800Y-58793472D01*
X65500800Y-58793472D01*
X65664300Y-58777369D01*
X65821516Y-58729678D01*
X65966408Y-58652231D01*
X66093406Y-58548006D01*
X66197631Y-58421008D01*
X66275078Y-58276116D01*
X66322769Y-58118900D01*
X66338872Y-57955400D01*
X66338872Y-57555400D01*
X66322769Y-57391900D01*
X66275078Y-57234684D01*
X66197631Y-57089792D01*
X66182549Y-57071415D01*
X66196055Y-57053560D01*
X66285794Y-56868372D01*
X66295466Y-56791523D01*
X66167798Y-56632400D01*
X65177800Y-56632400D01*
X65177800Y-56652400D01*
X64923800Y-56652400D01*
X64923800Y-56632400D01*
X63933802Y-56632400D01*
X63806134Y-56791523D01*
X63815806Y-56868372D01*
X63905545Y-57053560D01*
X63919051Y-57071415D01*
X63903969Y-57089792D01*
X63826522Y-57234684D01*
X63778831Y-57391900D01*
X63762728Y-57555400D01*
X47456914Y-57555400D01*
X49084019Y-55928296D01*
X49114928Y-55902930D01*
X49216149Y-55779591D01*
X49291363Y-55638875D01*
X49337680Y-55486190D01*
X49349400Y-55367193D01*
X49349400Y-55367190D01*
X49353319Y-55327402D01*
X49349400Y-55287614D01*
X49349400Y-54892963D01*
X49425498Y-54877826D01*
X49613856Y-54799805D01*
X49783374Y-54686537D01*
X49927537Y-54542374D01*
X50040805Y-54372856D01*
X50118826Y-54184498D01*
X50154450Y-54005400D01*
X63760793Y-54005400D01*
X63780776Y-54208295D01*
X63839959Y-54403393D01*
X63936066Y-54583197D01*
X63974804Y-54630400D01*
X63936066Y-54677603D01*
X63839959Y-54857407D01*
X63780776Y-55052505D01*
X63760793Y-55255400D01*
X63780776Y-55458295D01*
X63839959Y-55653393D01*
X63936066Y-55833197D01*
X63969009Y-55873338D01*
X63905545Y-55957240D01*
X63815806Y-56142428D01*
X63806134Y-56219277D01*
X63933802Y-56378400D01*
X64923800Y-56378400D01*
X64923800Y-56358400D01*
X65177800Y-56358400D01*
X65177800Y-56378400D01*
X66167798Y-56378400D01*
X66295466Y-56219277D01*
X66285794Y-56142428D01*
X66196055Y-55957240D01*
X66132591Y-55873338D01*
X66165534Y-55833197D01*
X66261641Y-55653393D01*
X66320824Y-55458295D01*
X66340807Y-55255400D01*
X66320824Y-55052505D01*
X66261641Y-54857407D01*
X66165534Y-54677603D01*
X66126796Y-54630400D01*
X66165534Y-54583197D01*
X66261641Y-54403393D01*
X66320824Y-54208295D01*
X66340807Y-54005400D01*
X66320824Y-53802505D01*
X66261641Y-53607407D01*
X66165534Y-53427603D01*
X66036196Y-53270004D01*
X65878597Y-53140666D01*
X65810800Y-53104428D01*
X65810800Y-52342551D01*
X65971456Y-52276005D01*
X66140974Y-52162737D01*
X66285137Y-52018574D01*
X66398405Y-51849056D01*
X66476426Y-51660698D01*
X66516200Y-51460739D01*
X66516200Y-51256861D01*
X66476426Y-51056902D01*
X66398405Y-50868544D01*
X66285137Y-50699026D01*
X66140974Y-50554863D01*
X65971456Y-50441595D01*
X65783098Y-50363574D01*
X65583139Y-50323800D01*
X65379261Y-50323800D01*
X65179302Y-50363574D01*
X64990944Y-50441595D01*
X64821426Y-50554863D01*
X64677263Y-50699026D01*
X64563995Y-50868544D01*
X64485974Y-51056902D01*
X64446200Y-51256861D01*
X64446200Y-51327914D01*
X64415826Y-51364924D01*
X64363293Y-51463205D01*
X64345254Y-51496954D01*
X64301797Y-51640215D01*
X64290800Y-51751868D01*
X64290800Y-51751878D01*
X64287124Y-51789200D01*
X64290800Y-51826523D01*
X64290801Y-53104428D01*
X64223003Y-53140666D01*
X64065404Y-53270004D01*
X63936066Y-53427603D01*
X63839959Y-53607407D01*
X63780776Y-53802505D01*
X63760793Y-54005400D01*
X50154450Y-54005400D01*
X50158600Y-53984539D01*
X50158600Y-53780661D01*
X50118826Y-53580702D01*
X50040805Y-53392344D01*
X49927537Y-53222826D01*
X49783374Y-53078663D01*
X49613856Y-52965395D01*
X49425498Y-52887374D01*
X49225539Y-52847600D01*
X49021661Y-52847600D01*
X48821702Y-52887374D01*
X48633344Y-52965395D01*
X48463826Y-53078663D01*
X48319663Y-53222826D01*
X48206395Y-53392344D01*
X48128374Y-53580702D01*
X48090729Y-53769959D01*
X47994783Y-53865905D01*
X47963873Y-53891272D01*
X47938508Y-53922180D01*
X47862651Y-54014611D01*
X47825299Y-54084493D01*
X47787438Y-54155327D01*
X47744266Y-54297647D01*
X47741121Y-54308013D01*
X47725481Y-54466800D01*
X47729400Y-54506588D01*
X47729400Y-54991889D01*
X41688993Y-61032297D01*
X41762226Y-60855498D01*
X41802000Y-60655539D01*
X41802000Y-60451661D01*
X41762226Y-60251702D01*
X41684205Y-60063344D01*
X41570937Y-59893826D01*
X41426774Y-59749663D01*
X41257256Y-59636395D01*
X41068898Y-59558374D01*
X40868939Y-59518600D01*
X40665061Y-59518600D01*
X40465102Y-59558374D01*
X40276744Y-59636395D01*
X40107226Y-59749663D01*
X39963063Y-59893826D01*
X39849795Y-60063344D01*
X39771774Y-60251702D01*
X39732000Y-60451661D01*
X39732000Y-60655539D01*
X39771774Y-60855498D01*
X39849795Y-61043856D01*
X39963063Y-61213374D01*
X40107226Y-61357537D01*
X40276744Y-61470805D01*
X40465102Y-61548826D01*
X40665061Y-61588600D01*
X40868939Y-61588600D01*
X41068898Y-61548826D01*
X41245697Y-61475593D01*
X40183690Y-62537600D01*
X39741300Y-62537600D01*
X39580856Y-62430395D01*
X39392498Y-62352374D01*
X39192539Y-62312600D01*
X38988661Y-62312600D01*
X38788702Y-62352374D01*
X38600344Y-62430395D01*
X38430826Y-62543663D01*
X38286663Y-62687826D01*
X38173395Y-62857344D01*
X38095374Y-63045702D01*
X38055600Y-63245661D01*
X31168651Y-63245661D01*
X32383020Y-62031293D01*
X32413929Y-62005927D01*
X32462615Y-61946603D01*
X32515150Y-61882589D01*
X32590363Y-61741873D01*
X32590364Y-61741872D01*
X32636681Y-61589187D01*
X32648401Y-61470190D01*
X32648401Y-61470187D01*
X32652320Y-61430399D01*
X32648401Y-61390611D01*
X32648401Y-55365111D01*
X35068912Y-52944601D01*
X36537087Y-52944601D01*
X36220786Y-53260902D01*
X36189871Y-53286273D01*
X36125086Y-53365215D01*
X36088650Y-53409612D01*
X36060699Y-53461906D01*
X36013436Y-53550329D01*
X35967119Y-53703014D01*
X35956447Y-53811370D01*
X35951480Y-53861801D01*
X35955399Y-53901589D01*
X35955400Y-56004201D01*
X35951480Y-56043999D01*
X35959526Y-56125682D01*
X35967120Y-56202787D01*
X35997266Y-56302164D01*
X36013437Y-56355472D01*
X36088650Y-56496188D01*
X36114584Y-56527788D01*
X36189872Y-56619527D01*
X36220782Y-56644894D01*
X36457529Y-56881641D01*
X36495174Y-57070898D01*
X36573195Y-57259256D01*
X36686463Y-57428774D01*
X36830626Y-57572937D01*
X37000144Y-57686205D01*
X37188502Y-57764226D01*
X37388461Y-57804000D01*
X37592339Y-57804000D01*
X37792298Y-57764226D01*
X37980656Y-57686205D01*
X38150174Y-57572937D01*
X38294337Y-57428774D01*
X38407605Y-57259256D01*
X38485626Y-57070898D01*
X38525400Y-56870939D01*
X38525400Y-56667061D01*
X38485626Y-56467102D01*
X38407605Y-56278744D01*
X38310890Y-56134000D01*
X38407605Y-55989256D01*
X38485626Y-55800898D01*
X38525400Y-55600939D01*
X38525400Y-55397061D01*
X38485626Y-55197102D01*
X38431679Y-55066861D01*
X42119600Y-55066861D01*
X42119600Y-55270739D01*
X42159374Y-55470698D01*
X42237395Y-55659056D01*
X42350663Y-55828574D01*
X42494826Y-55972737D01*
X42664344Y-56086005D01*
X42852702Y-56164026D01*
X43052661Y-56203800D01*
X43256539Y-56203800D01*
X43456498Y-56164026D01*
X43644856Y-56086005D01*
X43814374Y-55972737D01*
X43958537Y-55828574D01*
X44071805Y-55659056D01*
X44149826Y-55470698D01*
X44189600Y-55270739D01*
X44189600Y-55066861D01*
X44149826Y-54866902D01*
X44071805Y-54678544D01*
X43958537Y-54509026D01*
X43814374Y-54364863D01*
X43644856Y-54251595D01*
X43456498Y-54173574D01*
X43256539Y-54133800D01*
X43052661Y-54133800D01*
X42852702Y-54173574D01*
X42664344Y-54251595D01*
X42494826Y-54364863D01*
X42350663Y-54509026D01*
X42237395Y-54678544D01*
X42159374Y-54866902D01*
X42119600Y-55066861D01*
X38431679Y-55066861D01*
X38407605Y-55008744D01*
X38300400Y-54848300D01*
X38300400Y-54179432D01*
X38535212Y-53944621D01*
X42677031Y-53944621D01*
X42716819Y-53948540D01*
X42756607Y-53944621D01*
X42756610Y-53944621D01*
X42875607Y-53932901D01*
X43028292Y-53886584D01*
X43169008Y-53811370D01*
X43292347Y-53710149D01*
X43317719Y-53679233D01*
X45359091Y-51637861D01*
X52940000Y-51637861D01*
X52940000Y-51841739D01*
X52979774Y-52041698D01*
X53057795Y-52230056D01*
X53171063Y-52399574D01*
X53315226Y-52543737D01*
X53484744Y-52657005D01*
X53673102Y-52735026D01*
X53873061Y-52774800D01*
X54076939Y-52774800D01*
X54276898Y-52735026D01*
X54465256Y-52657005D01*
X54634774Y-52543737D01*
X54778937Y-52399574D01*
X54892205Y-52230056D01*
X54970226Y-52041698D01*
X55010000Y-51841739D01*
X55010000Y-51637861D01*
X54970226Y-51437902D01*
X54892205Y-51249544D01*
X54778937Y-51080026D01*
X54634774Y-50935863D01*
X54465256Y-50822595D01*
X54276898Y-50744574D01*
X54076939Y-50704800D01*
X53873061Y-50704800D01*
X53673102Y-50744574D01*
X53484744Y-50822595D01*
X53315226Y-50935863D01*
X53171063Y-51080026D01*
X53057795Y-51249544D01*
X52979774Y-51437902D01*
X52940000Y-51637861D01*
X45359091Y-51637861D01*
X46719640Y-50277313D01*
X46750549Y-50251947D01*
X46816662Y-50171388D01*
X46851770Y-50128609D01*
X46913778Y-50012599D01*
X46926984Y-49987892D01*
X46973301Y-49835207D01*
X46985021Y-49716210D01*
X46985021Y-49716208D01*
X46988940Y-49676420D01*
X46985021Y-49636632D01*
X46985021Y-45326507D01*
X47083944Y-45392605D01*
X47272302Y-45470626D01*
X47384936Y-45493030D01*
X47418995Y-45575256D01*
X47430851Y-45593000D01*
X47418995Y-45610744D01*
X47340974Y-45799102D01*
X47301200Y-45999061D01*
X47301200Y-46202939D01*
X47340974Y-46402898D01*
X47415824Y-46583600D01*
X47340974Y-46764302D01*
X47301200Y-46964261D01*
X47301200Y-47168139D01*
X47340974Y-47368098D01*
X47418995Y-47556456D01*
X47532263Y-47725974D01*
X47676426Y-47870137D01*
X47845944Y-47983405D01*
X47891187Y-48002145D01*
X47862273Y-48025874D01*
X47831641Y-48063200D01*
X47761051Y-48149213D01*
X47711997Y-48240988D01*
X47685838Y-48289929D01*
X47640792Y-48438426D01*
X47639521Y-48442615D01*
X47623881Y-48601402D01*
X47627801Y-48641200D01*
X47627801Y-49184099D01*
X47520595Y-49344544D01*
X47442574Y-49532902D01*
X47402800Y-49732861D01*
X47402800Y-49936739D01*
X47442574Y-50136698D01*
X47520595Y-50325056D01*
X47633863Y-50494574D01*
X47778026Y-50638737D01*
X47947544Y-50752005D01*
X48135902Y-50830026D01*
X48335861Y-50869800D01*
X48416846Y-50869800D01*
X48485795Y-51036256D01*
X48599063Y-51205774D01*
X48743226Y-51349937D01*
X48912744Y-51463205D01*
X49101102Y-51541226D01*
X49301061Y-51581000D01*
X49504939Y-51581000D01*
X49704898Y-51541226D01*
X49893256Y-51463205D01*
X50062774Y-51349937D01*
X50206937Y-51205774D01*
X50320205Y-51036256D01*
X50398226Y-50847898D01*
X50438000Y-50647939D01*
X50438000Y-50444061D01*
X50398226Y-50244102D01*
X50320205Y-50055744D01*
X50213000Y-49895300D01*
X50213000Y-48678834D01*
X50882600Y-48009234D01*
X50882600Y-48209539D01*
X50922374Y-48409498D01*
X51000395Y-48597856D01*
X51003765Y-48602900D01*
X51000395Y-48607944D01*
X50922374Y-48796302D01*
X50882600Y-48996261D01*
X50882600Y-49200139D01*
X50922374Y-49400098D01*
X51000395Y-49588456D01*
X51113663Y-49757974D01*
X51257826Y-49902137D01*
X51427344Y-50015405D01*
X51615702Y-50093426D01*
X51815661Y-50133200D01*
X52019539Y-50133200D01*
X52219498Y-50093426D01*
X52407856Y-50015405D01*
X52568300Y-49908200D01*
X58431012Y-49908200D01*
X58470800Y-49912119D01*
X58510588Y-49908200D01*
X58510591Y-49908200D01*
X58629588Y-49896480D01*
X58782273Y-49850163D01*
X58922989Y-49774949D01*
X59046328Y-49673728D01*
X59071700Y-49642812D01*
X59599441Y-49115071D01*
X59788698Y-49077426D01*
X59977056Y-48999405D01*
X60146574Y-48886137D01*
X60290737Y-48741974D01*
X60404005Y-48572456D01*
X60482026Y-48384098D01*
X60521800Y-48184139D01*
X60521800Y-47980261D01*
X60482026Y-47780302D01*
X60404005Y-47591944D01*
X60290737Y-47422426D01*
X60146574Y-47278263D01*
X59977056Y-47164995D01*
X59788698Y-47086974D01*
X59588739Y-47047200D01*
X59384861Y-47047200D01*
X59346300Y-47054870D01*
X59339026Y-47018302D01*
X59261005Y-46829944D01*
X59147737Y-46660426D01*
X59111911Y-46624600D01*
X59993911Y-45742600D01*
X64500300Y-45742600D01*
X64660744Y-45849805D01*
X64849102Y-45927826D01*
X65049061Y-45967600D01*
X65252939Y-45967600D01*
X65452898Y-45927826D01*
X65641256Y-45849805D01*
X65810774Y-45736537D01*
X65954937Y-45592374D01*
X66068205Y-45422856D01*
X66146226Y-45234498D01*
X66186000Y-45034539D01*
X66186000Y-44830661D01*
X66146226Y-44630702D01*
X66068205Y-44442344D01*
X65954937Y-44272826D01*
X65810774Y-44128663D01*
X65641256Y-44015395D01*
X65452898Y-43937374D01*
X65252939Y-43897600D01*
X65049061Y-43897600D01*
X64849102Y-43937374D01*
X64660744Y-44015395D01*
X64500300Y-44122600D01*
X59698185Y-44122600D01*
X59658397Y-44118681D01*
X59618609Y-44122600D01*
X59618607Y-44122600D01*
X59499610Y-44134320D01*
X59346925Y-44180637D01*
X59289461Y-44211352D01*
X59206208Y-44255851D01*
X59150608Y-44301481D01*
X59082870Y-44357072D01*
X59057503Y-44387982D01*
X57549672Y-45895813D01*
X57510226Y-45697502D01*
X57432205Y-45509144D01*
X57325000Y-45348700D01*
X57325000Y-42362389D01*
X57328919Y-42322601D01*
X57325774Y-42290661D01*
X60280600Y-42290661D01*
X60280600Y-42494539D01*
X60320374Y-42694498D01*
X60398395Y-42882856D01*
X60511663Y-43052374D01*
X60655826Y-43196537D01*
X60825344Y-43309805D01*
X61013702Y-43387826D01*
X61213661Y-43427600D01*
X61417539Y-43427600D01*
X61617498Y-43387826D01*
X61805856Y-43309805D01*
X61975374Y-43196537D01*
X62119537Y-43052374D01*
X62232805Y-42882856D01*
X62310826Y-42694498D01*
X62350600Y-42494539D01*
X62350600Y-42290661D01*
X62310826Y-42090702D01*
X62232805Y-41902344D01*
X62119537Y-41732826D01*
X61975374Y-41588663D01*
X61805856Y-41475395D01*
X61617498Y-41397374D01*
X61417539Y-41357600D01*
X61213661Y-41357600D01*
X61013702Y-41397374D01*
X60825344Y-41475395D01*
X60655826Y-41588663D01*
X60511663Y-41732826D01*
X60398395Y-41902344D01*
X60320374Y-42090702D01*
X60280600Y-42290661D01*
X57325774Y-42290661D01*
X57324046Y-42273124D01*
X57313280Y-42163814D01*
X57266963Y-42011129D01*
X57191749Y-41870413D01*
X57090528Y-41747074D01*
X57059619Y-41721708D01*
X55877200Y-40539290D01*
X55877200Y-38860413D01*
X63194192Y-38860413D01*
X63289956Y-39124814D01*
X63579571Y-39265704D01*
X63891108Y-39347384D01*
X64212595Y-39366718D01*
X64531675Y-39322961D01*
X64836088Y-39217795D01*
X65010044Y-39124814D01*
X65077315Y-38939080D01*
X67065525Y-38939080D01*
X67149208Y-39193261D01*
X67421775Y-39324158D01*
X67714642Y-39399365D01*
X68016553Y-39415991D01*
X68315907Y-39373397D01*
X68601199Y-39273222D01*
X68750792Y-39193261D01*
X68834475Y-38939080D01*
X67950000Y-38054605D01*
X67065525Y-38939080D01*
X65077315Y-38939080D01*
X65105808Y-38860413D01*
X64150000Y-37904605D01*
X63194192Y-38860413D01*
X55877200Y-38860413D01*
X55877200Y-37787595D01*
X62508282Y-37787595D01*
X62552039Y-38106675D01*
X62657205Y-38411088D01*
X62750186Y-38585044D01*
X63014587Y-38680808D01*
X63970395Y-37725000D01*
X63014587Y-36769192D01*
X62750186Y-36864956D01*
X62609296Y-37154571D01*
X62527616Y-37466108D01*
X62508282Y-37787595D01*
X55877200Y-37787595D01*
X55877200Y-36589587D01*
X63194192Y-36589587D01*
X64150000Y-37545395D01*
X64164143Y-37531253D01*
X64343748Y-37710858D01*
X64329605Y-37725000D01*
X65285413Y-38680808D01*
X65549814Y-38585044D01*
X65690704Y-38295429D01*
X65772384Y-37983892D01*
X65774930Y-37941553D01*
X66409009Y-37941553D01*
X66451603Y-38240907D01*
X66551778Y-38526199D01*
X66631739Y-38675792D01*
X66885920Y-38759475D01*
X67770395Y-37875000D01*
X66885920Y-36990525D01*
X66631739Y-37074208D01*
X66500842Y-37346775D01*
X66425635Y-37639642D01*
X66409009Y-37941553D01*
X65774930Y-37941553D01*
X65791718Y-37662405D01*
X65752398Y-37375683D01*
X65859774Y-37303937D01*
X66003937Y-37159774D01*
X66117205Y-36990256D01*
X66191488Y-36810920D01*
X67065525Y-36810920D01*
X67950000Y-37695395D01*
X68834475Y-36810920D01*
X68750792Y-36556739D01*
X68478225Y-36425842D01*
X68185358Y-36350635D01*
X67883447Y-36334009D01*
X67584093Y-36376603D01*
X67298801Y-36476778D01*
X67149208Y-36556739D01*
X67065525Y-36810920D01*
X66191488Y-36810920D01*
X66195226Y-36801898D01*
X66235000Y-36601939D01*
X66235000Y-36398061D01*
X66195226Y-36198102D01*
X66117205Y-36009744D01*
X66003937Y-35840226D01*
X65859774Y-35696063D01*
X65690256Y-35582795D01*
X65501898Y-35504774D01*
X65301939Y-35465000D01*
X65098061Y-35465000D01*
X64898102Y-35504774D01*
X64709744Y-35582795D01*
X64540226Y-35696063D01*
X64396063Y-35840226D01*
X64282795Y-36009744D01*
X64248326Y-36092960D01*
X64087405Y-36083282D01*
X63768325Y-36127039D01*
X63463912Y-36232205D01*
X63289956Y-36325186D01*
X63194192Y-36589587D01*
X55877200Y-36589587D01*
X55877200Y-35015591D01*
X55881119Y-34975800D01*
X55865480Y-34817012D01*
X55819163Y-34664326D01*
X55743949Y-34523611D01*
X55685898Y-34452875D01*
X55642728Y-34400272D01*
X55611819Y-34374906D01*
X55515871Y-34278958D01*
X55478226Y-34089702D01*
X55444982Y-34009445D01*
X56044619Y-33409809D01*
X56075528Y-33384443D01*
X56150573Y-33293000D01*
X56176749Y-33261105D01*
X56234457Y-33153140D01*
X56251963Y-33120388D01*
X56298280Y-32967703D01*
X56310000Y-32848706D01*
X56310000Y-32848704D01*
X56313919Y-32808916D01*
X56310000Y-32769128D01*
X56310000Y-26197668D01*
X56387028Y-26234994D01*
X56463877Y-26244666D01*
X56623000Y-26116998D01*
X56623000Y-25127000D01*
X56603000Y-25127000D01*
X56603000Y-24873000D01*
X56623000Y-24873000D01*
X56623000Y-23883002D01*
X56463877Y-23755334D01*
X56387028Y-23765006D01*
X56201840Y-23854745D01*
X56117938Y-23918209D01*
X56077797Y-23885266D01*
X55897993Y-23789159D01*
X55702895Y-23729976D01*
X55500000Y-23709993D01*
X55297106Y-23729976D01*
X55102008Y-23789159D01*
X54922204Y-23885266D01*
X54875001Y-23924005D01*
X54827797Y-23885266D01*
X54647993Y-23789159D01*
X54452895Y-23729976D01*
X54250000Y-23709993D01*
X54047106Y-23729976D01*
X53852008Y-23789159D01*
X53672204Y-23885266D01*
X53514605Y-24014604D01*
X53385267Y-24172203D01*
X53289159Y-24352007D01*
X53229976Y-24547105D01*
X53215000Y-24699162D01*
X53215000Y-25300837D01*
X53229976Y-25452894D01*
X53289159Y-25647992D01*
X53385266Y-25827797D01*
X53440000Y-25894491D01*
X53440000Y-26039790D01*
X53440001Y-26039800D01*
X53440001Y-28708435D01*
X53413298Y-28697374D01*
X53213339Y-28657600D01*
X53009461Y-28657600D01*
X52953164Y-28668798D01*
X52873937Y-28550226D01*
X52729774Y-28406063D01*
X52560256Y-28292795D01*
X52371898Y-28214774D01*
X52171939Y-28175000D01*
X51968061Y-28175000D01*
X51768102Y-28214774D01*
X51579744Y-28292795D01*
X51410226Y-28406063D01*
X51310010Y-28506279D01*
X51310010Y-24758797D01*
X51313929Y-24719009D01*
X51308482Y-24663705D01*
X51298290Y-24560222D01*
X51251973Y-24407537D01*
X51176759Y-24266821D01*
X51075538Y-24143482D01*
X51044628Y-24118115D01*
X50003899Y-23077387D01*
X49978528Y-23046472D01*
X49855189Y-22945251D01*
X49714473Y-22870037D01*
X49561788Y-22823720D01*
X49442791Y-22812000D01*
X49442788Y-22812000D01*
X49403000Y-22808081D01*
X49363212Y-22812000D01*
X48151788Y-22812000D01*
X48112000Y-22808081D01*
X48072212Y-22812000D01*
X48072209Y-22812000D01*
X47953212Y-22823720D01*
X47836063Y-22859257D01*
X47800526Y-22870037D01*
X47769590Y-22886573D01*
X47659811Y-22945251D01*
X47536472Y-23046472D01*
X47511100Y-23077388D01*
X47189388Y-23399100D01*
X47158472Y-23424472D01*
X47106570Y-23487716D01*
X47057251Y-23547811D01*
X47054443Y-23553065D01*
X46982037Y-23688528D01*
X46941811Y-23821133D01*
X46881993Y-23789159D01*
X46686895Y-23729976D01*
X46484000Y-23709993D01*
X46281106Y-23729976D01*
X46086008Y-23789159D01*
X45906204Y-23885266D01*
X45859001Y-23924005D01*
X45811797Y-23885266D01*
X45631993Y-23789159D01*
X45436895Y-23729976D01*
X45234000Y-23709993D01*
X45031106Y-23729976D01*
X44836008Y-23789159D01*
X44656204Y-23885266D01*
X44498605Y-24014604D01*
X44369267Y-24172203D01*
X44273159Y-24352007D01*
X44213976Y-24547105D01*
X44199000Y-24699162D01*
X44199000Y-25300837D01*
X44213976Y-25452894D01*
X44273159Y-25647992D01*
X44369266Y-25827797D01*
X44424000Y-25894491D01*
X44424000Y-26144211D01*
X44420081Y-26184000D01*
X44424000Y-26223788D01*
X44424000Y-26223790D01*
X44435720Y-26342787D01*
X44482037Y-26495472D01*
X44496885Y-26523251D01*
X44557251Y-26636189D01*
X44573001Y-26655380D01*
X44658472Y-26759528D01*
X44689388Y-26784900D01*
X45440001Y-27535513D01*
X45440001Y-29616622D01*
X45397456Y-29588195D01*
X45209098Y-29510174D01*
X45009139Y-29470400D01*
X44805261Y-29470400D01*
X44605302Y-29510174D01*
X44416944Y-29588195D01*
X44256500Y-29695400D01*
X42711787Y-29695400D01*
X42671999Y-29691481D01*
X42632211Y-29695400D01*
X42632209Y-29695400D01*
X42513212Y-29707120D01*
X42360527Y-29753437D01*
X42301630Y-29784918D01*
X42219810Y-29828651D01*
X42169702Y-29869774D01*
X42096472Y-29929872D01*
X42071105Y-29960782D01*
X39587447Y-32444441D01*
X39494098Y-32405774D01*
X39294139Y-32366000D01*
X39090261Y-32366000D01*
X38890302Y-32405774D01*
X38701944Y-32483795D01*
X38532426Y-32597063D01*
X38388263Y-32741226D01*
X38274995Y-32910744D01*
X38196974Y-33099102D01*
X38157200Y-33299061D01*
X38157200Y-33502939D01*
X38196974Y-33702898D01*
X38274995Y-33891256D01*
X38382201Y-34051701D01*
X38382201Y-34876610D01*
X36725600Y-33220010D01*
X36725600Y-32908700D01*
X36832805Y-32748256D01*
X36910826Y-32559898D01*
X36950600Y-32359939D01*
X36950600Y-32156061D01*
X36910826Y-31956102D01*
X36832805Y-31767744D01*
X36719537Y-31598226D01*
X36575374Y-31454063D01*
X36405856Y-31340795D01*
X36217498Y-31262774D01*
X36017539Y-31223000D01*
X35813661Y-31223000D01*
X35613702Y-31262774D01*
X35425344Y-31340795D01*
X35255826Y-31454063D01*
X35111663Y-31598226D01*
X34998395Y-31767744D01*
X34920374Y-31956102D01*
X34880600Y-32156061D01*
X34880600Y-32359939D01*
X34920374Y-32559898D01*
X34998395Y-32748256D01*
X35105600Y-32908701D01*
X35105600Y-33515733D01*
X35101681Y-33555522D01*
X35105600Y-33595310D01*
X35105600Y-33595312D01*
X35117320Y-33714309D01*
X35163637Y-33866994D01*
X35183617Y-33904374D01*
X35238851Y-34007711D01*
X35259777Y-34033209D01*
X35340072Y-34131050D01*
X35370988Y-34156422D01*
X42852227Y-41637662D01*
X42833263Y-41656626D01*
X42719995Y-41826144D01*
X42641974Y-42014502D01*
X42602200Y-42214461D01*
X42602200Y-42418339D01*
X42641974Y-42618298D01*
X42719995Y-42806656D01*
X42833263Y-42976174D01*
X42977426Y-43120337D01*
X43146944Y-43233605D01*
X43335302Y-43311626D01*
X43493250Y-43343043D01*
X43530974Y-43532698D01*
X43595303Y-43688000D01*
X39116000Y-43688000D01*
X39116000Y-40513000D01*
X39113560Y-40488224D01*
X39106333Y-40464399D01*
X39094597Y-40442443D01*
X39078803Y-40423197D01*
X39059557Y-40407403D01*
X39037601Y-40395667D01*
X39013776Y-40388440D01*
X38989000Y-40386000D01*
X34544000Y-40386000D01*
X34519224Y-40388440D01*
X34495399Y-40395667D01*
X34473443Y-40407403D01*
X34454197Y-40423197D01*
X34438403Y-40442443D01*
X34426667Y-40464399D01*
X34419440Y-40488224D01*
X34417000Y-40513000D01*
X34417000Y-48514000D01*
X34419440Y-48538776D01*
X34426667Y-48562601D01*
X34438403Y-48584557D01*
X34454197Y-48603803D01*
X34473443Y-48619597D01*
X34495399Y-48631333D01*
X34519224Y-48638560D01*
X34544000Y-48641000D01*
X35442166Y-48641000D01*
X35379395Y-48734944D01*
X35301374Y-48923302D01*
X35261600Y-49123261D01*
X35261600Y-49202600D01*
X34756761Y-49202600D01*
X34738337Y-49175026D01*
X34594174Y-49030863D01*
X34424656Y-48917595D01*
X34236298Y-48839574D01*
X34036339Y-48799800D01*
X33832461Y-48799800D01*
X33632502Y-48839574D01*
X33444144Y-48917595D01*
X33274626Y-49030863D01*
X33172400Y-49133089D01*
X33070174Y-49030863D01*
X32900656Y-48917595D01*
X32712298Y-48839574D01*
X32512339Y-48799800D01*
X32308461Y-48799800D01*
X32108502Y-48839574D01*
X31920144Y-48917595D01*
X31750626Y-49030863D01*
X31606463Y-49175026D01*
X31493195Y-49344544D01*
X31415174Y-49532902D01*
X31375400Y-49732861D01*
X31375400Y-49936739D01*
X31415174Y-50136698D01*
X31493195Y-50325056D01*
X31606463Y-50494574D01*
X31750626Y-50638737D01*
X31920144Y-50752005D01*
X32108502Y-50830026D01*
X32297759Y-50867671D01*
X32534501Y-51104413D01*
X32559873Y-51135329D01*
X32683212Y-51236550D01*
X32823928Y-51311764D01*
X32976613Y-51358081D01*
X33095610Y-51369801D01*
X33095612Y-51369801D01*
X33135400Y-51373720D01*
X33175188Y-51369801D01*
X34464243Y-51369801D01*
X34421926Y-51382638D01*
X34281210Y-51457852D01*
X34157871Y-51559073D01*
X34132506Y-51589981D01*
X31556112Y-54166376D01*
X31551024Y-54162976D01*
X31344467Y-54077417D01*
X31125188Y-54033800D01*
X30901612Y-54033800D01*
X30682333Y-54077417D01*
X30475776Y-54162976D01*
X30289880Y-54287188D01*
X30131788Y-54445280D01*
X30007576Y-54631176D01*
X29922017Y-54837733D01*
X29878400Y-55057012D01*
X29878400Y-55280588D01*
X29922017Y-55499867D01*
X29968288Y-55611574D01*
X29923898Y-55694620D01*
X29887588Y-55814318D01*
X29875328Y-55938800D01*
X29875328Y-56938800D01*
X29887588Y-57063282D01*
X29923898Y-57182980D01*
X29982863Y-57293294D01*
X30062215Y-57389985D01*
X30158906Y-57469337D01*
X30269220Y-57528302D01*
X30388918Y-57564612D01*
X30513400Y-57576872D01*
X31028402Y-57576872D01*
X31028401Y-61094886D01*
X29829159Y-62294129D01*
X29639902Y-62331774D01*
X29451544Y-62409795D01*
X29282026Y-62523063D01*
X29137863Y-62667226D01*
X29024595Y-62836744D01*
X28946574Y-63025102D01*
X28906800Y-63225061D01*
X26466801Y-63225061D01*
X26161088Y-62809452D01*
X25497118Y-62449151D01*
X24775615Y-62225306D01*
X24024305Y-62146520D01*
X23272062Y-62215822D01*
X22547792Y-62430548D01*
X21879330Y-62782445D01*
X21838912Y-62809452D01*
X21478724Y-63299119D01*
X24000000Y-65820395D01*
X24878923Y-64941472D01*
X24893119Y-64962718D01*
X25037282Y-65106881D01*
X25058528Y-65121077D01*
X24179605Y-66000000D01*
X25058528Y-66878923D01*
X25037282Y-66893119D01*
X24893119Y-67037282D01*
X24878923Y-67058528D01*
X24000000Y-66179605D01*
X23985858Y-66193748D01*
X23806253Y-66014143D01*
X23820395Y-66000000D01*
X21299119Y-63478724D01*
X20809452Y-63838912D01*
X20685000Y-64068255D01*
X20685000Y-59794380D01*
X24200026Y-59794380D01*
X24319914Y-60079236D01*
X24643610Y-60240099D01*
X24992469Y-60334722D01*
X25353084Y-60359467D01*
X25711598Y-60313385D01*
X26054233Y-60198246D01*
X26276886Y-60079236D01*
X26396774Y-59794380D01*
X25298400Y-58696005D01*
X24200026Y-59794380D01*
X20685000Y-59794380D01*
X20685000Y-58571084D01*
X23455333Y-58571084D01*
X23501415Y-58929598D01*
X23616554Y-59272233D01*
X23735564Y-59494886D01*
X24020420Y-59614774D01*
X25118795Y-58516400D01*
X25478005Y-58516400D01*
X26576380Y-59614774D01*
X26861236Y-59494886D01*
X27022099Y-59171190D01*
X27116722Y-58822331D01*
X27141467Y-58461716D01*
X27095385Y-58103202D01*
X26980246Y-57760567D01*
X26861236Y-57537914D01*
X26576380Y-57418026D01*
X25478005Y-58516400D01*
X25118795Y-58516400D01*
X24020420Y-57418026D01*
X23735564Y-57537914D01*
X23574701Y-57861610D01*
X23480078Y-58210469D01*
X23455333Y-58571084D01*
X20685000Y-58571084D01*
X20685000Y-48964772D01*
X20701175Y-49018099D01*
X20826359Y-49280920D01*
X21000412Y-49514269D01*
X21216645Y-49709178D01*
X21466748Y-49858157D01*
X21741109Y-49955481D01*
X21971000Y-49834814D01*
X21971000Y-48641000D01*
X21951000Y-48641000D01*
X21951000Y-48387000D01*
X21971000Y-48387000D01*
X21971000Y-46101000D01*
X21951000Y-46101000D01*
X21951000Y-45847000D01*
X21971000Y-45847000D01*
X21971000Y-43561000D01*
X21951000Y-43561000D01*
X21951000Y-43307000D01*
X21971000Y-43307000D01*
X21971000Y-41021000D01*
X21951000Y-41021000D01*
X21951000Y-40767000D01*
X21971000Y-40767000D01*
X21971000Y-38481000D01*
X21951000Y-38481000D01*
X21951000Y-38227000D01*
X21971000Y-38227000D01*
X21971000Y-35941000D01*
X21951000Y-35941000D01*
X21951000Y-35687000D01*
X21971000Y-35687000D01*
X21971000Y-33401000D01*
X21951000Y-33401000D01*
X21951000Y-33147000D01*
X21971000Y-33147000D01*
X21971000Y-30861000D01*
X21951000Y-30861000D01*
X21951000Y-30607000D01*
X21971000Y-30607000D01*
X21971000Y-29413186D01*
X22225000Y-29413186D01*
X22225000Y-30607000D01*
X22245000Y-30607000D01*
X22245000Y-30861000D01*
X22225000Y-30861000D01*
X22225000Y-33147000D01*
X22245000Y-33147000D01*
X22245000Y-33401000D01*
X22225000Y-33401000D01*
X22225000Y-35687000D01*
X22245000Y-35687000D01*
X22245000Y-35941000D01*
X22225000Y-35941000D01*
X22225000Y-38227000D01*
X22245000Y-38227000D01*
X22245000Y-38481000D01*
X22225000Y-38481000D01*
X22225000Y-40767000D01*
X22245000Y-40767000D01*
X22245000Y-41021000D01*
X22225000Y-41021000D01*
X22225000Y-43307000D01*
X22245000Y-43307000D01*
X22245000Y-43561000D01*
X22225000Y-43561000D01*
X22225000Y-45847000D01*
X22245000Y-45847000D01*
X22245000Y-46101000D01*
X22225000Y-46101000D01*
X22225000Y-48387000D01*
X22245000Y-48387000D01*
X22245000Y-48641000D01*
X22225000Y-48641000D01*
X22225000Y-49834814D01*
X22454891Y-49955481D01*
X22729252Y-49858157D01*
X22979355Y-49709178D01*
X23175502Y-49532374D01*
X23198498Y-49608180D01*
X23253000Y-49710145D01*
X23253001Y-54287961D01*
X23246300Y-54356000D01*
X23273040Y-54627507D01*
X23352236Y-54888580D01*
X23460328Y-55090805D01*
X23460328Y-56216400D01*
X23472588Y-56340882D01*
X23508898Y-56460580D01*
X23567863Y-56570894D01*
X23647215Y-56667585D01*
X23743906Y-56746937D01*
X23854220Y-56805902D01*
X23973918Y-56842212D01*
X24098400Y-56854472D01*
X24505303Y-56854472D01*
X24319914Y-56953564D01*
X24200026Y-57238420D01*
X25298400Y-58336795D01*
X26396774Y-57238420D01*
X26276886Y-56953564D01*
X26077488Y-56854472D01*
X26498400Y-56854472D01*
X26622882Y-56842212D01*
X26742580Y-56805902D01*
X26852894Y-56746937D01*
X26949585Y-56667585D01*
X27028937Y-56570894D01*
X27087902Y-56460580D01*
X27124212Y-56340882D01*
X27136472Y-56216400D01*
X27136472Y-53816400D01*
X27124212Y-53691918D01*
X27087902Y-53572220D01*
X27028937Y-53461906D01*
X26949585Y-53365215D01*
X26852894Y-53285863D01*
X26742580Y-53226898D01*
X26622882Y-53190588D01*
X26498400Y-53178328D01*
X26023000Y-53178328D01*
X26023000Y-49710144D01*
X26077502Y-49608180D01*
X26093601Y-49555108D01*
X26231368Y-49692875D01*
X26474589Y-49855390D01*
X26744842Y-49967332D01*
X27031740Y-50024400D01*
X27324260Y-50024400D01*
X27611158Y-49967332D01*
X27881411Y-49855390D01*
X28124632Y-49692875D01*
X28331475Y-49486032D01*
X28493990Y-49242811D01*
X28605932Y-48972558D01*
X28663000Y-48685660D01*
X28663000Y-48393140D01*
X28605932Y-48106242D01*
X28493990Y-47835989D01*
X28331475Y-47592768D01*
X28124632Y-47385925D01*
X27950240Y-47269400D01*
X28124632Y-47152875D01*
X28331475Y-46946032D01*
X28493990Y-46702811D01*
X28605932Y-46432558D01*
X28663000Y-46145660D01*
X28663000Y-45853140D01*
X28605932Y-45566242D01*
X28493990Y-45295989D01*
X28331475Y-45052768D01*
X28124632Y-44845925D01*
X27950240Y-44729400D01*
X28124632Y-44612875D01*
X28331475Y-44406032D01*
X28493990Y-44162811D01*
X28605932Y-43892558D01*
X28663000Y-43605660D01*
X28663000Y-43313140D01*
X28605932Y-43026242D01*
X28493990Y-42755989D01*
X28331475Y-42512768D01*
X28124632Y-42305925D01*
X27950240Y-42189400D01*
X28124632Y-42072875D01*
X28331475Y-41866032D01*
X28493990Y-41622811D01*
X28605932Y-41352558D01*
X28663000Y-41065660D01*
X28663000Y-40773140D01*
X28605932Y-40486242D01*
X28493990Y-40215989D01*
X28331475Y-39972768D01*
X28124632Y-39765925D01*
X27950240Y-39649400D01*
X28124632Y-39532875D01*
X28331475Y-39326032D01*
X28493990Y-39082811D01*
X28605932Y-38812558D01*
X28663000Y-38525660D01*
X28663000Y-38233140D01*
X28605932Y-37946242D01*
X28493990Y-37675989D01*
X28331475Y-37432768D01*
X28124632Y-37225925D01*
X27950240Y-37109400D01*
X28124632Y-36992875D01*
X28331475Y-36786032D01*
X28493990Y-36542811D01*
X28605932Y-36272558D01*
X28663000Y-35985660D01*
X28663000Y-35693140D01*
X28605932Y-35406242D01*
X28493990Y-35135989D01*
X28331475Y-34892768D01*
X28124632Y-34685925D01*
X27950240Y-34569400D01*
X28124632Y-34452875D01*
X28331475Y-34246032D01*
X28493990Y-34002811D01*
X28605932Y-33732558D01*
X28663000Y-33445660D01*
X28663000Y-33153140D01*
X28605932Y-32866242D01*
X28493990Y-32595989D01*
X28331475Y-32352768D01*
X28199620Y-32220913D01*
X28272180Y-32198902D01*
X28382494Y-32139937D01*
X28479185Y-32060585D01*
X28558537Y-31963894D01*
X28617502Y-31853580D01*
X28653812Y-31733882D01*
X28666072Y-31609400D01*
X28666072Y-29909400D01*
X28653812Y-29784918D01*
X28617502Y-29665220D01*
X28558537Y-29554906D01*
X28479185Y-29458215D01*
X28382494Y-29378863D01*
X28272180Y-29319898D01*
X28152482Y-29283588D01*
X28028000Y-29271328D01*
X26328000Y-29271328D01*
X26203518Y-29283588D01*
X26083820Y-29319898D01*
X25973506Y-29378863D01*
X25876815Y-29458215D01*
X25797463Y-29554906D01*
X25738498Y-29665220D01*
X25722399Y-29718292D01*
X25584632Y-29580525D01*
X25341411Y-29418010D01*
X25071158Y-29306068D01*
X24784260Y-29249000D01*
X24491740Y-29249000D01*
X24204842Y-29306068D01*
X23934589Y-29418010D01*
X23691368Y-29580525D01*
X23484525Y-29787368D01*
X23366900Y-29963406D01*
X23195588Y-29733731D01*
X22979355Y-29538822D01*
X22729252Y-29389843D01*
X22454891Y-29292519D01*
X22225000Y-29413186D01*
X21971000Y-29413186D01*
X21741109Y-29292519D01*
X21466748Y-29389843D01*
X21216645Y-29538822D01*
X21000412Y-29733731D01*
X20826359Y-29967080D01*
X20701175Y-30229901D01*
X20685000Y-30283228D01*
X20685000Y-25935564D01*
X20782445Y-26120670D01*
X20809452Y-26161088D01*
X21299119Y-26521276D01*
X23820395Y-24000000D01*
X23806253Y-23985858D01*
X23985858Y-23806253D01*
X24000000Y-23820395D01*
X24878923Y-22941472D01*
X24893119Y-22962718D01*
X25037282Y-23106881D01*
X25058528Y-23121077D01*
X24179605Y-24000000D01*
X25058528Y-24878923D01*
X25037282Y-24893119D01*
X24893119Y-25037282D01*
X24878923Y-25058528D01*
X24000000Y-24179605D01*
X21478724Y-26700881D01*
X21838912Y-27190548D01*
X22502882Y-27550849D01*
X23224385Y-27774694D01*
X23975695Y-27853480D01*
X24727938Y-27784178D01*
X25452208Y-27569452D01*
X26120670Y-27217555D01*
X26161088Y-27190548D01*
X26521276Y-26700881D01*
X26335584Y-26515189D01*
X26356830Y-26500993D01*
X26500993Y-26356830D01*
X26515189Y-26335584D01*
X26700881Y-26521276D01*
X27190548Y-26161088D01*
X27550849Y-25497118D01*
X27774694Y-24775615D01*
X27781742Y-24708401D01*
X30701082Y-24708401D01*
X30866238Y-24873000D01*
X31623000Y-24873000D01*
X31623000Y-23883002D01*
X31463877Y-23755334D01*
X31387028Y-23765006D01*
X31201840Y-23854745D01*
X31037717Y-23978888D01*
X30900967Y-24132664D01*
X30796845Y-24310164D01*
X30729352Y-24504567D01*
X30701082Y-24708401D01*
X27781742Y-24708401D01*
X27853480Y-24024305D01*
X27784178Y-23272062D01*
X27569452Y-22547792D01*
X27217555Y-21879330D01*
X27190548Y-21838912D01*
X26700881Y-21478724D01*
X26515189Y-21664416D01*
X26500993Y-21643170D01*
X26356830Y-21499007D01*
X26335584Y-21484811D01*
X26521276Y-21299119D01*
X26161088Y-20809452D01*
X25931745Y-20685000D01*
X36905423Y-20685000D01*
X33704960Y-23885464D01*
G37*
X33704960Y-23885464D02*
X33665608Y-23853169D01*
X33520716Y-23775722D01*
X33363500Y-23728031D01*
X33200000Y-23711928D01*
X32800000Y-23711928D01*
X32636500Y-23728031D01*
X32479284Y-23775722D01*
X32334392Y-23853169D01*
X32316015Y-23868251D01*
X32298160Y-23854745D01*
X32112972Y-23765006D01*
X32036123Y-23755334D01*
X31877000Y-23883002D01*
X31877000Y-24873000D01*
X31897000Y-24873000D01*
X31897000Y-25127000D01*
X31877000Y-25127000D01*
X31877000Y-25147000D01*
X31623000Y-25147000D01*
X31623000Y-25127000D01*
X30866238Y-25127000D01*
X30701082Y-25291599D01*
X30729352Y-25495433D01*
X30796845Y-25689836D01*
X30900967Y-25867336D01*
X31037717Y-26021112D01*
X31201840Y-26145255D01*
X31387028Y-26234994D01*
X31463877Y-26244666D01*
X31622998Y-26117000D01*
X31622998Y-26180423D01*
X29580151Y-28223271D01*
X29546384Y-28250983D01*
X29518671Y-28284751D01*
X29518668Y-28284754D01*
X29435790Y-28385741D01*
X29353612Y-28539487D01*
X29303005Y-28706310D01*
X29285919Y-28879800D01*
X29290201Y-28923279D01*
X29290200Y-49220146D01*
X29257995Y-49268344D01*
X29179974Y-49456702D01*
X29140200Y-49656661D01*
X29140200Y-49860539D01*
X29179974Y-50060498D01*
X29257995Y-50248856D01*
X29371263Y-50418374D01*
X29515426Y-50562537D01*
X29684944Y-50675805D01*
X29873302Y-50753826D01*
X30073261Y-50793600D01*
X30277139Y-50793600D01*
X30477098Y-50753826D01*
X30665456Y-50675805D01*
X30834974Y-50562537D01*
X30979137Y-50418374D01*
X31092405Y-50248856D01*
X31170426Y-50060498D01*
X31210200Y-49860539D01*
X31210200Y-49656661D01*
X31170426Y-49456702D01*
X31092405Y-49268344D01*
X31060200Y-49220146D01*
X31060200Y-29246378D01*
X31650917Y-28655661D01*
X36231600Y-28655661D01*
X36231600Y-28859539D01*
X36271374Y-29059498D01*
X36349395Y-29247856D01*
X36462663Y-29417374D01*
X36606826Y-29561537D01*
X36776344Y-29674805D01*
X36964702Y-29752826D01*
X37164661Y-29792600D01*
X37368539Y-29792600D01*
X37568498Y-29752826D01*
X37756856Y-29674805D01*
X37926374Y-29561537D01*
X38070537Y-29417374D01*
X38183805Y-29247856D01*
X38261826Y-29059498D01*
X38301600Y-28859539D01*
X38301600Y-28655661D01*
X38261826Y-28455702D01*
X38183805Y-28267344D01*
X38070537Y-28097826D01*
X37926374Y-27953663D01*
X37756856Y-27840395D01*
X37568498Y-27762374D01*
X37368539Y-27722600D01*
X37164661Y-27722600D01*
X36964702Y-27762374D01*
X36776344Y-27840395D01*
X36606826Y-27953663D01*
X36462663Y-28097826D01*
X36349395Y-28267344D01*
X36271374Y-28455702D01*
X36231600Y-28655661D01*
X31650917Y-28655661D01*
X33595050Y-26711529D01*
X33628817Y-26683817D01*
X33667906Y-26636188D01*
X33739410Y-26549060D01*
X33739411Y-26549059D01*
X33821589Y-26395313D01*
X33872195Y-26228490D01*
X33885000Y-26098477D01*
X33885000Y-26098467D01*
X33889281Y-26055001D01*
X33885000Y-26011535D01*
X33885000Y-25933061D01*
X38843000Y-25933061D01*
X38843000Y-26136939D01*
X38882774Y-26336898D01*
X38960795Y-26525256D01*
X39074063Y-26694774D01*
X39218226Y-26838937D01*
X39387744Y-26952205D01*
X39576102Y-27030226D01*
X39776061Y-27070000D01*
X39979939Y-27070000D01*
X40179898Y-27030226D01*
X40368256Y-26952205D01*
X40537774Y-26838937D01*
X40681937Y-26694774D01*
X40795205Y-26525256D01*
X40873226Y-26336898D01*
X40913000Y-26136939D01*
X40913000Y-25933061D01*
X40873226Y-25733102D01*
X40795205Y-25544744D01*
X40681937Y-25375226D01*
X40537774Y-25231063D01*
X40368256Y-25117795D01*
X40179898Y-25039774D01*
X39979939Y-25000000D01*
X39776061Y-25000000D01*
X39576102Y-25039774D01*
X39387744Y-25117795D01*
X39218226Y-25231063D01*
X39074063Y-25375226D01*
X38960795Y-25544744D01*
X38882774Y-25733102D01*
X38843000Y-25933061D01*
X33885000Y-25933061D01*
X33885000Y-25930024D01*
X33896831Y-25915608D01*
X33914731Y-25882119D01*
X34015492Y-25872195D01*
X34182315Y-25821589D01*
X34336061Y-25739411D01*
X34470819Y-25628817D01*
X34498536Y-25595044D01*
X38126581Y-21967000D01*
X39782800Y-21967000D01*
X39782800Y-22123739D01*
X39822574Y-22323698D01*
X39892163Y-22491700D01*
X39822574Y-22659702D01*
X39782800Y-22859661D01*
X39782800Y-23063539D01*
X39822574Y-23263498D01*
X39892163Y-23431500D01*
X39822574Y-23599502D01*
X39782800Y-23799461D01*
X39782800Y-24003339D01*
X39822574Y-24203298D01*
X39900595Y-24391656D01*
X40013863Y-24561174D01*
X40158026Y-24705337D01*
X40327544Y-24818605D01*
X40515902Y-24896626D01*
X40715861Y-24936400D01*
X40919739Y-24936400D01*
X41119698Y-24896626D01*
X41300400Y-24821776D01*
X41481102Y-24896626D01*
X41681061Y-24936400D01*
X41884939Y-24936400D01*
X42084898Y-24896626D01*
X42273256Y-24818605D01*
X42442774Y-24705337D01*
X42586937Y-24561174D01*
X42700205Y-24391656D01*
X42778226Y-24203298D01*
X42818000Y-24003339D01*
X42818000Y-23799461D01*
X42778226Y-23599502D01*
X42708637Y-23431500D01*
X42778226Y-23263498D01*
X42818000Y-23063539D01*
X42818000Y-22859661D01*
X42778226Y-22659702D01*
X42708637Y-22491700D01*
X42778226Y-22323698D01*
X42818000Y-22123739D01*
X42818000Y-21967000D01*
X55970622Y-21967000D01*
X57723121Y-23719500D01*
X57636500Y-23728031D01*
X57479284Y-23775722D01*
X57334392Y-23853169D01*
X57316015Y-23868251D01*
X57298160Y-23854745D01*
X57112972Y-23765006D01*
X57036123Y-23755334D01*
X56877000Y-23883002D01*
X56877000Y-24873000D01*
X56897000Y-24873000D01*
X56897000Y-25127000D01*
X56877000Y-25127000D01*
X56877000Y-26116998D01*
X57036123Y-26244666D01*
X57112972Y-26234994D01*
X57298160Y-26145255D01*
X57316015Y-26131749D01*
X57334392Y-26146831D01*
X57479284Y-26224278D01*
X57636500Y-26271969D01*
X57800000Y-26288072D01*
X58200000Y-26288072D01*
X58297000Y-26278519D01*
X58297001Y-32570335D01*
X56554956Y-34312381D01*
X56521183Y-34340098D01*
X56410589Y-34474857D01*
X56328411Y-34628603D01*
X56297451Y-34730663D01*
X56282041Y-34781463D01*
X56277805Y-34795426D01*
X56265000Y-34925439D01*
X56265000Y-34925446D01*
X56260719Y-34968915D01*
X56263606Y-34998232D01*
X56232795Y-35044344D01*
X56154774Y-35232702D01*
X56115000Y-35432661D01*
X56115000Y-35636539D01*
X56154774Y-35836498D01*
X56232795Y-36024856D01*
X56346063Y-36194374D01*
X56490226Y-36338537D01*
X56659744Y-36451805D01*
X56848102Y-36529826D01*
X57048061Y-36569600D01*
X57251939Y-36569600D01*
X57451898Y-36529826D01*
X57640256Y-36451805D01*
X57809774Y-36338537D01*
X57953937Y-36194374D01*
X58067205Y-36024856D01*
X58145226Y-35836498D01*
X58185000Y-35636539D01*
X58185000Y-35432661D01*
X58145226Y-35232702D01*
X58143048Y-35227445D01*
X59777049Y-33593445D01*
X59810817Y-33565732D01*
X59862351Y-33502939D01*
X59921410Y-33430975D01*
X59921411Y-33430974D01*
X60003589Y-33277228D01*
X60048309Y-33129808D01*
X60054195Y-33110406D01*
X60057785Y-33073952D01*
X60067000Y-32980392D01*
X60067000Y-32980384D01*
X60071281Y-32936915D01*
X60067000Y-32893446D01*
X60067000Y-31410413D01*
X63194192Y-31410413D01*
X63289956Y-31674814D01*
X63579571Y-31815704D01*
X63891108Y-31897384D01*
X64212595Y-31916718D01*
X64250198Y-31911561D01*
X64282795Y-31990256D01*
X64396063Y-32159774D01*
X64540226Y-32303937D01*
X64709744Y-32417205D01*
X64898102Y-32495226D01*
X65098061Y-32535000D01*
X65301939Y-32535000D01*
X65501898Y-32495226D01*
X65690256Y-32417205D01*
X65859774Y-32303937D01*
X66003937Y-32159774D01*
X66117205Y-31990256D01*
X66195226Y-31801898D01*
X66235000Y-31601939D01*
X66235000Y-31398061D01*
X66195226Y-31198102D01*
X66191489Y-31189080D01*
X67065525Y-31189080D01*
X67149208Y-31443261D01*
X67421775Y-31574158D01*
X67714642Y-31649365D01*
X68016553Y-31665991D01*
X68315907Y-31623397D01*
X68601199Y-31523222D01*
X68750792Y-31443261D01*
X68834475Y-31189080D01*
X67950000Y-30304605D01*
X67065525Y-31189080D01*
X66191489Y-31189080D01*
X66117205Y-31009744D01*
X66003937Y-30840226D01*
X65859774Y-30696063D01*
X65749231Y-30622201D01*
X65772384Y-30533892D01*
X65791718Y-30212405D01*
X65788859Y-30191553D01*
X66409009Y-30191553D01*
X66451603Y-30490907D01*
X66551778Y-30776199D01*
X66631739Y-30925792D01*
X66885920Y-31009475D01*
X67770395Y-30125000D01*
X66885920Y-29240525D01*
X66631739Y-29324208D01*
X66500842Y-29596775D01*
X66425635Y-29889642D01*
X66409009Y-30191553D01*
X65788859Y-30191553D01*
X65747961Y-29893325D01*
X65642795Y-29588912D01*
X65549814Y-29414956D01*
X65285413Y-29319192D01*
X64329605Y-30275000D01*
X64343748Y-30289143D01*
X64164143Y-30468748D01*
X64150000Y-30454605D01*
X63194192Y-31410413D01*
X60067000Y-31410413D01*
X60067000Y-30337595D01*
X62508282Y-30337595D01*
X62552039Y-30656675D01*
X62657205Y-30961088D01*
X62750186Y-31135044D01*
X63014587Y-31230808D01*
X63970395Y-30275000D01*
X63014587Y-29319192D01*
X62750186Y-29414956D01*
X62609296Y-29704571D01*
X62527616Y-30016108D01*
X62508282Y-30337595D01*
X60067000Y-30337595D01*
X60067000Y-29139587D01*
X63194192Y-29139587D01*
X64150000Y-30095395D01*
X65105808Y-29139587D01*
X65077316Y-29060920D01*
X67065525Y-29060920D01*
X67950000Y-29945395D01*
X68834475Y-29060920D01*
X68750792Y-28806739D01*
X68478225Y-28675842D01*
X68185358Y-28600635D01*
X67883447Y-28584009D01*
X67584093Y-28626603D01*
X67298801Y-28726778D01*
X67149208Y-28806739D01*
X67065525Y-29060920D01*
X65077316Y-29060920D01*
X65010044Y-28875186D01*
X64720429Y-28734296D01*
X64408892Y-28652616D01*
X64087405Y-28633282D01*
X63768325Y-28677039D01*
X63463912Y-28782205D01*
X63289956Y-28875186D01*
X63194192Y-29139587D01*
X60067000Y-29139587D01*
X60067000Y-23970269D01*
X60071281Y-23926800D01*
X60067000Y-23883331D01*
X60067000Y-23883323D01*
X60054195Y-23753310D01*
X60003589Y-23586487D01*
X59921411Y-23432741D01*
X59865063Y-23364081D01*
X59838532Y-23331753D01*
X59838530Y-23331751D01*
X59810817Y-23297983D01*
X59777050Y-23270271D01*
X57191778Y-20685000D01*
X64064436Y-20685000D01*
X63879330Y-20782445D01*
X63838912Y-20809452D01*
X63478724Y-21299119D01*
X63664416Y-21484811D01*
X63643170Y-21499007D01*
X63499007Y-21643170D01*
X63484811Y-21664416D01*
X63299119Y-21478724D01*
X62809452Y-21838912D01*
X62449151Y-22502882D01*
X62225306Y-23224385D01*
X62146520Y-23975695D01*
X62215822Y-24727938D01*
X62430548Y-25452208D01*
X62782445Y-26120670D01*
X62809452Y-26161088D01*
X63299119Y-26521276D01*
X63484811Y-26335584D01*
X63499007Y-26356830D01*
X63643170Y-26500993D01*
X63664416Y-26515189D01*
X63478724Y-26700881D01*
X63838912Y-27190548D01*
X64502882Y-27550849D01*
X65224385Y-27774694D01*
X65975695Y-27853480D01*
X66727938Y-27784178D01*
X67452208Y-27569452D01*
X68120670Y-27217555D01*
X68161088Y-27190548D01*
X68521276Y-26700881D01*
X66000000Y-24179605D01*
X65121077Y-25058528D01*
X65106881Y-25037282D01*
X64962718Y-24893119D01*
X64941472Y-24878923D01*
X65820395Y-24000000D01*
X64941472Y-23121077D01*
X64962718Y-23106881D01*
X65106881Y-22962718D01*
X65121077Y-22941472D01*
X66000000Y-23820395D01*
X66014143Y-23806253D01*
X66193748Y-23985858D01*
X66179605Y-24000000D01*
X68700881Y-26521276D01*
X69190548Y-26161088D01*
X69315000Y-25931745D01*
X69315000Y-29411649D01*
X69268261Y-29324208D01*
X69014080Y-29240525D01*
X68129605Y-30125000D01*
X69014080Y-31009475D01*
X69268261Y-30925792D01*
X69315000Y-30828467D01*
X69315000Y-37161649D01*
X69268261Y-37074208D01*
X69014080Y-36990525D01*
X68129605Y-37875000D01*
X69014080Y-38759475D01*
X69268261Y-38675792D01*
X69315000Y-38578467D01*
X69315001Y-49472561D01*
X69135898Y-49398374D01*
X68935939Y-49358600D01*
X68732061Y-49358600D01*
X68532102Y-49398374D01*
X68343744Y-49476395D01*
X68174226Y-49589663D01*
X68030063Y-49733826D01*
X67916795Y-49903344D01*
X67838774Y-50091702D01*
X67799000Y-50291661D01*
X67799000Y-50495539D01*
X67838774Y-50695498D01*
X67916795Y-50883856D01*
X68030063Y-51053374D01*
X68174226Y-51197537D01*
X68343744Y-51310805D01*
X68532102Y-51388826D01*
X68732061Y-51428600D01*
X68935939Y-51428600D01*
X69135898Y-51388826D01*
X69315001Y-51314639D01*
X69315001Y-64064438D01*
X69217555Y-63879330D01*
X69190548Y-63838912D01*
X68700881Y-63478724D01*
X66179605Y-66000000D01*
X66193748Y-66014143D01*
X66014143Y-66193748D01*
X66000000Y-66179605D01*
X65121077Y-67058528D01*
X65106881Y-67037282D01*
X64962718Y-66893119D01*
X64941472Y-66878923D01*
X65820395Y-66000000D01*
X64941472Y-65121077D01*
X64962718Y-65106881D01*
X65106881Y-64962718D01*
X65121077Y-64941472D01*
X66000000Y-65820395D01*
X68521276Y-63299119D01*
X68161088Y-62809452D01*
X67497118Y-62449151D01*
X66775615Y-62225306D01*
X66024305Y-62146520D01*
X65272062Y-62215822D01*
X64547792Y-62430548D01*
X63879330Y-62782445D01*
X63838912Y-62809452D01*
X63478724Y-63299119D01*
X63664416Y-63484811D01*
X63643170Y-63499007D01*
X63499007Y-63643170D01*
X63484811Y-63664416D01*
X63299119Y-63478724D01*
X62809452Y-63838912D01*
X62449151Y-64502882D01*
X62225306Y-65224385D01*
X62146520Y-65975695D01*
X62215822Y-66727938D01*
X62430548Y-67452208D01*
X62782445Y-68120670D01*
X62809452Y-68161088D01*
X63299119Y-68521276D01*
X63484811Y-68335584D01*
X63499007Y-68356830D01*
X63643170Y-68500993D01*
X63664416Y-68515189D01*
X63478724Y-68700881D01*
X63838912Y-69190548D01*
X64068255Y-69315000D01*
X40163808Y-69315000D01*
X40179005Y-69292256D01*
X40257026Y-69103898D01*
X40296800Y-68903939D01*
X40296800Y-68700061D01*
X40257026Y-68500102D01*
X40179005Y-68311744D01*
X40065737Y-68142226D01*
X39921574Y-67998063D01*
X39752056Y-67884795D01*
X39563698Y-67806774D01*
X39363739Y-67767000D01*
X39159861Y-67767000D01*
X38959902Y-67806774D01*
X38771544Y-67884795D01*
X38602026Y-67998063D01*
X38457863Y-68142226D01*
X38344595Y-68311744D01*
X38266574Y-68500102D01*
X38226800Y-68700061D01*
X38226800Y-68903939D01*
X38266574Y-69103898D01*
X38344595Y-69292256D01*
X38359792Y-69315000D01*
X32696208Y-69315000D01*
X32711405Y-69292256D01*
X32789426Y-69103898D01*
X32829200Y-68903939D01*
X32829200Y-68700061D01*
X32789426Y-68500102D01*
X32711405Y-68311744D01*
X32598137Y-68142226D01*
X32453974Y-67998063D01*
X32284456Y-67884795D01*
X32096098Y-67806774D01*
X31896139Y-67767000D01*
X31692261Y-67767000D01*
X31492302Y-67806774D01*
X31303944Y-67884795D01*
X31134426Y-67998063D01*
X30990263Y-68142226D01*
X30876995Y-68311744D01*
X30798974Y-68500102D01*
X30759200Y-68700061D01*
X30759200Y-68903939D01*
X30798974Y-69103898D01*
X30876995Y-69292256D01*
X30892192Y-69315000D01*
X25935564Y-69315000D01*
X26120670Y-69217555D01*
X26161088Y-69190548D01*
X26521276Y-68700881D01*
X26335584Y-68515189D01*
X26356830Y-68500993D01*
X26500993Y-68356830D01*
X26515189Y-68335584D01*
X26700881Y-68521276D01*
X27190548Y-68161088D01*
X27550849Y-67497118D01*
X27774694Y-66775615D01*
X27853480Y-66024305D01*
X27784178Y-65272062D01*
X27570107Y-64550000D01*
X44961928Y-64550000D01*
X44961928Y-65450000D01*
X44978031Y-65613500D01*
X45025722Y-65770716D01*
X45103169Y-65915608D01*
X45207394Y-66042606D01*
X45334392Y-66146831D01*
X45479284Y-66224278D01*
X45636500Y-66271969D01*
X45800000Y-66288072D01*
X46200000Y-66288072D01*
X46363500Y-66271969D01*
X46520716Y-66224278D01*
X46665608Y-66146831D01*
X46683985Y-66131749D01*
X46701840Y-66145255D01*
X46887028Y-66234994D01*
X46963877Y-66244666D01*
X47123000Y-66116998D01*
X47123000Y-65127000D01*
X47103000Y-65127000D01*
X47103000Y-64873000D01*
X47123000Y-64873000D01*
X47123000Y-63883002D01*
X47377000Y-63883002D01*
X47377000Y-64873000D01*
X47397000Y-64873000D01*
X47397000Y-65127000D01*
X47377000Y-65127000D01*
X47377000Y-66116998D01*
X47536123Y-66244666D01*
X47612972Y-66234994D01*
X47798160Y-66145255D01*
X47882063Y-66081791D01*
X47922204Y-66114734D01*
X48102008Y-66210841D01*
X48297106Y-66270024D01*
X48500000Y-66290007D01*
X48702895Y-66270024D01*
X48897993Y-66210841D01*
X49077797Y-66114734D01*
X49125001Y-66075995D01*
X49172204Y-66114734D01*
X49352008Y-66210841D01*
X49547106Y-66270024D01*
X49750000Y-66290007D01*
X49952895Y-66270024D01*
X50147993Y-66210841D01*
X50327797Y-66114734D01*
X50485396Y-65985396D01*
X50614734Y-65827797D01*
X50710841Y-65647992D01*
X50770024Y-65452894D01*
X50785000Y-65300837D01*
X50785000Y-64699162D01*
X50770310Y-64550000D01*
X53961928Y-64550000D01*
X53961928Y-65450000D01*
X53978031Y-65613500D01*
X54025722Y-65770716D01*
X54103169Y-65915608D01*
X54207394Y-66042606D01*
X54334392Y-66146831D01*
X54479284Y-66224278D01*
X54636500Y-66271969D01*
X54800000Y-66288072D01*
X55200000Y-66288072D01*
X55363500Y-66271969D01*
X55520716Y-66224278D01*
X55665608Y-66146831D01*
X55683985Y-66131749D01*
X55701840Y-66145255D01*
X55887028Y-66234994D01*
X55963877Y-66244666D01*
X56123000Y-66116998D01*
X56123000Y-65127000D01*
X56103000Y-65127000D01*
X56103000Y-64873000D01*
X56123000Y-64873000D01*
X56123000Y-63883002D01*
X56377000Y-63883002D01*
X56377000Y-64873000D01*
X56397000Y-64873000D01*
X56397000Y-65127000D01*
X56377000Y-65127000D01*
X56377000Y-66116998D01*
X56536123Y-66244666D01*
X56612972Y-66234994D01*
X56798160Y-66145255D01*
X56882063Y-66081791D01*
X56922204Y-66114734D01*
X57102008Y-66210841D01*
X57297106Y-66270024D01*
X57500000Y-66290007D01*
X57702895Y-66270024D01*
X57897993Y-66210841D01*
X58077797Y-66114734D01*
X58125001Y-66075995D01*
X58172204Y-66114734D01*
X58352008Y-66210841D01*
X58547106Y-66270024D01*
X58750000Y-66290007D01*
X58952895Y-66270024D01*
X59147993Y-66210841D01*
X59327797Y-66114734D01*
X59485396Y-65985396D01*
X59614734Y-65827797D01*
X59710841Y-65647992D01*
X59770024Y-65452894D01*
X59785000Y-65300837D01*
X59785000Y-64699162D01*
X59770024Y-64547105D01*
X59710841Y-64352007D01*
X59614734Y-64172203D01*
X59485396Y-64014604D01*
X59327797Y-63885266D01*
X59147992Y-63789159D01*
X58952894Y-63729976D01*
X58750000Y-63709993D01*
X58547105Y-63729976D01*
X58352007Y-63789159D01*
X58172203Y-63885266D01*
X58125000Y-63924004D01*
X58077797Y-63885266D01*
X57897992Y-63789159D01*
X57702894Y-63729976D01*
X57500000Y-63709993D01*
X57297105Y-63729976D01*
X57102007Y-63789159D01*
X56922203Y-63885266D01*
X56882062Y-63918209D01*
X56798160Y-63854745D01*
X56612972Y-63765006D01*
X56536123Y-63755334D01*
X56377000Y-63883002D01*
X56123000Y-63883002D01*
X55963877Y-63755334D01*
X55887028Y-63765006D01*
X55701840Y-63854745D01*
X55683985Y-63868251D01*
X55665608Y-63853169D01*
X55520716Y-63775722D01*
X55363500Y-63728031D01*
X55200000Y-63711928D01*
X54800000Y-63711928D01*
X54636500Y-63728031D01*
X54479284Y-63775722D01*
X54334392Y-63853169D01*
X54207394Y-63957394D01*
X54103169Y-64084392D01*
X54025722Y-64229284D01*
X53978031Y-64386500D01*
X53961928Y-64550000D01*
X50770310Y-64550000D01*
X50770024Y-64547105D01*
X50710841Y-64352007D01*
X50614734Y-64172203D01*
X50485396Y-64014604D01*
X50327797Y-63885266D01*
X50147992Y-63789159D01*
X49952894Y-63729976D01*
X49750000Y-63709993D01*
X49547105Y-63729976D01*
X49352007Y-63789159D01*
X49172203Y-63885266D01*
X49125000Y-63924004D01*
X49077797Y-63885266D01*
X48897992Y-63789159D01*
X48702894Y-63729976D01*
X48500000Y-63709993D01*
X48297105Y-63729976D01*
X48102007Y-63789159D01*
X47922203Y-63885266D01*
X47882062Y-63918209D01*
X47798160Y-63854745D01*
X47612972Y-63765006D01*
X47536123Y-63755334D01*
X47377000Y-63883002D01*
X47123000Y-63883002D01*
X46963877Y-63755334D01*
X46887028Y-63765006D01*
X46701840Y-63854745D01*
X46683985Y-63868251D01*
X46665608Y-63853169D01*
X46520716Y-63775722D01*
X46363500Y-63728031D01*
X46200000Y-63711928D01*
X45800000Y-63711928D01*
X45636500Y-63728031D01*
X45479284Y-63775722D01*
X45334392Y-63853169D01*
X45207394Y-63957394D01*
X45103169Y-64084392D01*
X45025722Y-64229284D01*
X44978031Y-64386500D01*
X44961928Y-64550000D01*
X27570107Y-64550000D01*
X27569452Y-64547792D01*
X27217555Y-63879330D01*
X27190548Y-63838912D01*
X26700881Y-63478724D01*
X26515189Y-63664416D01*
X26500993Y-63643170D01*
X26356830Y-63499007D01*
X26335584Y-63484811D01*
X26521276Y-63299119D01*
X26466801Y-63225061D01*
X28906800Y-63225061D01*
X28906800Y-63428939D01*
X28946574Y-63628898D01*
X29024595Y-63817256D01*
X29137863Y-63986774D01*
X29282026Y-64130937D01*
X29451544Y-64244205D01*
X29639902Y-64322226D01*
X29839861Y-64362000D01*
X30043739Y-64362000D01*
X30243698Y-64322226D01*
X30432056Y-64244205D01*
X30601574Y-64130937D01*
X30745737Y-63986774D01*
X30859005Y-63817256D01*
X30937026Y-63628898D01*
X30974671Y-63439641D01*
X31168651Y-63245661D01*
X38055600Y-63245661D01*
X38055600Y-63449539D01*
X38095374Y-63649498D01*
X38173395Y-63837856D01*
X38286663Y-64007374D01*
X38430826Y-64151537D01*
X38600344Y-64264805D01*
X38788702Y-64342826D01*
X38988661Y-64382600D01*
X39192539Y-64382600D01*
X39392498Y-64342826D01*
X39580856Y-64264805D01*
X39741300Y-64157600D01*
X40479414Y-64157600D01*
X40519202Y-64161519D01*
X40558990Y-64157600D01*
X40558993Y-64157600D01*
X40677990Y-64145880D01*
X40830675Y-64099563D01*
X40971391Y-64024349D01*
X41094730Y-63923128D01*
X41120102Y-63892212D01*
X45352853Y-59659461D01*
X52233600Y-59659461D01*
X52233600Y-59863339D01*
X52273374Y-60063298D01*
X52351395Y-60251656D01*
X52464663Y-60421174D01*
X52608826Y-60565337D01*
X52778344Y-60678605D01*
X52966702Y-60756626D01*
X53166661Y-60796400D01*
X53370539Y-60796400D01*
X53570498Y-60756626D01*
X53758856Y-60678605D01*
X53928374Y-60565337D01*
X54072537Y-60421174D01*
X54185805Y-60251656D01*
X54263826Y-60063298D01*
X54303600Y-59863339D01*
X54303600Y-59659461D01*
X54263826Y-59459502D01*
X54185805Y-59271144D01*
X54072537Y-59101626D01*
X53928374Y-58957463D01*
X53758856Y-58844195D01*
X53570498Y-58766174D01*
X53370539Y-58726400D01*
X53166661Y-58726400D01*
X52966702Y-58766174D01*
X52778344Y-58844195D01*
X52608826Y-58957463D01*
X52464663Y-59101626D01*
X52351395Y-59271144D01*
X52273374Y-59459502D01*
X52233600Y-59659461D01*
X45352853Y-59659461D01*
X47456914Y-57555400D01*
X63762728Y-57555400D01*
X63762728Y-57955400D01*
X63778831Y-58118900D01*
X63826522Y-58276116D01*
X63903969Y-58421008D01*
X64008194Y-58548006D01*
X64135192Y-58652231D01*
X64280084Y-58729678D01*
X64437300Y-58777369D01*
X64600800Y-58793472D01*
X65500800Y-58793472D01*
X65664300Y-58777369D01*
X65821516Y-58729678D01*
X65966408Y-58652231D01*
X66093406Y-58548006D01*
X66197631Y-58421008D01*
X66275078Y-58276116D01*
X66322769Y-58118900D01*
X66338872Y-57955400D01*
X66338872Y-57555400D01*
X66322769Y-57391900D01*
X66275078Y-57234684D01*
X66197631Y-57089792D01*
X66182549Y-57071415D01*
X66196055Y-57053560D01*
X66285794Y-56868372D01*
X66295466Y-56791523D01*
X66167798Y-56632400D01*
X65177800Y-56632400D01*
X65177800Y-56652400D01*
X64923800Y-56652400D01*
X64923800Y-56632400D01*
X63933802Y-56632400D01*
X63806134Y-56791523D01*
X63815806Y-56868372D01*
X63905545Y-57053560D01*
X63919051Y-57071415D01*
X63903969Y-57089792D01*
X63826522Y-57234684D01*
X63778831Y-57391900D01*
X63762728Y-57555400D01*
X47456914Y-57555400D01*
X49084019Y-55928296D01*
X49114928Y-55902930D01*
X49216149Y-55779591D01*
X49291363Y-55638875D01*
X49337680Y-55486190D01*
X49349400Y-55367193D01*
X49349400Y-55367190D01*
X49353319Y-55327402D01*
X49349400Y-55287614D01*
X49349400Y-54892963D01*
X49425498Y-54877826D01*
X49613856Y-54799805D01*
X49783374Y-54686537D01*
X49927537Y-54542374D01*
X50040805Y-54372856D01*
X50118826Y-54184498D01*
X50154450Y-54005400D01*
X63760793Y-54005400D01*
X63780776Y-54208295D01*
X63839959Y-54403393D01*
X63936066Y-54583197D01*
X63974804Y-54630400D01*
X63936066Y-54677603D01*
X63839959Y-54857407D01*
X63780776Y-55052505D01*
X63760793Y-55255400D01*
X63780776Y-55458295D01*
X63839959Y-55653393D01*
X63936066Y-55833197D01*
X63969009Y-55873338D01*
X63905545Y-55957240D01*
X63815806Y-56142428D01*
X63806134Y-56219277D01*
X63933802Y-56378400D01*
X64923800Y-56378400D01*
X64923800Y-56358400D01*
X65177800Y-56358400D01*
X65177800Y-56378400D01*
X66167798Y-56378400D01*
X66295466Y-56219277D01*
X66285794Y-56142428D01*
X66196055Y-55957240D01*
X66132591Y-55873338D01*
X66165534Y-55833197D01*
X66261641Y-55653393D01*
X66320824Y-55458295D01*
X66340807Y-55255400D01*
X66320824Y-55052505D01*
X66261641Y-54857407D01*
X66165534Y-54677603D01*
X66126796Y-54630400D01*
X66165534Y-54583197D01*
X66261641Y-54403393D01*
X66320824Y-54208295D01*
X66340807Y-54005400D01*
X66320824Y-53802505D01*
X66261641Y-53607407D01*
X66165534Y-53427603D01*
X66036196Y-53270004D01*
X65878597Y-53140666D01*
X65810800Y-53104428D01*
X65810800Y-52342551D01*
X65971456Y-52276005D01*
X66140974Y-52162737D01*
X66285137Y-52018574D01*
X66398405Y-51849056D01*
X66476426Y-51660698D01*
X66516200Y-51460739D01*
X66516200Y-51256861D01*
X66476426Y-51056902D01*
X66398405Y-50868544D01*
X66285137Y-50699026D01*
X66140974Y-50554863D01*
X65971456Y-50441595D01*
X65783098Y-50363574D01*
X65583139Y-50323800D01*
X65379261Y-50323800D01*
X65179302Y-50363574D01*
X64990944Y-50441595D01*
X64821426Y-50554863D01*
X64677263Y-50699026D01*
X64563995Y-50868544D01*
X64485974Y-51056902D01*
X64446200Y-51256861D01*
X64446200Y-51327914D01*
X64415826Y-51364924D01*
X64363293Y-51463205D01*
X64345254Y-51496954D01*
X64301797Y-51640215D01*
X64290800Y-51751868D01*
X64290800Y-51751878D01*
X64287124Y-51789200D01*
X64290800Y-51826523D01*
X64290801Y-53104428D01*
X64223003Y-53140666D01*
X64065404Y-53270004D01*
X63936066Y-53427603D01*
X63839959Y-53607407D01*
X63780776Y-53802505D01*
X63760793Y-54005400D01*
X50154450Y-54005400D01*
X50158600Y-53984539D01*
X50158600Y-53780661D01*
X50118826Y-53580702D01*
X50040805Y-53392344D01*
X49927537Y-53222826D01*
X49783374Y-53078663D01*
X49613856Y-52965395D01*
X49425498Y-52887374D01*
X49225539Y-52847600D01*
X49021661Y-52847600D01*
X48821702Y-52887374D01*
X48633344Y-52965395D01*
X48463826Y-53078663D01*
X48319663Y-53222826D01*
X48206395Y-53392344D01*
X48128374Y-53580702D01*
X48090729Y-53769959D01*
X47994783Y-53865905D01*
X47963873Y-53891272D01*
X47938508Y-53922180D01*
X47862651Y-54014611D01*
X47825299Y-54084493D01*
X47787438Y-54155327D01*
X47744266Y-54297647D01*
X47741121Y-54308013D01*
X47725481Y-54466800D01*
X47729400Y-54506588D01*
X47729400Y-54991889D01*
X41688993Y-61032297D01*
X41762226Y-60855498D01*
X41802000Y-60655539D01*
X41802000Y-60451661D01*
X41762226Y-60251702D01*
X41684205Y-60063344D01*
X41570937Y-59893826D01*
X41426774Y-59749663D01*
X41257256Y-59636395D01*
X41068898Y-59558374D01*
X40868939Y-59518600D01*
X40665061Y-59518600D01*
X40465102Y-59558374D01*
X40276744Y-59636395D01*
X40107226Y-59749663D01*
X39963063Y-59893826D01*
X39849795Y-60063344D01*
X39771774Y-60251702D01*
X39732000Y-60451661D01*
X39732000Y-60655539D01*
X39771774Y-60855498D01*
X39849795Y-61043856D01*
X39963063Y-61213374D01*
X40107226Y-61357537D01*
X40276744Y-61470805D01*
X40465102Y-61548826D01*
X40665061Y-61588600D01*
X40868939Y-61588600D01*
X41068898Y-61548826D01*
X41245697Y-61475593D01*
X40183690Y-62537600D01*
X39741300Y-62537600D01*
X39580856Y-62430395D01*
X39392498Y-62352374D01*
X39192539Y-62312600D01*
X38988661Y-62312600D01*
X38788702Y-62352374D01*
X38600344Y-62430395D01*
X38430826Y-62543663D01*
X38286663Y-62687826D01*
X38173395Y-62857344D01*
X38095374Y-63045702D01*
X38055600Y-63245661D01*
X31168651Y-63245661D01*
X32383020Y-62031293D01*
X32413929Y-62005927D01*
X32462615Y-61946603D01*
X32515150Y-61882589D01*
X32590363Y-61741873D01*
X32590364Y-61741872D01*
X32636681Y-61589187D01*
X32648401Y-61470190D01*
X32648401Y-61470187D01*
X32652320Y-61430399D01*
X32648401Y-61390611D01*
X32648401Y-55365111D01*
X35068912Y-52944601D01*
X36537087Y-52944601D01*
X36220786Y-53260902D01*
X36189871Y-53286273D01*
X36125086Y-53365215D01*
X36088650Y-53409612D01*
X36060699Y-53461906D01*
X36013436Y-53550329D01*
X35967119Y-53703014D01*
X35956447Y-53811370D01*
X35951480Y-53861801D01*
X35955399Y-53901589D01*
X35955400Y-56004201D01*
X35951480Y-56043999D01*
X35959526Y-56125682D01*
X35967120Y-56202787D01*
X35997266Y-56302164D01*
X36013437Y-56355472D01*
X36088650Y-56496188D01*
X36114584Y-56527788D01*
X36189872Y-56619527D01*
X36220782Y-56644894D01*
X36457529Y-56881641D01*
X36495174Y-57070898D01*
X36573195Y-57259256D01*
X36686463Y-57428774D01*
X36830626Y-57572937D01*
X37000144Y-57686205D01*
X37188502Y-57764226D01*
X37388461Y-57804000D01*
X37592339Y-57804000D01*
X37792298Y-57764226D01*
X37980656Y-57686205D01*
X38150174Y-57572937D01*
X38294337Y-57428774D01*
X38407605Y-57259256D01*
X38485626Y-57070898D01*
X38525400Y-56870939D01*
X38525400Y-56667061D01*
X38485626Y-56467102D01*
X38407605Y-56278744D01*
X38310890Y-56134000D01*
X38407605Y-55989256D01*
X38485626Y-55800898D01*
X38525400Y-55600939D01*
X38525400Y-55397061D01*
X38485626Y-55197102D01*
X38431679Y-55066861D01*
X42119600Y-55066861D01*
X42119600Y-55270739D01*
X42159374Y-55470698D01*
X42237395Y-55659056D01*
X42350663Y-55828574D01*
X42494826Y-55972737D01*
X42664344Y-56086005D01*
X42852702Y-56164026D01*
X43052661Y-56203800D01*
X43256539Y-56203800D01*
X43456498Y-56164026D01*
X43644856Y-56086005D01*
X43814374Y-55972737D01*
X43958537Y-55828574D01*
X44071805Y-55659056D01*
X44149826Y-55470698D01*
X44189600Y-55270739D01*
X44189600Y-55066861D01*
X44149826Y-54866902D01*
X44071805Y-54678544D01*
X43958537Y-54509026D01*
X43814374Y-54364863D01*
X43644856Y-54251595D01*
X43456498Y-54173574D01*
X43256539Y-54133800D01*
X43052661Y-54133800D01*
X42852702Y-54173574D01*
X42664344Y-54251595D01*
X42494826Y-54364863D01*
X42350663Y-54509026D01*
X42237395Y-54678544D01*
X42159374Y-54866902D01*
X42119600Y-55066861D01*
X38431679Y-55066861D01*
X38407605Y-55008744D01*
X38300400Y-54848300D01*
X38300400Y-54179432D01*
X38535212Y-53944621D01*
X42677031Y-53944621D01*
X42716819Y-53948540D01*
X42756607Y-53944621D01*
X42756610Y-53944621D01*
X42875607Y-53932901D01*
X43028292Y-53886584D01*
X43169008Y-53811370D01*
X43292347Y-53710149D01*
X43317719Y-53679233D01*
X45359091Y-51637861D01*
X52940000Y-51637861D01*
X52940000Y-51841739D01*
X52979774Y-52041698D01*
X53057795Y-52230056D01*
X53171063Y-52399574D01*
X53315226Y-52543737D01*
X53484744Y-52657005D01*
X53673102Y-52735026D01*
X53873061Y-52774800D01*
X54076939Y-52774800D01*
X54276898Y-52735026D01*
X54465256Y-52657005D01*
X54634774Y-52543737D01*
X54778937Y-52399574D01*
X54892205Y-52230056D01*
X54970226Y-52041698D01*
X55010000Y-51841739D01*
X55010000Y-51637861D01*
X54970226Y-51437902D01*
X54892205Y-51249544D01*
X54778937Y-51080026D01*
X54634774Y-50935863D01*
X54465256Y-50822595D01*
X54276898Y-50744574D01*
X54076939Y-50704800D01*
X53873061Y-50704800D01*
X53673102Y-50744574D01*
X53484744Y-50822595D01*
X53315226Y-50935863D01*
X53171063Y-51080026D01*
X53057795Y-51249544D01*
X52979774Y-51437902D01*
X52940000Y-51637861D01*
X45359091Y-51637861D01*
X46719640Y-50277313D01*
X46750549Y-50251947D01*
X46816662Y-50171388D01*
X46851770Y-50128609D01*
X46913778Y-50012599D01*
X46926984Y-49987892D01*
X46973301Y-49835207D01*
X46985021Y-49716210D01*
X46985021Y-49716208D01*
X46988940Y-49676420D01*
X46985021Y-49636632D01*
X46985021Y-45326507D01*
X47083944Y-45392605D01*
X47272302Y-45470626D01*
X47384936Y-45493030D01*
X47418995Y-45575256D01*
X47430851Y-45593000D01*
X47418995Y-45610744D01*
X47340974Y-45799102D01*
X47301200Y-45999061D01*
X47301200Y-46202939D01*
X47340974Y-46402898D01*
X47415824Y-46583600D01*
X47340974Y-46764302D01*
X47301200Y-46964261D01*
X47301200Y-47168139D01*
X47340974Y-47368098D01*
X47418995Y-47556456D01*
X47532263Y-47725974D01*
X47676426Y-47870137D01*
X47845944Y-47983405D01*
X47891187Y-48002145D01*
X47862273Y-48025874D01*
X47831641Y-48063200D01*
X47761051Y-48149213D01*
X47711997Y-48240988D01*
X47685838Y-48289929D01*
X47640792Y-48438426D01*
X47639521Y-48442615D01*
X47623881Y-48601402D01*
X47627801Y-48641200D01*
X47627801Y-49184099D01*
X47520595Y-49344544D01*
X47442574Y-49532902D01*
X47402800Y-49732861D01*
X47402800Y-49936739D01*
X47442574Y-50136698D01*
X47520595Y-50325056D01*
X47633863Y-50494574D01*
X47778026Y-50638737D01*
X47947544Y-50752005D01*
X48135902Y-50830026D01*
X48335861Y-50869800D01*
X48416846Y-50869800D01*
X48485795Y-51036256D01*
X48599063Y-51205774D01*
X48743226Y-51349937D01*
X48912744Y-51463205D01*
X49101102Y-51541226D01*
X49301061Y-51581000D01*
X49504939Y-51581000D01*
X49704898Y-51541226D01*
X49893256Y-51463205D01*
X50062774Y-51349937D01*
X50206937Y-51205774D01*
X50320205Y-51036256D01*
X50398226Y-50847898D01*
X50438000Y-50647939D01*
X50438000Y-50444061D01*
X50398226Y-50244102D01*
X50320205Y-50055744D01*
X50213000Y-49895300D01*
X50213000Y-48678834D01*
X50882600Y-48009234D01*
X50882600Y-48209539D01*
X50922374Y-48409498D01*
X51000395Y-48597856D01*
X51003765Y-48602900D01*
X51000395Y-48607944D01*
X50922374Y-48796302D01*
X50882600Y-48996261D01*
X50882600Y-49200139D01*
X50922374Y-49400098D01*
X51000395Y-49588456D01*
X51113663Y-49757974D01*
X51257826Y-49902137D01*
X51427344Y-50015405D01*
X51615702Y-50093426D01*
X51815661Y-50133200D01*
X52019539Y-50133200D01*
X52219498Y-50093426D01*
X52407856Y-50015405D01*
X52568300Y-49908200D01*
X58431012Y-49908200D01*
X58470800Y-49912119D01*
X58510588Y-49908200D01*
X58510591Y-49908200D01*
X58629588Y-49896480D01*
X58782273Y-49850163D01*
X58922989Y-49774949D01*
X59046328Y-49673728D01*
X59071700Y-49642812D01*
X59599441Y-49115071D01*
X59788698Y-49077426D01*
X59977056Y-48999405D01*
X60146574Y-48886137D01*
X60290737Y-48741974D01*
X60404005Y-48572456D01*
X60482026Y-48384098D01*
X60521800Y-48184139D01*
X60521800Y-47980261D01*
X60482026Y-47780302D01*
X60404005Y-47591944D01*
X60290737Y-47422426D01*
X60146574Y-47278263D01*
X59977056Y-47164995D01*
X59788698Y-47086974D01*
X59588739Y-47047200D01*
X59384861Y-47047200D01*
X59346300Y-47054870D01*
X59339026Y-47018302D01*
X59261005Y-46829944D01*
X59147737Y-46660426D01*
X59111911Y-46624600D01*
X59993911Y-45742600D01*
X64500300Y-45742600D01*
X64660744Y-45849805D01*
X64849102Y-45927826D01*
X65049061Y-45967600D01*
X65252939Y-45967600D01*
X65452898Y-45927826D01*
X65641256Y-45849805D01*
X65810774Y-45736537D01*
X65954937Y-45592374D01*
X66068205Y-45422856D01*
X66146226Y-45234498D01*
X66186000Y-45034539D01*
X66186000Y-44830661D01*
X66146226Y-44630702D01*
X66068205Y-44442344D01*
X65954937Y-44272826D01*
X65810774Y-44128663D01*
X65641256Y-44015395D01*
X65452898Y-43937374D01*
X65252939Y-43897600D01*
X65049061Y-43897600D01*
X64849102Y-43937374D01*
X64660744Y-44015395D01*
X64500300Y-44122600D01*
X59698185Y-44122600D01*
X59658397Y-44118681D01*
X59618609Y-44122600D01*
X59618607Y-44122600D01*
X59499610Y-44134320D01*
X59346925Y-44180637D01*
X59289461Y-44211352D01*
X59206208Y-44255851D01*
X59150608Y-44301481D01*
X59082870Y-44357072D01*
X59057503Y-44387982D01*
X57549672Y-45895813D01*
X57510226Y-45697502D01*
X57432205Y-45509144D01*
X57325000Y-45348700D01*
X57325000Y-42362389D01*
X57328919Y-42322601D01*
X57325774Y-42290661D01*
X60280600Y-42290661D01*
X60280600Y-42494539D01*
X60320374Y-42694498D01*
X60398395Y-42882856D01*
X60511663Y-43052374D01*
X60655826Y-43196537D01*
X60825344Y-43309805D01*
X61013702Y-43387826D01*
X61213661Y-43427600D01*
X61417539Y-43427600D01*
X61617498Y-43387826D01*
X61805856Y-43309805D01*
X61975374Y-43196537D01*
X62119537Y-43052374D01*
X62232805Y-42882856D01*
X62310826Y-42694498D01*
X62350600Y-42494539D01*
X62350600Y-42290661D01*
X62310826Y-42090702D01*
X62232805Y-41902344D01*
X62119537Y-41732826D01*
X61975374Y-41588663D01*
X61805856Y-41475395D01*
X61617498Y-41397374D01*
X61417539Y-41357600D01*
X61213661Y-41357600D01*
X61013702Y-41397374D01*
X60825344Y-41475395D01*
X60655826Y-41588663D01*
X60511663Y-41732826D01*
X60398395Y-41902344D01*
X60320374Y-42090702D01*
X60280600Y-42290661D01*
X57325774Y-42290661D01*
X57324046Y-42273124D01*
X57313280Y-42163814D01*
X57266963Y-42011129D01*
X57191749Y-41870413D01*
X57090528Y-41747074D01*
X57059619Y-41721708D01*
X55877200Y-40539290D01*
X55877200Y-38860413D01*
X63194192Y-38860413D01*
X63289956Y-39124814D01*
X63579571Y-39265704D01*
X63891108Y-39347384D01*
X64212595Y-39366718D01*
X64531675Y-39322961D01*
X64836088Y-39217795D01*
X65010044Y-39124814D01*
X65077315Y-38939080D01*
X67065525Y-38939080D01*
X67149208Y-39193261D01*
X67421775Y-39324158D01*
X67714642Y-39399365D01*
X68016553Y-39415991D01*
X68315907Y-39373397D01*
X68601199Y-39273222D01*
X68750792Y-39193261D01*
X68834475Y-38939080D01*
X67950000Y-38054605D01*
X67065525Y-38939080D01*
X65077315Y-38939080D01*
X65105808Y-38860413D01*
X64150000Y-37904605D01*
X63194192Y-38860413D01*
X55877200Y-38860413D01*
X55877200Y-37787595D01*
X62508282Y-37787595D01*
X62552039Y-38106675D01*
X62657205Y-38411088D01*
X62750186Y-38585044D01*
X63014587Y-38680808D01*
X63970395Y-37725000D01*
X63014587Y-36769192D01*
X62750186Y-36864956D01*
X62609296Y-37154571D01*
X62527616Y-37466108D01*
X62508282Y-37787595D01*
X55877200Y-37787595D01*
X55877200Y-36589587D01*
X63194192Y-36589587D01*
X64150000Y-37545395D01*
X64164143Y-37531253D01*
X64343748Y-37710858D01*
X64329605Y-37725000D01*
X65285413Y-38680808D01*
X65549814Y-38585044D01*
X65690704Y-38295429D01*
X65772384Y-37983892D01*
X65774930Y-37941553D01*
X66409009Y-37941553D01*
X66451603Y-38240907D01*
X66551778Y-38526199D01*
X66631739Y-38675792D01*
X66885920Y-38759475D01*
X67770395Y-37875000D01*
X66885920Y-36990525D01*
X66631739Y-37074208D01*
X66500842Y-37346775D01*
X66425635Y-37639642D01*
X66409009Y-37941553D01*
X65774930Y-37941553D01*
X65791718Y-37662405D01*
X65752398Y-37375683D01*
X65859774Y-37303937D01*
X66003937Y-37159774D01*
X66117205Y-36990256D01*
X66191488Y-36810920D01*
X67065525Y-36810920D01*
X67950000Y-37695395D01*
X68834475Y-36810920D01*
X68750792Y-36556739D01*
X68478225Y-36425842D01*
X68185358Y-36350635D01*
X67883447Y-36334009D01*
X67584093Y-36376603D01*
X67298801Y-36476778D01*
X67149208Y-36556739D01*
X67065525Y-36810920D01*
X66191488Y-36810920D01*
X66195226Y-36801898D01*
X66235000Y-36601939D01*
X66235000Y-36398061D01*
X66195226Y-36198102D01*
X66117205Y-36009744D01*
X66003937Y-35840226D01*
X65859774Y-35696063D01*
X65690256Y-35582795D01*
X65501898Y-35504774D01*
X65301939Y-35465000D01*
X65098061Y-35465000D01*
X64898102Y-35504774D01*
X64709744Y-35582795D01*
X64540226Y-35696063D01*
X64396063Y-35840226D01*
X64282795Y-36009744D01*
X64248326Y-36092960D01*
X64087405Y-36083282D01*
X63768325Y-36127039D01*
X63463912Y-36232205D01*
X63289956Y-36325186D01*
X63194192Y-36589587D01*
X55877200Y-36589587D01*
X55877200Y-35015591D01*
X55881119Y-34975800D01*
X55865480Y-34817012D01*
X55819163Y-34664326D01*
X55743949Y-34523611D01*
X55685898Y-34452875D01*
X55642728Y-34400272D01*
X55611819Y-34374906D01*
X55515871Y-34278958D01*
X55478226Y-34089702D01*
X55444982Y-34009445D01*
X56044619Y-33409809D01*
X56075528Y-33384443D01*
X56150573Y-33293000D01*
X56176749Y-33261105D01*
X56234457Y-33153140D01*
X56251963Y-33120388D01*
X56298280Y-32967703D01*
X56310000Y-32848706D01*
X56310000Y-32848704D01*
X56313919Y-32808916D01*
X56310000Y-32769128D01*
X56310000Y-26197668D01*
X56387028Y-26234994D01*
X56463877Y-26244666D01*
X56623000Y-26116998D01*
X56623000Y-25127000D01*
X56603000Y-25127000D01*
X56603000Y-24873000D01*
X56623000Y-24873000D01*
X56623000Y-23883002D01*
X56463877Y-23755334D01*
X56387028Y-23765006D01*
X56201840Y-23854745D01*
X56117938Y-23918209D01*
X56077797Y-23885266D01*
X55897993Y-23789159D01*
X55702895Y-23729976D01*
X55500000Y-23709993D01*
X55297106Y-23729976D01*
X55102008Y-23789159D01*
X54922204Y-23885266D01*
X54875001Y-23924005D01*
X54827797Y-23885266D01*
X54647993Y-23789159D01*
X54452895Y-23729976D01*
X54250000Y-23709993D01*
X54047106Y-23729976D01*
X53852008Y-23789159D01*
X53672204Y-23885266D01*
X53514605Y-24014604D01*
X53385267Y-24172203D01*
X53289159Y-24352007D01*
X53229976Y-24547105D01*
X53215000Y-24699162D01*
X53215000Y-25300837D01*
X53229976Y-25452894D01*
X53289159Y-25647992D01*
X53385266Y-25827797D01*
X53440000Y-25894491D01*
X53440000Y-26039790D01*
X53440001Y-26039800D01*
X53440001Y-28708435D01*
X53413298Y-28697374D01*
X53213339Y-28657600D01*
X53009461Y-28657600D01*
X52953164Y-28668798D01*
X52873937Y-28550226D01*
X52729774Y-28406063D01*
X52560256Y-28292795D01*
X52371898Y-28214774D01*
X52171939Y-28175000D01*
X51968061Y-28175000D01*
X51768102Y-28214774D01*
X51579744Y-28292795D01*
X51410226Y-28406063D01*
X51310010Y-28506279D01*
X51310010Y-24758797D01*
X51313929Y-24719009D01*
X51308482Y-24663705D01*
X51298290Y-24560222D01*
X51251973Y-24407537D01*
X51176759Y-24266821D01*
X51075538Y-24143482D01*
X51044628Y-24118115D01*
X50003899Y-23077387D01*
X49978528Y-23046472D01*
X49855189Y-22945251D01*
X49714473Y-22870037D01*
X49561788Y-22823720D01*
X49442791Y-22812000D01*
X49442788Y-22812000D01*
X49403000Y-22808081D01*
X49363212Y-22812000D01*
X48151788Y-22812000D01*
X48112000Y-22808081D01*
X48072212Y-22812000D01*
X48072209Y-22812000D01*
X47953212Y-22823720D01*
X47836063Y-22859257D01*
X47800526Y-22870037D01*
X47769590Y-22886573D01*
X47659811Y-22945251D01*
X47536472Y-23046472D01*
X47511100Y-23077388D01*
X47189388Y-23399100D01*
X47158472Y-23424472D01*
X47106570Y-23487716D01*
X47057251Y-23547811D01*
X47054443Y-23553065D01*
X46982037Y-23688528D01*
X46941811Y-23821133D01*
X46881993Y-23789159D01*
X46686895Y-23729976D01*
X46484000Y-23709993D01*
X46281106Y-23729976D01*
X46086008Y-23789159D01*
X45906204Y-23885266D01*
X45859001Y-23924005D01*
X45811797Y-23885266D01*
X45631993Y-23789159D01*
X45436895Y-23729976D01*
X45234000Y-23709993D01*
X45031106Y-23729976D01*
X44836008Y-23789159D01*
X44656204Y-23885266D01*
X44498605Y-24014604D01*
X44369267Y-24172203D01*
X44273159Y-24352007D01*
X44213976Y-24547105D01*
X44199000Y-24699162D01*
X44199000Y-25300837D01*
X44213976Y-25452894D01*
X44273159Y-25647992D01*
X44369266Y-25827797D01*
X44424000Y-25894491D01*
X44424000Y-26144211D01*
X44420081Y-26184000D01*
X44424000Y-26223788D01*
X44424000Y-26223790D01*
X44435720Y-26342787D01*
X44482037Y-26495472D01*
X44496885Y-26523251D01*
X44557251Y-26636189D01*
X44573001Y-26655380D01*
X44658472Y-26759528D01*
X44689388Y-26784900D01*
X45440001Y-27535513D01*
X45440001Y-29616622D01*
X45397456Y-29588195D01*
X45209098Y-29510174D01*
X45009139Y-29470400D01*
X44805261Y-29470400D01*
X44605302Y-29510174D01*
X44416944Y-29588195D01*
X44256500Y-29695400D01*
X42711787Y-29695400D01*
X42671999Y-29691481D01*
X42632211Y-29695400D01*
X42632209Y-29695400D01*
X42513212Y-29707120D01*
X42360527Y-29753437D01*
X42301630Y-29784918D01*
X42219810Y-29828651D01*
X42169702Y-29869774D01*
X42096472Y-29929872D01*
X42071105Y-29960782D01*
X39587447Y-32444441D01*
X39494098Y-32405774D01*
X39294139Y-32366000D01*
X39090261Y-32366000D01*
X38890302Y-32405774D01*
X38701944Y-32483795D01*
X38532426Y-32597063D01*
X38388263Y-32741226D01*
X38274995Y-32910744D01*
X38196974Y-33099102D01*
X38157200Y-33299061D01*
X38157200Y-33502939D01*
X38196974Y-33702898D01*
X38274995Y-33891256D01*
X38382201Y-34051701D01*
X38382201Y-34876610D01*
X36725600Y-33220010D01*
X36725600Y-32908700D01*
X36832805Y-32748256D01*
X36910826Y-32559898D01*
X36950600Y-32359939D01*
X36950600Y-32156061D01*
X36910826Y-31956102D01*
X36832805Y-31767744D01*
X36719537Y-31598226D01*
X36575374Y-31454063D01*
X36405856Y-31340795D01*
X36217498Y-31262774D01*
X36017539Y-31223000D01*
X35813661Y-31223000D01*
X35613702Y-31262774D01*
X35425344Y-31340795D01*
X35255826Y-31454063D01*
X35111663Y-31598226D01*
X34998395Y-31767744D01*
X34920374Y-31956102D01*
X34880600Y-32156061D01*
X34880600Y-32359939D01*
X34920374Y-32559898D01*
X34998395Y-32748256D01*
X35105600Y-32908701D01*
X35105600Y-33515733D01*
X35101681Y-33555522D01*
X35105600Y-33595310D01*
X35105600Y-33595312D01*
X35117320Y-33714309D01*
X35163637Y-33866994D01*
X35183617Y-33904374D01*
X35238851Y-34007711D01*
X35259777Y-34033209D01*
X35340072Y-34131050D01*
X35370988Y-34156422D01*
X42852227Y-41637662D01*
X42833263Y-41656626D01*
X42719995Y-41826144D01*
X42641974Y-42014502D01*
X42602200Y-42214461D01*
X42602200Y-42418339D01*
X42641974Y-42618298D01*
X42719995Y-42806656D01*
X42833263Y-42976174D01*
X42977426Y-43120337D01*
X43146944Y-43233605D01*
X43335302Y-43311626D01*
X43493250Y-43343043D01*
X43530974Y-43532698D01*
X43595303Y-43688000D01*
X39116000Y-43688000D01*
X39116000Y-40513000D01*
X39113560Y-40488224D01*
X39106333Y-40464399D01*
X39094597Y-40442443D01*
X39078803Y-40423197D01*
X39059557Y-40407403D01*
X39037601Y-40395667D01*
X39013776Y-40388440D01*
X38989000Y-40386000D01*
X34544000Y-40386000D01*
X34519224Y-40388440D01*
X34495399Y-40395667D01*
X34473443Y-40407403D01*
X34454197Y-40423197D01*
X34438403Y-40442443D01*
X34426667Y-40464399D01*
X34419440Y-40488224D01*
X34417000Y-40513000D01*
X34417000Y-48514000D01*
X34419440Y-48538776D01*
X34426667Y-48562601D01*
X34438403Y-48584557D01*
X34454197Y-48603803D01*
X34473443Y-48619597D01*
X34495399Y-48631333D01*
X34519224Y-48638560D01*
X34544000Y-48641000D01*
X35442166Y-48641000D01*
X35379395Y-48734944D01*
X35301374Y-48923302D01*
X35261600Y-49123261D01*
X35261600Y-49202600D01*
X34756761Y-49202600D01*
X34738337Y-49175026D01*
X34594174Y-49030863D01*
X34424656Y-48917595D01*
X34236298Y-48839574D01*
X34036339Y-48799800D01*
X33832461Y-48799800D01*
X33632502Y-48839574D01*
X33444144Y-48917595D01*
X33274626Y-49030863D01*
X33172400Y-49133089D01*
X33070174Y-49030863D01*
X32900656Y-48917595D01*
X32712298Y-48839574D01*
X32512339Y-48799800D01*
X32308461Y-48799800D01*
X32108502Y-48839574D01*
X31920144Y-48917595D01*
X31750626Y-49030863D01*
X31606463Y-49175026D01*
X31493195Y-49344544D01*
X31415174Y-49532902D01*
X31375400Y-49732861D01*
X31375400Y-49936739D01*
X31415174Y-50136698D01*
X31493195Y-50325056D01*
X31606463Y-50494574D01*
X31750626Y-50638737D01*
X31920144Y-50752005D01*
X32108502Y-50830026D01*
X32297759Y-50867671D01*
X32534501Y-51104413D01*
X32559873Y-51135329D01*
X32683212Y-51236550D01*
X32823928Y-51311764D01*
X32976613Y-51358081D01*
X33095610Y-51369801D01*
X33095612Y-51369801D01*
X33135400Y-51373720D01*
X33175188Y-51369801D01*
X34464243Y-51369801D01*
X34421926Y-51382638D01*
X34281210Y-51457852D01*
X34157871Y-51559073D01*
X34132506Y-51589981D01*
X31556112Y-54166376D01*
X31551024Y-54162976D01*
X31344467Y-54077417D01*
X31125188Y-54033800D01*
X30901612Y-54033800D01*
X30682333Y-54077417D01*
X30475776Y-54162976D01*
X30289880Y-54287188D01*
X30131788Y-54445280D01*
X30007576Y-54631176D01*
X29922017Y-54837733D01*
X29878400Y-55057012D01*
X29878400Y-55280588D01*
X29922017Y-55499867D01*
X29968288Y-55611574D01*
X29923898Y-55694620D01*
X29887588Y-55814318D01*
X29875328Y-55938800D01*
X29875328Y-56938800D01*
X29887588Y-57063282D01*
X29923898Y-57182980D01*
X29982863Y-57293294D01*
X30062215Y-57389985D01*
X30158906Y-57469337D01*
X30269220Y-57528302D01*
X30388918Y-57564612D01*
X30513400Y-57576872D01*
X31028402Y-57576872D01*
X31028401Y-61094886D01*
X29829159Y-62294129D01*
X29639902Y-62331774D01*
X29451544Y-62409795D01*
X29282026Y-62523063D01*
X29137863Y-62667226D01*
X29024595Y-62836744D01*
X28946574Y-63025102D01*
X28906800Y-63225061D01*
X26466801Y-63225061D01*
X26161088Y-62809452D01*
X25497118Y-62449151D01*
X24775615Y-62225306D01*
X24024305Y-62146520D01*
X23272062Y-62215822D01*
X22547792Y-62430548D01*
X21879330Y-62782445D01*
X21838912Y-62809452D01*
X21478724Y-63299119D01*
X24000000Y-65820395D01*
X24878923Y-64941472D01*
X24893119Y-64962718D01*
X25037282Y-65106881D01*
X25058528Y-65121077D01*
X24179605Y-66000000D01*
X25058528Y-66878923D01*
X25037282Y-66893119D01*
X24893119Y-67037282D01*
X24878923Y-67058528D01*
X24000000Y-66179605D01*
X23985858Y-66193748D01*
X23806253Y-66014143D01*
X23820395Y-66000000D01*
X21299119Y-63478724D01*
X20809452Y-63838912D01*
X20685000Y-64068255D01*
X20685000Y-59794380D01*
X24200026Y-59794380D01*
X24319914Y-60079236D01*
X24643610Y-60240099D01*
X24992469Y-60334722D01*
X25353084Y-60359467D01*
X25711598Y-60313385D01*
X26054233Y-60198246D01*
X26276886Y-60079236D01*
X26396774Y-59794380D01*
X25298400Y-58696005D01*
X24200026Y-59794380D01*
X20685000Y-59794380D01*
X20685000Y-58571084D01*
X23455333Y-58571084D01*
X23501415Y-58929598D01*
X23616554Y-59272233D01*
X23735564Y-59494886D01*
X24020420Y-59614774D01*
X25118795Y-58516400D01*
X25478005Y-58516400D01*
X26576380Y-59614774D01*
X26861236Y-59494886D01*
X27022099Y-59171190D01*
X27116722Y-58822331D01*
X27141467Y-58461716D01*
X27095385Y-58103202D01*
X26980246Y-57760567D01*
X26861236Y-57537914D01*
X26576380Y-57418026D01*
X25478005Y-58516400D01*
X25118795Y-58516400D01*
X24020420Y-57418026D01*
X23735564Y-57537914D01*
X23574701Y-57861610D01*
X23480078Y-58210469D01*
X23455333Y-58571084D01*
X20685000Y-58571084D01*
X20685000Y-48964772D01*
X20701175Y-49018099D01*
X20826359Y-49280920D01*
X21000412Y-49514269D01*
X21216645Y-49709178D01*
X21466748Y-49858157D01*
X21741109Y-49955481D01*
X21971000Y-49834814D01*
X21971000Y-48641000D01*
X21951000Y-48641000D01*
X21951000Y-48387000D01*
X21971000Y-48387000D01*
X21971000Y-46101000D01*
X21951000Y-46101000D01*
X21951000Y-45847000D01*
X21971000Y-45847000D01*
X21971000Y-43561000D01*
X21951000Y-43561000D01*
X21951000Y-43307000D01*
X21971000Y-43307000D01*
X21971000Y-41021000D01*
X21951000Y-41021000D01*
X21951000Y-40767000D01*
X21971000Y-40767000D01*
X21971000Y-38481000D01*
X21951000Y-38481000D01*
X21951000Y-38227000D01*
X21971000Y-38227000D01*
X21971000Y-35941000D01*
X21951000Y-35941000D01*
X21951000Y-35687000D01*
X21971000Y-35687000D01*
X21971000Y-33401000D01*
X21951000Y-33401000D01*
X21951000Y-33147000D01*
X21971000Y-33147000D01*
X21971000Y-30861000D01*
X21951000Y-30861000D01*
X21951000Y-30607000D01*
X21971000Y-30607000D01*
X21971000Y-29413186D01*
X22225000Y-29413186D01*
X22225000Y-30607000D01*
X22245000Y-30607000D01*
X22245000Y-30861000D01*
X22225000Y-30861000D01*
X22225000Y-33147000D01*
X22245000Y-33147000D01*
X22245000Y-33401000D01*
X22225000Y-33401000D01*
X22225000Y-35687000D01*
X22245000Y-35687000D01*
X22245000Y-35941000D01*
X22225000Y-35941000D01*
X22225000Y-38227000D01*
X22245000Y-38227000D01*
X22245000Y-38481000D01*
X22225000Y-38481000D01*
X22225000Y-40767000D01*
X22245000Y-40767000D01*
X22245000Y-41021000D01*
X22225000Y-41021000D01*
X22225000Y-43307000D01*
X22245000Y-43307000D01*
X22245000Y-43561000D01*
X22225000Y-43561000D01*
X22225000Y-45847000D01*
X22245000Y-45847000D01*
X22245000Y-46101000D01*
X22225000Y-46101000D01*
X22225000Y-48387000D01*
X22245000Y-48387000D01*
X22245000Y-48641000D01*
X22225000Y-48641000D01*
X22225000Y-49834814D01*
X22454891Y-49955481D01*
X22729252Y-49858157D01*
X22979355Y-49709178D01*
X23175502Y-49532374D01*
X23198498Y-49608180D01*
X23253000Y-49710145D01*
X23253001Y-54287961D01*
X23246300Y-54356000D01*
X23273040Y-54627507D01*
X23352236Y-54888580D01*
X23460328Y-55090805D01*
X23460328Y-56216400D01*
X23472588Y-56340882D01*
X23508898Y-56460580D01*
X23567863Y-56570894D01*
X23647215Y-56667585D01*
X23743906Y-56746937D01*
X23854220Y-56805902D01*
X23973918Y-56842212D01*
X24098400Y-56854472D01*
X24505303Y-56854472D01*
X24319914Y-56953564D01*
X24200026Y-57238420D01*
X25298400Y-58336795D01*
X26396774Y-57238420D01*
X26276886Y-56953564D01*
X26077488Y-56854472D01*
X26498400Y-56854472D01*
X26622882Y-56842212D01*
X26742580Y-56805902D01*
X26852894Y-56746937D01*
X26949585Y-56667585D01*
X27028937Y-56570894D01*
X27087902Y-56460580D01*
X27124212Y-56340882D01*
X27136472Y-56216400D01*
X27136472Y-53816400D01*
X27124212Y-53691918D01*
X27087902Y-53572220D01*
X27028937Y-53461906D01*
X26949585Y-53365215D01*
X26852894Y-53285863D01*
X26742580Y-53226898D01*
X26622882Y-53190588D01*
X26498400Y-53178328D01*
X26023000Y-53178328D01*
X26023000Y-49710144D01*
X26077502Y-49608180D01*
X26093601Y-49555108D01*
X26231368Y-49692875D01*
X26474589Y-49855390D01*
X26744842Y-49967332D01*
X27031740Y-50024400D01*
X27324260Y-50024400D01*
X27611158Y-49967332D01*
X27881411Y-49855390D01*
X28124632Y-49692875D01*
X28331475Y-49486032D01*
X28493990Y-49242811D01*
X28605932Y-48972558D01*
X28663000Y-48685660D01*
X28663000Y-48393140D01*
X28605932Y-48106242D01*
X28493990Y-47835989D01*
X28331475Y-47592768D01*
X28124632Y-47385925D01*
X27950240Y-47269400D01*
X28124632Y-47152875D01*
X28331475Y-46946032D01*
X28493990Y-46702811D01*
X28605932Y-46432558D01*
X28663000Y-46145660D01*
X28663000Y-45853140D01*
X28605932Y-45566242D01*
X28493990Y-45295989D01*
X28331475Y-45052768D01*
X28124632Y-44845925D01*
X27950240Y-44729400D01*
X28124632Y-44612875D01*
X28331475Y-44406032D01*
X28493990Y-44162811D01*
X28605932Y-43892558D01*
X28663000Y-43605660D01*
X28663000Y-43313140D01*
X28605932Y-43026242D01*
X28493990Y-42755989D01*
X28331475Y-42512768D01*
X28124632Y-42305925D01*
X27950240Y-42189400D01*
X28124632Y-42072875D01*
X28331475Y-41866032D01*
X28493990Y-41622811D01*
X28605932Y-41352558D01*
X28663000Y-41065660D01*
X28663000Y-40773140D01*
X28605932Y-40486242D01*
X28493990Y-40215989D01*
X28331475Y-39972768D01*
X28124632Y-39765925D01*
X27950240Y-39649400D01*
X28124632Y-39532875D01*
X28331475Y-39326032D01*
X28493990Y-39082811D01*
X28605932Y-38812558D01*
X28663000Y-38525660D01*
X28663000Y-38233140D01*
X28605932Y-37946242D01*
X28493990Y-37675989D01*
X28331475Y-37432768D01*
X28124632Y-37225925D01*
X27950240Y-37109400D01*
X28124632Y-36992875D01*
X28331475Y-36786032D01*
X28493990Y-36542811D01*
X28605932Y-36272558D01*
X28663000Y-35985660D01*
X28663000Y-35693140D01*
X28605932Y-35406242D01*
X28493990Y-35135989D01*
X28331475Y-34892768D01*
X28124632Y-34685925D01*
X27950240Y-34569400D01*
X28124632Y-34452875D01*
X28331475Y-34246032D01*
X28493990Y-34002811D01*
X28605932Y-33732558D01*
X28663000Y-33445660D01*
X28663000Y-33153140D01*
X28605932Y-32866242D01*
X28493990Y-32595989D01*
X28331475Y-32352768D01*
X28199620Y-32220913D01*
X28272180Y-32198902D01*
X28382494Y-32139937D01*
X28479185Y-32060585D01*
X28558537Y-31963894D01*
X28617502Y-31853580D01*
X28653812Y-31733882D01*
X28666072Y-31609400D01*
X28666072Y-29909400D01*
X28653812Y-29784918D01*
X28617502Y-29665220D01*
X28558537Y-29554906D01*
X28479185Y-29458215D01*
X28382494Y-29378863D01*
X28272180Y-29319898D01*
X28152482Y-29283588D01*
X28028000Y-29271328D01*
X26328000Y-29271328D01*
X26203518Y-29283588D01*
X26083820Y-29319898D01*
X25973506Y-29378863D01*
X25876815Y-29458215D01*
X25797463Y-29554906D01*
X25738498Y-29665220D01*
X25722399Y-29718292D01*
X25584632Y-29580525D01*
X25341411Y-29418010D01*
X25071158Y-29306068D01*
X24784260Y-29249000D01*
X24491740Y-29249000D01*
X24204842Y-29306068D01*
X23934589Y-29418010D01*
X23691368Y-29580525D01*
X23484525Y-29787368D01*
X23366900Y-29963406D01*
X23195588Y-29733731D01*
X22979355Y-29538822D01*
X22729252Y-29389843D01*
X22454891Y-29292519D01*
X22225000Y-29413186D01*
X21971000Y-29413186D01*
X21741109Y-29292519D01*
X21466748Y-29389843D01*
X21216645Y-29538822D01*
X21000412Y-29733731D01*
X20826359Y-29967080D01*
X20701175Y-30229901D01*
X20685000Y-30283228D01*
X20685000Y-25935564D01*
X20782445Y-26120670D01*
X20809452Y-26161088D01*
X21299119Y-26521276D01*
X23820395Y-24000000D01*
X23806253Y-23985858D01*
X23985858Y-23806253D01*
X24000000Y-23820395D01*
X24878923Y-22941472D01*
X24893119Y-22962718D01*
X25037282Y-23106881D01*
X25058528Y-23121077D01*
X24179605Y-24000000D01*
X25058528Y-24878923D01*
X25037282Y-24893119D01*
X24893119Y-25037282D01*
X24878923Y-25058528D01*
X24000000Y-24179605D01*
X21478724Y-26700881D01*
X21838912Y-27190548D01*
X22502882Y-27550849D01*
X23224385Y-27774694D01*
X23975695Y-27853480D01*
X24727938Y-27784178D01*
X25452208Y-27569452D01*
X26120670Y-27217555D01*
X26161088Y-27190548D01*
X26521276Y-26700881D01*
X26335584Y-26515189D01*
X26356830Y-26500993D01*
X26500993Y-26356830D01*
X26515189Y-26335584D01*
X26700881Y-26521276D01*
X27190548Y-26161088D01*
X27550849Y-25497118D01*
X27774694Y-24775615D01*
X27781742Y-24708401D01*
X30701082Y-24708401D01*
X30866238Y-24873000D01*
X31623000Y-24873000D01*
X31623000Y-23883002D01*
X31463877Y-23755334D01*
X31387028Y-23765006D01*
X31201840Y-23854745D01*
X31037717Y-23978888D01*
X30900967Y-24132664D01*
X30796845Y-24310164D01*
X30729352Y-24504567D01*
X30701082Y-24708401D01*
X27781742Y-24708401D01*
X27853480Y-24024305D01*
X27784178Y-23272062D01*
X27569452Y-22547792D01*
X27217555Y-21879330D01*
X27190548Y-21838912D01*
X26700881Y-21478724D01*
X26515189Y-21664416D01*
X26500993Y-21643170D01*
X26356830Y-21499007D01*
X26335584Y-21484811D01*
X26521276Y-21299119D01*
X26161088Y-20809452D01*
X25931745Y-20685000D01*
X36905423Y-20685000D01*
X33704960Y-23885464D01*
G36*
X43646063Y-46889026D02*
G01*
X43532795Y-47058544D01*
X43454774Y-47246902D01*
X43417129Y-47436158D01*
X41650688Y-49202600D01*
X37331600Y-49202600D01*
X37331600Y-49123261D01*
X37291826Y-48923302D01*
X37213805Y-48734944D01*
X37151034Y-48641000D01*
X38989000Y-48641000D01*
X39013776Y-48638560D01*
X39037601Y-48631333D01*
X39059557Y-48619597D01*
X39078803Y-48603803D01*
X39094597Y-48584557D01*
X39106333Y-48562601D01*
X39113560Y-48538776D01*
X39116000Y-48514000D01*
X39116000Y-46863000D01*
X43672089Y-46863000D01*
X43646063Y-46889026D01*
G37*
X43646063Y-46889026D02*
X43532795Y-47058544D01*
X43454774Y-47246902D01*
X43417129Y-47436158D01*
X41650688Y-49202600D01*
X37331600Y-49202600D01*
X37331600Y-49123261D01*
X37291826Y-48923302D01*
X37213805Y-48734944D01*
X37151034Y-48641000D01*
X38989000Y-48641000D01*
X39013776Y-48638560D01*
X39037601Y-48631333D01*
X39059557Y-48619597D01*
X39078803Y-48603803D01*
X39094597Y-48584557D01*
X39106333Y-48562601D01*
X39113560Y-48538776D01*
X39116000Y-48514000D01*
X39116000Y-46863000D01*
X43672089Y-46863000D01*
X43646063Y-46889026D01*
G36*
X38481000Y-44196000D02*
G01*
X38483440Y-44220776D01*
X38490667Y-44244601D01*
X38502403Y-44266557D01*
X38518197Y-44285803D01*
X38537443Y-44301597D01*
X38559399Y-44313333D01*
X38583224Y-44320560D01*
X38608000Y-44323000D01*
X43307000Y-44323000D01*
X43307000Y-46228000D01*
X38608000Y-46228000D01*
X38583224Y-46230440D01*
X38559399Y-46237667D01*
X38537443Y-46249403D01*
X38518197Y-46265197D01*
X38502403Y-46284443D01*
X38490667Y-46306399D01*
X38483440Y-46330224D01*
X38481000Y-46355000D01*
X38481000Y-48006000D01*
X35052000Y-48006000D01*
X35052000Y-41021000D01*
X38481000Y-41021000D01*
X38481000Y-44196000D01*
G37*
X38481000Y-44196000D02*
X38483440Y-44220776D01*
X38490667Y-44244601D01*
X38502403Y-44266557D01*
X38518197Y-44285803D01*
X38537443Y-44301597D01*
X38559399Y-44313333D01*
X38583224Y-44320560D01*
X38608000Y-44323000D01*
X43307000Y-44323000D01*
X43307000Y-46228000D01*
X38608000Y-46228000D01*
X38583224Y-46230440D01*
X38559399Y-46237667D01*
X38537443Y-46249403D01*
X38518197Y-46265197D01*
X38502403Y-46284443D01*
X38490667Y-46306399D01*
X38483440Y-46330224D01*
X38481000Y-46355000D01*
X38481000Y-48006000D01*
X35052000Y-48006000D01*
X35052000Y-41021000D01*
X38481000Y-41021000D01*
X38481000Y-44196000D01*
G36*
X45931729Y-39482642D02*
G01*
X45969374Y-39671898D01*
X46047395Y-39860256D01*
X46154600Y-40020700D01*
X46154601Y-41768602D01*
X46150681Y-41808400D01*
X46163779Y-41941379D01*
X46166321Y-41967188D01*
X46167571Y-41971307D01*
X46111849Y-41903411D01*
X46066928Y-41848674D01*
X46036018Y-41823307D01*
X43236911Y-39024200D01*
X43348937Y-38912174D01*
X43462205Y-38742656D01*
X43540226Y-38554298D01*
X43568213Y-38413599D01*
X44862687Y-38413599D01*
X45931729Y-39482642D01*
G37*
X45931729Y-39482642D02*
X45969374Y-39671898D01*
X46047395Y-39860256D01*
X46154600Y-40020700D01*
X46154601Y-41768602D01*
X46150681Y-41808400D01*
X46163779Y-41941379D01*
X46166321Y-41967188D01*
X46167571Y-41971307D01*
X46111849Y-41903411D01*
X46066928Y-41848674D01*
X46036018Y-41823307D01*
X43236911Y-39024200D01*
X43348937Y-38912174D01*
X43462205Y-38742656D01*
X43540226Y-38554298D01*
X43568213Y-38413599D01*
X44862687Y-38413599D01*
X45931729Y-39482642D01*
G36*
X51410226Y-30013937D02*
G01*
X51579744Y-30127205D01*
X51768102Y-30205226D01*
X51968061Y-30245000D01*
X52171939Y-30245000D01*
X52228236Y-30233802D01*
X52307463Y-30352374D01*
X52451626Y-30496537D01*
X52621144Y-30609805D01*
X52809502Y-30687826D01*
X53009461Y-30727600D01*
X53213339Y-30727600D01*
X53413298Y-30687826D01*
X53440000Y-30676765D01*
X53440000Y-33016282D01*
X52973183Y-33483100D01*
X52942273Y-33508467D01*
X52903656Y-33555522D01*
X52841051Y-33631806D01*
X52790603Y-33726189D01*
X52765838Y-33772522D01*
X52749586Y-33826099D01*
X52719521Y-33925208D01*
X52703881Y-34083995D01*
X52707801Y-34123793D01*
X52707800Y-34934699D01*
X52600595Y-35095144D01*
X52522574Y-35283502D01*
X52482800Y-35483461D01*
X52482800Y-35687339D01*
X52522574Y-35887298D01*
X52600595Y-36075656D01*
X52713863Y-36245174D01*
X52858026Y-36389337D01*
X53027544Y-36502605D01*
X53215902Y-36580626D01*
X53405159Y-36618271D01*
X53757191Y-36970304D01*
X53757191Y-38665200D01*
X53644461Y-38665200D01*
X53444502Y-38704974D01*
X53325669Y-38754197D01*
X53325669Y-37670136D01*
X53329588Y-37630348D01*
X53321606Y-37549307D01*
X53313949Y-37471561D01*
X53267632Y-37318876D01*
X53223165Y-37235683D01*
X53192418Y-37178159D01*
X53135475Y-37108774D01*
X53091197Y-37054821D01*
X53060287Y-37029454D01*
X51975020Y-35944188D01*
X51975020Y-33051967D01*
X51978939Y-33012179D01*
X51974992Y-32972102D01*
X51963300Y-32853392D01*
X51916983Y-32700707D01*
X51870758Y-32614226D01*
X51841769Y-32559990D01*
X51779237Y-32483795D01*
X51740548Y-32436652D01*
X51709638Y-32411285D01*
X51310010Y-32011658D01*
X51310010Y-29913721D01*
X51410226Y-30013937D01*
G37*
X51410226Y-30013937D02*
X51579744Y-30127205D01*
X51768102Y-30205226D01*
X51968061Y-30245000D01*
X52171939Y-30245000D01*
X52228236Y-30233802D01*
X52307463Y-30352374D01*
X52451626Y-30496537D01*
X52621144Y-30609805D01*
X52809502Y-30687826D01*
X53009461Y-30727600D01*
X53213339Y-30727600D01*
X53413298Y-30687826D01*
X53440000Y-30676765D01*
X53440000Y-33016282D01*
X52973183Y-33483100D01*
X52942273Y-33508467D01*
X52903656Y-33555522D01*
X52841051Y-33631806D01*
X52790603Y-33726189D01*
X52765838Y-33772522D01*
X52749586Y-33826099D01*
X52719521Y-33925208D01*
X52703881Y-34083995D01*
X52707801Y-34123793D01*
X52707800Y-34934699D01*
X52600595Y-35095144D01*
X52522574Y-35283502D01*
X52482800Y-35483461D01*
X52482800Y-35687339D01*
X52522574Y-35887298D01*
X52600595Y-36075656D01*
X52713863Y-36245174D01*
X52858026Y-36389337D01*
X53027544Y-36502605D01*
X53215902Y-36580626D01*
X53405159Y-36618271D01*
X53757191Y-36970304D01*
X53757191Y-38665200D01*
X53644461Y-38665200D01*
X53444502Y-38704974D01*
X53325669Y-38754197D01*
X53325669Y-37670136D01*
X53329588Y-37630348D01*
X53321606Y-37549307D01*
X53313949Y-37471561D01*
X53267632Y-37318876D01*
X53223165Y-37235683D01*
X53192418Y-37178159D01*
X53135475Y-37108774D01*
X53091197Y-37054821D01*
X53060287Y-37029454D01*
X51975020Y-35944188D01*
X51975020Y-33051967D01*
X51978939Y-33012179D01*
X51974992Y-32972102D01*
X51963300Y-32853392D01*
X51916983Y-32700707D01*
X51870758Y-32614226D01*
X51841769Y-32559990D01*
X51779237Y-32483795D01*
X51740548Y-32436652D01*
X51709638Y-32411285D01*
X51310010Y-32011658D01*
X51310010Y-29913721D01*
X51410226Y-30013937D01*
G36*
X44416944Y-31422605D02*
G01*
X44605302Y-31500626D01*
X44805261Y-31540400D01*
X45009139Y-31540400D01*
X45209098Y-31500626D01*
X45397456Y-31422605D01*
X45440001Y-31394178D01*
X45440000Y-35368423D01*
X45381737Y-35281226D01*
X45237574Y-35137063D01*
X45068056Y-35023795D01*
X44879698Y-34945774D01*
X44679739Y-34906000D01*
X44475861Y-34906000D01*
X44275902Y-34945774D01*
X44152829Y-34996753D01*
X44106587Y-34972036D01*
X43953902Y-34925719D01*
X43834905Y-34913999D01*
X43834902Y-34913999D01*
X43795114Y-34910080D01*
X43755326Y-34913999D01*
X42945000Y-34913999D01*
X42945000Y-34797661D01*
X42905226Y-34597702D01*
X42827205Y-34409344D01*
X42713937Y-34239826D01*
X42643800Y-34169689D01*
X42643800Y-33696100D01*
X42751005Y-33535656D01*
X42829026Y-33347298D01*
X42868800Y-33147339D01*
X42868800Y-32943461D01*
X42864939Y-32924050D01*
X43002826Y-33061937D01*
X43172344Y-33175205D01*
X43360702Y-33253226D01*
X43560661Y-33293000D01*
X43764539Y-33293000D01*
X43964498Y-33253226D01*
X44152856Y-33175205D01*
X44322374Y-33061937D01*
X44466537Y-32917774D01*
X44579805Y-32748256D01*
X44657826Y-32559898D01*
X44697600Y-32359939D01*
X44697600Y-32156061D01*
X44657826Y-31956102D01*
X44579805Y-31767744D01*
X44466537Y-31598226D01*
X44322374Y-31454063D01*
X44152856Y-31340795D01*
X44091547Y-31315400D01*
X44256500Y-31315400D01*
X44416944Y-31422605D01*
G37*
X44416944Y-31422605D02*
X44605302Y-31500626D01*
X44805261Y-31540400D01*
X45009139Y-31540400D01*
X45209098Y-31500626D01*
X45397456Y-31422605D01*
X45440001Y-31394178D01*
X45440000Y-35368423D01*
X45381737Y-35281226D01*
X45237574Y-35137063D01*
X45068056Y-35023795D01*
X44879698Y-34945774D01*
X44679739Y-34906000D01*
X44475861Y-34906000D01*
X44275902Y-34945774D01*
X44152829Y-34996753D01*
X44106587Y-34972036D01*
X43953902Y-34925719D01*
X43834905Y-34913999D01*
X43834902Y-34913999D01*
X43795114Y-34910080D01*
X43755326Y-34913999D01*
X42945000Y-34913999D01*
X42945000Y-34797661D01*
X42905226Y-34597702D01*
X42827205Y-34409344D01*
X42713937Y-34239826D01*
X42643800Y-34169689D01*
X42643800Y-33696100D01*
X42751005Y-33535656D01*
X42829026Y-33347298D01*
X42868800Y-33147339D01*
X42868800Y-32943461D01*
X42864939Y-32924050D01*
X43002826Y-33061937D01*
X43172344Y-33175205D01*
X43360702Y-33253226D01*
X43560661Y-33293000D01*
X43764539Y-33293000D01*
X43964498Y-33253226D01*
X44152856Y-33175205D01*
X44322374Y-33061937D01*
X44466537Y-32917774D01*
X44579805Y-32748256D01*
X44657826Y-32559898D01*
X44697600Y-32359939D01*
X44697600Y-32156061D01*
X44657826Y-31956102D01*
X44579805Y-31767744D01*
X44466537Y-31598226D01*
X44322374Y-31454063D01*
X44152856Y-31340795D01*
X44091547Y-31315400D01*
X44256500Y-31315400D01*
X44416944Y-31422605D01*
M02*
