G04 #@! TF.GenerationSoftware,KiCad,Pcbnew,(5.1.5)-3*
G04 #@! TF.CreationDate,2019-12-17T15:15:26+01:00*
G04 #@! TF.ProjectId,HadesMicroJLCPCB,48616465-734d-4696-9372-6f4a4c435043,rev?*
G04 #@! TF.SameCoordinates,Original*
G04 #@! TF.FileFunction,Legend,Bot*
G04 #@! TF.FilePolarity,Positive*
%FSLAX46Y46*%
G04 Gerber Fmt 4.6, Leading zero omitted, Abs format (unit mm)*
G04 Created by KiCad (PCBNEW (5.1.5)-3) date 2019-12-17 15:15:26*
%MOMM*%
%LPD*%
G04 APERTURE LIST*
%ADD10C,0.100000*%
%ADD11C,0.150000*%
G04 APERTURE END LIST*
D10*
X31400400Y-22364771D02*
X31364685Y-22293342D01*
X31364685Y-22186200D01*
X31400400Y-22079057D01*
X31471828Y-22007628D01*
X31543257Y-21971914D01*
X31686114Y-21936200D01*
X31793257Y-21936200D01*
X31936114Y-21971914D01*
X32007542Y-22007628D01*
X32078971Y-22079057D01*
X32114685Y-22186200D01*
X32114685Y-22257628D01*
X32078971Y-22364771D01*
X32043257Y-22400485D01*
X31793257Y-22400485D01*
X31793257Y-22257628D01*
X32114685Y-22721914D02*
X31364685Y-22721914D01*
X32114685Y-23150485D01*
X31364685Y-23150485D01*
X32114685Y-23507628D02*
X31364685Y-23507628D01*
X31364685Y-23686200D01*
X31400400Y-23793342D01*
X31471828Y-23864771D01*
X31543257Y-23900485D01*
X31686114Y-23936200D01*
X31793257Y-23936200D01*
X31936114Y-23900485D01*
X32007542Y-23864771D01*
X32078971Y-23793342D01*
X32114685Y-23686200D01*
X32114685Y-23507628D01*
X56394000Y-22364771D02*
X56358285Y-22293342D01*
X56358285Y-22186200D01*
X56394000Y-22079057D01*
X56465428Y-22007628D01*
X56536857Y-21971914D01*
X56679714Y-21936200D01*
X56786857Y-21936200D01*
X56929714Y-21971914D01*
X57001142Y-22007628D01*
X57072571Y-22079057D01*
X57108285Y-22186200D01*
X57108285Y-22257628D01*
X57072571Y-22364771D01*
X57036857Y-22400485D01*
X56786857Y-22400485D01*
X56786857Y-22257628D01*
X57108285Y-22721914D02*
X56358285Y-22721914D01*
X57108285Y-23150485D01*
X56358285Y-23150485D01*
X57108285Y-23507628D02*
X56358285Y-23507628D01*
X56358285Y-23686200D01*
X56394000Y-23793342D01*
X56465428Y-23864771D01*
X56536857Y-23900485D01*
X56679714Y-23936200D01*
X56786857Y-23936200D01*
X56929714Y-23900485D01*
X57001142Y-23864771D01*
X57072571Y-23793342D01*
X57108285Y-23686200D01*
X57108285Y-23507628D01*
D11*
X68314914Y-40009548D02*
X69314914Y-39884548D01*
X68362533Y-40003595D02*
X68314914Y-40104786D01*
X68314914Y-40295262D01*
X68362533Y-40384548D01*
X68410152Y-40426214D01*
X68505390Y-40461929D01*
X68791104Y-40426214D01*
X68886342Y-40366691D01*
X68933961Y-40313119D01*
X68981580Y-40211929D01*
X68981580Y-40021452D01*
X68933961Y-39932167D01*
X68981580Y-40830976D02*
X67981580Y-40955976D01*
X68981580Y-41259548D02*
X68457771Y-41325024D01*
X68362533Y-41289310D01*
X68314914Y-41200024D01*
X68314914Y-41057167D01*
X68362533Y-40955976D01*
X68410152Y-40902405D01*
X68981580Y-41735738D02*
X68314914Y-41819072D01*
X67981580Y-41860738D02*
X68029200Y-41807167D01*
X68076819Y-41848833D01*
X68029200Y-41902405D01*
X67981580Y-41860738D01*
X68076819Y-41848833D01*
X68981580Y-42354786D02*
X68933961Y-42265500D01*
X68838723Y-42229786D01*
X67981580Y-42336929D01*
X68933961Y-42694072D02*
X68981580Y-42783357D01*
X68981580Y-42973833D01*
X68933961Y-43075024D01*
X68838723Y-43134548D01*
X68791104Y-43140500D01*
X68695866Y-43104786D01*
X68648247Y-43015500D01*
X68648247Y-42872643D01*
X68600628Y-42783357D01*
X68505390Y-42747643D01*
X68457771Y-42753595D01*
X68362533Y-42813119D01*
X68314914Y-42914310D01*
X68314914Y-43057167D01*
X68362533Y-43146452D01*
X68981580Y-43973833D02*
X68457771Y-44039310D01*
X68362533Y-44003595D01*
X68314914Y-43914310D01*
X68314914Y-43723833D01*
X68362533Y-43622643D01*
X68933961Y-43979786D02*
X68981580Y-43878595D01*
X68981580Y-43640500D01*
X68933961Y-43551214D01*
X68838723Y-43515500D01*
X68743485Y-43527405D01*
X68648247Y-43586929D01*
X68600628Y-43688119D01*
X68600628Y-43926214D01*
X68553009Y-44027405D01*
X68981580Y-44592881D02*
X68933961Y-44503595D01*
X68838723Y-44467881D01*
X67981580Y-44575024D01*
X68886342Y-44985738D02*
X68933961Y-45027405D01*
X68981580Y-44973833D01*
X68933961Y-44932167D01*
X68886342Y-44985738D01*
X68981580Y-44973833D01*
X68933961Y-45884548D02*
X68981580Y-45783357D01*
X68981580Y-45592881D01*
X68933961Y-45503595D01*
X68886342Y-45461929D01*
X68791104Y-45426214D01*
X68505390Y-45461929D01*
X68410152Y-45521452D01*
X68362533Y-45575024D01*
X68314914Y-45676214D01*
X68314914Y-45866691D01*
X68362533Y-45955976D01*
X68981580Y-46450024D02*
X68933961Y-46360738D01*
X68886342Y-46319072D01*
X68791104Y-46283357D01*
X68505390Y-46319072D01*
X68410152Y-46378595D01*
X68362533Y-46432167D01*
X68314914Y-46533357D01*
X68314914Y-46676214D01*
X68362533Y-46765500D01*
X68410152Y-46807167D01*
X68505390Y-46842881D01*
X68791104Y-46807167D01*
X68886342Y-46747643D01*
X68933961Y-46694072D01*
X68981580Y-46592881D01*
X68981580Y-46450024D01*
X68886342Y-47223833D02*
X68933961Y-47265500D01*
X68981580Y-47211929D01*
X68933961Y-47170262D01*
X68886342Y-47223833D01*
X68981580Y-47211929D01*
X68314914Y-48200024D02*
X68981580Y-48116691D01*
X68314914Y-47771452D02*
X68838723Y-47705976D01*
X68933961Y-47741691D01*
X68981580Y-47830976D01*
X68981580Y-47973833D01*
X68933961Y-48075024D01*
X68886342Y-48128595D01*
X68981580Y-48592881D02*
X67981580Y-48717881D01*
X68600628Y-48735738D02*
X68981580Y-48973833D01*
X68314914Y-49057167D02*
X68695866Y-48628595D01*
X49304533Y-57818280D02*
X49304533Y-56818280D01*
X48971200Y-57532566D01*
X48637866Y-56818280D01*
X48637866Y-57818280D01*
D10*
X57602885Y-22007628D02*
X57602885Y-22471914D01*
X57888600Y-22221914D01*
X57888600Y-22329057D01*
X57924314Y-22400485D01*
X57960028Y-22436200D01*
X58031457Y-22471914D01*
X58210028Y-22471914D01*
X58281457Y-22436200D01*
X58317171Y-22400485D01*
X58352885Y-22329057D01*
X58352885Y-22114771D01*
X58317171Y-22043342D01*
X58281457Y-22007628D01*
X57602885Y-22686200D02*
X58352885Y-22936200D01*
X57602885Y-23186200D01*
X57602885Y-23364771D02*
X57602885Y-23829057D01*
X57888600Y-23579057D01*
X57888600Y-23686200D01*
X57924314Y-23757628D01*
X57960028Y-23793342D01*
X58031457Y-23829057D01*
X58210028Y-23829057D01*
X58281457Y-23793342D01*
X58317171Y-23757628D01*
X58352885Y-23686200D01*
X58352885Y-23471914D01*
X58317171Y-23400485D01*
X58281457Y-23364771D01*
X46869000Y-66535371D02*
X46833285Y-66463942D01*
X46833285Y-66356800D01*
X46869000Y-66249657D01*
X46940428Y-66178228D01*
X47011857Y-66142514D01*
X47154714Y-66106800D01*
X47261857Y-66106800D01*
X47404714Y-66142514D01*
X47476142Y-66178228D01*
X47547571Y-66249657D01*
X47583285Y-66356800D01*
X47583285Y-66428228D01*
X47547571Y-66535371D01*
X47511857Y-66571085D01*
X47261857Y-66571085D01*
X47261857Y-66428228D01*
X47583285Y-66892514D02*
X46833285Y-66892514D01*
X47583285Y-67321085D01*
X46833285Y-67321085D01*
X47583285Y-67678228D02*
X46833285Y-67678228D01*
X46833285Y-67856800D01*
X46869000Y-67963942D01*
X46940428Y-68035371D01*
X47011857Y-68071085D01*
X47154714Y-68106800D01*
X47261857Y-68106800D01*
X47404714Y-68071085D01*
X47476142Y-68035371D01*
X47547571Y-67963942D01*
X47583285Y-67856800D01*
X47583285Y-67678228D01*
X55088285Y-22796571D02*
X55088285Y-23225142D01*
X55838285Y-23010857D02*
X55088285Y-23010857D01*
X55088285Y-23403714D02*
X55838285Y-23903714D01*
X55088285Y-23903714D02*
X55838285Y-23403714D01*
D11*
X53043104Y-57818280D02*
X53043104Y-56818280D01*
X52662152Y-56818280D01*
X52566914Y-56865900D01*
X52519295Y-56913519D01*
X52471676Y-57008757D01*
X52471676Y-57151614D01*
X52519295Y-57246852D01*
X52566914Y-57294471D01*
X52662152Y-57342090D01*
X53043104Y-57342090D01*
D10*
X57094885Y-66103571D02*
X57094885Y-66532142D01*
X57844885Y-66317857D02*
X57094885Y-66317857D01*
X57094885Y-66710714D02*
X57844885Y-67210714D01*
X57094885Y-67210714D02*
X57844885Y-66710714D01*
D11*
X51161914Y-61580661D02*
X51019057Y-61628280D01*
X50780961Y-61628280D01*
X50685723Y-61580661D01*
X50638104Y-61533042D01*
X50590485Y-61437804D01*
X50590485Y-61342566D01*
X50638104Y-61247328D01*
X50685723Y-61199709D01*
X50780961Y-61152090D01*
X50971438Y-61104471D01*
X51066676Y-61056852D01*
X51114295Y-61009233D01*
X51161914Y-60913995D01*
X51161914Y-60818757D01*
X51114295Y-60723519D01*
X51066676Y-60675900D01*
X50971438Y-60628280D01*
X50733342Y-60628280D01*
X50590485Y-60675900D01*
D10*
X45588685Y-66127428D02*
X45588685Y-66591714D01*
X45874400Y-66341714D01*
X45874400Y-66448857D01*
X45910114Y-66520285D01*
X45945828Y-66556000D01*
X46017257Y-66591714D01*
X46195828Y-66591714D01*
X46267257Y-66556000D01*
X46302971Y-66520285D01*
X46338685Y-66448857D01*
X46338685Y-66234571D01*
X46302971Y-66163142D01*
X46267257Y-66127428D01*
X45588685Y-66806000D02*
X46338685Y-67056000D01*
X45588685Y-67306000D01*
X45588685Y-67484571D02*
X45588685Y-67948857D01*
X45874400Y-67698857D01*
X45874400Y-67806000D01*
X45910114Y-67877428D01*
X45945828Y-67913142D01*
X46017257Y-67948857D01*
X46195828Y-67948857D01*
X46267257Y-67913142D01*
X46302971Y-67877428D01*
X46338685Y-67806000D01*
X46338685Y-67591714D01*
X46302971Y-67520285D01*
X46267257Y-67484571D01*
X67908371Y-57374285D02*
X67444085Y-57374285D01*
X67694085Y-57660000D01*
X67586942Y-57660000D01*
X67515514Y-57695714D01*
X67479800Y-57731428D01*
X67444085Y-57802857D01*
X67444085Y-57981428D01*
X67479800Y-58052857D01*
X67515514Y-58088571D01*
X67586942Y-58124285D01*
X67801228Y-58124285D01*
X67872657Y-58088571D01*
X67908371Y-58052857D01*
X67229800Y-57374285D02*
X66979800Y-58124285D01*
X66729800Y-57374285D01*
X66551228Y-57374285D02*
X66086942Y-57374285D01*
X66336942Y-57660000D01*
X66229800Y-57660000D01*
X66158371Y-57695714D01*
X66122657Y-57731428D01*
X66086942Y-57802857D01*
X66086942Y-57981428D01*
X66122657Y-58052857D01*
X66158371Y-58088571D01*
X66229800Y-58124285D01*
X66444085Y-58124285D01*
X66515514Y-58088571D01*
X66551228Y-58052857D01*
X23123400Y-55431885D02*
X23123400Y-54681885D01*
X22837685Y-54681885D01*
X22766257Y-54717600D01*
X22730542Y-54753314D01*
X22694828Y-54824742D01*
X22694828Y-54931885D01*
X22730542Y-55003314D01*
X22766257Y-55039028D01*
X22837685Y-55074742D01*
X23123400Y-55074742D01*
X22444828Y-54681885D02*
X22266257Y-55431885D01*
X22123400Y-54896171D01*
X21980542Y-55431885D01*
X21801971Y-54681885D01*
X21087685Y-55431885D02*
X21337685Y-55074742D01*
X21516257Y-55431885D02*
X21516257Y-54681885D01*
X21230542Y-54681885D01*
X21159114Y-54717600D01*
X21123400Y-54753314D01*
X21087685Y-54824742D01*
X21087685Y-54931885D01*
X21123400Y-55003314D01*
X21159114Y-55039028D01*
X21230542Y-55074742D01*
X21516257Y-55074742D01*
X67652828Y-56140000D02*
X67724257Y-56104285D01*
X67831400Y-56104285D01*
X67938542Y-56140000D01*
X68009971Y-56211428D01*
X68045685Y-56282857D01*
X68081400Y-56425714D01*
X68081400Y-56532857D01*
X68045685Y-56675714D01*
X68009971Y-56747142D01*
X67938542Y-56818571D01*
X67831400Y-56854285D01*
X67759971Y-56854285D01*
X67652828Y-56818571D01*
X67617114Y-56782857D01*
X67617114Y-56532857D01*
X67759971Y-56532857D01*
X67295685Y-56854285D02*
X67295685Y-56104285D01*
X66867114Y-56854285D01*
X66867114Y-56104285D01*
X66509971Y-56854285D02*
X66509971Y-56104285D01*
X66331400Y-56104285D01*
X66224257Y-56140000D01*
X66152828Y-56211428D01*
X66117114Y-56282857D01*
X66081400Y-56425714D01*
X66081400Y-56532857D01*
X66117114Y-56675714D01*
X66152828Y-56747142D01*
X66224257Y-56818571D01*
X66331400Y-56854285D01*
X66509971Y-56854285D01*
X67948857Y-55573971D02*
X67841714Y-55609685D01*
X67663142Y-55609685D01*
X67591714Y-55573971D01*
X67556000Y-55538257D01*
X67520285Y-55466828D01*
X67520285Y-55395400D01*
X67556000Y-55323971D01*
X67591714Y-55288257D01*
X67663142Y-55252542D01*
X67806000Y-55216828D01*
X67877428Y-55181114D01*
X67913142Y-55145400D01*
X67948857Y-55073971D01*
X67948857Y-55002542D01*
X67913142Y-54931114D01*
X67877428Y-54895400D01*
X67806000Y-54859685D01*
X67627428Y-54859685D01*
X67520285Y-54895400D01*
X66770285Y-55538257D02*
X66806000Y-55573971D01*
X66913142Y-55609685D01*
X66984571Y-55609685D01*
X67091714Y-55573971D01*
X67163142Y-55502542D01*
X67198857Y-55431114D01*
X67234571Y-55288257D01*
X67234571Y-55181114D01*
X67198857Y-55038257D01*
X67163142Y-54966828D01*
X67091714Y-54895400D01*
X66984571Y-54859685D01*
X66913142Y-54859685D01*
X66806000Y-54895400D01*
X66770285Y-54931114D01*
X66091714Y-55609685D02*
X66448857Y-55609685D01*
X66448857Y-54859685D01*
X50097885Y-66550000D02*
X49740742Y-66300000D01*
X50097885Y-66121428D02*
X49347885Y-66121428D01*
X49347885Y-66407142D01*
X49383600Y-66478571D01*
X49419314Y-66514285D01*
X49490742Y-66550000D01*
X49597885Y-66550000D01*
X49669314Y-66514285D01*
X49705028Y-66478571D01*
X49740742Y-66407142D01*
X49740742Y-66121428D01*
X49347885Y-66800000D02*
X50097885Y-67300000D01*
X49347885Y-67300000D02*
X50097885Y-66800000D01*
X22694828Y-58146600D02*
X22766257Y-58110885D01*
X22873400Y-58110885D01*
X22980542Y-58146600D01*
X23051971Y-58218028D01*
X23087685Y-58289457D01*
X23123400Y-58432314D01*
X23123400Y-58539457D01*
X23087685Y-58682314D01*
X23051971Y-58753742D01*
X22980542Y-58825171D01*
X22873400Y-58860885D01*
X22801971Y-58860885D01*
X22694828Y-58825171D01*
X22659114Y-58789457D01*
X22659114Y-58539457D01*
X22801971Y-58539457D01*
X22337685Y-58860885D02*
X22337685Y-58110885D01*
X21909114Y-58860885D01*
X21909114Y-58110885D01*
X21551971Y-58860885D02*
X21551971Y-58110885D01*
X21373400Y-58110885D01*
X21266257Y-58146600D01*
X21194828Y-58218028D01*
X21159114Y-58289457D01*
X21123400Y-58432314D01*
X21123400Y-58539457D01*
X21159114Y-58682314D01*
X21194828Y-58753742D01*
X21266257Y-58825171D01*
X21373400Y-58860885D01*
X21551971Y-58860885D01*
X54593685Y-23166800D02*
X54236542Y-22916800D01*
X54593685Y-22738228D02*
X53843685Y-22738228D01*
X53843685Y-23023942D01*
X53879400Y-23095371D01*
X53915114Y-23131085D01*
X53986542Y-23166800D01*
X54093685Y-23166800D01*
X54165114Y-23131085D01*
X54200828Y-23095371D01*
X54236542Y-23023942D01*
X54236542Y-22738228D01*
X53843685Y-23416800D02*
X54593685Y-23916800D01*
X53843685Y-23916800D02*
X54593685Y-23416800D01*
X33333885Y-21936200D02*
X32583885Y-21936200D01*
X32583885Y-22221914D01*
X32619600Y-22293342D01*
X32655314Y-22329057D01*
X32726742Y-22364771D01*
X32833885Y-22364771D01*
X32905314Y-22329057D01*
X32941028Y-22293342D01*
X32976742Y-22221914D01*
X32976742Y-21936200D01*
X32583885Y-22614771D02*
X33333885Y-22793342D01*
X32798171Y-22936200D01*
X33333885Y-23079057D01*
X32583885Y-23257628D01*
X33333885Y-23971914D02*
X32976742Y-23721914D01*
X33333885Y-23543342D02*
X32583885Y-23543342D01*
X32583885Y-23829057D01*
X32619600Y-23900485D01*
X32655314Y-23936200D01*
X32726742Y-23971914D01*
X32833885Y-23971914D01*
X32905314Y-23936200D01*
X32941028Y-23900485D01*
X32976742Y-23829057D01*
X32976742Y-23543342D01*
X59089485Y-66550000D02*
X58732342Y-66300000D01*
X59089485Y-66121428D02*
X58339485Y-66121428D01*
X58339485Y-66407142D01*
X58375200Y-66478571D01*
X58410914Y-66514285D01*
X58482342Y-66550000D01*
X58589485Y-66550000D01*
X58660914Y-66514285D01*
X58696628Y-66478571D01*
X58732342Y-66407142D01*
X58732342Y-66121428D01*
X58339485Y-66800000D02*
X59089485Y-67300000D01*
X58339485Y-67300000D02*
X59089485Y-66800000D01*
X48103285Y-66103571D02*
X48103285Y-66532142D01*
X48853285Y-66317857D02*
X48103285Y-66317857D01*
X48103285Y-66710714D02*
X48853285Y-67210714D01*
X48103285Y-67210714D02*
X48853285Y-66710714D01*
X67966714Y-54329371D02*
X67859571Y-54365085D01*
X67681000Y-54365085D01*
X67609571Y-54329371D01*
X67573857Y-54293657D01*
X67538142Y-54222228D01*
X67538142Y-54150800D01*
X67573857Y-54079371D01*
X67609571Y-54043657D01*
X67681000Y-54007942D01*
X67823857Y-53972228D01*
X67895285Y-53936514D01*
X67931000Y-53900800D01*
X67966714Y-53829371D01*
X67966714Y-53757942D01*
X67931000Y-53686514D01*
X67895285Y-53650800D01*
X67823857Y-53615085D01*
X67645285Y-53615085D01*
X67538142Y-53650800D01*
X67216714Y-54365085D02*
X67216714Y-53615085D01*
X67038142Y-53615085D01*
X66931000Y-53650800D01*
X66859571Y-53722228D01*
X66823857Y-53793657D01*
X66788142Y-53936514D01*
X66788142Y-54043657D01*
X66823857Y-54186514D01*
X66859571Y-54257942D01*
X66931000Y-54329371D01*
X67038142Y-54365085D01*
X67216714Y-54365085D01*
X66502428Y-54150800D02*
X66145285Y-54150800D01*
X66573857Y-54365085D02*
X66323857Y-53615085D01*
X66073857Y-54365085D01*
X54605685Y-66102028D02*
X54605685Y-66566314D01*
X54891400Y-66316314D01*
X54891400Y-66423457D01*
X54927114Y-66494885D01*
X54962828Y-66530600D01*
X55034257Y-66566314D01*
X55212828Y-66566314D01*
X55284257Y-66530600D01*
X55319971Y-66494885D01*
X55355685Y-66423457D01*
X55355685Y-66209171D01*
X55319971Y-66137742D01*
X55284257Y-66102028D01*
X54605685Y-66780600D02*
X55355685Y-67030600D01*
X54605685Y-67280600D01*
X54605685Y-67459171D02*
X54605685Y-67923457D01*
X54891400Y-67673457D01*
X54891400Y-67780600D01*
X54927114Y-67852028D01*
X54962828Y-67887742D01*
X55034257Y-67923457D01*
X55212828Y-67923457D01*
X55284257Y-67887742D01*
X55319971Y-67852028D01*
X55355685Y-67780600D01*
X55355685Y-67566314D01*
X55319971Y-67494885D01*
X55284257Y-67459171D01*
X55886000Y-66535371D02*
X55850285Y-66463942D01*
X55850285Y-66356800D01*
X55886000Y-66249657D01*
X55957428Y-66178228D01*
X56028857Y-66142514D01*
X56171714Y-66106800D01*
X56278857Y-66106800D01*
X56421714Y-66142514D01*
X56493142Y-66178228D01*
X56564571Y-66249657D01*
X56600285Y-66356800D01*
X56600285Y-66428228D01*
X56564571Y-66535371D01*
X56528857Y-66571085D01*
X56278857Y-66571085D01*
X56278857Y-66428228D01*
X56600285Y-66892514D02*
X55850285Y-66892514D01*
X56600285Y-67321085D01*
X55850285Y-67321085D01*
X56600285Y-67678228D02*
X55850285Y-67678228D01*
X55850285Y-67856800D01*
X55886000Y-67963942D01*
X55957428Y-68035371D01*
X56028857Y-68071085D01*
X56171714Y-68106800D01*
X56278857Y-68106800D01*
X56421714Y-68071085D01*
X56493142Y-68035371D01*
X56564571Y-67963942D01*
X56600285Y-67856800D01*
X56600285Y-67678228D01*
D11*
X24617371Y-51003152D02*
X24617371Y-50241247D01*
X24236419Y-50622200D02*
X24998323Y-50622200D01*
X22478952Y-50617428D02*
X21717047Y-50617428D01*
X56083200Y-56603900D02*
X57099200Y-56603900D01*
X50241200Y-56095900D02*
X47701200Y-56095900D01*
X58115200Y-57619900D02*
X57861200Y-57365900D01*
X51511200Y-56095900D02*
X51511200Y-58635900D01*
X54178200Y-57365900D02*
X54432200Y-57111900D01*
X50241200Y-58635900D02*
X50241200Y-57365900D01*
X50368200Y-57365900D02*
X50622200Y-57111900D01*
X49225200Y-61429900D02*
X49479200Y-61175900D01*
X49225200Y-60921900D02*
X49225200Y-61429900D01*
X50622200Y-57111900D02*
X50622200Y-57619900D01*
X57861200Y-57365900D02*
X58115200Y-57111900D01*
X54432200Y-57111900D02*
X54432200Y-57619900D01*
X57789316Y-57365900D02*
G75*
G03X57789316Y-57365900I-1198116J0D01*
G01*
X56591200Y-61175900D02*
X56591200Y-58564015D01*
X52146200Y-61175900D02*
X56591200Y-61175900D01*
X50241200Y-57365900D02*
X50241200Y-56095900D01*
X45161200Y-57365900D02*
X47701200Y-57365900D01*
X52146200Y-62445900D02*
X49606200Y-62445900D01*
X51511200Y-57365900D02*
X50241200Y-57365900D01*
X49479200Y-61175900D02*
X49225200Y-60921900D01*
X46431200Y-57365900D02*
X46431200Y-61175900D01*
X56337200Y-58889900D02*
X56845200Y-58889900D01*
X55393085Y-57365900D02*
X54051200Y-57365900D01*
X56591200Y-58635900D02*
X56337200Y-58889900D01*
X49606200Y-61175900D02*
X49606200Y-59905900D01*
X54051200Y-58635900D02*
X54051200Y-57365900D01*
X54051200Y-56095900D02*
X51511200Y-56095900D01*
X47701200Y-58635900D02*
X50241200Y-58635900D01*
X51511200Y-58635900D02*
X54051200Y-58635900D01*
X54051200Y-57365900D02*
X54051200Y-56095900D01*
X52146200Y-59905900D02*
X52146200Y-62445900D01*
X56464200Y-57365900D02*
X57099200Y-58127900D01*
X58115200Y-57111900D02*
X58115200Y-57619900D01*
X46431200Y-61175900D02*
X49606200Y-61175900D01*
X49606200Y-62445900D02*
X49606200Y-61175900D01*
X50622200Y-57619900D02*
X50368200Y-57365900D01*
X49606200Y-59905900D02*
X52146200Y-59905900D01*
X57099200Y-58127900D02*
X56083200Y-58127900D01*
X59867800Y-57378600D02*
X58140600Y-57378600D01*
X57353200Y-58889900D02*
X57734200Y-58889900D01*
X54432200Y-57619900D02*
X54178200Y-57365900D01*
X47701200Y-56095900D02*
X47701200Y-58635900D01*
X56845200Y-58889900D02*
X56591200Y-58635900D01*
X57099200Y-56603900D02*
X56464200Y-57365900D01*
D10*
X49264457Y-22418342D02*
X49300171Y-22382628D01*
X49335885Y-22275485D01*
X49335885Y-22204057D01*
X49300171Y-22096914D01*
X49228742Y-22025485D01*
X49157314Y-21989771D01*
X49014457Y-21954057D01*
X48907314Y-21954057D01*
X48764457Y-21989771D01*
X48693028Y-22025485D01*
X48621600Y-22096914D01*
X48585885Y-22204057D01*
X48585885Y-22275485D01*
X48621600Y-22382628D01*
X48657314Y-22418342D01*
X49335885Y-22739771D02*
X48585885Y-22739771D01*
X48943028Y-22739771D02*
X48943028Y-23168342D01*
X49335885Y-23168342D02*
X48585885Y-23168342D01*
X49335885Y-23918342D02*
X49335885Y-23489771D01*
X49335885Y-23704057D02*
X48585885Y-23704057D01*
X48693028Y-23632628D01*
X48764457Y-23561200D01*
X48800171Y-23489771D01*
X46749857Y-22418342D02*
X46785571Y-22382628D01*
X46821285Y-22275485D01*
X46821285Y-22204057D01*
X46785571Y-22096914D01*
X46714142Y-22025485D01*
X46642714Y-21989771D01*
X46499857Y-21954057D01*
X46392714Y-21954057D01*
X46249857Y-21989771D01*
X46178428Y-22025485D01*
X46107000Y-22096914D01*
X46071285Y-22204057D01*
X46071285Y-22275485D01*
X46107000Y-22382628D01*
X46142714Y-22418342D01*
X46821285Y-22739771D02*
X46071285Y-22739771D01*
X46428428Y-22739771D02*
X46428428Y-23168342D01*
X46821285Y-23168342D02*
X46071285Y-23168342D01*
X46071285Y-23454057D02*
X46071285Y-23918342D01*
X46357000Y-23668342D01*
X46357000Y-23775485D01*
X46392714Y-23846914D01*
X46428428Y-23882628D01*
X46499857Y-23918342D01*
X46678428Y-23918342D01*
X46749857Y-23882628D01*
X46785571Y-23846914D01*
X46821285Y-23775485D01*
X46821285Y-23561200D01*
X46785571Y-23489771D01*
X46749857Y-23454057D01*
X66974933Y-28521790D02*
X67260647Y-28521790D01*
X67117790Y-28521790D02*
X67117790Y-28021790D01*
X67165409Y-28093219D01*
X67213028Y-28140838D01*
X67260647Y-28164647D01*
X66784457Y-28069409D02*
X66760647Y-28045600D01*
X66713028Y-28021790D01*
X66593980Y-28021790D01*
X66546361Y-28045600D01*
X66522552Y-28069409D01*
X66498742Y-28117028D01*
X66498742Y-28164647D01*
X66522552Y-28236076D01*
X66808266Y-28521790D01*
X66498742Y-28521790D01*
X65927314Y-27997980D02*
X66355885Y-28640838D01*
X65498742Y-28521790D02*
X65784457Y-28521790D01*
X65641600Y-28521790D02*
X65641600Y-28021790D01*
X65689219Y-28093219D01*
X65736838Y-28140838D01*
X65784457Y-28164647D01*
X65260647Y-28521790D02*
X65165409Y-28521790D01*
X65117790Y-28497980D01*
X65093980Y-28474171D01*
X65046361Y-28402742D01*
X65022552Y-28307504D01*
X65022552Y-28117028D01*
X65046361Y-28069409D01*
X65070171Y-28045600D01*
X65117790Y-28021790D01*
X65213028Y-28021790D01*
X65260647Y-28045600D01*
X65284457Y-28069409D01*
X65308266Y-28117028D01*
X65308266Y-28236076D01*
X65284457Y-28283695D01*
X65260647Y-28307504D01*
X65213028Y-28331314D01*
X65117790Y-28331314D01*
X65070171Y-28307504D01*
X65046361Y-28283695D01*
X65022552Y-28236076D01*
X45505257Y-22418342D02*
X45540971Y-22382628D01*
X45576685Y-22275485D01*
X45576685Y-22204057D01*
X45540971Y-22096914D01*
X45469542Y-22025485D01*
X45398114Y-21989771D01*
X45255257Y-21954057D01*
X45148114Y-21954057D01*
X45005257Y-21989771D01*
X44933828Y-22025485D01*
X44862400Y-22096914D01*
X44826685Y-22204057D01*
X44826685Y-22275485D01*
X44862400Y-22382628D01*
X44898114Y-22418342D01*
X45576685Y-22739771D02*
X44826685Y-22739771D01*
X45183828Y-22739771D02*
X45183828Y-23168342D01*
X45576685Y-23168342D02*
X44826685Y-23168342D01*
X45076685Y-23846914D02*
X45576685Y-23846914D01*
X44790971Y-23668342D02*
X45326685Y-23489771D01*
X45326685Y-23954057D01*
D11*
X27463714Y-51077761D02*
X27320857Y-51125380D01*
X27082761Y-51125380D01*
X26987523Y-51077761D01*
X26939904Y-51030142D01*
X26892285Y-50934904D01*
X26892285Y-50839666D01*
X26939904Y-50744428D01*
X26987523Y-50696809D01*
X27082761Y-50649190D01*
X27273238Y-50601571D01*
X27368476Y-50553952D01*
X27416095Y-50506333D01*
X27463714Y-50411095D01*
X27463714Y-50315857D01*
X27416095Y-50220619D01*
X27368476Y-50173000D01*
X27273238Y-50125380D01*
X27035142Y-50125380D01*
X26892285Y-50173000D01*
D10*
X47994457Y-22418342D02*
X48030171Y-22382628D01*
X48065885Y-22275485D01*
X48065885Y-22204057D01*
X48030171Y-22096914D01*
X47958742Y-22025485D01*
X47887314Y-21989771D01*
X47744457Y-21954057D01*
X47637314Y-21954057D01*
X47494457Y-21989771D01*
X47423028Y-22025485D01*
X47351600Y-22096914D01*
X47315885Y-22204057D01*
X47315885Y-22275485D01*
X47351600Y-22382628D01*
X47387314Y-22418342D01*
X48065885Y-22739771D02*
X47315885Y-22739771D01*
X47673028Y-22739771D02*
X47673028Y-23168342D01*
X48065885Y-23168342D02*
X47315885Y-23168342D01*
X47387314Y-23489771D02*
X47351600Y-23525485D01*
X47315885Y-23596914D01*
X47315885Y-23775485D01*
X47351600Y-23846914D01*
X47387314Y-23882628D01*
X47458742Y-23918342D01*
X47530171Y-23918342D01*
X47637314Y-23882628D01*
X48065885Y-23454057D01*
X48065885Y-23918342D01*
M02*
