G04 #@! TF.GenerationSoftware,KiCad,Pcbnew,(5.1.5)-3*
G04 #@! TF.CreationDate,2019-12-11T14:27:37+01:00*
G04 #@! TF.ProjectId,HadesMicro,48616465-734d-4696-9372-6f2e6b696361,rev?*
G04 #@! TF.SameCoordinates,Original*
G04 #@! TF.FileFunction,Legend,Bot*
G04 #@! TF.FilePolarity,Positive*
%FSLAX46Y46*%
G04 Gerber Fmt 4.6, Leading zero omitted, Abs format (unit mm)*
G04 Created by KiCad (PCBNEW (5.1.5)-3) date 2019-12-11 14:27:37*
%MOMM*%
%LPD*%
G04 APERTURE LIST*
%ADD10C,0.150000*%
%ADD11C,0.100000*%
G04 APERTURE END LIST*
D10*
X22923452Y-50363428D02*
X22161547Y-50363428D01*
X25011071Y-50672952D02*
X25011071Y-49911047D01*
X24630119Y-50292000D02*
X25392023Y-50292000D01*
X27819314Y-50696761D02*
X27676457Y-50744380D01*
X27438361Y-50744380D01*
X27343123Y-50696761D01*
X27295504Y-50649142D01*
X27247885Y-50553904D01*
X27247885Y-50458666D01*
X27295504Y-50363428D01*
X27343123Y-50315809D01*
X27438361Y-50268190D01*
X27628838Y-50220571D01*
X27724076Y-50172952D01*
X27771695Y-50125333D01*
X27819314Y-50030095D01*
X27819314Y-49934857D01*
X27771695Y-49839619D01*
X27724076Y-49792000D01*
X27628838Y-49744380D01*
X27390742Y-49744380D01*
X27247885Y-49792000D01*
D11*
X67076533Y-28572590D02*
X67362247Y-28572590D01*
X67219390Y-28572590D02*
X67219390Y-28072590D01*
X67267009Y-28144019D01*
X67314628Y-28191638D01*
X67362247Y-28215447D01*
X66886057Y-28120209D02*
X66862247Y-28096400D01*
X66814628Y-28072590D01*
X66695580Y-28072590D01*
X66647961Y-28096400D01*
X66624152Y-28120209D01*
X66600342Y-28167828D01*
X66600342Y-28215447D01*
X66624152Y-28286876D01*
X66909866Y-28572590D01*
X66600342Y-28572590D01*
X66028914Y-28048780D02*
X66457485Y-28691638D01*
X65600342Y-28572590D02*
X65886057Y-28572590D01*
X65743200Y-28572590D02*
X65743200Y-28072590D01*
X65790819Y-28144019D01*
X65838438Y-28191638D01*
X65886057Y-28215447D01*
X65362247Y-28572590D02*
X65267009Y-28572590D01*
X65219390Y-28548780D01*
X65195580Y-28524971D01*
X65147961Y-28453542D01*
X65124152Y-28358304D01*
X65124152Y-28167828D01*
X65147961Y-28120209D01*
X65171771Y-28096400D01*
X65219390Y-28072590D01*
X65314628Y-28072590D01*
X65362247Y-28096400D01*
X65386057Y-28120209D01*
X65409866Y-28167828D01*
X65409866Y-28286876D01*
X65386057Y-28334495D01*
X65362247Y-28358304D01*
X65314628Y-28382114D01*
X65219390Y-28382114D01*
X65171771Y-28358304D01*
X65147961Y-28334495D01*
X65124152Y-28286876D01*
X46800657Y-22469142D02*
X46836371Y-22433428D01*
X46872085Y-22326285D01*
X46872085Y-22254857D01*
X46836371Y-22147714D01*
X46764942Y-22076285D01*
X46693514Y-22040571D01*
X46550657Y-22004857D01*
X46443514Y-22004857D01*
X46300657Y-22040571D01*
X46229228Y-22076285D01*
X46157800Y-22147714D01*
X46122085Y-22254857D01*
X46122085Y-22326285D01*
X46157800Y-22433428D01*
X46193514Y-22469142D01*
X46872085Y-22790571D02*
X46122085Y-22790571D01*
X46479228Y-22790571D02*
X46479228Y-23219142D01*
X46872085Y-23219142D02*
X46122085Y-23219142D01*
X46372085Y-23897714D02*
X46872085Y-23897714D01*
X46086371Y-23719142D02*
X46622085Y-23540571D01*
X46622085Y-24004857D01*
X48045257Y-22469142D02*
X48080971Y-22433428D01*
X48116685Y-22326285D01*
X48116685Y-22254857D01*
X48080971Y-22147714D01*
X48009542Y-22076285D01*
X47938114Y-22040571D01*
X47795257Y-22004857D01*
X47688114Y-22004857D01*
X47545257Y-22040571D01*
X47473828Y-22076285D01*
X47402400Y-22147714D01*
X47366685Y-22254857D01*
X47366685Y-22326285D01*
X47402400Y-22433428D01*
X47438114Y-22469142D01*
X48116685Y-22790571D02*
X47366685Y-22790571D01*
X47723828Y-22790571D02*
X47723828Y-23219142D01*
X48116685Y-23219142D02*
X47366685Y-23219142D01*
X47366685Y-23504857D02*
X47366685Y-23969142D01*
X47652400Y-23719142D01*
X47652400Y-23826285D01*
X47688114Y-23897714D01*
X47723828Y-23933428D01*
X47795257Y-23969142D01*
X47973828Y-23969142D01*
X48045257Y-23933428D01*
X48080971Y-23897714D01*
X48116685Y-23826285D01*
X48116685Y-23612000D01*
X48080971Y-23540571D01*
X48045257Y-23504857D01*
X49289857Y-22469142D02*
X49325571Y-22433428D01*
X49361285Y-22326285D01*
X49361285Y-22254857D01*
X49325571Y-22147714D01*
X49254142Y-22076285D01*
X49182714Y-22040571D01*
X49039857Y-22004857D01*
X48932714Y-22004857D01*
X48789857Y-22040571D01*
X48718428Y-22076285D01*
X48647000Y-22147714D01*
X48611285Y-22254857D01*
X48611285Y-22326285D01*
X48647000Y-22433428D01*
X48682714Y-22469142D01*
X49361285Y-22790571D02*
X48611285Y-22790571D01*
X48968428Y-22790571D02*
X48968428Y-23219142D01*
X49361285Y-23219142D02*
X48611285Y-23219142D01*
X48682714Y-23540571D02*
X48647000Y-23576285D01*
X48611285Y-23647714D01*
X48611285Y-23826285D01*
X48647000Y-23897714D01*
X48682714Y-23933428D01*
X48754142Y-23969142D01*
X48825571Y-23969142D01*
X48932714Y-23933428D01*
X49361285Y-23504857D01*
X49361285Y-23969142D01*
X50559857Y-22469142D02*
X50595571Y-22433428D01*
X50631285Y-22326285D01*
X50631285Y-22254857D01*
X50595571Y-22147714D01*
X50524142Y-22076285D01*
X50452714Y-22040571D01*
X50309857Y-22004857D01*
X50202714Y-22004857D01*
X50059857Y-22040571D01*
X49988428Y-22076285D01*
X49917000Y-22147714D01*
X49881285Y-22254857D01*
X49881285Y-22326285D01*
X49917000Y-22433428D01*
X49952714Y-22469142D01*
X50631285Y-22790571D02*
X49881285Y-22790571D01*
X50238428Y-22790571D02*
X50238428Y-23219142D01*
X50631285Y-23219142D02*
X49881285Y-23219142D01*
X50631285Y-23969142D02*
X50631285Y-23540571D01*
X50631285Y-23754857D02*
X49881285Y-23754857D01*
X49988428Y-23683428D01*
X50059857Y-23612000D01*
X50095571Y-23540571D01*
X56016085Y-23204900D02*
X55658942Y-22954900D01*
X56016085Y-22776328D02*
X55266085Y-22776328D01*
X55266085Y-23062042D01*
X55301800Y-23133471D01*
X55337514Y-23169185D01*
X55408942Y-23204900D01*
X55516085Y-23204900D01*
X55587514Y-23169185D01*
X55623228Y-23133471D01*
X55658942Y-23062042D01*
X55658942Y-22776328D01*
X55266085Y-23454900D02*
X56016085Y-23954900D01*
X55266085Y-23954900D02*
X56016085Y-23454900D01*
X56536085Y-22847371D02*
X56536085Y-23275942D01*
X57286085Y-23061657D02*
X56536085Y-23061657D01*
X56536085Y-23454514D02*
X57286085Y-23954514D01*
X56536085Y-23954514D02*
X57286085Y-23454514D01*
X59025285Y-22058428D02*
X59025285Y-22522714D01*
X59311000Y-22272714D01*
X59311000Y-22379857D01*
X59346714Y-22451285D01*
X59382428Y-22487000D01*
X59453857Y-22522714D01*
X59632428Y-22522714D01*
X59703857Y-22487000D01*
X59739571Y-22451285D01*
X59775285Y-22379857D01*
X59775285Y-22165571D01*
X59739571Y-22094142D01*
X59703857Y-22058428D01*
X59025285Y-22737000D02*
X59775285Y-22987000D01*
X59025285Y-23237000D01*
X59025285Y-23415571D02*
X59025285Y-23879857D01*
X59311000Y-23629857D01*
X59311000Y-23737000D01*
X59346714Y-23808428D01*
X59382428Y-23844142D01*
X59453857Y-23879857D01*
X59632428Y-23879857D01*
X59703857Y-23844142D01*
X59739571Y-23808428D01*
X59775285Y-23737000D01*
X59775285Y-23522714D01*
X59739571Y-23451285D01*
X59703857Y-23415571D01*
X57791000Y-22415571D02*
X57755285Y-22344142D01*
X57755285Y-22237000D01*
X57791000Y-22129857D01*
X57862428Y-22058428D01*
X57933857Y-22022714D01*
X58076714Y-21987000D01*
X58183857Y-21987000D01*
X58326714Y-22022714D01*
X58398142Y-22058428D01*
X58469571Y-22129857D01*
X58505285Y-22237000D01*
X58505285Y-22308428D01*
X58469571Y-22415571D01*
X58433857Y-22451285D01*
X58183857Y-22451285D01*
X58183857Y-22308428D01*
X58505285Y-22772714D02*
X57755285Y-22772714D01*
X58505285Y-23201285D01*
X57755285Y-23201285D01*
X58505285Y-23558428D02*
X57755285Y-23558428D01*
X57755285Y-23737000D01*
X57791000Y-23844142D01*
X57862428Y-23915571D01*
X57933857Y-23951285D01*
X58076714Y-23987000D01*
X58183857Y-23987000D01*
X58326714Y-23951285D01*
X58398142Y-23915571D01*
X58469571Y-23844142D01*
X58505285Y-23737000D01*
X58505285Y-23558428D01*
X29978000Y-22415571D02*
X29942285Y-22344142D01*
X29942285Y-22237000D01*
X29978000Y-22129857D01*
X30049428Y-22058428D01*
X30120857Y-22022714D01*
X30263714Y-21987000D01*
X30370857Y-21987000D01*
X30513714Y-22022714D01*
X30585142Y-22058428D01*
X30656571Y-22129857D01*
X30692285Y-22237000D01*
X30692285Y-22308428D01*
X30656571Y-22415571D01*
X30620857Y-22451285D01*
X30370857Y-22451285D01*
X30370857Y-22308428D01*
X30692285Y-22772714D02*
X29942285Y-22772714D01*
X30692285Y-23201285D01*
X29942285Y-23201285D01*
X30692285Y-23558428D02*
X29942285Y-23558428D01*
X29942285Y-23737000D01*
X29978000Y-23844142D01*
X30049428Y-23915571D01*
X30120857Y-23951285D01*
X30263714Y-23987000D01*
X30370857Y-23987000D01*
X30513714Y-23951285D01*
X30585142Y-23915571D01*
X30656571Y-23844142D01*
X30692285Y-23737000D01*
X30692285Y-23558428D01*
X31962285Y-21987000D02*
X31212285Y-21987000D01*
X31212285Y-22272714D01*
X31248000Y-22344142D01*
X31283714Y-22379857D01*
X31355142Y-22415571D01*
X31462285Y-22415571D01*
X31533714Y-22379857D01*
X31569428Y-22344142D01*
X31605142Y-22272714D01*
X31605142Y-21987000D01*
X31212285Y-22665571D02*
X31962285Y-22844142D01*
X31426571Y-22987000D01*
X31962285Y-23129857D01*
X31212285Y-23308428D01*
X31962285Y-24022714D02*
X31605142Y-23772714D01*
X31962285Y-23594142D02*
X31212285Y-23594142D01*
X31212285Y-23879857D01*
X31248000Y-23951285D01*
X31283714Y-23987000D01*
X31355142Y-24022714D01*
X31462285Y-24022714D01*
X31533714Y-23987000D01*
X31569428Y-23951285D01*
X31605142Y-23879857D01*
X31605142Y-23594142D01*
X23050428Y-58299000D02*
X23121857Y-58263285D01*
X23229000Y-58263285D01*
X23336142Y-58299000D01*
X23407571Y-58370428D01*
X23443285Y-58441857D01*
X23479000Y-58584714D01*
X23479000Y-58691857D01*
X23443285Y-58834714D01*
X23407571Y-58906142D01*
X23336142Y-58977571D01*
X23229000Y-59013285D01*
X23157571Y-59013285D01*
X23050428Y-58977571D01*
X23014714Y-58941857D01*
X23014714Y-58691857D01*
X23157571Y-58691857D01*
X22693285Y-59013285D02*
X22693285Y-58263285D01*
X22264714Y-59013285D01*
X22264714Y-58263285D01*
X21907571Y-59013285D02*
X21907571Y-58263285D01*
X21729000Y-58263285D01*
X21621857Y-58299000D01*
X21550428Y-58370428D01*
X21514714Y-58441857D01*
X21479000Y-58584714D01*
X21479000Y-58691857D01*
X21514714Y-58834714D01*
X21550428Y-58906142D01*
X21621857Y-58977571D01*
X21729000Y-59013285D01*
X21907571Y-59013285D01*
X23479000Y-55584285D02*
X23479000Y-54834285D01*
X23193285Y-54834285D01*
X23121857Y-54870000D01*
X23086142Y-54905714D01*
X23050428Y-54977142D01*
X23050428Y-55084285D01*
X23086142Y-55155714D01*
X23121857Y-55191428D01*
X23193285Y-55227142D01*
X23479000Y-55227142D01*
X22800428Y-54834285D02*
X22621857Y-55584285D01*
X22479000Y-55048571D01*
X22336142Y-55584285D01*
X22157571Y-54834285D01*
X21443285Y-55584285D02*
X21693285Y-55227142D01*
X21871857Y-55584285D02*
X21871857Y-54834285D01*
X21586142Y-54834285D01*
X21514714Y-54870000D01*
X21479000Y-54905714D01*
X21443285Y-54977142D01*
X21443285Y-55084285D01*
X21479000Y-55155714D01*
X21514714Y-55191428D01*
X21586142Y-55227142D01*
X21871857Y-55227142D01*
X67814314Y-55294571D02*
X67707171Y-55330285D01*
X67528600Y-55330285D01*
X67457171Y-55294571D01*
X67421457Y-55258857D01*
X67385742Y-55187428D01*
X67385742Y-55116000D01*
X67421457Y-55044571D01*
X67457171Y-55008857D01*
X67528600Y-54973142D01*
X67671457Y-54937428D01*
X67742885Y-54901714D01*
X67778600Y-54866000D01*
X67814314Y-54794571D01*
X67814314Y-54723142D01*
X67778600Y-54651714D01*
X67742885Y-54616000D01*
X67671457Y-54580285D01*
X67492885Y-54580285D01*
X67385742Y-54616000D01*
X67064314Y-55330285D02*
X67064314Y-54580285D01*
X66885742Y-54580285D01*
X66778600Y-54616000D01*
X66707171Y-54687428D01*
X66671457Y-54758857D01*
X66635742Y-54901714D01*
X66635742Y-55008857D01*
X66671457Y-55151714D01*
X66707171Y-55223142D01*
X66778600Y-55294571D01*
X66885742Y-55330285D01*
X67064314Y-55330285D01*
X66350028Y-55116000D02*
X65992885Y-55116000D01*
X66421457Y-55330285D02*
X66171457Y-54580285D01*
X65921457Y-55330285D01*
X67771057Y-56437571D02*
X67663914Y-56473285D01*
X67485342Y-56473285D01*
X67413914Y-56437571D01*
X67378200Y-56401857D01*
X67342485Y-56330428D01*
X67342485Y-56259000D01*
X67378200Y-56187571D01*
X67413914Y-56151857D01*
X67485342Y-56116142D01*
X67628200Y-56080428D01*
X67699628Y-56044714D01*
X67735342Y-56009000D01*
X67771057Y-55937571D01*
X67771057Y-55866142D01*
X67735342Y-55794714D01*
X67699628Y-55759000D01*
X67628200Y-55723285D01*
X67449628Y-55723285D01*
X67342485Y-55759000D01*
X66592485Y-56401857D02*
X66628200Y-56437571D01*
X66735342Y-56473285D01*
X66806771Y-56473285D01*
X66913914Y-56437571D01*
X66985342Y-56366142D01*
X67021057Y-56294714D01*
X67056771Y-56151857D01*
X67056771Y-56044714D01*
X67021057Y-55901857D01*
X66985342Y-55830428D01*
X66913914Y-55759000D01*
X66806771Y-55723285D01*
X66735342Y-55723285D01*
X66628200Y-55759000D01*
X66592485Y-55794714D01*
X65913914Y-56473285D02*
X66271057Y-56473285D01*
X66271057Y-55723285D01*
X67424228Y-57029000D02*
X67495657Y-56993285D01*
X67602800Y-56993285D01*
X67709942Y-57029000D01*
X67781371Y-57100428D01*
X67817085Y-57171857D01*
X67852800Y-57314714D01*
X67852800Y-57421857D01*
X67817085Y-57564714D01*
X67781371Y-57636142D01*
X67709942Y-57707571D01*
X67602800Y-57743285D01*
X67531371Y-57743285D01*
X67424228Y-57707571D01*
X67388514Y-57671857D01*
X67388514Y-57421857D01*
X67531371Y-57421857D01*
X67067085Y-57743285D02*
X67067085Y-56993285D01*
X66638514Y-57743285D01*
X66638514Y-56993285D01*
X66281371Y-57743285D02*
X66281371Y-56993285D01*
X66102800Y-56993285D01*
X65995657Y-57029000D01*
X65924228Y-57100428D01*
X65888514Y-57171857D01*
X65852800Y-57314714D01*
X65852800Y-57421857D01*
X65888514Y-57564714D01*
X65924228Y-57636142D01*
X65995657Y-57707571D01*
X66102800Y-57743285D01*
X66281371Y-57743285D01*
X67730571Y-58263285D02*
X67266285Y-58263285D01*
X67516285Y-58549000D01*
X67409142Y-58549000D01*
X67337714Y-58584714D01*
X67302000Y-58620428D01*
X67266285Y-58691857D01*
X67266285Y-58870428D01*
X67302000Y-58941857D01*
X67337714Y-58977571D01*
X67409142Y-59013285D01*
X67623428Y-59013285D01*
X67694857Y-58977571D01*
X67730571Y-58941857D01*
X67052000Y-58263285D02*
X66802000Y-59013285D01*
X66552000Y-58263285D01*
X66373428Y-58263285D02*
X65909142Y-58263285D01*
X66159142Y-58549000D01*
X66052000Y-58549000D01*
X65980571Y-58584714D01*
X65944857Y-58620428D01*
X65909142Y-58691857D01*
X65909142Y-58870428D01*
X65944857Y-58941857D01*
X65980571Y-58977571D01*
X66052000Y-59013285D01*
X66266285Y-59013285D01*
X66337714Y-58977571D01*
X66373428Y-58941857D01*
X48560485Y-65849571D02*
X48560485Y-66278142D01*
X49310485Y-66063857D02*
X48560485Y-66063857D01*
X48560485Y-66456714D02*
X49310485Y-66956714D01*
X48560485Y-66956714D02*
X49310485Y-66456714D01*
X46071285Y-65873428D02*
X46071285Y-66337714D01*
X46357000Y-66087714D01*
X46357000Y-66194857D01*
X46392714Y-66266285D01*
X46428428Y-66302000D01*
X46499857Y-66337714D01*
X46678428Y-66337714D01*
X46749857Y-66302000D01*
X46785571Y-66266285D01*
X46821285Y-66194857D01*
X46821285Y-65980571D01*
X46785571Y-65909142D01*
X46749857Y-65873428D01*
X46071285Y-66552000D02*
X46821285Y-66802000D01*
X46071285Y-67052000D01*
X46071285Y-67230571D02*
X46071285Y-67694857D01*
X46357000Y-67444857D01*
X46357000Y-67552000D01*
X46392714Y-67623428D01*
X46428428Y-67659142D01*
X46499857Y-67694857D01*
X46678428Y-67694857D01*
X46749857Y-67659142D01*
X46785571Y-67623428D01*
X46821285Y-67552000D01*
X46821285Y-67337714D01*
X46785571Y-67266285D01*
X46749857Y-67230571D01*
X47351600Y-66230571D02*
X47315885Y-66159142D01*
X47315885Y-66052000D01*
X47351600Y-65944857D01*
X47423028Y-65873428D01*
X47494457Y-65837714D01*
X47637314Y-65802000D01*
X47744457Y-65802000D01*
X47887314Y-65837714D01*
X47958742Y-65873428D01*
X48030171Y-65944857D01*
X48065885Y-66052000D01*
X48065885Y-66123428D01*
X48030171Y-66230571D01*
X47994457Y-66266285D01*
X47744457Y-66266285D01*
X47744457Y-66123428D01*
X48065885Y-66587714D02*
X47315885Y-66587714D01*
X48065885Y-67016285D01*
X47315885Y-67016285D01*
X48065885Y-67373428D02*
X47315885Y-67373428D01*
X47315885Y-67552000D01*
X47351600Y-67659142D01*
X47423028Y-67730571D01*
X47494457Y-67766285D01*
X47637314Y-67802000D01*
X47744457Y-67802000D01*
X47887314Y-67766285D01*
X47958742Y-67730571D01*
X48030171Y-67659142D01*
X48065885Y-67552000D01*
X48065885Y-67373428D01*
X50555085Y-66296000D02*
X50197942Y-66046000D01*
X50555085Y-65867428D02*
X49805085Y-65867428D01*
X49805085Y-66153142D01*
X49840800Y-66224571D01*
X49876514Y-66260285D01*
X49947942Y-66296000D01*
X50055085Y-66296000D01*
X50126514Y-66260285D01*
X50162228Y-66224571D01*
X50197942Y-66153142D01*
X50197942Y-65867428D01*
X49805085Y-66546000D02*
X50555085Y-67046000D01*
X49805085Y-67046000D02*
X50555085Y-66546000D01*
D10*
X31702333Y-62009280D02*
X31702333Y-61009280D01*
X31369000Y-61723566D01*
X31035666Y-61009280D01*
X31035666Y-62009280D01*
X33559714Y-65771661D02*
X33416857Y-65819280D01*
X33178761Y-65819280D01*
X33083523Y-65771661D01*
X33035904Y-65724042D01*
X32988285Y-65628804D01*
X32988285Y-65533566D01*
X33035904Y-65438328D01*
X33083523Y-65390709D01*
X33178761Y-65343090D01*
X33369238Y-65295471D01*
X33464476Y-65247852D01*
X33512095Y-65200233D01*
X33559714Y-65104995D01*
X33559714Y-65009757D01*
X33512095Y-64914519D01*
X33464476Y-64866900D01*
X33369238Y-64819280D01*
X33131142Y-64819280D01*
X32988285Y-64866900D01*
X35440904Y-62009280D02*
X35440904Y-61009280D01*
X35059952Y-61009280D01*
X34964714Y-61056900D01*
X34917095Y-61104519D01*
X34869476Y-61199757D01*
X34869476Y-61342614D01*
X34917095Y-61437852D01*
X34964714Y-61485471D01*
X35059952Y-61533090D01*
X35440904Y-61533090D01*
X68314914Y-41330348D02*
X69314914Y-41205348D01*
X68362533Y-41324395D02*
X68314914Y-41425586D01*
X68314914Y-41616062D01*
X68362533Y-41705348D01*
X68410152Y-41747014D01*
X68505390Y-41782729D01*
X68791104Y-41747014D01*
X68886342Y-41687491D01*
X68933961Y-41633919D01*
X68981580Y-41532729D01*
X68981580Y-41342252D01*
X68933961Y-41252967D01*
X68981580Y-42151776D02*
X67981580Y-42276776D01*
X68981580Y-42580348D02*
X68457771Y-42645824D01*
X68362533Y-42610110D01*
X68314914Y-42520824D01*
X68314914Y-42377967D01*
X68362533Y-42276776D01*
X68410152Y-42223205D01*
X68981580Y-43056538D02*
X68314914Y-43139872D01*
X67981580Y-43181538D02*
X68029200Y-43127967D01*
X68076819Y-43169633D01*
X68029200Y-43223205D01*
X67981580Y-43181538D01*
X68076819Y-43169633D01*
X68981580Y-43675586D02*
X68933961Y-43586300D01*
X68838723Y-43550586D01*
X67981580Y-43657729D01*
X68933961Y-44014872D02*
X68981580Y-44104157D01*
X68981580Y-44294633D01*
X68933961Y-44395824D01*
X68838723Y-44455348D01*
X68791104Y-44461300D01*
X68695866Y-44425586D01*
X68648247Y-44336300D01*
X68648247Y-44193443D01*
X68600628Y-44104157D01*
X68505390Y-44068443D01*
X68457771Y-44074395D01*
X68362533Y-44133919D01*
X68314914Y-44235110D01*
X68314914Y-44377967D01*
X68362533Y-44467252D01*
X68981580Y-45294633D02*
X68457771Y-45360110D01*
X68362533Y-45324395D01*
X68314914Y-45235110D01*
X68314914Y-45044633D01*
X68362533Y-44943443D01*
X68933961Y-45300586D02*
X68981580Y-45199395D01*
X68981580Y-44961300D01*
X68933961Y-44872014D01*
X68838723Y-44836300D01*
X68743485Y-44848205D01*
X68648247Y-44907729D01*
X68600628Y-45008919D01*
X68600628Y-45247014D01*
X68553009Y-45348205D01*
X68981580Y-45913681D02*
X68933961Y-45824395D01*
X68838723Y-45788681D01*
X67981580Y-45895824D01*
X68886342Y-46306538D02*
X68933961Y-46348205D01*
X68981580Y-46294633D01*
X68933961Y-46252967D01*
X68886342Y-46306538D01*
X68981580Y-46294633D01*
X68933961Y-47205348D02*
X68981580Y-47104157D01*
X68981580Y-46913681D01*
X68933961Y-46824395D01*
X68886342Y-46782729D01*
X68791104Y-46747014D01*
X68505390Y-46782729D01*
X68410152Y-46842252D01*
X68362533Y-46895824D01*
X68314914Y-46997014D01*
X68314914Y-47187491D01*
X68362533Y-47276776D01*
X68981580Y-47770824D02*
X68933961Y-47681538D01*
X68886342Y-47639872D01*
X68791104Y-47604157D01*
X68505390Y-47639872D01*
X68410152Y-47699395D01*
X68362533Y-47752967D01*
X68314914Y-47854157D01*
X68314914Y-47997014D01*
X68362533Y-48086300D01*
X68410152Y-48127967D01*
X68505390Y-48163681D01*
X68791104Y-48127967D01*
X68886342Y-48068443D01*
X68933961Y-48014872D01*
X68981580Y-47913681D01*
X68981580Y-47770824D01*
X68886342Y-48544633D02*
X68933961Y-48586300D01*
X68981580Y-48532729D01*
X68933961Y-48491062D01*
X68886342Y-48544633D01*
X68981580Y-48532729D01*
X68314914Y-49520824D02*
X68981580Y-49437491D01*
X68314914Y-49092252D02*
X68838723Y-49026776D01*
X68933961Y-49062491D01*
X68981580Y-49151776D01*
X68981580Y-49294633D01*
X68933961Y-49395824D01*
X68886342Y-49449395D01*
X68981580Y-49913681D02*
X67981580Y-50038681D01*
X68600628Y-50056538D02*
X68981580Y-50294633D01*
X68314914Y-50377967D02*
X68695866Y-49949395D01*
D11*
X56622600Y-66230571D02*
X56586885Y-66159142D01*
X56586885Y-66052000D01*
X56622600Y-65944857D01*
X56694028Y-65873428D01*
X56765457Y-65837714D01*
X56908314Y-65802000D01*
X57015457Y-65802000D01*
X57158314Y-65837714D01*
X57229742Y-65873428D01*
X57301171Y-65944857D01*
X57336885Y-66052000D01*
X57336885Y-66123428D01*
X57301171Y-66230571D01*
X57265457Y-66266285D01*
X57015457Y-66266285D01*
X57015457Y-66123428D01*
X57336885Y-66587714D02*
X56586885Y-66587714D01*
X57336885Y-67016285D01*
X56586885Y-67016285D01*
X57336885Y-67373428D02*
X56586885Y-67373428D01*
X56586885Y-67552000D01*
X56622600Y-67659142D01*
X56694028Y-67730571D01*
X56765457Y-67766285D01*
X56908314Y-67802000D01*
X57015457Y-67802000D01*
X57158314Y-67766285D01*
X57229742Y-67730571D01*
X57301171Y-67659142D01*
X57336885Y-67552000D01*
X57336885Y-67373428D01*
X59851485Y-66296000D02*
X59494342Y-66046000D01*
X59851485Y-65867428D02*
X59101485Y-65867428D01*
X59101485Y-66153142D01*
X59137200Y-66224571D01*
X59172914Y-66260285D01*
X59244342Y-66296000D01*
X59351485Y-66296000D01*
X59422914Y-66260285D01*
X59458628Y-66224571D01*
X59494342Y-66153142D01*
X59494342Y-65867428D01*
X59101485Y-66546000D02*
X59851485Y-67046000D01*
X59101485Y-67046000D02*
X59851485Y-66546000D01*
X57856885Y-65849571D02*
X57856885Y-66278142D01*
X58606885Y-66063857D02*
X57856885Y-66063857D01*
X57856885Y-66456714D02*
X58606885Y-66956714D01*
X57856885Y-66956714D02*
X58606885Y-66456714D01*
X55342285Y-65873428D02*
X55342285Y-66337714D01*
X55628000Y-66087714D01*
X55628000Y-66194857D01*
X55663714Y-66266285D01*
X55699428Y-66302000D01*
X55770857Y-66337714D01*
X55949428Y-66337714D01*
X56020857Y-66302000D01*
X56056571Y-66266285D01*
X56092285Y-66194857D01*
X56092285Y-65980571D01*
X56056571Y-65909142D01*
X56020857Y-65873428D01*
X55342285Y-66552000D02*
X56092285Y-66802000D01*
X55342285Y-67052000D01*
X55342285Y-67230571D02*
X55342285Y-67694857D01*
X55628000Y-67444857D01*
X55628000Y-67552000D01*
X55663714Y-67623428D01*
X55699428Y-67659142D01*
X55770857Y-67694857D01*
X55949428Y-67694857D01*
X56020857Y-67659142D01*
X56056571Y-67623428D01*
X56092285Y-67552000D01*
X56092285Y-67337714D01*
X56056571Y-67266285D01*
X56020857Y-67230571D01*
D10*
X32004000Y-64096900D02*
X34544000Y-64096900D01*
X33020000Y-61810900D02*
X32766000Y-61556900D01*
X32766000Y-61556900D02*
X33020000Y-61302900D01*
X31877000Y-65366900D02*
X31623000Y-65112900D01*
X28829000Y-65366900D02*
X32004000Y-65366900D01*
X32004000Y-66636900D02*
X32004000Y-65366900D01*
X40513000Y-61302900D02*
X40513000Y-61810900D01*
X39497000Y-60794900D02*
X38862000Y-61556900D01*
X38862000Y-61556900D02*
X39497000Y-62318900D01*
X39497000Y-62318900D02*
X38481000Y-62318900D01*
X32004000Y-65366900D02*
X32004000Y-64096900D01*
X38989000Y-62826900D02*
X38735000Y-63080900D01*
X34544000Y-64096900D02*
X34544000Y-66636900D01*
X37790885Y-61556900D02*
X36449000Y-61556900D01*
X36449000Y-61556900D02*
X36449000Y-60286900D01*
X36449000Y-60286900D02*
X33909000Y-60286900D01*
X33909000Y-62826900D02*
X36449000Y-62826900D01*
X30099000Y-62826900D02*
X32639000Y-62826900D01*
X28829000Y-61556900D02*
X28829000Y-65366900D01*
X38735000Y-63080900D02*
X39243000Y-63080900D01*
X36449000Y-62826900D02*
X36449000Y-61556900D01*
X33909000Y-61556900D02*
X32639000Y-61556900D01*
X32639000Y-61556900D02*
X32639000Y-60286900D01*
X34544000Y-66636900D02*
X32004000Y-66636900D01*
X27559000Y-61556900D02*
X30099000Y-61556900D01*
X33020000Y-61302900D02*
X33020000Y-61810900D01*
X34544000Y-65366900D02*
X38989000Y-65366900D01*
X38989000Y-65366900D02*
X38989000Y-62755015D01*
X39751000Y-63080900D02*
X40132000Y-63080900D01*
X40187116Y-61556900D02*
G75*
G03X40187116Y-61556900I-1198116J0D01*
G01*
X36830000Y-61302900D02*
X36830000Y-61810900D01*
X40259000Y-61556900D02*
X40513000Y-61302900D01*
X31623000Y-65112900D02*
X31623000Y-65620900D01*
X30099000Y-60286900D02*
X30099000Y-62826900D01*
X31623000Y-65620900D02*
X31877000Y-65366900D01*
X32639000Y-62826900D02*
X32639000Y-61556900D01*
X36576000Y-61556900D02*
X36830000Y-61302900D01*
X39243000Y-63080900D02*
X38989000Y-62826900D01*
X36830000Y-61810900D02*
X36576000Y-61556900D01*
X42799000Y-61556900D02*
X40259000Y-61556900D01*
X40513000Y-61810900D02*
X40259000Y-61556900D01*
X38481000Y-60794900D02*
X39497000Y-60794900D01*
X33909000Y-60286900D02*
X33909000Y-62826900D01*
X32639000Y-60286900D02*
X30099000Y-60286900D01*
M02*
