G04 #@! TF.GenerationSoftware,KiCad,Pcbnew,(5.1.5)-3*
G04 #@! TF.CreationDate,2019-12-11T14:27:37+01:00*
G04 #@! TF.ProjectId,HadesMicro,48616465-734d-4696-9372-6f2e6b696361,rev?*
G04 #@! TF.SameCoordinates,Original*
G04 #@! TF.FileFunction,Soldermask,Bot*
G04 #@! TF.FilePolarity,Negative*
%FSLAX46Y46*%
G04 Gerber Fmt 4.6, Leading zero omitted, Abs format (unit mm)*
G04 Created by KiCad (PCBNEW (5.1.5)-3) date 2019-12-11 14:27:37*
%MOMM*%
%LPD*%
G04 APERTURE LIST*
%ADD10O,0.800000X1.300000*%
%ADD11R,0.800000X1.300000*%
%ADD12O,1.300000X0.800000*%
%ADD13R,1.300000X0.800000*%
%ADD14C,0.800000*%
%ADD15C,1.800000*%
%ADD16C,2.000000*%
%ADD17C,6.400000*%
%ADD18R,1.000000X1.000000*%
%ADD19O,1.000000X1.000000*%
%ADD20R,1.700000X1.700000*%
%ADD21O,1.700000X1.700000*%
%ADD22C,2.400000*%
%ADD23R,2.400000X2.400000*%
G04 APERTURE END LIST*
D10*
X30373000Y-25146000D03*
D11*
X31623000Y-25146000D03*
D10*
X46542000Y-25146000D03*
X47792000Y-25146000D03*
X49042000Y-25146000D03*
D11*
X50292000Y-25146000D03*
D12*
X64770000Y-54924000D03*
X64770000Y-56174000D03*
X64770000Y-57424000D03*
D13*
X64770000Y-58674000D03*
D14*
X65367000Y-31663000D03*
X65367000Y-36663000D03*
D15*
X68117000Y-30288000D03*
X68117000Y-38038000D03*
D16*
X64317000Y-30438000D03*
X64317000Y-37888000D03*
D17*
X24000000Y-24000000D03*
D14*
X26400000Y-24000000D03*
X25697056Y-25697056D03*
X24000000Y-26400000D03*
X22302944Y-25697056D03*
X21600000Y-24000000D03*
X22302944Y-22302944D03*
X24000000Y-21600000D03*
X25697056Y-22302944D03*
X67697056Y-22302944D03*
X66000000Y-21600000D03*
X64302944Y-22302944D03*
X63600000Y-24000000D03*
X64302944Y-25697056D03*
X66000000Y-26400000D03*
X67697056Y-25697056D03*
X68400000Y-24000000D03*
D17*
X66000000Y-24000000D03*
X66000000Y-66000000D03*
D14*
X68400000Y-66000000D03*
X67697056Y-67697056D03*
X66000000Y-68400000D03*
X64302944Y-67697056D03*
X63600000Y-66000000D03*
X64302944Y-64302944D03*
X66000000Y-63600000D03*
X67697056Y-64302944D03*
D11*
X55753000Y-64770000D03*
D10*
X57003000Y-64770000D03*
X58253000Y-64770000D03*
X59503000Y-64770000D03*
D18*
X31369000Y-54292500D03*
D19*
X31369000Y-53022500D03*
D20*
X25000000Y-48000000D03*
D21*
X22460000Y-48000000D03*
X25000000Y-45460000D03*
X22460000Y-45460000D03*
X25000000Y-42920000D03*
X22460000Y-42920000D03*
X25000000Y-40380000D03*
X22460000Y-40380000D03*
X25000000Y-37840000D03*
X22460000Y-37840000D03*
X25000000Y-35300000D03*
X22460000Y-35300000D03*
X25000000Y-32760000D03*
X22460000Y-32760000D03*
X25000000Y-30220000D03*
X22460000Y-30220000D03*
D20*
X27541220Y-30251400D03*
D21*
X27541220Y-32791400D03*
X27541220Y-35331400D03*
X27541220Y-37871400D03*
X27541220Y-40411400D03*
X27541220Y-42951400D03*
X27541220Y-45491400D03*
X27541220Y-48031400D03*
D11*
X46482000Y-64770000D03*
D10*
X47732000Y-64770000D03*
X48982000Y-64770000D03*
X50232000Y-64770000D03*
X55686000Y-25146000D03*
X56936000Y-25146000D03*
X58186000Y-25146000D03*
D11*
X59436000Y-25146000D03*
D14*
X25697056Y-64302944D03*
X24000000Y-63600000D03*
X22302944Y-64302944D03*
X21600000Y-66000000D03*
X22302944Y-67697056D03*
X24000000Y-68400000D03*
X25697056Y-67697056D03*
X26400000Y-66000000D03*
D17*
X24000000Y-66000000D03*
D22*
X25463500Y-58681500D03*
D23*
X25463500Y-55181500D03*
M02*
