G04 #@! TF.GenerationSoftware,KiCad,Pcbnew,(5.1.5)-3*
G04 #@! TF.CreationDate,2019-12-11T14:27:37+01:00*
G04 #@! TF.ProjectId,HadesMicro,48616465-734d-4696-9372-6f2e6b696361,rev?*
G04 #@! TF.SameCoordinates,Original*
G04 #@! TF.FileFunction,Copper,L4,Bot*
G04 #@! TF.FilePolarity,Positive*
%FSLAX46Y46*%
G04 Gerber Fmt 4.6, Leading zero omitted, Abs format (unit mm)*
G04 Created by KiCad (PCBNEW (5.1.5)-3) date 2019-12-11 14:27:37*
%MOMM*%
%LPD*%
G04 APERTURE LIST*
%ADD10O,0.800000X1.300000*%
%ADD11R,0.800000X1.300000*%
%ADD12O,1.300000X0.800000*%
%ADD13R,1.300000X0.800000*%
%ADD14C,1.800000*%
%ADD15C,2.000000*%
%ADD16C,6.400000*%
%ADD17C,0.800000*%
%ADD18R,1.000000X1.000000*%
%ADD19O,1.000000X1.000000*%
%ADD20R,1.700000X1.700000*%
%ADD21O,1.700000X1.700000*%
%ADD22C,2.400000*%
%ADD23R,2.400000X2.400000*%
%ADD24C,0.600000*%
%ADD25C,0.350000*%
%ADD26C,0.250000*%
%ADD27C,1.000000*%
%ADD28C,0.500000*%
%ADD29C,1.500000*%
%ADD30C,0.254000*%
G04 APERTURE END LIST*
D10*
X30373000Y-25146000D03*
D11*
X31623000Y-25146000D03*
D10*
X46542000Y-25146000D03*
X47792000Y-25146000D03*
X49042000Y-25146000D03*
D11*
X50292000Y-25146000D03*
D12*
X64770000Y-54924000D03*
X64770000Y-56174000D03*
X64770000Y-57424000D03*
D13*
X64770000Y-58674000D03*
D14*
X68117000Y-30288000D03*
X68117000Y-38038000D03*
D15*
X64317000Y-30438000D03*
X64317000Y-37888000D03*
D16*
X24000000Y-24000000D03*
D17*
X26400000Y-24000000D03*
X25697056Y-25697056D03*
X24000000Y-26400000D03*
X22302944Y-25697056D03*
X21600000Y-24000000D03*
X22302944Y-22302944D03*
X24000000Y-21600000D03*
X25697056Y-22302944D03*
X67697056Y-22302944D03*
X66000000Y-21600000D03*
X64302944Y-22302944D03*
X63600000Y-24000000D03*
X64302944Y-25697056D03*
X66000000Y-26400000D03*
X67697056Y-25697056D03*
X68400000Y-24000000D03*
D16*
X66000000Y-24000000D03*
X66000000Y-66000000D03*
D17*
X68400000Y-66000000D03*
X67697056Y-67697056D03*
X66000000Y-68400000D03*
X64302944Y-67697056D03*
X63600000Y-66000000D03*
X64302944Y-64302944D03*
X66000000Y-63600000D03*
X67697056Y-64302944D03*
D11*
X55753000Y-64770000D03*
D10*
X57003000Y-64770000D03*
X58253000Y-64770000D03*
X59503000Y-64770000D03*
D18*
X31369000Y-54292500D03*
D19*
X31369000Y-53022500D03*
D20*
X25000000Y-48000000D03*
D21*
X22460000Y-48000000D03*
X25000000Y-45460000D03*
X22460000Y-45460000D03*
X25000000Y-42920000D03*
X22460000Y-42920000D03*
X25000000Y-40380000D03*
X22460000Y-40380000D03*
X25000000Y-37840000D03*
X22460000Y-37840000D03*
X25000000Y-35300000D03*
X22460000Y-35300000D03*
X25000000Y-32760000D03*
X22460000Y-32760000D03*
X25000000Y-30220000D03*
X22460000Y-30220000D03*
D20*
X27541220Y-30251400D03*
D21*
X27541220Y-32791400D03*
X27541220Y-35331400D03*
X27541220Y-37871400D03*
X27541220Y-40411400D03*
X27541220Y-42951400D03*
X27541220Y-45491400D03*
X27541220Y-48031400D03*
D11*
X46482000Y-64770000D03*
D10*
X47732000Y-64770000D03*
X48982000Y-64770000D03*
X50232000Y-64770000D03*
X55686000Y-25146000D03*
X56936000Y-25146000D03*
X58186000Y-25146000D03*
D11*
X59436000Y-25146000D03*
D17*
X25697056Y-64302944D03*
X24000000Y-63600000D03*
X22302944Y-64302944D03*
X21600000Y-66000000D03*
X22302944Y-67697056D03*
X24000000Y-68400000D03*
X25697056Y-67697056D03*
X26400000Y-66000000D03*
D16*
X24000000Y-66000000D03*
D22*
X25463500Y-58681500D03*
D23*
X25463500Y-55181500D03*
D17*
X41579800Y-24536400D03*
X38785800Y-26136600D03*
X41579800Y-25501600D03*
X41579800Y-26517600D03*
X42595800Y-24536400D03*
X42595800Y-25501600D03*
X42595800Y-26517600D03*
X34112200Y-44119800D03*
X35814000Y-42316400D03*
X37966400Y-68929000D03*
X30988000Y-68961000D03*
X27668500Y-62720500D03*
X34036000Y-54356000D03*
X41910000Y-59182000D03*
X45466000Y-60452000D03*
X52578000Y-57150000D03*
X39598600Y-44348400D03*
X55245000Y-45847000D03*
X67206000Y-51077000D03*
X39141400Y-29286200D03*
X33883600Y-32435800D03*
X42545000Y-69215000D03*
X50723800Y-33934400D03*
X46228000Y-28854400D03*
X50038000Y-31216600D03*
X48158400Y-37744400D03*
X44577000Y-35306000D03*
X51181000Y-40005000D03*
D24*
X36033900Y-44796900D03*
D17*
X44196000Y-48031400D03*
X33598800Y-31018800D03*
X38100000Y-33020000D03*
X42926000Y-31369000D03*
X48133000Y-36449000D03*
X38531800Y-21463000D03*
X37515800Y-21463000D03*
X36499800Y-21463000D03*
X39547800Y-21463000D03*
D24*
X37287200Y-46990000D03*
X34340800Y-52832000D03*
D17*
X42672000Y-54356000D03*
X41910000Y-57912000D03*
X41910000Y-60452000D03*
X52578000Y-59944000D03*
X68580000Y-50927000D03*
X58674000Y-48895000D03*
X38811200Y-47117000D03*
X43942000Y-69215000D03*
D24*
X58039000Y-34493200D03*
X29464000Y-62484000D03*
D17*
X36957000Y-57531000D03*
X36957000Y-58801000D03*
X36957000Y-60071000D03*
X33528000Y-45720000D03*
X43840400Y-26517600D03*
X45720000Y-35306000D03*
X52959000Y-37084000D03*
X40005000Y-42082000D03*
X44704000Y-44704000D03*
X66264000Y-32863000D03*
X29235400Y-24130000D03*
X29235400Y-25146000D03*
X29235400Y-23114000D03*
X55880000Y-68580000D03*
X57150000Y-68580000D03*
X58420000Y-68580000D03*
X59690000Y-68580000D03*
X48260000Y-68580000D03*
X49530000Y-68580000D03*
X50800000Y-68580000D03*
X68580000Y-58420000D03*
X68580000Y-57150000D03*
X68580000Y-55880000D03*
X68580000Y-54610000D03*
X68580000Y-32893000D03*
X68580000Y-34290000D03*
X68580000Y-35560000D03*
X55880000Y-21488400D03*
X57150000Y-21488400D03*
X58420000Y-21488400D03*
X50800000Y-21488400D03*
X49555400Y-21488400D03*
X48260000Y-21488400D03*
X46990000Y-21488400D03*
X45720000Y-21488400D03*
X43180000Y-21590000D03*
X41910000Y-21590000D03*
X40640000Y-21590000D03*
X21590000Y-62230000D03*
X22860000Y-62230000D03*
X31750000Y-67310000D03*
X33020000Y-67310000D03*
X30480000Y-67310000D03*
X38100000Y-67310000D03*
X44450000Y-54610000D03*
X45720000Y-54610000D03*
X46990000Y-54610000D03*
X46990000Y-53340000D03*
X46990000Y-52070000D03*
X48260000Y-52070000D03*
X48260000Y-53340000D03*
X50800000Y-54610000D03*
X50800000Y-55880000D03*
X68580000Y-40640000D03*
X67310000Y-40640000D03*
X66040000Y-40640000D03*
X64770000Y-40640000D03*
X63500000Y-40640000D03*
X62230000Y-40640000D03*
X58420000Y-41910000D03*
X59690000Y-41910000D03*
X59690000Y-43180000D03*
X58420000Y-43180000D03*
X60960000Y-41910000D03*
X55880000Y-29210000D03*
X57150000Y-29210000D03*
X58420000Y-29210000D03*
X59690000Y-29210000D03*
X59690000Y-30480000D03*
X58420000Y-30480000D03*
X57150000Y-30480000D03*
X55880000Y-30480000D03*
X55880000Y-31750000D03*
X57150000Y-31750000D03*
X54610000Y-29210000D03*
X60960000Y-62230000D03*
X62230000Y-62230000D03*
X63500000Y-62230000D03*
X62230000Y-60960000D03*
X60960000Y-60960000D03*
X60960000Y-59690000D03*
X62230000Y-59690000D03*
X52070000Y-60960000D03*
X53340000Y-60960000D03*
X53340000Y-62230000D03*
X52070000Y-62230000D03*
X26670000Y-52070000D03*
X27940000Y-52070000D03*
X29210000Y-52070000D03*
D24*
X37846000Y-45974000D03*
D17*
X42926000Y-48920400D03*
X48641000Y-40259000D03*
X37846000Y-31877000D03*
X39497000Y-43053202D03*
X46064001Y-52795001D03*
X32419000Y-49115000D03*
X32419000Y-48107600D03*
X32419000Y-47083000D03*
X51181000Y-50038000D03*
X58928000Y-50165000D03*
X48133000Y-55245000D03*
X48133000Y-56388000D03*
X62661800Y-53873400D03*
X39624000Y-56261000D03*
X40386000Y-66929000D03*
X42037000Y-38481000D03*
X46990000Y-49911000D03*
X48006000Y-49911000D03*
X44323000Y-41021000D03*
X49022000Y-49911000D03*
X47371000Y-33939000D03*
X38862000Y-55499000D03*
X49276000Y-51562000D03*
X49911000Y-28194000D03*
X50292000Y-52451000D03*
X51689000Y-29337000D03*
X56896000Y-41021000D03*
X43053000Y-35560000D03*
X42291000Y-34798000D03*
X43561000Y-34036000D03*
X37592000Y-55626000D03*
X45339000Y-48031400D03*
D25*
X41275000Y-33020000D02*
X42926000Y-31369000D01*
X38100000Y-33020000D02*
X41275000Y-33020000D01*
X48133000Y-36449000D02*
X48133000Y-36449000D01*
X36360401Y-45123401D02*
X36333899Y-45096899D01*
X36333899Y-45096899D02*
X36033900Y-44796900D01*
X39906831Y-45123401D02*
X36360401Y-45123401D01*
X42814830Y-48031400D02*
X39906831Y-45123401D01*
X44196000Y-48031400D02*
X42814830Y-48031400D01*
X41529000Y-36449000D02*
X48133000Y-36449000D01*
X38100000Y-33020000D02*
X41529000Y-36449000D01*
X38735000Y-32385000D02*
X38100000Y-33020000D01*
X33598800Y-31018800D02*
X38384800Y-31018800D01*
X38735000Y-31369000D02*
X38735000Y-32385000D01*
X38384800Y-31018800D02*
X38735000Y-31369000D01*
X49403000Y-37719000D02*
X48133000Y-36449000D01*
X49416001Y-37732001D02*
X49403000Y-37719000D01*
X36848614Y-41002386D02*
X40216990Y-37634010D01*
X36033900Y-44796900D02*
X36033900Y-44372636D01*
X49149000Y-41275000D02*
X49416001Y-41007999D01*
X36848614Y-43557922D02*
X36848614Y-41002386D01*
X36033900Y-44372636D02*
X36848614Y-43557922D01*
X46508180Y-37634010D02*
X46833389Y-37959219D01*
X46833389Y-37959219D02*
X46833389Y-39721389D01*
X40216990Y-37634010D02*
X46508180Y-37634010D01*
X46833389Y-39721389D02*
X48387000Y-41275000D01*
X49416001Y-41007999D02*
X49416001Y-37732001D01*
X48387000Y-41275000D02*
X49149000Y-41275000D01*
D26*
X63488400Y-21488400D02*
X64302944Y-22302944D01*
X58420000Y-21488400D02*
X63488400Y-21488400D01*
X42926000Y-48920400D02*
X42926000Y-48920400D01*
D25*
X37846000Y-45974000D02*
X35560000Y-45974000D01*
X35560000Y-45974000D02*
X35052000Y-45466000D01*
X35038999Y-41944399D02*
X36470398Y-40513000D01*
X35052000Y-45466000D02*
X35052000Y-42701402D01*
X35038999Y-42688401D02*
X35038999Y-41944399D01*
X35052000Y-42701402D02*
X35038999Y-42688401D01*
X48641000Y-40259000D02*
X48641000Y-40259000D01*
X39979600Y-45974000D02*
X42926000Y-48920400D01*
X37846000Y-45974000D02*
X39979600Y-45974000D01*
X36470398Y-40513000D02*
X36470398Y-33168398D01*
X36470398Y-33168398D02*
X36470398Y-32744602D01*
X36470398Y-32744602D02*
X37338000Y-31877000D01*
X37338000Y-31877000D02*
X37846000Y-31877000D01*
X37846000Y-31877000D02*
X37846000Y-31877000D01*
X48241001Y-39859001D02*
X48641000Y-40259000D01*
X47383399Y-39001399D02*
X48241001Y-39859001D01*
X36470398Y-40513000D02*
X36470398Y-40491602D01*
X46736000Y-37084000D02*
X47383399Y-37731399D01*
X36470398Y-40491602D02*
X39878000Y-37084000D01*
X47383399Y-37731399D02*
X47383399Y-39001399D01*
X39878000Y-37084000D02*
X46736000Y-37084000D01*
D26*
X46064001Y-52795001D02*
X46064001Y-52795001D01*
D25*
X39896999Y-43453201D02*
X39497000Y-43053202D01*
X40373601Y-44199432D02*
X40373601Y-43929803D01*
X40373601Y-43929803D02*
X39896999Y-43453201D01*
X45762010Y-47032010D02*
X43206179Y-47032010D01*
X46114001Y-47384001D02*
X45762010Y-47032010D01*
X46114001Y-52179316D02*
X46114001Y-47384001D01*
X46064001Y-52229316D02*
X46114001Y-52179316D01*
X43206179Y-47032010D02*
X40373601Y-44199432D01*
X46064001Y-52795001D02*
X46064001Y-52229316D01*
D27*
X32419000Y-49115000D02*
X32419000Y-48107600D01*
X32419000Y-48107600D02*
X32419000Y-47083000D01*
D28*
X32419000Y-25942000D02*
X31623000Y-25146000D01*
X32419000Y-47083000D02*
X32419000Y-25942000D01*
D25*
X51580999Y-50437999D02*
X58655001Y-50437999D01*
X51181000Y-50038000D02*
X51580999Y-50437999D01*
X58655001Y-50437999D02*
X58928000Y-50165000D01*
X58928000Y-50165000D02*
X58928000Y-50165000D01*
D26*
X48698685Y-55245000D02*
X49022000Y-55568315D01*
X48133000Y-55245000D02*
X48698685Y-55245000D01*
X49022000Y-55568315D02*
X49022000Y-60452000D01*
X49022000Y-60452000D02*
X54737000Y-66167000D01*
X58253000Y-65670000D02*
X58253000Y-64770000D01*
X57756000Y-66167000D02*
X58253000Y-65670000D01*
X54737000Y-66167000D02*
X57756000Y-66167000D01*
X54610000Y-66802000D02*
X58674000Y-66802000D01*
X59503000Y-65973000D02*
X59503000Y-64770000D01*
X48133000Y-56388000D02*
X48133000Y-60325000D01*
X58674000Y-66802000D02*
X59503000Y-65973000D01*
X48133000Y-60325000D02*
X54610000Y-66802000D01*
X64396715Y-56174000D02*
X64770000Y-56174000D01*
X62661800Y-54439085D02*
X64396715Y-56174000D01*
X62661800Y-53873400D02*
X62661800Y-54439085D01*
X39624000Y-56261000D02*
X39624000Y-66167000D01*
X39624000Y-66167000D02*
X40386000Y-66929000D01*
X40386000Y-66929000D02*
X40386000Y-66929000D01*
D25*
X42037000Y-40889998D02*
X42037000Y-38481000D01*
X46990000Y-47400480D02*
X46071520Y-46482000D01*
X46990000Y-49911000D02*
X46990000Y-47400480D01*
X46071520Y-46482000D02*
X43434000Y-46482000D01*
X42037000Y-45085000D02*
X42037000Y-40889998D01*
X43434000Y-46482000D02*
X42037000Y-45085000D01*
X48006000Y-47638650D02*
X46299341Y-45931990D01*
X48006000Y-49911000D02*
X48006000Y-47638650D01*
X46299341Y-45931990D02*
X44534990Y-45931990D01*
X43923001Y-41420999D02*
X44323000Y-41021000D01*
X43923001Y-45320001D02*
X43923001Y-41420999D01*
X44534990Y-45931990D02*
X43923001Y-45320001D01*
D29*
X25000000Y-54718000D02*
X25000000Y-48000000D01*
X25463500Y-55181500D02*
X25000000Y-54718000D01*
X25000000Y-48000000D02*
X25000000Y-45460000D01*
X25000000Y-45460000D02*
X25000000Y-42920000D01*
X25000000Y-42920000D02*
X25000000Y-40380000D01*
X25000000Y-40380000D02*
X25000000Y-37840000D01*
X25000000Y-37840000D02*
X25000000Y-35300000D01*
X25000000Y-35300000D02*
X25000000Y-32760000D01*
X25000000Y-32760000D02*
X25000000Y-30220000D01*
D25*
X47770999Y-34338999D02*
X47371000Y-33939000D01*
X49966011Y-36534011D02*
X47770999Y-34338999D01*
X49966011Y-41235820D02*
X49966011Y-36534011D01*
X49022000Y-42179830D02*
X49966011Y-41235820D01*
X49022000Y-49911000D02*
X49022000Y-42179830D01*
D26*
X40005000Y-67945000D02*
X47244000Y-67945000D01*
X48982000Y-66207000D02*
X48982000Y-64770000D01*
X47244000Y-67945000D02*
X48982000Y-66207000D01*
X38862000Y-66802000D02*
X40005000Y-67945000D01*
X38862000Y-55499000D02*
X38862000Y-66802000D01*
D25*
X51956001Y-31255001D02*
X49911000Y-29210000D01*
X49276000Y-50795998D02*
X49797001Y-50274997D01*
X49911000Y-29210000D02*
X49911000Y-28194000D01*
X49276000Y-51562000D02*
X49276000Y-50795998D01*
X51956001Y-41669001D02*
X51956001Y-31255001D01*
X49797001Y-50274997D02*
X49797001Y-43828001D01*
X49797001Y-43828001D02*
X51956001Y-41669001D01*
X50405999Y-50443830D02*
X50405999Y-43996833D01*
X50405999Y-43996833D02*
X53848000Y-40554832D01*
X50292000Y-52451000D02*
X50292000Y-50557829D01*
X50292000Y-50557829D02*
X50405999Y-50443830D01*
X53848000Y-40554832D02*
X53848000Y-31496000D01*
X53848000Y-31496000D02*
X51689000Y-29337000D01*
X51689000Y-29337000D02*
X51689000Y-29337000D01*
X56896000Y-41021000D02*
X54610000Y-38735000D01*
X54610000Y-38735000D02*
X54610000Y-30734000D01*
X50292000Y-26416000D02*
X50292000Y-25146000D01*
X54610000Y-30734000D02*
X50292000Y-26416000D01*
X49042000Y-29693998D02*
X49042000Y-26146000D01*
X43175998Y-35560000D02*
X49042000Y-29693998D01*
X49042000Y-26146000D02*
X49042000Y-25146000D01*
X43053000Y-35560000D02*
X43175998Y-35560000D01*
X42690999Y-32751003D02*
X44615401Y-30826601D01*
X42291000Y-34798000D02*
X42690999Y-34398001D01*
X42690999Y-34398001D02*
X42690999Y-32751003D01*
X44615401Y-24202768D02*
X45492179Y-23325990D01*
X44615401Y-30826601D02*
X44615401Y-24202768D01*
X56115990Y-23325990D02*
X56936000Y-24146000D01*
X56936000Y-24146000D02*
X56936000Y-25146000D01*
X45492179Y-23325990D02*
X56115990Y-23325990D01*
X43561000Y-34036000D02*
X43561000Y-33470315D01*
X55686000Y-24146000D02*
X55686000Y-25146000D01*
X43561000Y-33470315D02*
X45165411Y-31865904D01*
X55416000Y-23876000D02*
X55686000Y-24146000D01*
X45165411Y-24430589D02*
X45720000Y-23876000D01*
X45165411Y-31865904D02*
X45165411Y-24430589D01*
X45720000Y-23876000D02*
X55416000Y-23876000D01*
D26*
X37592000Y-55626000D02*
X40970200Y-52247800D01*
X40970200Y-52247800D02*
X41960800Y-52247800D01*
X41960800Y-52247800D02*
X45339000Y-48869600D01*
X45339000Y-48869600D02*
X45339000Y-48031400D01*
X45339000Y-48031400D02*
X45339000Y-48031400D01*
D30*
G36*
X63879330Y-20782445D02*
G01*
X63838912Y-20809452D01*
X63478724Y-21299119D01*
X66000000Y-23820395D01*
X66014143Y-23806253D01*
X66193748Y-23985858D01*
X66179605Y-24000000D01*
X67058528Y-24878923D01*
X67037282Y-24893119D01*
X66893119Y-25037282D01*
X66878923Y-25058528D01*
X66000000Y-24179605D01*
X65121077Y-25058528D01*
X65106881Y-25037282D01*
X64962718Y-24893119D01*
X64941472Y-24878923D01*
X65820395Y-24000000D01*
X63299119Y-21478724D01*
X62809452Y-21838912D01*
X62449151Y-22502882D01*
X62225306Y-23224385D01*
X62146520Y-23975695D01*
X62215822Y-24727938D01*
X62430548Y-25452208D01*
X62782445Y-26120670D01*
X62809452Y-26161088D01*
X63299119Y-26521276D01*
X63484811Y-26335584D01*
X63499007Y-26356830D01*
X63643170Y-26500993D01*
X63664416Y-26515189D01*
X63478724Y-26700881D01*
X63838912Y-27190548D01*
X64502882Y-27550849D01*
X65224385Y-27774694D01*
X65975695Y-27853480D01*
X66727938Y-27784178D01*
X67452208Y-27569452D01*
X68120670Y-27217555D01*
X68161088Y-27190548D01*
X68521276Y-26700881D01*
X68335584Y-26515189D01*
X68356830Y-26500993D01*
X68500993Y-26356830D01*
X68515189Y-26335584D01*
X68700881Y-26521276D01*
X69190548Y-26161088D01*
X69315000Y-25931745D01*
X69315000Y-29447615D01*
X69181080Y-29403525D01*
X68296605Y-30288000D01*
X69181080Y-31172475D01*
X69315000Y-31128385D01*
X69315000Y-37197615D01*
X69181080Y-37153525D01*
X68296605Y-38038000D01*
X69181080Y-38922475D01*
X69315000Y-38878385D01*
X69315001Y-64064438D01*
X69217555Y-63879330D01*
X69190548Y-63838912D01*
X68700881Y-63478724D01*
X68515189Y-63664416D01*
X68500993Y-63643170D01*
X68356830Y-63499007D01*
X68335584Y-63484811D01*
X68521276Y-63299119D01*
X68161088Y-62809452D01*
X67497118Y-62449151D01*
X66775615Y-62225306D01*
X66024305Y-62146520D01*
X65272062Y-62215822D01*
X64547792Y-62430548D01*
X63879330Y-62782445D01*
X63838912Y-62809452D01*
X63478724Y-63299119D01*
X66000000Y-65820395D01*
X66878923Y-64941472D01*
X66893119Y-64962718D01*
X67037282Y-65106881D01*
X67058528Y-65121077D01*
X66179605Y-66000000D01*
X66193748Y-66014143D01*
X66014143Y-66193748D01*
X66000000Y-66179605D01*
X65121077Y-67058528D01*
X65106881Y-67037282D01*
X64962718Y-66893119D01*
X64941472Y-66878923D01*
X65820395Y-66000000D01*
X63299119Y-63478724D01*
X62809452Y-63838912D01*
X62449151Y-64502882D01*
X62225306Y-65224385D01*
X62146520Y-65975695D01*
X62215822Y-66727938D01*
X62430548Y-67452208D01*
X62782445Y-68120670D01*
X62809452Y-68161088D01*
X63299119Y-68521276D01*
X63484811Y-68335584D01*
X63499007Y-68356830D01*
X63643170Y-68500993D01*
X63664416Y-68515189D01*
X63478724Y-68700881D01*
X63838912Y-69190548D01*
X64068255Y-69315000D01*
X43580000Y-69315000D01*
X43580000Y-69113061D01*
X43540226Y-68913102D01*
X43462205Y-68724744D01*
X43449013Y-68705000D01*
X47206678Y-68705000D01*
X47244000Y-68708676D01*
X47281322Y-68705000D01*
X47281333Y-68705000D01*
X47392986Y-68694003D01*
X47536247Y-68650546D01*
X47668276Y-68579974D01*
X47784001Y-68485001D01*
X47807804Y-68455997D01*
X49493004Y-66770798D01*
X49522001Y-66747001D01*
X49616974Y-66631276D01*
X49687546Y-66499247D01*
X49731003Y-66355986D01*
X49742000Y-66244333D01*
X49742000Y-66244324D01*
X49745676Y-66207001D01*
X49742000Y-66169678D01*
X49742000Y-65931662D01*
X49834008Y-65980841D01*
X50029106Y-66040024D01*
X50232000Y-66060007D01*
X50434895Y-66040024D01*
X50629993Y-65980841D01*
X50809797Y-65884734D01*
X50967396Y-65755396D01*
X51096734Y-65597797D01*
X51192841Y-65417992D01*
X51252024Y-65222894D01*
X51267000Y-65070837D01*
X51267000Y-64533802D01*
X54046200Y-67313002D01*
X54069999Y-67342001D01*
X54185724Y-67436974D01*
X54317753Y-67507546D01*
X54461014Y-67551003D01*
X54572667Y-67562000D01*
X54572676Y-67562000D01*
X54609999Y-67565676D01*
X54647322Y-67562000D01*
X58636678Y-67562000D01*
X58674000Y-67565676D01*
X58711322Y-67562000D01*
X58711333Y-67562000D01*
X58822986Y-67551003D01*
X58966247Y-67507546D01*
X59098276Y-67436974D01*
X59214001Y-67342001D01*
X59237803Y-67312998D01*
X60014004Y-66536798D01*
X60043001Y-66513001D01*
X60097220Y-66446935D01*
X60137974Y-66397277D01*
X60208546Y-66265247D01*
X60216750Y-66238201D01*
X60252003Y-66121986D01*
X60263000Y-66010333D01*
X60263000Y-66010324D01*
X60266676Y-65973001D01*
X60263000Y-65935678D01*
X60263000Y-65725416D01*
X60367734Y-65597797D01*
X60463841Y-65417992D01*
X60523024Y-65222894D01*
X60538000Y-65070837D01*
X60538000Y-64469162D01*
X60523024Y-64317105D01*
X60463841Y-64122007D01*
X60367734Y-63942203D01*
X60238396Y-63784604D01*
X60080797Y-63655266D01*
X59900992Y-63559159D01*
X59705894Y-63499976D01*
X59503000Y-63479993D01*
X59300105Y-63499976D01*
X59105007Y-63559159D01*
X58925203Y-63655266D01*
X58878000Y-63694004D01*
X58830797Y-63655266D01*
X58650992Y-63559159D01*
X58455894Y-63499976D01*
X58253000Y-63479993D01*
X58050105Y-63499976D01*
X57855007Y-63559159D01*
X57675203Y-63655266D01*
X57635062Y-63688209D01*
X57551160Y-63624745D01*
X57365972Y-63535006D01*
X57289123Y-63525334D01*
X57130000Y-63653002D01*
X57130000Y-64643000D01*
X57150000Y-64643000D01*
X57150000Y-64897000D01*
X57130000Y-64897000D01*
X57130000Y-64917000D01*
X56876000Y-64917000D01*
X56876000Y-64897000D01*
X56856000Y-64897000D01*
X56856000Y-64643000D01*
X56876000Y-64643000D01*
X56876000Y-63653002D01*
X56716877Y-63525334D01*
X56640028Y-63535006D01*
X56514977Y-63595604D01*
X56507494Y-63589463D01*
X56397180Y-63530498D01*
X56277482Y-63494188D01*
X56153000Y-63481928D01*
X55353000Y-63481928D01*
X55228518Y-63494188D01*
X55108820Y-63530498D01*
X54998506Y-63589463D01*
X54901815Y-63668815D01*
X54822463Y-63765506D01*
X54763498Y-63875820D01*
X54727188Y-63995518D01*
X54714928Y-64120000D01*
X54714928Y-65070126D01*
X49782000Y-60137199D01*
X49782000Y-58274000D01*
X63481928Y-58274000D01*
X63481928Y-59074000D01*
X63494188Y-59198482D01*
X63530498Y-59318180D01*
X63589463Y-59428494D01*
X63668815Y-59525185D01*
X63765506Y-59604537D01*
X63875820Y-59663502D01*
X63995518Y-59699812D01*
X64120000Y-59712072D01*
X65420000Y-59712072D01*
X65544482Y-59699812D01*
X65664180Y-59663502D01*
X65774494Y-59604537D01*
X65871185Y-59525185D01*
X65950537Y-59428494D01*
X66009502Y-59318180D01*
X66045812Y-59198482D01*
X66058072Y-59074000D01*
X66058072Y-58274000D01*
X66045812Y-58149518D01*
X66009502Y-58029820D01*
X65950537Y-57919506D01*
X65944396Y-57912023D01*
X66004994Y-57786972D01*
X66014666Y-57710123D01*
X65886998Y-57551000D01*
X64897000Y-57551000D01*
X64897000Y-57571000D01*
X64643000Y-57571000D01*
X64643000Y-57551000D01*
X63653002Y-57551000D01*
X63525334Y-57710123D01*
X63535006Y-57786972D01*
X63595604Y-57912023D01*
X63589463Y-57919506D01*
X63530498Y-58029820D01*
X63494188Y-58149518D01*
X63481928Y-58274000D01*
X49782000Y-58274000D01*
X49782000Y-57048061D01*
X51543000Y-57048061D01*
X51543000Y-57251939D01*
X51582774Y-57451898D01*
X51660795Y-57640256D01*
X51774063Y-57809774D01*
X51918226Y-57953937D01*
X52087744Y-58067205D01*
X52276102Y-58145226D01*
X52476061Y-58185000D01*
X52679939Y-58185000D01*
X52879898Y-58145226D01*
X53068256Y-58067205D01*
X53237774Y-57953937D01*
X53381937Y-57809774D01*
X53495205Y-57640256D01*
X53573226Y-57451898D01*
X53613000Y-57251939D01*
X53613000Y-57048061D01*
X53573226Y-56848102D01*
X53495205Y-56659744D01*
X53381937Y-56490226D01*
X53237774Y-56346063D01*
X53068256Y-56232795D01*
X52879898Y-56154774D01*
X52679939Y-56115000D01*
X52476061Y-56115000D01*
X52276102Y-56154774D01*
X52087744Y-56232795D01*
X51918226Y-56346063D01*
X51774063Y-56490226D01*
X51660795Y-56659744D01*
X51582774Y-56848102D01*
X51543000Y-57048061D01*
X49782000Y-57048061D01*
X49782000Y-55605637D01*
X49785676Y-55568314D01*
X49782000Y-55530991D01*
X49782000Y-55530982D01*
X49771003Y-55419329D01*
X49727546Y-55276068D01*
X49656974Y-55144039D01*
X49562001Y-55028314D01*
X49533003Y-55004516D01*
X49262488Y-54734002D01*
X49238686Y-54704999D01*
X49122961Y-54610026D01*
X48990932Y-54539454D01*
X48847724Y-54496013D01*
X48792774Y-54441063D01*
X48623256Y-54327795D01*
X48434898Y-54249774D01*
X48234939Y-54210000D01*
X48031061Y-54210000D01*
X47831102Y-54249774D01*
X47642744Y-54327795D01*
X47473226Y-54441063D01*
X47329063Y-54585226D01*
X47215795Y-54754744D01*
X47137774Y-54943102D01*
X47098000Y-55143061D01*
X47098000Y-55346939D01*
X47137774Y-55546898D01*
X47215795Y-55735256D01*
X47270080Y-55816500D01*
X47215795Y-55897744D01*
X47137774Y-56086102D01*
X47098000Y-56286061D01*
X47098000Y-56489939D01*
X47137774Y-56689898D01*
X47215795Y-56878256D01*
X47329063Y-57047774D01*
X47373000Y-57091711D01*
X47373001Y-60287668D01*
X47369324Y-60325000D01*
X47373001Y-60362333D01*
X47383998Y-60473986D01*
X47391835Y-60499822D01*
X47427454Y-60617246D01*
X47498026Y-60749276D01*
X47569201Y-60836002D01*
X47593000Y-60865001D01*
X47621998Y-60888799D01*
X50214878Y-63481679D01*
X50029105Y-63499976D01*
X49834007Y-63559159D01*
X49654203Y-63655266D01*
X49607000Y-63694004D01*
X49559797Y-63655266D01*
X49379992Y-63559159D01*
X49184894Y-63499976D01*
X48982000Y-63479993D01*
X48779105Y-63499976D01*
X48584007Y-63559159D01*
X48404203Y-63655266D01*
X48364062Y-63688209D01*
X48280160Y-63624745D01*
X48094972Y-63535006D01*
X48018123Y-63525334D01*
X47859000Y-63653002D01*
X47859000Y-64643000D01*
X47879000Y-64643000D01*
X47879000Y-64897000D01*
X47859000Y-64897000D01*
X47859000Y-65886998D01*
X48018123Y-66014666D01*
X48094972Y-66004994D01*
X48122585Y-65991613D01*
X46929199Y-67185000D01*
X41390356Y-67185000D01*
X41421000Y-67030939D01*
X41421000Y-66827061D01*
X41381226Y-66627102D01*
X41303205Y-66438744D01*
X41189937Y-66269226D01*
X41045774Y-66125063D01*
X40876256Y-66011795D01*
X40687898Y-65933774D01*
X40487939Y-65894000D01*
X40425801Y-65894000D01*
X40384000Y-65852199D01*
X40384000Y-64120000D01*
X45443928Y-64120000D01*
X45443928Y-65420000D01*
X45456188Y-65544482D01*
X45492498Y-65664180D01*
X45551463Y-65774494D01*
X45630815Y-65871185D01*
X45727506Y-65950537D01*
X45837820Y-66009502D01*
X45957518Y-66045812D01*
X46082000Y-66058072D01*
X46882000Y-66058072D01*
X47006482Y-66045812D01*
X47126180Y-66009502D01*
X47236494Y-65950537D01*
X47243977Y-65944396D01*
X47369028Y-66004994D01*
X47445877Y-66014666D01*
X47605000Y-65886998D01*
X47605000Y-64897000D01*
X47585000Y-64897000D01*
X47585000Y-64643000D01*
X47605000Y-64643000D01*
X47605000Y-63653002D01*
X47445877Y-63525334D01*
X47369028Y-63535006D01*
X47243977Y-63595604D01*
X47236494Y-63589463D01*
X47126180Y-63530498D01*
X47006482Y-63494188D01*
X46882000Y-63481928D01*
X46082000Y-63481928D01*
X45957518Y-63494188D01*
X45837820Y-63530498D01*
X45727506Y-63589463D01*
X45630815Y-63668815D01*
X45551463Y-63765506D01*
X45492498Y-63875820D01*
X45456188Y-63995518D01*
X45443928Y-64120000D01*
X40384000Y-64120000D01*
X40384000Y-60350061D01*
X44431000Y-60350061D01*
X44431000Y-60553939D01*
X44470774Y-60753898D01*
X44548795Y-60942256D01*
X44662063Y-61111774D01*
X44806226Y-61255937D01*
X44975744Y-61369205D01*
X45164102Y-61447226D01*
X45364061Y-61487000D01*
X45567939Y-61487000D01*
X45767898Y-61447226D01*
X45956256Y-61369205D01*
X46125774Y-61255937D01*
X46269937Y-61111774D01*
X46383205Y-60942256D01*
X46461226Y-60753898D01*
X46501000Y-60553939D01*
X46501000Y-60350061D01*
X46461226Y-60150102D01*
X46383205Y-59961744D01*
X46269937Y-59792226D01*
X46125774Y-59648063D01*
X45956256Y-59534795D01*
X45767898Y-59456774D01*
X45567939Y-59417000D01*
X45364061Y-59417000D01*
X45164102Y-59456774D01*
X44975744Y-59534795D01*
X44806226Y-59648063D01*
X44662063Y-59792226D01*
X44548795Y-59961744D01*
X44470774Y-60150102D01*
X44431000Y-60350061D01*
X40384000Y-60350061D01*
X40384000Y-59080061D01*
X40875000Y-59080061D01*
X40875000Y-59283939D01*
X40914774Y-59483898D01*
X40992795Y-59672256D01*
X41106063Y-59841774D01*
X41250226Y-59985937D01*
X41419744Y-60099205D01*
X41608102Y-60177226D01*
X41808061Y-60217000D01*
X42011939Y-60217000D01*
X42211898Y-60177226D01*
X42400256Y-60099205D01*
X42569774Y-59985937D01*
X42713937Y-59841774D01*
X42827205Y-59672256D01*
X42905226Y-59483898D01*
X42945000Y-59283939D01*
X42945000Y-59080061D01*
X42905226Y-58880102D01*
X42827205Y-58691744D01*
X42713937Y-58522226D01*
X42569774Y-58378063D01*
X42400256Y-58264795D01*
X42211898Y-58186774D01*
X42011939Y-58147000D01*
X41808061Y-58147000D01*
X41608102Y-58186774D01*
X41419744Y-58264795D01*
X41250226Y-58378063D01*
X41106063Y-58522226D01*
X40992795Y-58691744D01*
X40914774Y-58880102D01*
X40875000Y-59080061D01*
X40384000Y-59080061D01*
X40384000Y-56964711D01*
X40427937Y-56920774D01*
X40541205Y-56751256D01*
X40619226Y-56562898D01*
X40659000Y-56362939D01*
X40659000Y-56159061D01*
X40619226Y-55959102D01*
X40541205Y-55770744D01*
X40427937Y-55601226D01*
X40283774Y-55457063D01*
X40114256Y-55343795D01*
X39925898Y-55265774D01*
X39868619Y-55254381D01*
X39857226Y-55197102D01*
X39779205Y-55008744D01*
X39665937Y-54839226D01*
X39559756Y-54733045D01*
X41285002Y-53007800D01*
X41923478Y-53007800D01*
X41960800Y-53011476D01*
X41998122Y-53007800D01*
X41998133Y-53007800D01*
X42109786Y-52996803D01*
X42253047Y-52953346D01*
X42385076Y-52882774D01*
X42500801Y-52787801D01*
X42524604Y-52758797D01*
X45304001Y-49979400D01*
X45304001Y-51944337D01*
X45265721Y-52070528D01*
X45259225Y-52136482D01*
X45146796Y-52304745D01*
X45068775Y-52493103D01*
X45029001Y-52693062D01*
X45029001Y-52896940D01*
X45068775Y-53096899D01*
X45146796Y-53285257D01*
X45260064Y-53454775D01*
X45404227Y-53598938D01*
X45573745Y-53712206D01*
X45762103Y-53790227D01*
X45962062Y-53830001D01*
X46165940Y-53830001D01*
X46365899Y-53790227D01*
X46411203Y-53771461D01*
X61626800Y-53771461D01*
X61626800Y-53975339D01*
X61666574Y-54175298D01*
X61744595Y-54363656D01*
X61857863Y-54533174D01*
X61912813Y-54588124D01*
X61956254Y-54731332D01*
X61980837Y-54777321D01*
X62026826Y-54863361D01*
X62098001Y-54950087D01*
X62121800Y-54979086D01*
X62150798Y-55002884D01*
X63497263Y-56349350D01*
X63499976Y-56376895D01*
X63559159Y-56571993D01*
X63655266Y-56751797D01*
X63688209Y-56791938D01*
X63624745Y-56875840D01*
X63535006Y-57061028D01*
X63525334Y-57137877D01*
X63653002Y-57297000D01*
X64643000Y-57297000D01*
X64643000Y-57277000D01*
X64897000Y-57277000D01*
X64897000Y-57297000D01*
X65886998Y-57297000D01*
X66014666Y-57137877D01*
X66004994Y-57061028D01*
X65915255Y-56875840D01*
X65851791Y-56791938D01*
X65884734Y-56751797D01*
X65980841Y-56571993D01*
X66040024Y-56376895D01*
X66060007Y-56174000D01*
X66040024Y-55971105D01*
X65980841Y-55776007D01*
X65884734Y-55596203D01*
X65845996Y-55549000D01*
X65884734Y-55501797D01*
X65980841Y-55321993D01*
X66040024Y-55126895D01*
X66060007Y-54924000D01*
X66040024Y-54721105D01*
X65980841Y-54526007D01*
X65884734Y-54346203D01*
X65755396Y-54188604D01*
X65597797Y-54059266D01*
X65417993Y-53963159D01*
X65222895Y-53903976D01*
X65070838Y-53889000D01*
X64469162Y-53889000D01*
X64317105Y-53903976D01*
X64122007Y-53963159D01*
X63942203Y-54059266D01*
X63784604Y-54188604D01*
X63655266Y-54346203D01*
X63651244Y-54353728D01*
X63603071Y-54305555D01*
X63657026Y-54175298D01*
X63696800Y-53975339D01*
X63696800Y-53771461D01*
X63657026Y-53571502D01*
X63579005Y-53383144D01*
X63465737Y-53213626D01*
X63321574Y-53069463D01*
X63152056Y-52956195D01*
X62963698Y-52878174D01*
X62763739Y-52838400D01*
X62559861Y-52838400D01*
X62359902Y-52878174D01*
X62171544Y-52956195D01*
X62002026Y-53069463D01*
X61857863Y-53213626D01*
X61744595Y-53383144D01*
X61666574Y-53571502D01*
X61626800Y-53771461D01*
X46411203Y-53771461D01*
X46554257Y-53712206D01*
X46723775Y-53598938D01*
X46867938Y-53454775D01*
X46981206Y-53285257D01*
X47059227Y-53096899D01*
X47099001Y-52896940D01*
X47099001Y-52693062D01*
X47059227Y-52493103D01*
X46981206Y-52304745D01*
X46923999Y-52219128D01*
X46924001Y-52219107D01*
X46924001Y-52219104D01*
X46927920Y-52179316D01*
X46924001Y-52139528D01*
X46924001Y-50946000D01*
X47091939Y-50946000D01*
X47291898Y-50906226D01*
X47480256Y-50828205D01*
X47498000Y-50816349D01*
X47515744Y-50828205D01*
X47704102Y-50906226D01*
X47904061Y-50946000D01*
X48107939Y-50946000D01*
X48307898Y-50906226D01*
X48466000Y-50840738D01*
X48466000Y-50911300D01*
X48358795Y-51071744D01*
X48280774Y-51260102D01*
X48241000Y-51460061D01*
X48241000Y-51663939D01*
X48280774Y-51863898D01*
X48358795Y-52052256D01*
X48472063Y-52221774D01*
X48616226Y-52365937D01*
X48785744Y-52479205D01*
X48974102Y-52557226D01*
X49174061Y-52597000D01*
X49265764Y-52597000D01*
X49296774Y-52752898D01*
X49374795Y-52941256D01*
X49488063Y-53110774D01*
X49632226Y-53254937D01*
X49801744Y-53368205D01*
X49990102Y-53446226D01*
X50190061Y-53486000D01*
X50393939Y-53486000D01*
X50593898Y-53446226D01*
X50782256Y-53368205D01*
X50951774Y-53254937D01*
X51095937Y-53110774D01*
X51209205Y-52941256D01*
X51287226Y-52752898D01*
X51327000Y-52552939D01*
X51327000Y-52349061D01*
X51287226Y-52149102D01*
X51209205Y-51960744D01*
X51102000Y-51800300D01*
X51102000Y-51092746D01*
X51128810Y-51114748D01*
X51269526Y-51189962D01*
X51422211Y-51236279D01*
X51541208Y-51247999D01*
X51541210Y-51247999D01*
X51580998Y-51251918D01*
X51620786Y-51247999D01*
X58615213Y-51247999D01*
X58655001Y-51251918D01*
X58694789Y-51247999D01*
X58694792Y-51247999D01*
X58813789Y-51236279D01*
X58933384Y-51200000D01*
X59029939Y-51200000D01*
X59229898Y-51160226D01*
X59418256Y-51082205D01*
X59578608Y-50975061D01*
X66171000Y-50975061D01*
X66171000Y-51178939D01*
X66210774Y-51378898D01*
X66288795Y-51567256D01*
X66402063Y-51736774D01*
X66546226Y-51880937D01*
X66715744Y-51994205D01*
X66904102Y-52072226D01*
X67104061Y-52112000D01*
X67307939Y-52112000D01*
X67507898Y-52072226D01*
X67696256Y-51994205D01*
X67865774Y-51880937D01*
X68009937Y-51736774D01*
X68123205Y-51567256D01*
X68201226Y-51378898D01*
X68241000Y-51178939D01*
X68241000Y-50975061D01*
X68201226Y-50775102D01*
X68123205Y-50586744D01*
X68009937Y-50417226D01*
X67865774Y-50273063D01*
X67696256Y-50159795D01*
X67507898Y-50081774D01*
X67307939Y-50042000D01*
X67104061Y-50042000D01*
X66904102Y-50081774D01*
X66715744Y-50159795D01*
X66546226Y-50273063D01*
X66402063Y-50417226D01*
X66288795Y-50586744D01*
X66210774Y-50775102D01*
X66171000Y-50975061D01*
X59578608Y-50975061D01*
X59587774Y-50968937D01*
X59731937Y-50824774D01*
X59845205Y-50655256D01*
X59923226Y-50466898D01*
X59963000Y-50266939D01*
X59963000Y-50063061D01*
X59923226Y-49863102D01*
X59845205Y-49674744D01*
X59731937Y-49505226D01*
X59587774Y-49361063D01*
X59418256Y-49247795D01*
X59229898Y-49169774D01*
X59029939Y-49130000D01*
X58826061Y-49130000D01*
X58626102Y-49169774D01*
X58437744Y-49247795D01*
X58268226Y-49361063D01*
X58124063Y-49505226D01*
X58042029Y-49627999D01*
X52131448Y-49627999D01*
X52098205Y-49547744D01*
X51984937Y-49378226D01*
X51840774Y-49234063D01*
X51671256Y-49120795D01*
X51482898Y-49042774D01*
X51282939Y-49003000D01*
X51215999Y-49003000D01*
X51215999Y-45745061D01*
X54210000Y-45745061D01*
X54210000Y-45948939D01*
X54249774Y-46148898D01*
X54327795Y-46337256D01*
X54441063Y-46506774D01*
X54585226Y-46650937D01*
X54754744Y-46764205D01*
X54943102Y-46842226D01*
X55143061Y-46882000D01*
X55346939Y-46882000D01*
X55546898Y-46842226D01*
X55735256Y-46764205D01*
X55904774Y-46650937D01*
X56048937Y-46506774D01*
X56162205Y-46337256D01*
X56240226Y-46148898D01*
X56280000Y-45948939D01*
X56280000Y-45745061D01*
X56240226Y-45545102D01*
X56162205Y-45356744D01*
X56048937Y-45187226D01*
X55904774Y-45043063D01*
X55735256Y-44929795D01*
X55546898Y-44851774D01*
X55346939Y-44812000D01*
X55143061Y-44812000D01*
X54943102Y-44851774D01*
X54754744Y-44929795D01*
X54585226Y-45043063D01*
X54441063Y-45187226D01*
X54327795Y-45356744D01*
X54249774Y-45545102D01*
X54210000Y-45745061D01*
X51215999Y-45745061D01*
X51215999Y-44332345D01*
X54392619Y-41155726D01*
X54423528Y-41130360D01*
X54524749Y-41007021D01*
X54599963Y-40866305D01*
X54646280Y-40713620D01*
X54658000Y-40594623D01*
X54658000Y-40594621D01*
X54661919Y-40554833D01*
X54658000Y-40515045D01*
X54658000Y-39928512D01*
X55863129Y-41133642D01*
X55900774Y-41322898D01*
X55978795Y-41511256D01*
X56092063Y-41680774D01*
X56236226Y-41824937D01*
X56405744Y-41938205D01*
X56594102Y-42016226D01*
X56794061Y-42056000D01*
X56997939Y-42056000D01*
X57197898Y-42016226D01*
X57386256Y-41938205D01*
X57555774Y-41824937D01*
X57699937Y-41680774D01*
X57813205Y-41511256D01*
X57891226Y-41322898D01*
X57931000Y-41122939D01*
X57931000Y-40919061D01*
X57891226Y-40719102D01*
X57813205Y-40530744D01*
X57699937Y-40361226D01*
X57555774Y-40217063D01*
X57386256Y-40103795D01*
X57197898Y-40025774D01*
X57008642Y-39988129D01*
X56043926Y-39023413D01*
X63361192Y-39023413D01*
X63456956Y-39287814D01*
X63746571Y-39428704D01*
X64058108Y-39510384D01*
X64379595Y-39529718D01*
X64698675Y-39485961D01*
X65003088Y-39380795D01*
X65177044Y-39287814D01*
X65244315Y-39102080D01*
X67232525Y-39102080D01*
X67316208Y-39356261D01*
X67588775Y-39487158D01*
X67881642Y-39562365D01*
X68183553Y-39578991D01*
X68482907Y-39536397D01*
X68768199Y-39436222D01*
X68917792Y-39356261D01*
X69001475Y-39102080D01*
X68117000Y-38217605D01*
X67232525Y-39102080D01*
X65244315Y-39102080D01*
X65272808Y-39023413D01*
X64317000Y-38067605D01*
X63361192Y-39023413D01*
X56043926Y-39023413D01*
X55420000Y-38399488D01*
X55420000Y-37950595D01*
X62675282Y-37950595D01*
X62719039Y-38269675D01*
X62824205Y-38574088D01*
X62917186Y-38748044D01*
X63181587Y-38843808D01*
X64137395Y-37888000D01*
X63181587Y-36932192D01*
X62917186Y-37027956D01*
X62776296Y-37317571D01*
X62694616Y-37629108D01*
X62675282Y-37950595D01*
X55420000Y-37950595D01*
X55420000Y-36752587D01*
X63361192Y-36752587D01*
X64317000Y-37708395D01*
X64331143Y-37694253D01*
X64510748Y-37873858D01*
X64496605Y-37888000D01*
X65452413Y-38843808D01*
X65716814Y-38748044D01*
X65857704Y-38458429D01*
X65939384Y-38146892D01*
X65941930Y-38104553D01*
X66576009Y-38104553D01*
X66618603Y-38403907D01*
X66718778Y-38689199D01*
X66798739Y-38838792D01*
X67052920Y-38922475D01*
X67937395Y-38038000D01*
X67052920Y-37153525D01*
X66798739Y-37237208D01*
X66667842Y-37509775D01*
X66592635Y-37802642D01*
X66576009Y-38104553D01*
X65941930Y-38104553D01*
X65958718Y-37825405D01*
X65919398Y-37538683D01*
X66026774Y-37466937D01*
X66170937Y-37322774D01*
X66284205Y-37153256D01*
X66358488Y-36973920D01*
X67232525Y-36973920D01*
X68117000Y-37858395D01*
X69001475Y-36973920D01*
X68917792Y-36719739D01*
X68645225Y-36588842D01*
X68352358Y-36513635D01*
X68050447Y-36497009D01*
X67751093Y-36539603D01*
X67465801Y-36639778D01*
X67316208Y-36719739D01*
X67232525Y-36973920D01*
X66358488Y-36973920D01*
X66362226Y-36964898D01*
X66402000Y-36764939D01*
X66402000Y-36561061D01*
X66362226Y-36361102D01*
X66284205Y-36172744D01*
X66170937Y-36003226D01*
X66026774Y-35859063D01*
X65857256Y-35745795D01*
X65668898Y-35667774D01*
X65468939Y-35628000D01*
X65265061Y-35628000D01*
X65065102Y-35667774D01*
X64876744Y-35745795D01*
X64707226Y-35859063D01*
X64563063Y-36003226D01*
X64449795Y-36172744D01*
X64415326Y-36255960D01*
X64254405Y-36246282D01*
X63935325Y-36290039D01*
X63630912Y-36395205D01*
X63456956Y-36488186D01*
X63361192Y-36752587D01*
X55420000Y-36752587D01*
X55420000Y-31573413D01*
X63361192Y-31573413D01*
X63456956Y-31837814D01*
X63746571Y-31978704D01*
X64058108Y-32060384D01*
X64379595Y-32079718D01*
X64417198Y-32074561D01*
X64449795Y-32153256D01*
X64563063Y-32322774D01*
X64707226Y-32466937D01*
X64876744Y-32580205D01*
X65065102Y-32658226D01*
X65265061Y-32698000D01*
X65468939Y-32698000D01*
X65668898Y-32658226D01*
X65857256Y-32580205D01*
X66026774Y-32466937D01*
X66170937Y-32322774D01*
X66284205Y-32153256D01*
X66362226Y-31964898D01*
X66402000Y-31764939D01*
X66402000Y-31561061D01*
X66362226Y-31361102D01*
X66358489Y-31352080D01*
X67232525Y-31352080D01*
X67316208Y-31606261D01*
X67588775Y-31737158D01*
X67881642Y-31812365D01*
X68183553Y-31828991D01*
X68482907Y-31786397D01*
X68768199Y-31686222D01*
X68917792Y-31606261D01*
X69001475Y-31352080D01*
X68117000Y-30467605D01*
X67232525Y-31352080D01*
X66358489Y-31352080D01*
X66284205Y-31172744D01*
X66170937Y-31003226D01*
X66026774Y-30859063D01*
X65916231Y-30785201D01*
X65939384Y-30696892D01*
X65958718Y-30375405D01*
X65955859Y-30354553D01*
X66576009Y-30354553D01*
X66618603Y-30653907D01*
X66718778Y-30939199D01*
X66798739Y-31088792D01*
X67052920Y-31172475D01*
X67937395Y-30288000D01*
X67052920Y-29403525D01*
X66798739Y-29487208D01*
X66667842Y-29759775D01*
X66592635Y-30052642D01*
X66576009Y-30354553D01*
X65955859Y-30354553D01*
X65914961Y-30056325D01*
X65809795Y-29751912D01*
X65716814Y-29577956D01*
X65452413Y-29482192D01*
X64496605Y-30438000D01*
X64510748Y-30452143D01*
X64331143Y-30631748D01*
X64317000Y-30617605D01*
X63361192Y-31573413D01*
X55420000Y-31573413D01*
X55420000Y-30773787D01*
X55423919Y-30733999D01*
X55419807Y-30692251D01*
X55408280Y-30575212D01*
X55385645Y-30500595D01*
X62675282Y-30500595D01*
X62719039Y-30819675D01*
X62824205Y-31124088D01*
X62917186Y-31298044D01*
X63181587Y-31393808D01*
X64137395Y-30438000D01*
X63181587Y-29482192D01*
X62917186Y-29577956D01*
X62776296Y-29867571D01*
X62694616Y-30179108D01*
X62675282Y-30500595D01*
X55385645Y-30500595D01*
X55361963Y-30422527D01*
X55296148Y-30299395D01*
X55286749Y-30281810D01*
X55236449Y-30220520D01*
X55185528Y-30158472D01*
X55154618Y-30133105D01*
X54324100Y-29302587D01*
X63361192Y-29302587D01*
X64317000Y-30258395D01*
X65272808Y-29302587D01*
X65244316Y-29223920D01*
X67232525Y-29223920D01*
X68117000Y-30108395D01*
X69001475Y-29223920D01*
X68917792Y-28969739D01*
X68645225Y-28838842D01*
X68352358Y-28763635D01*
X68050447Y-28747009D01*
X67751093Y-28789603D01*
X67465801Y-28889778D01*
X67316208Y-28969739D01*
X67232525Y-29223920D01*
X65244316Y-29223920D01*
X65177044Y-29038186D01*
X64887429Y-28897296D01*
X64575892Y-28815616D01*
X64254405Y-28796282D01*
X63935325Y-28840039D01*
X63630912Y-28945205D01*
X63456956Y-29038186D01*
X63361192Y-29302587D01*
X54324100Y-29302587D01*
X51199760Y-26178248D01*
X51222537Y-26150494D01*
X51281502Y-26040180D01*
X51317812Y-25920482D01*
X51330072Y-25796000D01*
X51330072Y-24686000D01*
X54668131Y-24686000D01*
X54665976Y-24693105D01*
X54651000Y-24845162D01*
X54651000Y-25446837D01*
X54665976Y-25598894D01*
X54725159Y-25793992D01*
X54821266Y-25973797D01*
X54950604Y-26131396D01*
X55108203Y-26260734D01*
X55288007Y-26356841D01*
X55483105Y-26416024D01*
X55686000Y-26436007D01*
X55888894Y-26416024D01*
X56083992Y-26356841D01*
X56263797Y-26260734D01*
X56311000Y-26221996D01*
X56358203Y-26260734D01*
X56538007Y-26356841D01*
X56733105Y-26416024D01*
X56936000Y-26436007D01*
X57138894Y-26416024D01*
X57333992Y-26356841D01*
X57513797Y-26260734D01*
X57553938Y-26227791D01*
X57637840Y-26291255D01*
X57823028Y-26380994D01*
X57899877Y-26390666D01*
X58059000Y-26262998D01*
X58059000Y-25273000D01*
X58039000Y-25273000D01*
X58039000Y-25019000D01*
X58059000Y-25019000D01*
X58059000Y-24029002D01*
X58313000Y-24029002D01*
X58313000Y-25019000D01*
X58333000Y-25019000D01*
X58333000Y-25273000D01*
X58313000Y-25273000D01*
X58313000Y-26262998D01*
X58472123Y-26390666D01*
X58548972Y-26380994D01*
X58674023Y-26320396D01*
X58681506Y-26326537D01*
X58791820Y-26385502D01*
X58911518Y-26421812D01*
X59036000Y-26434072D01*
X59836000Y-26434072D01*
X59960482Y-26421812D01*
X60080180Y-26385502D01*
X60190494Y-26326537D01*
X60287185Y-26247185D01*
X60366537Y-26150494D01*
X60425502Y-26040180D01*
X60461812Y-25920482D01*
X60474072Y-25796000D01*
X60474072Y-24496000D01*
X60461812Y-24371518D01*
X60425502Y-24251820D01*
X60366537Y-24141506D01*
X60287185Y-24044815D01*
X60190494Y-23965463D01*
X60080180Y-23906498D01*
X59960482Y-23870188D01*
X59836000Y-23857928D01*
X59036000Y-23857928D01*
X58911518Y-23870188D01*
X58791820Y-23906498D01*
X58681506Y-23965463D01*
X58674023Y-23971604D01*
X58548972Y-23911006D01*
X58472123Y-23901334D01*
X58313000Y-24029002D01*
X58059000Y-24029002D01*
X57899877Y-23901334D01*
X57823028Y-23911006D01*
X57725499Y-23958267D01*
X57687963Y-23834527D01*
X57652951Y-23769024D01*
X57612749Y-23693810D01*
X57558116Y-23627240D01*
X57511528Y-23570472D01*
X57480619Y-23545106D01*
X56716889Y-22781377D01*
X56691518Y-22750462D01*
X56568179Y-22649241D01*
X56427463Y-22574027D01*
X56274778Y-22527710D01*
X56155781Y-22515990D01*
X56155778Y-22515990D01*
X56115990Y-22512071D01*
X56076202Y-22515990D01*
X45531966Y-22515990D01*
X45492178Y-22512071D01*
X45452390Y-22515990D01*
X45452388Y-22515990D01*
X45333391Y-22527710D01*
X45180706Y-22574027D01*
X45123055Y-22604842D01*
X45039989Y-22649241D01*
X45010180Y-22673705D01*
X44916651Y-22750462D01*
X44891284Y-22781372D01*
X44070784Y-23601873D01*
X44039874Y-23627240D01*
X44014509Y-23658148D01*
X43938652Y-23750579D01*
X43877110Y-23865718D01*
X43863439Y-23891295D01*
X43819911Y-24034788D01*
X43817122Y-24043981D01*
X43801482Y-24202768D01*
X43805402Y-24242566D01*
X43805401Y-30491088D01*
X43658600Y-30637889D01*
X43585774Y-30565063D01*
X43416256Y-30451795D01*
X43227898Y-30373774D01*
X43027939Y-30334000D01*
X42824061Y-30334000D01*
X42624102Y-30373774D01*
X42435744Y-30451795D01*
X42266226Y-30565063D01*
X42122063Y-30709226D01*
X42008795Y-30878744D01*
X41930774Y-31067102D01*
X41893129Y-31256358D01*
X40939488Y-32210000D01*
X39545000Y-32210000D01*
X39545000Y-31408791D01*
X39548919Y-31369000D01*
X39533280Y-31210212D01*
X39486963Y-31057526D01*
X39426029Y-30943527D01*
X39411749Y-30916811D01*
X39310528Y-30793472D01*
X39279614Y-30768102D01*
X38985700Y-30474188D01*
X38960328Y-30443272D01*
X38836989Y-30342051D01*
X38696273Y-30266837D01*
X38543588Y-30220520D01*
X38424591Y-30208800D01*
X38424588Y-30208800D01*
X38384800Y-30204881D01*
X38345012Y-30208800D01*
X34249500Y-30208800D01*
X34089056Y-30101595D01*
X33900698Y-30023574D01*
X33700739Y-29983800D01*
X33496861Y-29983800D01*
X33304000Y-30022162D01*
X33304000Y-29184261D01*
X38106400Y-29184261D01*
X38106400Y-29388139D01*
X38146174Y-29588098D01*
X38224195Y-29776456D01*
X38337463Y-29945974D01*
X38481626Y-30090137D01*
X38651144Y-30203405D01*
X38839502Y-30281426D01*
X39039461Y-30321200D01*
X39243339Y-30321200D01*
X39443298Y-30281426D01*
X39631656Y-30203405D01*
X39801174Y-30090137D01*
X39945337Y-29945974D01*
X40058605Y-29776456D01*
X40136626Y-29588098D01*
X40176400Y-29388139D01*
X40176400Y-29184261D01*
X40136626Y-28984302D01*
X40058605Y-28795944D01*
X39945337Y-28626426D01*
X39801174Y-28482263D01*
X39631656Y-28368995D01*
X39443298Y-28290974D01*
X39243339Y-28251200D01*
X39039461Y-28251200D01*
X38839502Y-28290974D01*
X38651144Y-28368995D01*
X38481626Y-28482263D01*
X38337463Y-28626426D01*
X38224195Y-28795944D01*
X38146174Y-28984302D01*
X38106400Y-29184261D01*
X33304000Y-29184261D01*
X33304000Y-26034661D01*
X37750800Y-26034661D01*
X37750800Y-26238539D01*
X37790574Y-26438498D01*
X37868595Y-26626856D01*
X37981863Y-26796374D01*
X38126026Y-26940537D01*
X38295544Y-27053805D01*
X38483902Y-27131826D01*
X38683861Y-27171600D01*
X38887739Y-27171600D01*
X39087698Y-27131826D01*
X39276056Y-27053805D01*
X39445574Y-26940537D01*
X39589737Y-26796374D01*
X39703005Y-26626856D01*
X39781026Y-26438498D01*
X39820800Y-26238539D01*
X39820800Y-26034661D01*
X39781026Y-25834702D01*
X39703005Y-25646344D01*
X39589737Y-25476826D01*
X39445574Y-25332663D01*
X39276056Y-25219395D01*
X39087698Y-25141374D01*
X38887739Y-25101600D01*
X38683861Y-25101600D01*
X38483902Y-25141374D01*
X38295544Y-25219395D01*
X38126026Y-25332663D01*
X37981863Y-25476826D01*
X37868595Y-25646344D01*
X37790574Y-25834702D01*
X37750800Y-26034661D01*
X33304000Y-26034661D01*
X33304000Y-25985469D01*
X33308281Y-25942000D01*
X33304000Y-25898531D01*
X33304000Y-25898523D01*
X33291195Y-25768510D01*
X33240589Y-25601687D01*
X33158411Y-25447941D01*
X33134210Y-25418452D01*
X33075532Y-25346953D01*
X33075530Y-25346951D01*
X33047817Y-25313183D01*
X33014049Y-25285470D01*
X32661072Y-24932493D01*
X32661072Y-24496000D01*
X32655012Y-24434461D01*
X40544800Y-24434461D01*
X40544800Y-24638339D01*
X40584574Y-24838298D01*
X40659424Y-25019000D01*
X40584574Y-25199702D01*
X40544800Y-25399661D01*
X40544800Y-25603539D01*
X40584574Y-25803498D01*
X40662595Y-25991856D01*
X40674451Y-26009600D01*
X40662595Y-26027344D01*
X40584574Y-26215702D01*
X40544800Y-26415661D01*
X40544800Y-26619539D01*
X40584574Y-26819498D01*
X40662595Y-27007856D01*
X40775863Y-27177374D01*
X40920026Y-27321537D01*
X41089544Y-27434805D01*
X41277902Y-27512826D01*
X41477861Y-27552600D01*
X41681739Y-27552600D01*
X41881698Y-27512826D01*
X42070056Y-27434805D01*
X42087800Y-27422949D01*
X42105544Y-27434805D01*
X42293902Y-27512826D01*
X42493861Y-27552600D01*
X42697739Y-27552600D01*
X42897698Y-27512826D01*
X43086056Y-27434805D01*
X43255574Y-27321537D01*
X43399737Y-27177374D01*
X43513005Y-27007856D01*
X43591026Y-26819498D01*
X43630800Y-26619539D01*
X43630800Y-26415661D01*
X43591026Y-26215702D01*
X43513005Y-26027344D01*
X43501149Y-26009600D01*
X43513005Y-25991856D01*
X43591026Y-25803498D01*
X43630800Y-25603539D01*
X43630800Y-25399661D01*
X43591026Y-25199702D01*
X43516176Y-25019000D01*
X43591026Y-24838298D01*
X43630800Y-24638339D01*
X43630800Y-24434461D01*
X43591026Y-24234502D01*
X43513005Y-24046144D01*
X43399737Y-23876626D01*
X43255574Y-23732463D01*
X43086056Y-23619195D01*
X42897698Y-23541174D01*
X42697739Y-23501400D01*
X42493861Y-23501400D01*
X42293902Y-23541174D01*
X42105544Y-23619195D01*
X42087800Y-23631051D01*
X42070056Y-23619195D01*
X41881698Y-23541174D01*
X41681739Y-23501400D01*
X41477861Y-23501400D01*
X41277902Y-23541174D01*
X41089544Y-23619195D01*
X40920026Y-23732463D01*
X40775863Y-23876626D01*
X40662595Y-24046144D01*
X40584574Y-24234502D01*
X40544800Y-24434461D01*
X32655012Y-24434461D01*
X32648812Y-24371518D01*
X32612502Y-24251820D01*
X32553537Y-24141506D01*
X32474185Y-24044815D01*
X32377494Y-23965463D01*
X32267180Y-23906498D01*
X32147482Y-23870188D01*
X32023000Y-23857928D01*
X31223000Y-23857928D01*
X31098518Y-23870188D01*
X30978820Y-23906498D01*
X30868506Y-23965463D01*
X30861023Y-23971604D01*
X30735972Y-23911006D01*
X30659123Y-23901334D01*
X30500000Y-24029002D01*
X30500000Y-25019000D01*
X30520000Y-25019000D01*
X30520000Y-25273000D01*
X30500000Y-25273000D01*
X30500000Y-26262998D01*
X30659123Y-26390666D01*
X30735972Y-26380994D01*
X30861023Y-26320396D01*
X30868506Y-26326537D01*
X30978820Y-26385502D01*
X31098518Y-26421812D01*
X31223000Y-26434072D01*
X31534001Y-26434072D01*
X31534000Y-46372267D01*
X31470717Y-46449377D01*
X31365324Y-46646553D01*
X31300423Y-46860501D01*
X31284000Y-47027248D01*
X31284000Y-49170751D01*
X31300423Y-49337498D01*
X31365324Y-49551446D01*
X31470716Y-49748623D01*
X31612551Y-49921449D01*
X31785377Y-50063284D01*
X31982553Y-50168676D01*
X32196501Y-50233577D01*
X32419000Y-50255491D01*
X32641498Y-50233577D01*
X32855446Y-50168676D01*
X33052623Y-50063284D01*
X33225449Y-49921449D01*
X33367284Y-49748623D01*
X33472676Y-49551447D01*
X33537577Y-49337499D01*
X33554000Y-49170752D01*
X33554000Y-47027248D01*
X33537577Y-46860501D01*
X33472676Y-46646553D01*
X33367284Y-46449377D01*
X33304000Y-46372265D01*
X33304000Y-44773194D01*
X33308263Y-44779574D01*
X33452426Y-44923737D01*
X33621944Y-45037005D01*
X33810302Y-45115026D01*
X34010261Y-45154800D01*
X34214139Y-45154800D01*
X34242000Y-45149258D01*
X34242000Y-45426212D01*
X34238081Y-45466000D01*
X34242000Y-45505788D01*
X34242000Y-45505790D01*
X34253720Y-45624787D01*
X34300037Y-45777472D01*
X34335049Y-45842975D01*
X34375251Y-45918189D01*
X34390952Y-45937320D01*
X34476472Y-46041528D01*
X34507388Y-46066900D01*
X34541488Y-46101000D01*
X33782000Y-46101000D01*
X33757224Y-46103440D01*
X33733399Y-46110667D01*
X33711443Y-46122403D01*
X33692197Y-46138197D01*
X33676403Y-46157443D01*
X33664667Y-46179399D01*
X33657440Y-46203224D01*
X33655000Y-46228000D01*
X33655000Y-53393539D01*
X33545744Y-53438795D01*
X33376226Y-53552063D01*
X33232063Y-53696226D01*
X33118795Y-53865744D01*
X33040774Y-54054102D01*
X33001000Y-54254061D01*
X33001000Y-54457939D01*
X33040774Y-54657898D01*
X33118795Y-54846256D01*
X33232063Y-55015774D01*
X33376226Y-55159937D01*
X33545744Y-55273205D01*
X33734102Y-55351226D01*
X33934061Y-55391000D01*
X34137939Y-55391000D01*
X34337898Y-55351226D01*
X34526256Y-55273205D01*
X34695774Y-55159937D01*
X34839937Y-55015774D01*
X34953205Y-54846256D01*
X35031226Y-54657898D01*
X35071000Y-54457939D01*
X35071000Y-54254061D01*
X35031226Y-54054102D01*
X34953205Y-53865744D01*
X34856490Y-53721000D01*
X37846000Y-53721000D01*
X37870776Y-53718560D01*
X37894601Y-53711333D01*
X37916557Y-53699597D01*
X37935803Y-53683803D01*
X37951597Y-53664557D01*
X37963333Y-53642601D01*
X37970560Y-53618776D01*
X37973000Y-53594000D01*
X37973000Y-51816000D01*
X40327198Y-51816000D01*
X37552199Y-54591000D01*
X37490061Y-54591000D01*
X37290102Y-54630774D01*
X37101744Y-54708795D01*
X36932226Y-54822063D01*
X36788063Y-54966226D01*
X36674795Y-55135744D01*
X36596774Y-55324102D01*
X36557000Y-55524061D01*
X36557000Y-55727939D01*
X36596774Y-55927898D01*
X36674795Y-56116256D01*
X36788063Y-56285774D01*
X36932226Y-56429937D01*
X37101744Y-56543205D01*
X37290102Y-56621226D01*
X37490061Y-56661000D01*
X37693939Y-56661000D01*
X37893898Y-56621226D01*
X38082256Y-56543205D01*
X38102000Y-56530012D01*
X38102001Y-66764668D01*
X38098324Y-66802000D01*
X38102001Y-66839333D01*
X38112998Y-66950986D01*
X38123031Y-66984061D01*
X38156454Y-67094246D01*
X38227026Y-67226276D01*
X38291420Y-67304739D01*
X38322000Y-67342001D01*
X38350998Y-67365799D01*
X39441201Y-68456003D01*
X39464999Y-68485001D01*
X39493997Y-68508799D01*
X39580723Y-68579974D01*
X39656635Y-68620550D01*
X39712753Y-68650546D01*
X39856014Y-68694003D01*
X39967667Y-68705000D01*
X39967676Y-68705000D01*
X40004999Y-68708676D01*
X40042322Y-68705000D01*
X41640987Y-68705000D01*
X41627795Y-68724744D01*
X41549774Y-68913102D01*
X41510000Y-69113061D01*
X41510000Y-69315000D01*
X38926790Y-69315000D01*
X38961626Y-69230898D01*
X39001400Y-69030939D01*
X39001400Y-68827061D01*
X38961626Y-68627102D01*
X38883605Y-68438744D01*
X38770337Y-68269226D01*
X38626174Y-68125063D01*
X38456656Y-68011795D01*
X38268298Y-67933774D01*
X38068339Y-67894000D01*
X37864461Y-67894000D01*
X37664502Y-67933774D01*
X37476144Y-68011795D01*
X37306626Y-68125063D01*
X37162463Y-68269226D01*
X37049195Y-68438744D01*
X36971174Y-68627102D01*
X36931400Y-68827061D01*
X36931400Y-69030939D01*
X36971174Y-69230898D01*
X37006010Y-69315000D01*
X31961644Y-69315000D01*
X31983226Y-69262898D01*
X32023000Y-69062939D01*
X32023000Y-68859061D01*
X31983226Y-68659102D01*
X31905205Y-68470744D01*
X31791937Y-68301226D01*
X31647774Y-68157063D01*
X31478256Y-68043795D01*
X31289898Y-67965774D01*
X31089939Y-67926000D01*
X30886061Y-67926000D01*
X30686102Y-67965774D01*
X30497744Y-68043795D01*
X30328226Y-68157063D01*
X30184063Y-68301226D01*
X30070795Y-68470744D01*
X29992774Y-68659102D01*
X29953000Y-68859061D01*
X29953000Y-69062939D01*
X29992774Y-69262898D01*
X30014356Y-69315000D01*
X25935564Y-69315000D01*
X26120670Y-69217555D01*
X26161088Y-69190548D01*
X26521276Y-68700881D01*
X26335584Y-68515189D01*
X26356830Y-68500993D01*
X26500993Y-68356830D01*
X26515189Y-68335584D01*
X26700881Y-68521276D01*
X27190548Y-68161088D01*
X27550849Y-67497118D01*
X27774694Y-66775615D01*
X27853480Y-66024305D01*
X27784178Y-65272062D01*
X27569452Y-64547792D01*
X27217555Y-63879330D01*
X27190548Y-63838912D01*
X26700881Y-63478724D01*
X26515189Y-63664416D01*
X26500993Y-63643170D01*
X26356830Y-63499007D01*
X26335584Y-63484811D01*
X26521276Y-63299119D01*
X26161088Y-62809452D01*
X25809311Y-62618561D01*
X26633500Y-62618561D01*
X26633500Y-62822439D01*
X26673274Y-63022398D01*
X26751295Y-63210756D01*
X26864563Y-63380274D01*
X27008726Y-63524437D01*
X27178244Y-63637705D01*
X27366602Y-63715726D01*
X27566561Y-63755500D01*
X27770439Y-63755500D01*
X27970398Y-63715726D01*
X28158756Y-63637705D01*
X28328274Y-63524437D01*
X28472437Y-63380274D01*
X28585705Y-63210756D01*
X28663726Y-63022398D01*
X28703500Y-62822439D01*
X28703500Y-62618561D01*
X28663726Y-62418602D01*
X28585705Y-62230244D01*
X28472437Y-62060726D01*
X28328274Y-61916563D01*
X28158756Y-61803295D01*
X27970398Y-61725274D01*
X27770439Y-61685500D01*
X27566561Y-61685500D01*
X27366602Y-61725274D01*
X27178244Y-61803295D01*
X27008726Y-61916563D01*
X26864563Y-62060726D01*
X26751295Y-62230244D01*
X26673274Y-62418602D01*
X26633500Y-62618561D01*
X25809311Y-62618561D01*
X25497118Y-62449151D01*
X24775615Y-62225306D01*
X24024305Y-62146520D01*
X23272062Y-62215822D01*
X22547792Y-62430548D01*
X21879330Y-62782445D01*
X21838912Y-62809452D01*
X21478724Y-63299119D01*
X21664416Y-63484811D01*
X21643170Y-63499007D01*
X21499007Y-63643170D01*
X21484811Y-63664416D01*
X21299119Y-63478724D01*
X20809452Y-63838912D01*
X20685000Y-64068255D01*
X20685000Y-59959480D01*
X24365126Y-59959480D01*
X24485014Y-60244336D01*
X24808710Y-60405199D01*
X25157569Y-60499822D01*
X25518184Y-60524567D01*
X25876698Y-60478485D01*
X26219333Y-60363346D01*
X26441986Y-60244336D01*
X26561874Y-59959480D01*
X25463500Y-58861105D01*
X24365126Y-59959480D01*
X20685000Y-59959480D01*
X20685000Y-58736184D01*
X23620433Y-58736184D01*
X23666515Y-59094698D01*
X23781654Y-59437333D01*
X23900664Y-59659986D01*
X24185520Y-59779874D01*
X25283895Y-58681500D01*
X25643105Y-58681500D01*
X26741480Y-59779874D01*
X27026336Y-59659986D01*
X27187199Y-59336290D01*
X27281822Y-58987431D01*
X27306567Y-58626816D01*
X27260485Y-58268302D01*
X27145346Y-57925667D01*
X27026336Y-57703014D01*
X26741480Y-57583126D01*
X25643105Y-58681500D01*
X25283895Y-58681500D01*
X24185520Y-57583126D01*
X23900664Y-57703014D01*
X23739801Y-58026710D01*
X23645178Y-58375569D01*
X23620433Y-58736184D01*
X20685000Y-58736184D01*
X20685000Y-48356890D01*
X21018524Y-48356890D01*
X21063175Y-48504099D01*
X21188359Y-48766920D01*
X21362412Y-49000269D01*
X21578645Y-49195178D01*
X21828748Y-49344157D01*
X22103109Y-49441481D01*
X22333000Y-49320814D01*
X22333000Y-48127000D01*
X21139845Y-48127000D01*
X21018524Y-48356890D01*
X20685000Y-48356890D01*
X20685000Y-45816890D01*
X21018524Y-45816890D01*
X21063175Y-45964099D01*
X21188359Y-46226920D01*
X21362412Y-46460269D01*
X21578645Y-46655178D01*
X21704255Y-46730000D01*
X21578645Y-46804822D01*
X21362412Y-46999731D01*
X21188359Y-47233080D01*
X21063175Y-47495901D01*
X21018524Y-47643110D01*
X21139845Y-47873000D01*
X22333000Y-47873000D01*
X22333000Y-45587000D01*
X21139845Y-45587000D01*
X21018524Y-45816890D01*
X20685000Y-45816890D01*
X20685000Y-43276890D01*
X21018524Y-43276890D01*
X21063175Y-43424099D01*
X21188359Y-43686920D01*
X21362412Y-43920269D01*
X21578645Y-44115178D01*
X21704255Y-44190000D01*
X21578645Y-44264822D01*
X21362412Y-44459731D01*
X21188359Y-44693080D01*
X21063175Y-44955901D01*
X21018524Y-45103110D01*
X21139845Y-45333000D01*
X22333000Y-45333000D01*
X22333000Y-43047000D01*
X21139845Y-43047000D01*
X21018524Y-43276890D01*
X20685000Y-43276890D01*
X20685000Y-40736890D01*
X21018524Y-40736890D01*
X21063175Y-40884099D01*
X21188359Y-41146920D01*
X21362412Y-41380269D01*
X21578645Y-41575178D01*
X21704255Y-41650000D01*
X21578645Y-41724822D01*
X21362412Y-41919731D01*
X21188359Y-42153080D01*
X21063175Y-42415901D01*
X21018524Y-42563110D01*
X21139845Y-42793000D01*
X22333000Y-42793000D01*
X22333000Y-40507000D01*
X21139845Y-40507000D01*
X21018524Y-40736890D01*
X20685000Y-40736890D01*
X20685000Y-38196890D01*
X21018524Y-38196890D01*
X21063175Y-38344099D01*
X21188359Y-38606920D01*
X21362412Y-38840269D01*
X21578645Y-39035178D01*
X21704255Y-39110000D01*
X21578645Y-39184822D01*
X21362412Y-39379731D01*
X21188359Y-39613080D01*
X21063175Y-39875901D01*
X21018524Y-40023110D01*
X21139845Y-40253000D01*
X22333000Y-40253000D01*
X22333000Y-37967000D01*
X21139845Y-37967000D01*
X21018524Y-38196890D01*
X20685000Y-38196890D01*
X20685000Y-35656890D01*
X21018524Y-35656890D01*
X21063175Y-35804099D01*
X21188359Y-36066920D01*
X21362412Y-36300269D01*
X21578645Y-36495178D01*
X21704255Y-36570000D01*
X21578645Y-36644822D01*
X21362412Y-36839731D01*
X21188359Y-37073080D01*
X21063175Y-37335901D01*
X21018524Y-37483110D01*
X21139845Y-37713000D01*
X22333000Y-37713000D01*
X22333000Y-35427000D01*
X21139845Y-35427000D01*
X21018524Y-35656890D01*
X20685000Y-35656890D01*
X20685000Y-33116890D01*
X21018524Y-33116890D01*
X21063175Y-33264099D01*
X21188359Y-33526920D01*
X21362412Y-33760269D01*
X21578645Y-33955178D01*
X21704255Y-34030000D01*
X21578645Y-34104822D01*
X21362412Y-34299731D01*
X21188359Y-34533080D01*
X21063175Y-34795901D01*
X21018524Y-34943110D01*
X21139845Y-35173000D01*
X22333000Y-35173000D01*
X22333000Y-32887000D01*
X21139845Y-32887000D01*
X21018524Y-33116890D01*
X20685000Y-33116890D01*
X20685000Y-30576890D01*
X21018524Y-30576890D01*
X21063175Y-30724099D01*
X21188359Y-30986920D01*
X21362412Y-31220269D01*
X21578645Y-31415178D01*
X21704255Y-31490000D01*
X21578645Y-31564822D01*
X21362412Y-31759731D01*
X21188359Y-31993080D01*
X21063175Y-32255901D01*
X21018524Y-32403110D01*
X21139845Y-32633000D01*
X22333000Y-32633000D01*
X22333000Y-30347000D01*
X21139845Y-30347000D01*
X21018524Y-30576890D01*
X20685000Y-30576890D01*
X20685000Y-29863110D01*
X21018524Y-29863110D01*
X21139845Y-30093000D01*
X22333000Y-30093000D01*
X22333000Y-28899186D01*
X22587000Y-28899186D01*
X22587000Y-30093000D01*
X22607000Y-30093000D01*
X22607000Y-30347000D01*
X22587000Y-30347000D01*
X22587000Y-32633000D01*
X22607000Y-32633000D01*
X22607000Y-32887000D01*
X22587000Y-32887000D01*
X22587000Y-35173000D01*
X22607000Y-35173000D01*
X22607000Y-35427000D01*
X22587000Y-35427000D01*
X22587000Y-37713000D01*
X22607000Y-37713000D01*
X22607000Y-37967000D01*
X22587000Y-37967000D01*
X22587000Y-40253000D01*
X22607000Y-40253000D01*
X22607000Y-40507000D01*
X22587000Y-40507000D01*
X22587000Y-42793000D01*
X22607000Y-42793000D01*
X22607000Y-43047000D01*
X22587000Y-43047000D01*
X22587000Y-45333000D01*
X22607000Y-45333000D01*
X22607000Y-45587000D01*
X22587000Y-45587000D01*
X22587000Y-47873000D01*
X22607000Y-47873000D01*
X22607000Y-48127000D01*
X22587000Y-48127000D01*
X22587000Y-49320814D01*
X22816891Y-49441481D01*
X23091252Y-49344157D01*
X23341355Y-49195178D01*
X23537502Y-49018374D01*
X23560498Y-49094180D01*
X23615001Y-49196146D01*
X23615000Y-54649971D01*
X23608300Y-54718000D01*
X23615000Y-54786029D01*
X23615000Y-54786036D01*
X23625428Y-54891914D01*
X23625428Y-56381500D01*
X23637688Y-56505982D01*
X23673998Y-56625680D01*
X23732963Y-56735994D01*
X23812315Y-56832685D01*
X23909006Y-56912037D01*
X24019320Y-56971002D01*
X24139018Y-57007312D01*
X24263500Y-57019572D01*
X24670403Y-57019572D01*
X24485014Y-57118664D01*
X24365126Y-57403520D01*
X25463500Y-58501895D01*
X26561874Y-57403520D01*
X26441986Y-57118664D01*
X26242588Y-57019572D01*
X26663500Y-57019572D01*
X26787982Y-57007312D01*
X26907680Y-56971002D01*
X27017994Y-56912037D01*
X27114685Y-56832685D01*
X27194037Y-56735994D01*
X27253002Y-56625680D01*
X27289312Y-56505982D01*
X27301572Y-56381500D01*
X27301572Y-53981500D01*
X27289312Y-53857018D01*
X27269741Y-53792500D01*
X30230928Y-53792500D01*
X30230928Y-54792500D01*
X30243188Y-54916982D01*
X30279498Y-55036680D01*
X30338463Y-55146994D01*
X30417815Y-55243685D01*
X30514506Y-55323037D01*
X30624820Y-55382002D01*
X30744518Y-55418312D01*
X30869000Y-55430572D01*
X31869000Y-55430572D01*
X31993482Y-55418312D01*
X32113180Y-55382002D01*
X32223494Y-55323037D01*
X32320185Y-55243685D01*
X32399537Y-55146994D01*
X32458502Y-55036680D01*
X32494812Y-54916982D01*
X32507072Y-54792500D01*
X32507072Y-53792500D01*
X32494812Y-53668018D01*
X32458502Y-53548320D01*
X32414112Y-53465274D01*
X32460383Y-53353567D01*
X32504000Y-53134288D01*
X32504000Y-52910712D01*
X32460383Y-52691433D01*
X32374824Y-52484876D01*
X32250612Y-52298980D01*
X32092520Y-52140888D01*
X31906624Y-52016676D01*
X31700067Y-51931117D01*
X31480788Y-51887500D01*
X31257212Y-51887500D01*
X31037933Y-51931117D01*
X30831376Y-52016676D01*
X30645480Y-52140888D01*
X30487388Y-52298980D01*
X30363176Y-52484876D01*
X30277617Y-52691433D01*
X30234000Y-52910712D01*
X30234000Y-53134288D01*
X30277617Y-53353567D01*
X30323888Y-53465274D01*
X30279498Y-53548320D01*
X30243188Y-53668018D01*
X30230928Y-53792500D01*
X27269741Y-53792500D01*
X27253002Y-53737320D01*
X27194037Y-53627006D01*
X27114685Y-53530315D01*
X27017994Y-53450963D01*
X26907680Y-53391998D01*
X26787982Y-53355688D01*
X26663500Y-53343428D01*
X26385000Y-53343428D01*
X26385000Y-49196144D01*
X26439502Y-49094180D01*
X26454489Y-49044776D01*
X26594588Y-49184875D01*
X26837809Y-49347390D01*
X27108062Y-49459332D01*
X27394960Y-49516400D01*
X27687480Y-49516400D01*
X27974378Y-49459332D01*
X28244631Y-49347390D01*
X28487852Y-49184875D01*
X28694695Y-48978032D01*
X28857210Y-48734811D01*
X28969152Y-48464558D01*
X29026220Y-48177660D01*
X29026220Y-47885140D01*
X28969152Y-47598242D01*
X28857210Y-47327989D01*
X28694695Y-47084768D01*
X28487852Y-46877925D01*
X28313460Y-46761400D01*
X28487852Y-46644875D01*
X28694695Y-46438032D01*
X28857210Y-46194811D01*
X28969152Y-45924558D01*
X29026220Y-45637660D01*
X29026220Y-45345140D01*
X28969152Y-45058242D01*
X28857210Y-44787989D01*
X28694695Y-44544768D01*
X28487852Y-44337925D01*
X28313460Y-44221400D01*
X28487852Y-44104875D01*
X28694695Y-43898032D01*
X28857210Y-43654811D01*
X28969152Y-43384558D01*
X29026220Y-43097660D01*
X29026220Y-42805140D01*
X28969152Y-42518242D01*
X28857210Y-42247989D01*
X28694695Y-42004768D01*
X28487852Y-41797925D01*
X28313460Y-41681400D01*
X28487852Y-41564875D01*
X28694695Y-41358032D01*
X28857210Y-41114811D01*
X28969152Y-40844558D01*
X29026220Y-40557660D01*
X29026220Y-40265140D01*
X28969152Y-39978242D01*
X28857210Y-39707989D01*
X28694695Y-39464768D01*
X28487852Y-39257925D01*
X28313460Y-39141400D01*
X28487852Y-39024875D01*
X28694695Y-38818032D01*
X28857210Y-38574811D01*
X28969152Y-38304558D01*
X29026220Y-38017660D01*
X29026220Y-37725140D01*
X28969152Y-37438242D01*
X28857210Y-37167989D01*
X28694695Y-36924768D01*
X28487852Y-36717925D01*
X28313460Y-36601400D01*
X28487852Y-36484875D01*
X28694695Y-36278032D01*
X28857210Y-36034811D01*
X28969152Y-35764558D01*
X29026220Y-35477660D01*
X29026220Y-35185140D01*
X28969152Y-34898242D01*
X28857210Y-34627989D01*
X28694695Y-34384768D01*
X28487852Y-34177925D01*
X28313460Y-34061400D01*
X28487852Y-33944875D01*
X28694695Y-33738032D01*
X28857210Y-33494811D01*
X28969152Y-33224558D01*
X29026220Y-32937660D01*
X29026220Y-32645140D01*
X28969152Y-32358242D01*
X28857210Y-32087989D01*
X28694695Y-31844768D01*
X28562840Y-31712913D01*
X28635400Y-31690902D01*
X28745714Y-31631937D01*
X28842405Y-31552585D01*
X28921757Y-31455894D01*
X28980722Y-31345580D01*
X29017032Y-31225882D01*
X29029292Y-31101400D01*
X29029292Y-29401400D01*
X29017032Y-29276918D01*
X28980722Y-29157220D01*
X28921757Y-29046906D01*
X28842405Y-28950215D01*
X28745714Y-28870863D01*
X28635400Y-28811898D01*
X28515702Y-28775588D01*
X28391220Y-28763328D01*
X26691220Y-28763328D01*
X26566738Y-28775588D01*
X26447040Y-28811898D01*
X26336726Y-28870863D01*
X26240035Y-28950215D01*
X26160683Y-29046906D01*
X26101718Y-29157220D01*
X26086731Y-29206624D01*
X25946632Y-29066525D01*
X25703411Y-28904010D01*
X25433158Y-28792068D01*
X25146260Y-28735000D01*
X24853740Y-28735000D01*
X24566842Y-28792068D01*
X24296589Y-28904010D01*
X24053368Y-29066525D01*
X23846525Y-29273368D01*
X23728900Y-29449406D01*
X23557588Y-29219731D01*
X23341355Y-29024822D01*
X23091252Y-28875843D01*
X22816891Y-28778519D01*
X22587000Y-28899186D01*
X22333000Y-28899186D01*
X22103109Y-28778519D01*
X21828748Y-28875843D01*
X21578645Y-29024822D01*
X21362412Y-29219731D01*
X21188359Y-29453080D01*
X21063175Y-29715901D01*
X21018524Y-29863110D01*
X20685000Y-29863110D01*
X20685000Y-25935564D01*
X20782445Y-26120670D01*
X20809452Y-26161088D01*
X21299119Y-26521276D01*
X21484811Y-26335584D01*
X21499007Y-26356830D01*
X21643170Y-26500993D01*
X21664416Y-26515189D01*
X21478724Y-26700881D01*
X21838912Y-27190548D01*
X22502882Y-27550849D01*
X23224385Y-27774694D01*
X23975695Y-27853480D01*
X24727938Y-27784178D01*
X25452208Y-27569452D01*
X26120670Y-27217555D01*
X26161088Y-27190548D01*
X26521276Y-26700881D01*
X26335584Y-26515189D01*
X26356830Y-26500993D01*
X26500993Y-26356830D01*
X26515189Y-26335584D01*
X26700881Y-26521276D01*
X27190548Y-26161088D01*
X27550849Y-25497118D01*
X27569314Y-25437599D01*
X29324082Y-25437599D01*
X29352352Y-25641433D01*
X29419845Y-25835836D01*
X29523967Y-26013336D01*
X29660717Y-26167112D01*
X29824840Y-26291255D01*
X30010028Y-26380994D01*
X30086877Y-26390666D01*
X30246000Y-26262998D01*
X30246000Y-25273000D01*
X29489238Y-25273000D01*
X29324082Y-25437599D01*
X27569314Y-25437599D01*
X27750250Y-24854401D01*
X29324082Y-24854401D01*
X29489238Y-25019000D01*
X30246000Y-25019000D01*
X30246000Y-24029002D01*
X30086877Y-23901334D01*
X30010028Y-23911006D01*
X29824840Y-24000745D01*
X29660717Y-24124888D01*
X29523967Y-24278664D01*
X29419845Y-24456164D01*
X29352352Y-24650567D01*
X29324082Y-24854401D01*
X27750250Y-24854401D01*
X27774694Y-24775615D01*
X27853480Y-24024305D01*
X27784178Y-23272062D01*
X27569452Y-22547792D01*
X27217555Y-21879330D01*
X27190548Y-21838912D01*
X26700881Y-21478724D01*
X24179605Y-24000000D01*
X25058528Y-24878923D01*
X25037282Y-24893119D01*
X24893119Y-25037282D01*
X24878923Y-25058528D01*
X24000000Y-24179605D01*
X23121077Y-25058528D01*
X23106881Y-25037282D01*
X22962718Y-24893119D01*
X22941472Y-24878923D01*
X23820395Y-24000000D01*
X23806253Y-23985858D01*
X23985858Y-23806253D01*
X24000000Y-23820395D01*
X26521276Y-21299119D01*
X26161088Y-20809452D01*
X25931745Y-20685000D01*
X64064436Y-20685000D01*
X63879330Y-20782445D01*
G37*
X63879330Y-20782445D02*
X63838912Y-20809452D01*
X63478724Y-21299119D01*
X66000000Y-23820395D01*
X66014143Y-23806253D01*
X66193748Y-23985858D01*
X66179605Y-24000000D01*
X67058528Y-24878923D01*
X67037282Y-24893119D01*
X66893119Y-25037282D01*
X66878923Y-25058528D01*
X66000000Y-24179605D01*
X65121077Y-25058528D01*
X65106881Y-25037282D01*
X64962718Y-24893119D01*
X64941472Y-24878923D01*
X65820395Y-24000000D01*
X63299119Y-21478724D01*
X62809452Y-21838912D01*
X62449151Y-22502882D01*
X62225306Y-23224385D01*
X62146520Y-23975695D01*
X62215822Y-24727938D01*
X62430548Y-25452208D01*
X62782445Y-26120670D01*
X62809452Y-26161088D01*
X63299119Y-26521276D01*
X63484811Y-26335584D01*
X63499007Y-26356830D01*
X63643170Y-26500993D01*
X63664416Y-26515189D01*
X63478724Y-26700881D01*
X63838912Y-27190548D01*
X64502882Y-27550849D01*
X65224385Y-27774694D01*
X65975695Y-27853480D01*
X66727938Y-27784178D01*
X67452208Y-27569452D01*
X68120670Y-27217555D01*
X68161088Y-27190548D01*
X68521276Y-26700881D01*
X68335584Y-26515189D01*
X68356830Y-26500993D01*
X68500993Y-26356830D01*
X68515189Y-26335584D01*
X68700881Y-26521276D01*
X69190548Y-26161088D01*
X69315000Y-25931745D01*
X69315000Y-29447615D01*
X69181080Y-29403525D01*
X68296605Y-30288000D01*
X69181080Y-31172475D01*
X69315000Y-31128385D01*
X69315000Y-37197615D01*
X69181080Y-37153525D01*
X68296605Y-38038000D01*
X69181080Y-38922475D01*
X69315000Y-38878385D01*
X69315001Y-64064438D01*
X69217555Y-63879330D01*
X69190548Y-63838912D01*
X68700881Y-63478724D01*
X68515189Y-63664416D01*
X68500993Y-63643170D01*
X68356830Y-63499007D01*
X68335584Y-63484811D01*
X68521276Y-63299119D01*
X68161088Y-62809452D01*
X67497118Y-62449151D01*
X66775615Y-62225306D01*
X66024305Y-62146520D01*
X65272062Y-62215822D01*
X64547792Y-62430548D01*
X63879330Y-62782445D01*
X63838912Y-62809452D01*
X63478724Y-63299119D01*
X66000000Y-65820395D01*
X66878923Y-64941472D01*
X66893119Y-64962718D01*
X67037282Y-65106881D01*
X67058528Y-65121077D01*
X66179605Y-66000000D01*
X66193748Y-66014143D01*
X66014143Y-66193748D01*
X66000000Y-66179605D01*
X65121077Y-67058528D01*
X65106881Y-67037282D01*
X64962718Y-66893119D01*
X64941472Y-66878923D01*
X65820395Y-66000000D01*
X63299119Y-63478724D01*
X62809452Y-63838912D01*
X62449151Y-64502882D01*
X62225306Y-65224385D01*
X62146520Y-65975695D01*
X62215822Y-66727938D01*
X62430548Y-67452208D01*
X62782445Y-68120670D01*
X62809452Y-68161088D01*
X63299119Y-68521276D01*
X63484811Y-68335584D01*
X63499007Y-68356830D01*
X63643170Y-68500993D01*
X63664416Y-68515189D01*
X63478724Y-68700881D01*
X63838912Y-69190548D01*
X64068255Y-69315000D01*
X43580000Y-69315000D01*
X43580000Y-69113061D01*
X43540226Y-68913102D01*
X43462205Y-68724744D01*
X43449013Y-68705000D01*
X47206678Y-68705000D01*
X47244000Y-68708676D01*
X47281322Y-68705000D01*
X47281333Y-68705000D01*
X47392986Y-68694003D01*
X47536247Y-68650546D01*
X47668276Y-68579974D01*
X47784001Y-68485001D01*
X47807804Y-68455997D01*
X49493004Y-66770798D01*
X49522001Y-66747001D01*
X49616974Y-66631276D01*
X49687546Y-66499247D01*
X49731003Y-66355986D01*
X49742000Y-66244333D01*
X49742000Y-66244324D01*
X49745676Y-66207001D01*
X49742000Y-66169678D01*
X49742000Y-65931662D01*
X49834008Y-65980841D01*
X50029106Y-66040024D01*
X50232000Y-66060007D01*
X50434895Y-66040024D01*
X50629993Y-65980841D01*
X50809797Y-65884734D01*
X50967396Y-65755396D01*
X51096734Y-65597797D01*
X51192841Y-65417992D01*
X51252024Y-65222894D01*
X51267000Y-65070837D01*
X51267000Y-64533802D01*
X54046200Y-67313002D01*
X54069999Y-67342001D01*
X54185724Y-67436974D01*
X54317753Y-67507546D01*
X54461014Y-67551003D01*
X54572667Y-67562000D01*
X54572676Y-67562000D01*
X54609999Y-67565676D01*
X54647322Y-67562000D01*
X58636678Y-67562000D01*
X58674000Y-67565676D01*
X58711322Y-67562000D01*
X58711333Y-67562000D01*
X58822986Y-67551003D01*
X58966247Y-67507546D01*
X59098276Y-67436974D01*
X59214001Y-67342001D01*
X59237803Y-67312998D01*
X60014004Y-66536798D01*
X60043001Y-66513001D01*
X60097220Y-66446935D01*
X60137974Y-66397277D01*
X60208546Y-66265247D01*
X60216750Y-66238201D01*
X60252003Y-66121986D01*
X60263000Y-66010333D01*
X60263000Y-66010324D01*
X60266676Y-65973001D01*
X60263000Y-65935678D01*
X60263000Y-65725416D01*
X60367734Y-65597797D01*
X60463841Y-65417992D01*
X60523024Y-65222894D01*
X60538000Y-65070837D01*
X60538000Y-64469162D01*
X60523024Y-64317105D01*
X60463841Y-64122007D01*
X60367734Y-63942203D01*
X60238396Y-63784604D01*
X60080797Y-63655266D01*
X59900992Y-63559159D01*
X59705894Y-63499976D01*
X59503000Y-63479993D01*
X59300105Y-63499976D01*
X59105007Y-63559159D01*
X58925203Y-63655266D01*
X58878000Y-63694004D01*
X58830797Y-63655266D01*
X58650992Y-63559159D01*
X58455894Y-63499976D01*
X58253000Y-63479993D01*
X58050105Y-63499976D01*
X57855007Y-63559159D01*
X57675203Y-63655266D01*
X57635062Y-63688209D01*
X57551160Y-63624745D01*
X57365972Y-63535006D01*
X57289123Y-63525334D01*
X57130000Y-63653002D01*
X57130000Y-64643000D01*
X57150000Y-64643000D01*
X57150000Y-64897000D01*
X57130000Y-64897000D01*
X57130000Y-64917000D01*
X56876000Y-64917000D01*
X56876000Y-64897000D01*
X56856000Y-64897000D01*
X56856000Y-64643000D01*
X56876000Y-64643000D01*
X56876000Y-63653002D01*
X56716877Y-63525334D01*
X56640028Y-63535006D01*
X56514977Y-63595604D01*
X56507494Y-63589463D01*
X56397180Y-63530498D01*
X56277482Y-63494188D01*
X56153000Y-63481928D01*
X55353000Y-63481928D01*
X55228518Y-63494188D01*
X55108820Y-63530498D01*
X54998506Y-63589463D01*
X54901815Y-63668815D01*
X54822463Y-63765506D01*
X54763498Y-63875820D01*
X54727188Y-63995518D01*
X54714928Y-64120000D01*
X54714928Y-65070126D01*
X49782000Y-60137199D01*
X49782000Y-58274000D01*
X63481928Y-58274000D01*
X63481928Y-59074000D01*
X63494188Y-59198482D01*
X63530498Y-59318180D01*
X63589463Y-59428494D01*
X63668815Y-59525185D01*
X63765506Y-59604537D01*
X63875820Y-59663502D01*
X63995518Y-59699812D01*
X64120000Y-59712072D01*
X65420000Y-59712072D01*
X65544482Y-59699812D01*
X65664180Y-59663502D01*
X65774494Y-59604537D01*
X65871185Y-59525185D01*
X65950537Y-59428494D01*
X66009502Y-59318180D01*
X66045812Y-59198482D01*
X66058072Y-59074000D01*
X66058072Y-58274000D01*
X66045812Y-58149518D01*
X66009502Y-58029820D01*
X65950537Y-57919506D01*
X65944396Y-57912023D01*
X66004994Y-57786972D01*
X66014666Y-57710123D01*
X65886998Y-57551000D01*
X64897000Y-57551000D01*
X64897000Y-57571000D01*
X64643000Y-57571000D01*
X64643000Y-57551000D01*
X63653002Y-57551000D01*
X63525334Y-57710123D01*
X63535006Y-57786972D01*
X63595604Y-57912023D01*
X63589463Y-57919506D01*
X63530498Y-58029820D01*
X63494188Y-58149518D01*
X63481928Y-58274000D01*
X49782000Y-58274000D01*
X49782000Y-57048061D01*
X51543000Y-57048061D01*
X51543000Y-57251939D01*
X51582774Y-57451898D01*
X51660795Y-57640256D01*
X51774063Y-57809774D01*
X51918226Y-57953937D01*
X52087744Y-58067205D01*
X52276102Y-58145226D01*
X52476061Y-58185000D01*
X52679939Y-58185000D01*
X52879898Y-58145226D01*
X53068256Y-58067205D01*
X53237774Y-57953937D01*
X53381937Y-57809774D01*
X53495205Y-57640256D01*
X53573226Y-57451898D01*
X53613000Y-57251939D01*
X53613000Y-57048061D01*
X53573226Y-56848102D01*
X53495205Y-56659744D01*
X53381937Y-56490226D01*
X53237774Y-56346063D01*
X53068256Y-56232795D01*
X52879898Y-56154774D01*
X52679939Y-56115000D01*
X52476061Y-56115000D01*
X52276102Y-56154774D01*
X52087744Y-56232795D01*
X51918226Y-56346063D01*
X51774063Y-56490226D01*
X51660795Y-56659744D01*
X51582774Y-56848102D01*
X51543000Y-57048061D01*
X49782000Y-57048061D01*
X49782000Y-55605637D01*
X49785676Y-55568314D01*
X49782000Y-55530991D01*
X49782000Y-55530982D01*
X49771003Y-55419329D01*
X49727546Y-55276068D01*
X49656974Y-55144039D01*
X49562001Y-55028314D01*
X49533003Y-55004516D01*
X49262488Y-54734002D01*
X49238686Y-54704999D01*
X49122961Y-54610026D01*
X48990932Y-54539454D01*
X48847724Y-54496013D01*
X48792774Y-54441063D01*
X48623256Y-54327795D01*
X48434898Y-54249774D01*
X48234939Y-54210000D01*
X48031061Y-54210000D01*
X47831102Y-54249774D01*
X47642744Y-54327795D01*
X47473226Y-54441063D01*
X47329063Y-54585226D01*
X47215795Y-54754744D01*
X47137774Y-54943102D01*
X47098000Y-55143061D01*
X47098000Y-55346939D01*
X47137774Y-55546898D01*
X47215795Y-55735256D01*
X47270080Y-55816500D01*
X47215795Y-55897744D01*
X47137774Y-56086102D01*
X47098000Y-56286061D01*
X47098000Y-56489939D01*
X47137774Y-56689898D01*
X47215795Y-56878256D01*
X47329063Y-57047774D01*
X47373000Y-57091711D01*
X47373001Y-60287668D01*
X47369324Y-60325000D01*
X47373001Y-60362333D01*
X47383998Y-60473986D01*
X47391835Y-60499822D01*
X47427454Y-60617246D01*
X47498026Y-60749276D01*
X47569201Y-60836002D01*
X47593000Y-60865001D01*
X47621998Y-60888799D01*
X50214878Y-63481679D01*
X50029105Y-63499976D01*
X49834007Y-63559159D01*
X49654203Y-63655266D01*
X49607000Y-63694004D01*
X49559797Y-63655266D01*
X49379992Y-63559159D01*
X49184894Y-63499976D01*
X48982000Y-63479993D01*
X48779105Y-63499976D01*
X48584007Y-63559159D01*
X48404203Y-63655266D01*
X48364062Y-63688209D01*
X48280160Y-63624745D01*
X48094972Y-63535006D01*
X48018123Y-63525334D01*
X47859000Y-63653002D01*
X47859000Y-64643000D01*
X47879000Y-64643000D01*
X47879000Y-64897000D01*
X47859000Y-64897000D01*
X47859000Y-65886998D01*
X48018123Y-66014666D01*
X48094972Y-66004994D01*
X48122585Y-65991613D01*
X46929199Y-67185000D01*
X41390356Y-67185000D01*
X41421000Y-67030939D01*
X41421000Y-66827061D01*
X41381226Y-66627102D01*
X41303205Y-66438744D01*
X41189937Y-66269226D01*
X41045774Y-66125063D01*
X40876256Y-66011795D01*
X40687898Y-65933774D01*
X40487939Y-65894000D01*
X40425801Y-65894000D01*
X40384000Y-65852199D01*
X40384000Y-64120000D01*
X45443928Y-64120000D01*
X45443928Y-65420000D01*
X45456188Y-65544482D01*
X45492498Y-65664180D01*
X45551463Y-65774494D01*
X45630815Y-65871185D01*
X45727506Y-65950537D01*
X45837820Y-66009502D01*
X45957518Y-66045812D01*
X46082000Y-66058072D01*
X46882000Y-66058072D01*
X47006482Y-66045812D01*
X47126180Y-66009502D01*
X47236494Y-65950537D01*
X47243977Y-65944396D01*
X47369028Y-66004994D01*
X47445877Y-66014666D01*
X47605000Y-65886998D01*
X47605000Y-64897000D01*
X47585000Y-64897000D01*
X47585000Y-64643000D01*
X47605000Y-64643000D01*
X47605000Y-63653002D01*
X47445877Y-63525334D01*
X47369028Y-63535006D01*
X47243977Y-63595604D01*
X47236494Y-63589463D01*
X47126180Y-63530498D01*
X47006482Y-63494188D01*
X46882000Y-63481928D01*
X46082000Y-63481928D01*
X45957518Y-63494188D01*
X45837820Y-63530498D01*
X45727506Y-63589463D01*
X45630815Y-63668815D01*
X45551463Y-63765506D01*
X45492498Y-63875820D01*
X45456188Y-63995518D01*
X45443928Y-64120000D01*
X40384000Y-64120000D01*
X40384000Y-60350061D01*
X44431000Y-60350061D01*
X44431000Y-60553939D01*
X44470774Y-60753898D01*
X44548795Y-60942256D01*
X44662063Y-61111774D01*
X44806226Y-61255937D01*
X44975744Y-61369205D01*
X45164102Y-61447226D01*
X45364061Y-61487000D01*
X45567939Y-61487000D01*
X45767898Y-61447226D01*
X45956256Y-61369205D01*
X46125774Y-61255937D01*
X46269937Y-61111774D01*
X46383205Y-60942256D01*
X46461226Y-60753898D01*
X46501000Y-60553939D01*
X46501000Y-60350061D01*
X46461226Y-60150102D01*
X46383205Y-59961744D01*
X46269937Y-59792226D01*
X46125774Y-59648063D01*
X45956256Y-59534795D01*
X45767898Y-59456774D01*
X45567939Y-59417000D01*
X45364061Y-59417000D01*
X45164102Y-59456774D01*
X44975744Y-59534795D01*
X44806226Y-59648063D01*
X44662063Y-59792226D01*
X44548795Y-59961744D01*
X44470774Y-60150102D01*
X44431000Y-60350061D01*
X40384000Y-60350061D01*
X40384000Y-59080061D01*
X40875000Y-59080061D01*
X40875000Y-59283939D01*
X40914774Y-59483898D01*
X40992795Y-59672256D01*
X41106063Y-59841774D01*
X41250226Y-59985937D01*
X41419744Y-60099205D01*
X41608102Y-60177226D01*
X41808061Y-60217000D01*
X42011939Y-60217000D01*
X42211898Y-60177226D01*
X42400256Y-60099205D01*
X42569774Y-59985937D01*
X42713937Y-59841774D01*
X42827205Y-59672256D01*
X42905226Y-59483898D01*
X42945000Y-59283939D01*
X42945000Y-59080061D01*
X42905226Y-58880102D01*
X42827205Y-58691744D01*
X42713937Y-58522226D01*
X42569774Y-58378063D01*
X42400256Y-58264795D01*
X42211898Y-58186774D01*
X42011939Y-58147000D01*
X41808061Y-58147000D01*
X41608102Y-58186774D01*
X41419744Y-58264795D01*
X41250226Y-58378063D01*
X41106063Y-58522226D01*
X40992795Y-58691744D01*
X40914774Y-58880102D01*
X40875000Y-59080061D01*
X40384000Y-59080061D01*
X40384000Y-56964711D01*
X40427937Y-56920774D01*
X40541205Y-56751256D01*
X40619226Y-56562898D01*
X40659000Y-56362939D01*
X40659000Y-56159061D01*
X40619226Y-55959102D01*
X40541205Y-55770744D01*
X40427937Y-55601226D01*
X40283774Y-55457063D01*
X40114256Y-55343795D01*
X39925898Y-55265774D01*
X39868619Y-55254381D01*
X39857226Y-55197102D01*
X39779205Y-55008744D01*
X39665937Y-54839226D01*
X39559756Y-54733045D01*
X41285002Y-53007800D01*
X41923478Y-53007800D01*
X41960800Y-53011476D01*
X41998122Y-53007800D01*
X41998133Y-53007800D01*
X42109786Y-52996803D01*
X42253047Y-52953346D01*
X42385076Y-52882774D01*
X42500801Y-52787801D01*
X42524604Y-52758797D01*
X45304001Y-49979400D01*
X45304001Y-51944337D01*
X45265721Y-52070528D01*
X45259225Y-52136482D01*
X45146796Y-52304745D01*
X45068775Y-52493103D01*
X45029001Y-52693062D01*
X45029001Y-52896940D01*
X45068775Y-53096899D01*
X45146796Y-53285257D01*
X45260064Y-53454775D01*
X45404227Y-53598938D01*
X45573745Y-53712206D01*
X45762103Y-53790227D01*
X45962062Y-53830001D01*
X46165940Y-53830001D01*
X46365899Y-53790227D01*
X46411203Y-53771461D01*
X61626800Y-53771461D01*
X61626800Y-53975339D01*
X61666574Y-54175298D01*
X61744595Y-54363656D01*
X61857863Y-54533174D01*
X61912813Y-54588124D01*
X61956254Y-54731332D01*
X61980837Y-54777321D01*
X62026826Y-54863361D01*
X62098001Y-54950087D01*
X62121800Y-54979086D01*
X62150798Y-55002884D01*
X63497263Y-56349350D01*
X63499976Y-56376895D01*
X63559159Y-56571993D01*
X63655266Y-56751797D01*
X63688209Y-56791938D01*
X63624745Y-56875840D01*
X63535006Y-57061028D01*
X63525334Y-57137877D01*
X63653002Y-57297000D01*
X64643000Y-57297000D01*
X64643000Y-57277000D01*
X64897000Y-57277000D01*
X64897000Y-57297000D01*
X65886998Y-57297000D01*
X66014666Y-57137877D01*
X66004994Y-57061028D01*
X65915255Y-56875840D01*
X65851791Y-56791938D01*
X65884734Y-56751797D01*
X65980841Y-56571993D01*
X66040024Y-56376895D01*
X66060007Y-56174000D01*
X66040024Y-55971105D01*
X65980841Y-55776007D01*
X65884734Y-55596203D01*
X65845996Y-55549000D01*
X65884734Y-55501797D01*
X65980841Y-55321993D01*
X66040024Y-55126895D01*
X66060007Y-54924000D01*
X66040024Y-54721105D01*
X65980841Y-54526007D01*
X65884734Y-54346203D01*
X65755396Y-54188604D01*
X65597797Y-54059266D01*
X65417993Y-53963159D01*
X65222895Y-53903976D01*
X65070838Y-53889000D01*
X64469162Y-53889000D01*
X64317105Y-53903976D01*
X64122007Y-53963159D01*
X63942203Y-54059266D01*
X63784604Y-54188604D01*
X63655266Y-54346203D01*
X63651244Y-54353728D01*
X63603071Y-54305555D01*
X63657026Y-54175298D01*
X63696800Y-53975339D01*
X63696800Y-53771461D01*
X63657026Y-53571502D01*
X63579005Y-53383144D01*
X63465737Y-53213626D01*
X63321574Y-53069463D01*
X63152056Y-52956195D01*
X62963698Y-52878174D01*
X62763739Y-52838400D01*
X62559861Y-52838400D01*
X62359902Y-52878174D01*
X62171544Y-52956195D01*
X62002026Y-53069463D01*
X61857863Y-53213626D01*
X61744595Y-53383144D01*
X61666574Y-53571502D01*
X61626800Y-53771461D01*
X46411203Y-53771461D01*
X46554257Y-53712206D01*
X46723775Y-53598938D01*
X46867938Y-53454775D01*
X46981206Y-53285257D01*
X47059227Y-53096899D01*
X47099001Y-52896940D01*
X47099001Y-52693062D01*
X47059227Y-52493103D01*
X46981206Y-52304745D01*
X46923999Y-52219128D01*
X46924001Y-52219107D01*
X46924001Y-52219104D01*
X46927920Y-52179316D01*
X46924001Y-52139528D01*
X46924001Y-50946000D01*
X47091939Y-50946000D01*
X47291898Y-50906226D01*
X47480256Y-50828205D01*
X47498000Y-50816349D01*
X47515744Y-50828205D01*
X47704102Y-50906226D01*
X47904061Y-50946000D01*
X48107939Y-50946000D01*
X48307898Y-50906226D01*
X48466000Y-50840738D01*
X48466000Y-50911300D01*
X48358795Y-51071744D01*
X48280774Y-51260102D01*
X48241000Y-51460061D01*
X48241000Y-51663939D01*
X48280774Y-51863898D01*
X48358795Y-52052256D01*
X48472063Y-52221774D01*
X48616226Y-52365937D01*
X48785744Y-52479205D01*
X48974102Y-52557226D01*
X49174061Y-52597000D01*
X49265764Y-52597000D01*
X49296774Y-52752898D01*
X49374795Y-52941256D01*
X49488063Y-53110774D01*
X49632226Y-53254937D01*
X49801744Y-53368205D01*
X49990102Y-53446226D01*
X50190061Y-53486000D01*
X50393939Y-53486000D01*
X50593898Y-53446226D01*
X50782256Y-53368205D01*
X50951774Y-53254937D01*
X51095937Y-53110774D01*
X51209205Y-52941256D01*
X51287226Y-52752898D01*
X51327000Y-52552939D01*
X51327000Y-52349061D01*
X51287226Y-52149102D01*
X51209205Y-51960744D01*
X51102000Y-51800300D01*
X51102000Y-51092746D01*
X51128810Y-51114748D01*
X51269526Y-51189962D01*
X51422211Y-51236279D01*
X51541208Y-51247999D01*
X51541210Y-51247999D01*
X51580998Y-51251918D01*
X51620786Y-51247999D01*
X58615213Y-51247999D01*
X58655001Y-51251918D01*
X58694789Y-51247999D01*
X58694792Y-51247999D01*
X58813789Y-51236279D01*
X58933384Y-51200000D01*
X59029939Y-51200000D01*
X59229898Y-51160226D01*
X59418256Y-51082205D01*
X59578608Y-50975061D01*
X66171000Y-50975061D01*
X66171000Y-51178939D01*
X66210774Y-51378898D01*
X66288795Y-51567256D01*
X66402063Y-51736774D01*
X66546226Y-51880937D01*
X66715744Y-51994205D01*
X66904102Y-52072226D01*
X67104061Y-52112000D01*
X67307939Y-52112000D01*
X67507898Y-52072226D01*
X67696256Y-51994205D01*
X67865774Y-51880937D01*
X68009937Y-51736774D01*
X68123205Y-51567256D01*
X68201226Y-51378898D01*
X68241000Y-51178939D01*
X68241000Y-50975061D01*
X68201226Y-50775102D01*
X68123205Y-50586744D01*
X68009937Y-50417226D01*
X67865774Y-50273063D01*
X67696256Y-50159795D01*
X67507898Y-50081774D01*
X67307939Y-50042000D01*
X67104061Y-50042000D01*
X66904102Y-50081774D01*
X66715744Y-50159795D01*
X66546226Y-50273063D01*
X66402063Y-50417226D01*
X66288795Y-50586744D01*
X66210774Y-50775102D01*
X66171000Y-50975061D01*
X59578608Y-50975061D01*
X59587774Y-50968937D01*
X59731937Y-50824774D01*
X59845205Y-50655256D01*
X59923226Y-50466898D01*
X59963000Y-50266939D01*
X59963000Y-50063061D01*
X59923226Y-49863102D01*
X59845205Y-49674744D01*
X59731937Y-49505226D01*
X59587774Y-49361063D01*
X59418256Y-49247795D01*
X59229898Y-49169774D01*
X59029939Y-49130000D01*
X58826061Y-49130000D01*
X58626102Y-49169774D01*
X58437744Y-49247795D01*
X58268226Y-49361063D01*
X58124063Y-49505226D01*
X58042029Y-49627999D01*
X52131448Y-49627999D01*
X52098205Y-49547744D01*
X51984937Y-49378226D01*
X51840774Y-49234063D01*
X51671256Y-49120795D01*
X51482898Y-49042774D01*
X51282939Y-49003000D01*
X51215999Y-49003000D01*
X51215999Y-45745061D01*
X54210000Y-45745061D01*
X54210000Y-45948939D01*
X54249774Y-46148898D01*
X54327795Y-46337256D01*
X54441063Y-46506774D01*
X54585226Y-46650937D01*
X54754744Y-46764205D01*
X54943102Y-46842226D01*
X55143061Y-46882000D01*
X55346939Y-46882000D01*
X55546898Y-46842226D01*
X55735256Y-46764205D01*
X55904774Y-46650937D01*
X56048937Y-46506774D01*
X56162205Y-46337256D01*
X56240226Y-46148898D01*
X56280000Y-45948939D01*
X56280000Y-45745061D01*
X56240226Y-45545102D01*
X56162205Y-45356744D01*
X56048937Y-45187226D01*
X55904774Y-45043063D01*
X55735256Y-44929795D01*
X55546898Y-44851774D01*
X55346939Y-44812000D01*
X55143061Y-44812000D01*
X54943102Y-44851774D01*
X54754744Y-44929795D01*
X54585226Y-45043063D01*
X54441063Y-45187226D01*
X54327795Y-45356744D01*
X54249774Y-45545102D01*
X54210000Y-45745061D01*
X51215999Y-45745061D01*
X51215999Y-44332345D01*
X54392619Y-41155726D01*
X54423528Y-41130360D01*
X54524749Y-41007021D01*
X54599963Y-40866305D01*
X54646280Y-40713620D01*
X54658000Y-40594623D01*
X54658000Y-40594621D01*
X54661919Y-40554833D01*
X54658000Y-40515045D01*
X54658000Y-39928512D01*
X55863129Y-41133642D01*
X55900774Y-41322898D01*
X55978795Y-41511256D01*
X56092063Y-41680774D01*
X56236226Y-41824937D01*
X56405744Y-41938205D01*
X56594102Y-42016226D01*
X56794061Y-42056000D01*
X56997939Y-42056000D01*
X57197898Y-42016226D01*
X57386256Y-41938205D01*
X57555774Y-41824937D01*
X57699937Y-41680774D01*
X57813205Y-41511256D01*
X57891226Y-41322898D01*
X57931000Y-41122939D01*
X57931000Y-40919061D01*
X57891226Y-40719102D01*
X57813205Y-40530744D01*
X57699937Y-40361226D01*
X57555774Y-40217063D01*
X57386256Y-40103795D01*
X57197898Y-40025774D01*
X57008642Y-39988129D01*
X56043926Y-39023413D01*
X63361192Y-39023413D01*
X63456956Y-39287814D01*
X63746571Y-39428704D01*
X64058108Y-39510384D01*
X64379595Y-39529718D01*
X64698675Y-39485961D01*
X65003088Y-39380795D01*
X65177044Y-39287814D01*
X65244315Y-39102080D01*
X67232525Y-39102080D01*
X67316208Y-39356261D01*
X67588775Y-39487158D01*
X67881642Y-39562365D01*
X68183553Y-39578991D01*
X68482907Y-39536397D01*
X68768199Y-39436222D01*
X68917792Y-39356261D01*
X69001475Y-39102080D01*
X68117000Y-38217605D01*
X67232525Y-39102080D01*
X65244315Y-39102080D01*
X65272808Y-39023413D01*
X64317000Y-38067605D01*
X63361192Y-39023413D01*
X56043926Y-39023413D01*
X55420000Y-38399488D01*
X55420000Y-37950595D01*
X62675282Y-37950595D01*
X62719039Y-38269675D01*
X62824205Y-38574088D01*
X62917186Y-38748044D01*
X63181587Y-38843808D01*
X64137395Y-37888000D01*
X63181587Y-36932192D01*
X62917186Y-37027956D01*
X62776296Y-37317571D01*
X62694616Y-37629108D01*
X62675282Y-37950595D01*
X55420000Y-37950595D01*
X55420000Y-36752587D01*
X63361192Y-36752587D01*
X64317000Y-37708395D01*
X64331143Y-37694253D01*
X64510748Y-37873858D01*
X64496605Y-37888000D01*
X65452413Y-38843808D01*
X65716814Y-38748044D01*
X65857704Y-38458429D01*
X65939384Y-38146892D01*
X65941930Y-38104553D01*
X66576009Y-38104553D01*
X66618603Y-38403907D01*
X66718778Y-38689199D01*
X66798739Y-38838792D01*
X67052920Y-38922475D01*
X67937395Y-38038000D01*
X67052920Y-37153525D01*
X66798739Y-37237208D01*
X66667842Y-37509775D01*
X66592635Y-37802642D01*
X66576009Y-38104553D01*
X65941930Y-38104553D01*
X65958718Y-37825405D01*
X65919398Y-37538683D01*
X66026774Y-37466937D01*
X66170937Y-37322774D01*
X66284205Y-37153256D01*
X66358488Y-36973920D01*
X67232525Y-36973920D01*
X68117000Y-37858395D01*
X69001475Y-36973920D01*
X68917792Y-36719739D01*
X68645225Y-36588842D01*
X68352358Y-36513635D01*
X68050447Y-36497009D01*
X67751093Y-36539603D01*
X67465801Y-36639778D01*
X67316208Y-36719739D01*
X67232525Y-36973920D01*
X66358488Y-36973920D01*
X66362226Y-36964898D01*
X66402000Y-36764939D01*
X66402000Y-36561061D01*
X66362226Y-36361102D01*
X66284205Y-36172744D01*
X66170937Y-36003226D01*
X66026774Y-35859063D01*
X65857256Y-35745795D01*
X65668898Y-35667774D01*
X65468939Y-35628000D01*
X65265061Y-35628000D01*
X65065102Y-35667774D01*
X64876744Y-35745795D01*
X64707226Y-35859063D01*
X64563063Y-36003226D01*
X64449795Y-36172744D01*
X64415326Y-36255960D01*
X64254405Y-36246282D01*
X63935325Y-36290039D01*
X63630912Y-36395205D01*
X63456956Y-36488186D01*
X63361192Y-36752587D01*
X55420000Y-36752587D01*
X55420000Y-31573413D01*
X63361192Y-31573413D01*
X63456956Y-31837814D01*
X63746571Y-31978704D01*
X64058108Y-32060384D01*
X64379595Y-32079718D01*
X64417198Y-32074561D01*
X64449795Y-32153256D01*
X64563063Y-32322774D01*
X64707226Y-32466937D01*
X64876744Y-32580205D01*
X65065102Y-32658226D01*
X65265061Y-32698000D01*
X65468939Y-32698000D01*
X65668898Y-32658226D01*
X65857256Y-32580205D01*
X66026774Y-32466937D01*
X66170937Y-32322774D01*
X66284205Y-32153256D01*
X66362226Y-31964898D01*
X66402000Y-31764939D01*
X66402000Y-31561061D01*
X66362226Y-31361102D01*
X66358489Y-31352080D01*
X67232525Y-31352080D01*
X67316208Y-31606261D01*
X67588775Y-31737158D01*
X67881642Y-31812365D01*
X68183553Y-31828991D01*
X68482907Y-31786397D01*
X68768199Y-31686222D01*
X68917792Y-31606261D01*
X69001475Y-31352080D01*
X68117000Y-30467605D01*
X67232525Y-31352080D01*
X66358489Y-31352080D01*
X66284205Y-31172744D01*
X66170937Y-31003226D01*
X66026774Y-30859063D01*
X65916231Y-30785201D01*
X65939384Y-30696892D01*
X65958718Y-30375405D01*
X65955859Y-30354553D01*
X66576009Y-30354553D01*
X66618603Y-30653907D01*
X66718778Y-30939199D01*
X66798739Y-31088792D01*
X67052920Y-31172475D01*
X67937395Y-30288000D01*
X67052920Y-29403525D01*
X66798739Y-29487208D01*
X66667842Y-29759775D01*
X66592635Y-30052642D01*
X66576009Y-30354553D01*
X65955859Y-30354553D01*
X65914961Y-30056325D01*
X65809795Y-29751912D01*
X65716814Y-29577956D01*
X65452413Y-29482192D01*
X64496605Y-30438000D01*
X64510748Y-30452143D01*
X64331143Y-30631748D01*
X64317000Y-30617605D01*
X63361192Y-31573413D01*
X55420000Y-31573413D01*
X55420000Y-30773787D01*
X55423919Y-30733999D01*
X55419807Y-30692251D01*
X55408280Y-30575212D01*
X55385645Y-30500595D01*
X62675282Y-30500595D01*
X62719039Y-30819675D01*
X62824205Y-31124088D01*
X62917186Y-31298044D01*
X63181587Y-31393808D01*
X64137395Y-30438000D01*
X63181587Y-29482192D01*
X62917186Y-29577956D01*
X62776296Y-29867571D01*
X62694616Y-30179108D01*
X62675282Y-30500595D01*
X55385645Y-30500595D01*
X55361963Y-30422527D01*
X55296148Y-30299395D01*
X55286749Y-30281810D01*
X55236449Y-30220520D01*
X55185528Y-30158472D01*
X55154618Y-30133105D01*
X54324100Y-29302587D01*
X63361192Y-29302587D01*
X64317000Y-30258395D01*
X65272808Y-29302587D01*
X65244316Y-29223920D01*
X67232525Y-29223920D01*
X68117000Y-30108395D01*
X69001475Y-29223920D01*
X68917792Y-28969739D01*
X68645225Y-28838842D01*
X68352358Y-28763635D01*
X68050447Y-28747009D01*
X67751093Y-28789603D01*
X67465801Y-28889778D01*
X67316208Y-28969739D01*
X67232525Y-29223920D01*
X65244316Y-29223920D01*
X65177044Y-29038186D01*
X64887429Y-28897296D01*
X64575892Y-28815616D01*
X64254405Y-28796282D01*
X63935325Y-28840039D01*
X63630912Y-28945205D01*
X63456956Y-29038186D01*
X63361192Y-29302587D01*
X54324100Y-29302587D01*
X51199760Y-26178248D01*
X51222537Y-26150494D01*
X51281502Y-26040180D01*
X51317812Y-25920482D01*
X51330072Y-25796000D01*
X51330072Y-24686000D01*
X54668131Y-24686000D01*
X54665976Y-24693105D01*
X54651000Y-24845162D01*
X54651000Y-25446837D01*
X54665976Y-25598894D01*
X54725159Y-25793992D01*
X54821266Y-25973797D01*
X54950604Y-26131396D01*
X55108203Y-26260734D01*
X55288007Y-26356841D01*
X55483105Y-26416024D01*
X55686000Y-26436007D01*
X55888894Y-26416024D01*
X56083992Y-26356841D01*
X56263797Y-26260734D01*
X56311000Y-26221996D01*
X56358203Y-26260734D01*
X56538007Y-26356841D01*
X56733105Y-26416024D01*
X56936000Y-26436007D01*
X57138894Y-26416024D01*
X57333992Y-26356841D01*
X57513797Y-26260734D01*
X57553938Y-26227791D01*
X57637840Y-26291255D01*
X57823028Y-26380994D01*
X57899877Y-26390666D01*
X58059000Y-26262998D01*
X58059000Y-25273000D01*
X58039000Y-25273000D01*
X58039000Y-25019000D01*
X58059000Y-25019000D01*
X58059000Y-24029002D01*
X58313000Y-24029002D01*
X58313000Y-25019000D01*
X58333000Y-25019000D01*
X58333000Y-25273000D01*
X58313000Y-25273000D01*
X58313000Y-26262998D01*
X58472123Y-26390666D01*
X58548972Y-26380994D01*
X58674023Y-26320396D01*
X58681506Y-26326537D01*
X58791820Y-26385502D01*
X58911518Y-26421812D01*
X59036000Y-26434072D01*
X59836000Y-26434072D01*
X59960482Y-26421812D01*
X60080180Y-26385502D01*
X60190494Y-26326537D01*
X60287185Y-26247185D01*
X60366537Y-26150494D01*
X60425502Y-26040180D01*
X60461812Y-25920482D01*
X60474072Y-25796000D01*
X60474072Y-24496000D01*
X60461812Y-24371518D01*
X60425502Y-24251820D01*
X60366537Y-24141506D01*
X60287185Y-24044815D01*
X60190494Y-23965463D01*
X60080180Y-23906498D01*
X59960482Y-23870188D01*
X59836000Y-23857928D01*
X59036000Y-23857928D01*
X58911518Y-23870188D01*
X58791820Y-23906498D01*
X58681506Y-23965463D01*
X58674023Y-23971604D01*
X58548972Y-23911006D01*
X58472123Y-23901334D01*
X58313000Y-24029002D01*
X58059000Y-24029002D01*
X57899877Y-23901334D01*
X57823028Y-23911006D01*
X57725499Y-23958267D01*
X57687963Y-23834527D01*
X57652951Y-23769024D01*
X57612749Y-23693810D01*
X57558116Y-23627240D01*
X57511528Y-23570472D01*
X57480619Y-23545106D01*
X56716889Y-22781377D01*
X56691518Y-22750462D01*
X56568179Y-22649241D01*
X56427463Y-22574027D01*
X56274778Y-22527710D01*
X56155781Y-22515990D01*
X56155778Y-22515990D01*
X56115990Y-22512071D01*
X56076202Y-22515990D01*
X45531966Y-22515990D01*
X45492178Y-22512071D01*
X45452390Y-22515990D01*
X45452388Y-22515990D01*
X45333391Y-22527710D01*
X45180706Y-22574027D01*
X45123055Y-22604842D01*
X45039989Y-22649241D01*
X45010180Y-22673705D01*
X44916651Y-22750462D01*
X44891284Y-22781372D01*
X44070784Y-23601873D01*
X44039874Y-23627240D01*
X44014509Y-23658148D01*
X43938652Y-23750579D01*
X43877110Y-23865718D01*
X43863439Y-23891295D01*
X43819911Y-24034788D01*
X43817122Y-24043981D01*
X43801482Y-24202768D01*
X43805402Y-24242566D01*
X43805401Y-30491088D01*
X43658600Y-30637889D01*
X43585774Y-30565063D01*
X43416256Y-30451795D01*
X43227898Y-30373774D01*
X43027939Y-30334000D01*
X42824061Y-30334000D01*
X42624102Y-30373774D01*
X42435744Y-30451795D01*
X42266226Y-30565063D01*
X42122063Y-30709226D01*
X42008795Y-30878744D01*
X41930774Y-31067102D01*
X41893129Y-31256358D01*
X40939488Y-32210000D01*
X39545000Y-32210000D01*
X39545000Y-31408791D01*
X39548919Y-31369000D01*
X39533280Y-31210212D01*
X39486963Y-31057526D01*
X39426029Y-30943527D01*
X39411749Y-30916811D01*
X39310528Y-30793472D01*
X39279614Y-30768102D01*
X38985700Y-30474188D01*
X38960328Y-30443272D01*
X38836989Y-30342051D01*
X38696273Y-30266837D01*
X38543588Y-30220520D01*
X38424591Y-30208800D01*
X38424588Y-30208800D01*
X38384800Y-30204881D01*
X38345012Y-30208800D01*
X34249500Y-30208800D01*
X34089056Y-30101595D01*
X33900698Y-30023574D01*
X33700739Y-29983800D01*
X33496861Y-29983800D01*
X33304000Y-30022162D01*
X33304000Y-29184261D01*
X38106400Y-29184261D01*
X38106400Y-29388139D01*
X38146174Y-29588098D01*
X38224195Y-29776456D01*
X38337463Y-29945974D01*
X38481626Y-30090137D01*
X38651144Y-30203405D01*
X38839502Y-30281426D01*
X39039461Y-30321200D01*
X39243339Y-30321200D01*
X39443298Y-30281426D01*
X39631656Y-30203405D01*
X39801174Y-30090137D01*
X39945337Y-29945974D01*
X40058605Y-29776456D01*
X40136626Y-29588098D01*
X40176400Y-29388139D01*
X40176400Y-29184261D01*
X40136626Y-28984302D01*
X40058605Y-28795944D01*
X39945337Y-28626426D01*
X39801174Y-28482263D01*
X39631656Y-28368995D01*
X39443298Y-28290974D01*
X39243339Y-28251200D01*
X39039461Y-28251200D01*
X38839502Y-28290974D01*
X38651144Y-28368995D01*
X38481626Y-28482263D01*
X38337463Y-28626426D01*
X38224195Y-28795944D01*
X38146174Y-28984302D01*
X38106400Y-29184261D01*
X33304000Y-29184261D01*
X33304000Y-26034661D01*
X37750800Y-26034661D01*
X37750800Y-26238539D01*
X37790574Y-26438498D01*
X37868595Y-26626856D01*
X37981863Y-26796374D01*
X38126026Y-26940537D01*
X38295544Y-27053805D01*
X38483902Y-27131826D01*
X38683861Y-27171600D01*
X38887739Y-27171600D01*
X39087698Y-27131826D01*
X39276056Y-27053805D01*
X39445574Y-26940537D01*
X39589737Y-26796374D01*
X39703005Y-26626856D01*
X39781026Y-26438498D01*
X39820800Y-26238539D01*
X39820800Y-26034661D01*
X39781026Y-25834702D01*
X39703005Y-25646344D01*
X39589737Y-25476826D01*
X39445574Y-25332663D01*
X39276056Y-25219395D01*
X39087698Y-25141374D01*
X38887739Y-25101600D01*
X38683861Y-25101600D01*
X38483902Y-25141374D01*
X38295544Y-25219395D01*
X38126026Y-25332663D01*
X37981863Y-25476826D01*
X37868595Y-25646344D01*
X37790574Y-25834702D01*
X37750800Y-26034661D01*
X33304000Y-26034661D01*
X33304000Y-25985469D01*
X33308281Y-25942000D01*
X33304000Y-25898531D01*
X33304000Y-25898523D01*
X33291195Y-25768510D01*
X33240589Y-25601687D01*
X33158411Y-25447941D01*
X33134210Y-25418452D01*
X33075532Y-25346953D01*
X33075530Y-25346951D01*
X33047817Y-25313183D01*
X33014049Y-25285470D01*
X32661072Y-24932493D01*
X32661072Y-24496000D01*
X32655012Y-24434461D01*
X40544800Y-24434461D01*
X40544800Y-24638339D01*
X40584574Y-24838298D01*
X40659424Y-25019000D01*
X40584574Y-25199702D01*
X40544800Y-25399661D01*
X40544800Y-25603539D01*
X40584574Y-25803498D01*
X40662595Y-25991856D01*
X40674451Y-26009600D01*
X40662595Y-26027344D01*
X40584574Y-26215702D01*
X40544800Y-26415661D01*
X40544800Y-26619539D01*
X40584574Y-26819498D01*
X40662595Y-27007856D01*
X40775863Y-27177374D01*
X40920026Y-27321537D01*
X41089544Y-27434805D01*
X41277902Y-27512826D01*
X41477861Y-27552600D01*
X41681739Y-27552600D01*
X41881698Y-27512826D01*
X42070056Y-27434805D01*
X42087800Y-27422949D01*
X42105544Y-27434805D01*
X42293902Y-27512826D01*
X42493861Y-27552600D01*
X42697739Y-27552600D01*
X42897698Y-27512826D01*
X43086056Y-27434805D01*
X43255574Y-27321537D01*
X43399737Y-27177374D01*
X43513005Y-27007856D01*
X43591026Y-26819498D01*
X43630800Y-26619539D01*
X43630800Y-26415661D01*
X43591026Y-26215702D01*
X43513005Y-26027344D01*
X43501149Y-26009600D01*
X43513005Y-25991856D01*
X43591026Y-25803498D01*
X43630800Y-25603539D01*
X43630800Y-25399661D01*
X43591026Y-25199702D01*
X43516176Y-25019000D01*
X43591026Y-24838298D01*
X43630800Y-24638339D01*
X43630800Y-24434461D01*
X43591026Y-24234502D01*
X43513005Y-24046144D01*
X43399737Y-23876626D01*
X43255574Y-23732463D01*
X43086056Y-23619195D01*
X42897698Y-23541174D01*
X42697739Y-23501400D01*
X42493861Y-23501400D01*
X42293902Y-23541174D01*
X42105544Y-23619195D01*
X42087800Y-23631051D01*
X42070056Y-23619195D01*
X41881698Y-23541174D01*
X41681739Y-23501400D01*
X41477861Y-23501400D01*
X41277902Y-23541174D01*
X41089544Y-23619195D01*
X40920026Y-23732463D01*
X40775863Y-23876626D01*
X40662595Y-24046144D01*
X40584574Y-24234502D01*
X40544800Y-24434461D01*
X32655012Y-24434461D01*
X32648812Y-24371518D01*
X32612502Y-24251820D01*
X32553537Y-24141506D01*
X32474185Y-24044815D01*
X32377494Y-23965463D01*
X32267180Y-23906498D01*
X32147482Y-23870188D01*
X32023000Y-23857928D01*
X31223000Y-23857928D01*
X31098518Y-23870188D01*
X30978820Y-23906498D01*
X30868506Y-23965463D01*
X30861023Y-23971604D01*
X30735972Y-23911006D01*
X30659123Y-23901334D01*
X30500000Y-24029002D01*
X30500000Y-25019000D01*
X30520000Y-25019000D01*
X30520000Y-25273000D01*
X30500000Y-25273000D01*
X30500000Y-26262998D01*
X30659123Y-26390666D01*
X30735972Y-26380994D01*
X30861023Y-26320396D01*
X30868506Y-26326537D01*
X30978820Y-26385502D01*
X31098518Y-26421812D01*
X31223000Y-26434072D01*
X31534001Y-26434072D01*
X31534000Y-46372267D01*
X31470717Y-46449377D01*
X31365324Y-46646553D01*
X31300423Y-46860501D01*
X31284000Y-47027248D01*
X31284000Y-49170751D01*
X31300423Y-49337498D01*
X31365324Y-49551446D01*
X31470716Y-49748623D01*
X31612551Y-49921449D01*
X31785377Y-50063284D01*
X31982553Y-50168676D01*
X32196501Y-50233577D01*
X32419000Y-50255491D01*
X32641498Y-50233577D01*
X32855446Y-50168676D01*
X33052623Y-50063284D01*
X33225449Y-49921449D01*
X33367284Y-49748623D01*
X33472676Y-49551447D01*
X33537577Y-49337499D01*
X33554000Y-49170752D01*
X33554000Y-47027248D01*
X33537577Y-46860501D01*
X33472676Y-46646553D01*
X33367284Y-46449377D01*
X33304000Y-46372265D01*
X33304000Y-44773194D01*
X33308263Y-44779574D01*
X33452426Y-44923737D01*
X33621944Y-45037005D01*
X33810302Y-45115026D01*
X34010261Y-45154800D01*
X34214139Y-45154800D01*
X34242000Y-45149258D01*
X34242000Y-45426212D01*
X34238081Y-45466000D01*
X34242000Y-45505788D01*
X34242000Y-45505790D01*
X34253720Y-45624787D01*
X34300037Y-45777472D01*
X34335049Y-45842975D01*
X34375251Y-45918189D01*
X34390952Y-45937320D01*
X34476472Y-46041528D01*
X34507388Y-46066900D01*
X34541488Y-46101000D01*
X33782000Y-46101000D01*
X33757224Y-46103440D01*
X33733399Y-46110667D01*
X33711443Y-46122403D01*
X33692197Y-46138197D01*
X33676403Y-46157443D01*
X33664667Y-46179399D01*
X33657440Y-46203224D01*
X33655000Y-46228000D01*
X33655000Y-53393539D01*
X33545744Y-53438795D01*
X33376226Y-53552063D01*
X33232063Y-53696226D01*
X33118795Y-53865744D01*
X33040774Y-54054102D01*
X33001000Y-54254061D01*
X33001000Y-54457939D01*
X33040774Y-54657898D01*
X33118795Y-54846256D01*
X33232063Y-55015774D01*
X33376226Y-55159937D01*
X33545744Y-55273205D01*
X33734102Y-55351226D01*
X33934061Y-55391000D01*
X34137939Y-55391000D01*
X34337898Y-55351226D01*
X34526256Y-55273205D01*
X34695774Y-55159937D01*
X34839937Y-55015774D01*
X34953205Y-54846256D01*
X35031226Y-54657898D01*
X35071000Y-54457939D01*
X35071000Y-54254061D01*
X35031226Y-54054102D01*
X34953205Y-53865744D01*
X34856490Y-53721000D01*
X37846000Y-53721000D01*
X37870776Y-53718560D01*
X37894601Y-53711333D01*
X37916557Y-53699597D01*
X37935803Y-53683803D01*
X37951597Y-53664557D01*
X37963333Y-53642601D01*
X37970560Y-53618776D01*
X37973000Y-53594000D01*
X37973000Y-51816000D01*
X40327198Y-51816000D01*
X37552199Y-54591000D01*
X37490061Y-54591000D01*
X37290102Y-54630774D01*
X37101744Y-54708795D01*
X36932226Y-54822063D01*
X36788063Y-54966226D01*
X36674795Y-55135744D01*
X36596774Y-55324102D01*
X36557000Y-55524061D01*
X36557000Y-55727939D01*
X36596774Y-55927898D01*
X36674795Y-56116256D01*
X36788063Y-56285774D01*
X36932226Y-56429937D01*
X37101744Y-56543205D01*
X37290102Y-56621226D01*
X37490061Y-56661000D01*
X37693939Y-56661000D01*
X37893898Y-56621226D01*
X38082256Y-56543205D01*
X38102000Y-56530012D01*
X38102001Y-66764668D01*
X38098324Y-66802000D01*
X38102001Y-66839333D01*
X38112998Y-66950986D01*
X38123031Y-66984061D01*
X38156454Y-67094246D01*
X38227026Y-67226276D01*
X38291420Y-67304739D01*
X38322000Y-67342001D01*
X38350998Y-67365799D01*
X39441201Y-68456003D01*
X39464999Y-68485001D01*
X39493997Y-68508799D01*
X39580723Y-68579974D01*
X39656635Y-68620550D01*
X39712753Y-68650546D01*
X39856014Y-68694003D01*
X39967667Y-68705000D01*
X39967676Y-68705000D01*
X40004999Y-68708676D01*
X40042322Y-68705000D01*
X41640987Y-68705000D01*
X41627795Y-68724744D01*
X41549774Y-68913102D01*
X41510000Y-69113061D01*
X41510000Y-69315000D01*
X38926790Y-69315000D01*
X38961626Y-69230898D01*
X39001400Y-69030939D01*
X39001400Y-68827061D01*
X38961626Y-68627102D01*
X38883605Y-68438744D01*
X38770337Y-68269226D01*
X38626174Y-68125063D01*
X38456656Y-68011795D01*
X38268298Y-67933774D01*
X38068339Y-67894000D01*
X37864461Y-67894000D01*
X37664502Y-67933774D01*
X37476144Y-68011795D01*
X37306626Y-68125063D01*
X37162463Y-68269226D01*
X37049195Y-68438744D01*
X36971174Y-68627102D01*
X36931400Y-68827061D01*
X36931400Y-69030939D01*
X36971174Y-69230898D01*
X37006010Y-69315000D01*
X31961644Y-69315000D01*
X31983226Y-69262898D01*
X32023000Y-69062939D01*
X32023000Y-68859061D01*
X31983226Y-68659102D01*
X31905205Y-68470744D01*
X31791937Y-68301226D01*
X31647774Y-68157063D01*
X31478256Y-68043795D01*
X31289898Y-67965774D01*
X31089939Y-67926000D01*
X30886061Y-67926000D01*
X30686102Y-67965774D01*
X30497744Y-68043795D01*
X30328226Y-68157063D01*
X30184063Y-68301226D01*
X30070795Y-68470744D01*
X29992774Y-68659102D01*
X29953000Y-68859061D01*
X29953000Y-69062939D01*
X29992774Y-69262898D01*
X30014356Y-69315000D01*
X25935564Y-69315000D01*
X26120670Y-69217555D01*
X26161088Y-69190548D01*
X26521276Y-68700881D01*
X26335584Y-68515189D01*
X26356830Y-68500993D01*
X26500993Y-68356830D01*
X26515189Y-68335584D01*
X26700881Y-68521276D01*
X27190548Y-68161088D01*
X27550849Y-67497118D01*
X27774694Y-66775615D01*
X27853480Y-66024305D01*
X27784178Y-65272062D01*
X27569452Y-64547792D01*
X27217555Y-63879330D01*
X27190548Y-63838912D01*
X26700881Y-63478724D01*
X26515189Y-63664416D01*
X26500993Y-63643170D01*
X26356830Y-63499007D01*
X26335584Y-63484811D01*
X26521276Y-63299119D01*
X26161088Y-62809452D01*
X25809311Y-62618561D01*
X26633500Y-62618561D01*
X26633500Y-62822439D01*
X26673274Y-63022398D01*
X26751295Y-63210756D01*
X26864563Y-63380274D01*
X27008726Y-63524437D01*
X27178244Y-63637705D01*
X27366602Y-63715726D01*
X27566561Y-63755500D01*
X27770439Y-63755500D01*
X27970398Y-63715726D01*
X28158756Y-63637705D01*
X28328274Y-63524437D01*
X28472437Y-63380274D01*
X28585705Y-63210756D01*
X28663726Y-63022398D01*
X28703500Y-62822439D01*
X28703500Y-62618561D01*
X28663726Y-62418602D01*
X28585705Y-62230244D01*
X28472437Y-62060726D01*
X28328274Y-61916563D01*
X28158756Y-61803295D01*
X27970398Y-61725274D01*
X27770439Y-61685500D01*
X27566561Y-61685500D01*
X27366602Y-61725274D01*
X27178244Y-61803295D01*
X27008726Y-61916563D01*
X26864563Y-62060726D01*
X26751295Y-62230244D01*
X26673274Y-62418602D01*
X26633500Y-62618561D01*
X25809311Y-62618561D01*
X25497118Y-62449151D01*
X24775615Y-62225306D01*
X24024305Y-62146520D01*
X23272062Y-62215822D01*
X22547792Y-62430548D01*
X21879330Y-62782445D01*
X21838912Y-62809452D01*
X21478724Y-63299119D01*
X21664416Y-63484811D01*
X21643170Y-63499007D01*
X21499007Y-63643170D01*
X21484811Y-63664416D01*
X21299119Y-63478724D01*
X20809452Y-63838912D01*
X20685000Y-64068255D01*
X20685000Y-59959480D01*
X24365126Y-59959480D01*
X24485014Y-60244336D01*
X24808710Y-60405199D01*
X25157569Y-60499822D01*
X25518184Y-60524567D01*
X25876698Y-60478485D01*
X26219333Y-60363346D01*
X26441986Y-60244336D01*
X26561874Y-59959480D01*
X25463500Y-58861105D01*
X24365126Y-59959480D01*
X20685000Y-59959480D01*
X20685000Y-58736184D01*
X23620433Y-58736184D01*
X23666515Y-59094698D01*
X23781654Y-59437333D01*
X23900664Y-59659986D01*
X24185520Y-59779874D01*
X25283895Y-58681500D01*
X25643105Y-58681500D01*
X26741480Y-59779874D01*
X27026336Y-59659986D01*
X27187199Y-59336290D01*
X27281822Y-58987431D01*
X27306567Y-58626816D01*
X27260485Y-58268302D01*
X27145346Y-57925667D01*
X27026336Y-57703014D01*
X26741480Y-57583126D01*
X25643105Y-58681500D01*
X25283895Y-58681500D01*
X24185520Y-57583126D01*
X23900664Y-57703014D01*
X23739801Y-58026710D01*
X23645178Y-58375569D01*
X23620433Y-58736184D01*
X20685000Y-58736184D01*
X20685000Y-48356890D01*
X21018524Y-48356890D01*
X21063175Y-48504099D01*
X21188359Y-48766920D01*
X21362412Y-49000269D01*
X21578645Y-49195178D01*
X21828748Y-49344157D01*
X22103109Y-49441481D01*
X22333000Y-49320814D01*
X22333000Y-48127000D01*
X21139845Y-48127000D01*
X21018524Y-48356890D01*
X20685000Y-48356890D01*
X20685000Y-45816890D01*
X21018524Y-45816890D01*
X21063175Y-45964099D01*
X21188359Y-46226920D01*
X21362412Y-46460269D01*
X21578645Y-46655178D01*
X21704255Y-46730000D01*
X21578645Y-46804822D01*
X21362412Y-46999731D01*
X21188359Y-47233080D01*
X21063175Y-47495901D01*
X21018524Y-47643110D01*
X21139845Y-47873000D01*
X22333000Y-47873000D01*
X22333000Y-45587000D01*
X21139845Y-45587000D01*
X21018524Y-45816890D01*
X20685000Y-45816890D01*
X20685000Y-43276890D01*
X21018524Y-43276890D01*
X21063175Y-43424099D01*
X21188359Y-43686920D01*
X21362412Y-43920269D01*
X21578645Y-44115178D01*
X21704255Y-44190000D01*
X21578645Y-44264822D01*
X21362412Y-44459731D01*
X21188359Y-44693080D01*
X21063175Y-44955901D01*
X21018524Y-45103110D01*
X21139845Y-45333000D01*
X22333000Y-45333000D01*
X22333000Y-43047000D01*
X21139845Y-43047000D01*
X21018524Y-43276890D01*
X20685000Y-43276890D01*
X20685000Y-40736890D01*
X21018524Y-40736890D01*
X21063175Y-40884099D01*
X21188359Y-41146920D01*
X21362412Y-41380269D01*
X21578645Y-41575178D01*
X21704255Y-41650000D01*
X21578645Y-41724822D01*
X21362412Y-41919731D01*
X21188359Y-42153080D01*
X21063175Y-42415901D01*
X21018524Y-42563110D01*
X21139845Y-42793000D01*
X22333000Y-42793000D01*
X22333000Y-40507000D01*
X21139845Y-40507000D01*
X21018524Y-40736890D01*
X20685000Y-40736890D01*
X20685000Y-38196890D01*
X21018524Y-38196890D01*
X21063175Y-38344099D01*
X21188359Y-38606920D01*
X21362412Y-38840269D01*
X21578645Y-39035178D01*
X21704255Y-39110000D01*
X21578645Y-39184822D01*
X21362412Y-39379731D01*
X21188359Y-39613080D01*
X21063175Y-39875901D01*
X21018524Y-40023110D01*
X21139845Y-40253000D01*
X22333000Y-40253000D01*
X22333000Y-37967000D01*
X21139845Y-37967000D01*
X21018524Y-38196890D01*
X20685000Y-38196890D01*
X20685000Y-35656890D01*
X21018524Y-35656890D01*
X21063175Y-35804099D01*
X21188359Y-36066920D01*
X21362412Y-36300269D01*
X21578645Y-36495178D01*
X21704255Y-36570000D01*
X21578645Y-36644822D01*
X21362412Y-36839731D01*
X21188359Y-37073080D01*
X21063175Y-37335901D01*
X21018524Y-37483110D01*
X21139845Y-37713000D01*
X22333000Y-37713000D01*
X22333000Y-35427000D01*
X21139845Y-35427000D01*
X21018524Y-35656890D01*
X20685000Y-35656890D01*
X20685000Y-33116890D01*
X21018524Y-33116890D01*
X21063175Y-33264099D01*
X21188359Y-33526920D01*
X21362412Y-33760269D01*
X21578645Y-33955178D01*
X21704255Y-34030000D01*
X21578645Y-34104822D01*
X21362412Y-34299731D01*
X21188359Y-34533080D01*
X21063175Y-34795901D01*
X21018524Y-34943110D01*
X21139845Y-35173000D01*
X22333000Y-35173000D01*
X22333000Y-32887000D01*
X21139845Y-32887000D01*
X21018524Y-33116890D01*
X20685000Y-33116890D01*
X20685000Y-30576890D01*
X21018524Y-30576890D01*
X21063175Y-30724099D01*
X21188359Y-30986920D01*
X21362412Y-31220269D01*
X21578645Y-31415178D01*
X21704255Y-31490000D01*
X21578645Y-31564822D01*
X21362412Y-31759731D01*
X21188359Y-31993080D01*
X21063175Y-32255901D01*
X21018524Y-32403110D01*
X21139845Y-32633000D01*
X22333000Y-32633000D01*
X22333000Y-30347000D01*
X21139845Y-30347000D01*
X21018524Y-30576890D01*
X20685000Y-30576890D01*
X20685000Y-29863110D01*
X21018524Y-29863110D01*
X21139845Y-30093000D01*
X22333000Y-30093000D01*
X22333000Y-28899186D01*
X22587000Y-28899186D01*
X22587000Y-30093000D01*
X22607000Y-30093000D01*
X22607000Y-30347000D01*
X22587000Y-30347000D01*
X22587000Y-32633000D01*
X22607000Y-32633000D01*
X22607000Y-32887000D01*
X22587000Y-32887000D01*
X22587000Y-35173000D01*
X22607000Y-35173000D01*
X22607000Y-35427000D01*
X22587000Y-35427000D01*
X22587000Y-37713000D01*
X22607000Y-37713000D01*
X22607000Y-37967000D01*
X22587000Y-37967000D01*
X22587000Y-40253000D01*
X22607000Y-40253000D01*
X22607000Y-40507000D01*
X22587000Y-40507000D01*
X22587000Y-42793000D01*
X22607000Y-42793000D01*
X22607000Y-43047000D01*
X22587000Y-43047000D01*
X22587000Y-45333000D01*
X22607000Y-45333000D01*
X22607000Y-45587000D01*
X22587000Y-45587000D01*
X22587000Y-47873000D01*
X22607000Y-47873000D01*
X22607000Y-48127000D01*
X22587000Y-48127000D01*
X22587000Y-49320814D01*
X22816891Y-49441481D01*
X23091252Y-49344157D01*
X23341355Y-49195178D01*
X23537502Y-49018374D01*
X23560498Y-49094180D01*
X23615001Y-49196146D01*
X23615000Y-54649971D01*
X23608300Y-54718000D01*
X23615000Y-54786029D01*
X23615000Y-54786036D01*
X23625428Y-54891914D01*
X23625428Y-56381500D01*
X23637688Y-56505982D01*
X23673998Y-56625680D01*
X23732963Y-56735994D01*
X23812315Y-56832685D01*
X23909006Y-56912037D01*
X24019320Y-56971002D01*
X24139018Y-57007312D01*
X24263500Y-57019572D01*
X24670403Y-57019572D01*
X24485014Y-57118664D01*
X24365126Y-57403520D01*
X25463500Y-58501895D01*
X26561874Y-57403520D01*
X26441986Y-57118664D01*
X26242588Y-57019572D01*
X26663500Y-57019572D01*
X26787982Y-57007312D01*
X26907680Y-56971002D01*
X27017994Y-56912037D01*
X27114685Y-56832685D01*
X27194037Y-56735994D01*
X27253002Y-56625680D01*
X27289312Y-56505982D01*
X27301572Y-56381500D01*
X27301572Y-53981500D01*
X27289312Y-53857018D01*
X27269741Y-53792500D01*
X30230928Y-53792500D01*
X30230928Y-54792500D01*
X30243188Y-54916982D01*
X30279498Y-55036680D01*
X30338463Y-55146994D01*
X30417815Y-55243685D01*
X30514506Y-55323037D01*
X30624820Y-55382002D01*
X30744518Y-55418312D01*
X30869000Y-55430572D01*
X31869000Y-55430572D01*
X31993482Y-55418312D01*
X32113180Y-55382002D01*
X32223494Y-55323037D01*
X32320185Y-55243685D01*
X32399537Y-55146994D01*
X32458502Y-55036680D01*
X32494812Y-54916982D01*
X32507072Y-54792500D01*
X32507072Y-53792500D01*
X32494812Y-53668018D01*
X32458502Y-53548320D01*
X32414112Y-53465274D01*
X32460383Y-53353567D01*
X32504000Y-53134288D01*
X32504000Y-52910712D01*
X32460383Y-52691433D01*
X32374824Y-52484876D01*
X32250612Y-52298980D01*
X32092520Y-52140888D01*
X31906624Y-52016676D01*
X31700067Y-51931117D01*
X31480788Y-51887500D01*
X31257212Y-51887500D01*
X31037933Y-51931117D01*
X30831376Y-52016676D01*
X30645480Y-52140888D01*
X30487388Y-52298980D01*
X30363176Y-52484876D01*
X30277617Y-52691433D01*
X30234000Y-52910712D01*
X30234000Y-53134288D01*
X30277617Y-53353567D01*
X30323888Y-53465274D01*
X30279498Y-53548320D01*
X30243188Y-53668018D01*
X30230928Y-53792500D01*
X27269741Y-53792500D01*
X27253002Y-53737320D01*
X27194037Y-53627006D01*
X27114685Y-53530315D01*
X27017994Y-53450963D01*
X26907680Y-53391998D01*
X26787982Y-53355688D01*
X26663500Y-53343428D01*
X26385000Y-53343428D01*
X26385000Y-49196144D01*
X26439502Y-49094180D01*
X26454489Y-49044776D01*
X26594588Y-49184875D01*
X26837809Y-49347390D01*
X27108062Y-49459332D01*
X27394960Y-49516400D01*
X27687480Y-49516400D01*
X27974378Y-49459332D01*
X28244631Y-49347390D01*
X28487852Y-49184875D01*
X28694695Y-48978032D01*
X28857210Y-48734811D01*
X28969152Y-48464558D01*
X29026220Y-48177660D01*
X29026220Y-47885140D01*
X28969152Y-47598242D01*
X28857210Y-47327989D01*
X28694695Y-47084768D01*
X28487852Y-46877925D01*
X28313460Y-46761400D01*
X28487852Y-46644875D01*
X28694695Y-46438032D01*
X28857210Y-46194811D01*
X28969152Y-45924558D01*
X29026220Y-45637660D01*
X29026220Y-45345140D01*
X28969152Y-45058242D01*
X28857210Y-44787989D01*
X28694695Y-44544768D01*
X28487852Y-44337925D01*
X28313460Y-44221400D01*
X28487852Y-44104875D01*
X28694695Y-43898032D01*
X28857210Y-43654811D01*
X28969152Y-43384558D01*
X29026220Y-43097660D01*
X29026220Y-42805140D01*
X28969152Y-42518242D01*
X28857210Y-42247989D01*
X28694695Y-42004768D01*
X28487852Y-41797925D01*
X28313460Y-41681400D01*
X28487852Y-41564875D01*
X28694695Y-41358032D01*
X28857210Y-41114811D01*
X28969152Y-40844558D01*
X29026220Y-40557660D01*
X29026220Y-40265140D01*
X28969152Y-39978242D01*
X28857210Y-39707989D01*
X28694695Y-39464768D01*
X28487852Y-39257925D01*
X28313460Y-39141400D01*
X28487852Y-39024875D01*
X28694695Y-38818032D01*
X28857210Y-38574811D01*
X28969152Y-38304558D01*
X29026220Y-38017660D01*
X29026220Y-37725140D01*
X28969152Y-37438242D01*
X28857210Y-37167989D01*
X28694695Y-36924768D01*
X28487852Y-36717925D01*
X28313460Y-36601400D01*
X28487852Y-36484875D01*
X28694695Y-36278032D01*
X28857210Y-36034811D01*
X28969152Y-35764558D01*
X29026220Y-35477660D01*
X29026220Y-35185140D01*
X28969152Y-34898242D01*
X28857210Y-34627989D01*
X28694695Y-34384768D01*
X28487852Y-34177925D01*
X28313460Y-34061400D01*
X28487852Y-33944875D01*
X28694695Y-33738032D01*
X28857210Y-33494811D01*
X28969152Y-33224558D01*
X29026220Y-32937660D01*
X29026220Y-32645140D01*
X28969152Y-32358242D01*
X28857210Y-32087989D01*
X28694695Y-31844768D01*
X28562840Y-31712913D01*
X28635400Y-31690902D01*
X28745714Y-31631937D01*
X28842405Y-31552585D01*
X28921757Y-31455894D01*
X28980722Y-31345580D01*
X29017032Y-31225882D01*
X29029292Y-31101400D01*
X29029292Y-29401400D01*
X29017032Y-29276918D01*
X28980722Y-29157220D01*
X28921757Y-29046906D01*
X28842405Y-28950215D01*
X28745714Y-28870863D01*
X28635400Y-28811898D01*
X28515702Y-28775588D01*
X28391220Y-28763328D01*
X26691220Y-28763328D01*
X26566738Y-28775588D01*
X26447040Y-28811898D01*
X26336726Y-28870863D01*
X26240035Y-28950215D01*
X26160683Y-29046906D01*
X26101718Y-29157220D01*
X26086731Y-29206624D01*
X25946632Y-29066525D01*
X25703411Y-28904010D01*
X25433158Y-28792068D01*
X25146260Y-28735000D01*
X24853740Y-28735000D01*
X24566842Y-28792068D01*
X24296589Y-28904010D01*
X24053368Y-29066525D01*
X23846525Y-29273368D01*
X23728900Y-29449406D01*
X23557588Y-29219731D01*
X23341355Y-29024822D01*
X23091252Y-28875843D01*
X22816891Y-28778519D01*
X22587000Y-28899186D01*
X22333000Y-28899186D01*
X22103109Y-28778519D01*
X21828748Y-28875843D01*
X21578645Y-29024822D01*
X21362412Y-29219731D01*
X21188359Y-29453080D01*
X21063175Y-29715901D01*
X21018524Y-29863110D01*
X20685000Y-29863110D01*
X20685000Y-25935564D01*
X20782445Y-26120670D01*
X20809452Y-26161088D01*
X21299119Y-26521276D01*
X21484811Y-26335584D01*
X21499007Y-26356830D01*
X21643170Y-26500993D01*
X21664416Y-26515189D01*
X21478724Y-26700881D01*
X21838912Y-27190548D01*
X22502882Y-27550849D01*
X23224385Y-27774694D01*
X23975695Y-27853480D01*
X24727938Y-27784178D01*
X25452208Y-27569452D01*
X26120670Y-27217555D01*
X26161088Y-27190548D01*
X26521276Y-26700881D01*
X26335584Y-26515189D01*
X26356830Y-26500993D01*
X26500993Y-26356830D01*
X26515189Y-26335584D01*
X26700881Y-26521276D01*
X27190548Y-26161088D01*
X27550849Y-25497118D01*
X27569314Y-25437599D01*
X29324082Y-25437599D01*
X29352352Y-25641433D01*
X29419845Y-25835836D01*
X29523967Y-26013336D01*
X29660717Y-26167112D01*
X29824840Y-26291255D01*
X30010028Y-26380994D01*
X30086877Y-26390666D01*
X30246000Y-26262998D01*
X30246000Y-25273000D01*
X29489238Y-25273000D01*
X29324082Y-25437599D01*
X27569314Y-25437599D01*
X27750250Y-24854401D01*
X29324082Y-24854401D01*
X29489238Y-25019000D01*
X30246000Y-25019000D01*
X30246000Y-24029002D01*
X30086877Y-23901334D01*
X30010028Y-23911006D01*
X29824840Y-24000745D01*
X29660717Y-24124888D01*
X29523967Y-24278664D01*
X29419845Y-24456164D01*
X29352352Y-24650567D01*
X29324082Y-24854401D01*
X27750250Y-24854401D01*
X27774694Y-24775615D01*
X27853480Y-24024305D01*
X27784178Y-23272062D01*
X27569452Y-22547792D01*
X27217555Y-21879330D01*
X27190548Y-21838912D01*
X26700881Y-21478724D01*
X24179605Y-24000000D01*
X25058528Y-24878923D01*
X25037282Y-24893119D01*
X24893119Y-25037282D01*
X24878923Y-25058528D01*
X24000000Y-24179605D01*
X23121077Y-25058528D01*
X23106881Y-25037282D01*
X22962718Y-24893119D01*
X22941472Y-24878923D01*
X23820395Y-24000000D01*
X23806253Y-23985858D01*
X23985858Y-23806253D01*
X24000000Y-23820395D01*
X26521276Y-21299119D01*
X26161088Y-20809452D01*
X25931745Y-20685000D01*
X64064436Y-20685000D01*
X63879330Y-20782445D01*
G36*
X24893119Y-64962718D02*
G01*
X25037282Y-65106881D01*
X25058528Y-65121077D01*
X24179605Y-66000000D01*
X25058528Y-66878923D01*
X25037282Y-66893119D01*
X24893119Y-67037282D01*
X24878923Y-67058528D01*
X24000000Y-66179605D01*
X23985858Y-66193748D01*
X23806253Y-66014143D01*
X23820395Y-66000000D01*
X22941472Y-65121077D01*
X22962718Y-65106881D01*
X23106881Y-64962718D01*
X23121077Y-64941472D01*
X24000000Y-65820395D01*
X24878923Y-64941472D01*
X24893119Y-64962718D01*
G37*
X24893119Y-64962718D02*
X25037282Y-65106881D01*
X25058528Y-65121077D01*
X24179605Y-66000000D01*
X25058528Y-66878923D01*
X25037282Y-66893119D01*
X24893119Y-67037282D01*
X24878923Y-67058528D01*
X24000000Y-66179605D01*
X23985858Y-66193748D01*
X23806253Y-66014143D01*
X23820395Y-66000000D01*
X22941472Y-65121077D01*
X22962718Y-65106881D01*
X23106881Y-64962718D01*
X23121077Y-64941472D01*
X24000000Y-65820395D01*
X24878923Y-64941472D01*
X24893119Y-64962718D01*
G36*
X41893129Y-49033042D02*
G01*
X41930774Y-49222298D01*
X42005624Y-49403000D01*
X37973000Y-49403000D01*
X37973000Y-46902056D01*
X38118729Y-46873068D01*
X38288889Y-46802586D01*
X38316705Y-46784000D01*
X39644088Y-46784000D01*
X41893129Y-49033042D01*
G37*
X41893129Y-49033042D02*
X41930774Y-49222298D01*
X42005624Y-49403000D01*
X37973000Y-49403000D01*
X37973000Y-46902056D01*
X38118729Y-46873068D01*
X38288889Y-46802586D01*
X38316705Y-46784000D01*
X39644088Y-46784000D01*
X41893129Y-49033042D01*
G36*
X46023390Y-39681591D02*
G01*
X46019470Y-39721389D01*
X46027496Y-39802870D01*
X46035110Y-39880177D01*
X46076854Y-40017788D01*
X46081427Y-40032862D01*
X46156640Y-40173578D01*
X46189198Y-40213249D01*
X46257862Y-40296917D01*
X46288772Y-40322284D01*
X47786105Y-41819618D01*
X47811472Y-41850528D01*
X47934811Y-41951749D01*
X48075527Y-42026963D01*
X48218855Y-42070442D01*
X48208081Y-42179830D01*
X48212001Y-42219628D01*
X48212000Y-46699137D01*
X46900241Y-45387378D01*
X46874869Y-45356462D01*
X46751530Y-45255241D01*
X46610814Y-45180027D01*
X46458129Y-45133710D01*
X46339132Y-45121990D01*
X46339129Y-45121990D01*
X46299341Y-45118071D01*
X46259553Y-45121990D01*
X44870503Y-45121990D01*
X44733001Y-44984489D01*
X44733001Y-41971448D01*
X44813256Y-41938205D01*
X44982774Y-41824937D01*
X45126937Y-41680774D01*
X45240205Y-41511256D01*
X45318226Y-41322898D01*
X45358000Y-41122939D01*
X45358000Y-40919061D01*
X45318226Y-40719102D01*
X45240205Y-40530744D01*
X45126937Y-40361226D01*
X44982774Y-40217063D01*
X44813256Y-40103795D01*
X44624898Y-40025774D01*
X44424939Y-39986000D01*
X44221061Y-39986000D01*
X44021102Y-40025774D01*
X43832744Y-40103795D01*
X43663226Y-40217063D01*
X43519063Y-40361226D01*
X43405795Y-40530744D01*
X43327774Y-40719102D01*
X43288294Y-40917582D01*
X43246252Y-40968810D01*
X43180143Y-41092494D01*
X43171039Y-41109526D01*
X43127145Y-41254226D01*
X43124722Y-41262212D01*
X43109082Y-41420999D01*
X43113002Y-41460797D01*
X43113001Y-45015489D01*
X42847000Y-44749488D01*
X42847000Y-39131700D01*
X42954205Y-38971256D01*
X43032226Y-38782898D01*
X43072000Y-38582939D01*
X43072000Y-38444010D01*
X46023389Y-38444010D01*
X46023390Y-39681591D01*
G37*
X46023390Y-39681591D02*
X46019470Y-39721389D01*
X46027496Y-39802870D01*
X46035110Y-39880177D01*
X46076854Y-40017788D01*
X46081427Y-40032862D01*
X46156640Y-40173578D01*
X46189198Y-40213249D01*
X46257862Y-40296917D01*
X46288772Y-40322284D01*
X47786105Y-41819618D01*
X47811472Y-41850528D01*
X47934811Y-41951749D01*
X48075527Y-42026963D01*
X48218855Y-42070442D01*
X48208081Y-42179830D01*
X48212001Y-42219628D01*
X48212000Y-46699137D01*
X46900241Y-45387378D01*
X46874869Y-45356462D01*
X46751530Y-45255241D01*
X46610814Y-45180027D01*
X46458129Y-45133710D01*
X46339132Y-45121990D01*
X46339129Y-45121990D01*
X46299341Y-45118071D01*
X46259553Y-45121990D01*
X44870503Y-45121990D01*
X44733001Y-44984489D01*
X44733001Y-41971448D01*
X44813256Y-41938205D01*
X44982774Y-41824937D01*
X45126937Y-41680774D01*
X45240205Y-41511256D01*
X45318226Y-41322898D01*
X45358000Y-41122939D01*
X45358000Y-40919061D01*
X45318226Y-40719102D01*
X45240205Y-40530744D01*
X45126937Y-40361226D01*
X44982774Y-40217063D01*
X44813256Y-40103795D01*
X44624898Y-40025774D01*
X44424939Y-39986000D01*
X44221061Y-39986000D01*
X44021102Y-40025774D01*
X43832744Y-40103795D01*
X43663226Y-40217063D01*
X43519063Y-40361226D01*
X43405795Y-40530744D01*
X43327774Y-40719102D01*
X43288294Y-40917582D01*
X43246252Y-40968810D01*
X43180143Y-41092494D01*
X43171039Y-41109526D01*
X43127145Y-41254226D01*
X43124722Y-41262212D01*
X43109082Y-41420999D01*
X43113002Y-41460797D01*
X43113001Y-45015489D01*
X42847000Y-44749488D01*
X42847000Y-39131700D01*
X42954205Y-38971256D01*
X43032226Y-38782898D01*
X43072000Y-38582939D01*
X43072000Y-38444010D01*
X46023389Y-38444010D01*
X46023390Y-39681591D01*
G36*
X41002000Y-38582939D02*
G01*
X41041774Y-38782898D01*
X41119795Y-38971256D01*
X41227001Y-39131701D01*
X41227000Y-40929788D01*
X41227001Y-40929798D01*
X41227000Y-43907319D01*
X41180750Y-43861069D01*
X41180363Y-43857139D01*
X41171881Y-43771016D01*
X41125564Y-43618330D01*
X41062145Y-43499681D01*
X41050350Y-43477613D01*
X41012255Y-43431195D01*
X40949129Y-43354275D01*
X40918213Y-43328903D01*
X40529871Y-42940561D01*
X40492226Y-42751304D01*
X40414205Y-42562946D01*
X40300937Y-42393428D01*
X40156774Y-42249265D01*
X39987256Y-42135997D01*
X39798898Y-42057976D01*
X39598939Y-42018202D01*
X39395061Y-42018202D01*
X39195102Y-42057976D01*
X39006744Y-42135997D01*
X38837226Y-42249265D01*
X38693063Y-42393428D01*
X38579795Y-42562946D01*
X38501774Y-42751304D01*
X38462000Y-42951263D01*
X38462000Y-43155141D01*
X38501774Y-43355100D01*
X38579795Y-43543458D01*
X38693063Y-43712976D01*
X38744215Y-43764128D01*
X38681395Y-43858144D01*
X38603374Y-44046502D01*
X38563600Y-44246461D01*
X38563600Y-44313401D01*
X37238648Y-44313401D01*
X37393233Y-44158816D01*
X37424142Y-44133450D01*
X37525363Y-44010111D01*
X37568289Y-43929802D01*
X37600577Y-43869396D01*
X37646894Y-43716710D01*
X37662533Y-43557922D01*
X37658614Y-43518131D01*
X37658614Y-41337898D01*
X40552503Y-38444010D01*
X41002000Y-38444010D01*
X41002000Y-38582939D01*
G37*
X41002000Y-38582939D02*
X41041774Y-38782898D01*
X41119795Y-38971256D01*
X41227001Y-39131701D01*
X41227000Y-40929788D01*
X41227001Y-40929798D01*
X41227000Y-43907319D01*
X41180750Y-43861069D01*
X41180363Y-43857139D01*
X41171881Y-43771016D01*
X41125564Y-43618330D01*
X41062145Y-43499681D01*
X41050350Y-43477613D01*
X41012255Y-43431195D01*
X40949129Y-43354275D01*
X40918213Y-43328903D01*
X40529871Y-42940561D01*
X40492226Y-42751304D01*
X40414205Y-42562946D01*
X40300937Y-42393428D01*
X40156774Y-42249265D01*
X39987256Y-42135997D01*
X39798898Y-42057976D01*
X39598939Y-42018202D01*
X39395061Y-42018202D01*
X39195102Y-42057976D01*
X39006744Y-42135997D01*
X38837226Y-42249265D01*
X38693063Y-42393428D01*
X38579795Y-42562946D01*
X38501774Y-42751304D01*
X38462000Y-42951263D01*
X38462000Y-43155141D01*
X38501774Y-43355100D01*
X38579795Y-43543458D01*
X38693063Y-43712976D01*
X38744215Y-43764128D01*
X38681395Y-43858144D01*
X38603374Y-44046502D01*
X38563600Y-44246461D01*
X38563600Y-44313401D01*
X37238648Y-44313401D01*
X37393233Y-44158816D01*
X37424142Y-44133450D01*
X37525363Y-44010111D01*
X37568289Y-43929802D01*
X37600577Y-43869396D01*
X37646894Y-43716710D01*
X37662533Y-43557922D01*
X37658614Y-43518131D01*
X37658614Y-41337898D01*
X40552503Y-38444010D01*
X41002000Y-38444010D01*
X41002000Y-38582939D01*
G36*
X53038001Y-31831514D02*
G01*
X53038000Y-40219319D01*
X52766001Y-40491318D01*
X52766001Y-31559514D01*
X53038001Y-31831514D01*
G37*
X53038001Y-31831514D02*
X53038000Y-40219319D01*
X52766001Y-40491318D01*
X52766001Y-31559514D01*
X53038001Y-31831514D01*
G36*
X46453795Y-33448744D02*
G01*
X46375774Y-33637102D01*
X46336000Y-33837061D01*
X46336000Y-34040939D01*
X46375774Y-34240898D01*
X46453795Y-34429256D01*
X46567063Y-34598774D01*
X46711226Y-34742937D01*
X46880744Y-34856205D01*
X47069102Y-34934226D01*
X47258359Y-34971871D01*
X47766868Y-35480381D01*
X47642744Y-35531795D01*
X47482300Y-35639000D01*
X45559343Y-35639000D01*
X45572226Y-35607898D01*
X45612000Y-35407939D01*
X45612000Y-35204061D01*
X45572226Y-35004102D01*
X45494205Y-34815744D01*
X45380937Y-34646226D01*
X45308111Y-34573400D01*
X46496139Y-33385371D01*
X46453795Y-33448744D01*
G37*
X46453795Y-33448744D02*
X46375774Y-33637102D01*
X46336000Y-33837061D01*
X46336000Y-34040939D01*
X46375774Y-34240898D01*
X46453795Y-34429256D01*
X46567063Y-34598774D01*
X46711226Y-34742937D01*
X46880744Y-34856205D01*
X47069102Y-34934226D01*
X47258359Y-34971871D01*
X47766868Y-35480381D01*
X47642744Y-35531795D01*
X47482300Y-35639000D01*
X45559343Y-35639000D01*
X45572226Y-35607898D01*
X45612000Y-35407939D01*
X45612000Y-35204061D01*
X45572226Y-35004102D01*
X45494205Y-34815744D01*
X45380937Y-34646226D01*
X45308111Y-34573400D01*
X46496139Y-33385371D01*
X46453795Y-33448744D01*
M02*
