M48
; DRILL file {KiCad (5.1.5)-3} date 11/12/2019 14:27:14
; FORMAT={3:3/ absolute / metric / suppress leading zeros}
; #@! TF.CreationDate,2019-12-11T14:27:14+01:00
; #@! TF.GenerationSoftware,Kicad,Pcbnew,(5.1.5)-3
FMAT,2
METRIC,TZ
T1C0.400
T2C0.500
T3C0.650
T4C1.000
T5C1.200
T6C1.400
T7C3.200
T8C0.800
%
G90
G05
T1
X21590Y-62230
X22860Y-62230
X26670Y-52070
X27669Y-62720
X27940Y-52070
X29210Y-52070
X29235Y-23114
X29235Y-24130
X29235Y-25146
X29464Y-62484
X30480Y-67310
X30988Y-68961
X31750Y-67310
X32419Y-47083
X32419Y-48108
X32419Y-49115
X33020Y-67310
X33528Y-45720
X33599Y-31019
X33884Y-32436
X34036Y-54356
X34112Y-44120
X34341Y-52832
X35814Y-42316
X36034Y-44797
X36500Y-21463
X36957Y-57531
X36957Y-58801
X36957Y-60071
X37287Y-46990
X37516Y-21463
X37592Y-55626
X37846Y-31877
X37846Y-45974
X37966Y-68929
X38100Y-33020
X38100Y-67310
X38532Y-21463
X38786Y-26137
X38811Y-47117
X38862Y-55499
X39141Y-29286
X39497Y-43053
X39548Y-21463
X39599Y-44348
X39624Y-56261
X40005Y-42082
X40386Y-66929
X40640Y-21590
X41580Y-24536
X41580Y-25502
X41580Y-26518
X41910Y-21590
X41910Y-57912
X41910Y-59182
X41910Y-60452
X42037Y-38481
X42291Y-34798
X42545Y-69215
X42596Y-24536
X42596Y-25502
X42596Y-26518
X42672Y-54356
X42926Y-31369
X42926Y-48920
X43053Y-35560
X43180Y-21590
X43561Y-34036
X43840Y-26518
X43942Y-69215
X44196Y-48031
X44323Y-41021
X44450Y-54610
X44577Y-35306
X44704Y-44704
X45339Y-48031
X45466Y-60452
X45720Y-21488
X45720Y-35306
X45720Y-54610
X46064Y-52795
X46228Y-28854
X46990Y-21488
X46990Y-49911
X46990Y-52070
X46990Y-53340
X46990Y-54610
X47371Y-33939
X48006Y-49911
X48133Y-36449
X48133Y-55245
X48133Y-56388
X48158Y-37744
X48260Y-21488
X48260Y-52070
X48260Y-53340
X48260Y-68580
X48641Y-40259
X49022Y-49911
X49276Y-51562
X49530Y-68580
X49555Y-21488
X49911Y-28194
X50038Y-31217
X50292Y-52451
X50724Y-33934
X50800Y-21488
X50800Y-54610
X50800Y-55880
X50800Y-68580
X51181Y-40005
X51181Y-50038
X51689Y-29337
X52070Y-60960
X52070Y-62230
X52578Y-57150
X52578Y-59944
X52959Y-37084
X53340Y-60960
X53340Y-62230
X54610Y-29210
X55245Y-45847
X55880Y-21488
X55880Y-29210
X55880Y-30480
X55880Y-31750
X55880Y-68580
X56896Y-41021
X57150Y-21488
X57150Y-29210
X57150Y-30480
X57150Y-31750
X57150Y-68580
X58039Y-34493
X58420Y-21488
X58420Y-29210
X58420Y-30480
X58420Y-41910
X58420Y-43180
X58420Y-68580
X58674Y-48895
X58928Y-50165
X59690Y-29210
X59690Y-30480
X59690Y-41910
X59690Y-43180
X59690Y-68580
X60960Y-41910
X60960Y-59690
X60960Y-60960
X60960Y-62230
X62230Y-40640
X62230Y-59690
X62230Y-60960
X62230Y-62230
X62662Y-53873
X63500Y-40640
X63500Y-62230
X64770Y-40640
X66040Y-40640
X66264Y-32863
X67206Y-51077
X67310Y-40640
X68580Y-32893
X68580Y-34290
X68580Y-35560
X68580Y-40640
X68580Y-50927
X68580Y-54610
X68580Y-55880
X68580Y-57150
X68580Y-58420
T2
X30373Y-25146
X31623Y-25146
X55686Y-25146
X56936Y-25146
X58186Y-25146
X59436Y-25146
X64770Y-54924
X64770Y-56174
X64770Y-57424
X64770Y-58674
X55753Y-64770
X57003Y-64770
X58253Y-64770
X59503Y-64770
X63600Y-24000
X64303Y-22303
X64303Y-25697
X66000Y-21600
X66000Y-26400
X67697Y-22303
X67697Y-25697
X68400Y-24000
X21600Y-24000
X22303Y-22303
X22303Y-25697
X24000Y-21600
X24000Y-26400
X25697Y-22303
X25697Y-25697
X26400Y-24000
X46482Y-64770
X47732Y-64770
X48982Y-64770
X50232Y-64770
X21600Y-66000
X22303Y-64303
X22303Y-67697
X24000Y-63600
X24000Y-68400
X25697Y-64303
X25697Y-67697
X26400Y-66000
X63600Y-66000
X64303Y-64303
X64303Y-67697
X66000Y-63600
X66000Y-68400
X67697Y-64303
X67697Y-67697
X68400Y-66000
X46542Y-25146
X47792Y-25146
X49042Y-25146
X50292Y-25146
T3
X31369Y-53023
X31369Y-54293
T4
X27541Y-30251
X27541Y-32791
X27541Y-35331
X27541Y-37871
X27541Y-40411
X27541Y-42951
X27541Y-45491
X27541Y-48031
X22460Y-30220
X22460Y-32760
X22460Y-35300
X22460Y-37840
X22460Y-40380
X22460Y-42920
X22460Y-45460
X22460Y-48000
X25000Y-30220
X25000Y-32760
X25000Y-35300
X25000Y-37840
X25000Y-40380
X25000Y-42920
X25000Y-45460
X25000Y-48000
T5
X68117Y-30288
X68117Y-38038
X25464Y-55182
X25464Y-58682
T6
X64317Y-30438
X64317Y-37888
T7
X66000Y-24000
X24000Y-24000
X24000Y-66000
X66000Y-66000
T8
X65367Y-31663
X65367Y-36663
T0
M30
